<svg width="70" height="50" viewBox="0 0 70 50" fill="none" xmlns="http://www.w3.org/2000/svg">
<rect width="70" height="50" rx="4" fill="white"/>
<path d="M15.203 31.3911C15.2115 26.5947 15.2047 21.7982 15.2064 17C15.9792 17.0089 16.7502 17.0089 17.523 17.0107C17.5145 21.7929 17.5008 26.5751 17.5298 31.3573C16.7554 31.4018 15.9792 31.3662 15.203 31.3911Z" fill="#2093FD"/>
<path fill-rule="evenodd" clip-rule="evenodd" d="M6.02026 31.4053C5.99126 26.8453 5.99638 22.2853 6.01685 17.7253C6.54795 17.7473 7.07932 17.7526 7.61064 17.7579C8.41216 17.7659 9.21357 17.7739 10.0137 17.8391C10.1942 17.8537 10.3786 17.8601 10.5642 17.8665C11.2136 17.8889 11.8771 17.9118 12.4344 18.2907C14.3791 19.4711 14.6009 22.8187 12.7312 24.1893C13.6046 24.6196 14.3057 25.48 14.4559 26.4898C14.6401 27.672 14.5173 28.9804 13.8161 29.9689C13.1918 30.7956 12.2092 31.3093 11.201 31.3502C10.2663 31.4012 9.33103 31.3944 8.39582 31.3876H8.39578H8.39577C7.60379 31.3818 6.81185 31.376 6.02026 31.4053ZM8.42726 20.0044L8.43056 20.4156V20.4156C8.43879 21.4092 8.44701 22.4028 8.41703 23.3964C8.62813 23.3727 8.84456 23.3584 9.06257 23.3439C9.7765 23.2965 10.5074 23.248 11.1243 22.8667C11.5917 22.2249 11.6275 21.1884 11.1157 20.5609C10.51 20.0179 9.68103 20.0145 8.90358 20.0113H8.90357C8.74174 20.0106 8.58215 20.01 8.42726 20.0044ZM8.43995 27.2209C8.44238 26.6077 8.44482 25.9948 8.45626 25.3822C8.66431 25.3947 8.8734 25.402 9.08274 25.4093C9.68014 25.4302 10.2797 25.4511 10.8633 25.592C12.129 25.8996 12.3849 27.8658 11.4637 28.696C10.8605 29.1402 10.1333 29.1511 9.4112 29.1619C9.07551 29.1669 8.74093 29.1719 8.42044 29.2204C8.43465 28.5538 8.4373 27.8872 8.43995 27.2209Z" fill="#2093FD"/>
<path fill-rule="evenodd" clip-rule="evenodd" d="M35.474 23.7716C34.3515 22.2089 32.2021 21.9227 30.4877 22.376C28.6181 22.8844 27.3131 24.872 27.3693 26.8596C27.3165 28.3564 27.8214 29.9724 29.0189 30.8827C30.2131 31.9244 31.9258 31.9796 33.3758 31.6098C34.7149 31.2649 35.7009 30.1556 36.3713 28.9538C36.0966 28.7875 35.817 28.6297 35.5373 28.4718C35.1502 28.2532 34.7627 28.0344 34.3873 27.7929C33.9779 28.4098 33.5003 29.0178 32.8384 29.3484C32.2738 29.6524 31.5982 29.5831 31.0165 29.3751C30.3001 29.0391 29.877 28.2569 29.7951 27.464C31.9837 27.4462 34.1723 27.4533 36.3609 27.4604H36.3611C36.3747 26.1876 36.2416 24.8151 35.474 23.7716ZM31.777 25.6416C31.1939 25.6405 30.6107 25.6393 30.0271 25.6489C30.4161 23.7502 33.5515 23.7093 33.9336 25.6258C33.2148 25.6444 32.496 25.643 31.777 25.6416Z" fill="#2093FD"/>
<path d="M18.2344 22.4418C19.0088 22.4382 19.785 22.4436 20.5612 22.4364C20.5834 24.1484 20.5663 25.8622 20.568 27.576C20.5902 28.1822 20.6943 28.9129 21.2282 29.2667C21.9123 29.6436 22.7601 29.6507 23.4714 29.3538C24.0207 29.1476 24.3329 28.5164 24.3227 27.9298C24.3756 26.0844 24.3141 24.2391 24.3466 22.3938C25.1142 22.392 25.8818 22.408 26.6495 22.3653C26.7092 23.8587 26.6751 25.3538 26.6802 26.8489C26.6478 28.1324 26.525 29.5476 25.6959 30.568C24.611 31.7573 22.8863 31.7644 21.4295 31.6098C20.3736 31.5387 19.3261 30.9289 18.8366 29.9333C18.3487 28.9893 18.422 27.8853 18.3384 26.8507C18.3401 25.3804 18.2463 23.912 18.2344 22.4418Z" fill="#2093FD"/>
<path fill-rule="evenodd" clip-rule="evenodd" d="M40.0139 17.7689C39.3219 17.7662 38.6296 17.7636 37.9374 17.7591C37.9248 20.3244 37.9265 22.8892 37.9281 25.454C37.9293 27.427 37.9306 29.4 37.9254 31.3733C38.545 31.3406 39.1656 31.3489 39.7864 31.3571C39.9417 31.3592 40.097 31.3612 40.2522 31.3627C40.2386 29.3769 40.2352 27.3893 40.2488 25.4036C40.5846 25.3962 40.9224 25.4052 41.2604 25.4142C42.0627 25.4357 42.8667 25.4572 43.6504 25.2596C44.9605 24.8809 45.7401 23.48 45.8936 22.1413C45.984 20.9502 45.6889 19.6596 44.882 18.776C44.1655 17.9956 43.084 17.8 42.0912 17.7787C41.3991 17.7742 40.7066 17.7716 40.0139 17.7689ZM40.3897 21.2487C40.3924 20.8322 40.3951 20.4157 40.3938 19.9991C40.406 20.0001 40.4183 20.0012 40.4305 20.0022C41.0974 20.058 41.7704 20.1144 42.4204 20.2924C43.4866 20.5324 43.6674 22.2231 42.9049 22.9022C42.3459 23.1922 41.7179 23.2486 41.0962 23.3044C40.8604 23.3256 40.6254 23.3467 40.3955 23.3804C40.3805 22.6699 40.3851 21.9593 40.3897 21.2487Z" fill="#1B49A9"/>
<path d="M54.5714 20.9182C55.3971 20.9164 56.2244 20.9413 57.0518 20.9236C57.8194 22.5218 58.3875 24.2124 59.0681 25.8498C59.875 24.2391 60.5625 22.5644 61.354 20.9431C62.1967 20.9271 63.0394 20.9147 63.8821 20.936C62.2291 24.6124 60.5864 28.296 58.947 31.9778C58.7901 32.28 58.7269 32.6836 58.4233 32.8667C57.6164 32.8951 56.8078 32.8809 56.0009 32.9004C56.5519 31.5956 57.1729 30.3173 57.6522 28.984C57.5209 28.392 57.2616 27.8427 57.0535 27.2773C56.1869 25.1742 55.4346 23.0213 54.5714 20.9182Z" fill="#1B49A9"/>
<path fill-rule="evenodd" clip-rule="evenodd" d="M49.4281 22.1644C48.0839 22.1004 46.7533 22.8933 46.1204 24.1289C45.3254 25.6578 45.3186 27.5209 45.798 29.1564C46.3029 30.808 47.9406 31.9938 49.6089 31.8444C50.396 31.8333 51.0865 31.4381 51.7586 31.0534C51.8338 31.0104 51.9087 30.9675 51.9835 30.9253C51.9895 30.9876 51.9989 31.0813 52.0082 31.1751C52.0176 31.2689 52.027 31.3627 52.033 31.4249C52.3079 31.4204 52.583 31.4241 52.8581 31.4278C53.3376 31.4343 53.817 31.4408 54.295 31.4036C54.2941 31.0959 54.2932 30.7882 54.2922 30.4806C54.2841 27.814 54.276 25.1476 54.3035 22.4827C53.7552 22.4749 53.2059 22.4747 52.6571 22.4744C52.4512 22.4744 52.2455 22.4743 52.0398 22.4738L52.0398 22.4793C52.0381 22.705 52.0364 22.9289 52.0364 23.1529C51.2585 22.6196 50.3919 22.1058 49.4281 22.1644ZM48.0822 25.7716C48.2306 25.2062 48.6127 24.6818 49.1398 24.4542C50.0849 24.0347 51.3916 24.4276 51.772 25.4782C52.3264 26.8222 52.1046 28.7547 50.7229 29.4444C49.8938 29.7573 48.8191 29.5244 48.338 28.7067C47.8604 27.8231 47.8007 26.7333 48.0822 25.7716Z" fill="#1B49A9"/>
</svg>
