<svg width="70" height="50" viewBox="0 0 70 50" fill="none" xmlns="http://www.w3.org/2000/svg">
<rect width="70" height="50" rx="4" fill="white"/>
<path fill-rule="evenodd" clip-rule="evenodd" d="M36.0285 9.00332C32.861 8.91162 29.7908 10.7266 28.1899 13.4356C29.3247 12.5052 30.727 11.8537 32.2152 11.8404C34.7103 11.6608 37.1232 12.7841 38.9687 14.3966C39.5132 14.9239 40.18 15.455 40.99 15.3786C42.3541 15.3403 43.4755 13.7336 42.7954 12.4842C41.2613 10.3426 38.6745 8.97658 36.0285 9.00332ZM32.5859 12.4613C30.7384 12.4498 28.8509 13.3267 27.8326 14.8971C26.9901 16.1542 26.7895 17.7896 27.2194 19.232C27.7428 20.9227 29.1871 22.2467 30.876 22.73C32.3681 23.2497 33.9595 22.9975 35.4649 22.6823C33.8812 22.3728 32.3623 21.4366 31.686 19.9274C30.8225 18.1659 31.2428 15.9001 32.6718 14.559C33.5526 13.661 34.7963 13.2847 36.0228 13.2006C34.9319 12.7593 33.7742 12.425 32.5859 12.4613ZM37.2493 15.3136C37.6792 15.1627 37.7327 15.69 37.7116 15.9899C37.7051 16.5263 37.7088 17.0629 37.7125 17.5995C37.7186 18.4696 37.7246 19.3397 37.6868 20.2082C37.7288 20.7164 37.1003 20.5425 36.8443 20.3591C36.384 20.0783 35.9126 19.8146 35.4412 19.5509L35.4412 19.5509C34.6329 19.0988 33.8248 18.6468 33.073 18.1086C33.074 18.0628 33.0759 17.9935 33.0778 17.9242C33.0797 17.855 33.0816 17.7857 33.0826 17.7399C33.4917 17.4139 33.9494 17.1603 34.4065 16.907L34.4065 16.907L34.4065 16.907C34.6217 16.7878 34.8368 16.6686 35.0465 16.542C35.3173 16.3951 35.5811 16.2354 35.8448 16.0757C36.3013 15.7994 36.7577 15.5231 37.2493 15.3136ZM41.9873 21.8894C41.3301 20.9457 39.8858 20.7336 39.0012 21.4749C36.8672 23.0701 34.1219 24.0425 31.4472 23.5439C30.0144 23.3204 28.7573 22.5237 27.7256 21.5341C28.8433 23.9394 30.9944 25.8727 33.5774 26.5491C36.3533 27.3075 39.517 26.656 41.6778 24.7303C42.5069 24.0578 42.6196 22.73 41.9873 21.8894Z" fill="#26ACE3"/>
<path fill-rule="evenodd" clip-rule="evenodd" d="M39.5593 31.8645C39.0068 31.8645 38.457 31.8645 37.9059 31.8631C37.9116 33.2923 37.9105 34.7221 37.9094 36.1517C37.909 36.7234 37.9086 37.2952 37.9086 37.8668C37.8898 38.6968 38.1271 39.535 38.6045 40.2162C39.6465 41.7315 41.8323 42.2947 43.471 41.4499C45.2076 40.6681 46.0806 38.5077 45.4557 36.7229C45.0333 35.4677 43.9377 34.4714 42.6409 34.1884C41.5681 33.8867 40.4256 34.2702 39.5526 34.9099C39.5588 34.3242 39.5583 33.7385 39.5578 33.1529C39.5574 32.7234 39.5571 32.2939 39.5593 31.8645ZM39.6317 38.5051C39.3045 37.3907 40.0689 36.1516 41.1645 35.8338C42.476 35.3993 43.9819 36.4909 43.994 37.8681C44.0879 39.0964 42.9789 40.2108 41.7626 40.1987C40.781 40.1786 39.8691 39.4612 39.6317 38.5051Z" fill="#26ACE3"/>
<path fill-rule="evenodd" clip-rule="evenodd" d="M51.4862 34.2206C49.8622 33.7485 47.9982 34.5397 47.1507 35.9907C46.3233 37.3625 46.4641 39.2439 47.4712 40.4871C48.709 42.0225 51.116 42.2518 52.7226 41.1683C52.7172 41.3882 52.7132 41.6068 52.7105 41.8267C53.2697 41.8307 53.8316 41.8307 54.3921 41.824C54.3906 41.1923 54.3912 40.5605 54.3918 39.9287C54.3922 39.4233 54.3927 38.9179 54.3921 38.4125C54.38 37.7367 54.3452 37.038 54.0528 36.4171C53.5915 35.343 52.6193 34.5089 51.4862 34.2206ZM48.2745 38.0062C48.2262 36.9777 49.008 36.0349 49.9936 35.8016C51.3333 35.4449 52.7909 36.6169 52.7158 38.0035C52.7722 39.2976 51.4701 40.3757 50.2122 40.1773C49.1622 40.0298 48.2611 39.087 48.2745 38.0062Z" fill="#26ACE3"/>
<path d="M56.3057 35.3899C57.3115 34.2434 59.0199 33.7847 60.4615 34.289C61.5584 34.6162 62.4033 35.5187 62.8364 36.5566C62.2249 36.562 61.6147 36.562 61.0046 36.5593C60.3944 35.8204 59.319 35.5374 58.4285 35.8928C57.3557 36.283 56.6906 37.5757 57.0996 38.6633C57.4416 39.7187 58.6377 40.4106 59.7213 40.1424C60.2241 40.0566 60.6372 39.7374 60.9831 39.3807C61.5987 39.37 62.2155 39.37 62.831 39.3834C62.3657 40.3731 61.5987 41.2769 60.5272 41.6188C58.7504 42.2961 56.5672 41.4257 55.7452 39.7133C55.0372 38.3361 55.2598 36.5378 56.3057 35.3899Z" fill="#26ACE3"/>
<path d="M30.462 31.8658C31.0239 31.8618 31.5858 31.8658 32.1477 31.8577C32.1436 32.8407 32.1544 33.8236 32.141 34.8066C33.0984 34.2487 34.3603 34.2367 35.3272 34.7798C36.3477 35.3189 36.939 36.46 36.9551 37.5932C36.9659 39.0053 36.9538 40.416 36.9592 41.8267C36.3986 41.8294 35.8381 41.828 35.2762 41.8294C35.2708 40.4173 35.2708 39.0039 35.2601 37.5918C35.2735 36.7779 34.5387 36.0202 33.7126 36.0671C32.8463 36.039 32.1369 36.8825 32.1638 37.7179C32.1611 39.0897 32.1638 40.4602 32.1638 41.8321C31.5965 41.828 31.0293 41.8294 30.462 41.8267C30.4634 38.5064 30.4647 35.1861 30.462 31.8658Z" fill="#2A2E34"/>
<path d="M9.32927 34.419C10.504 33.8827 11.9308 34.0114 13.0143 34.6993C13.7023 35.1378 14.1957 35.8164 14.5136 36.5593C13.9034 36.5606 13.2933 36.562 12.6844 36.5566C12.0434 35.7681 10.8513 35.5106 9.94345 35.9652C8.94843 36.4104 8.38387 37.671 8.79422 38.6968C9.14422 39.7053 10.2774 40.3851 11.3314 40.1545C11.8557 40.074 12.313 39.7669 12.6603 39.3754C13.2731 39.3754 13.886 39.3713 14.5002 39.3781C14.0321 40.4441 13.1605 41.3802 12.0086 41.6819C10.1164 42.2961 7.86625 41.1817 7.24268 39.2842C6.50916 37.4443 7.50552 35.1673 9.32927 34.419Z" fill="#2A2E34"/>
<path fill-rule="evenodd" clip-rule="evenodd" d="M20.4273 34.2487C18.617 33.66 16.4875 34.6832 15.7687 36.4332C14.9225 38.2396 15.7499 40.6761 17.6045 41.4794C18.8677 42.0681 20.4045 41.93 21.5645 41.1643C21.5591 41.3842 21.5565 41.6055 21.5538 41.8254L21.5537 41.8294C21.6915 41.8294 21.8293 41.8293 21.9671 41.8292C22.3805 41.829 22.7942 41.8287 23.2085 41.8307C23.2051 41.256 23.2063 40.6816 23.2074 40.1071C23.209 39.3211 23.2106 38.5352 23.2005 37.7487C23.1468 36.1489 21.9695 34.6725 20.4273 34.2487ZM17.1137 38.1497C17.0078 37.1064 17.752 36.0859 18.7551 35.8204C19.9673 35.4543 21.3311 36.3555 21.5216 37.5945C21.7468 38.6901 21.0053 39.8622 19.9137 40.1169C18.6357 40.5099 17.1955 39.4692 17.1137 38.1497Z" fill="#2A2E34"/>
<path d="M24.5952 35.3121C25.0619 34.5277 25.9872 34.0985 26.8803 34.0798C27.933 34.1039 28.8904 34.82 29.2565 35.8003C28.704 35.8204 28.1502 35.8204 27.5964 35.8016C27.1431 35.4476 26.3828 35.4248 26.014 35.9129C25.8987 36.1771 25.9255 36.566 26.2406 36.6746C27.0198 37.0662 27.9357 37.1694 28.637 37.7179C29.7138 38.4849 29.8211 40.2819 28.8153 41.1508C28.2146 41.6752 27.3872 41.9125 26.5987 41.8428C25.3341 41.7342 24.1862 40.6828 24.146 39.3794C24.6958 39.3713 25.2443 39.374 25.7941 39.3767C25.9067 39.834 26.195 40.3449 26.7368 40.3328C27.3081 40.4508 27.9155 39.9346 27.7855 39.3405C27.7425 38.9275 27.2853 38.8081 26.9594 38.6941C26.254 38.4876 25.4897 38.3294 24.9345 37.8131C24.2627 37.1869 24.1272 36.0953 24.5952 35.3121Z" fill="#2A2E34"/>
</svg>
