<svg width="70" height="50" viewBox="0 0 70 50" fill="none" xmlns="http://www.w3.org/2000/svg">
<rect width="70" height="50" rx="4" fill="white"/>
<path d="M43.7365 19.511C44.3479 19.0015 44.9355 18.458 45.5872 18C45.5922 22.5897 45.5998 27.1806 45.5759 31.7703C44.9606 31.7741 44.3467 31.7753 43.7314 31.769C43.7541 27.6839 43.744 23.5974 43.7365 19.511Z" fill="#160F42"/>
<path d="M32.9995 19.4884C33.548 19.1072 34.2186 19.0178 34.8665 18.9549C34.8464 20.5439 34.8867 22.1342 34.8451 23.722C35.8542 23.0036 37.2142 22.7822 38.3893 23.1936C39.2348 23.4377 39.9179 24.0416 40.4652 24.7096C41.0704 25.5148 41.2956 26.5553 41.2704 27.5492C41.2755 28.9546 41.2478 30.3599 41.2843 31.7653C40.6665 31.7778 40.0475 31.7753 39.4285 31.7665C39.4612 30.3159 39.4323 28.8653 39.4449 27.4146C39.4537 26.9529 39.3493 26.4924 39.1241 26.0898C38.69 25.1412 37.5187 24.5775 36.5147 24.916C35.5824 25.2393 34.8703 26.1666 34.8741 27.1668C34.8514 28.7004 34.859 30.2366 34.8728 31.7715C34.2475 31.7741 33.6222 31.7753 32.9969 31.769C33.0196 27.6763 33.0158 23.5823 32.9995 19.4884Z" fill="#160F42"/>
<path d="M9.00941 23.1709C10.0864 22.8149 11.3005 23.0099 12.2592 23.5949C12.8568 23.9522 13.2896 24.5096 13.6997 25.0594C13.1826 25.4633 12.536 25.6771 11.878 25.6557C11.459 25.2418 10.9482 24.8631 10.3393 24.8292C9.39944 24.731 8.50239 25.3651 8.1023 26.1879C7.79657 26.9051 7.80538 27.7392 8.05827 28.4715C8.37783 29.1093 8.91631 29.7095 9.64351 29.8541C10.4676 30.0643 11.3621 29.7271 11.8905 29.0716C12.5473 29.0401 13.1537 29.3131 13.6758 29.6881C13.1587 30.5285 12.3888 31.2154 11.4515 31.5489C10.528 31.8923 9.47492 31.8395 8.57913 31.4369C7.13857 30.8091 6.16226 29.3358 6.02009 27.7858C5.82508 25.8218 7.06686 23.7157 9.00941 23.1709Z" fill="#160F42"/>
<path d="M25.4419 23.9044C26.1112 23.2665 27.0611 23.0351 27.9594 22.9872C28.8992 22.9998 29.912 23.2049 30.6153 23.8717C30.9173 24.1447 31.1248 24.4995 31.345 24.8367C30.8694 25.2104 30.3083 25.4758 29.6969 25.5098C29.4264 25.0141 28.8904 24.7172 28.3305 24.7084C27.7908 24.6555 27.0787 24.7222 26.8296 25.2884C26.6232 25.5865 26.8623 25.9476 27.1114 26.1301C27.8562 26.6497 28.8338 26.5666 29.6189 27.002C30.2127 27.3467 30.8392 27.7568 31.0972 28.4274C31.4733 29.1081 31.2947 29.9661 30.8481 30.5688C29.444 32.1075 26.7516 32.2031 25.2544 30.7499C25.0015 30.5109 24.8455 30.1926 24.6555 29.907C25.1412 29.5509 25.7035 29.2993 26.3037 29.2213C26.5465 29.7573 27.1378 30.024 27.7027 30.0378C28.2286 30.0856 28.8841 30.0127 29.1747 29.5044C29.3509 29.2528 29.2502 28.9193 29.0288 28.7344C28.2638 28.128 27.2209 28.1871 26.3829 27.7367C25.6557 27.3844 24.9965 26.7805 24.775 25.9803C24.5939 25.2355 24.8442 24.3951 25.4419 23.9044Z" fill="#160F42"/>
<path fill-rule="evenodd" clip-rule="evenodd" d="M53.8468 23.7862C52.1697 22.5305 49.5981 22.6752 48.1122 24.1699C46.449 25.6973 46.3156 28.5507 47.8027 30.2417C48.6608 31.2683 50.0171 31.9099 51.367 31.8105C52.8126 31.8483 54.0481 30.9324 54.9741 29.9095C54.8297 29.7595 54.6814 29.6135 54.5332 29.4677C54.2563 29.1953 53.9797 28.9232 53.7298 28.625C53.5921 28.7473 53.4629 28.8827 53.3335 29.0184C53.0184 29.3488 52.7019 29.6806 52.2578 29.8277C51.5507 30.1548 50.7317 30.0819 50.0271 29.7912C50.65 29.1736 51.2686 28.552 51.8871 27.9305C52.909 26.9036 53.9308 25.8768 54.9716 24.8682C54.6351 24.4755 54.2454 24.1348 53.8578 23.7957L53.8468 23.7862ZM48.7992 28.5558C48.4519 27.8273 48.4079 26.9428 48.7828 26.2169C49.354 24.8958 51.1079 24.258 52.3748 24.9801C51.1544 26.1427 49.9491 27.324 48.7992 28.5558Z" fill="#160F42"/>
<path d="M56.4197 22.9898C58.912 22.986 61.4044 22.9898 63.8955 22.9872C63.8892 23.4402 63.888 23.8931 63.8955 24.346C62.2612 26.2458 60.6873 28.1972 59.0391 30.0844C60.4797 30.0655 61.9215 30.0907 63.3633 30.0693C63.7332 30.5574 63.9018 31.1601 63.9094 31.7678C61.422 31.7778 58.9347 31.7741 56.4486 31.769C56.4599 31.306 56.4599 30.8443 56.4524 30.3813C58.0351 28.4702 59.6493 26.5868 61.2308 24.6744C59.8041 24.6782 58.3773 24.6857 56.9506 24.6719C56.6059 24.1762 56.4675 23.5823 56.4197 22.9898Z" fill="#160F42"/>
<path d="M15.8172 24.336C16.6551 23.4062 17.917 22.908 19.16 22.9281C20.6019 22.9268 22.0437 22.9331 23.4855 22.9268C22.9005 23.5144 22.2953 24.0806 21.7304 24.6882C20.7478 24.7109 19.7652 24.6643 18.7839 24.7084C17.4339 24.8128 16.3317 26.0734 16.367 27.4196C16.3594 28.1129 16.7004 28.747 17.1294 29.2691C16.7142 29.6868 16.2839 30.0894 15.875 30.5147C14.9226 29.5396 14.4433 28.1255 14.6446 26.773C14.788 25.8721 15.1629 24.9864 15.8172 24.336Z" fill="#28C4F4"/>
<path d="M23.4855 22.9269L23.5056 22.908C23.4867 24.497 23.5169 26.086 23.4917 27.6751C23.3974 29.683 21.7694 31.4809 19.784 31.7778C19.0593 31.8382 18.3032 31.8584 17.6137 31.5954C16.9658 31.3639 16.3858 30.9714 15.875 30.5147C16.2839 30.0894 16.7142 29.6868 17.1294 29.2691C17.8503 29.9498 18.9436 30.2417 19.891 29.912C20.9604 29.6 21.7304 28.5193 21.7316 27.4159C21.7429 26.5063 21.7304 25.5966 21.7304 24.6882C22.2953 24.0806 22.9004 23.5144 23.4855 22.9269Z" fill="#A8A9AD"/>
</svg>
