<svg width="70" height="50" viewBox="0 0 70 50" fill="none" xmlns="http://www.w3.org/2000/svg">
<rect width="70" height="50" rx="4" fill="#FD6542"/>
<path fill-rule="evenodd" clip-rule="evenodd" d="M29.2128 10.0474C29.0259 10.1833 29.0319 10.4117 29.0376 10.6267V10.6267V10.6268V10.6268C29.0394 10.6914 29.041 10.7547 29.0374 10.814C29.0492 11.065 28.9922 11.307 28.9352 11.5492C28.8876 11.7512 28.8399 11.9534 28.8322 12.161C28.8283 12.2813 28.8142 12.4007 28.8001 12.5201C28.7849 12.6486 28.7697 12.777 28.7672 12.9066C28.7604 13.3419 28.6833 13.7695 28.6062 14.1969C28.5692 14.4017 28.5323 14.6066 28.5031 14.8122C28.4979 15.0296 28.4787 15.2457 28.4595 15.4618V15.4618V15.4618V15.4618C28.4409 15.67 28.4224 15.8781 28.4164 16.0874C28.3874 16.2852 28.3486 16.4822 28.3098 16.6794L28.3098 16.6794C28.229 17.0895 28.1482 17.5 28.155 17.9199C28.1657 18.3561 28.0873 18.7827 28.0088 19.2096V19.2096V19.2096V19.2097L28.0088 19.2097C27.9475 19.543 27.8862 19.8765 27.8672 20.2149C27.8309 20.4179 27.8248 20.6235 27.8186 20.8291V20.8291V20.8291V20.8291C27.8142 20.9795 27.8097 21.1299 27.7934 21.2795C27.7684 21.4269 27.7402 21.574 27.7121 21.7212C27.6311 22.1441 27.5501 22.5675 27.5435 22.9996C27.5301 23.4102 27.4582 23.8143 27.3863 24.2182L27.3863 24.2182C27.3494 24.4257 27.3125 24.6333 27.2835 24.8415C27.2828 25.032 27.264 25.2209 27.2452 25.4098V25.4098V25.4098V25.4098L27.2452 25.4098C27.2263 25.6005 27.2073 25.7911 27.207 25.9833C27.1981 26.2928 27.1351 26.5956 27.072 26.8985C27.0046 27.2225 26.9371 27.5466 26.9361 27.8788C26.9353 28.077 26.9151 28.2738 26.8948 28.4708C26.878 28.6331 26.8613 28.7955 26.8555 28.9589C26.8346 29.075 26.8125 29.191 26.7905 29.3072C26.693 29.82 26.5951 30.3346 26.5968 30.8592C26.5939 31.2503 26.523 31.6337 26.4521 32.0171C26.4061 32.2656 26.3601 32.5142 26.3327 32.7648C26.3352 32.9687 26.3135 33.1721 26.2918 33.3753C26.2603 33.6708 26.2288 33.966 26.2717 34.2621C26.3142 34.3475 26.4028 34.3482 26.4876 34.349H26.4876H26.4877H26.4877C26.5139 34.3492 26.5397 34.3494 26.5636 34.3522C27.1954 34.3484 27.8275 34.3488 28.4595 34.3491C28.8544 34.3493 29.2494 34.3496 29.6442 34.3488C29.8521 33.7102 29.9354 33.037 29.9828 32.37C29.9731 31.9224 30.0594 31.4856 30.1455 31.0493C30.18 30.8743 30.2145 30.6994 30.2429 30.5239C30.2632 29.9239 30.3038 29.3233 30.4108 28.7321C30.5239 28.2086 30.6113 27.675 30.5923 27.1379C30.5837 26.7838 30.6575 26.4395 30.7313 26.0952C30.8036 25.7574 30.876 25.4196 30.8706 25.0725C30.8741 24.9711 30.8867 24.8705 30.8993 24.7698C30.9134 24.6573 30.9274 24.5448 30.9289 24.4312C30.9308 24.0847 30.9986 23.7466 31.0665 23.4083L31.0665 23.4083L31.0665 23.4083L31.0665 23.4083L31.0665 23.4082C31.116 23.1613 31.1656 22.9142 31.1896 22.6637C31.2173 22.0345 31.2519 21.4007 31.3968 20.7858C31.4543 20.5331 31.4745 20.2757 31.4948 20.0182L31.4948 20.0182L31.4948 20.0182L31.4948 20.0182C31.5053 19.8845 31.5158 19.7507 31.5316 19.6176C31.5265 19.2147 31.6001 18.8202 31.6738 18.4257C31.7474 18.0313 31.8211 17.6368 31.816 17.2339C31.8115 16.7698 31.897 16.3165 31.9825 15.8631C32.0646 15.4272 32.1469 14.9912 32.1492 14.5454C32.1415 14.0979 32.2232 13.6595 32.3048 13.2215L32.3048 13.2214C32.345 13.0059 32.3852 12.7904 32.4146 12.5741C32.4112 12.336 32.4349 12.1 32.4586 11.864C32.4773 11.6778 32.4959 11.4916 32.5013 11.3043C32.5146 11.1295 32.5565 10.9589 32.5983 10.7885C32.652 10.5694 32.7056 10.3506 32.6984 10.1239C32.5491 10.0255 32.373 10.0291 32.2006 10.0326C32.1502 10.0337 32.1 10.0347 32.051 10.0332C31.6568 10.0391 31.2623 10.0368 30.868 10.0345C30.3159 10.0313 29.7639 10.0281 29.2128 10.0474ZM37.7706 10.1693C37.4225 10.2932 37.069 10.4287 36.7826 10.6691C36.3959 10.9549 36.1772 11.3964 35.9754 11.8196C35.8599 12.0753 35.8662 12.3572 35.8724 12.6334L35.8724 12.6336C35.8737 12.6895 35.8749 12.7451 35.8751 12.8002C35.87 13.1154 36.0164 13.3997 36.1572 13.6732L36.1812 13.7199C36.5124 14.3659 37.1632 14.8217 37.8681 14.9652C38.4952 15.0695 39.102 14.7973 39.5909 14.4269C39.9546 14.1431 40.2092 13.7443 40.3975 13.3285C40.4925 13.1343 40.4897 12.9195 40.487 12.707V12.7069V12.7069V12.7068C40.4861 12.6393 40.4853 12.572 40.4875 12.5057C40.4853 12.4456 40.4861 12.385 40.4869 12.3242C40.4887 12.1797 40.4905 12.0346 40.4523 11.8948C40.214 11.2718 39.7853 10.6969 39.1745 10.4002L39.1169 10.3753C38.695 10.192 38.2285 9.98928 37.7706 10.1693ZM21.7772 11.1973C22.3616 10.8099 23.0374 10.5987 23.7079 10.4138C24.681 10.2695 25.6765 10.2689 26.6517 10.4043C26.8745 10.4551 27.1616 10.5546 27.2002 10.8147C27.1928 11.0805 27.122 11.3353 27.0511 11.5905C26.9914 11.8053 26.9316 12.0203 26.9097 12.2422C26.8974 12.2934 26.8912 12.3499 26.8849 12.4073C26.8672 12.568 26.8488 12.736 26.6936 12.8158C26.2739 13.0805 25.7937 13.0732 25.3136 13.0659C24.8416 13.0588 24.3696 13.0516 23.955 13.3027C23.6198 13.4862 23.3002 13.7097 23.0469 13.9982C22.6982 14.4127 22.4923 14.9212 22.3128 15.4264C22.2444 15.633 22.2018 15.8483 22.1984 16.0657C22.194 16.3907 22.1181 16.7052 22.0423 17.0195L22.0423 17.0195L22.0423 17.0195C22.0023 17.1853 21.9624 17.3511 21.9329 17.5183C21.8997 17.6632 22.0392 17.7797 22.1666 17.8115C22.3134 17.824 22.4588 17.8058 22.6043 17.7877C22.7273 17.7723 22.8504 17.757 22.9745 17.7601C23.4471 17.7619 23.9197 17.7615 24.3924 17.7611H24.3925H24.3925C24.7793 17.7608 25.1662 17.7605 25.5532 17.7614C25.7192 17.754 25.9717 17.842 25.9189 18.0533C25.8898 18.2442 25.8461 18.4332 25.8023 18.6222C25.7251 18.9562 25.6477 19.2904 25.6508 19.6359C25.6602 19.8939 25.6162 20.1492 25.5377 20.395C24.9044 20.3999 24.271 20.3992 23.6376 20.3985H23.6376H23.6376C23.1214 20.3979 22.6053 20.3974 22.0894 20.3998C21.8523 20.3889 21.6499 20.5908 21.6593 20.8285C21.6114 21.1074 21.6035 21.3898 21.5957 21.672C21.5861 22.0193 21.5765 22.3663 21.4921 22.7063C21.3704 23.2414 21.326 23.7872 21.2817 24.3329L21.2817 24.3329L21.2817 24.3329C21.2653 24.5345 21.2489 24.7361 21.2286 24.937C21.1196 25.5289 21.016 26.1235 20.9828 26.7255C20.9842 27.2686 20.8948 27.8077 20.7722 28.3359C20.7144 28.5555 20.7082 28.7808 20.702 29.0064C20.6968 29.1961 20.6916 29.386 20.6557 29.5731C20.6476 29.9435 20.5797 30.3071 20.5118 30.6707C20.4374 31.069 20.363 31.4672 20.3672 31.8743C20.3778 32.3098 20.2962 32.7352 20.2146 33.1609C20.1649 33.4203 20.1152 33.6798 20.0862 33.9418C20.0602 34.1792 19.9897 34.4057 19.9192 34.6323C19.8557 34.8362 19.7922 35.0401 19.7611 35.2522C19.7286 35.4801 19.6621 35.6998 19.5956 35.9195C19.5224 36.1612 19.4492 36.403 19.4212 36.656C19.2769 37.2296 18.9979 37.8147 18.4988 38.1614C18.1738 38.3476 17.8061 38.4871 17.4261 38.4743C17.1861 38.4721 16.946 38.4723 16.706 38.4725C16.5058 38.4726 16.3057 38.4728 16.1056 38.4716C16.0927 38.1045 16.0873 37.7375 16.1117 37.3711C16.1394 37.1361 16.1846 36.9031 16.2299 36.6702L16.2299 36.6702C16.2987 36.316 16.3675 35.9618 16.3745 35.6002C16.379 35.4791 16.3929 35.3587 16.4069 35.2384C16.4244 35.0877 16.442 34.937 16.4408 34.7849C16.4412 34.5609 16.4931 34.3447 16.5449 34.1285C16.5793 33.9851 16.6137 33.8417 16.6331 33.6959C16.6738 32.7844 16.7666 31.8729 16.9616 30.9804C16.9747 30.6604 16.9997 30.3417 17.0248 30.0231C17.0398 29.8319 17.0548 29.6407 17.0672 29.4492C17.0945 29.2344 17.1374 29.0213 17.1803 28.8083C17.256 28.4331 17.3315 28.058 17.3212 27.6736C17.3191 27.274 17.3923 26.8826 17.4655 26.4912C17.5103 26.2518 17.5551 26.0125 17.5826 25.7713C17.5833 25.5867 17.6025 25.4035 17.6217 25.2204C17.6399 25.0461 17.6581 24.8719 17.6605 24.6966C17.6734 24.3846 17.7358 24.0792 17.7983 23.7739C17.831 23.6141 17.8638 23.4543 17.8894 23.2935C17.93 23.0665 17.9308 22.8363 17.9317 22.6061C17.9327 22.3527 17.9336 22.0994 17.9875 21.8503C18.0101 21.6849 18.0496 21.5221 18.0891 21.3594C18.1422 21.1406 18.1953 20.922 18.207 20.6971C18.2423 20.4442 17.9778 20.388 17.7722 20.3444L17.7722 20.3444L17.7721 20.3444C17.7377 20.337 17.7048 20.3301 17.6754 20.3226C17.5127 20.2746 17.3415 20.2681 17.1709 20.2617C16.9325 20.2528 16.6951 20.2438 16.4835 20.1215C16.3122 20.0057 16.1212 19.8756 16.0555 19.6691C16.0203 19.4795 16.045 19.2907 16.0697 19.1016C16.0859 18.9779 16.1021 18.8541 16.1015 18.7298C16.1063 18.6524 16.1057 18.5735 16.1051 18.4943C16.1035 18.2896 16.1019 18.0832 16.1923 17.8962C16.2878 17.7736 16.4578 17.7567 16.602 17.7573C17.2426 17.7621 17.8826 17.7634 18.5225 17.7621C18.536 17.6352 18.5403 17.5077 18.5446 17.3802V17.3802C18.5507 17.1994 18.5567 17.0187 18.5889 16.8404C18.6098 16.628 18.6596 16.4214 18.7093 16.2148C18.7624 15.9939 18.8155 15.7731 18.8334 15.5456C18.8605 15.2192 18.9742 14.9131 19.1002 14.6145C19.2878 14.0388 19.5952 13.5133 19.9047 12.9966C20.3889 12.2707 21.0526 11.6768 21.7772 11.1973ZM51.2609 17.4398C51.3724 17.4171 51.4839 17.3945 51.5936 17.3659C52.0075 17.2457 52.4425 17.2651 52.8696 17.2841L52.9431 17.2874L53.0239 17.2908C53.0875 17.3043 53.1513 17.3175 53.2153 17.3307C53.5763 17.4051 53.9405 17.4803 54.2787 17.6287C55.2438 18.0208 55.9805 18.8558 56.3923 19.7978C56.4901 19.9953 56.5585 20.2039 56.627 20.4128L56.6272 20.4133L56.6273 20.4134C56.6577 20.5065 56.6883 20.5995 56.7214 20.6917C56.8995 21.1341 56.9346 21.6053 56.9696 22.0766V22.0767V22.0767C56.9883 22.3275 57.0069 22.5783 57.0471 22.8248C57.0822 23.1541 57.0748 23.4866 57.0674 23.8177C57.066 23.8837 57.0645 23.9496 57.0634 24.0154C57.0186 24.3133 56.9983 24.6156 56.978 24.9178V24.9178V24.9178C56.9412 25.4653 56.9045 26.0127 56.7221 26.5345C56.6733 26.6861 56.6392 26.8416 56.6052 26.997L56.6052 26.997L56.6051 26.9971C56.5597 27.2042 56.5144 27.4113 56.4343 27.6086C56.3817 27.7411 56.3421 27.878 56.3025 28.0149L56.3025 28.015L56.3025 28.0151L56.3025 28.0151C56.2576 28.1707 56.2126 28.3263 56.1485 28.4754C55.5796 29.8427 54.8334 31.1537 53.8101 32.2345C52.9731 33.1122 51.9736 33.8673 50.8155 34.2621C50.3236 34.4913 49.7868 34.5296 49.2536 34.5677C49.0968 34.5789 48.9403 34.5901 48.7853 34.6061C48.6488 34.5895 48.5116 34.5773 48.3743 34.565C48.0571 34.5367 47.7395 34.5084 47.4309 34.4266C46.839 34.2384 46.2634 33.9763 45.7724 33.591C45.7301 33.554 45.6888 33.5156 45.6475 33.4772C45.5029 33.3428 45.3582 33.2084 45.1717 33.1325C45.1249 33.3059 45.1062 33.4836 45.0875 33.6613C45.0718 33.8097 45.0562 33.9582 45.0241 34.1043C44.8826 34.7212 44.8189 35.3537 44.8074 35.9856C44.7822 36.2938 44.7188 36.5965 44.6555 36.899L44.6555 36.899L44.6555 36.8991C44.6271 37.0346 44.5987 37.1701 44.5738 37.3061C44.5534 37.5207 44.5401 37.7372 44.5267 37.9542L44.5267 37.9543L44.5267 37.9545C44.4893 38.5646 44.4516 39.1778 44.2548 39.7582C44.1594 39.9834 43.9442 39.9522 43.742 39.9229C43.6802 39.9139 43.6197 39.9051 43.5641 39.9038C43.1234 39.9005 42.6828 39.9013 42.2422 39.902H42.2416H42.2416H42.2416C41.7832 39.9028 41.3249 39.9036 40.8668 39.8998C40.7905 39.5975 40.8252 39.2926 40.8598 38.9878L40.8598 38.9877C40.8772 38.8349 40.8945 38.6822 40.8979 38.5298C40.9268 38.3081 40.9668 38.0878 41.0069 37.8677C41.0702 37.5196 41.1335 37.1717 41.1526 36.8178C41.16 36.2713 41.2216 35.7248 41.3523 35.1939C41.4165 34.9467 41.4264 34.6936 41.4363 34.4402C41.4442 34.239 41.452 34.0376 41.4871 33.8388C41.4931 33.4944 41.5609 33.1573 41.6286 32.8204L41.6286 32.8203C41.705 32.4399 41.7814 32.0598 41.7688 31.6698C41.7651 31.2263 41.8445 30.7912 41.924 30.3562C41.9596 30.1609 41.9953 29.9656 42.0234 29.7695C42.0305 29.6223 42.0469 29.4758 42.0633 29.3294V29.3294L42.0634 29.3293C42.0847 29.1391 42.106 28.9491 42.1067 28.7578C42.093 28.413 42.166 28.0791 42.2391 27.7449L42.2391 27.7449C42.3028 27.4535 42.3666 27.162 42.3729 26.863C42.3776 26.2137 42.4902 25.5735 42.6023 24.9358L42.6023 24.9358L42.6026 24.9345C42.6203 24.8337 42.638 24.733 42.6553 24.6323C42.7016 24.3911 42.7065 24.1469 42.7113 23.9027C42.7145 23.7404 42.7177 23.5781 42.7331 23.4167C42.7612 23.2484 42.7953 23.0809 42.8293 22.9133L42.8294 22.9131L42.8294 22.9131C42.8989 22.5711 42.9685 22.2289 42.9871 21.8795C42.992 21.7586 43.0056 21.6383 43.0191 21.5181C43.0373 21.3568 43.0555 21.1955 43.0528 21.033C43.045 20.7858 43.1006 20.5472 43.1563 20.3085C43.2117 20.0711 43.2671 19.8337 43.26 19.5878C43.27 19.4721 43.279 19.3562 43.2881 19.2402L43.2882 19.2396C43.3326 18.6706 43.3773 18.0997 43.5302 17.5474C43.9097 17.4709 44.2962 17.4789 44.6827 17.487H44.6827C44.8983 17.4915 45.1138 17.496 45.3282 17.4858C45.8679 17.4458 46.434 17.8481 46.5018 18.3993C46.5316 18.83 46.516 19.2634 46.451 19.6901C46.453 19.9025 46.432 20.1134 46.411 20.3241C46.3838 20.5978 46.3565 20.8712 46.3799 21.1474C46.4652 21.1434 46.5519 21.1413 46.6386 21.1406C46.8261 20.6856 47.1519 20.3077 47.4824 19.9501C47.5857 19.8459 47.6881 19.7405 47.7905 19.6351L47.7909 19.6347L47.791 19.6346C48.0782 19.339 48.3657 19.0431 48.6756 18.7711C49.2532 18.2741 49.9284 17.9016 50.6313 17.6117C50.833 17.5267 51.0469 17.4833 51.2609 17.4398ZM52.0812 20.4364C51.6268 20.1668 51.0661 20.1438 50.5623 20.2664C49.7787 20.5115 49.1124 21.0282 48.5557 21.6201C47.762 22.5228 47.1261 23.5582 46.6298 24.6506C46.0778 25.7321 45.7609 26.9375 45.7602 28.1537C45.7447 28.5357 45.6693 28.9102 45.594 29.2848L45.594 29.2848C45.5252 29.6267 45.4564 29.9686 45.4331 30.316C45.5856 30.782 46.0278 31.0589 46.4247 31.3074L46.4659 31.3332L46.5497 31.3682C47.0012 31.557 47.4643 31.7506 47.9605 31.7652C48.0117 31.766 48.0633 31.7671 48.115 31.7682L48.1152 31.7682C48.5638 31.7776 49.0269 31.7873 49.4422 31.5973C50.397 31.2418 51.1975 30.549 51.7487 29.6991C52.2533 29.0236 52.5713 28.2377 52.8847 27.4628L52.8871 27.4569C53.1044 26.8288 53.218 26.1772 53.3318 25.5253L53.3318 25.5253L53.3318 25.5253L53.3618 25.3535C53.5022 24.8271 53.4939 24.2851 53.4857 23.7446V23.7443V23.7441C53.4829 23.5623 53.4801 23.3808 53.483 23.2C53.4556 22.8728 53.3748 22.5536 53.2942 22.2349C53.2553 22.0814 53.2165 21.928 53.1837 21.7738C52.9711 21.2314 52.6318 20.6842 52.0812 20.4364ZM35.833 18.2304C35.8618 18.0014 35.8907 17.7724 35.9401 17.5467C36.222 17.5464 36.504 17.5457 36.7859 17.5449C37.6833 17.5425 38.5809 17.5401 39.4785 17.5515C39.4773 17.7975 39.4321 18.038 39.3869 18.2786C39.3558 18.4441 39.3247 18.6097 39.3079 18.7772C39.266 18.9862 39.2631 19.1982 39.2602 19.4101C39.2573 19.6163 39.2545 19.8226 39.2158 20.026C39.1932 20.2232 39.1516 20.4178 39.1101 20.6123C39.047 20.9079 38.9839 21.2034 38.9875 21.5077C38.9856 21.6262 38.971 21.7436 38.9565 21.861C38.9401 21.9923 38.9238 22.1236 38.9252 22.2567C38.9279 22.5961 38.8579 22.9269 38.7879 23.2577C38.7158 23.5982 38.6438 23.9386 38.651 24.2883C38.6553 24.445 38.6372 24.6002 38.6191 24.7555C38.6057 24.8706 38.5923 24.9857 38.588 25.1016C38.5838 25.4207 38.518 25.7325 38.4522 26.0443C38.381 26.3817 38.3098 26.7192 38.3164 27.0662C38.3204 27.5573 38.2345 28.0397 38.1486 28.5217C38.1178 28.6942 38.0871 28.8667 38.0605 29.0395C38.0507 29.2925 38.0278 29.5442 38.0049 29.7961C37.9896 29.9643 37.9743 30.1325 37.9629 30.3011C37.9342 30.5131 37.8967 30.7243 37.8593 30.9355C37.7803 31.381 37.7013 31.8267 37.7036 32.2806C37.7049 32.6439 37.6383 32.9997 37.5716 33.3557C37.5383 33.5338 37.5049 33.7119 37.4801 33.891C37.4734 33.9181 37.4673 33.9463 37.4612 33.975C37.4316 34.1135 37.4 34.2615 37.2776 34.344C36.7711 34.3523 36.2643 34.3508 35.7576 34.3494C35.3105 34.3481 34.8634 34.3468 34.4164 34.3522C34.38 34.349 34.3413 34.3495 34.3022 34.3501C34.1837 34.3518 34.0613 34.3536 33.9844 34.2513C33.951 33.9922 33.9802 33.7354 34.0095 33.4783C34.0319 33.2816 34.0543 33.0848 34.0487 32.8867C34.0377 32.4895 34.1122 32.1016 34.1868 31.7135C34.2538 31.3645 34.3209 31.0153 34.3257 30.6594C34.3324 30.5647 34.3428 30.4703 34.3533 30.3759C34.3704 30.2212 34.3876 30.0667 34.388 29.9111C34.3924 29.6707 34.4449 29.4372 34.4973 29.2037C34.5261 29.0759 34.5548 28.9482 34.5756 28.8194L34.5778 28.7875C34.6407 27.8859 34.7039 26.9805 34.9013 26.0957C34.9128 25.947 34.9253 25.7983 34.9378 25.6496C34.968 25.2906 34.9981 24.9315 35.0144 24.5713C35.0416 24.4049 35.0746 24.2393 35.1075 24.0736C35.1698 23.761 35.232 23.4483 35.2555 23.1296C35.2778 22.4964 35.3192 21.8598 35.4695 21.2422C35.5204 21.0218 35.5354 20.7968 35.5505 20.5716C35.5613 20.41 35.5721 20.2484 35.5961 20.0883C35.5949 19.6376 35.6758 19.1944 35.7565 18.7523C35.7631 18.7162 35.7697 18.68 35.7763 18.6438C35.7982 18.5065 35.8156 18.3685 35.833 18.2304Z" fill="white"/>
</svg>
