<svg width="70" height="50" viewBox="0 0 70 50" fill="none" xmlns="http://www.w3.org/2000/svg">
<rect width="70" height="50" rx="4" fill="white"/>
<path d="M14.3064 18.042C14.8713 18.0277 15.4378 18.0185 16.0019 18.0604C17.0763 18.2208 18.0936 18.7244 18.8826 19.4697C19.8605 20.4199 20.443 21.7603 20.474 23.1226C20.5143 24.5672 19.9469 26.0344 18.8876 27.0274C17.9719 27.9381 16.7112 28.4769 15.4219 28.5181C14.0369 28.539 12.6528 28.5206 11.2687 28.5441C10.9926 29.417 10.7651 30.3042 10.4839 31.1755C10.2976 31.7513 9.79649 32.1869 9.23579 32.3842C8.83709 32.4874 8.42077 32.4606 8.01368 32.4731C7.34303 32.4723 6.67238 32.4941 6.00256 32.4664C6.25437 31.6019 6.50702 30.7373 6.77981 29.8795C7.00896 29.1048 7.78705 28.5265 8.5962 28.5382C9.49096 28.5223 10.3857 28.5374 11.2805 28.5231C11.3501 28.1706 11.4609 27.8289 11.5625 27.4848C12.4841 24.3397 13.4242 21.1988 14.3064 18.042Z" fill="#FB4C0F"/>
<path fill-rule="evenodd" clip-rule="evenodd" d="M27.616 21.2139C26.571 21.1552 25.5201 21.1485 24.4768 21.2223C24.4781 21.33 24.4789 21.4377 24.4797 21.5454C24.481 21.707 24.4822 21.8686 24.4852 22.0298C24.4848 22.1137 24.4841 22.1977 24.4835 22.2816C24.4829 22.3655 24.4822 22.4495 24.4818 22.5334C24.4778 23.9164 24.4773 25.2998 24.4769 26.683C24.4767 27.2978 24.4765 27.9126 24.476 28.5273C24.8442 28.5298 25.2129 28.5295 25.5814 28.5292H25.5815L25.9499 28.529C25.9502 28.2806 25.9501 28.0323 25.9501 27.7839C25.95 27.37 25.95 26.9561 25.9516 26.5422C26.1173 26.5392 26.2832 26.5373 26.4491 26.5355H26.4492H26.4492H26.4492H26.4492H26.4492H26.4492C26.8823 26.5306 27.3157 26.5257 27.7478 26.5002C28.8255 26.4398 29.774 25.603 30.0544 24.5739C30.3406 23.6044 30.0082 22.4797 29.2343 21.8275C28.7802 21.4557 28.2027 21.2316 27.616 21.2139ZM25.95 24.0284C25.9499 23.5135 25.9498 22.9985 25.9507 22.4839C26.1458 22.4924 26.3429 22.4881 26.5403 22.4838H26.5403H26.5403H26.5403H26.5403H26.5403H26.5403C26.969 22.4744 27.3989 22.465 27.8116 22.5863C28.2002 22.6921 28.4621 23.0194 28.6426 23.3602C28.6455 23.4099 28.6488 23.4597 28.6522 23.5097C28.6704 23.777 28.6887 24.0473 28.635 24.3103C28.4604 24.8047 27.9727 25.2001 27.4347 25.1799C27.0734 25.1879 26.7117 25.1874 26.3499 25.1868C26.2166 25.1866 26.0832 25.1864 25.9499 25.1866C25.9502 24.8007 25.9501 24.4146 25.95 24.0284V24.0284V24.0284V24.0284V24.0284V24.0284V24.0284ZM44.0063 21.2131C44.1875 21.2068 44.3691 21.2073 44.5509 21.2079C44.827 21.2087 45.1032 21.2095 45.3786 21.1862C45.4021 21.6307 45.4046 22.076 45.4072 22.5213C45.4083 22.7134 45.4094 22.9055 45.4122 23.0975C45.6422 23.097 45.8722 23.097 46.1023 23.097C46.3323 23.097 46.5625 23.097 46.7929 23.0966C46.7999 23.4824 46.7983 23.8682 46.7967 24.254L46.7963 24.3506C46.488 24.3501 46.1796 24.3503 45.8713 24.3504L45.4088 24.3506C45.4116 24.6934 45.4137 25.0363 45.4158 25.3792C45.4187 25.8593 45.4216 26.3394 45.4265 26.8192C45.4139 27.0718 45.6514 27.3027 45.8999 27.3044C46.0354 27.3275 46.1601 27.2853 46.285 27.2429C46.3636 27.2163 46.4422 27.1897 46.5235 27.1793C46.5798 27.302 46.657 27.4199 46.7345 27.5382C46.8942 27.7818 47.055 28.0273 47.0364 28.32C46.333 28.6507 45.4634 28.7766 44.7625 28.3771C44.3143 28.1328 44.1078 27.6216 44.0549 27.1373C43.9916 26.5195 43.9968 25.898 44.0019 25.2767V25.2766V25.2766V25.2765V25.2765V25.2764C44.0045 24.9676 44.0071 24.6588 44.0012 24.3506H43.0208L43.0206 24.0371V24.0371V24.037V24.037V24.0369V24.0369C43.0203 23.7235 43.02 23.4103 43.0225 23.0975C43.349 23.0975 43.6747 23.0975 44.0012 23.0966C44.0012 22.8575 44.0032 22.6183 44.0051 22.3791C44.0083 21.9904 44.0115 21.6018 44.0063 21.2131ZM31.7625 23.4173C32.3685 23.006 33.16 22.8851 33.8642 23.0832C34.2487 23.1906 34.555 23.4584 34.8438 23.7228C34.8459 23.6186 34.8473 23.5144 34.8488 23.4104L34.8488 23.4101L34.8488 23.4099L34.8488 23.4097L34.8488 23.4095L34.8488 23.4093L34.8488 23.4091C34.8503 23.3048 34.8517 23.2006 34.8538 23.0966C34.9686 23.0966 35.0834 23.0968 35.1982 23.097C35.5429 23.0977 35.8879 23.0983 36.2329 23.0933C36.2693 24.2134 36.2638 25.3349 36.2584 26.4565V26.4565V26.4565V26.4566V26.4566V26.4567C36.255 27.147 36.2517 27.8373 36.2581 28.5273C35.9063 28.5298 35.5544 28.5295 35.2026 28.5292H35.2024L34.8505 28.529L34.8497 28.4229C34.8484 28.2453 34.8471 28.0681 34.8429 27.8902C34.5005 28.2075 34.1135 28.4795 33.6569 28.602C33.6095 28.6039 33.5618 28.6061 33.514 28.6082C33.1322 28.6257 32.7411 28.6436 32.3786 28.5063C31.6945 28.2847 31.1296 27.7576 30.8358 27.1037C30.2634 25.8657 30.5882 24.1903 31.7625 23.4173ZM32.5825 24.5739C32.1989 24.8274 31.9757 25.2748 31.9379 25.7255C31.9035 26.298 32.23 26.8654 32.7328 27.1356C33.0576 27.3329 33.4563 27.3329 33.8206 27.2775C34.3964 27.1407 34.806 26.6278 34.9302 26.0646C34.9297 25.9494 34.9298 25.8342 34.93 25.7187L34.9302 25.545L34.9251 25.5295C34.8276 25.2353 34.7246 24.9244 34.487 24.7107C33.9927 24.2214 33.1441 24.1718 32.5825 24.5739ZM49.9204 23.1143C50.4316 22.9195 51.0057 22.9976 51.506 23.189C51.4278 23.4318 51.34 23.6713 51.2523 23.9107C51.1715 24.1313 51.0907 24.3517 51.0175 24.5747C50.6423 24.4002 50.2058 24.3666 49.8088 24.4782C49.4168 24.5882 49.1457 24.9802 49.1415 25.3814C49.123 26.1494 49.1194 26.918 49.1159 27.6863V27.6864C49.1146 27.9659 49.1133 28.2454 49.1113 28.5248C48.6471 28.5315 48.1829 28.5307 47.7196 28.5265C47.7183 27.8473 47.7191 27.1682 47.7199 26.4891V26.4891V26.489V26.489C47.7211 25.3706 47.7224 24.2522 47.7146 23.1336C48.1787 23.079 48.6555 23.0664 49.1188 23.1411C49.1146 23.3787 49.118 23.6162 49.1239 23.8529C49.301 23.5297 49.5637 23.2376 49.9204 23.1143ZM52.5543 23.6456C53.4256 22.8826 54.7661 22.7961 55.7775 23.3207C56.4607 23.6833 56.966 24.3599 57.1221 25.117C57.1864 25.4198 57.1879 25.7294 57.1894 26.038C57.1898 26.1203 57.1902 26.2025 57.1918 26.2845C55.7565 26.2929 54.3212 26.298 52.8859 26.3022C53.0319 26.8133 53.4382 27.2624 53.9687 27.3757C54.4228 27.4764 54.9406 27.4622 55.3318 27.1843C55.4638 27.0877 55.5782 26.9711 55.6925 26.8546C55.7302 26.8163 55.7678 26.7779 55.806 26.7403C56.1905 26.9342 56.5564 27.1617 56.9165 27.3967C56.4758 28.0019 55.8178 28.4769 55.0657 28.5877C54.6385 28.6322 54.207 28.6171 53.779 28.5995C52.5602 28.3586 51.532 27.2431 51.574 25.9714C51.4816 25.0926 51.8786 24.2046 52.5543 23.6456ZM53.5733 24.401C53.2711 24.5722 53.0747 24.8694 52.9438 25.1816C53.8982 25.1908 54.8525 25.1908 55.8069 25.1816C55.6969 24.8534 55.4963 24.5437 55.1874 24.3716C54.6914 24.1131 54.0601 24.1248 53.5733 24.401ZM60.5274 23.0412C61.1393 22.9246 61.8318 22.9892 62.3321 23.3938C62.7988 23.769 63.1001 24.3632 63.0883 24.9667C63.1253 25.7471 63.1253 26.5286 63.1252 27.3102V27.3104C63.1252 27.7166 63.1251 28.1229 63.1303 28.529C62.6561 28.529 62.1818 28.529 61.7076 28.5298C61.7021 28.2476 61.7034 27.9653 61.7046 27.683V27.683C61.707 27.1434 61.7094 26.6041 61.6648 26.0663C61.6546 25.9089 61.6576 25.7507 61.6607 25.5926C61.6649 25.3731 61.6692 25.1537 61.6379 24.9365C61.5229 24.6436 61.2997 24.3599 60.9874 24.2692C60.6248 24.2264 60.2076 24.1903 59.9147 24.4539C59.6587 24.6268 59.5471 24.9214 59.4707 25.2068C59.4594 26.0378 59.4594 26.8683 59.4594 27.6986C59.4594 27.9754 59.4594 28.2522 59.4589 28.529H58.0329C58.0331 27.9255 58.0328 27.3221 58.0324 26.7186V26.7185C58.0316 25.5114 58.0309 24.3042 58.0354 23.0966C58.2104 23.0969 58.3855 23.0969 58.5607 23.0969C58.8527 23.0968 59.1449 23.0967 59.4371 23.0983L59.4371 23.0998V23.1002C59.4396 23.3077 59.4422 23.5161 59.4489 23.7236C59.7527 23.4215 60.091 23.1201 60.5274 23.0412ZM38.6327 23.0966C38.1584 23.0975 37.685 23.0975 37.2116 23.0966C37.2049 24.1962 37.2041 25.2958 37.22 26.3945C37.2301 26.9997 37.3719 27.6527 37.8294 28.0824C38.328 28.597 39.1069 28.6893 39.7843 28.5886C40.2316 28.5105 40.585 28.2092 40.8947 27.8961C40.9275 28.3938 40.7915 28.9428 40.3886 29.2693C39.7599 29.7662 38.767 29.7007 38.192 29.1484C38.1571 29.1257 38.1247 29.0944 38.092 29.0628C38.0234 28.9966 37.9537 28.9292 37.8571 28.9378C37.6279 29.0965 37.4095 29.2705 37.1913 29.4444C37.0507 29.5564 36.9101 29.6684 36.7667 29.7763C37.0127 30.0247 37.2737 30.2648 37.5801 30.4377C38.6167 30.9757 39.9471 31.0278 40.9812 30.4545C41.7534 30.0063 42.2755 29.1409 42.2671 28.2419C42.2906 26.5271 42.3049 24.8123 42.3074 23.0983C42.1308 23.0974 41.9543 23.0975 41.7779 23.0976C41.484 23.0978 41.1902 23.098 40.8964 23.0933L40.894 23.106C40.8469 23.3591 40.7972 23.6254 40.8872 23.8756C40.8519 23.9838 40.8351 24.0955 40.8385 24.2096C40.8377 24.9399 40.8368 25.6693 40.8251 26.3987C40.8393 26.6941 40.6538 26.9527 40.4474 27.144C40.1788 27.4 39.7775 27.4084 39.4317 27.3639C38.9843 27.2775 38.6713 26.8377 38.6654 26.3928C38.6306 25.7036 38.6332 25.0137 38.6358 24.3238C38.6374 23.9147 38.6389 23.5056 38.6327 23.0966Z" fill="#2E4251"/>
</svg>
