<svg width="112" height="112" viewBox="0 0 112 112" fill="none" xmlns="http://www.w3.org/2000/svg">
<g clip-path="url(#clip0_324_31)">
<rect x="2" y="2" width="108" height="108" rx="8" fill="white"/>
<ellipse cx="56" cy="55.84" rx="40" ry="26.84" fill="#FCDB00"/>
<path fill-rule="evenodd" clip-rule="evenodd" d="M87.1822 68.36C90.4943 64.694 92.4002 60.3958 92.4002 55.8C92.4002 51.2041 90.4943 46.906 87.1822 43.24L24.8981 43.24C21.5861 46.906 19.6802 51.2041 19.6802 55.8C19.6802 60.3958 21.5861 64.694 24.8981 68.36H87.1822Z" fill="black"/>
<path fill-rule="evenodd" clip-rule="evenodd" d="M87.1821 43.24H24.8979C31.2654 36.1919 42.83 31.48 56.04 31.48C69.25 31.48 80.8146 36.1919 87.1821 43.24Z" fill="#007CC2"/>
<path fill-rule="evenodd" clip-rule="evenodd" d="M87.1821 68.3601C80.8146 75.4082 69.25 80.1201 56.04 80.1201C42.83 80.1201 31.2654 75.4082 24.8979 68.3601L87.1821 68.3601Z" fill="#DA251C"/>
<path fill-rule="evenodd" clip-rule="evenodd" d="M73.6896 50.1359C72.2431 51.4798 71.5198 53.3579 71.5198 55.7702C71.5198 57.4971 71.885 58.9351 72.6156 60.0841C73.3461 61.2331 74.2972 62.073 75.4689 62.6039C76.6479 63.1347 78.1342 63.4001 79.9279 63.4001C81.6928 63.4001 83.1646 63.0944 84.3436 62.4829C85.5298 61.8647 86.4339 61.0046 87.0559 59.9026C87.6852 58.7939 87.9998 57.3761 87.9998 55.6492C87.9998 53.2706 87.2837 51.4227 85.8516 50.1057C84.4195 48.782 82.3799 48.1201 79.7327 48.1201C77.1505 48.1201 75.1362 48.7921 73.6896 50.1359ZM77.3241 59.0056C76.731 58.3538 76.4345 57.2821 76.4345 55.7904C76.4345 54.2852 76.7347 53.2067 77.335 52.5549C77.9353 51.9032 78.7309 51.5773 79.7218 51.5773C80.7561 51.5773 81.5734 51.8998 82.1737 52.5449C82.7813 53.1832 83.0851 54.1978 83.0851 55.5888C83.0851 57.2418 82.7958 58.3874 82.2171 59.0258C81.6385 59.6641 80.8212 59.9833 79.7652 59.9833C78.7381 59.9833 77.9245 59.6574 77.3241 59.0056ZM70.6398 48.6404H55.6161V52.205H60.5998V63.0801H65.5998V52.205H70.6398V48.6404ZM29.7998 60.7234L29.0049 63.0799H23.9712L29.9198 48.6801H35.3998L41.3998 63.0799H36.1598L35.3998 60.7234H29.7998ZM34.3598 57.5601L32.5998 52.4001L30.8798 57.5601H34.3598ZM42.8791 48.6801H47.7998V59.4455H55.5598V63.0801H42.8791V48.6801Z" fill="white"/>
</g>
<rect x="1" y="1" width="110" height="110" rx="9" stroke="#CCCCCC" stroke-width="2"/>
<defs>
<clipPath id="clip0_324_31">
<rect x="2" y="2" width="108" height="108" rx="8" fill="white"/>
</clipPath>
</defs>
</svg>
