<svg width="112" height="112" viewBox="0 0 112 112" fill="none" xmlns="http://www.w3.org/2000/svg">
<g clip-path="url(#clip0_324_32)">
<rect x="2" y="2" width="108" height="108" rx="8" fill="white"/>
<g clip-path="url(#clip1_324_32)">
<path d="M16 75.4226C16 62.3275 16 49.2324 16 36.1373C16.0108 36.0824 16.0257 36.0281 16.032 35.9728C16.2406 34.2027 17.5309 32.6839 19.2649 32.1794C19.5278 32.1029 19.8 32.0591 20.0677 32C44.0226 32 67.9774 32 91.9323 32C91.9503 32.0285 91.9806 32.0268 92.0084 32.0309C93.8022 32.2966 95.0323 33.2806 95.7218 34.9499C95.8696 35.308 95.9294 35.6895 96 36.0674V75.4921C95.9711 75.5099 95.9729 75.5405 95.9684 75.5683C95.6554 77.4518 94.5908 78.6979 92.7886 79.3196C92.4653 79.4312 92.1252 79.458 91.7935 79.5251H20.1025C20.0274 79.4601 19.9304 79.4803 19.8442 79.4639C17.9746 79.1075 16.7531 78.022 16.1693 76.2129C16.0859 75.9546 16.0661 75.6837 16 75.4226ZM70.9169 43.3493C70.8494 43.4095 70.7938 43.4585 70.7389 43.5085C68.5056 45.5447 66.2723 47.5805 64.039 49.6166C61.853 51.6096 59.667 53.603 57.481 55.5964C56.8009 56.2167 56.1215 56.838 55.4404 57.4569C55.1014 57.7646 54.6 57.6614 54.4324 57.2518C54.383 57.1311 54.383 57.0035 54.383 56.8755C54.3834 52.1593 54.3827 47.4428 54.3872 42.7266C54.3872 42.5649 54.343 42.5305 54.1876 42.5305C51.0298 42.535 47.8716 42.5353 44.7138 42.5305C44.5514 42.5305 44.5226 42.5625 44.5657 42.7193C44.9509 44.1191 46.2326 45.1 47.6873 45.1C48.9912 45.1 50.2948 45.0993 51.5986 45.1007C51.883 45.1007 51.8392 45.0694 51.8392 45.3371C51.8403 49.2366 51.8379 53.136 51.841 57.0351C51.8427 59.298 54.0451 60.8685 56.1744 60.1172C57.0906 59.7938 57.8437 59.2211 58.5353 58.5414C59.8562 57.242 61.2056 55.9715 62.5435 54.6896C64.1364 53.1631 65.7299 51.6371 67.323 50.111C67.6137 49.8329 67.9044 49.5547 68.2031 49.2693C68.2438 49.353 68.2267 49.4226 68.2271 49.4886C68.2281 51.8527 68.2271 54.2167 68.2285 56.5807C68.2295 57.9284 69.0758 59.1603 70.3338 59.604C71.6338 60.0626 72.8025 59.8032 73.799 58.8581C75.4964 57.2483 77.179 55.6228 78.8674 54.0035C80.3636 52.5686 81.859 51.1326 83.3555 49.698C83.3861 49.6688 83.4115 49.6222 83.4793 49.6322V49.8193C83.4793 52.0675 83.4776 54.3154 83.48 56.5637C83.4814 58.0692 84.4828 59.3519 85.9271 59.7204C86.0756 59.7583 86.0999 59.7253 86.0999 59.5838C86.0968 54.2939 86.0975 49.004 86.0961 43.714C86.0961 43.6723 86.1177 43.6229 86.0648 43.5795C85.6131 44.003 85.1622 44.4254 84.7119 44.8486C82.7126 46.7283 80.7137 48.609 78.7141 50.4883C77.0559 52.0463 75.3966 53.6033 73.7381 55.161C73.1557 55.708 72.5747 56.2563 71.9909 56.8018C71.8046 56.9757 71.5824 57.0164 71.3459 56.9287C71.106 56.8397 70.9822 56.6527 70.9555 56.4016C70.9482 56.3328 70.9499 56.2629 70.9499 56.1934C70.9499 51.9869 70.9499 47.7804 70.9489 43.5739C70.9489 43.5068 70.9659 43.4366 70.9179 43.3486L70.9169 43.3493ZM55.6462 55.5633C55.7046 55.5665 55.7279 55.5188 55.7592 55.4903C56.6629 54.6683 57.5648 53.8446 58.4675 53.0216C62.6725 49.1872 66.8783 45.3538 71.082 41.5176C71.2966 41.3219 71.5236 41.2169 71.8056 41.3406C72.0893 41.4651 72.1867 41.696 72.1867 41.9985C72.1832 46.2223 72.1842 50.4462 72.1842 54.6701V54.9003C72.2468 54.8523 72.284 54.8279 72.3157 54.798C72.6157 54.5174 72.9151 54.2355 73.2145 53.9542C75.5472 51.7616 77.8806 49.5693 80.2123 47.3757C82.2363 45.4713 84.2585 43.5652 86.2814 41.6595C86.3676 41.5781 86.465 41.519 86.5804 41.4922C86.9918 41.3977 87.337 41.7047 87.337 42.1654C87.337 47.3625 87.337 52.5595 87.337 57.7566C87.337 58.3766 87.3405 58.9965 87.3343 59.6165C87.3329 59.742 87.3735 59.7587 87.4838 59.7357C88.8784 59.443 89.983 58.0894 89.9837 56.6544C89.9862 51.7529 89.9848 46.8513 89.9844 41.9498C89.9844 41.6939 89.9538 41.4415 89.8923 41.1936C89.2873 38.752 86.2852 37.8796 84.4689 39.6174C83.6824 40.3699 82.8979 41.1244 82.1121 41.8775C79.8841 44.0131 77.6557 46.1486 75.4272 48.2839C75.2085 48.4935 74.9881 48.7015 74.7378 48.9386V48.7091C74.7378 46.4668 74.7398 44.2248 74.7367 41.9825C74.7346 40.6066 73.9224 39.4241 72.6512 38.921C72.138 38.7179 71.605 38.696 71.0629 38.7085C70.2604 38.7273 69.5532 38.9933 68.96 39.5291C68.4576 39.9832 67.9781 40.4627 67.4892 40.9317C66.2024 42.1664 64.9163 43.4021 63.6291 44.6365C62.0408 46.1591 60.4514 47.681 58.8624 49.2028C58.6987 49.36 58.5332 49.5154 58.3458 49.6934C58.3458 48.1709 58.3465 46.6879 58.344 45.205C58.344 45.1181 58.3757 45.0979 58.4553 45.0993C58.6869 45.1034 58.9188 45.0958 59.1507 45.1017C60.0874 45.1254 60.8788 44.7783 61.5589 44.1556C62.0926 43.6667 62.6183 43.1695 63.1454 42.6737C63.1833 42.6379 63.2473 42.616 63.248 42.5399C63.2167 42.5381 63.1889 42.5353 63.1607 42.5353C60.6983 42.5353 58.2355 42.5371 55.7731 42.5308C55.5955 42.5305 55.6288 42.6275 55.6288 42.7262C55.6288 46.9442 55.6288 51.1621 55.6295 55.3801C55.6295 55.4406 55.6128 55.5046 55.6455 55.5644L55.6462 55.5633ZM22.5476 58.3196C22.575 58.2987 22.5948 58.2865 22.6112 58.2712C23.8427 57.113 25.0739 55.9548 26.3055 54.7966C28.14 53.071 29.9741 51.3454 31.8082 49.6197C33.7818 47.7634 35.755 45.9066 37.7285 44.0503C38.5087 43.3163 39.2883 42.5819 40.0696 41.8493C40.3731 41.5649 40.8057 41.6021 41.039 41.9251C41.144 42.0705 41.1565 42.2335 41.1565 42.4039C41.1558 48.1107 41.1558 53.8175 41.1561 59.5247C41.1561 59.7319 41.1568 59.7319 41.3529 59.6808C42.7702 59.3102 43.7726 58.0167 43.7729 56.5532C43.7736 51.7038 43.7736 46.8545 43.7715 42.0051C43.7715 41.8145 43.7642 41.6209 43.7305 41.4342C43.4996 40.1522 42.7802 39.2555 41.5431 38.8438C40.3342 38.4415 39.2247 38.7005 38.2897 39.5646C37.2949 40.4839 36.329 41.4342 35.3509 42.3719C34.0717 43.5983 32.7939 44.8256 31.5147 46.0516C30.0054 47.4981 28.4953 48.9431 26.9856 50.3892C25.7648 51.5585 24.5559 52.741 23.3191 53.8933C22.6206 54.5442 22.1126 55.2758 22.0298 56.2525C21.9665 56.9993 22.1456 57.6836 22.5482 58.3202L22.5476 58.3196ZM37.2775 49.5279V49.7685C37.2775 52.0338 37.2775 54.2991 37.2775 56.564C37.2775 58.0351 38.3088 59.3439 39.7379 59.6954C39.87 59.7277 39.8926 59.693 39.8926 59.5688C39.8902 54.3492 39.8905 49.1291 39.8891 43.9094C39.8891 43.8691 39.9152 43.8159 39.8509 43.785C39.5703 44.0503 39.289 44.3169 39.0067 44.5826C36.337 47.0926 33.6667 49.602 30.9974 52.1124C28.5176 54.4444 26.0395 56.7782 23.5583 59.1088C23.4634 59.1978 23.4464 59.2385 23.5733 59.3161C24.8253 60.0793 26.464 59.8946 27.5193 58.8759C28.7067 57.7299 29.9004 56.5908 31.0919 55.4489C32.8937 53.7226 34.6959 51.997 36.4976 50.2713C36.7466 50.0328 36.9966 49.7953 37.2775 49.5276V49.5279ZM30.8649 66.7141C31.0739 66.6668 31.2418 66.6296 31.4094 66.5907C32.8193 66.2649 33.8054 65.3355 33.8471 63.84C33.8697 63.0385 33.6215 62.3463 33.0043 61.8146C32.3162 61.2222 31.481 61.001 30.6038 60.929C29.5579 60.8435 28.5075 60.871 27.4606 60.903C26.1223 60.9436 25.0941 61.7162 24.6741 62.9586C24.5336 63.3737 24.4387 63.8045 24.3246 64.2287C23.5691 67.0416 22.8149 69.8549 22.0566 72.6674C22.0204 72.802 22.0503 72.8336 22.1873 72.8333C24.2207 72.826 26.254 72.8343 28.287 72.8155C29.2206 72.8068 30.1281 72.624 30.9758 72.2161C31.8624 71.7895 32.5415 71.156 32.8085 70.1789C33.1434 68.9526 32.8649 67.8518 31.7547 67.1658C31.4842 66.9985 31.1883 66.8817 30.8652 66.7137L30.8649 66.7141ZM69.6008 64.7179C69.5883 64.712 69.5761 64.7061 69.5636 64.6999C69.6342 64.4328 69.7044 64.1654 69.7757 63.8984C69.7955 63.8243 69.8115 63.7715 69.6933 63.7729C69.1895 63.7795 68.685 63.7673 68.1815 63.7785C67.7511 63.7882 67.4235 64.0382 67.3237 64.4127C66.5897 67.1637 65.8582 69.9154 65.1214 72.6657C65.087 72.7943 65.0925 72.8354 65.241 72.834C65.9072 72.8267 66.5734 72.8274 67.2396 72.834C67.3641 72.835 67.4027 72.7922 67.4336 72.6758C67.7608 71.4411 68.0911 70.2071 68.4301 68.9755C68.6064 68.3354 68.7291 67.6786 68.991 67.0642C69.3853 66.1383 70.1116 65.6453 71.0285 65.6692C71.9207 65.6929 72.4057 66.2141 72.3623 67.1025C72.3491 67.3695 72.3035 67.631 72.2343 67.889C71.8101 69.4745 71.388 71.0607 70.9579 72.6448C70.9137 72.8072 70.9489 72.8364 71.1078 72.8343C71.7621 72.826 72.4169 72.8281 73.0716 72.8336C73.1835 72.8347 73.2322 72.8023 73.2614 72.6928C73.607 71.3914 73.9526 70.0899 74.308 68.7909C74.4665 68.212 74.574 67.6164 74.8212 67.0649C75.2113 66.1953 75.8372 65.6571 76.8396 65.6696C77.7183 65.6807 78.2043 66.1748 78.1932 67.0507C78.1894 67.3587 78.1292 67.6602 78.0493 67.9571C77.6282 69.5252 77.2064 71.0937 76.7808 72.6605C76.745 72.7926 76.7579 72.8361 76.9102 72.8343C77.559 72.8263 78.2078 72.8256 78.8566 72.835C79.0075 72.8371 79.0632 72.7877 79.1004 72.6462C79.5336 71.0033 79.9773 69.3632 80.4098 67.72C80.5899 67.0361 80.7328 66.3487 80.6368 65.6296C80.4932 64.5549 79.7266 63.7725 78.6556 63.6342C77.4926 63.4839 76.4728 63.8094 75.5719 64.5451C75.2475 64.8101 74.9766 65.1258 74.7113 65.4478C74.6488 65.3966 74.6439 65.3288 74.6237 65.2711C74.243 64.186 73.477 63.6303 72.3289 63.5956C71.3581 63.566 70.4996 63.8247 69.8063 64.535C69.7427 64.6004 69.6704 64.6571 69.6019 64.7176L69.6008 64.7179ZM54.5725 41.253C57.8406 41.253 61.1086 41.253 64.3766 41.253C64.4173 41.253 64.458 41.2502 64.4983 41.2537C64.5675 41.2596 64.6155 41.2374 64.6586 41.1776C64.8259 40.946 64.9649 40.6998 65.047 40.4258C65.2525 39.737 65.0157 39.1004 64.4399 38.7986C64.1739 38.6592 63.885 38.6014 63.5853 38.6004C63.168 38.599 62.7508 38.6004 62.3335 38.6004C57.4779 38.6004 52.6223 38.5997 47.7666 38.6007C46.2068 38.6011 44.9071 39.5962 44.548 41.0593C44.5162 41.1882 44.5666 41.2528 44.6992 41.253C47.9905 41.253 51.2815 41.253 54.5729 41.253H54.5725ZM39.3064 68.9265C40.1057 68.9265 40.9051 68.9282 41.7045 68.9258C42.1544 68.9244 42.3734 68.7544 42.4979 68.3264C42.6843 67.6856 42.7629 67.0354 42.6669 66.3706C42.516 65.324 42.024 64.4926 41.0894 63.9683C40.0904 63.4078 39.0122 63.3515 37.9215 63.5928C35.1155 64.2131 33.2585 66.9457 33.7035 69.7947C33.8885 70.9797 34.4904 71.8938 35.5832 72.4459C36.2257 72.7707 36.9166 72.8966 37.6287 72.915C38.8401 72.9466 39.9687 72.6737 40.976 71.9741C41.1732 71.8371 41.1801 71.81 41.041 71.6194C40.8157 71.311 40.5883 71.004 40.3589 70.6987C40.1742 70.4533 40.1447 70.448 39.879 70.6104C39.1482 71.0576 38.3599 71.2092 37.5147 71.0767C36.6353 70.939 36.0397 70.4084 35.8433 69.5378C35.6166 68.5343 35.8207 67.5903 36.3502 66.7259C36.9493 65.7485 37.8234 65.2339 38.9927 65.2697C39.757 65.293 40.33 65.7113 40.4945 66.3768C40.5637 66.6564 40.5564 66.9377 40.5115 67.2214C40.4924 67.3427 40.4447 67.3792 40.321 67.3785C39.3999 67.373 38.4788 67.3799 37.5578 67.3723C37.3457 67.3705 37.2045 67.4543 37.1033 67.6289C37.039 67.7395 36.9889 67.8556 36.957 67.9797C36.8888 68.2426 36.8283 68.5079 36.7476 68.7669C36.7045 68.9056 36.7372 68.9303 36.8732 68.9293C37.684 68.9237 38.4952 68.9265 39.306 68.9265H39.3064ZM86.1076 71.8538C86.0255 72.1591 85.9619 72.4289 85.8781 72.6921C85.8367 72.8218 85.8781 72.8336 85.99 72.8329C86.6274 72.8291 87.2644 72.827 87.9017 72.8343C88.0314 72.8357 88.0773 72.7915 88.1089 72.6716C88.4507 71.375 88.805 70.0819 89.142 68.784C89.3304 68.0583 89.5818 67.3452 89.6148 66.5854C89.6489 65.8031 89.4907 65.0855 88.8947 64.5264C88.4775 64.1352 87.9636 63.9314 87.4135 63.8097C86.6128 63.6328 85.8037 63.6394 84.9942 63.7173C84.5047 63.7645 84.0158 63.833 83.5478 63.9923C83.0064 64.1762 82.763 64.5928 82.8632 65.1387C82.9091 65.389 82.9703 65.6366 83.0116 65.8876C83.0315 66.0076 83.069 66.0194 83.1792 65.9801C83.7762 65.7676 84.3927 65.6386 85.0252 65.5966C85.5474 65.5618 86.0679 65.5698 86.5686 65.7506C87.0262 65.9158 87.3148 66.2238 87.3669 66.7231C87.3878 66.9213 87.3666 67.1181 87.3196 67.309C87.1461 68.0162 86.9667 68.7217 86.7873 69.4275C86.6646 69.9112 86.4247 70.3295 86.0488 70.6584C85.3704 71.2519 84.5846 71.5047 83.6997 71.2756C82.8524 71.0562 82.5127 70.0875 83.174 69.4286C83.3016 69.3013 83.4365 69.1838 83.5871 69.0854C84.2429 68.6574 84.9619 68.4057 85.7401 68.3253C85.8451 68.3146 85.9062 68.2784 85.949 68.1814C86.0756 67.8963 86.2147 67.6167 86.3405 67.3313C86.4508 67.0816 86.4375 67.0573 86.1688 67.0364C84.8788 66.9356 83.6601 67.188 82.5162 67.7927C81.9101 68.1129 81.3743 68.5194 80.9762 69.0875C80.4018 69.907 80.3646 70.907 80.9063 71.6327C81.4779 72.3983 82.2606 72.8173 83.2119 72.8204C84.2564 72.8239 85.2387 72.5662 86.1076 71.8528V71.8538ZM62.2925 71.8552C62.2101 72.1587 62.1454 72.4219 62.0658 72.6806C62.0283 72.8023 62.046 72.8357 62.1802 72.8343C62.8116 72.8274 63.4431 72.8274 64.0745 72.8343C64.207 72.8357 64.2605 72.8016 64.2956 72.6671C64.6454 71.3316 65.0098 69.9999 65.3585 68.6643C65.5348 67.9891 65.7629 67.324 65.798 66.6174C65.8342 65.8949 65.7146 65.2172 65.2118 64.6609C64.7793 64.1825 64.2122 63.9443 63.5953 63.8104C62.6896 63.6136 61.7776 63.6397 60.8659 63.7555C60.4817 63.8042 60.0971 63.8643 59.73 63.993C59.2001 64.1787 58.9574 64.5736 59.0443 65.1077C59.0878 65.3758 59.1583 65.6393 59.2039 65.9074C59.2223 66.0166 59.2609 66.0187 59.3503 65.9867C59.9528 65.7715 60.5742 65.6414 61.2126 65.5973C61.7178 65.5625 62.2209 65.5712 62.707 65.7339C63.1854 65.8939 63.4963 66.2033 63.5505 66.7276C63.5707 66.9203 63.5508 67.1115 63.506 67.2965C63.3332 68.01 63.1625 68.7241 62.9695 69.4324C62.7045 70.4039 62.0602 71.011 61.0968 71.269C60.571 71.4098 60.0408 71.4247 59.5488 71.1302C58.9657 70.7815 58.8419 70.0569 59.2699 69.5315C59.4139 69.3545 59.585 69.2085 59.7748 69.0844C60.4254 68.6591 61.1402 68.4126 61.9107 68.3253C61.9987 68.3153 62.0752 68.3111 62.1201 68.2099C62.256 67.9039 62.4076 67.6045 62.5429 67.2979C62.6329 67.0941 62.6103 67.0597 62.3847 67.0402C61.2491 66.9422 60.1601 67.1279 59.1184 67.5896C58.3944 67.9105 57.7435 68.3319 57.2512 68.9648C56.56 69.8535 56.5186 70.9387 57.1667 71.7338C57.739 72.4359 58.4963 72.8228 59.401 72.8218C60.4455 72.8208 61.4267 72.5645 62.2925 71.8541V71.8552ZM52.2878 72.9136C52.3486 72.9101 52.4293 72.9042 52.5103 72.9011C53.1901 72.8719 53.8427 72.7314 54.4352 72.3872C55.5019 71.7672 55.9957 70.8229 55.9414 69.6004C55.9112 68.9143 55.512 68.4338 54.9755 68.0524C54.5252 67.7325 54.0256 67.5037 53.5245 67.2784C53.1661 67.1174 52.802 66.9658 52.486 66.7259C51.9561 66.3233 52.0187 65.6164 52.6094 65.3059C52.7019 65.2572 52.7989 65.2225 52.9008 65.1978C53.1991 65.1251 53.4988 65.1397 53.7978 65.1828C54.4911 65.283 55.092 65.5962 55.6511 66.0013C55.7199 66.0514 55.7669 66.0962 55.8458 65.9996C56.1212 65.664 56.4087 65.3386 56.6883 65.0065C56.8204 64.8494 56.8221 64.6978 56.7015 64.5319C56.6007 64.3935 56.465 64.2927 56.3173 64.212C55.0569 63.5239 53.7252 63.2572 52.3159 63.6133C51.2068 63.8935 50.3779 64.5382 50.059 65.6755C49.6831 67.0162 50.0573 67.8316 51.1379 68.4863C51.5586 68.7415 52.0068 68.9425 52.4571 69.1383C52.7961 69.2857 53.141 69.4237 53.4338 69.657C53.8159 69.9616 53.8611 70.446 53.5461 70.8208C53.407 70.9863 53.2255 71.0861 53.0214 71.1428C52.551 71.2731 52.0798 71.2252 51.6122 71.1261C50.8758 70.9703 50.2419 70.6142 49.6821 70.1184C49.6247 70.0677 49.5847 70.0131 49.503 70.1007C49.1988 70.4265 48.8848 70.7432 48.5788 71.0673C48.4804 71.1713 48.4551 71.2985 48.5058 71.438C48.5698 71.6139 48.6894 71.7436 48.8403 71.8475C49.8719 72.5593 51.0239 72.8833 52.2874 72.9139L52.2878 72.9136ZM46.2965 64.5368C46.3727 64.2322 46.4294 63.9697 46.5062 63.7134C46.5465 63.5785 46.5062 63.5584 46.3835 63.5597C45.9259 63.565 45.4683 63.5611 45.0107 63.5622C44.6989 63.5629 44.5222 63.7065 44.4395 64.0114C44.1026 65.2485 43.7941 66.493 43.4447 67.7269C42.9802 69.3663 42.5612 71.0183 42.1196 72.6643C42.0873 72.7853 42.0915 72.8361 42.2417 72.8343C42.8672 72.8263 43.4927 72.827 44.1182 72.8343C44.2406 72.8357 44.2722 72.7846 44.2966 72.6817C44.4113 72.1921 44.5274 71.7029 44.6526 71.2158C44.9718 69.9738 45.2927 68.7328 45.7232 67.5221C45.9412 66.9088 46.363 66.5208 46.9436 66.2756C47.5747 66.009 48.2371 65.8883 48.9175 65.8473C49.219 65.8288 49.3337 65.7263 49.4067 65.4335C49.519 64.9853 49.6306 64.5371 49.743 64.0889C49.8181 63.7889 49.7002 63.6199 49.3911 63.6234C48.292 63.6352 47.2124 63.7242 46.2969 64.5368H46.2965Z" fill="#0073C0"/>
<path d="M70.917 43.3491C70.965 43.4371 70.948 43.5074 70.948 43.5745C70.949 47.7809 70.9487 51.9874 70.949 56.1939C70.949 56.2634 70.9473 56.3333 70.9546 56.4022C70.9817 56.6536 71.1051 56.8403 71.345 56.9293C71.5811 57.0169 71.8037 56.9762 71.99 56.8024C72.5738 56.2568 73.1548 55.7085 73.7372 55.1616C75.3958 53.6039 77.055 52.0469 78.7132 50.4888C80.7128 48.6095 82.7117 46.7291 84.711 44.8491C85.1613 44.426 85.6126 44.0035 86.0639 43.58C86.1168 43.6235 86.0952 43.6729 86.0952 43.7146C86.0962 49.0045 86.0959 54.2944 86.099 59.5843C86.099 59.7258 86.0747 59.7589 85.9262 59.721C84.4819 59.3524 83.4805 58.0697 83.4791 56.5642C83.4767 54.316 83.4784 52.0681 83.4784 49.8199V49.6328C83.4102 49.6227 83.3852 49.6693 83.3546 49.6985C81.8581 51.1331 80.3627 52.5688 78.8665 54.0041C77.1781 55.6233 75.4955 57.2488 73.7981 58.8587C72.8019 59.8034 71.6333 60.0628 70.3329 59.6045C69.0749 59.1608 68.2286 57.9289 68.2276 56.5812C68.2258 54.2172 68.2276 51.8532 68.2262 49.4892C68.2262 49.4228 68.2429 49.3532 68.2022 49.2698C67.9038 49.5553 67.6128 49.8334 67.3221 50.1116C65.729 51.6376 64.1355 53.1637 62.5427 54.6901C61.2047 55.9721 59.8553 57.2429 58.5344 58.5419C57.8431 59.222 57.0897 59.7947 56.1735 60.1177C54.0442 60.8687 51.8418 59.2985 51.8401 57.0357C51.8369 53.1362 51.8394 49.2368 51.8383 45.3376C51.8383 45.0699 51.8818 45.1012 51.5977 45.1012C50.2939 45.0998 48.9903 45.1005 47.6864 45.1005C46.2317 45.1005 44.9504 44.1197 44.5648 42.7198C44.5217 42.563 44.5509 42.5307 44.7129 42.531C47.8707 42.5359 51.0289 42.5359 54.1867 42.531C54.3418 42.531 54.3863 42.5654 54.3863 42.7271C54.3814 47.4433 54.3825 52.1599 54.3821 56.8761C54.3821 57.004 54.3821 57.1313 54.4315 57.2523C54.5991 57.6619 55.1005 57.7652 55.4395 57.4574C56.121 56.8385 56.8 56.2172 57.4801 55.5969C59.6661 53.6035 61.8521 51.6105 64.0381 49.6171C66.2714 47.581 68.5047 45.5449 70.738 43.5091C70.7929 43.459 70.8485 43.41 70.916 43.3498L70.917 43.3491Z" fill="#FDFEFE"/>
<path d="M55.6465 55.563C55.6141 55.5036 55.6308 55.4396 55.6305 55.3787C55.6294 51.1608 55.6294 46.9428 55.6298 42.7249C55.6298 42.6261 55.5964 42.5288 55.7741 42.5294C58.2365 42.5361 60.6989 42.534 63.1617 42.534C63.1895 42.534 63.2173 42.5368 63.2489 42.5385C63.2482 42.6146 63.1846 42.6365 63.1464 42.6724C62.6192 43.1682 62.0935 43.6654 61.5598 44.1543C60.8797 44.7773 60.0883 45.1243 59.1516 45.1003C58.9201 45.0944 58.6881 45.1021 58.4562 45.0979C58.3766 45.0965 58.3446 45.1167 58.345 45.2036C58.3474 46.6866 58.3467 48.1695 58.3467 49.6921C58.5341 49.5141 58.6993 49.3586 58.8634 49.2015C60.4524 47.6796 62.0417 46.1577 63.63 44.6351C64.9175 43.4008 66.2033 42.1651 67.4902 40.9304C67.9791 40.4613 68.4585 39.9818 68.961 39.5277C69.5541 38.9916 70.2614 38.7256 71.0639 38.7072C71.6056 38.6947 72.1389 38.7166 72.6521 38.9196C73.9233 39.4227 74.7356 40.6053 74.7377 41.9811C74.7408 44.2234 74.7387 46.4654 74.7387 48.7077V48.9372C74.9887 48.6997 75.2091 48.4918 75.4282 48.2825C77.6566 46.1473 79.885 44.0117 82.1131 41.8761C82.8989 41.123 83.6833 40.3685 84.4698 39.6161C86.2862 37.8783 89.2882 38.751 89.8932 41.1922C89.9548 41.4405 89.9854 41.6929 89.9854 41.9484C89.9854 46.85 89.9868 51.7515 89.9847 56.653C89.984 58.0884 88.8793 59.4416 87.4847 59.7344C87.3748 59.7573 87.3341 59.7406 87.3352 59.6151C87.3414 58.9952 87.338 58.3752 87.338 57.7553C87.338 52.5582 87.338 47.3611 87.338 42.164C87.338 41.7033 86.9927 41.3966 86.5814 41.4909C86.4659 41.5173 86.3686 41.5767 86.2824 41.6581C84.2598 43.5639 82.2376 45.47 80.2132 47.3743C77.8816 49.568 75.5481 51.7602 73.2154 53.9528C72.9161 54.2344 72.6167 54.5161 72.3166 54.7967C72.2846 54.8266 72.2474 54.8506 72.1852 54.8989V54.6687C72.1852 50.4449 72.1841 46.221 72.1876 41.9971C72.1876 41.6946 72.0903 41.4634 71.8065 41.3393C71.5246 41.2155 71.2972 41.3208 71.083 41.5162C66.8793 45.3524 62.6738 49.1862 58.4684 53.0203C57.5658 53.8433 56.6638 54.667 55.7602 55.4889C55.7289 55.5175 55.7052 55.5647 55.6472 55.562L55.6465 55.563Z" fill="#FDFEFE"/>
<path d="M22.5475 58.3191C22.1448 57.6824 21.9658 56.9982 22.029 56.2513C22.1118 55.2746 22.6198 54.543 23.3183 53.8922C24.5551 52.7399 25.764 51.5577 26.9848 50.388C28.4945 48.9419 30.0046 47.4969 31.514 46.0505C32.7932 44.8245 34.0713 43.5971 35.3501 42.3707C36.3279 41.4333 37.2941 40.4827 38.2889 39.5634C39.2239 38.6994 40.3334 38.4403 41.5423 38.8426C42.7798 39.2543 43.4989 40.151 43.7297 41.433C43.7635 41.6197 43.7704 41.8134 43.7708 42.0039C43.7728 46.8533 43.7728 51.7027 43.7721 56.5521C43.7721 58.0155 42.7697 59.309 41.3521 59.6796C41.156 59.7307 41.1554 59.7307 41.1554 59.5235C41.1554 53.8167 41.155 48.1099 41.1557 42.4027C41.1557 42.2324 41.1432 42.0693 41.0382 41.9239C40.8049 41.6009 40.3723 41.5634 40.0688 41.8481C39.2875 42.5808 38.508 43.3154 37.7277 44.0491C35.7542 45.9055 33.781 47.7622 31.8074 49.6186C29.9733 51.3442 28.1388 53.0698 26.3047 54.7955C25.0735 55.9537 23.8419 57.1122 22.6104 58.2701C22.5941 58.2857 22.5742 58.2975 22.5468 58.3184L22.5475 58.3191Z" fill="#FDFDFE"/>
<path d="M37.2777 49.5278C36.9971 49.7955 36.7471 50.033 36.4978 50.2715C34.6957 51.9972 32.8936 53.7231 31.0921 55.4491C29.9006 56.5906 28.7065 57.73 27.5195 58.8761C26.4642 59.8948 24.8255 60.0791 23.5734 59.3162C23.4469 59.2391 23.4636 59.1984 23.5585 59.109C26.0397 56.7784 28.5177 54.445 30.9975 52.1126C33.6668 49.6022 36.3372 47.0928 39.0068 44.5828C39.2892 44.3171 39.5705 44.0505 39.851 43.7852C39.9154 43.8161 39.8893 43.8693 39.8893 43.9096C39.8907 49.1293 39.8903 54.3493 39.8928 59.569C39.8928 59.6932 39.8702 59.7279 39.738 59.6956C38.309 59.3441 37.2777 58.035 37.2777 56.5642C37.2777 54.2989 37.2777 52.0337 37.2777 49.7687V49.5281V49.5278Z" fill="#FDFEFE"/>
<path d="M30.8654 66.714C31.1888 66.8816 31.4843 66.9988 31.7548 67.166C32.865 67.852 33.1436 68.9528 32.8087 70.1792C32.5417 71.1562 31.8626 71.7897 30.976 72.2164C30.1283 72.6242 29.2208 72.8071 28.2872 72.8158C26.2542 72.8349 24.2209 72.8262 22.1875 72.8335C22.0502 72.8339 22.0203 72.8022 22.0568 72.6677C22.8148 69.8555 23.5693 67.0422 24.3248 64.229C24.4389 63.8048 24.5338 63.3743 24.6743 62.9588C25.0943 61.7165 26.1224 60.9439 27.4607 60.9032C28.5077 60.8716 29.5581 60.8438 30.604 60.9293C31.4812 61.0009 32.3164 61.2224 33.0045 61.8149C33.622 62.3465 33.8699 63.0388 33.8473 63.8402C33.8056 65.3357 32.8192 66.2648 31.4096 66.5909C31.242 66.6295 31.074 66.6671 30.8651 66.7143L30.8654 66.714ZM24.8332 70.795C24.8818 70.7991 24.9156 70.8047 24.9496 70.8047C26.0967 70.805 27.2434 70.8078 28.3905 70.8036C28.7691 70.8023 29.138 70.7313 29.492 70.5926C30.3595 70.2525 30.7785 69.4695 30.5351 68.6434C30.348 68.0085 29.7427 67.5589 28.9913 67.5349C28.3317 67.5137 27.6707 67.5231 27.0105 67.5273C26.8769 67.528 26.855 67.4915 26.8909 67.3705C26.9611 67.1323 27.0216 66.8913 27.0824 66.6504C27.1256 66.481 27.1843 66.319 27.2827 66.1733C27.3762 66.0349 27.4976 65.9595 27.6746 65.9637C28.016 65.972 28.3582 65.9637 28.6999 65.9668C29.1405 65.9706 29.5807 65.9699 30.0115 65.8614C30.7176 65.6838 31.2597 65.3197 31.4513 64.568C31.5963 63.9981 31.4085 63.5005 30.9398 63.2113C30.6731 63.0464 30.3776 62.9665 30.0699 62.9432C29.1676 62.8754 28.2639 62.9227 27.3606 62.9154C27.0915 62.9133 26.8874 63.1056 26.8119 63.3879C26.3057 65.2801 25.7994 67.1726 25.2935 69.0648C25.1402 69.6385 24.9879 70.2129 24.8328 70.795H24.8332Z" fill="#FDFDFE"/>
<path d="M69.6006 64.7178C69.6688 64.6569 69.7411 64.6003 69.8051 64.5352C70.4984 63.8249 71.3569 63.5662 72.3277 63.5958C73.4758 63.6305 74.2421 64.1862 74.6225 65.2713C74.6427 65.329 74.6479 65.3968 74.7101 65.448C74.9754 65.126 75.2463 64.8103 75.5707 64.5453C76.4716 63.8096 77.4914 63.4838 78.6544 63.6344C79.7253 63.7727 80.4924 64.5551 80.6356 65.6298C80.7316 66.3492 80.5887 67.0366 80.4086 67.7202C79.976 69.3634 79.5324 71.0035 79.0991 72.6464C79.0619 72.7879 79.0063 72.8376 78.8554 72.8352C78.2066 72.8258 77.5578 72.8262 76.909 72.8345C76.7567 72.8366 76.7438 72.7928 76.7796 72.6607C77.2052 71.0936 77.627 69.5254 78.048 67.9573C78.1277 67.6604 78.1878 67.3589 78.192 67.0509C78.2031 66.175 77.717 65.6809 76.8384 65.6698C75.836 65.6573 75.2101 66.1955 74.82 67.0651C74.5728 67.6166 74.4653 68.2122 74.3068 68.7911C73.9514 70.0898 73.6055 71.3912 73.2602 72.693C73.231 72.8029 73.1827 72.8349 73.0704 72.8338C72.4156 72.8283 71.7609 72.8262 71.1065 72.8345C70.9476 72.8366 70.9125 72.8074 70.9567 72.645C71.3868 71.0609 71.8089 69.475 72.2331 67.8892C72.3019 67.6312 72.3478 67.3697 72.361 67.1027C72.4045 66.2143 71.9195 65.6931 71.0273 65.6694C70.1104 65.6451 69.384 66.1385 68.9897 67.0644C68.7279 67.6788 68.6052 68.3356 68.4289 68.9757C68.0899 70.2073 67.7596 71.4413 67.4324 72.676C67.4014 72.7921 67.3632 72.8352 67.2384 72.8342C66.5722 72.8276 65.906 72.8269 65.2398 72.8342C65.091 72.8359 65.0854 72.7949 65.1202 72.6659C65.857 69.9156 66.5885 67.1639 67.3225 64.4129C67.4223 64.0384 67.7502 63.7884 68.1803 63.7786C68.6841 63.7675 69.1883 63.7793 69.6921 63.7731C69.8103 63.7717 69.7943 63.8245 69.7745 63.8986C69.7032 64.1656 69.633 64.4327 69.5624 64.7001C69.5749 64.706 69.5871 64.7119 69.5996 64.7181L69.6006 64.7178Z" fill="#FDFDFE"/>
<path d="M54.5727 41.2529C51.2813 41.2529 47.9904 41.2529 44.699 41.2529C44.5664 41.2529 44.516 41.1884 44.5478 41.0593C44.907 39.5961 46.2067 38.601 47.7664 38.6007C52.6221 38.5996 57.4777 38.6003 62.3334 38.6003C62.7506 38.6003 63.1678 38.5993 63.5851 38.6003C63.8848 38.6014 64.1734 38.6591 64.4397 38.7985C65.0155 39.1 65.2527 39.737 65.0468 40.4257C64.9651 40.6997 64.826 40.9459 64.6584 41.1775C64.6153 41.2373 64.5673 41.2595 64.4981 41.2536C64.4578 41.2501 64.4171 41.2529 64.3764 41.2529C61.1084 41.2529 57.8404 41.2529 54.5723 41.2529H54.5727Z" fill="#FDFEFE"/>
<path d="M39.3065 68.9265C38.4957 68.9265 37.6845 68.9237 36.8736 68.9293C36.7377 68.9303 36.7046 68.9056 36.7481 68.7669C36.8288 68.5079 36.8893 68.2426 36.9574 67.9797C36.9894 67.8556 37.0395 67.7394 37.1038 67.6289C37.2053 67.4543 37.3462 67.3705 37.5583 67.3723C38.4793 67.3799 39.4004 67.373 40.3214 67.3785C40.4452 67.3792 40.4928 67.3431 40.512 67.2214C40.5568 66.9377 40.5641 66.6564 40.4949 66.3768C40.3305 65.7117 39.7575 65.2934 38.9932 65.2697C37.8242 65.2339 36.9498 65.7485 36.3507 66.7259C35.8208 67.5906 35.6167 68.5343 35.8437 69.5378C36.0405 70.4084 36.6358 70.939 37.5151 71.0767C38.3604 71.2088 39.1486 71.0576 39.8795 70.6104C40.1451 70.4477 40.175 70.4533 40.3593 70.6987C40.5888 71.004 40.8162 71.311 41.0415 71.6194C41.1806 71.81 41.1736 71.8371 40.9765 71.9741C39.9692 72.6737 38.8406 72.9466 37.6292 72.915C36.9171 72.8965 36.2262 72.7707 35.5837 72.4459C34.4908 71.8934 33.889 70.9797 33.704 69.7947C33.2589 66.9453 35.116 64.2131 37.9219 63.5928C39.013 63.3515 40.0909 63.4078 41.0898 63.9683C42.0245 64.4926 42.5165 65.324 42.6674 66.3706C42.7633 67.0354 42.6847 67.6856 42.4984 68.3264C42.3739 68.7544 42.1549 68.9244 41.7049 68.9258C40.9056 68.9282 40.1062 68.9265 39.3068 68.9265H39.3065Z" fill="#FDFDFE"/>
<path d="M86.1079 71.8536C85.2387 72.5675 84.2564 72.8251 83.2123 72.8213C82.261 72.8182 81.4786 72.3992 80.9067 71.6335C80.3646 70.9079 80.4022 69.9079 80.9766 69.0884C81.3747 68.5202 81.9105 68.1141 82.5165 67.7935C83.6605 67.1885 84.8792 66.9364 86.1691 67.0373C86.4379 67.0581 86.4511 67.0825 86.3409 67.3321C86.215 67.6176 86.0759 67.8971 85.9494 68.1823C85.9063 68.2789 85.8454 68.3154 85.7404 68.3262C84.9626 68.4069 84.2432 68.6583 83.5874 69.0863C83.4369 69.1843 83.3023 69.3022 83.1744 69.4295C82.5134 70.0884 82.8531 71.057 83.7001 71.2764C84.585 71.5056 85.3708 71.2528 86.0492 70.6593C86.4247 70.3304 86.6646 69.9121 86.7877 69.4284C86.9671 68.7226 87.1465 68.0171 87.32 67.3099C87.3669 67.1186 87.3882 66.9218 87.3673 66.724C87.3148 66.2247 87.0262 65.9166 86.569 65.7515C86.0679 65.5703 85.5478 65.5627 85.0255 65.5975C84.3931 65.6395 83.7769 65.7689 83.1796 65.981C83.0697 66.0199 83.0318 66.0081 83.012 65.8885C82.9706 65.6374 82.9094 65.3899 82.8635 65.1395C82.7634 64.5936 83.0068 64.1771 83.5482 63.9932C84.0162 63.8343 84.505 63.7654 84.9946 63.7181C85.804 63.6402 86.6131 63.6336 87.4139 63.8106C87.9639 63.9323 88.4779 64.1357 88.8951 64.5272C89.4911 65.086 89.6493 65.804 89.6152 66.5863C89.5821 67.3457 89.3308 68.0592 89.1423 68.7848C88.8054 70.0824 88.4511 71.3759 88.1093 72.6725C88.0776 72.7924 88.0318 72.8366 87.9021 72.8352C87.2651 72.8279 86.6277 72.83 85.9904 72.8338C85.8788 72.8345 85.8371 72.8223 85.8784 72.693C85.9622 72.4298 86.0255 72.1603 86.1079 71.8547V71.8536Z" fill="#FDFDFE"/>
<path d="M62.2927 71.8551C61.427 72.5652 60.4461 72.8214 59.4013 72.8228C58.4965 72.8238 57.7393 72.4365 57.1669 71.7348C56.5185 70.9397 56.5599 69.8545 57.2514 68.9658C57.7438 68.3329 58.3947 67.9115 59.1186 67.5906C60.1606 67.1289 61.2493 66.9432 62.3849 67.0412C62.6105 67.0607 62.6331 67.0951 62.5431 67.2989C62.4078 67.6052 62.2562 67.9046 62.1203 68.2109C62.0754 68.3121 61.9986 68.3163 61.911 68.3263C61.1405 68.4136 60.4256 68.6601 59.775 69.0854C59.5852 69.2095 59.4141 69.3555 59.2702 69.5325C58.8422 70.0579 58.9659 70.7828 59.549 71.1312C60.041 71.4254 60.5713 71.4108 61.097 71.27C62.0608 71.012 62.7048 70.4045 62.9697 69.4334C63.1627 68.7255 63.3334 68.011 63.5062 67.2975C63.5511 67.1125 63.5705 66.9213 63.5507 66.7287C63.4961 66.2043 63.1856 65.8945 62.7072 65.7349C62.2211 65.5725 61.7176 65.5635 61.2128 65.5983C60.5744 65.6424 59.9531 65.7725 59.3505 65.9877C59.2611 66.0197 59.2226 66.0176 59.2041 65.9084C59.1586 65.6407 59.0883 65.3768 59.0445 65.1087C58.9576 64.5746 59.2003 64.1797 59.7302 63.994C60.0974 63.8653 60.4819 63.8052 60.8661 63.7565C61.7778 63.6407 62.6898 63.6146 63.5956 63.8114C64.2124 63.9453 64.7795 64.1835 65.212 64.6619C65.7148 65.2182 65.8344 65.8963 65.7983 66.6184C65.7628 67.325 65.5351 67.9901 65.3588 68.6653C65.0097 70.0009 64.6456 71.3326 64.2958 72.6681C64.2607 72.8026 64.2072 72.8367 64.0747 72.8353C63.4433 72.828 62.8119 72.8284 62.1804 72.8353C62.0462 72.8367 62.0288 72.8033 62.066 72.6816C62.1457 72.4229 62.2103 72.1597 62.2927 71.8562V71.8551Z" fill="#FDFDFE"/>
<path d="M52.2876 72.9136C51.024 72.883 49.8717 72.559 48.8405 71.8472C48.6896 71.7433 48.5699 71.6136 48.506 71.4377C48.4552 71.2986 48.4806 71.1713 48.579 71.067C48.885 70.7429 49.1989 70.4262 49.5032 70.1004C49.5849 70.0128 49.6249 70.0674 49.6822 70.1181C50.242 70.614 50.8759 70.97 51.6123 71.1258C52.08 71.2249 52.5511 71.2728 53.0216 71.1425C53.2257 71.0858 53.4072 70.986 53.5462 70.8205C53.8613 70.4453 53.8164 69.9613 53.4339 69.6567C53.1412 69.4234 52.7962 69.2854 52.4572 69.138C52.0066 68.9422 51.5588 68.7409 51.1381 68.486C50.0574 67.8313 49.6833 67.0156 50.0591 65.6752C50.378 64.5379 51.2069 63.8932 52.3161 63.613C53.7256 63.257 55.057 63.524 56.3174 64.2117C56.4652 64.2924 56.6008 64.3932 56.7016 64.5316C56.8223 64.6975 56.8205 64.8491 56.6884 65.0062C56.4089 65.3383 56.121 65.6637 55.8459 65.9993C55.767 66.0956 55.7201 66.0507 55.6512 66.001C55.0921 65.5959 54.4913 65.2827 53.798 65.1825C53.4993 65.1394 53.1992 65.1248 52.9009 65.1975C52.799 65.2222 52.7017 65.2569 52.6095 65.3056C52.0188 65.6158 51.9562 66.323 52.4861 66.7256C52.8018 66.9655 53.1662 67.1171 53.5247 67.2781C54.0257 67.5034 54.5254 67.7322 54.9756 68.0521C55.5125 68.4335 55.9113 68.914 55.9415 69.6001C55.9954 70.8226 55.5017 71.7669 54.4353 72.3869C53.8428 72.7311 53.1902 72.8716 52.5104 72.9008C52.4294 72.9043 52.3488 72.9098 52.2879 72.9133L52.2876 72.9136Z" fill="#FDFDFE"/>
<path d="M46.2963 64.5367C47.2118 63.7241 48.2914 63.6351 49.3905 63.6233C49.6996 63.6198 49.8175 63.7888 49.7424 64.0888C49.6304 64.537 49.5185 64.9852 49.4062 65.4334C49.3328 65.7262 49.2184 65.8287 48.9169 65.8472C48.2365 65.8885 47.5741 66.0092 46.943 66.2755C46.3624 66.521 45.941 66.9087 45.7226 67.522C45.2922 68.7327 44.9712 69.9737 44.652 71.2157C44.5269 71.7024 44.4111 72.192 44.296 72.6816C44.272 72.7841 44.24 72.8356 44.1176 72.8342C43.4921 72.8269 42.8666 72.8262 42.2411 72.8342C42.0905 72.8359 42.0864 72.7852 42.1191 72.6642C42.5606 71.0185 42.9796 69.3662 43.4441 67.7268C43.7936 66.4928 44.102 65.2484 44.4389 64.0113C44.522 63.7064 44.6986 63.5628 45.0102 63.5621C45.4678 63.561 45.9253 63.5652 46.3829 63.5596C46.5056 63.5582 46.546 63.5784 46.5056 63.7133C46.4288 63.9696 46.3721 64.2321 46.296 64.5367H46.2963Z" fill="#FDFDFE"/>
<path d="M24.833 70.7949C24.9881 70.2128 25.1404 69.6388 25.2937 69.0647C25.7996 67.1722 26.3059 65.28 26.8121 63.3878C26.8876 63.1055 27.0917 62.9129 27.3608 62.9153C28.2638 62.9226 29.1678 62.8753 30.0701 62.9431C30.3778 62.9664 30.6733 63.0464 30.94 63.2112C31.4087 63.5008 31.5965 63.9984 31.4515 64.5679C31.2599 65.3197 30.7175 65.6837 30.0117 65.8614C29.5812 65.9699 29.1407 65.9706 28.7001 65.9667C28.3583 65.9636 28.0166 65.9719 27.6748 65.9636C27.4978 65.9594 27.3764 66.0349 27.2829 66.1733C27.1849 66.3189 27.1257 66.481 27.0826 66.6503C27.0214 66.8909 26.9613 67.1322 26.891 67.3704C26.8552 67.4914 26.8771 67.5279 27.0107 67.5272C27.6709 67.523 28.3316 67.5136 28.9915 67.5349C29.7425 67.5588 30.3482 68.0088 30.5353 68.6433C30.7787 69.4695 30.3597 70.2525 29.4922 70.5925C29.1382 70.7313 28.7697 70.8022 28.3907 70.8036C27.2436 70.8078 26.0969 70.805 24.9498 70.8046C24.9158 70.8046 24.8817 70.7991 24.8334 70.7949H24.833Z" fill="#0073C0"/>
</g>
</g>
<rect x="1" y="1" width="110" height="110" rx="9" stroke="#CCCCCC" stroke-width="2"/>
<defs>
<clipPath id="clip0_324_32">
<rect x="2" y="2" width="108" height="108" rx="8" fill="white"/>
</clipPath>
<clipPath id="clip1_324_32">
<rect width="80" height="47.5248" fill="white" transform="translate(16 32)"/>
</clipPath>
</defs>
</svg>
