<svg width="112" height="112" viewBox="0 0 112 112" fill="none" xmlns="http://www.w3.org/2000/svg">
<g clip-path="url(#clip0_406_1162)">
<rect x="2" y="2" width="108" height="108" rx="8" fill="white"/>
<g clip-path="url(#clip1_406_1162)">
<path d="M96 29.2554V82.5169H16V29.2554H96Z" fill="#0267B1"/>
<path fill-rule="evenodd" clip-rule="evenodd" d="M56.7029 53.3983H53.4271L53.0078 50.1225H49.7887L47.9865 53.5569H44.4614L51.7496 39.8987H54.8553L56.7029 53.3983Z" fill="#FEFEFE"/>
<path fill-rule="evenodd" clip-rule="evenodd" d="M64.1608 42.5848L62.0639 53.4321H58.5388L60.6017 42.5848H57.0767L57.4167 40.0232H68.604L68.23 42.5848H64.1608Z" fill="#FEFEFE"/>
<path fill-rule="evenodd" clip-rule="evenodd" d="M71.9933 53.4321H74.725L77.9554 47.8668L76.8559 53.4321H79.9616L82.8973 40.0232H79.0775L74.6343 48.2408L73.3762 40.0232H69.7718L66.9268 53.4321H70.2818L71.54 47.7761L71.9933 53.4321Z" fill="#FEFEFE"/>
<path fill-rule="evenodd" clip-rule="evenodd" d="M51.0015 47.4814H52.9737L52.4636 44.2964L51.0015 47.4814Z" fill="#0267B1"/>
<path d="M45.7988 69.346C45.7988 68.6885 45.8102 66.9317 45.7875 66.7163C45.7988 64.098 43.906 62.2618 42.7045 62.4092C41.8771 62.4885 41.1743 62.8172 40.8003 63.792C40.4489 64.6988 40.7663 65.9116 41.9111 66.1949C43.1465 66.501 43.8606 66.7503 44.382 67.113C45.0168 67.5551 45.5382 68.3825 45.5495 69.3573H45.7875L45.7988 69.346Z" fill="#FEFEFE"/>
<path d="M39.7346 71.5563C38.7824 69.55 38.2271 67.2604 38.2271 64.9595C38.2271 62.6586 38.7598 60.471 39.7232 58.4648C41.7295 57.5126 43.9397 57.0139 46.2407 57.0139C48.5416 57.0139 50.8085 57.6373 52.8261 58.5894C53.7782 60.5957 54.3676 62.8853 54.3676 65.1862C54.3676 67.4871 53.8009 69.6634 52.8488 71.681C50.8425 72.6331 48.6096 73.1318 46.3087 73.1318C44.0077 73.1318 41.7748 72.5084 39.7572 71.5563H39.7346Z" stroke="#FEFEFE" stroke-width="1.18679"/>
<path d="M45.2776 69.346C45.2776 68.5073 44.8128 67.7592 44.2008 67.3625C43.6567 67.0111 42.92 66.7731 41.7412 66.4784C41.3784 66.3877 40.9931 66.1723 40.8797 65.9116C40.5623 66.229 40.5057 66.9317 40.5623 67.3511C40.6304 67.8272 41.1858 68.6206 42.0245 68.6546C42.5346 68.6773 43.192 68.5413 43.498 68.4733C44.0308 68.3599 44.8922 68.6999 45.0282 69.346H45.2776Z" fill="#FEFEFE"/>
<path d="M46.2295 58.3289C44.8014 58.3289 43.5659 59.2696 43.5772 60.9018C43.5772 62.2733 44.688 63.0101 45.0734 63.5315C45.6628 64.3249 45.9915 65.2543 46.0255 66.6825C46.0482 67.816 46.0482 68.9381 46.0595 69.3461H46.3769C46.3656 68.9268 46.3542 67.7366 46.3769 66.6485C46.3996 65.2203 46.7283 64.3136 47.329 63.5315C47.7257 63.0101 48.8252 62.2733 48.8252 60.9018C48.8252 59.2696 47.601 58.3289 46.1729 58.3289H46.2409H46.2295Z" fill="#FEFEFE"/>
<path d="M46.5922 69.346C46.5922 68.6885 46.5809 66.9317 46.6035 66.7163C46.5922 64.098 48.4851 62.2618 49.6866 62.4092C50.514 62.4885 51.2167 62.8172 51.5908 63.792C51.9421 64.6988 51.6248 65.9116 50.48 66.1949C49.2445 66.501 48.5304 66.7503 48.009 67.113C47.3743 67.5551 46.8869 68.3825 46.8756 69.3573H46.6035L46.5922 69.346Z" fill="#FEFEFE"/>
<path d="M47.1021 69.346C47.1021 68.5073 47.5668 67.7592 48.1788 67.3625C48.7229 67.0111 49.4597 66.7731 50.6385 66.4784C51.0012 66.3877 51.3866 66.1723 51.4999 65.9116C51.8173 66.229 51.8739 66.9317 51.8173 67.3511C51.7493 67.8272 51.1939 68.6206 50.3551 68.6546C49.845 68.6773 49.1876 68.5413 48.8816 68.4733C48.3489 68.3599 47.4874 68.6999 47.3627 69.346H47.1134H47.1021Z" fill="#FEFEFE"/>
<path d="M47.7368 71.205C47.7935 71.1936 47.8729 71.1936 47.9069 71.137C47.9295 71.1029 47.9409 71.0689 47.9295 70.9896C47.9069 70.8876 47.8842 70.8309 47.7595 70.8536L47.6462 70.8649L47.6915 71.205L47.7368 71.1936V71.205ZM47.8275 71.817C47.8842 71.8057 47.9295 71.8057 47.9749 71.783C48.0429 71.7377 48.0315 71.6583 48.0202 71.5903C47.9975 71.443 47.9635 71.3863 47.8048 71.409L47.7142 71.4203L47.7708 71.8284L47.8275 71.817ZM47.5441 72.0551L47.3628 70.7176L47.8048 70.6496C47.9069 70.6382 48.0429 70.6609 48.0995 70.7176C48.1562 70.7856 48.1789 70.8423 48.1902 70.9329C48.2016 71.0463 48.1676 71.1823 48.0429 71.2503C48.1902 71.2503 48.2696 71.3523 48.2922 71.5223C48.2922 71.5563 48.3036 71.647 48.2922 71.7264C48.2582 71.9077 48.1562 71.953 47.9749 71.9871L47.5328 72.0437L47.5441 72.0551Z" fill="#FEFEFE"/>
<path d="M49.4598 71.2617C49.4598 71.2843 49.4711 71.3183 49.4711 71.341C49.5051 71.579 49.4598 71.783 49.1877 71.8397C48.7797 71.9191 48.7003 71.6697 48.6323 71.3183L48.5983 71.1256C48.5417 70.7856 48.519 70.5362 48.9157 70.4569C49.1311 70.4116 49.2784 70.5022 49.3464 70.7289C49.3577 70.7629 49.3691 70.7969 49.3691 70.8309L49.1311 70.8763C49.1084 70.7969 49.063 70.6496 48.961 70.6609C48.7683 70.6836 48.825 70.9216 48.8477 71.0236L48.9157 71.3863C48.9384 71.4997 48.9837 71.6697 49.1537 71.6357C49.2897 71.613 49.2331 71.3977 49.2217 71.307L49.4711 71.2617H49.4598Z" fill="#FEFEFE"/>
<path d="M50.0381 71.0123L50.2422 70.9557L49.9701 70.4003L50.0381 71.0123ZM49.8455 71.6584L49.7661 70.2756L50.0948 70.1736L50.7749 71.3751L50.5142 71.4544L50.3555 71.1484L50.0721 71.239L50.1062 71.5791L49.8455 71.6584Z" fill="#FEFEFE"/>
<path d="M41.8202 70.6155C41.9222 70.2868 42.0129 70.0488 42.3983 70.1508C42.6023 70.2075 42.7383 70.2982 42.727 70.5362C42.727 70.5929 42.7043 70.6496 42.693 70.6949L42.4549 70.6269C42.4889 70.4909 42.5116 70.3889 42.3416 70.3322C42.1489 70.2755 42.1036 70.5135 42.0809 70.6155L41.9789 70.9783C41.9449 71.0803 41.9109 71.2616 42.0809 71.307C42.2169 71.341 42.3076 71.2049 42.3529 71.0123L42.1829 70.9669L42.2396 70.7629L42.6363 70.8876L42.4436 71.5903L42.2622 71.545L42.3076 71.3976C42.2169 71.5223 42.1149 71.5337 42.0356 71.511C41.6388 71.3976 41.6842 71.1483 41.7749 70.7969L41.8202 70.6155Z" fill="#FEFEFE"/>
<path d="M43.3506 71.001L43.532 71.0463C43.6453 71.0577 43.702 71.001 43.7247 70.8763C43.7474 70.7516 43.7133 70.7063 43.6227 70.6836L43.43 70.6383L43.3506 71.001ZM43.3053 71.205L43.192 71.7717L42.9199 71.7151L43.2033 70.3889L43.668 70.4909C43.94 70.5476 44.0194 70.6723 43.9854 70.9103C43.9627 71.0577 43.8947 71.205 43.7247 71.1937C43.872 71.239 43.8834 71.3184 43.8494 71.443C43.838 71.4997 43.7587 71.8171 43.8154 71.8738V71.9191L43.5433 71.8398C43.532 71.7491 43.566 71.5904 43.5887 71.4997C43.6 71.4204 43.634 71.307 43.5547 71.2617C43.4867 71.2277 43.464 71.2277 43.396 71.2163L43.328 71.205H43.3053Z" fill="#FEFEFE"/>
<path d="M45.0278 70.6835L45.2999 70.7175L45.1865 71.6469C45.1299 71.9416 45.0165 72.0663 44.6878 72.0323C44.3591 71.987 44.2798 71.8396 44.3024 71.5449L44.4158 70.6155L44.6878 70.6495L44.5745 71.5563C44.5631 71.6583 44.5405 71.8056 44.7105 71.817C44.8692 71.8283 44.9032 71.7263 44.9145 71.6016L45.0278 70.6948V70.6835Z" fill="#FEFEFE"/>
<path d="M45.8895 71.3409L46.0255 71.3522C46.1389 71.3522 46.2069 71.3182 46.2182 71.1482C46.2296 70.9895 46.1616 70.9668 46.0255 70.9668H45.9122L45.8895 71.3522V71.3409ZM45.5835 72.0776L45.6628 70.7515L46.1729 70.7741C46.4109 70.7855 46.4789 70.9782 46.4676 71.1708C46.4676 71.2842 46.4223 71.4089 46.3316 71.4882C46.2522 71.5449 46.1389 71.5562 46.0482 71.5562L45.8782 71.5449L45.8442 72.1003L45.5835 72.0776Z" fill="#FEFEFE"/>
<path d="M81.6615 59.6209L79.6212 63.3046C78.8505 62.6812 77.921 62.2278 76.7195 62.2278C73.8972 62.2278 72.7411 64.3361 72.7411 65.8209C72.7411 66.9204 73.4552 68.5526 75.9828 68.5526C77.0369 68.5526 78.5444 67.8158 78.9751 67.4871L76.9689 71.7716C76.0168 71.9643 75.6994 72.0776 74.8833 72.1117C70.3835 72.2477 68.5586 69.482 68.5586 66.6483C68.5586 62.9079 71.891 58.3627 77.3883 58.3627C77.7283 58.3627 78.1364 58.4761 78.4878 58.6121L78.8391 58.1587L81.6388 59.6435L81.6615 59.6209Z" fill="#FEFEFE"/>
<path d="M86.3091 62.3525L84.6542 66.2516H86.3544L86.3091 62.3525ZM90.0495 58.2494L90.6276 71.6583H86.3431V69.3573H83.4188L82.4553 71.6583H77.8081L82.6593 62.0805L81.5599 62.0692L83.6455 58.238H90.0382L90.0495 58.2494Z" fill="#FEFEFE"/>
<path d="M62.0072 66.0591L61.4291 68.258C61.4291 68.258 62.3245 68.258 62.9026 68.258C63.4807 68.258 64.2627 67.9747 64.4554 67.2492C64.6481 66.5352 64.0927 66.0478 63.526 66.0478C62.9479 66.0478 62.0072 66.0478 62.0072 66.0478V66.0591ZM63.764 63.6902C64.2061 63.6902 64.9768 63.5768 65.1695 62.7267C65.3849 61.8086 64.6595 61.7859 64.3081 61.7859L63.0613 61.7746L62.6306 63.6902H63.7754H63.764ZM65.8383 58.2495C67.9578 58.2609 69.1593 59.417 69.1593 61.0719C69.1593 62.602 67.8898 63.9622 66.507 64.6649C67.9352 65.1977 68.0599 66.4785 68.0599 67.3966C68.0599 69.5955 65.8496 71.6584 62.9819 71.6584C62.0752 71.6584 57.8587 71.6584 56.7139 71.6584L59.1622 62.2167L58.1534 62.2053L60.2049 58.2382C60.2049 58.2382 64.1154 58.2269 65.8496 58.2382L65.8383 58.2495Z" fill="#FEFEFE"/>
<path fill-rule="evenodd" clip-rule="evenodd" d="M30.8825 29.312L16.0908 82.5169H19.8993L34.7363 29.312H30.8825Z" fill="#718FC8"/>
<path fill-rule="evenodd" clip-rule="evenodd" d="M34.6906 29.312L19.8989 82.5169H23.7074L38.5444 29.312H34.6906Z" fill="#9AAED9"/>
<path fill-rule="evenodd" clip-rule="evenodd" d="M38.4538 29.312L23.6621 82.5169H27.4706L42.3076 29.312H38.4538Z" fill="#C8D1EA"/>
</g>
</g>
<rect x="1" y="1" width="110" height="110" rx="9" stroke="#CCCCCC" stroke-width="2"/>
<defs>
<clipPath id="clip0_406_1162">
<rect x="2" y="2" width="108" height="108" rx="8" fill="white"/>
</clipPath>
<clipPath id="clip1_406_1162">
<rect width="80" height="53.2615" fill="white" transform="translate(16 29.2539)"/>
</clipPath>
</defs>
</svg>
