<svg width="112" height="112" viewBox="0 0 112 112" fill="none" xmlns="http://www.w3.org/2000/svg">
<g clip-path="url(#clip0_406_1161)">
<rect x="2" y="2" width="108" height="108" rx="8" fill="white"/>
<g clip-path="url(#clip1_406_1161)">
<path fill-rule="evenodd" clip-rule="evenodd" d="M17.6901 29H94.3099C95.2394 29 96 29.7606 96 30.6901V80.9108C96 81.8403 95.2394 82.5998 94.3099 82.5998H17.6901C16.7616 82.5998 16 81.8392 16 80.9108V30.6901C16 29.7606 16.7606 29 17.6901 29Z" fill="#006838"/>
<path d="M49.6627 71.9703C49.6627 71.3387 49.67 69.6507 49.6543 69.443C49.6679 66.9305 47.8415 65.1596 46.6875 65.297C45.8891 65.3663 45.2198 65.6915 44.861 66.6283C44.5285 67.5012 44.8254 68.6614 45.9332 68.9342C47.1166 69.2269 47.8079 69.4703 48.3083 69.8133C48.921 70.234 49.4214 71.0366 49.435 71.9703" fill="white"/>
<path d="M43.959 73.9793C46.0404 74.9581 48.1155 75.4522 50.136 75.4522C52.2772 75.4522 54.4068 74.9843 56.3036 74.0968C57.2456 72.0951 57.723 70.0358 57.723 67.9764C57.723 65.9171 57.2246 63.7591 56.2826 61.7533C54.2316 60.7892 52.0883 60.2772 50.0825 60.2772C47.9287 60.2772 45.8641 60.7346 43.9422 61.6358C43.0201 63.5997 42.5501 65.658 42.5501 67.7572C42.5501 69.8564 43.0379 72.0112 43.96 73.9783M50.137 75.7879C48.0494 75.7879 45.904 75.2739 43.7618 74.2573L43.7093 74.2311L43.6841 74.1776C42.7232 72.1487 42.2144 69.9288 42.2144 67.7572C42.2144 65.5856 42.7022 63.4643 43.6642 61.4375L43.6904 61.384L43.7439 61.3578C45.7256 60.4188 47.8574 59.9436 50.0825 59.9436C52.1544 59.9436 54.368 60.4734 56.4819 61.4774L56.5364 61.5015L56.5616 61.556C57.5415 63.6227 58.0576 65.8416 58.0576 67.9775C58.0576 70.1134 57.5614 72.2315 56.5805 74.2972L56.5553 74.3517L56.5008 74.3769C54.5495 75.3001 52.3485 75.79 50.137 75.79" fill="white"/>
<path d="M49.1689 71.9713C49.1731 71.1614 48.7209 70.4459 48.1303 70.0609C47.6068 69.721 46.9029 69.4976 45.7688 69.2101C45.4184 69.1209 45.0512 68.9216 44.9379 68.6677C44.6379 68.9699 44.5833 69.6507 44.6358 70.0483C44.6977 70.5078 45.2348 71.2674 46.0447 71.2967C46.5388 71.3167 47.1641 71.1908 47.4641 71.1268C47.9813 71.0145 48.7996 71.3387 48.9297 71.9702" fill="white"/>
<path d="M50.0814 61.3819C48.7081 61.3819 47.5227 62.2873 47.5269 63.8546C47.5311 65.1722 48.5906 65.8772 48.9694 66.3818C49.5411 67.1414 49.8495 68.0394 49.8821 69.4147C49.9072 70.5089 49.9062 71.5895 49.9114 71.9724H50.2146C50.2094 71.5717 50.1957 70.425 50.2115 69.3801C50.2325 68.0048 50.5524 67.1403 51.1242 66.3808C51.506 65.8772 52.5646 65.1712 52.5667 63.8536C52.5719 62.2862 51.3864 61.3809 50.0142 61.3809" fill="white"/>
<path d="M50.4299 71.9703C50.4299 71.3387 50.4226 69.6507 50.4383 69.443C50.4247 66.9305 52.2501 65.1596 53.4051 65.297C54.2035 65.3663 54.8718 65.6915 55.2326 66.6283C55.5652 67.5012 55.2662 68.6614 54.1605 68.9342C52.9761 69.2269 52.2858 69.4703 51.7843 69.8133C51.1716 70.234 50.7069 71.0366 50.6922 71.9703" fill="white"/>
<path d="M50.9239 71.9713C50.9197 71.1614 51.3718 70.4459 51.9604 70.0609C52.487 69.721 53.1909 69.4976 54.3239 69.2101C54.6754 69.1209 55.0415 68.9216 55.1538 68.6677C55.4559 68.9699 55.5105 69.6507 55.4569 70.0483C55.394 70.5078 54.8579 71.2674 54.0491 71.2967C53.555 71.3167 52.9255 71.1908 52.6276 71.1268C52.1125 71.0145 51.291 71.3387 51.161 71.9702" fill="white"/>
<path d="M51.5321 73.7622C51.5888 73.7527 51.6643 73.7464 51.6958 73.6929C51.7126 73.6573 51.7335 73.6289 51.7199 73.5502C51.7031 73.4569 51.6717 73.3981 51.5521 73.4212L51.4409 73.439L51.4849 73.7674M51.6213 74.3549C51.6717 74.3475 51.722 74.3455 51.7619 74.3192C51.8227 74.2794 51.8175 74.1944 51.8091 74.1304C51.7881 73.9909 51.7514 73.9384 51.6045 73.9604L51.5122 73.9751L51.5709 74.3622L51.6223 74.3549H51.6213ZM51.3485 74.5846L51.1733 73.3027L51.5972 73.2387C51.7 73.225 51.8259 73.2429 51.8762 73.3069C51.9318 73.375 51.9486 73.4306 51.9591 73.5188C51.9748 73.6279 51.9434 73.7548 51.8206 73.8178V73.822C51.9581 73.822 52.042 73.9206 52.0661 74.0884C52.0693 74.1241 52.0797 74.2091 52.0693 74.2804C52.0409 74.4493 51.9402 74.5039 51.7703 74.528L51.3485 74.5857V74.5846Z" fill="white"/>
<path d="M53.1845 73.8135C53.1877 73.8376 53.1919 73.8639 53.1929 73.888C53.2275 74.1219 53.1845 74.315 52.9212 74.3685C52.5331 74.443 52.4586 74.2017 52.3904 73.8639L52.3537 73.6813C52.3002 73.3582 52.2771 73.1127 52.6558 73.0372C52.8698 72.9984 53.0104 73.0834 53.0691 73.2953C53.0786 73.3267 53.0901 73.3582 53.0943 73.3907L52.8614 73.439C52.8352 73.3593 52.7985 73.2166 52.6946 73.2281C52.5068 73.2512 52.5687 73.4841 52.5876 73.5817L52.6579 73.9321C52.6789 74.038 52.7208 74.208 52.8824 74.1754C53.0146 74.1492 52.9569 73.9436 52.9453 73.8597" fill="white"/>
<path d="M53.7482 73.5817L53.9454 73.524L53.6832 72.9868M53.5583 74.2006L53.4775 72.8735L53.7902 72.7781L54.4448 73.9321L54.1993 74.0055L54.044 73.7128L53.7713 73.7946L53.807 74.1283L53.5594 74.2006H53.5583Z" fill="white"/>
<path d="M45.8455 73.1988C45.9431 72.8862 46.0312 72.6554 46.4036 72.7582C46.6029 72.8138 46.7267 72.9019 46.7215 73.1337C46.7215 73.1852 46.7036 73.2376 46.6921 73.289L46.4603 73.225C46.4907 73.097 46.5096 72.9953 46.3522 72.947C46.1697 72.8967 46.1256 73.118 46.1004 73.2135L46.006 73.5618C45.9756 73.6646 45.9399 73.8356 46.1004 73.8796C46.2326 73.9153 46.3134 73.7852 46.3616 73.5953L46.199 73.5523L46.2557 73.3509L46.6375 73.4736L46.4561 74.144L46.2809 74.0968L46.3207 73.9552H46.3155C46.2347 74.0706 46.1361 74.0832 46.049 74.0664C45.6671 73.9636 45.707 73.7139 45.7983 73.3803" fill="white"/>
<path d="M47.3107 73.5669L47.4848 73.6141C47.5908 73.6298 47.6495 73.5743 47.6705 73.4463C47.6894 73.3288 47.6653 73.2837 47.5698 73.2606L47.3831 73.2228M47.2666 73.7641L47.1512 74.3097L46.8921 74.2541L47.168 72.9805L47.6086 73.0801C47.8667 73.1357 47.9454 73.2511 47.9087 73.4872C47.8877 73.6225 47.8205 73.7694 47.6569 73.7578L47.6548 73.7557C47.7933 73.804 47.8048 73.8743 47.7807 73.9949C47.7702 74.0463 47.6978 74.3569 47.7481 74.4072L47.7502 74.445L47.4827 74.3747C47.4712 74.2887 47.51 74.1334 47.5247 74.0474C47.5394 73.9719 47.5635 73.8638 47.4869 73.8239C47.4271 73.7914 47.404 73.7935 47.3359 73.7778L47.2666 73.7641Z" fill="white"/>
<path d="M48.9266 73.2648L49.1825 73.2941L49.0724 74.189C49.0189 74.4733 48.9087 74.5971 48.5971 74.5583C48.2793 74.5184 48.2037 74.3737 48.2237 74.0873L48.3349 73.1924L48.593 73.2218L48.4817 74.0967C48.4702 74.1922 48.4482 74.3327 48.6171 74.3495C48.7671 74.3611 48.8007 74.2614 48.8175 74.1387" fill="white"/>
<path d="M49.756 73.8932L49.8861 73.9005C49.992 73.9047 50.0623 73.8628 50.0707 73.7075C50.076 73.5585 50.0193 73.5323 49.8819 73.5271L49.7791 73.5239M49.4644 74.6097L49.542 73.3298L50.034 73.3508C50.2669 73.3624 50.3278 73.5522 50.3204 73.7337C50.3131 73.8439 50.2795 73.9666 50.183 74.0338C50.1043 74.0904 50.0025 74.1041 49.9092 74.0988L49.7487 74.0904L49.7161 74.6276L49.4644 74.6108V74.6097Z" fill="white"/>
<path d="M84.1526 62.6199L82.1981 66.1679C81.4606 65.5689 80.5595 65.1283 79.4097 65.1283C76.6894 65.1283 75.5847 67.1562 75.5847 68.584C75.5847 69.6446 76.2792 71.2088 78.6994 71.2088C79.7149 71.2088 81.1595 70.5017 81.575 70.1807L79.6415 74.2973C78.7194 74.4809 78.4172 74.5952 77.6367 74.6193C73.3051 74.7484 71.5541 72.0869 71.5552 69.3676C71.5583 65.7724 74.7538 61.4009 80.0528 61.4009C80.3769 61.4009 80.7745 61.5131 81.1144 61.638L81.4575 61.1995" fill="white"/>
<path d="M88.6238 65.253L87.0354 69.0035H88.671M92.2179 61.3074L92.7718 74.2027H88.6521L88.65 71.9912H85.8405L84.9163 74.2027H80.4482L85.1188 64.9949L84.0655 64.9886L86.0671 61.3084H92.2179V61.3074Z" fill="white"/>
<path d="M65.2595 68.8158L64.7077 70.9349H66.1187C66.6737 70.9349 67.4301 70.659 67.6158 69.9698C67.7993 69.2784 67.2696 68.8158 66.7167 68.8158M66.9538 66.5372C67.3755 66.5372 68.1204 66.4302 68.3071 65.614C68.5117 64.7275 67.8119 64.7034 67.4762 64.7034L66.2782 64.6981L65.8596 66.5372H66.9527H66.9538ZM68.9554 61.3085C70.9959 61.3201 72.1478 62.4268 72.1478 64.0267C72.1478 65.5017 70.9319 66.8068 69.5975 67.4813C70.9718 67.987 71.0903 69.226 71.0903 70.104C71.0903 72.2232 68.9638 74.2039 66.1995 74.2039H60.1704L62.5225 65.124L61.5562 65.1188L63.5306 61.3096C63.5306 61.3096 67.2958 61.298 68.9544 61.3096" fill="white"/>
<path opacity="0.3" fill-rule="evenodd" clip-rule="evenodd" d="M38.0757 28.9998H32.3866L17.6899 82.5996H23.3791L38.0757 28.9998Z" fill="white"/>
<path opacity="0.6" fill-rule="evenodd" clip-rule="evenodd" d="M43.7652 29H38.076L23.3794 82.5998H29.0686L43.7652 29Z" fill="white"/>
<path opacity="0.9" fill-rule="evenodd" clip-rule="evenodd" d="M49.4542 28.9998H43.765L29.0684 82.5996H34.7586L49.4542 28.9998Z" fill="white"/>
<path d="M48.5446 55.1514L50.6396 42.9138H53.3274C54.2715 42.9138 54.9104 42.9526 55.2461 43.0303C55.8105 43.1698 56.3026 43.4447 56.7243 43.8569C57.146 44.2692 57.4796 44.8179 57.7251 45.5061C57.9706 46.1933 58.0933 47.0189 58.0933 47.9809C58.0933 48.9943 57.9685 49.9301 57.7178 50.7903C57.467 51.6506 57.1156 52.4017 56.6613 53.0438C56.2081 53.6869 55.7392 54.1537 55.2545 54.4464C54.7709 54.738 54.2642 54.9374 53.7354 55.0433C53.3903 55.1157 52.8395 55.1514 52.0821 55.1514H48.5425H48.5446ZM50.9396 53.1812H51.9845C52.7483 53.1812 53.2833 53.1287 53.5907 53.0228C53.9925 52.8896 54.368 52.6147 54.7195 52.2003C55.0709 51.7859 55.3752 51.21 55.6311 50.4725C55.8871 49.735 56.0162 48.8821 56.0162 47.9138C56.0162 47.1123 55.9112 46.4839 55.7014 46.0275C55.4916 45.5711 55.2094 45.2627 54.8569 45.1012C54.6051 44.99 54.1645 44.9344 53.5372 44.9344H52.3528L50.9407 53.1823L50.9396 53.1812Z" fill="white"/>
<path d="M58.645 55.1514L60.74 42.9138H68.178L67.8277 44.9595H62.4563L61.978 47.7396H67.1762L66.8258 49.7853H61.6255L61.0527 53.1078H66.8258L66.4838 55.1535H58.645V55.1514Z" fill="white"/>
<path d="M68.0112 55.1514L70.1063 42.9138H73.5452C74.4631 42.9138 75.1177 42.9726 75.5069 43.089C76.1133 43.2674 76.5812 43.5978 76.9096 44.0825C77.2379 44.5672 77.4026 45.1652 77.4026 45.8775C77.4026 46.5898 77.2442 47.1962 76.9263 47.6809C76.6095 48.1655 76.1332 48.5327 75.4985 48.7824C75.9937 48.9492 76.3903 49.2503 76.6882 49.6836C76.9861 50.1179 77.1351 50.6246 77.1351 51.2026C77.1351 51.9926 76.9557 52.7081 76.5969 53.348C76.2381 53.9879 75.7703 54.4485 75.1943 54.7297C74.6184 55.0108 73.8011 55.1514 72.7447 55.1514H68.0112ZM70.4063 53.1812H72.3975C73.178 53.1812 73.713 53.1256 74.0036 53.0144C74.2931 52.9032 74.5365 52.6986 74.7317 52.4007C74.9268 52.1027 75.0244 51.7681 75.0244 51.3946C75.0244 50.955 74.8964 50.6099 74.6404 50.3592C74.3844 50.1084 73.9805 49.9836 73.4297 49.9836H70.9581L70.4073 53.1812H70.4063ZM71.3232 47.855H72.901C73.5913 47.855 74.0865 47.7994 74.3876 47.6882C74.6876 47.577 74.9247 47.385 75.0978 47.1123C75.2698 46.8395 75.3569 46.5279 75.3569 46.1775C75.3569 45.8932 75.2929 45.653 75.1649 45.4557C75.0369 45.2585 74.8754 45.1263 74.6803 45.0592C74.4851 44.9921 74.0644 44.9585 73.4182 44.9585H71.8226L71.3232 47.855Z" fill="white"/>
<path d="M77.8613 55.1514L80.0392 42.9138H82.0996L79.9228 55.1514H77.8624H77.8613Z" fill="white"/>
<path d="M86.3305 55.1515H84.2722L86.0273 44.9586H83.0112L83.3616 42.9128H91.3336L90.9832 44.9586H88.0856L86.3305 55.1515Z" fill="white"/>
</g>
</g>
<rect x="1" y="1" width="110" height="110" rx="9" stroke="#CCCCCC" stroke-width="2"/>
<defs>
<clipPath id="clip0_406_1161">
<rect x="2" y="2" width="108" height="108" rx="8" fill="white"/>
</clipPath>
<clipPath id="clip1_406_1161">
<rect width="80" height="53.5998" fill="white" transform="translate(16 29)"/>
</clipPath>
</defs>
</svg>
