<svg width="112" height="112" viewBox="0 0 112 112" fill="none" xmlns="http://www.w3.org/2000/svg">
<g clip-path="url(#clip0_630_555)">
<rect x="2" y="2" width="108" height="108" rx="8" fill="white"/>
<path d="M95.7577 59.4298L94.0071 59.5841C93.846 59.5966 93.726 59.4721 93.7751 59.3453L94.4322 57.6712C94.4893 57.5272 94.3259 57.3947 94.1499 57.4415L91.1584 57.5421L90.1277 59.8503L89.3049 61.9369L87.8251 65.7101C87.7074 66.0232 87.6297 66.2928 87.5932 66.5202C87.4652 67.3178 87.68 67.92 88.2376 68.3291C88.7953 68.7371 89.5952 68.9027 90.6373 68.825C91.7034 68.7451 92.6119 68.5154 93.3603 68.136C93.4346 68.0983 93.4769 68.0286 93.462 67.8572L93.7569 66.4437C93.7443 66.3111 93.5706 66.2368 93.4255 66.3008C93.0632 66.4585 92.7159 66.5499 92.3833 66.5751C91.6017 66.6334 91.2578 66.3671 91.3538 65.774C91.3789 65.6152 91.4132 65.4884 91.4555 65.3947L92.885 61.7609C92.9136 61.6866 92.9947 61.6341 93.0884 61.6272L95.1155 61.5027C95.2092 61.4958 95.2904 61.4421 95.3189 61.369L95.9897 59.6675C96.04 59.5407 95.9188 59.4161 95.7577 59.4287V59.4298Z" fill="url(#paint0_linear_630_555)"/>
<path d="M59.4441 58.1248C59.331 58.1248 59.2315 58.2014 59.2018 58.3111L58.731 60.056C58.6876 60.216 58.8087 60.3725 58.9733 60.3725H63.6401C63.8057 60.3725 63.9257 60.5291 63.8823 60.689L63.2961 62.883C63.2664 62.9927 63.167 63.0693 63.0539 63.0693H58.1174C58.0031 63.0693 57.9037 63.1458 57.8752 63.2555L56.6491 67.8275C56.6193 67.9372 56.5199 68.0137 56.4068 68.0137H51.5526C51.3869 68.0137 51.267 67.8572 51.3104 67.6972L53.878 58.134H53.8734L54.5488 55.6155C54.5785 55.5058 54.6779 55.4292 54.791 55.4292H65.8455C66.0111 55.4292 66.1311 55.5858 66.0877 55.7458L65.5015 57.9386C65.4718 58.0483 65.3724 58.1248 65.2593 58.1248H59.4441Z" fill="url(#paint1_linear_630_555)"/>
<path d="M73.882 68.1954H70.0369C69.9694 68.1954 69.9203 68.1314 69.9374 68.0663C69.9591 67.9863 69.8814 67.9154 69.8037 67.944C69.2095 68.1645 68.5662 68.2754 67.8737 68.2754C64.9622 68.2754 63.5075 67.6126 63.5075 66.286C63.5075 66.1008 63.5361 65.9032 63.5943 65.6918C63.8537 64.7193 64.4925 64.0246 65.5118 63.6075C66.1357 63.3538 67.123 63.1664 68.4759 63.0453C69.7957 62.9264 70.7705 62.7402 71.4012 62.4865C71.4309 62.4739 71.4527 62.4488 71.4618 62.4179L71.5121 62.2294C71.5486 62.0923 71.5681 61.9677 71.5681 61.8569C71.5784 61.3655 71.2458 61.1198 70.5693 61.1198C69.7672 61.1198 69.2484 61.4661 69.0153 62.1586C69.0016 62.2008 68.9627 62.2294 68.9182 62.2294H64.9004C64.8227 62.2294 64.7725 62.146 64.8102 62.0786C65.8774 60.1611 67.9697 59.2024 71.0847 59.2024C74.0169 59.2024 75.4852 60.1108 75.4909 61.9289C75.4909 62.3037 75.4327 62.7105 75.3161 63.1493L73.9814 68.1211C73.9689 68.1657 73.9289 68.1965 73.882 68.1965V68.1954ZM70.6082 65.5649L70.8676 64.5925C70.8882 64.5148 70.8162 64.4462 70.7396 64.4679C70.5214 64.5308 70.2254 64.5845 69.8506 64.6291C69.3615 64.6873 69.0016 64.7639 68.7685 64.8587C68.388 65.0176 68.156 65.2518 68.0714 65.5638C68.0497 65.6483 68.0394 65.7272 68.0394 65.8015C68.0394 66.2025 68.3982 66.4037 69.117 66.4037C69.9626 66.4037 70.4585 66.1237 70.6071 65.5638L70.6082 65.5649Z" fill="url(#paint2_linear_630_555)"/>
<path d="M87.5772 62.4134H83.6738C83.5081 62.4134 83.3801 62.2751 83.3824 62.1106C83.3824 62.1037 83.3824 62.098 83.3824 62.0911C83.3824 61.6775 83.0841 61.4706 82.4865 61.4706C81.6089 61.4706 81.1713 61.7266 81.1713 62.2385C81.1713 62.5711 81.6786 62.827 82.6933 63.0064C84.3102 63.2967 85.3192 63.5286 85.7203 63.7035C86.5442 64.0623 86.9567 64.5925 86.9567 65.2941C86.9567 65.4792 86.9304 65.6712 86.8779 65.8723C86.3808 67.7246 84.2337 68.6513 80.4354 68.6513C77.141 68.6513 75.4475 67.8046 75.3549 66.1123C75.3458 65.9454 75.4806 65.806 75.6463 65.806H79.5486C79.7143 65.806 79.84 65.9443 79.84 66.11V66.1123C79.84 66.5374 80.168 66.7488 80.8227 66.7488C81.7415 66.7488 82.202 66.4928 82.202 65.9809C82.202 65.6541 81.6946 65.4004 80.6799 65.221C79.079 64.9364 78.07 64.7033 77.6529 64.5239C76.829 64.1708 76.4165 63.6406 76.4165 62.9333C76.4165 62.7539 76.4428 62.5608 76.4954 62.3551C76.997 60.4971 79.1475 59.5692 82.9459 59.5692C86.1363 59.5692 87.7772 60.4137 87.8674 62.1026C87.8766 62.2705 87.744 62.4134 87.5761 62.4134H87.5772Z" fill="url(#paint3_linear_630_555)"/>
<path d="M41.7449 55.5618C41.3312 55.4407 40.8913 55.3584 40.4616 55.355C37.9225 55.3378 35.3823 55.339 32.8421 55.3424C32.4582 55.3424 32.0742 55.3435 31.6903 55.3435C31.68 55.3435 31.6697 55.3435 31.6594 55.3424H29.7134C29.814 55.6109 29.934 55.8783 30.0688 56.1434C31.2995 58.5625 31.4503 61.0182 30.2242 63.4944C29.3375 65.2861 27.9594 66.6334 26.3231 67.7383C25.922 68.0092 25.5049 68.256 25.0947 68.5131C25.1038 68.5382 25.1118 68.5634 25.1209 68.5874C25.7574 68.392 26.3928 68.192 27.0315 68.0023C27.1949 67.9532 27.3686 67.9075 27.5366 67.9075C30.5213 67.9018 33.506 67.9052 36.4919 67.9018C36.8656 67.9006 37.2426 67.8949 37.614 67.8526C38.5373 67.7486 39.3795 67.4355 40.0411 66.7579C41.0364 65.7421 41.402 64.468 41.4386 63.0899C41.466 62.0237 41.0261 61.5107 39.9794 61.2821C40.0102 61.2707 40.0331 61.2593 40.0582 61.2536C40.1165 61.2387 40.1759 61.2227 40.2365 61.2124C40.9153 61.097 41.4912 60.7862 41.9311 60.2594C42.6316 59.423 42.9881 58.4402 43.0292 57.3581C43.0647 56.4337 42.6224 55.82 41.7449 55.5618ZM36.1422 63.443C35.9605 64.5319 35.2144 65.1741 34.1037 65.1924C33.81 65.197 33.5152 65.1936 33.1838 65.1936C33.3209 64.6714 33.45 64.1789 33.5815 63.6864C33.6991 63.243 33.8294 62.8008 33.9345 62.354C33.9711 62.1963 34.0271 62.1334 34.1917 62.1449C34.547 62.17 34.907 62.1529 35.2578 62.202C35.9594 62.3003 36.2588 62.7402 36.1422 63.443ZM37.2758 59.2596C37.0644 59.96 36.5227 60.2583 35.8566 60.3543C35.412 60.4171 34.9573 60.4091 34.451 60.4365C34.6636 59.6412 34.859 58.9053 35.0624 58.1717C35.0761 58.1237 35.1584 58.0597 35.2064 58.062C35.6989 58.086 36.2016 58.0712 36.6804 58.1694C37.2518 58.286 37.4449 58.6985 37.2758 59.2596Z" fill="#282D6A"/>
<path d="M41.3655 67.9029C41.5232 67.3064 41.6706 66.7442 41.8203 66.1843C42.7596 62.675 43.7035 59.167 44.6348 55.6555C44.6999 55.4109 44.7913 55.3298 45.0507 55.3321C46.6299 55.3458 48.2091 55.339 49.7883 55.339H50.1003C49.9232 56.0051 49.754 56.6416 49.5826 57.2781C48.6651 60.7039 47.744 64.1274 46.839 67.5555C46.7636 67.8423 46.6448 67.9109 46.3648 67.9086C44.8039 67.8949 43.2418 67.9017 41.6798 67.9017H41.3655V67.9029Z" fill="#282D6A"/>
<path d="M29.2438 64.6188C29.2964 64.2417 29.3661 63.8657 29.4004 63.4864C29.6792 60.3919 28.5879 57.8963 26.1094 56.0166C25.0376 55.2041 23.8183 54.6762 22.5739 54.1883C20.0349 53.1907 18.4385 51.3132 17.6169 48.749C17.145 47.275 16.9519 45.3507 17.1324 44C17.1587 44.0948 17.185 44.1897 17.2101 44.2845C17.5289 45.5049 18.2111 46.5151 19.051 47.4269C20.4359 48.9296 22.1306 50.0014 23.9394 50.9122C25.9392 51.9177 27.6486 53.2558 28.7925 55.2235C29.8609 57.061 30.2025 59.0538 30.0346 61.1541C29.9489 62.2374 29.7238 63.2898 29.3867 64.3194C29.3524 64.4245 29.3101 64.5262 29.2712 64.6291C29.2621 64.6256 29.2518 64.6222 29.2427 64.6188H29.2438Z" fill="#282D6A"/>
<path d="M22.3957 59.8743C23.2493 59.6583 24.0297 59.7795 24.777 60.1097C26.2214 60.7462 27.2738 61.7735 27.8063 63.2807C28.0131 63.8669 28.06 64.4736 27.8532 65.0747C27.4772 66.1683 26.4157 66.5831 25.3495 66.4756C24.0651 66.3465 22.9522 65.7786 21.9009 65.0758C20.1823 63.9274 18.8373 62.4477 18.0077 60.5359C17.4958 59.3567 17.2558 58.134 17.5552 56.8336C17.5883 56.925 17.6238 57.0153 17.6546 57.1067C18.122 58.4859 18.7425 59.7817 19.7629 60.849C20.4188 61.5346 21.2107 61.9803 22.1443 62.1723C22.9282 62.3334 23.3738 61.8729 23.1201 61.1176C23.0081 60.7862 22.7979 60.4879 22.6242 60.1783C22.5693 60.0811 22.4905 59.9989 22.3945 59.8743H22.3957Z" fill="#282D6A"/>
<path d="M28.7376 64.1274C28.5251 61.818 27.1675 60.3508 25.1804 59.4024C24.3714 59.0161 23.4995 58.7328 22.6288 58.5065C20.1868 57.8712 18.4568 56.3845 17.3004 54.1848C16.5976 52.8513 16.2662 51.6846 16 49.7843C16.04 49.8426 16.0708 49.8734 16.0868 49.9112C16.6993 51.3624 17.698 52.5028 18.9276 53.4592C20.2211 54.4659 21.6872 55.1321 23.2275 55.6623C24.8239 56.2108 26.2648 57.021 27.3767 58.3271C28.2337 59.3338 28.7285 60.4982 28.8747 61.8157C28.9616 62.5951 28.9182 63.3607 28.7376 64.1263V64.1274Z" fill="#DF1F28"/>
<path d="M30.4688 57.045C30.4688 57.045 30.0986 55.4075 26.6865 51.7063C26.6865 51.7063 28.5388 53.0958 29.3398 53.5998C31.047 54.675 31.6903 55.3447 31.6903 55.3447L30.4688 57.0461V57.045Z" fill="#282D6A"/>
<path d="M30.9761 54.7436C30.9761 54.7436 31.8126 55.4007 32.5394 55.3504L32.0023 55.8783L31.1258 55.3012L30.9761 54.7436Z" fill="#282D6A"/>
</g>
<rect x="1" y="1" width="110" height="110" rx="9" stroke="#CCCCCC" stroke-width="2"/>
<defs>
<linearGradient id="paint0_linear_630_555" x1="55.3805" y1="44.0406" x2="55.4366" y2="68.7919" gradientUnits="userSpaceOnUse">
<stop stop-color="#282D6A"/>
<stop offset="1" stop-color="#DF1F28"/>
</linearGradient>
<linearGradient id="paint1_linear_630_555" x1="55.9944" y1="44" x2="55.9944" y2="68.8414" gradientUnits="userSpaceOnUse">
<stop stop-color="#282D6A"/>
<stop offset="1" stop-color="#DF1F28"/>
</linearGradient>
<linearGradient id="paint2_linear_630_555" x1="55.9968" y1="43.9969" x2="55.9968" y2="68.8437" gradientUnits="userSpaceOnUse">
<stop stop-color="#282D6A"/>
<stop offset="1" stop-color="#DF1F28"/>
</linearGradient>
<linearGradient id="paint3_linear_630_555" x1="56.0079" y1="43.9969" x2="56.0079" y2="68.8405" gradientUnits="userSpaceOnUse">
<stop stop-color="#282D6A"/>
<stop offset="1" stop-color="#DF1F28"/>
</linearGradient>
<clipPath id="clip0_630_555">
<rect x="2" y="2" width="108" height="108" rx="8" fill="white"/>
</clipPath>
</defs>
</svg>
