<svg width="112" height="112" viewBox="0 0 112 112" fill="none" xmlns="http://www.w3.org/2000/svg">
<g clip-path="url(#clip0_535_532)">
<rect x="2" y="2" width="108" height="108" rx="8" fill="white"/>
<path d="M20.2279 38.2646V38.1704C20.2279 36.0975 21.9711 34.8254 24.2325 34.8254C26.4939 34.8254 28.237 36.0975 28.237 38.1704V38.2646C28.237 40.3376 26.4939 41.6567 24.2325 41.6567C21.9711 41.6567 20.2279 40.3376 20.2279 38.2646ZM20.1808 77.1323H20.0866C17.7781 77.1323 16.082 76.19 16.082 74.2113C16.082 72.4682 17.3541 71.3375 18.8617 71.3375H18.9088C19.9452 71.3375 20.6519 70.6779 20.6519 68.9819V47.4986C20.6519 45.5199 22.2537 43.9181 24.2325 43.9181C26.2112 43.9181 27.813 45.5199 27.813 47.4986V69.029C27.813 74.5882 24.892 77.1323 20.1808 77.1323Z" fill="#EE3124"/>
<path d="M37.224 69.9241C32.4657 69.9241 28.5554 67.1916 28.5554 62.1977V62.1035C28.5554 56.5913 32.7484 54.0473 38.7316 54.0473C41.2757 54.0473 43.1131 54.4713 44.9034 55.0837V54.6597C44.9034 51.6916 43.066 50.0427 39.4854 50.0427C37.5067 50.0427 35.9049 50.3254 34.5386 50.7494C34.1146 50.8907 33.832 50.9378 33.5022 50.9378C31.8532 50.9378 30.5341 49.6658 30.5341 48.0169C30.5341 46.7449 31.335 45.6613 32.4657 45.2373C34.7271 44.3892 37.1769 43.9181 40.5219 43.9181C44.4322 43.9181 47.259 44.9546 49.0492 46.7449C50.9337 48.6293 51.7817 51.409 51.7817 54.8011V66.2965C51.7817 68.2281 50.227 69.7357 48.2954 69.7357C46.2225 69.7357 44.8562 68.2752 44.8562 66.7676V66.7205C43.1131 68.6521 40.7104 69.9241 37.224 69.9241ZM39.3912 64.9773C42.7362 64.9773 44.9976 63.1399 44.9976 60.5488V59.2767C43.7727 58.7114 42.1708 58.3345 40.4277 58.3345C37.3654 58.3345 35.4809 59.5594 35.4809 61.8208V61.915C35.4809 63.8466 37.0827 64.9773 39.3912 64.9773Z" fill="#EE3124"/>
<path d="M53.798 66.1551V38.3589C53.798 36.3801 55.3998 34.7783 57.3785 34.7783C59.3573 34.7783 60.9591 36.3801 60.9591 38.3589V66.1551C60.9591 68.1338 59.3573 69.7357 57.3785 69.7357C55.3998 69.7357 53.798 68.1338 53.798 66.1551Z" fill="#EE3124"/>
<path d="M63.1148 38.2646V38.1704C63.1148 36.0975 64.858 34.8254 67.1194 34.8254C69.3808 34.8254 71.1239 36.0975 71.1239 38.1704V38.2646C71.1239 40.3376 69.3808 41.6567 67.1194 41.6567C64.858 41.6567 63.1148 40.3376 63.1148 38.2646ZM63.5388 66.1551V47.4986C63.5388 45.5199 65.1407 43.9181 67.1194 43.9181C69.0981 43.9181 70.6999 45.5199 70.6999 47.4986V66.1551C70.6999 68.1338 69.0981 69.7357 67.1194 69.7357C65.1407 69.7357 63.5388 68.1338 63.5388 66.1551Z" fill="#EE3124"/>
<path d="M72.9499 66.1551V47.4986C72.9499 45.5199 74.5517 43.9181 76.5304 43.9181C78.5091 43.9181 80.111 45.5199 80.111 47.4986V47.7813C81.7599 45.6613 83.8799 43.7297 87.5076 43.7297C92.9255 43.7297 96.082 47.3102 96.082 53.105V66.1551C96.082 68.1338 94.4802 69.7357 92.5015 69.7357C90.5228 69.7357 88.921 68.1338 88.921 66.1551V55.3664C88.921 51.9743 87.3191 50.2312 84.5866 50.2312C81.8541 50.2312 80.111 51.9743 80.111 55.3664V66.1551C80.111 68.1338 78.5091 69.7357 76.5304 69.7357C74.5517 69.7357 72.9499 68.1338 72.9499 66.1551Z" fill="#EE3124"/>
</g>
<rect x="1" y="1" width="110" height="110" rx="9" stroke="#CCCCCC" stroke-width="2"/>
<defs>
<clipPath id="clip0_535_532">
<rect x="2" y="2" width="108" height="108" rx="8" fill="white"/>
</clipPath>
</defs>
</svg>
