<svg width="112" height="112" viewBox="0 0 112 112" fill="none" xmlns="http://www.w3.org/2000/svg">
<g clip-path="url(#clip0_648_383)">
<rect x="2" y="2" width="108" height="108" rx="8" fill="white"/>
<path fill-rule="evenodd" clip-rule="evenodd" d="M19.6295 41.4222H25.6841C26.1451 41.4222 26.4992 41.8295 26.4336 42.284L23.6217 61.7229C23.5134 62.4711 24.096 63.141 24.8544 63.141H35.4758C35.7775 63.141 36.0087 63.4081 35.9648 63.7052L35.1408 69.2884C35.0982 69.5785 34.8484 69.7938 34.5537 69.7938H22.5439C18.9715 69.7938 15.5455 66.874 16.0495 63.3493L18.8792 42.0775C18.9289 41.7025 19.2497 41.4222 19.6295 41.4222Z" fill="#E82529"/>
<path fill-rule="evenodd" clip-rule="evenodd" d="M39.8189 49.1786L37.0474 69.0031C37.0035 69.3175 37.2484 69.5983 37.567 69.5983H43.426C43.8426 69.5983 44.1958 69.2923 44.2535 68.881L46.998 49.3789C47.0565 48.9297 46.7055 48.5313 46.2507 48.5313H40.5653C40.189 48.5313 39.8709 48.8076 39.8189 49.1786Z" fill="#E82529"/>
<path fill-rule="evenodd" clip-rule="evenodd" d="M76.1628 40.2961H82.5178C82.7543 40.2961 82.9363 40.5044 82.9039 40.7379L78.9494 69.2859C78.9201 69.4977 78.7382 69.6556 78.5234 69.6556H72.2492C71.9883 69.6556 71.7877 69.4261 71.8237 69.1687L75.7768 40.6317C75.8034 40.4394 75.968 40.2961 76.1628 40.2961Z" fill="#E82529"/>
<path fill-rule="evenodd" clip-rule="evenodd" d="M81.0804 57.4967L88.2625 49.1149C88.4888 48.8509 88.8198 48.6988 89.1686 48.6988H95.4735C95.9287 48.6988 96.1683 49.2361 95.8639 49.5726L88.5203 57.6944L95.2334 72.0825C95.4797 72.6105 95.0927 73.2145 94.5088 73.2145H88.8101C88.5123 73.2145 88.2421 73.0416 88.1178 72.7723L81.0804 57.4967Z" fill="#E82529"/>
<path fill-rule="evenodd" clip-rule="evenodd" d="M48.2257 43.1631C47.7118 45.3232 45.7599 46.9306 43.7161 46.9306C41.6728 46.9306 40.1055 45.1795 40.6198 43.0198C41.1336 40.8597 42.8256 39.1086 45.2505 39.1086C47.2939 39.1086 48.7395 41.003 48.2257 43.1631Z" fill="#E82529"/>
<path d="M59.6138 53.7986C59.3692 53.7986 59.0294 53.8119 58.5946 53.8386C58.1869 53.8653 57.8064 53.9053 57.453 53.9586L55.3331 68.7982C55.2787 69.1182 55.1972 69.3315 55.0885 69.4382C55.0069 69.5449 54.7351 69.5982 54.2731 69.5982H49.014C48.3889 69.5982 48.1171 69.3315 48.1986 68.7982L50.6855 51.6387C50.7942 50.812 51.0116 50.132 51.3378 49.5987C51.6911 49.0654 52.3434 48.6921 53.2947 48.4787C53.5664 48.4254 53.9741 48.3721 54.5177 48.3187C55.0613 48.2388 55.6456 48.1854 56.2708 48.1587C56.8959 48.1054 57.521 48.0654 58.1461 48.0388C58.7712 48.0121 59.3148 47.9988 59.7768 47.9988C61.7066 47.9988 63.3645 48.1854 64.7506 48.5587C66.1639 48.9054 67.2918 49.5054 68.1344 50.3587C68.9769 51.1853 69.5341 52.2786 69.8059 53.6386C70.0777 54.9719 70.0777 56.6119 69.8059 58.5585L68.3382 68.7982C68.2839 69.1182 68.2023 69.3315 68.0936 69.4382C68.0121 69.5449 67.7403 69.5982 67.2783 69.5982H61.9784C61.3261 69.5982 61.0407 69.3315 61.1222 68.7982L62.7122 57.8785C62.9024 56.5185 62.7937 55.5052 62.386 54.8386C61.9784 54.1453 61.0543 53.7986 59.6138 53.7986Z" fill="#E82529"/>
</g>
<rect x="1" y="1" width="110" height="110" rx="9" stroke="#CCCCCC" stroke-width="2"/>
<defs>
<clipPath id="clip0_648_383">
<rect x="2" y="2" width="108" height="108" rx="8" fill="white"/>
</clipPath>
</defs>
</svg>
