<svg width="112" height="112" viewBox="0 0 112 112" fill="none" xmlns="http://www.w3.org/2000/svg">
<g clip-path="url(#clip0_406_1159)">
<rect x="2" y="2" width="108" height="108" rx="8" fill="white"/>
<g clip-path="url(#clip1_406_1159)">
<path d="M16.0019 56.3769C16.0019 45.9307 16.0022 35.4844 16.0014 25.0382C16.0014 24.1489 16.0054 23.261 16.1549 22.3797C16.3975 20.9502 16.9385 19.652 17.839 18.5112C18.8289 17.2566 20.129 16.5154 21.6885 16.213C22.4064 16.0739 23.1332 16.0165 23.8624 16.0104C25.0447 16.0005 26.2271 16.0064 27.4097 16.0064C47.5821 16.0048 67.7543 16.004 87.9267 16C88.8 16 89.669 16.0288 90.5201 16.2421C92.6751 16.7815 94.2249 18.054 95.1463 20.0809C95.706 21.3121 95.9894 22.6084 95.9963 23.957C96.007 26.0551 95.987 28.1532 95.9862 30.2513C95.9795 48.3165 95.9734 66.3818 95.9694 84.4471C95.9691 85.9139 95.9921 87.3808 95.9926 88.8477C95.9929 89.7138 95.8717 90.5657 95.6299 91.3989C95.3112 92.4972 94.7977 93.4944 94.0664 94.3741C93.0687 95.5738 91.7735 96.2586 90.2532 96.5386C89.3057 96.7129 88.3468 96.7478 87.3857 96.7476C77.8908 96.7446 68.3959 96.7401 58.9007 96.7404C47.3344 96.7404 35.7679 96.7444 24.2016 96.7484C23.248 96.7486 22.2994 96.7003 21.3722 96.4596C19.2018 95.8962 17.7013 94.5521 16.8064 92.513C16.2776 91.3082 16.0244 90.0407 16.0102 88.7292C15.9947 87.289 16.0006 85.8488 16.0006 84.4086C16.0001 75.0648 16.0003 65.721 16.0003 56.3771H16.0019V56.3769ZM60.2464 75.6666C60.3793 75.676 60.4575 75.6867 60.5357 75.6864C61.8956 75.6827 63.2557 75.6789 64.6155 75.6712C64.784 75.6701 64.9534 75.6552 65.1202 75.6314C65.354 75.5983 65.508 75.4657 65.5617 75.2297C65.5814 75.1433 65.5988 75.056 65.6116 74.9682C65.7157 74.2561 65.8203 73.5443 65.9209 72.8317C66.2175 70.7293 66.5167 68.6272 66.806 66.5238C66.9271 65.6425 67.012 64.7569 66.9442 63.8657C66.8311 62.3762 66.2535 61.1234 65.0551 60.1892C64.4303 59.7021 63.7329 59.3618 62.9749 59.1403C62.012 58.8587 61.0194 58.7701 60.0254 58.7269C58.3005 58.6522 56.5763 58.689 54.8639 58.9321C53.483 59.1283 52.5614 59.8996 52.1511 61.2397C52.027 61.6454 51.9536 62.069 51.8861 62.4891C51.7225 63.5062 51.5744 64.5258 51.4233 65.5448C51.2568 66.6692 51.0884 67.7934 50.9303 68.9192C50.7008 70.555 50.4772 72.1919 50.2572 73.8291C50.1958 74.2865 50.1433 74.7461 50.112 75.2065C50.0915 75.5102 50.2177 75.6258 50.518 75.645C50.589 75.6496 50.6602 75.6498 50.7312 75.6498C52.1535 75.6501 53.5756 75.6504 54.9979 75.6504C55.0689 75.6504 55.1401 75.644 55.2111 75.6477C55.3662 75.6554 55.438 75.573 55.4599 75.4299C55.4815 75.2895 55.5076 75.1497 55.5263 75.0087C55.7086 73.6438 55.8866 72.2784 56.0724 70.9137C56.3326 69.0035 56.5955 67.0936 56.864 65.1848C56.9345 64.6838 57.0148 64.1831 57.1173 63.6877C57.1939 63.3186 57.4701 63.0981 57.8419 63.103C58.5527 63.1118 59.2637 63.131 59.9734 63.1683C60.6374 63.2033 61.077 63.558 61.3079 64.1802C61.436 64.5255 61.5238 64.8784 61.4952 65.2477C61.4616 65.6815 61.4186 66.1146 61.3647 66.5462C61.1979 67.8858 61.0231 69.2245 60.8536 70.5638C60.6796 71.9383 60.5061 73.3129 60.3372 74.6882C60.2985 75.0034 60.2779 75.321 60.2462 75.6672L60.2464 75.6666ZM40.3041 70.7496C40.1813 70.7432 40.1122 70.7365 40.043 70.7362C37.3404 70.7344 34.6378 70.7336 31.9355 70.7314C31.7756 70.7314 31.6152 70.7272 31.4559 70.7141C31.0683 70.6821 30.8148 70.4832 30.7075 70.1024C30.6266 69.8157 30.601 69.5259 30.6421 69.2315C30.869 67.6125 31.0953 65.9932 31.3256 64.3745C31.5485 62.8086 31.778 61.2437 32.0006 59.6781C32.2269 58.0858 32.449 56.493 32.6719 54.9001C32.71 54.6273 32.7549 54.3548 32.7765 54.0807C32.8069 53.6977 32.635 53.4941 32.2552 53.4469C32.1234 53.4306 31.9891 53.433 31.8557 53.4324C30.6378 53.4279 29.4197 53.4244 28.2018 53.4207C27.9886 53.4199 27.7751 53.4239 27.5618 53.417C27.3222 53.4092 27.1788 53.5352 27.094 53.7418C27.0606 53.8232 27.0344 53.9102 27.0219 53.9972C26.9426 54.551 26.865 55.1051 26.7932 55.66C26.657 56.7083 26.5231 57.7567 26.392 58.8056C26.2401 60.0219 26.0958 61.2392 25.9418 62.4555C25.7755 63.7683 25.6044 65.0809 25.4312 66.393C25.2601 67.6875 25.0802 68.9809 24.911 70.2756C24.8397 70.8211 24.7436 71.3658 24.7794 71.9205C24.8293 72.6926 25.0874 73.3756 25.6394 73.9326C26.3552 74.6548 27.2012 75.1531 28.1805 75.4326C28.9249 75.645 29.6869 75.6763 30.4515 75.6805C31.9894 75.6893 33.5275 75.6917 35.0654 75.6917C36.4701 75.6917 37.8745 75.6851 39.2792 75.6792C39.383 75.6787 39.4868 75.6613 39.6059 75.6504C39.8386 74.0156 40.0687 72.4006 40.3038 70.7496H40.3041ZM51.9459 42.3311C51.9696 42.3306 51.9937 42.33 52.0174 42.3295C52.0404 42.4018 52.0705 42.4728 52.0855 42.5467C52.3046 43.644 52.5211 44.7417 52.7391 45.8389C52.8966 46.6316 53.0466 47.4256 53.2163 48.2157C53.318 48.6886 53.638 48.9416 54.123 48.9664C54.3269 48.9768 54.5319 48.9672 54.736 48.9723C55.2469 48.9851 55.6 48.7519 55.8108 48.292C55.8367 48.2354 55.8669 48.181 55.8933 48.1246C56.251 47.3602 56.6081 46.5956 56.9654 45.8312C57.4736 44.7452 57.981 43.6586 58.4924 42.5742C58.5292 42.496 58.5369 42.3831 58.6659 42.3516C58.6659 42.4104 58.672 42.4539 58.6651 42.4952C58.494 43.5201 58.3213 44.545 58.1491 45.5696C57.9874 46.5331 57.8235 47.4964 57.6652 48.4604C57.6089 48.8028 57.7477 48.9619 58.099 48.968C58.3744 48.9728 58.6501 48.9691 58.9255 48.9688C59.3077 48.9683 59.6902 48.975 60.0721 48.9648C60.3897 48.9563 60.5603 48.8154 60.6537 48.5124C60.6772 48.4364 60.6959 48.3579 60.7084 48.2792C60.8846 47.1737 61.0613 46.0682 61.2337 44.9622C61.4774 43.3995 61.7186 41.8365 61.9586 40.2733C62.0328 39.7905 62.1222 39.3082 62.1641 38.8222C62.2281 38.081 61.831 37.2696 60.7837 37.2643C60.437 37.2624 60.0906 37.2608 59.7439 37.2643C59.2007 37.2696 58.7598 37.4973 58.4342 37.9225C58.2572 38.1533 58.1011 38.4069 57.9759 38.6695C57.0055 40.7059 56.0452 42.7474 55.0795 44.7866C55.0422 44.8653 55.0272 44.9654 54.9365 45.0201C54.9173 44.9859 54.9037 44.9718 54.9013 44.9558C54.7534 44.0438 54.6069 43.1318 54.4593 42.2198C54.2831 41.1322 54.1126 40.0438 53.9268 38.9578C53.7707 38.0458 53.1565 37.4362 52.2544 37.2929C52.0281 37.2568 51.7935 37.2648 51.5629 37.2648C47.8028 37.2622 44.0425 37.2614 40.2824 37.2603C40.007 37.2603 39.731 37.2544 39.4559 37.2635C39.0496 37.2771 38.7392 37.4816 38.6205 37.8568C38.5124 38.1982 38.463 38.5697 38.4577 38.9289C38.4515 39.3485 38.7531 39.6416 39.1703 39.6925C39.3723 39.7171 39.5781 39.7174 39.782 39.7179C40.5643 39.72 41.3466 39.7163 42.1286 39.7184C42.2479 39.7187 42.3669 39.739 42.4988 39.7513C42.4892 39.8818 42.4889 39.9794 42.4737 40.0747C42.3578 40.8026 42.2385 41.5301 42.1211 42.2577C41.9129 43.5465 41.7042 44.8354 41.4971 46.1245C41.373 46.8964 41.2497 47.668 41.1304 48.4406C41.0719 48.8186 41.2027 48.9651 41.5935 48.9688C41.8956 48.9718 42.198 48.9694 42.5001 48.9688C42.8468 48.9683 43.1938 48.975 43.5399 48.9638C43.8575 48.9536 44.0265 48.8114 44.1159 48.5063C44.1383 48.4297 44.1557 48.3512 44.1685 48.2725C44.417 46.7466 44.6649 45.2211 44.9121 43.6949C45.1053 42.5024 45.2967 41.3094 45.4915 40.1169C45.5449 39.7905 45.6132 39.7288 45.9452 39.727C46.4518 39.7243 46.9586 39.7312 47.4652 39.7355C47.892 39.7392 48.3187 39.7376 48.745 39.7515C49.1862 39.7659 49.3119 39.9309 49.2411 40.3632C49.1069 41.1872 48.9753 42.0116 48.8424 42.8358C48.5993 44.3438 48.3553 45.8517 48.113 47.36C48.0524 47.7371 47.9939 48.1145 47.9392 48.4924C47.9149 48.6592 47.9339 48.8247 48.1026 48.9077C48.1933 48.9523 48.3067 48.9667 48.41 48.9675C49.0146 48.9723 49.6191 48.972 50.2233 48.968C50.704 48.9648 50.8756 48.8204 50.9739 48.351C50.9829 48.3075 50.9888 48.2634 50.9957 48.2194C51.2632 46.5529 51.5301 44.8861 51.7978 43.2196C51.8455 42.9231 51.8963 42.6271 51.9456 42.3308L51.9459 42.3311ZM71.3483 75.6976V75.6989C71.7751 75.6989 72.2016 75.7003 72.6284 75.6987C72.9751 75.6973 73.322 75.7021 73.6679 75.6864C73.9802 75.6722 74.1184 75.5551 74.1921 75.2522C74.2423 75.0456 74.274 74.8337 74.3023 74.6225C74.4529 73.5042 74.5989 72.3857 74.7478 71.2671C74.9365 69.8493 75.1268 68.4318 75.3149 67.0141C75.4844 65.7372 75.651 64.4599 75.8199 63.1828C76.0252 61.6326 76.2304 60.0825 76.4378 58.5326C76.6251 57.1324 76.8154 55.7328 77.0036 54.3327C77.0543 53.9542 77.1141 53.5763 77.1464 53.196C77.1728 52.8845 77.0159 52.6905 76.7103 52.6232C76.5816 52.5949 76.4463 52.5856 76.3142 52.585C74.9723 52.5813 73.63 52.5813 72.2878 52.5802C72.2435 52.5802 72.1986 52.58 72.1546 52.584C71.8973 52.6075 71.7289 52.751 71.6384 52.9849C71.6003 53.0831 71.5786 53.1901 71.5642 53.295C71.4046 54.4384 71.2429 55.5812 71.0916 56.7257C70.933 57.9233 70.7868 59.1222 70.6322 60.3203C70.5028 61.3246 70.3691 62.3282 70.2369 63.3322C70.0854 64.4858 69.934 65.6393 69.7813 66.7928C69.6145 68.0518 69.4459 69.3105 69.2788 70.5694C69.1256 71.7227 68.9719 72.876 68.8219 74.0295C68.7682 74.4432 68.7124 74.8574 68.6812 75.2732C68.6612 75.5401 68.789 75.6626 69.0551 75.6891C69.1432 75.6979 69.2326 75.6968 69.3215 75.6968C69.997 75.6973 70.6725 75.6971 71.348 75.6971L71.3483 75.6976ZM84.4629 59.2431V59.2364C83.734 59.2364 83.0043 59.253 82.2762 59.2295C81.9009 59.2175 81.6217 59.3442 81.397 59.6285C81.353 59.6843 81.3049 59.7368 81.259 59.7913C80.3753 60.8367 79.493 61.8835 78.6074 62.9276C77.8024 63.8767 77.0009 64.829 76.1834 65.7674C75.9301 66.0581 75.8493 66.3402 76.0465 66.6826C76.0775 66.7362 76.097 66.796 76.1231 66.8526C77.0663 68.8821 78.0095 70.9116 78.9533 72.9408C79.7134 74.5756 80.4834 76.2058 81.2297 77.8467C81.4485 78.3276 81.756 78.539 82.3013 78.5227C83.5004 78.487 84.7012 78.508 85.9015 78.5043C86.0523 78.5038 86.2041 78.5024 86.3539 78.4859C86.7195 78.4459 86.87 78.2299 86.7681 77.875C86.7144 77.6881 86.6354 77.5072 86.554 77.3299C85.342 74.689 84.1285 72.0491 82.9141 69.4095C82.4945 68.4972 82.0837 67.5807 81.6436 66.6786C81.4928 66.3698 81.5273 66.1475 81.7739 65.9259C81.9055 65.8077 82.016 65.666 82.1366 65.5352C83.6865 63.8567 85.2486 62.1896 86.712 60.4337C86.8316 60.2904 86.9509 60.1468 87.0649 59.9989C87.1188 59.929 87.1674 59.8529 87.2058 59.7737C87.3254 59.5279 87.154 59.2297 86.8634 59.2367C86.0637 59.2559 85.2633 59.2433 84.4631 59.2433L84.4629 59.2431ZM44.0134 75.6987V75.6936C44.6801 75.6936 45.3468 75.6939 46.0136 75.6933C46.1291 75.6933 46.245 75.6941 46.36 75.6864C46.6453 75.6669 46.7598 75.5799 46.8335 75.3055C46.8794 75.1344 46.9111 74.9586 46.9357 74.7832C47.0678 73.8419 47.1964 72.9 47.3254 71.9578C47.5178 70.5494 47.7105 69.1413 47.9011 67.7326C48.0665 66.5088 48.2264 65.2843 48.3935 64.0606C48.5774 62.7138 48.7685 61.3679 48.9518 60.0208C48.9745 59.8545 48.9841 59.6832 48.9716 59.5164C48.9558 59.3037 48.8304 59.1756 48.6185 59.1435C48.4522 59.1182 48.2825 59.108 48.114 59.1072C46.8874 59.1011 45.6607 59.0987 44.434 59.0952C44.2742 59.0947 44.114 59.0931 43.9542 59.0947C43.4767 59.099 43.3264 59.2183 43.2181 59.6893C43.1842 59.8361 43.1607 59.9861 43.1431 60.1359C42.9581 61.7151 42.7806 63.2949 42.5909 64.8736C42.3907 66.5403 42.1804 68.2058 41.9724 69.8715C41.7811 71.4051 41.5852 72.9381 41.3949 74.472C41.3599 74.7539 41.3314 75.0373 41.3204 75.321C41.3105 75.5748 41.4096 75.6698 41.6671 75.6912C41.7731 75.7 41.8804 75.6989 41.9869 75.6989C42.6624 75.6995 43.3379 75.6992 44.0134 75.6992V75.6987ZM37.6556 48.9694V48.9686C37.9757 48.9686 38.2957 48.9739 38.6157 48.9672C38.9909 48.9595 39.1046 48.8138 39.0392 48.4409C39.0302 48.3886 39.015 48.3371 39.0029 48.2853C38.337 45.4122 37.6711 42.5393 37.0055 39.6661C36.7989 38.7747 36.6003 37.8816 36.3852 36.9923C36.2686 36.5108 36.0097 36.3005 35.5156 36.2861C34.965 36.2698 34.4136 36.2752 33.8625 36.2792C33.5142 36.2818 33.2518 36.4505 33.0698 36.7412C32.9708 36.8992 32.8824 37.0639 32.7949 37.2285C31.1756 40.2813 29.5558 43.3336 27.94 46.3879C27.5912 47.0472 27.2504 47.7112 26.9202 48.3798C26.7518 48.7212 26.9077 48.963 27.2896 48.9672C27.9472 48.9747 28.6051 48.9662 29.2628 48.9694C29.4902 48.9704 29.6535 48.877 29.7635 48.6801C29.8673 48.494 29.981 48.3131 30.0787 48.1238C30.3437 47.6109 30.6173 47.1014 30.8591 46.5774C31.0077 46.2553 31.2047 46.1226 31.5749 46.1306C32.721 46.1557 33.8681 46.1397 35.0147 46.14C35.5525 46.14 35.5552 46.14 35.6726 46.6781C35.7975 47.2506 35.9104 47.826 36.0404 48.3974C36.1367 48.8212 36.3201 48.9622 36.7493 48.968C37.0514 48.9723 37.3538 48.9688 37.6559 48.9688L37.6556 48.9694ZM49.8294 54.0185C49.8265 53.9588 49.8251 53.852 49.8152 53.7458C49.6962 52.4497 48.7034 51.574 47.4057 51.6167C46.8345 51.6357 46.3408 51.8703 45.8697 52.1647C44.6102 52.9518 43.8984 54.4923 44.1525 55.9167C44.3089 56.7935 44.7944 57.4186 45.638 57.7514C46.1208 57.9419 46.5954 57.879 47.0729 57.7415C48.3649 57.3697 49.783 56.1791 49.8294 54.0183V54.0185Z" fill="#E82529"/>
<path d="M60.2461 75.6668C60.2779 75.3206 60.2984 75.0032 60.3371 74.6878C60.5064 73.3127 60.6796 71.9379 60.8536 70.5634C61.0231 69.2241 61.1982 67.8856 61.3647 66.5458C61.4183 66.1142 61.4616 65.681 61.4952 65.2473C61.5238 64.8779 61.436 64.5251 61.3078 64.1797C61.077 63.5576 60.6374 63.2032 59.9734 63.1679C59.2637 63.1303 58.5527 63.1113 57.8419 63.1025C57.4701 63.0977 57.1939 63.3182 57.1173 63.6873C57.0145 64.1827 56.9345 64.6831 56.864 65.1843C56.5955 67.0935 56.3326 69.0031 56.0724 70.9133C55.8866 72.2777 55.7086 73.6434 55.5263 75.0083C55.5074 75.1492 55.4812 75.2891 55.4598 75.4295C55.438 75.5725 55.3659 75.6548 55.2111 75.6473C55.1404 75.6438 55.0688 75.6499 54.9978 75.6499C53.5755 75.6499 52.1535 75.6499 50.7312 75.6494C50.6602 75.6494 50.589 75.6491 50.518 75.6446C50.2177 75.6254 50.0915 75.5098 50.112 75.2061C50.1432 74.7457 50.1958 74.2861 50.2572 73.8286C50.4771 72.1915 50.7008 70.5546 50.9303 68.9188C51.0883 67.793 51.2565 66.6688 51.4233 65.5444C51.5743 64.5254 51.7225 63.5058 51.8861 62.4887C51.9536 62.0686 52.027 61.645 52.1511 61.2393C52.5613 59.8992 53.4829 59.1279 54.8639 58.9317C56.576 58.6886 58.3004 58.6517 60.0254 58.7265C61.0193 58.7694 62.0119 58.8583 62.9749 59.1399C63.7329 59.3614 64.4303 59.7017 65.0551 60.1888C66.2535 61.1232 66.831 62.376 66.9442 63.8653C67.012 64.7565 66.9271 65.6421 66.8059 66.5234C66.5166 68.6268 66.2174 70.7289 65.9209 72.8312C65.8203 73.5439 65.7157 74.2557 65.6116 74.9678C65.5988 75.0556 65.5812 75.1428 65.5617 75.2293C65.5083 75.4652 65.354 75.5979 65.1202 75.631C64.9534 75.6545 64.7839 75.6697 64.6155 75.6708C63.2557 75.6785 61.8956 75.6822 60.5357 75.686C60.4575 75.686 60.3793 75.6756 60.2464 75.6662L60.2461 75.6668Z" fill="white"/>
<path d="M40.3041 70.75C40.0689 72.401 39.8391 74.016 39.6061 75.6507C39.4868 75.6617 39.3833 75.679 39.2795 75.6796C37.8748 75.6854 36.4704 75.6918 35.0657 75.6921C33.5278 75.6921 31.9897 75.6897 30.4518 75.6809C29.6871 75.6766 28.9249 75.6454 28.1808 75.4329C27.2015 75.1535 26.3555 74.6552 25.6396 73.933C25.0877 73.376 24.8296 72.6927 24.7797 71.9208C24.7439 71.3662 24.84 70.8215 24.9113 70.2759C25.0805 68.9812 25.2604 67.6878 25.4315 66.3934C25.6049 65.0813 25.776 63.769 25.942 62.4558C26.096 61.2398 26.2404 60.0225 26.3923 58.806C26.5233 57.7571 26.6573 56.7084 26.7934 55.6603C26.8655 55.1055 26.9432 54.5514 27.0222 53.9976C27.0347 53.9106 27.0609 53.8235 27.0942 53.7421C27.1791 53.5353 27.3222 53.4096 27.5621 53.4173C27.7754 53.4243 27.9886 53.4203 28.2021 53.4211C29.42 53.4248 30.6381 53.4283 31.856 53.4328C31.9891 53.4333 32.1237 53.4307 32.2555 53.4472C32.6353 53.4945 32.8072 53.6981 32.7768 54.0811C32.7551 54.3552 32.7103 54.6277 32.6721 54.9005C32.4493 56.4933 32.2272 58.0862 32.0009 59.6785C31.7783 61.2444 31.5488 62.8092 31.3259 64.3748C31.0956 65.9936 30.8692 67.6126 30.6424 69.2318C30.601 69.5262 30.6269 69.8161 30.7078 70.1027C30.8151 70.4836 31.0686 70.6822 31.4561 70.7145C31.6155 70.7275 31.7759 70.7318 31.9358 70.7318C34.6384 70.7339 37.341 70.735 40.0433 70.7366C40.1125 70.7366 40.1816 70.7433 40.3044 70.75H40.3041Z" fill="white"/>
<path d="M51.946 42.3313C51.8967 42.6276 51.8457 42.9235 51.7982 43.2201C51.5305 44.8866 51.2633 46.5531 50.9962 48.2199C50.9892 48.2636 50.9833 48.3079 50.9743 48.3514C50.8761 48.8209 50.7044 48.9656 50.2238 48.9685C49.6192 48.9725 49.0147 48.9731 48.4104 48.968C48.3072 48.9672 48.1937 48.9528 48.103 48.9082C47.9343 48.8252 47.9156 48.66 47.9396 48.4929C47.9946 48.115 48.0528 47.7376 48.1134 47.3605C48.3557 45.8522 48.5997 44.3442 48.8428 42.8363C48.9757 42.0121 49.1073 41.1876 49.2416 40.3637C49.312 39.9313 49.1866 39.7664 48.7454 39.752C48.3192 39.7381 47.8921 39.7397 47.4656 39.736C46.9591 39.7317 46.4522 39.7245 45.9456 39.7274C45.6134 39.7293 45.545 39.791 45.4919 40.1174C45.2974 41.3099 45.106 42.5026 44.9125 43.6954C44.6651 45.2213 44.4174 46.7471 44.1689 48.273C44.1561 48.3517 44.1387 48.4302 44.1163 48.5068C44.0269 48.8118 43.858 48.9538 43.5404 48.9642C43.1939 48.9755 42.8472 48.9688 42.5005 48.9693C42.1984 48.9699 41.896 48.9723 41.5939 48.9693C41.2031 48.9656 41.0724 48.8191 41.1308 48.4411C41.2501 47.6687 41.3737 46.8969 41.4975 46.125C41.7046 44.8359 41.9134 43.547 42.1215 42.2582C42.2392 41.5306 42.3583 40.803 42.4741 40.0752C42.4893 39.9799 42.4896 39.8822 42.4992 39.7517C42.3673 39.7394 42.248 39.7192 42.129 39.7189C41.3467 39.7168 40.5645 39.7202 39.7824 39.7184C39.5783 39.7178 39.3728 39.7176 39.1707 39.693C38.7538 39.6423 38.4522 39.349 38.4581 38.9294C38.4632 38.5702 38.5128 38.1986 38.6209 37.8573C38.7397 37.4823 39.0501 37.2776 39.4563 37.264C39.7315 37.2546 40.0074 37.2608 40.2829 37.2608C44.0429 37.2618 47.8033 37.2626 51.5633 37.2653C51.7942 37.2653 52.0285 37.2576 52.2548 37.2933C53.157 37.4364 53.7714 38.046 53.9272 38.9582C54.113 40.0442 54.2835 41.1327 54.4597 42.2203C54.6076 43.1323 54.7538 44.0445 54.9017 44.9562C54.9043 44.9723 54.9177 44.9864 54.9369 45.0206C55.0277 44.9658 55.0426 44.8658 55.08 44.787C56.0456 42.7482 57.0059 40.7067 57.9763 38.67C58.1015 38.4074 58.2577 38.1538 58.4346 37.9229C58.7602 37.4978 59.2011 37.2701 59.7443 37.2648C60.091 37.2613 60.4374 37.2632 60.7841 37.2648C61.8311 37.2701 62.2283 38.0815 62.1645 38.8227C62.1226 39.3087 62.0332 39.7907 61.959 40.2738C61.7191 41.837 61.4775 43.4 61.2341 44.9626C61.0617 46.0687 60.885 47.1742 60.7088 48.2796C60.6963 48.3584 60.6776 48.4366 60.6541 48.5129C60.561 48.8159 60.3904 48.9568 60.0726 48.9653C59.6906 48.9755 59.3082 48.969 58.926 48.9693C58.6505 48.9696 58.3748 48.9736 58.0994 48.9685C57.7481 48.9624 57.6096 48.8033 57.6657 48.4609C57.8239 47.4968 57.9878 46.5336 58.1496 45.5701C58.3217 44.5452 58.4944 43.5206 58.6655 42.4957C58.6724 42.4543 58.6663 42.4108 58.6663 42.3521C58.5371 42.3836 58.5296 42.4968 58.4928 42.5747C57.9811 43.6591 57.4738 44.7457 56.9659 45.8317C56.6082 46.5961 56.2511 47.3607 55.8937 48.1251C55.8673 48.1814 55.8372 48.2359 55.8113 48.2925C55.6004 48.7523 55.2476 48.9856 54.7365 48.9728C54.532 48.9677 54.3273 48.9773 54.1234 48.9669C53.6387 48.9421 53.3184 48.6891 53.2168 48.2161C53.047 47.4261 52.897 46.6321 52.7395 45.8394C52.5215 44.7419 52.305 43.6442 52.0859 42.5472C52.0712 42.4733 52.0411 42.4023 52.0178 42.33C51.9941 42.3305 51.9701 42.331 51.9463 42.3316L51.946 42.3313Z" fill="white"/>
<path d="M71.3481 75.6979C70.6726 75.6979 69.997 75.6979 69.3215 75.6976C69.2326 75.6976 69.1432 75.6987 69.0552 75.6899C68.7891 75.6637 68.6612 75.541 68.6812 75.2741C68.7122 74.8582 68.768 74.444 68.8219 74.0303C68.9719 72.8765 69.1256 71.7235 69.2788 70.5702C69.4459 69.3113 69.6148 68.0526 69.7814 66.7936C69.9341 65.6404 70.0854 64.4866 70.237 63.333C70.3691 62.3292 70.5025 61.3254 70.6323 60.3211C70.7868 59.123 70.9331 57.9241 71.0916 56.7265C71.2429 55.5821 71.4047 54.4389 71.5643 53.2958C71.5789 53.1909 71.6006 53.0839 71.6385 52.9857C71.7289 52.7521 71.8976 52.6083 72.1546 52.5848C72.1987 52.5808 72.2435 52.5811 72.2878 52.5811C73.6301 52.5819 74.972 52.5821 76.3143 52.5859C76.4466 52.5861 76.5817 52.5957 76.7103 52.624C77.0159 52.691 77.1729 52.8853 77.1464 53.1968C77.1141 53.5769 77.0544 53.9548 77.0036 54.3335C76.8155 55.7334 76.6252 57.1333 76.4378 58.5334C76.2304 60.0833 76.0252 61.6334 75.82 63.1836C75.651 64.4607 75.4845 65.7378 75.315 67.0149C75.1268 68.4327 74.9365 69.8502 74.7478 71.2679C74.5992 72.3862 74.4529 73.5051 74.3024 74.6234C74.2741 74.8345 74.2423 75.0464 74.1921 75.253C74.1185 75.5559 73.9802 75.6731 73.668 75.6872C73.3221 75.703 72.9748 75.6982 72.6284 75.6995C72.2019 75.7011 71.7751 75.6998 71.3483 75.6998V75.6984L71.3481 75.6979Z" fill="white"/>
<path d="M84.463 59.2434C85.2631 59.2434 86.0635 59.256 86.8632 59.2367C87.1538 59.2298 87.3252 59.5279 87.2056 59.7737C87.1672 59.853 87.1186 59.9291 87.0647 59.999C86.9507 60.1466 86.8314 60.2902 86.7118 60.4338C85.2484 62.1897 83.686 63.8568 82.1364 65.5353C82.0158 65.6658 81.9053 65.8078 81.7737 65.926C81.5273 66.1473 81.4929 66.3696 81.6434 66.6787C82.0836 67.5808 82.4943 68.4976 82.9139 69.4096C84.1283 72.0492 85.3421 74.6893 86.5538 77.33C86.6352 77.5072 86.7142 77.6882 86.7679 77.875C86.8698 78.2297 86.7193 78.4459 86.3537 78.486C86.2039 78.5025 86.0521 78.5038 85.9013 78.5044C84.701 78.5081 83.5003 78.4868 82.3011 78.5228C81.7558 78.5391 81.4483 78.3277 81.2295 77.8467C80.483 76.2059 79.7132 74.5754 78.9531 72.9409C78.0094 70.9117 77.0661 68.8822 76.1229 66.8527C76.0968 66.7964 76.0773 66.7363 76.0463 66.6827C75.8488 66.3402 75.93 66.0581 76.1832 65.7675C77.0008 64.8293 77.8023 63.877 78.6072 62.9277C79.4925 61.8836 80.3752 60.8371 81.2589 59.7914C81.3048 59.7372 81.3528 59.6843 81.3968 59.6286C81.6216 59.344 81.9007 59.2175 82.276 59.2295C83.0044 59.2528 83.7338 59.2365 84.4627 59.2365V59.2432L84.463 59.2434Z" fill="white"/>
<path d="M44.0135 75.6991C43.338 75.6991 42.6625 75.6994 41.9869 75.6988C41.8804 75.6988 41.7732 75.6999 41.6672 75.6911C41.4096 75.6697 41.3106 75.5747 41.3205 75.3209C41.3317 75.0375 41.36 74.7537 41.395 74.4719C41.5853 72.938 41.7809 71.405 41.9725 69.8714C42.1804 68.2057 42.3905 66.5402 42.5909 64.8734C42.7807 63.295 42.9582 61.715 43.1431 60.1357C43.1608 59.986 43.1842 59.836 43.2181 59.6892C43.3265 59.2181 43.4768 59.0991 43.9542 59.0946C44.1141 59.0932 44.2743 59.0946 44.4341 59.0951C45.6608 59.0986 46.8874 59.1007 48.1141 59.1071C48.2825 59.1079 48.4523 59.1183 48.6185 59.1434C48.8305 59.1757 48.9559 59.3035 48.9717 59.5163C48.9839 59.6831 48.9743 59.8544 48.9519 60.0207C48.7685 61.3677 48.5774 62.7134 48.3936 64.0605C48.2265 65.2839 48.0666 66.5087 47.9011 67.7325C47.7106 69.1411 47.5181 70.5496 47.3254 71.9577C47.1968 72.8996 47.0681 73.8415 46.9358 74.7831C46.9112 74.9587 46.8794 75.1346 46.8335 75.3054C46.7596 75.5798 46.6454 75.6668 46.3601 75.6863C46.245 75.694 46.1292 75.6932 46.0136 75.6932C45.3469 75.6938 44.6802 75.6935 44.0135 75.6935V75.6986V75.6991Z" fill="white"/>
<path d="M37.6557 48.9698C37.3535 48.9698 37.0511 48.9733 36.749 48.969C36.3198 48.9631 36.1365 48.8219 36.0401 48.3984C35.9102 47.8269 35.7973 47.2518 35.6724 46.679C35.5549 46.1407 35.5522 46.1409 35.0144 46.1409C33.8679 46.1409 32.7207 46.1567 31.5747 46.1316C31.2045 46.1236 31.0075 46.2562 30.8588 46.5784C30.617 47.1023 30.3437 47.6118 30.0784 48.1248C29.9808 48.314 29.8668 48.4947 29.7632 48.681C29.6535 48.878 29.4902 48.9714 29.2625 48.9703C28.6049 48.9671 27.947 48.9757 27.2894 48.9682C26.9074 48.9639 26.7516 48.7218 26.92 48.3808C27.2501 47.7119 27.5909 47.0481 27.9398 46.3889C29.5556 43.3345 31.1754 40.282 32.7947 37.2295C32.8819 37.0648 32.9705 36.8999 33.0696 36.7421C33.2519 36.4515 33.5142 36.2828 33.8623 36.2801C34.4134 36.2759 34.9648 36.2708 35.5154 36.2871C36.0094 36.3015 36.2686 36.5118 36.385 36.9933C36.6001 37.8826 36.7989 38.7756 37.0052 39.6671C37.6709 42.5402 38.3368 45.4134 39.0027 48.2863C39.0147 48.3383 39.0297 48.3896 39.039 48.4419C39.1044 48.8147 38.9907 48.9605 38.6154 48.9682C38.2957 48.9749 37.9754 48.9695 37.6554 48.9695V48.9703L37.6557 48.9698ZM34.2324 39.7741C34.009 39.9873 32.2598 43.5929 32.2264 43.8798C32.3222 43.8867 32.417 43.899 32.5123 43.8995C33.2145 43.903 33.9167 43.9081 34.6186 43.9046C35.0964 43.9025 35.1068 43.8841 35.0118 43.4229C34.802 42.4052 34.593 41.3875 34.3808 40.3703C34.3416 40.1819 34.2882 39.9962 34.2324 39.7741Z" fill="white"/>
<path d="M49.8296 54.0188C49.7832 56.1796 48.3651 57.3702 47.0731 57.742C46.5959 57.8794 46.1213 57.9422 45.6382 57.7519C44.7946 57.419 44.3091 56.7937 44.1527 55.9172C43.8986 54.4928 44.6104 52.9522 45.8699 52.1652C46.341 51.8708 46.8347 51.6359 47.4059 51.6172C48.7033 51.5745 49.6964 52.4502 49.8155 53.7463C49.8251 53.8522 49.8267 53.959 49.8296 54.019V54.0188Z" fill="white"/>
<path d="M34.2326 39.7739C34.2884 39.996 34.3417 40.1817 34.381 40.3702C34.5931 41.3873 34.8021 42.405 35.0119 43.4227C35.1069 43.8839 35.0965 43.902 34.6188 43.9044C33.9166 43.9076 33.2144 43.9028 32.5124 43.8994C32.4174 43.8988 32.3224 43.8866 32.2266 43.8796C32.2599 43.5927 34.0092 39.9872 34.2326 39.7739Z" fill="#E82529"/>
</g>
</g>
<rect x="1" y="1" width="110" height="110" rx="9" stroke="#CCCCCC" stroke-width="2"/>
<defs>
<clipPath id="clip0_406_1159">
<rect x="2" y="2" width="108" height="108" rx="8" fill="white"/>
</clipPath>
<clipPath id="clip1_406_1159">
<rect width="80" height="80.7481" fill="white" transform="translate(16 16)"/>
</clipPath>
</defs>
</svg>
