<svg width="112" height="112" viewBox="0 0 112 112" fill="none" xmlns="http://www.w3.org/2000/svg">
<g clip-path="url(#clip0_648_382)">
<rect x="2" y="2" width="108" height="108" rx="8" fill="white"/>
<path d="M96 15.9998V95.9998H16V15.9998H96Z" fill="white"/>
<path fill-rule="evenodd" clip-rule="evenodd" d="M88.4888 95.9998H23.5113C19.3802 95.9998 16 92.6198 16 88.4885V23.511C16 19.38 19.3802 15.9998 23.5113 15.9998H88.4888C92.6201 15.9998 96 19.38 96 23.511V88.4885C96 92.6198 92.6201 95.9998 88.4888 95.9998Z" fill="#E82529"/>
<path fill-rule="evenodd" clip-rule="evenodd" d="M33.1058 47.8209H36.896C37.1846 47.8209 37.4063 48.0767 37.3652 48.3623L35.6049 60.5732C35.5371 61.0432 35.9019 61.464 36.3766 61.464H43.0256C43.2145 61.464 43.3592 61.6318 43.3317 61.8184L42.8159 65.3256C42.7892 65.5078 42.6329 65.6431 42.4484 65.6431H34.9302C32.6939 65.6431 30.5492 63.8089 30.8647 61.5948L32.6361 48.2326C32.6672 47.997 32.868 47.8209 33.1058 47.8209Z" fill="white"/>
<path fill-rule="evenodd" clip-rule="evenodd" d="M45.7445 52.6933L44.0095 65.1464C43.982 65.3439 44.1353 65.5203 44.3348 65.5203H48.0025C48.2633 65.5203 48.4844 65.328 48.5205 65.0697L50.2386 52.8191C50.2752 52.5369 50.0555 52.2866 49.7708 52.2866H46.2117C45.9761 52.2866 45.777 52.4602 45.7445 52.6933Z" fill="white"/>
<path fill-rule="evenodd" clip-rule="evenodd" d="M68.4959 47.1135H72.4741C72.6222 47.1135 72.7361 47.2443 72.7158 47.391L70.2403 65.324C70.222 65.4571 70.1081 65.5563 69.9736 65.5563H66.0459C65.8826 65.5563 65.757 65.4121 65.7795 65.2504L68.2542 47.3243C68.2709 47.2035 68.3739 47.1135 68.4959 47.1135Z" fill="white"/>
<path fill-rule="evenodd" clip-rule="evenodd" d="M71.5743 57.9184L76.0703 52.6532C76.212 52.4874 76.4192 52.3918 76.6376 52.3918H80.5844C80.8694 52.3918 81.0194 52.7293 80.8289 52.9407L76.2317 58.0426L80.4342 67.0808C80.5883 67.4124 80.3461 67.7919 79.9806 67.7919H76.4131C76.2267 67.7919 76.0576 67.6832 75.9798 67.5141L71.5743 57.9184Z" fill="white"/>
<path fill-rule="evenodd" clip-rule="evenodd" d="M51.0071 48.9145C50.6855 50.2714 49.4635 51.2811 48.1841 51.2811C46.905 51.2811 45.9239 50.1811 46.2458 48.8245C46.5675 47.4676 47.6266 46.3676 49.1447 46.3676C50.4238 46.3676 51.3288 47.5576 51.0071 48.9145Z" fill="white"/>
<path d="M58.1361 55.5954C57.983 55.5954 57.7703 55.6038 57.4981 55.6205C57.2429 55.6373 57.0047 55.6624 56.7835 55.6959L55.4564 65.0177C55.4224 65.2187 55.3713 65.3527 55.3033 65.4197C55.2522 65.4867 55.0821 65.5202 54.7928 65.5202H51.5006C51.1093 65.5202 50.9391 65.3527 50.9902 65.0177L52.547 54.2386C52.615 53.7193 52.7511 53.2921 52.9553 52.9571C53.1765 52.6221 53.5848 52.3876 54.1803 52.2536C54.3505 52.2201 54.6057 52.1866 54.946 52.1531C55.2863 52.1029 55.6521 52.0694 56.0434 52.0526C56.4347 52.0191 56.826 51.994 57.2174 51.9772C57.6087 51.9605 57.949 51.9521 58.2382 51.9521C59.4462 51.9521 60.4841 52.0693 61.3518 52.3039C62.2365 52.5216 62.9426 52.8985 63.4701 53.4345C63.9975 53.9538 64.3463 54.6406 64.5164 55.4949C64.6866 56.3324 64.6866 57.3626 64.5164 58.5854L63.5977 65.0177C63.5636 65.2187 63.5126 65.3527 63.4445 65.4197C63.3935 65.4867 63.2234 65.5202 62.9341 65.5202H59.6164C59.208 65.5202 59.0294 65.3527 59.0804 65.0177L60.0757 58.1582C60.1948 57.304 60.1268 56.6674 59.8716 56.2487C59.6164 55.8131 59.0379 55.5954 58.1361 55.5954Z" fill="white"/>
</g>
<rect x="1" y="1" width="110" height="110" rx="9" stroke="#CCCCCC" stroke-width="2"/>
<defs>
<clipPath id="clip0_648_382">
<rect x="2" y="2" width="108" height="108" rx="8" fill="white"/>
</clipPath>
</defs>
</svg>
