<svg width="112" height="112" viewBox="0 0 112 112" fill="none" xmlns="http://www.w3.org/2000/svg">
<g clip-path="url(#clip0_535_533)">
<rect x="2" y="2" width="108" height="108" rx="8" fill="white"/>
<path d="M84.5581 36.5018C87.9092 39.7509 91.2489 43.0124 94.5891 46.273C94.5999 46.2838 94.6053 46.2968 94.6053 46.3121V66.6663C94.6053 66.6838 94.5988 66.6984 94.5857 66.7102L84.4713 75.8177C84.4589 75.8288 84.4443 75.8344 84.4275 75.8344H27.4301C27.4136 75.8344 27.3993 75.8288 27.3872 75.8177L17.4248 66.7135C17.4124 66.7021 17.4062 66.6881 17.4062 66.6716V46.3016C17.4062 46.2889 17.4109 46.2779 17.4201 46.2687L27.3781 36.4251C27.3905 36.4127 27.4053 36.4065 27.4225 36.4065C46.4149 36.4062 65.4069 36.4062 84.3984 36.4065C84.4818 36.4065 84.5037 36.4489 84.5581 36.5018ZM29.4983 41.1383C29.4957 41.1383 29.4932 41.1388 29.4908 41.1398C29.4884 41.1408 29.4863 41.1422 29.4844 41.144L22.4298 48.3154C22.428 48.3172 22.4266 48.3194 22.4256 48.3218C22.4246 48.3241 22.4241 48.3267 22.4241 48.3293V64.5281C22.4241 64.5307 22.4247 64.5334 22.4257 64.5359C22.4268 64.5383 22.4284 64.5405 22.4303 64.5424L29.4825 71.0854C29.4862 71.0888 29.4909 71.0906 29.4959 71.0906H82.5919C82.5969 71.0906 82.6017 71.0888 82.6053 71.0854L89.6646 64.5347C89.6666 64.5329 89.6682 64.5307 89.6692 64.5282C89.6703 64.5258 89.6709 64.5231 89.6709 64.5204V48.3378C89.6709 48.3353 89.6703 48.3327 89.6694 48.3304C89.6684 48.328 89.6669 48.3258 89.6651 48.324L82.6039 41.144C82.6021 41.1422 82.5999 41.1408 82.5975 41.1398C82.5951 41.1388 82.5926 41.1383 82.59 41.1383H29.4983Z" fill="#F78F1E"/>
<path d="M29.4983 41.1383H82.59C82.5926 41.1383 82.5951 41.1388 82.5975 41.1398C82.5999 41.1408 82.6021 41.1422 82.6039 41.144L89.6651 48.324C89.6669 48.3258 89.6684 48.328 89.6694 48.3304C89.6703 48.3327 89.6709 48.3353 89.6709 48.3378V64.5204C89.6709 64.5231 89.6703 64.5258 89.6692 64.5282C89.6682 64.5307 89.6666 64.5329 89.6646 64.5347L82.6053 71.0854C82.6017 71.0888 82.5969 71.0906 82.5919 71.0906H29.4959C29.4909 71.0906 29.4862 71.0888 29.4825 71.0854L22.4303 64.5424C22.4284 64.5405 22.4268 64.5383 22.4257 64.5359C22.4247 64.5334 22.4241 64.5307 22.4241 64.5281V48.3293C22.4241 48.3267 22.4246 48.3241 22.4256 48.3218C22.4266 48.3194 22.428 48.3172 22.4298 48.3154L29.4844 41.144C29.4863 41.1422 29.4884 41.1408 29.4908 41.1398C29.4932 41.1388 29.4957 41.1383 29.4983 41.1383ZM71.8778 53.2365C71.832 54.9352 72.4799 56.1314 74.0651 56.8175C75.0706 57.2527 76.1233 57.4825 77.1793 57.7543C77.6303 57.8701 78.4499 58.0861 78.6992 58.4666C78.8942 58.7645 78.8122 59.2389 78.4642 59.4182C78.31 59.4976 78.1473 59.5496 77.976 59.5741C76.3564 59.8062 74.6368 59.2084 73.268 58.3273C73.265 58.3254 73.2617 58.3241 73.2582 58.3234C73.2547 58.3228 73.2512 58.3229 73.2477 58.3236C73.2442 58.3244 73.241 58.3258 73.2381 58.3278C73.2352 58.3299 73.2327 58.3325 73.2308 58.3355L71.493 61.1483C71.4835 61.1636 71.4862 61.1761 71.5011 61.186C73.2918 62.3831 75.6341 62.8866 77.7605 62.7612C80.1877 62.6186 82.3154 61.5049 82.448 58.795C82.4947 57.8353 82.3088 56.867 81.6728 56.1262C80.6744 54.9629 78.7021 54.4914 77.2856 54.1605C76.6911 54.0213 75.2027 53.7371 75.5745 52.868C75.7314 52.5004 76.1838 52.3827 76.5848 52.3664C78.0246 52.3088 79.3281 52.776 80.5014 53.5822C80.5223 53.5968 80.5395 53.5933 80.5529 53.5717L82.2949 50.7579C82.3054 50.741 82.3024 50.7269 82.2859 50.7154C81.224 49.9847 80.0662 49.5258 78.8127 49.3386C77.566 49.1526 76.2396 49.1426 75.012 49.4859C73.2251 49.986 71.9297 51.3147 71.8778 53.2365ZM39.1583 56.0608C39.0995 58.2234 39.0819 60.3865 39.1054 62.55C39.1054 62.5624 39.1118 62.5686 39.1245 62.5686H42.5076C42.5235 62.5686 42.5314 62.5606 42.5314 62.5447V49.4458C42.5314 49.4299 42.5235 49.422 42.5076 49.422H39.2322C39.2195 49.422 39.2103 49.4279 39.2046 49.4396C38.5699 50.8206 37.9361 52.202 37.3033 53.5836C36.817 54.6463 36.3416 55.7233 35.9631 56.8299C35.9624 56.8319 35.9611 56.8336 35.9593 56.8348C35.9576 56.836 35.9555 56.8366 35.9534 56.8366C35.9513 56.8365 35.9492 56.8358 35.9475 56.8345C35.9459 56.8332 35.9446 56.8314 35.944 56.8294C35.5645 55.7028 35.0778 54.6105 34.5829 53.5316C33.9577 52.1687 33.3316 50.8055 32.7045 49.442C32.6981 49.4287 32.6876 49.422 32.673 49.422H29.361C29.3451 49.422 29.3371 49.4299 29.3371 49.4458V62.5447C29.3371 62.5606 29.3451 62.5686 29.361 62.5686H32.745C32.7606 62.5686 32.7683 62.5608 32.7683 62.5452C32.7755 60.3788 32.7984 58.2058 32.7011 56.0408L32.7027 56.0353L32.7075 56.0322L32.7132 56.0331L32.7169 56.0375C33.7052 58.3917 34.8065 60.6692 35.9154 62.9962C35.9262 63.0188 35.937 63.0188 35.9478 62.9962C37.0453 60.7049 38.1309 58.4565 39.1436 56.0575C39.154 56.0327 39.159 56.0338 39.1583 56.0608ZM49.7571 59.4935C49.7532 59.4935 49.7495 59.4919 49.7467 59.4892C49.7439 59.4864 49.7424 59.4826 49.7424 59.4787V57.2794C49.7424 57.2755 49.7439 57.2718 49.7467 57.269C49.7495 57.2662 49.7532 57.2647 49.7571 57.2647H55.8539C55.8578 57.2647 55.8616 57.2631 55.8644 57.2603C55.8671 57.2576 55.8687 57.2538 55.8687 57.2499V54.2401C55.8687 54.2362 55.8671 54.2324 55.8644 54.2296C55.8616 54.2269 55.8578 54.2253 55.8539 54.2253H49.7571C49.7532 54.2253 49.7495 54.2238 49.7467 54.221C49.7439 54.2182 49.7424 54.2145 49.7424 54.2105V52.4999C49.7424 52.496 49.7439 52.4923 49.7467 52.4895C49.7495 52.4867 49.7532 52.4852 49.7571 52.4852H56.1877C56.1916 52.4852 56.1953 52.4836 56.1981 52.4808C56.2009 52.4781 56.2024 52.4743 56.2024 52.4704V49.4368C56.2024 49.4328 56.2009 49.4291 56.1981 49.4263C56.1953 49.4235 56.1916 49.422 56.1877 49.422H46.1338C46.1299 49.422 46.1261 49.4235 46.1233 49.4263C46.1206 49.4291 46.119 49.4328 46.119 49.4368V62.5538C46.119 62.5577 46.1206 62.5615 46.1233 62.5643C46.1261 62.567 46.1299 62.5686 46.1338 62.5686H56.3068C56.3108 62.5686 56.3145 62.567 56.3173 62.5643C56.3201 62.5615 56.3216 62.5577 56.3216 62.5538V59.5083C56.3216 59.5044 56.3201 59.5006 56.3173 59.4978C56.3145 59.4951 56.3108 59.4935 56.3068 59.4935H49.7571ZM69.9078 52.8194C69.5331 50.2897 67.3924 49.4372 65.1173 49.4291C63.1525 49.4225 61.186 49.4202 59.2179 49.4225C59.202 49.4225 59.1941 49.4304 59.1941 49.4463V62.5447C59.1941 62.5606 59.202 62.5686 59.2179 62.5686H62.7698C62.7857 62.5686 62.7936 62.5606 62.7936 62.5447V58.3626C62.7936 58.327 62.8114 58.3095 62.847 58.3102C64.7331 58.3369 67.0563 58.4732 68.6191 57.1903C69.8849 56.1514 70.1343 54.345 69.9078 52.8194Z" fill="white"/>
<path d="M74.0651 56.8175C72.4799 56.1314 71.832 54.9352 71.8778 53.2365C71.9297 51.3147 73.2251 49.986 75.012 49.4859C76.2396 49.1426 77.566 49.1526 78.8127 49.3386C80.0662 49.5258 81.224 49.9847 82.2859 50.7154C82.3024 50.7269 82.3054 50.741 82.2949 50.7579L80.5529 53.5717C80.5395 53.5933 80.5223 53.5968 80.5014 53.5822C79.3281 52.776 78.0246 52.3088 76.5848 52.3664C76.1838 52.3827 75.7314 52.5004 75.5745 52.868C75.2027 53.7371 76.6911 54.0213 77.2856 54.1605C78.7021 54.4914 80.6744 54.9629 81.6728 56.1262C82.3088 56.867 82.4947 57.8353 82.448 58.795C82.3154 61.5049 80.1877 62.6186 77.7605 62.7612C75.6341 62.8866 73.2918 62.3831 71.5011 61.186C71.4862 61.1761 71.4835 61.1636 71.493 61.1483L73.2308 58.3355C73.2327 58.3325 73.2352 58.3299 73.2381 58.3278C73.241 58.3258 73.2442 58.3244 73.2477 58.3236C73.2512 58.3229 73.2547 58.3228 73.2582 58.3234C73.2617 58.3241 73.265 58.3254 73.268 58.3273C74.6368 59.2084 76.3564 59.8062 77.976 59.5741C78.1473 59.5496 78.31 59.4976 78.4642 59.4182C78.8122 59.2389 78.8942 58.7645 78.6992 58.4666C78.4499 58.0861 77.6303 57.8701 77.1793 57.7543C76.1233 57.4825 75.0706 57.2527 74.0651 56.8175Z" fill="#0077C0"/>
<path d="M39.1436 56.0575C38.1309 58.4565 37.0453 60.7049 35.9478 62.9962C35.937 63.0188 35.9262 63.0188 35.9154 62.9962C34.8065 60.6692 33.7052 58.3917 32.7169 56.0375L32.7132 56.0331L32.7075 56.0322L32.7027 56.0353L32.7011 56.0408C32.7984 58.2058 32.7755 60.3788 32.7683 62.5452C32.7683 62.5608 32.7606 62.5686 32.745 62.5686H29.361C29.3451 62.5686 29.3371 62.5606 29.3371 62.5447V49.4458C29.3371 49.4299 29.3451 49.422 29.361 49.422H32.673C32.6876 49.422 32.6981 49.4287 32.7045 49.442C33.3316 50.8055 33.9577 52.1687 34.5829 53.5316C35.0778 54.6105 35.5645 55.7028 35.944 56.8294C35.9446 56.8314 35.9459 56.8332 35.9475 56.8345C35.9492 56.8358 35.9513 56.8365 35.9534 56.8366C35.9555 56.8366 35.9576 56.836 35.9593 56.8348C35.9611 56.8336 35.9624 56.8319 35.9631 56.8299C36.3416 55.7233 36.817 54.6463 37.3033 53.5836C37.9361 52.202 38.5699 50.8206 39.2046 49.4396C39.2103 49.4279 39.2195 49.422 39.2322 49.422H42.5076C42.5235 49.422 42.5314 49.4299 42.5314 49.4458V62.5447C42.5314 62.5606 42.5235 62.5686 42.5076 62.5686H39.1245C39.1118 62.5686 39.1054 62.5624 39.1054 62.55C39.0819 60.3865 39.0995 58.2234 39.1583 56.0608C39.159 56.0338 39.154 56.0327 39.1436 56.0575Z" fill="#0077C0"/>
<path d="M49.7571 59.4935H56.3068C56.3108 59.4935 56.3145 59.4951 56.3173 59.4978C56.3201 59.5006 56.3216 59.5044 56.3216 59.5083V62.5538C56.3216 62.5577 56.3201 62.5615 56.3173 62.5643C56.3145 62.567 56.3108 62.5686 56.3068 62.5686H46.1338C46.1299 62.5686 46.1261 62.567 46.1233 62.5643C46.1206 62.5615 46.119 62.5577 46.119 62.5538V49.4368C46.119 49.4328 46.1206 49.4291 46.1233 49.4263C46.1261 49.4235 46.1299 49.422 46.1338 49.422H56.1877C56.1916 49.422 56.1953 49.4235 56.1981 49.4263C56.2009 49.4291 56.2024 49.4328 56.2024 49.4368V52.4704C56.2024 52.4743 56.2009 52.4781 56.1981 52.4808C56.1953 52.4836 56.1916 52.4852 56.1877 52.4852H49.7571C49.7532 52.4852 49.7495 52.4867 49.7467 52.4895C49.7439 52.4923 49.7424 52.496 49.7424 52.4999V54.2105C49.7424 54.2145 49.7439 54.2182 49.7467 54.221C49.7495 54.2238 49.7532 54.2253 49.7571 54.2253H55.8539C55.8578 54.2253 55.8616 54.2269 55.8644 54.2296C55.8671 54.2324 55.8687 54.2362 55.8687 54.2401V57.2499C55.8687 57.2538 55.8671 57.2576 55.8644 57.2603C55.8616 57.2631 55.8578 57.2647 55.8539 57.2647H49.7571C49.7532 57.2647 49.7495 57.2662 49.7467 57.269C49.7439 57.2718 49.7424 57.2755 49.7424 57.2794V59.4787C49.7424 59.4826 49.7439 59.4864 49.7467 59.4892C49.7495 59.4919 49.7532 59.4935 49.7571 59.4935Z" fill="#0077C0"/>
<path d="M65.1173 49.4291C67.3924 49.4372 69.5331 50.2897 69.9078 52.8194C70.1343 54.345 69.8849 56.1514 68.6191 57.1903C67.0563 58.4732 64.7331 58.3369 62.847 58.3102C62.8114 58.3095 62.7936 58.327 62.7936 58.3626V62.5447C62.7936 62.5606 62.7857 62.5686 62.7698 62.5686H59.2179C59.202 62.5686 59.1941 62.5606 59.1941 62.5447V49.4463C59.1941 49.4304 59.202 49.4225 59.2179 49.4225C61.186 49.4202 63.1525 49.4225 65.1173 49.4291ZM66.2859 54.3574C66.5309 53.3109 66.0704 52.4017 64.9028 52.3998C64.2055 52.3989 63.5094 52.4001 62.8146 52.4036C62.809 52.4038 62.8036 52.4061 62.7997 52.4101C62.7958 52.4141 62.7936 52.4195 62.7936 52.4251V55.309C62.7936 55.3239 62.8011 55.3314 62.816 55.3314C63.4892 55.3368 64.1621 55.3362 64.8346 55.3295C65.4997 55.3228 66.1204 55.063 66.2859 54.3574Z" fill="#0077C0"/>
<path d="M64.9028 52.3998C66.0704 52.4017 66.5309 53.3109 66.2859 54.3574C66.1204 55.063 65.4997 55.3228 64.8346 55.3295C64.1621 55.3362 63.4892 55.3368 62.816 55.3314C62.8011 55.3314 62.7936 55.3239 62.7936 55.309V52.4251C62.7936 52.4195 62.7958 52.4141 62.7997 52.4101C62.8036 52.4061 62.809 52.4038 62.8146 52.4036C63.5094 52.4001 64.2055 52.3989 64.9028 52.3998Z" fill="white"/>
</g>
<rect x="1" y="1" width="110" height="110" rx="9" stroke="#CCCCCC" stroke-width="2"/>
<defs>
<clipPath id="clip0_535_533">
<rect x="2" y="2" width="108" height="108" rx="8" fill="white"/>
</clipPath>
</defs>
</svg>
