<svg width="112" height="112" viewBox="0 0 112 112" fill="none" xmlns="http://www.w3.org/2000/svg">
<g clip-path="url(#clip0_406_1160)">
<rect x="2" y="2" width="108" height="108" rx="8" fill="white"/>
<g clip-path="url(#clip1_406_1160)">
<path fill-rule="evenodd" clip-rule="evenodd" d="M17.6901 29.2002H94.3099C95.2394 29.2002 96 29.9608 96 30.8903V81.111C96 82.0405 95.2394 82.8 94.3099 82.8H17.6901C16.7616 82.8 16 82.0394 16 81.111V30.8903C16 29.9608 16.7606 29.2002 17.6901 29.2002Z" fill="#006838"/>
<path fill-rule="evenodd" clip-rule="evenodd" d="M55.0694 70.4688L52.2285 69.0032L55.0705 67.5377L57.966 66.0448V67.6593H58.1758C63.1442 67.6478 71.5065 66.8694 78.7242 64.7135C84.4952 62.9899 91.3845 59.7891 91.437 54.3255C91.4559 52.3616 90.2075 50.6065 87.7253 49.1105C85.6135 47.8369 82.5282 46.7049 78.5553 45.7471C74.7985 44.8418 69.6632 43.8462 57.9334 42.6848C58.6846 42.6681 59.4483 42.6597 60.2204 42.6597C71.9219 42.6597 86.3384 44.5984 91.7076 50.0379C93.1806 51.5297 93.9149 53.2323 93.8908 55.0976C93.8121 61.175 86.7465 64.8384 80.8328 66.8411C73.1724 69.4365 64.3685 70.3576 59.1577 70.3576H59.1556C58.8231 70.3576 58.4947 70.3544 58.18 70.3471L57.9649 70.3419V71.9606L55.0684 70.4677L55.0694 70.4688Z" fill="#F58220"/>
<path d="M61.854 42.8822C67.6869 42.9703 73.4233 43.5295 78.1651 44.4799C81.1928 45.0863 83.8375 45.85 86.0259 46.7512C88.421 47.7373 90.282 48.8924 91.5588 50.1859C92.9908 51.6368 93.7052 53.2891 93.6811 55.0956C93.6034 61.0502 86.6144 64.6622 80.7658 66.6439C73.1285 69.231 64.3529 70.1489 59.1578 70.1489C58.8253 70.1489 58.4979 70.1458 58.1853 70.1384L57.7562 70.129V70.5581V71.6176L55.165 70.2832L52.685 69.0044L55.165 67.7255L57.7552 66.3901V67.8703H58.1759C63.158 67.8577 71.5443 67.0772 78.783 64.915C82.6006 63.7747 85.6252 62.3899 87.7716 60.7984C90.3188 58.9101 91.6228 56.7332 91.6448 54.3287C91.6647 52.2851 90.3817 50.4692 87.8314 48.9312C85.7007 47.6461 82.5954 46.5068 78.6026 45.5437C75.2843 44.7432 70.8929 43.8746 61.8529 42.8822M60.2184 42.45C58.3007 42.45 56.4732 42.5014 54.7978 42.5958C69.3685 43.9428 91.3017 46.2865 91.2241 54.3235C91.1318 64.017 68.8325 67.4245 58.1727 67.4486V65.7008L54.9709 67.351L51.7681 69.0033L54.9709 70.6556L58.1738 72.3058V70.5581C58.4906 70.5654 58.8169 70.5686 59.1557 70.5686C70.6914 70.5686 93.9517 66.3177 94.0986 55.1009C94.2255 45.3685 74.6297 42.45 60.2184 42.45Z" fill="white"/>
<path fill-rule="evenodd" clip-rule="evenodd" d="M52.7555 65.6367C41.054 65.6367 26.6375 63.698 21.2672 58.2585C19.7943 56.7667 19.0599 55.064 19.0841 53.1987C19.1628 47.1214 26.2283 43.458 32.142 41.4542C39.8035 38.8588 48.6063 37.9377 53.8171 37.9377C54.1508 37.9377 54.4802 37.9409 54.7949 37.9482L55.01 37.9535V36.3347L57.9065 37.8276L60.7474 39.2931L57.9054 40.7587L55.01 42.2516V40.637H54.8001C49.8317 40.6486 41.4694 41.427 34.2517 43.5828C28.4807 45.3065 21.5914 48.5072 21.5389 53.9709C21.52 55.9348 22.7685 57.6899 25.2506 59.1859C27.3624 60.4595 30.4477 61.5914 34.4206 62.5492C38.1774 63.4546 43.3127 64.4502 55.0425 65.6115C54.2913 65.6283 53.5276 65.6367 52.7555 65.6367Z" fill="#F58220"/>
<path d="M55.2199 36.6789L57.8111 38.0134L60.2911 39.2922L57.8111 40.571L55.2209 41.9065V40.4263H54.8002C49.8181 40.4388 41.4317 41.2194 34.1931 43.3815C30.3755 44.5219 27.3509 45.9067 25.2045 47.4981C22.6573 49.3865 21.3533 51.5633 21.3313 53.9678C21.3114 56.0114 22.5944 57.8274 25.1447 59.3654C27.2754 60.6505 30.3807 61.7898 34.3735 62.7529C37.6918 63.5533 42.0832 64.422 51.1232 65.4133C45.2913 65.3252 39.5549 64.765 34.8141 63.8166C31.7865 63.2103 29.1417 62.4465 26.9533 61.5454C24.5583 60.5592 22.6972 59.4042 21.4205 58.1107C19.9885 56.6598 19.274 55.0075 19.2982 53.2009C19.3758 47.2463 26.3648 43.6344 32.2135 41.6526C39.8508 39.0656 48.6264 38.1476 53.8214 38.1476C54.154 38.1476 54.4813 38.1508 54.7939 38.1581L55.223 38.1676V37.7385V36.6789M54.8034 35.9907V37.7385C54.4866 37.7312 54.1603 37.728 53.8214 37.728C42.2857 37.728 19.0254 41.9789 18.8785 53.1957C18.7516 62.9281 38.3485 65.8466 52.7587 65.8466C54.6764 65.8466 56.5039 65.7952 58.1783 65.7008C43.6076 64.3538 21.6744 62.0101 21.752 53.9731C21.8443 44.2795 44.1436 40.8721 54.8034 40.848V42.5958L58.0052 40.9455L61.208 39.2932L58.0052 37.6409L54.8023 35.9907H54.8034Z" fill="white"/>
<path fill-rule="evenodd" clip-rule="evenodd" d="M28.9866 48.7612H33.9172C34.8446 48.7612 35.5496 48.8672 36.0312 49.0739C36.5106 49.2837 36.882 49.5942 37.1474 50.0054C37.4117 50.4177 37.5576 50.9223 37.5827 51.5193C37.6153 52.2945 37.4222 52.9827 37.0058 53.587C36.5914 54.1913 36.0532 54.6277 35.3954 54.8889C34.7387 55.1512 33.8176 55.2844 32.6321 55.2844H31.1435L30.4616 59.0989H27.0762L28.3938 51.9714L27.6144 51.9746L28.9855 48.7612H28.9866ZM31.5316 53.2387H32.6646C33.1923 53.2387 33.6183 53.0918 33.9445 52.796C34.2708 52.5002 34.425 52.1456 34.4082 51.7375C34.382 51.1185 34.0148 50.808 33.3098 50.808H31.9901L31.5327 53.2387H31.5316Z" fill="white"/>
<path fill-rule="evenodd" clip-rule="evenodd" d="M48.5865 59.0989H44.8738L42.5396 55.146L41.7759 59.0989H38.8164L40.1928 51.9693L39.3032 51.9672L40.8128 48.7612H45.8516C46.9615 48.7612 47.7703 49.0403 48.2781 49.5994C48.7859 50.1576 48.9516 50.8919 48.7754 51.8067C48.661 52.4016 48.4459 52.9292 48.1302 53.3866C47.8154 53.8409 46.63 54.7746 45.797 54.8522L48.5855 59.0989H48.5865ZM42.9666 52.9334H44.2339C44.6053 52.9334 44.92 52.8506 45.1791 52.6848C45.4361 52.517 45.5966 52.2715 45.6585 51.9483C45.7865 51.2895 45.4718 50.9591 44.7144 50.9591H43.3495L42.9676 52.9334H42.9666Z" fill="white"/>
<path fill-rule="evenodd" clip-rule="evenodd" d="M55.6885 48.7612L53.8463 59.0989H50.7012L51.9779 51.9326H51.1984L52.5423 48.7612H55.6885Z" fill="white"/>
<path fill-rule="evenodd" clip-rule="evenodd" d="M56.2197 59.0989L59.368 51.2129H58.4532L60.3468 48.7612H63.7836L64.9827 54.1241L68.6682 48.7612H71.978L71.977 59.0989H68.7919L68.7773 53.1013L64.6995 59.1692L63.3325 59.0989L61.6792 53.1013L59.4121 59.0989H56.2197Z" fill="white"/>
<path fill-rule="evenodd" clip-rule="evenodd" d="M85.5163 59.0989H81.9505L81.7889 57.4067H77.9514L77.0366 59.0989H73.1172L78.1895 51.2129H77.1897L79.7652 48.7612H83.6447L85.5163 59.0989ZM81.556 55.2141L81.1972 51.4469H81.1637L79.141 55.2141H81.555H81.556Z" fill="white"/>
<path d="M26.5733 69.5738C27.1597 69.7815 27.5888 70.1623 27.8616 70.7152C28.0808 71.1632 28.192 71.6468 28.1941 72.1682C28.1962 72.6885 28.148 73.1858 28.0504 73.6579C27.7944 74.8538 27.3381 75.8672 26.6835 76.6971C25.7959 77.8164 24.6734 78.3756 23.3148 78.3756H19.4385L21.3489 69.3787H25.2242C25.777 69.3871 26.2271 69.4521 26.5733 69.5738ZM22.8375 70.9408L21.5922 76.8125H23.3253C24.2129 76.8125 24.9241 76.375 25.4613 75.5001C25.754 75.0196 25.9701 74.4478 26.1086 73.7848C26.3037 72.869 26.31 72.1661 26.1264 71.6762C25.9428 71.1862 25.4246 70.9408 24.5695 70.9408H22.8365H22.8375Z" fill="white"/>
<path d="M34.7154 72.8397C34.8948 73.2342 34.9661 73.6926 34.9294 74.213C34.9126 74.5183 34.8402 74.9578 34.7101 75.5317H30.1571C30.0396 76.1989 30.1487 76.6668 30.4865 76.9354C30.69 77.1022 30.9607 77.1861 31.2985 77.1861C31.6562 77.1861 31.9699 77.0843 32.2385 76.8808C32.3812 76.7707 32.5217 76.6185 32.6592 76.4234H34.4353C34.3052 76.8179 34.0146 77.2186 33.5624 77.6257C32.8543 78.2729 31.9878 78.5961 30.9628 78.5961C30.1162 78.5961 29.428 78.3233 28.8971 77.7778C28.3663 77.2322 28.231 76.3458 28.4912 75.1162C28.7356 73.9644 29.214 73.0821 29.9284 72.4673C30.6428 71.8525 31.4653 71.5452 32.3969 71.5452C32.9498 71.5452 33.4271 71.649 33.8278 71.8567C34.2286 72.0645 34.5244 72.3918 34.7154 72.8397ZM30.4425 74.384H33.1459C33.2152 73.9245 33.1491 73.5751 32.9477 73.337C32.7462 73.0989 32.4609 72.9803 32.0906 72.9803C31.6877 72.9803 31.3489 73.1062 31.074 73.359C30.7991 73.6119 30.5883 73.9528 30.4425 74.384Z" fill="white"/>
<path d="M42.3884 74.9641C42.1691 75.9974 41.7422 76.8545 41.1096 77.5333C40.477 78.2131 39.7227 78.553 38.8477 78.553C38.298 78.553 37.8815 78.4429 37.5962 78.2236C37.4252 78.0935 37.2584 77.8659 37.0958 77.5396L36.9185 78.3757H35.2158L37.1199 69.3914H38.853L38.1753 72.59C38.4596 72.2805 38.7533 72.0445 39.0544 71.8819C39.408 71.6784 39.8276 71.5766 40.3112 71.5766C41.1862 71.5766 41.803 71.8924 42.1639 72.5229C42.5237 73.1534 42.5982 73.9675 42.3863 74.9641H42.3884ZM40.5273 75.1477C40.6291 74.6756 40.6511 74.2853 40.5945 73.9759C40.4843 73.3905 40.1182 73.0967 39.4961 73.0967C38.874 73.0967 38.3704 73.3831 38.0127 73.957C37.8259 74.2623 37.6812 74.6567 37.5794 75.1414C37.4577 75.711 37.4829 76.1831 37.656 76.5577C37.8291 76.9322 38.1742 77.1189 38.6904 77.1189C39.1383 77.1189 39.5244 76.9385 39.8496 76.5755C40.1748 76.2136 40.4014 75.7373 40.5273 75.1477Z" fill="white"/>
<path d="M44.347 71.7224H46.1105L44.7005 78.3757H42.937L44.347 71.7224ZM46.2815 70.9293H44.518L44.86 69.3242H46.6235L46.2815 70.9293Z" fill="white"/>
<path d="M46.8374 73.0233L47.0997 71.7843H48.0271L48.4236 69.9285H50.1452L49.7486 71.7843H50.8292L50.5669 73.0233H49.4863L48.7352 76.5387C48.6785 76.8115 48.6775 76.9815 48.732 77.0486C48.7866 77.1157 48.9912 77.1493 49.3458 77.1493C49.3982 77.1493 49.4549 77.1493 49.5136 77.1462C49.5724 77.1441 49.6322 77.1409 49.6941 77.1367L49.4129 78.4365L48.5831 78.467C47.7574 78.4953 47.2256 78.3526 46.9895 78.04C46.8384 77.8407 46.8059 77.5333 46.892 77.1178L47.7648 73.0222H46.8374V73.0233Z" fill="white"/>
</g>
</g>
<rect x="1" y="1" width="110" height="110" rx="9" stroke="#CCCCCC" stroke-width="2"/>
<defs>
<clipPath id="clip0_406_1160">
<rect x="2" y="2" width="108" height="108" rx="8" fill="white"/>
</clipPath>
<clipPath id="clip1_406_1160">
<rect width="80" height="53.5998" fill="white" transform="translate(16 29.2002)"/>
</clipPath>
</defs>
</svg>
