<svg width="112" height="112" viewBox="0 0 112 112" fill="none" xmlns="http://www.w3.org/2000/svg">
<g clip-path="url(#clip0_421_556)">
<rect x="2" y="2" width="108" height="108" rx="8" fill="white"/>
<path fill-rule="evenodd" clip-rule="evenodd" d="M25.8407 62.7803L25.7826 62.8374C24.8507 63.7866 23.7718 64.29 22.661 64.29C20.342 64.29 18.658 62.5494 18.658 60.148C18.658 57.7513 20.342 56.0097 22.661 56.0097C23.7718 56.0097 24.8507 56.5141 25.7826 57.4652L25.8407 57.5237L27.3322 55.7194L27.2924 55.6707C26.0528 54.2045 24.5636 53.4917 22.7336 53.4917C20.8983 53.4917 19.2186 54.1099 18.009 55.2239C16.6935 56.4316 16 58.1334 16 60.1485C16 62.164 16.6935 63.87 18.009 65.0772C19.2186 66.1969 20.8979 66.8108 22.7336 66.8108C24.5636 66.8108 26.0528 66.0981 27.2924 64.6314L27.3322 64.586L25.8407 62.7803ZM28.8396 66.5641H31.4751V53.6996H28.8396V66.5641ZM41.7991 63.7674C41.0948 64.1954 40.441 64.4113 39.8524 64.4113C39.001 64.4113 38.6156 63.9618 38.6156 62.9606V56.1338H41.3008V53.7113H38.6156V49.7079L36.033 51.0908V53.7113H33.8049V56.1338H36.033V63.3965C36.033 65.3737 37.2047 66.7252 38.9556 66.7621C40.1427 66.7851 40.8588 66.4311 41.2933 66.1716L41.32 66.1538L41.9536 63.6728L41.7991 63.7674ZM43.9804 66.5641H46.6183V53.6996H43.9804V66.5641Z" fill="#1C4882"/>
<path fill-rule="evenodd" clip-rule="evenodd" d="M48.1547 51.4439C45.7472 48.0338 41.7494 46 37.6819 46C33.6152 46 29.616 48.0343 27.2128 51.4439L27.0891 51.619H30.1213L30.1536 51.5825C32.2178 49.4546 34.9119 48.3279 37.6819 48.3279C40.4518 48.3279 43.1445 49.4546 45.212 51.5825L45.2471 51.619H48.276L48.1547 51.4439Z" fill="#CC2131"/>
<path fill-rule="evenodd" clip-rule="evenodd" d="M51.6505 56.7571L51.6149 56.8044V63.4593L51.6407 63.5C52.471 64.7836 53.8239 65.5516 55.261 65.5516C57.4831 65.5516 58.6098 63.6789 58.6098 59.9874C58.6098 56.6873 57.3623 54.7978 55.187 54.7978C53.8674 54.7973 52.6775 55.4567 51.6505 56.7571ZM96 66.5191V66.5641H94.4078C94.3174 66.3814 91.0722 59.5097 91.0722 59.5097L88.6492 62.9062V66.5645H87.1456V49.6644C87.2771 49.589 88.2943 49.0055 88.6492 48.8055V61.0766L89.4716 59.8001C89.4688 59.8043 93.1584 54.4634 93.6304 53.7825H95.277C94.9267 54.2513 92.0266 58.2435 92.0266 58.2435C92.0266 58.2435 95.624 65.7455 96 66.5191ZM66.0219 66.8328H65.3836C64.0883 66.7579 61.7553 66.1566 61.7553 62.8088C61.7553 59.8347 64.2101 58.7792 66.5094 58.7792C67.6656 58.7792 68.8059 59.0447 69.6329 59.5097L69.8815 59.646V57.8117C69.8815 55.7774 68.8883 54.7472 66.9238 54.7472C65.7128 54.7472 64.6198 55.0511 63.5011 55.6838C63.4004 55.4567 63.0529 54.6873 62.9569 54.47C64.1277 53.8514 65.5737 53.5062 67.047 53.5062C69.9663 53.5062 71.3862 54.8395 71.3862 57.5869V66.5641H69.8815V64.6998L69.5898 65.0234C68.5619 66.1552 67.394 66.7523 66.0219 66.8328ZM55.6848 66.8328H55.0896C53.8454 66.7561 52.8283 66.2156 51.9071 65.1498L51.6149 64.8084V66.5641H50.1141V49.6639C50.241 49.5885 51.2623 49.005 51.6149 48.8051V55.6435L51.9053 55.3246C53.0142 54.101 54.2397 53.5062 55.6497 53.5062C58.4712 53.5062 60.091 55.8571 60.091 59.9602C60.0905 64.0006 58.37 66.6605 55.6848 66.8328ZM63.2285 62.6847C63.2285 64.5968 64.219 65.6481 66.0181 65.6481C67.5499 65.6481 68.9094 64.9246 69.8525 63.6091L69.8815 63.5642V60.7619L69.7973 60.7132C68.8368 60.1658 67.8557 59.9443 66.4096 59.9443C64.4203 59.9448 63.2285 60.9694 63.2285 62.6847ZM76.2934 55.3049C77.0689 54.1459 78.2846 53.5062 79.7077 53.5062C82.5432 53.5062 84.0469 55.3148 84.0469 58.7375V66.5641H82.5385V59.0616C82.5385 56.1502 81.527 54.7973 79.3382 54.7973C77.2407 54.7973 75.9881 56.3928 75.9881 59.0616V66.5641H74.4853V53.7825H75.9881V55.7639L76.2934 55.3049Z" fill="#1C4882"/>
</g>
<rect x="1" y="1" width="110" height="110" rx="9" stroke="#CCCCCC" stroke-width="2"/>
<defs>
<clipPath id="clip0_421_556">
<rect x="2" y="2" width="108" height="108" rx="8" fill="white"/>
</clipPath>
</defs>
</svg>
