<svg width="112" height="112" viewBox="0 0 112 112" fill="none" xmlns="http://www.w3.org/2000/svg">
<g clip-path="url(#clip0_421_545)">
<rect x="2" y="2" width="108" height="108" rx="8" fill="white"/>
<path d="M67.4894 28C63.3761 28 59.4046 28.8509 55.8582 30.4112C52.4542 28.8513 48.4824 28 44.3686 28C28.766 28 16 40.6237 16 56.3688C16 71.9719 28.766 84.738 44.3686 84.738C48.482 84.738 52.4538 83.8871 56.0002 82.3264C59.5462 83.8867 63.3757 84.738 67.6314 84.738C83.2344 84.738 96 71.9719 96 56.3688C95.8584 40.6237 83.2344 28 67.4894 28ZM56.0002 82.0429C41.8155 82.0429 30.3259 70.5532 30.3259 56.3684C30.3259 42.184 41.8155 30.6943 56.0002 30.6943C70.1845 30.6943 81.6741 42.184 81.6741 56.3684C81.6741 70.5536 70.043 82.0429 56.0002 82.0429ZM67.7733 56.3688C67.7772 57.9159 67.4753 59.4486 66.8851 60.8787C66.2948 62.3088 65.4278 63.6082 64.3338 64.7022C63.2398 65.7962 61.9405 66.6632 60.5104 67.2536C59.0803 67.8439 57.5477 68.1458 56.0006 68.142C49.4756 68.142 44.2275 62.8938 44.2275 56.3688C44.2275 49.8438 49.4756 44.596 56.0006 44.596C57.5477 44.5921 59.0803 44.894 60.5104 45.4843C61.9405 46.0745 63.2398 46.9416 64.3338 48.0355C65.4278 49.1295 66.2948 50.4289 66.885 51.859C67.4753 53.2891 67.7772 54.8217 67.7733 56.3688Z" fill="#E60000"/>
</g>
<rect x="1" y="1" width="110" height="110" rx="9" stroke="#CCCCCC" stroke-width="2"/>
<defs>
<clipPath id="clip0_421_545">
<rect x="2" y="2" width="108" height="108" rx="8" fill="white"/>
</clipPath>
</defs>
</svg>
