<svg width="70" height="50" viewBox="0 0 70 50" fill="none" xmlns="http://www.w3.org/2000/svg">
<g clip-path="url(#clip0_206_1543)">
<rect width="70" height="50" rx="4" fill="white"/>
<g clip-path="url(#clip1_206_1543)">
<path d="M28.8848 24.9396C29.2379 25.1363 29.5286 25.4286 29.7234 25.7828C29.9262 26.1444 30.0276 26.5661 30.0276 27.0479C30.0276 27.5297 29.9262 27.9512 29.7234 28.3125C29.5286 28.6668 29.2379 28.959 28.8848 29.1558C28.5221 29.3572 28.1131 29.4606 27.6982 29.4558C27.0537 29.4558 26.5645 29.2533 26.2307 28.8483V29.3873H24.9373V22.936H26.2933V25.2049C26.6354 24.828 27.105 24.6396 27.7019 24.6396C28.1156 24.6353 28.5232 24.7387 28.8848 24.9396ZM28.3194 27.9908C28.5419 27.7563 28.6532 27.442 28.6532 27.0479C28.6532 26.6537 28.5419 26.3393 28.3194 26.1045C28.0969 25.87 27.8115 25.7526 27.4632 25.7523C27.115 25.7521 26.8293 25.8694 26.6062 26.1045C26.3837 26.3393 26.2724 26.6537 26.2724 27.0479C26.2724 27.442 26.3837 27.7563 26.6062 27.9908C26.8288 28.2259 27.1142 28.3433 27.4624 28.343C27.8107 28.3427 28.0963 28.2253 28.3194 27.9908Z" fill="#323232"/>
<path d="M34.4086 25.1569C34.7966 25.5021 34.9913 26.0223 34.9927 26.7174V29.3877H33.7222V28.8036C33.4674 29.2384 32.9922 29.4557 32.2964 29.4557C31.9371 29.4557 31.6256 29.3948 31.3618 29.273C31.1162 29.1666 30.9064 28.9916 30.7577 28.7689C30.6177 28.5514 30.5452 28.2974 30.5491 28.0388C30.5491 27.6041 30.7128 27.2621 31.0402 27.0128C31.3676 26.7636 31.8732 26.6384 32.5572 26.6373H33.6354C33.6354 26.3419 33.5456 26.1145 33.3658 25.9551C33.1862 25.7957 32.9166 25.717 32.5572 25.7189C32.3078 25.7191 32.0599 25.7586 31.8229 25.8362C31.6012 25.9045 31.3936 26.0121 31.2099 26.1537L30.7231 25.2062C31.0026 25.0151 31.3132 24.8739 31.641 24.7889C31.9987 24.6897 32.3683 24.6395 32.7396 24.6396C33.4642 24.6396 34.0205 24.812 34.4086 25.1569ZM33.2523 28.3822C33.4321 28.2746 33.5677 28.1066 33.6349 27.9082V27.4296H32.7045C32.1482 27.4296 31.8701 27.6122 31.8701 27.9774C31.8674 28.0578 31.8847 28.1376 31.9203 28.2097C31.956 28.2818 32.009 28.3439 32.0745 28.3906C32.2105 28.4921 32.3974 28.5427 32.6353 28.5424C32.8519 28.5466 33.0655 28.4912 33.2528 28.3822H33.2523Z" fill="#323232"/>
<path d="M38.1688 24.8136C38.4712 24.6924 38.7948 24.6332 39.1205 24.6396V25.8913C38.97 25.8796 38.8686 25.8738 38.8163 25.8738C38.4269 25.8738 38.1226 25.9824 37.9034 26.1996C37.6842 26.4169 37.5741 26.7434 37.5729 27.1793V29.3873H36.2169V24.7092H37.5103V25.3263C37.6772 25.0969 37.9054 24.9191 38.1688 24.8136Z" fill="#323232"/>
<path d="M44.4407 27.4297H40.9024C40.9588 27.7084 41.1209 27.9546 41.3547 28.1164C41.592 28.2833 41.8876 28.3668 42.2414 28.3668C42.4621 28.3708 42.6816 28.334 42.8889 28.2583C43.0857 28.1805 43.2647 28.0637 43.4151 27.9149L44.1365 28.6972C43.6959 29.2015 43.0526 29.4537 42.2068 29.4537C41.6782 29.4537 41.2116 29.3508 40.8069 29.1449C40.4187 28.9551 40.0929 28.6579 39.8681 28.2887C39.6449 27.9131 39.5306 27.4827 39.5377 27.0458C39.5317 26.6108 39.6445 26.1826 39.8639 25.807C40.0772 25.4428 40.3871 25.1449 40.7593 24.9462C41.148 24.7456 41.5786 24.6398 42.016 24.6375C42.4533 24.6353 42.8851 24.7366 43.2757 24.9333C43.6423 25.126 43.9456 25.4202 44.1494 25.7807C44.3608 26.1487 44.4667 26.5761 44.4669 27.0629C44.4669 27.0818 44.4582 27.2041 44.4407 27.4297ZM41.2676 25.9276C41.0589 26.1014 40.9315 26.339 40.8853 26.6402H43.1889C43.1537 26.3646 43.0173 26.1118 42.8063 25.9309C42.5922 25.7523 42.3202 25.6582 42.0415 25.6659C41.7342 25.6657 41.4762 25.7529 41.2676 25.9276Z" fill="#323232"/>
<path d="M47.3789 27.5519L46.7271 28.1953V29.3861H45.3707V22.936H46.7271V26.5868L48.7091 24.7092H50.3258L48.3786 26.6911L50.4998 29.3861H48.8567L47.3789 27.5519Z" fill="#323232"/>
<path d="M51.3865 29.3122C51.0157 29.2166 50.7202 29.0962 50.4999 28.9513L50.9518 27.9779C51.1866 28.1236 51.4414 28.2341 51.7082 28.3058C51.9907 28.3878 52.2832 28.43 52.5773 28.431C53.1512 28.431 53.4381 28.289 53.4381 28.005C53.4381 27.8721 53.3598 27.7765 53.2032 27.7184C53.0466 27.6602 52.8061 27.611 52.4818 27.5707C52.1617 27.5261 51.845 27.4592 51.5342 27.3704C51.287 27.2964 51.0636 27.1585 50.8867 26.9707C50.7039 26.7796 50.6127 26.5073 50.6129 26.1537C50.6088 25.8703 50.6989 25.5935 50.8691 25.3668C51.0402 25.1382 51.2894 24.96 51.6168 24.8323C51.9442 24.7047 52.331 24.6408 52.7772 24.6408C53.1091 24.641 53.44 24.6775 53.7639 24.7497C54.0913 24.8223 54.3623 24.9223 54.5768 25.0497L54.1249 26.0144C53.7137 25.7828 53.2491 25.6631 52.7772 25.6668C52.4876 25.6668 52.2704 25.7074 52.1254 25.7887C51.9806 25.8699 51.9081 25.9742 51.9081 26.1016C51.9081 26.2465 51.9862 26.3479 52.1426 26.4057C52.2989 26.4636 52.5481 26.5192 52.8903 26.5726C53.2069 26.6219 53.5204 26.6901 53.8291 26.7767C54.0723 26.849 54.2916 26.9857 54.4637 27.1722C54.6434 27.3636 54.7332 27.6302 54.7332 27.9721C54.7367 28.2521 54.6447 28.5248 54.4724 28.7456C54.2986 28.9718 54.0451 29.1472 53.7118 29.2718C53.3786 29.3964 52.983 29.4587 52.5252 29.4587C52.1409 29.4582 51.7583 29.409 51.3865 29.3122Z" fill="#323232"/>
<path d="M59.123 25.1569C59.5124 25.5021 59.7071 26.0223 59.7071 26.7174V29.3877H58.4379V28.8036C58.1831 29.2384 57.708 29.4558 57.0126 29.4558C56.6529 29.4558 56.3414 29.3948 56.0779 29.273C55.8322 29.1667 55.6224 28.9917 55.4738 28.769C55.3338 28.5514 55.2613 28.2974 55.2652 28.0388C55.2652 27.6041 55.4289 27.2621 55.7563 27.0128C56.0837 26.7636 56.5894 26.6384 57.2733 26.6373H58.3511C58.3511 26.3419 58.2612 26.1145 58.0816 25.9551C57.9019 25.7957 57.6324 25.717 57.2733 25.7189C57.0238 25.719 56.7758 25.7586 56.5386 25.8362C56.317 25.9047 56.1094 26.0122 55.9257 26.1537L55.4375 25.2049C55.717 25.0138 56.0276 24.8726 56.3554 24.7877C56.7135 24.6888 57.0834 24.639 57.4548 24.6396C58.1786 24.6396 58.7347 24.812 59.123 25.1569ZM57.9668 28.3822C58.1467 28.2747 58.2823 28.1067 58.3494 27.9082V27.4296H57.4194C56.863 27.4296 56.5849 27.6122 56.5849 27.9774C56.5823 28.0578 56.5996 28.1376 56.6351 28.2096C56.6707 28.2817 56.7236 28.3438 56.7889 28.3906C56.9254 28.4919 57.1119 28.5424 57.3497 28.5424C57.5662 28.5467 57.7797 28.4912 57.9668 28.3822Z" fill="#323232"/>
<path d="M17.1436 23.7028H15.8447V31.3333H17.1436V23.7028Z" fill="#82C341"/>
<path d="M10 24.1902V27.7634C10 28.194 10.171 28.6069 10.4755 28.9114C10.78 29.2159 11.1929 29.3869 11.6235 29.3869H15.1955V25.8153C15.1956 25.602 15.1538 25.3907 15.0722 25.1935C14.9907 24.9963 14.8711 24.8172 14.7203 24.6663C14.5695 24.5153 14.3904 24.3956 14.1933 24.3139C13.9962 24.2322 13.7849 24.1902 13.5716 24.1902H10ZM13.8966 28.0864H11.9481C11.7759 28.0864 11.6108 28.018 11.489 27.8962C11.3673 27.7744 11.2989 27.6093 11.2989 27.4372V25.4891H13.247C13.4192 25.4891 13.5844 25.5574 13.7062 25.6792C13.828 25.8009 13.8965 25.9661 13.8966 26.1383V28.0864Z" fill="#82C341"/>
<path d="M19.4163 24.1902C18.9857 24.1902 18.5728 24.3612 18.2683 24.6657C17.9639 24.9702 17.7928 25.3831 17.7928 25.8137V29.3852H21.3648C21.7951 29.3852 22.2078 29.2144 22.5122 28.9103C22.8166 28.6062 22.9879 28.1937 22.9883 27.7634V24.1918L19.4163 24.1902ZM19.0917 26.1383C19.0918 25.9661 19.1603 25.8009 19.2821 25.6792C19.4039 25.5574 19.5691 25.4891 19.7413 25.4891H21.6894V27.4372C21.6894 27.6093 21.6211 27.7744 21.4993 27.8962C21.3776 28.018 21.2124 28.0864 21.0402 28.0864H19.0917V26.1383Z" fill="#82C341"/>
<path d="M13.9684 20.5256C13.6643 20.83 13.4936 21.2427 13.4936 21.673C13.4936 22.1032 13.6643 22.5159 13.9684 22.8204L16.4939 25.3459L19.0199 22.8204C19.3239 22.5159 19.4947 22.1032 19.4947 21.673C19.4947 21.2427 19.3239 20.83 19.0199 20.5256L16.4939 18L13.9684 20.5256ZM15.1166 22.1328C14.9949 22.011 14.9266 21.8459 14.9266 21.6738C14.9266 21.5017 14.9949 21.3366 15.1166 21.2148L16.4935 19.8379L17.8704 21.2148C17.9921 21.3366 18.0604 21.5017 18.0604 21.6738C18.0604 21.8459 17.9921 22.011 17.8704 22.1328L16.4935 23.5097L15.1166 22.1328Z" fill="#82C341"/>
</g>
</g>
<defs>
<clipPath id="clip0_206_1543">
<rect width="70" height="50" fill="white"/>
</clipPath>
<clipPath id="clip1_206_1543">
<rect width="50" height="13.3333" fill="white" transform="translate(10 18)"/>
</clipPath>
</defs>
</svg>
