<svg width="70" height="50" viewBox="0 0 70 50" fill="none" xmlns="http://www.w3.org/2000/svg">
<g clip-path="url(#clip0_206_1544)">
<rect width="70" height="50" rx="4" fill="white"/>
<g clip-path="url(#clip1_206_1544)">
<path d="M35.6148 23.4551C35.3625 23.1545 35.0418 22.9176 34.6792 22.7641C34.25 22.5899 33.7891 22.5059 33.3255 22.5173C32.9839 22.5066 32.644 22.5706 32.3302 22.7048C32.0542 22.8272 31.8119 23.0134 31.6235 23.2478H31.5339V20.7897C31.5319 20.703 31.5114 20.6176 31.4736 20.5393C31.4359 20.461 31.3818 20.3916 31.3149 20.3356C31.154 20.1931 30.9432 20.1187 30.7277 20.1283C30.5031 20.1191 30.2832 20.193 30.1105 20.3356C30.0468 20.393 29.9961 20.4632 29.9618 20.5415C29.9275 20.6197 29.9103 20.7044 29.9115 20.7897V27.0582C29.908 27.44 29.979 27.8187 30.1205 28.1737C30.2551 28.5156 30.4661 28.8227 30.7376 29.0721C31.0249 29.3352 31.3637 29.5368 31.7329 29.6644C32.1991 29.8123 32.6869 29.8823 33.1762 29.8717C33.6504 29.8835 34.1219 29.7961 34.5597 29.615C34.9385 29.4552 35.2781 29.2161 35.5551 28.9141C35.8159 28.6277 36.0157 28.2919 36.1423 27.9269C36.271 27.5248 36.3348 27.105 36.3314 26.6831V25.8144C36.3342 25.3699 36.2705 24.9274 36.1423 24.5015C36.0384 24.1214 35.859 23.7656 35.6148 23.4551ZM34.6792 26.6831C34.7066 27.1233 34.5643 27.5574 34.281 27.8973C34.147 28.0473 33.981 28.1658 33.7951 28.2444C33.6091 28.3229 33.408 28.3595 33.2061 28.3514C32.7973 28.3657 32.393 28.2629 32.0415 28.0553C31.8844 27.9589 31.7574 27.8211 31.6748 27.6572C31.5922 27.4933 31.5572 27.3098 31.5737 27.1273V25.4886C31.564 25.2847 31.5991 25.0812 31.6764 24.892C31.7537 24.7028 31.8715 24.5326 32.0216 24.3929C32.3038 24.1683 32.6551 24.0463 33.0169 24.0474C33.2338 24.038 33.4502 24.0736 33.6524 24.1518C33.8546 24.2299 34.0382 24.349 34.1914 24.5015C34.513 24.8693 34.6741 25.3486 34.6393 25.8342L34.6792 26.6831Z" fill="#333333"/>
<path d="M38.989 22.5173C38.7645 22.5081 38.5445 22.582 38.3719 22.7246C38.3009 22.7782 38.2426 22.8467 38.2013 22.9252C38.16 23.0037 38.1367 23.0902 38.133 23.1787V29.1807C38.1367 29.2691 38.16 29.3557 38.2013 29.4341C38.2426 29.5126 38.3009 29.5811 38.3719 29.6347C38.5445 29.7774 38.7645 29.8513 38.989 29.8421C39.2045 29.8517 39.4153 29.7773 39.5762 29.6347C39.6431 29.5788 39.6972 29.5093 39.735 29.4311C39.7727 29.3528 39.7933 29.2674 39.7952 29.1807V23.1787C39.7933 23.0919 39.7727 23.0066 39.735 22.9283C39.6972 22.85 39.6431 22.7805 39.5762 22.7246C39.4153 22.5821 39.2045 22.5077 38.989 22.5173Z" fill="#333333"/>
<path d="M38.989 20C38.7645 19.9908 38.5445 20.0647 38.3719 20.2073C38.3003 20.2604 38.2417 20.3288 38.2004 20.4074C38.159 20.486 38.136 20.5728 38.133 20.6614V20.9872C38.136 21.0758 38.159 21.1626 38.2004 21.2411C38.2417 21.3197 38.3003 21.3881 38.3719 21.4413C38.5445 21.5839 38.7645 21.6578 38.989 21.6486C39.2044 21.6571 39.4148 21.5829 39.5762 21.4413C39.6431 21.3853 39.6972 21.3159 39.735 21.2376C39.7727 21.1593 39.7933 21.0739 39.7952 20.9872V20.6515C39.7933 20.5648 39.7727 20.4794 39.735 20.4011C39.6972 20.3228 39.6431 20.2534 39.5762 20.1974C39.4132 20.0594 39.203 19.9887 38.989 20Z" fill="#333333"/>
<path d="M47.529 23.4551C47.2768 23.1545 46.9561 22.9176 46.5934 22.7641C46.1642 22.5899 45.7033 22.5059 45.2397 22.5173C44.8981 22.5066 44.5583 22.5706 44.2444 22.7048C43.9685 22.8272 43.7261 23.0134 43.5377 23.2478H43.4481V20.7897C43.4462 20.703 43.4256 20.6176 43.3879 20.5393C43.3501 20.461 43.296 20.3916 43.2291 20.3356C43.0682 20.1931 42.8574 20.1187 42.6419 20.1283C42.4174 20.1191 42.1974 20.193 42.0248 20.3356C41.9664 20.3956 41.9213 20.4669 41.8921 20.5451C41.863 20.6232 41.8506 20.7065 41.8556 20.7897V27.0582C41.8521 27.44 41.9231 27.8187 42.0646 28.1737C42.1992 28.5156 42.4102 28.8227 42.6817 29.0721C42.9689 29.3352 43.3078 29.5368 43.677 29.6644C44.1432 29.8123 44.6309 29.8823 45.1203 29.8717C45.5945 29.8835 46.066 29.7961 46.5038 29.615C46.8826 29.4552 47.2222 29.2161 47.4991 28.9141C47.76 28.6277 47.9597 28.2919 48.0864 27.9269C48.2151 27.5248 48.2789 27.105 48.2755 26.6831V25.8144C48.2783 25.3699 48.2146 24.9274 48.0864 24.5015C47.9735 24.119 47.7839 23.7631 47.529 23.4551ZM46.5934 26.6831C46.6181 27.1246 46.4722 27.5588 46.1853 27.8973C46.0512 28.0473 45.8852 28.1658 45.6993 28.2444C45.5134 28.3229 45.3122 28.3595 45.1103 28.3514C44.7015 28.3657 44.2972 28.2629 43.9458 28.0553C43.7887 27.9589 43.6617 27.8211 43.5791 27.6572C43.4964 27.4933 43.4614 27.3098 43.478 27.1273V25.4886C43.4683 25.2847 43.5034 25.0812 43.5807 24.892C43.658 24.7028 43.7758 24.5326 43.9259 24.3929C44.2081 24.1683 44.5594 24.0463 44.9212 24.0474C45.1381 24.038 45.3545 24.0736 45.5567 24.1518C45.7589 24.2299 45.9425 24.349 46.0957 24.5015C46.4172 24.8693 46.5783 25.3486 46.5436 25.8342L46.5934 26.6831Z" fill="#333333"/>
<path d="M50.8933 20C50.6688 19.9908 50.4488 20.0647 50.2762 20.2073C50.2046 20.2604 50.146 20.3288 50.1047 20.4074C50.0633 20.486 50.0403 20.5728 50.0373 20.6614V20.9872C50.0403 21.0758 50.0633 21.1626 50.1047 21.2411C50.146 21.3197 50.2046 21.3881 50.2762 21.4413C50.4488 21.5839 50.6688 21.6578 50.8933 21.6486C51.1086 21.6571 51.319 21.5829 51.4805 21.4413C51.5492 21.3862 51.6052 21.3172 51.6447 21.2389C51.6842 21.1605 51.7063 21.0747 51.7094 20.9872V20.6515C51.7075 20.5648 51.687 20.4794 51.6492 20.4011C51.6115 20.3228 51.5573 20.2534 51.4905 20.1974C51.3249 20.057 51.1107 19.9861 50.8933 20Z" fill="#333333"/>
<path d="M50.8933 22.5173C50.6688 22.5081 50.4488 22.582 50.2762 22.7246C50.2051 22.7782 50.1469 22.8467 50.1056 22.9252C50.0643 23.0037 50.041 23.0902 50.0373 23.1787V29.1807C50.041 29.2691 50.0643 29.3557 50.1056 29.4341C50.1469 29.5126 50.2051 29.5811 50.2762 29.6347C50.4488 29.7774 50.6688 29.8513 50.8933 29.8421C51.1088 29.8517 51.3196 29.7773 51.4805 29.6347C51.5474 29.5788 51.6015 29.5093 51.6393 29.4311C51.677 29.3528 51.6975 29.2674 51.6995 29.1807V23.1787C51.6975 23.0919 51.677 23.0066 51.6393 22.9283C51.6015 22.85 51.5474 22.7805 51.4805 22.7246C51.3196 22.5821 51.1088 22.5077 50.8933 22.5173Z" fill="#333333"/>
<path d="M57.8507 28.46C57.7897 28.3967 57.715 28.3478 57.6323 28.317C57.5496 28.2863 57.4609 28.2744 57.3729 28.2823C57.2209 28.2639 57.0671 28.2639 56.9151 28.2823C56.7564 28.3014 56.596 28.3014 56.4373 28.2823C56.3496 28.2883 56.2618 28.2725 56.1819 28.2363C56.1019 28.2001 56.0323 28.1447 55.9795 28.075C55.856 27.8581 55.7908 27.6134 55.7903 27.3643V23.9487H56.8454C56.9251 23.9489 57.004 23.9332 57.0775 23.9027C57.151 23.8722 57.2176 23.8274 57.2734 23.771C57.3371 23.7078 57.3869 23.6322 57.4194 23.5489C57.452 23.4656 57.4667 23.3765 57.4625 23.2873C57.4643 23.2027 57.4485 23.1187 57.4159 23.0406C57.3834 22.9624 57.3348 22.8918 57.2734 22.8332C57.2176 22.7767 57.151 22.7319 57.0775 22.7014C57.004 22.6709 56.9251 22.6553 56.8454 22.6555H55.7903V21.2142V21.2833C55.795 21.2082 55.7769 21.1335 55.7382 21.0687C55.6995 21.004 55.6421 20.9523 55.5734 20.9204C55.5047 20.8885 55.4279 20.8778 55.353 20.8897C55.2781 20.9016 55.2085 20.9355 55.1533 20.9872L53.0631 23.2971C53.0118 23.3513 52.9779 23.4193 52.9656 23.4926C52.9533 23.5659 52.9633 23.6412 52.9942 23.7088C53.0251 23.7765 53.0756 23.8336 53.1393 23.8727C53.2029 23.9119 53.2769 23.9315 53.3518 23.9289H54.1679V27.305C54.0964 28.002 54.2762 28.7015 54.6756 29.2794C54.8855 29.4874 55.1382 29.6481 55.4165 29.7503C55.6948 29.8525 55.9921 29.8939 56.288 29.8717C56.5034 29.8865 56.7196 29.8865 56.935 29.8717C57.1203 29.8476 57.3012 29.7977 57.4725 29.7236C57.619 29.6627 57.7487 29.5679 57.8507 29.4472C57.9476 29.3233 57.997 29.1694 57.99 29.0128C58.0054 28.9161 58.0009 28.8174 57.977 28.7224C57.953 28.6274 57.9101 28.5382 57.8507 28.46Z" fill="#333333"/>
<path d="M20.4557 20.1283L18.9627 22.1027H24.9348V28.0257H12.9907V22.1027H18.9627L17.4697 20.1283H12.9907C12.4627 20.1283 11.9564 20.3363 11.5831 20.7066C11.2097 21.0769 11 21.579 11 22.1027V28.0257C11 28.5493 11.2097 29.0515 11.5831 29.4217C11.9564 29.792 12.4627 30 12.9907 30H24.9348C25.4627 30 25.9691 29.792 26.3424 29.4217C26.7157 29.0515 26.9255 28.5493 26.9255 28.0257V22.1027C26.9255 21.579 26.7157 21.0769 26.3424 20.7066C25.9691 20.3363 25.4627 20.1283 24.9348 20.1283H20.4557Z" fill="#1AA86E"/>
<path d="M16.972 24.077H14.9814V26.0513H16.972V24.077Z" fill="#1AA86E"/>
<path d="M22.9441 24.077H20.9534V26.0513H22.9441V24.077Z" fill="#1AA86E"/>
</g>
</g>
<defs>
<clipPath id="clip0_206_1544">
<rect width="70" height="50" fill="white"/>
</clipPath>
<clipPath id="clip1_206_1544">
<rect width="47" height="10" fill="white" transform="translate(11 20)"/>
</clipPath>
</defs>
</svg>
