<svg width="70" height="50" viewBox="0 0 70 50" fill="none" xmlns="http://www.w3.org/2000/svg">
<g clip-path="url(#clip0_206_1542)">
<rect width="70" height="50" rx="4" fill="white"/>
<g clip-path="url(#clip1_206_1542)">
<path d="M19.9343 20.4696C22.2072 22.7409 22.2072 26.4271 19.9343 28.7C17.6614 30.9732 13.9761 30.9732 11.7036 28.7C9.43137 26.4271 17.6611 18.1967 19.9346 20.4696" fill="#4A98F7"/>
<path d="M11.7036 28.7001C9.43237 26.4272 9.43237 22.7423 11.7036 20.4697C13.9749 18.1968 17.6611 18.1981 19.9343 20.4697" fill="#D2E5FD"/>
<path d="M19.4667 23.2951C20.3895 22.3716 20.5957 21.1304 19.934 20.4703C19.3062 19.8422 17.9863 20.0605 17.1095 20.9379C16.1078 21.9389 15.9523 23.2784 15.8186 24.5846C17.1245 24.4516 18.4657 24.2958 19.4667 23.2951Z" fill="#0070D1"/>
<path d="M12.1712 25.8745C11.2484 26.798 11.0425 28.0389 11.7039 28.6993C12.3314 29.3275 13.6516 29.1088 14.5284 28.2317C15.5291 27.2307 15.685 25.8895 15.818 24.5837C14.5127 24.718 13.1732 24.8739 12.1712 25.8745Z" fill="#A4CBFB"/>
<path d="M34.0242 27.55C33.651 27.55 33.3484 27.2474 33.3484 26.8742V19.4405C33.3484 19.199 33.4771 18.9762 33.6863 18.8556C33.8954 18.7346 34.1529 18.7346 34.3621 18.8556C34.5712 18.9762 34.7 19.199 34.7 19.4405V26.8742C34.7 27.2474 34.3974 27.55 34.0242 27.55ZM38.1467 27.55C36.6778 27.5484 35.4876 26.3582 35.4859 24.8896V22.2954C35.4859 21.9222 35.7886 21.6196 36.1621 21.6196C36.5353 21.6196 36.8379 21.9222 36.8379 22.2954V24.8896C36.8379 25.6124 37.4239 26.1984 38.1467 26.1984C38.8693 26.1984 39.4552 25.6124 39.4552 24.8896V22.2954C39.4552 21.9222 39.7578 21.6196 40.131 21.6196C40.5046 21.6196 40.8072 21.9222 40.8072 22.2954V24.8896C40.8056 26.3582 39.6154 27.5484 38.1467 27.55ZM29.7294 27.55H27.6327C27.2591 27.55 26.9565 27.2474 26.9565 26.8742C26.9565 26.501 27.2591 26.1984 27.6327 26.1984H29.7294C30.6118 26.1863 31.3209 25.4677 31.3209 24.5846C31.3209 23.7023 30.6118 22.9833 29.7294 22.9713C29.3559 22.9713 29.0533 22.6686 29.0533 22.2954C29.0533 21.9222 29.3559 21.6196 29.7294 21.6196C31.3556 21.6356 32.6654 22.9585 32.6654 24.5846C32.6654 26.2111 31.3556 27.534 29.7294 27.55Z" fill="black"/>
<path d="M26.3105 27.55C25.9013 27.5582 25.5739 27.8922 25.5739 28.3016C25.5739 28.7108 25.9013 29.0451 26.3108 29.0533H26.3467C26.6827 29.0526 26.9546 28.7804 26.9552 28.4445V27.55H26.3105ZM26.3464 30.4039H26.3105C25.1588 30.3905 24.232 29.453 24.232 28.3007C24.232 27.1487 25.1588 26.2111 26.3105 26.1974H27.631C28.0042 26.1974 28.3069 26.5 28.3069 26.8732V28.4435C28.3056 29.5258 27.4288 30.4026 26.3464 30.4043V30.4039ZM52.6774 27.55C52.3039 27.55 52.0013 27.2474 52.0013 26.8742V24.2801C52.0013 23.8128 51.752 23.3804 51.3471 23.1467C50.9422 22.9128 50.4431 22.9128 50.0382 23.1467C49.6333 23.3804 49.384 23.8124 49.384 24.2801V26.8742C49.384 27.2474 49.0814 27.55 48.7082 27.55C48.3346 27.55 48.032 27.2474 48.032 26.8742V24.2801C48.032 22.8108 49.2232 21.6196 50.6928 21.6196C52.1621 21.6196 53.3533 22.8108 53.3533 24.2798V26.8742C53.3533 27.2474 53.0507 27.55 52.6774 27.55ZM56.8451 22.9713C56.1925 22.9713 55.6042 23.3644 55.3542 23.9677C55.1046 24.5706 55.2428 25.2647 55.7042 25.7258C56.166 26.1876 56.8601 26.3255 57.4631 26.0755C58.066 25.8258 58.4588 25.2373 58.4588 24.5847C58.4578 23.6938 57.7359 22.9722 56.8451 22.9713ZM56.8451 27.55C55.2075 27.55 53.8797 26.2226 53.8797 24.5847C53.8797 22.9467 55.2075 21.6193 56.8451 21.6193C58.483 21.6193 59.8108 22.9467 59.8108 24.5847C59.8088 26.2219 58.4823 27.5484 56.8451 27.55Z" fill="black"/>
<path d="M56.8451 30.4049C55.8696 30.4046 54.9562 29.9245 54.4029 29.1212C54.1909 28.8141 54.2683 28.3928 54.5755 28.1811C54.883 27.9693 55.3039 28.0464 55.5157 28.3539C55.9163 28.9363 56.6493 29.1905 57.3242 28.9807C57.9993 28.7709 58.4592 28.1464 58.4592 27.4395V24.5856C58.4592 24.2121 58.7618 23.9095 59.135 23.9095C59.5085 23.9095 59.8111 24.2121 59.8111 24.5856V27.4395C59.8092 29.0765 58.4827 30.4033 56.8454 30.4049H56.8451ZM46.6444 27.55C46.2712 27.55 45.9686 27.2474 45.9686 26.8742V24.5846C45.9686 24.2114 46.2712 23.9088 46.6444 23.9088C47.018 23.9088 47.3206 24.2114 47.3206 24.5846V26.8742C47.3206 27.2474 47.018 27.55 46.6444 27.55Z" fill="black"/>
<path d="M44.3471 22.9713C43.6944 22.9713 43.1059 23.3644 42.8562 23.9673C42.6062 24.5703 42.7444 25.2647 43.2059 25.7258C43.6673 26.1876 44.3614 26.3255 44.9644 26.0755C45.5673 25.8258 45.9605 25.2373 45.9605 24.5846C45.9595 23.6941 45.2379 22.9722 44.3471 22.9713ZM44.3471 27.55C43.1477 27.55 42.066 26.8278 41.6072 25.7199C41.148 24.6114 41.4016 23.336 42.25 22.4879C43.098 21.6396 44.3735 21.386 45.4817 21.8448C46.5895 22.3039 47.3124 23.3853 47.3124 24.5846C47.3105 26.2216 45.984 27.548 44.3471 27.55ZM27.631 27.55C27.2578 27.55 26.9552 27.2474 26.9552 26.8742V24.3559C26.9562 22.8448 28.181 21.6196 29.6925 21.6186C30.066 21.6186 30.3686 21.9213 30.3686 22.2945C30.3686 22.668 30.066 22.9706 29.6925 22.9706C28.9275 22.9706 28.3072 23.5909 28.3069 24.3562V26.8745C28.3069 27.2477 28.0043 27.5503 27.631 27.5503" fill="black"/>
</g>
</g>
<defs>
<clipPath id="clip0_206_1542">
<rect width="70" height="50" fill="white"/>
</clipPath>
<clipPath id="clip1_206_1542">
<rect width="50" height="11.7647" fill="white" transform="translate(10 18.7647)"/>
</clipPath>
</defs>
</svg>
