<svg width="113" height="112" viewBox="0 0 113 112" fill="none" xmlns="http://www.w3.org/2000/svg">
<g clip-path="url(#clip0_528_600)">
<rect x="2.5" y="2" width="108" height="108" rx="8" fill="white"/>
<path d="M24.7022 55.5874H27.7652C27.7652 55.5874 27.7848 55.5874 27.7927 55.5953H28.3707C28.469 55.5874 29.3694 55.4656 29.5188 54.5769C29.57 54.227 29.6368 53.7001 29.0391 52.9923C29.0195 52.9727 28.9998 52.9491 28.9841 52.9294L23.3574 47C24.1989 49.194 24.7061 52.2531 24.7061 55.5678V55.5835" fill="#FAA61A"/>
<path d="M30.0143 54.2742C30.0418 54.4118 29.971 55.0055 29.7941 55.3083C29.452 55.8981 28.7875 56.1183 28.3982 56.1419H17.0505C16.559 56.1419 16.3113 56.767 16.6613 57.1327L17.4123 57.923L17.2471 57.577C17.2511 57.3529 17.4123 57.1366 17.6561 57.1327H28.701C29.2121 57.0973 30.2069 56.7356 30.2974 55.615C30.2974 55.5835 30.3013 55.5481 30.3052 55.5127C30.2974 55.0802 30.1991 54.6595 30.0143 54.2624V54.2742Z" fill="#2A9C46"/>
<path d="M30.3092 55.5678C30.3092 55.3908 30.2934 55.2139 30.262 55.037C30.2895 55.1982 30.3052 55.3594 30.3092 55.5206C30.3092 55.556 30.3052 55.5914 30.3013 55.6228C30.2069 56.7395 29.2161 57.1013 28.701 57.1366H17.6561C17.4241 57.1366 17.2471 57.3332 17.2471 57.5967C17.2471 57.8208 17.4123 57.927 17.4123 57.927L21.5448 62.2679C22.5357 63.3099 24.1478 63.3099 25.1386 62.2679L27.95 59.315L29.4795 57.7618C29.7154 57.522 30.0103 57.0423 30.1637 56.5351C30.321 56.016 30.3052 55.5678 30.3052 55.5599" fill="#B72126"/>
<path d="M35.8651 54.4039C36.3408 53.5939 37.0446 53.1929 37.9687 53.1929C39.9464 53.2676 40.9294 54.6241 40.9294 57.2782C40.9294 59.9323 39.7774 61.1866 37.4772 61.2298C35.1612 61.2456 33.9974 60.0778 33.9974 57.7343V51.0853H34.9371C35.5544 51.0853 35.8651 51.4235 35.8651 52.0723V54.4039ZM35.8651 57.1917C35.8493 58.7684 36.3566 59.5666 37.4221 59.5666C38.4877 59.5666 39.0224 58.7723 39.0224 57.1917C38.9792 55.6857 38.4602 54.9505 37.4496 54.9505C36.4391 54.9505 35.9201 55.6897 35.8651 57.1917Z" fill="#B52326"/>
<path d="M41.7748 57.0895C41.8299 54.5691 43.1078 53.3148 45.5928 53.3148H45.8601V55.3515H45.2271C44.189 55.3515 43.67 55.9256 43.67 57.0619V61.1158H41.7748V57.0895Z" fill="#B52326"/>
<path d="M48.5968 52.0447V56.366L50.9009 53.5939H53.1461L50.5785 56.4839L53.1775 61.1158H50.9324L49.6112 58.5482C49.3714 58.1078 49.1355 57.8837 48.8956 57.8837C48.699 57.927 48.6007 58.0607 48.6007 58.2691V61.1158H46.733V51.0853H47.7003C48.1918 51.0853 48.5968 51.5257 48.5968 52.0447Z" fill="#B52326"/>
<path d="M56.85 59.7003C57.6364 59.7003 58.0296 59.4644 58.0296 58.9611C58.0296 58.564 57.3848 58.2376 56.1069 58.0017C54.4633 57.6911 53.6219 56.9243 53.6101 55.7015C53.6101 54.0225 54.8722 53.2243 56.5708 53.1929C57.5263 53.1929 58.2852 53.4131 58.8435 53.8574C59.3901 54.3135 59.685 54.9505 59.7282 55.7605H58.5486C58.1122 55.7447 57.833 55.5835 57.719 55.2729C57.5932 54.9347 57.2118 54.7421 56.5944 54.7421C55.8631 54.7421 55.4974 54.9505 55.4974 55.3476C55.4974 55.7447 55.9771 56.0553 56.9444 56.248C58.2065 56.5115 59.0362 56.8535 59.4412 57.2507C59.7911 57.636 59.9602 58.1078 59.9602 58.6387C59.9602 60.5575 58.529 61.2652 56.563 61.2652C55.5249 61.2652 54.7385 61.0293 54.2313 60.5732C53.669 60.1328 53.3899 59.4526 53.3899 58.5522H55.3008C55.3441 59.4054 55.9339 59.7003 56.8461 59.7003" fill="#2A9C46"/>
<path d="M61.7217 62.4999C62.748 62.4999 63.1097 61.969 62.8148 60.9349L60.2866 53.3108H62.4059L63.8804 58.7212L65.1701 54.0029C65.2841 53.5467 65.579 53.3108 66.0548 53.3108H67.3602L64.4269 62.4409C63.9787 63.7227 63.5304 64.167 61.9852 64.167C61.5094 64.167 61.2538 64.1513 61.1988 64.108V62.4999H61.7217Z" fill="#2A9C46"/>
<path d="M69.4009 55.3476H67.5332C67.7573 53.9006 68.7246 53.1929 70.4389 53.1929C72.4875 53.1929 73.5255 53.9006 73.5688 55.3476V58.0017C73.5688 60.1564 72.3341 61.1119 70.3249 61.2613C68.5437 61.4068 67.3091 60.5378 67.3091 58.8117C67.3523 56.94 68.642 56.4368 70.5215 56.248C71.3236 56.1458 71.7286 55.8941 71.7286 55.4656C71.6854 55.0252 71.2922 54.801 70.5215 54.801C69.8609 54.801 69.4953 54.978 69.4009 55.3476ZM71.7601 57.9152V57.1917C71.3236 57.3844 70.8203 57.5456 70.2738 57.6635C69.5306 57.8129 69.1492 58.1786 69.1492 58.7566C69.1925 59.3779 69.4992 59.6728 70.089 59.6728C71.127 59.6728 71.7601 59.024 71.7601 57.9191" fill="#2A9C46"/>
<path d="M74.4653 57.0895C74.5203 54.5691 75.7982 53.3148 78.2832 53.3148H78.5506V55.3515H77.9175C76.8795 55.3515 76.3605 55.9256 76.3605 57.0619V61.1158H74.4653V57.0895Z" fill="#2A9C46"/>
<path d="M80.6699 51.0853C81.2872 51.0853 81.5821 51.4077 81.5664 52.0447V52.6188H79.6987V51.0853H80.6699ZM80.6699 53.3108C81.2715 53.3108 81.5664 53.6215 81.5664 54.2545V61.1119H79.6987V53.3148H80.666L80.6699 53.3108Z" fill="#2A9C46"/>
<path d="M84.5469 55.3476H82.6792C82.9033 53.9006 83.8706 53.1929 85.5849 53.1929C87.6335 53.1929 88.6715 53.9006 88.7148 55.3476V58.0017C88.7148 60.1564 87.4801 61.1119 85.4709 61.2613C83.6897 61.4068 82.4511 60.5378 82.4511 58.8117C82.4944 56.94 83.784 56.4368 85.6635 56.248C86.4657 56.1458 86.8707 55.8941 86.8707 55.4656C86.8274 55.0252 86.4342 54.801 85.6635 54.801C85.003 54.801 84.6412 54.978 84.5429 55.3476M86.9021 57.9152V57.1917C86.4657 57.3844 85.9624 57.5456 85.4119 57.6635C84.6687 57.8129 84.2873 58.1786 84.2873 58.7566C84.3306 59.3779 84.6373 59.6728 85.2271 59.6728C86.2651 59.6728 86.8982 59.024 86.8982 57.9191" fill="#2A9C46"/>
<path d="M93.0674 54.9505C91.9586 54.9505 91.4829 55.9217 91.4829 57.117V61.1119H89.6152V51.0853H90.5549C91.1722 51.0853 91.4829 51.4235 91.4829 52.0723V54.4039C92.4383 53.2518 93.6022 52.9294 94.9941 53.4445C96.0322 53.8416 96.5237 54.8876 96.4686 56.5862V61.1119H94.6166V57.117C94.6166 55.8037 94.1409 54.9505 93.0714 54.9505" fill="#2A9C46"/>
<path d="M67.604 64.3204C67.6118 64.2181 67.6158 64.0491 67.6158 63.88V62.0359H68.005V62.9953H68.0129C68.1073 62.838 68.2921 62.7279 68.5398 62.7279C68.933 62.7279 69.2279 63.0425 69.2239 63.5222C69.2239 64.0805 68.8465 64.3597 68.4847 64.3597C68.2763 64.3597 68.0797 64.281 67.9618 64.0727H67.9539L67.9382 64.3204H67.604ZM68.009 63.648C68.009 63.6795 68.009 63.7109 68.0168 63.7384C68.0561 63.8957 68.2016 64.0373 68.3982 64.0373C68.6577 64.0373 68.8268 63.8485 68.8268 63.534C68.8268 63.2666 68.6813 63.0385 68.4061 63.0385C68.2331 63.0385 68.0679 63.1565 68.0208 63.3531C68.0129 63.3846 68.009 63.416 68.009 63.4553V63.648Z" fill="#231F20"/>
<path d="M69.8295 63.6598C69.8413 63.9193 70.0654 64.053 70.3288 64.053C70.5215 64.053 70.6552 64.0255 70.7849 63.9744L70.8439 64.2535C70.7063 64.3125 70.5215 64.3597 70.2777 64.3597C69.7666 64.3597 69.4599 64.0412 69.4599 63.5654C69.4599 63.1644 69.7115 62.7279 70.2384 62.7279C70.7653 62.7279 70.9304 63.184 70.9304 63.4986C70.9304 63.5654 70.9226 63.6283 70.9147 63.6559H69.8295V63.6598ZM70.5608 63.3767C70.5608 63.2666 70.5097 63.0032 70.2148 63.0032C69.9553 63.0032 69.8491 63.2233 69.8295 63.3767H70.5647H70.5608Z" fill="#231F20"/>
<path d="M71.2607 63.2863C71.2607 63.0582 71.2607 62.9088 71.2489 62.7672H71.5871L71.5989 63.0818H71.6107C71.6893 62.8419 71.878 62.7279 72.051 62.7279C72.0904 62.7279 72.11 62.7279 72.1454 62.7358V63.1172C72.11 63.1093 72.0746 63.1015 72.0235 63.1015C71.823 63.1015 71.6972 63.2273 71.6618 63.4082C71.6539 63.4435 71.6539 63.4789 71.6539 63.5182V64.3204H71.2646V63.2863H71.2607Z" fill="#231F20"/>
<path d="M72.8296 63.4435H72.8374C72.8728 63.3885 72.9239 63.3216 72.9672 63.2666L73.3682 62.7672H73.8519L73.2464 63.3964L73.9463 64.3204H73.4548L72.9751 63.6323L72.8335 63.7974V64.3243H72.4442V62.0398H72.8335V63.4475L72.8296 63.4435Z" fill="#231F20"/>
<path d="M75.0158 64.3204L74.9882 64.1434H74.9764C74.8821 64.2653 74.713 64.3597 74.5007 64.3597C74.1704 64.3597 74.0052 64.1238 74.0052 63.8957C74.0052 63.5065 74.3394 63.2981 74.9568 63.302V63.2823C74.9568 63.1998 74.9253 63.011 74.6304 63.015C74.4731 63.015 74.3001 63.07 74.194 63.1408L74.1153 62.8773C74.2411 62.7987 74.4417 62.7318 74.6933 62.7318C75.1966 62.7318 75.346 63.0582 75.346 63.4042V63.9429C75.346 64.0923 75.3539 64.2299 75.3696 64.3243H75.0158V64.3204ZM74.9646 63.5654C74.654 63.5615 74.3945 63.6244 74.3945 63.8485C74.3945 63.994 74.4928 64.0687 74.6265 64.0687C74.7995 64.0687 74.9135 63.9547 74.9528 63.8407C74.9607 63.8131 74.9646 63.7817 74.9646 63.7542V63.5654Z" fill="#231F20"/>
<path d="M75.7825 62.0359H76.1717V62.9953H76.1796C76.2307 62.9167 76.2976 62.8498 76.3841 62.8026C76.4627 62.7554 76.561 62.7279 76.6593 62.7279C76.9149 62.7279 77.2255 62.8931 77.2255 63.4278V64.3204H76.8362V63.4829C76.8362 63.2391 76.7458 63.0621 76.5138 63.0621C76.3487 63.0621 76.2347 63.1801 76.1914 63.2902C76.1757 63.3256 76.1757 63.3649 76.1757 63.4082V64.3204H75.7864V62.0359H75.7825Z" fill="#231F20"/>
<path d="M79.7852 63.8525C79.7852 64.0412 79.7892 64.1985 79.797 64.3243H79.4549L79.4353 64.0648H79.4274C79.3645 64.1788 79.2072 64.3636 78.9045 64.3636C78.6371 64.3636 78.3461 64.2103 78.3461 63.6677V62.7751H78.7354V63.5969C78.7354 63.8682 78.8258 64.0373 79.046 64.0373C79.2112 64.0373 79.3252 63.9232 79.3724 63.8092C79.3842 63.7778 79.392 63.7345 79.392 63.6913V62.779H79.7813V63.8603L79.7852 63.8525Z" fill="#231F20"/>
<path d="M80.2295 63.2391C80.2295 63.0582 80.2256 62.9009 80.2178 62.7672H80.5598L80.5795 63.0189H80.5874C80.6503 62.9009 80.8233 62.7318 81.0985 62.7318C81.358 62.7318 81.6726 62.897 81.6726 63.4317V64.3243H81.2833V63.4829C81.2833 63.2391 81.1889 63.0621 80.9648 63.0621C80.7958 63.0621 80.6817 63.188 80.6385 63.3059C80.6267 63.3374 80.6227 63.3846 80.6227 63.4239V64.3204H80.2335V63.2391H80.2295Z" fill="#231F20"/>
<path d="M82.5573 62.3151V62.7712H82.9348V63.0779H82.5573V63.7227C82.5573 63.9114 82.5966 64.0255 82.7617 64.0255C82.8325 64.0255 82.8876 64.0176 82.923 64.0058L82.9308 64.3164C82.8718 64.34 82.7657 64.3597 82.6399 64.3597C82.4904 64.3597 82.3685 64.3046 82.2978 64.2221C82.2152 64.1277 82.1759 63.9744 82.1759 63.7817V63.0779H81.9518V62.7712H82.1759V62.4134L82.5573 62.319V62.3151Z" fill="#231F20"/>
<path d="M84.6884 63.8525C84.6884 64.0412 84.6923 64.1985 84.7002 64.3243H84.3581L84.3424 64.0648H84.3345C84.2716 64.1788 84.1143 64.3636 83.8116 64.3636C83.5442 64.3636 83.2532 64.2103 83.2532 63.6677V62.7751H83.6425V63.5969C83.6425 63.8682 83.7329 64.0373 83.9531 64.0373C84.1183 64.0373 84.2323 63.9232 84.2795 63.8092C84.2913 63.7778 84.2991 63.7345 84.2991 63.6913V62.779H84.6884V63.8603V63.8525Z" fill="#231F20"/>
<path d="M85.5259 63.4435H85.5338C85.5731 63.3885 85.6203 63.3216 85.6635 63.2666L86.0646 62.7672H86.5482L85.9427 63.3964L86.6426 64.3204H86.1511L85.6714 63.6323L85.5298 63.7974V64.3243H85.1406V62.0398H85.5298V63.4475L85.5259 63.4435Z" fill="#231F20"/>
<path d="M87.484 63.9468C87.5745 64.0058 87.7553 64.0727 87.9008 64.0727C88.0817 64.0727 88.1564 63.9979 88.1564 63.8996C88.1564 63.7935 88.0896 63.7424 87.893 63.6834C87.5823 63.589 87.4447 63.4199 87.4487 63.2273C87.4487 62.952 87.6767 62.7318 88.0463 62.7318C88.2233 62.7318 88.3805 62.7751 88.4749 62.8301L88.4002 63.1133C88.3373 63.0779 88.1997 63.015 88.0502 63.015C87.9087 63.015 87.8301 63.0818 87.8301 63.1801C87.8301 63.2784 87.9126 63.3295 88.1132 63.3924C88.4081 63.4868 88.5378 63.6244 88.5378 63.8682C88.5378 64.1395 88.3294 64.3597 87.9008 64.3597C87.7003 64.3597 87.5273 64.3125 87.4054 64.2457L87.484 63.9468Z" fill="#231F20"/>
<path d="M89.1512 63.6598C89.163 63.9193 89.3871 64.053 89.6506 64.053C89.8432 64.053 89.9769 64.0255 90.1067 63.9744L90.1657 64.2535C90.028 64.3125 89.8432 64.3597 89.5994 64.3597C89.0883 64.3597 88.7816 64.0412 88.7816 63.5654C88.7816 63.1644 89.0332 62.7279 89.5641 62.7279C90.0949 62.7279 90.2561 63.184 90.2561 63.4986C90.2561 63.5654 90.2482 63.6283 90.2404 63.6559H89.1512V63.6598ZM89.8826 63.3767C89.8826 63.2666 89.8314 63.0032 89.5365 63.0032C89.277 63.0032 89.1709 63.2233 89.1512 63.3767H89.8865H89.8826Z" fill="#231F20"/>
<path d="M90.5864 63.2391C90.5864 63.0582 90.5824 62.9009 90.5746 62.7672H90.9049L90.9206 63.011H90.9324C91.0032 62.8891 91.1447 62.7318 91.4239 62.7318C91.6323 62.7318 91.7974 62.8577 91.8643 63.0385H91.8721C91.9272 62.9481 91.994 62.8813 92.0648 62.8341C92.1552 62.7672 92.2575 62.7318 92.3951 62.7318C92.6428 62.7318 92.9298 62.9009 92.9298 63.4396V64.3243H92.5524V63.4947C92.5524 63.2116 92.4462 63.0661 92.2575 63.0661C92.1159 63.0661 92.0137 63.1722 91.9704 63.2823C91.9547 63.3216 91.9508 63.3728 91.9508 63.416V64.3282H91.5733V63.4632C91.5733 63.2194 91.4671 63.07 91.2902 63.07C91.129 63.07 91.0307 63.2037 90.9914 63.302C90.9756 63.3452 90.9717 63.3924 90.9717 63.4357V64.3322H90.5942V63.2509L90.5864 63.2391Z" fill="#231F20"/>
<path d="M94.8015 63.8525C94.8015 64.0412 94.8054 64.1985 94.8132 64.3243H94.4712L94.4515 64.0648H94.4436C94.3807 64.1788 94.2235 64.3636 93.9207 64.3636C93.6533 64.3636 93.3624 64.2103 93.3624 63.6677V62.7751H93.7516V63.5969C93.7516 63.8682 93.842 64.0373 94.0622 64.0373C94.2274 64.0373 94.3414 63.9232 94.3886 63.8092C94.4004 63.7778 94.4083 63.7345 94.4083 63.6913V62.779H94.7975V63.8603L94.8015 63.8525Z" fill="#231F20"/>
<path d="M96.1462 64.3204L96.1187 64.1434H96.1069C96.0125 64.2653 95.8434 64.3597 95.6311 64.3597C95.3008 64.3597 95.1357 64.1238 95.1357 63.8957C95.1357 63.5065 95.4699 63.2981 96.0872 63.302V63.2823C96.0872 63.1998 96.0558 63.011 95.7609 63.015C95.6036 63.015 95.4306 63.07 95.3205 63.1408L95.2418 62.8773C95.3677 62.7987 95.5682 62.7318 95.8198 62.7318C96.3231 62.7318 96.4725 63.0582 96.4725 63.4042V63.9429C96.4725 64.0923 96.4804 64.2299 96.4961 64.3243H96.1423L96.1462 64.3204ZM96.0951 63.5654C95.7844 63.5615 95.5249 63.6244 95.5249 63.8485C95.5249 63.994 95.6232 64.0687 95.7569 64.0687C95.9299 64.0687 96.044 63.9547 96.0833 63.8407C96.0911 63.8131 96.0951 63.7817 96.0951 63.7542V63.5654Z" fill="#231F20"/>
</g>
<rect x="1.5" y="1" width="110" height="110" rx="9" stroke="#CCCCCC" stroke-width="2"/>
<defs>
<clipPath id="clip0_528_600">
<rect x="2.5" y="2" width="108" height="108" rx="8" fill="white"/>
</clipPath>
</defs>
</svg>
