<svg width="113" height="112" viewBox="0 0 113 112" fill="none" xmlns="http://www.w3.org/2000/svg">
<g clip-path="url(#clip0_421_550)">
<rect x="2.5" y="2" width="108" height="108" rx="8" fill="white"/>
<g clip-path="url(#clip1_421_550)">
<path fill-rule="evenodd" clip-rule="evenodd" d="M50.7475 57.5254L50.7045 57.5582L49.7746 58.3954C48.8808 59.0915 48.3057 59.6621 47.2706 60.3853C46.1644 61.1593 45.2955 61.8327 44.056 62.5231L42.239 63.4316C40.8582 64.0757 38.2819 65.0169 36.4311 64.157C34.8865 63.4406 34.7565 61.9084 34.7475 60.4361C34.7441 59.8011 34.9057 59.3536 34.9509 58.8203C34.5599 59.0858 33.8853 62.3954 33.848 62.7672C33.6141 65.0904 34.0718 66.9717 35.8017 68.1695C37.2616 69.1819 39.2469 69.2113 40.9599 69.0203C41.3407 68.9785 41.6763 68.9231 42.0492 68.8486C43.961 68.4655 45.8085 67.7163 47.474 66.8497C47.6232 66.7717 47.6932 66.7141 47.8593 66.6293C48.4153 66.348 48.5543 66.2327 49.0729 65.9243C49.5588 65.635 50.7859 64.7943 51.2492 64.4135L53.5565 62.3785C53.8175 62.0621 54.2096 61.7288 54.5271 61.3774L54.8853 60.9762L55.9859 59.6067C56.1803 59.3582 56.3384 59.1186 56.5125 58.8712C57.2639 57.8056 57.4062 57.6045 58.048 56.5186L58.9599 54.8565C59.1136 54.5514 59.2096 54.296 59.3565 53.9898C59.4932 53.7039 59.6334 53.3841 59.7362 53.1073C60.8887 50.0034 61.6989 45.7593 58.9995 43.1536C58.3972 42.5717 57.1927 42.0745 56.3079 42.0079L56.2808 42.0056H54.8322C53.4469 42.1062 52.1396 42.487 50.8706 43.0293C50.2718 43.2847 49.6944 43.548 49.1373 43.8723C48.7848 44.0768 47.6966 44.5977 47.5238 44.8339C47.7045 44.7785 47.7045 44.7864 47.8627 44.7186C49.7757 43.8926 53.1938 42.8994 55.0322 43.9909C55.4435 44.235 55.7396 44.4949 55.9735 44.9175C56.8944 46.5796 56.2639 49.2079 55.4684 50.9096C55.3644 51.1333 55.2932 51.3367 55.1983 51.5491C54.8006 52.4508 53.7147 54.1536 53.0492 55.0045C52.9712 55.1039 52.9339 55.1649 52.856 55.2655L51.7531 56.5356C51.4786 56.8079 51.0932 57.2474 50.8141 57.4576L50.7475 57.5254Z" fill="#6579B3"/>
<path d="M16.5 49.3988H19.7949C20.4492 49.3988 20.935 49.4248 21.2548 49.479C21.5768 49.5344 21.8627 49.6474 22.1158 49.818C22.3689 49.9909 22.5802 50.2191 22.7497 50.505C22.9181 50.7909 23.0028 51.1129 23.0028 51.4677C23.0028 51.8519 22.8989 52.2067 22.6921 52.5265C22.4842 52.8485 22.2028 53.0892 21.848 53.2497C22.3486 53.3977 22.7316 53.6474 23.0028 53.9999C23.2706 54.3525 23.4051 54.7672 23.4051 55.2451C23.4051 55.6203 23.3192 55.9852 23.1441 56.34C22.9701 56.6948 22.7316 56.9785 22.4288 57.192C22.1282 57.4022 21.7554 57.5333 21.3124 57.583C21.0367 57.6112 20.3667 57.6304 19.3056 57.6384H16.5V49.3988ZM18.1689 50.7683V52.6666H19.2582C19.9045 52.6666 20.3079 52.6576 20.465 52.6384C20.7486 52.6056 20.9734 52.5073 21.1362 52.3446C21.2989 52.1819 21.3791 51.9683 21.3791 51.7039C21.3791 51.4485 21.309 51.244 21.1689 51.0847C21.0288 50.9254 20.8198 50.8293 20.5429 50.7965C20.378 50.7773 19.9045 50.7683 19.1237 50.7683H18.1689ZM18.1689 54.0361V56.2463H19.7113C20.309 56.2463 20.691 56.2293 20.8525 56.1965C21.1 56.1502 21.3011 56.0406 21.4559 55.8666C21.6119 55.6892 21.691 55.4576 21.691 55.1638C21.691 54.9152 21.6311 54.7061 21.5102 54.5333C21.3915 54.3604 21.2164 54.2338 20.9904 54.1547C20.7644 54.0768 20.2706 54.0361 19.5136 54.0361H18.1689Z" fill="#332C2B"/>
<path d="M25.9734 53.5073L24.5463 53.2542C24.7079 52.6711 24.9859 52.2395 25.3791 51.9593C25.7723 51.6791 26.3576 51.5389 27.1316 51.5389C27.8356 51.5389 28.3621 51.6214 28.7068 51.7887C29.0503 51.9548 29.2943 52.1661 29.4333 52.4237C29.5734 52.6802 29.6446 53.1502 29.6446 53.8372L29.622 55.6779C29.622 56.2022 29.6469 56.5898 29.6966 56.8384C29.7463 57.0881 29.8401 57.3548 29.9791 57.6384H28.413C28.3734 57.5356 28.3215 57.3819 28.2616 57.1785C28.2367 57.0847 28.2175 57.0226 28.2062 56.9943C27.9373 57.2587 27.6503 57.4565 27.3429 57.5887C27.0367 57.7209 26.7102 57.7887 26.3633 57.7887C25.7508 57.7887 25.2672 57.6214 24.9147 57.2881C24.5621 56.9559 24.3859 56.5333 24.3859 56.0237C24.3859 55.6881 24.4661 55.3864 24.6265 55.122C24.7881 54.8587 25.013 54.6565 25.3045 54.5163C25.5938 54.3762 26.0119 54.2531 26.5587 54.148C27.2955 54.0101 27.8073 53.8791 28.0909 53.7604V53.6011C28.0909 53.2937 28.0164 53.0757 27.8672 52.9435C27.7147 52.8124 27.4311 52.7468 27.0152 52.7468C26.7328 52.7468 26.5147 52.8033 26.3576 52.9163C26.1983 53.0271 26.0717 53.2248 25.9734 53.5073ZM28.0909 54.7841C27.8898 54.8519 27.5689 54.9322 27.1305 55.0259C26.6932 55.1197 26.4051 55.2124 26.2706 55.3005C26.0661 55.4485 25.9621 55.6327 25.9621 55.8565C25.9621 56.0791 26.0446 56.2689 26.2096 56.4305C26.3746 56.5909 26.5836 56.6723 26.839 56.6723C27.1226 56.6723 27.3949 56.5774 27.6537 56.392C27.8435 56.2474 27.97 56.0757 28.0299 55.8678C28.0695 55.7344 28.0909 55.4768 28.0909 55.0994V54.7841Z" fill="#332C2B"/>
<path d="M36.6322 57.6384H35.0559V54.5943C35.0559 53.9502 35.0209 53.5344 34.9543 53.3457C34.8853 53.1559 34.7757 53.0101 34.622 52.905C34.4684 52.7988 34.2842 52.7468 34.0695 52.7468C33.7938 52.7468 33.5463 52.8226 33.3283 52.9717C33.1068 53.1209 32.9576 53.3209 32.8774 53.5661C32.7949 53.8135 32.7543 54.27 32.7543 54.9378V57.6384H31.178V51.6655H32.639V52.5423C33.1622 51.8723 33.8209 51.5389 34.6164 51.5389C34.9655 51.5389 35.2865 51.6022 35.5757 51.7265C35.8672 51.8531 36.0853 52.0124 36.2333 52.2067C36.3836 52.4022 36.4865 52.6226 36.5441 52.87C36.604 53.1175 36.6322 53.47 36.6322 53.931V57.6384Z" fill="#332C2B"/>
<path d="M38.1724 57.6384V49.3988H39.7498V53.7694L41.5961 51.6655H43.5419L41.5046 53.8485L43.691 57.6384H41.9882L40.4808 54.9434L39.7498 55.7265V57.6384H38.1724Z" fill="#332C2B"/>
<path d="M62.3124 57.6384V49.3988H63.9282L67.3192 54.9208V49.3988H68.8615V57.6384H67.1949L63.8548 52.2214V57.6384H62.3124Z" fill="#332C2B"/>
<path d="M71.7859 53.5073L70.3599 53.2542C70.5204 52.6711 70.7984 52.2395 71.1916 51.9593C71.5848 51.6791 72.1701 51.5389 72.9453 51.5389C73.6492 51.5389 74.1746 51.6214 74.5193 51.7887C74.8628 51.9548 75.1068 52.1661 75.2469 52.4237C75.3871 52.6802 75.4583 53.1502 75.4583 53.8372L75.4345 55.6779C75.4345 56.2022 75.4594 56.5898 75.5091 56.8384C75.5599 57.0881 75.6537 57.3548 75.7916 57.6384H74.2266C74.1859 57.5356 74.134 57.3819 74.0752 57.1785C74.0503 57.0847 74.0311 57.0226 74.0187 56.9943C73.7509 57.2587 73.4628 57.4565 73.1566 57.5887C72.8492 57.7209 72.5227 57.7887 72.1758 57.7887C71.5645 57.7887 71.0808 57.6214 70.7272 57.2881C70.3746 56.9559 70.1984 56.5333 70.1984 56.0237C70.1984 55.6881 70.2786 55.3864 70.4402 55.122C70.6006 54.8587 70.8255 54.6565 71.117 54.5163C71.4063 54.3762 71.8244 54.2531 72.3712 54.148C73.108 54.0101 73.6198 53.8791 73.9046 53.7604V53.6011C73.9046 53.2937 73.8289 53.0757 73.6797 52.9435C73.5283 52.8124 73.2447 52.7468 72.8277 52.7468C72.5464 52.7468 72.3272 52.8033 72.1701 52.9163C72.0108 53.0271 71.8842 53.2248 71.7859 53.5073ZM73.9046 54.7841C73.7023 54.8519 73.3825 54.9322 72.943 55.0259C72.5057 55.1197 72.2176 55.2124 72.0842 55.3005C71.8786 55.4485 71.7746 55.6327 71.7746 55.8565C71.7746 56.0791 71.8571 56.2689 72.0221 56.4305C72.1871 56.5909 72.3961 56.6723 72.6515 56.6723C72.9351 56.6723 73.2074 56.5774 73.4673 56.392C73.6571 56.2474 73.7837 56.0757 73.8424 55.8678C73.8831 55.7344 73.9046 55.4768 73.9046 55.0994V54.7841Z" fill="#332C2B"/>
<path d="M76.8639 58.018L78.6707 58.2372C78.7012 58.4497 78.7701 58.5954 78.8774 58.6768C79.0289 58.7898 79.265 58.8474 79.587 58.8474C79.9995 58.8474 80.3091 58.7853 80.5159 58.661C80.6537 58.5785 80.7599 58.4463 80.83 58.2621C80.8786 58.131 80.9034 57.8881 80.9034 57.5367L80.9113 56.6644C80.4356 57.3141 79.8368 57.6384 79.1159 57.6384C78.3136 57.6384 77.6774 57.2994 77.2085 56.6214C76.8413 56.087 76.6571 55.4192 76.6571 54.6237C76.6571 53.6226 76.8978 52.8587 77.3803 52.331C77.8616 51.8033 78.4616 51.5389 79.1791 51.5389C79.917 51.5389 80.5272 51.8632 81.0074 52.5118V51.6655H82.4797V57.0214C82.4797 57.7254 82.4221 58.2519 82.3057 58.6C82.1904 58.9491 82.0277 59.2214 81.8164 59.4203C81.6074 59.618 81.3272 59.7751 80.9757 59.887C80.6255 60 80.1825 60.0553 79.6469 60.0553C78.6345 60.0553 77.917 59.8813 77.4933 59.5333C77.0695 59.1841 76.8582 58.7457 76.8582 58.2101C76.8582 58.1581 76.8594 58.0937 76.8639 58.018ZM78.2797 54.531C78.2797 55.1638 78.4017 55.6259 78.6458 55.9197C78.891 56.2135 79.1938 56.3615 79.5532 56.3615C79.9362 56.3615 80.2628 56.2101 80.5272 55.9084C80.7938 55.6067 80.926 55.1627 80.926 54.5717C80.926 53.9536 80.7995 53.496 80.5441 53.1966C80.291 52.8971 79.969 52.7468 79.5803 52.7468C79.2017 52.7468 78.891 52.8949 78.6458 53.1887C78.4017 53.4824 78.2797 53.9288 78.2797 54.531Z" fill="#332C2B"/>
<path d="M85.2175 53.5073L83.7904 53.2542C83.9508 52.6711 84.2288 52.2395 84.622 51.9593C85.0152 51.6791 85.6005 51.5389 86.3757 51.5389C87.0796 51.5389 87.6051 51.6214 87.9508 51.7887C88.2943 51.9548 88.5373 52.1661 88.6774 52.4237C88.8175 52.6802 88.8887 53.1502 88.8887 53.8372L88.8649 55.6779C88.8649 56.2022 88.8898 56.5898 88.9395 56.8384C88.9904 57.0881 89.0842 57.3548 89.222 57.6384H87.657C87.6164 57.5356 87.5644 57.3819 87.5056 57.1785C87.4808 57.0847 87.4615 57.0226 87.4502 56.9943C87.1813 57.2587 86.8932 57.4565 86.587 57.5887C86.2796 57.7209 85.9542 57.7887 85.6062 57.7887C84.9949 57.7887 84.5113 57.6214 84.1587 57.2881C83.8051 56.9559 83.6288 56.5333 83.6288 56.0237C83.6288 55.6881 83.709 55.3864 83.8706 55.122C84.0322 54.8587 84.2559 54.6565 84.5474 54.5163C84.8367 54.3762 85.2559 54.2531 85.8017 54.148C86.5384 54.0101 87.0503 53.8791 87.335 53.7604V53.6011C87.335 53.2937 87.2604 53.0757 87.1101 52.9435C86.9587 52.8124 86.6751 52.7468 86.2582 52.7468C85.9768 52.7468 85.7576 52.8033 85.6005 52.9163C85.4412 53.0271 85.3147 53.2248 85.2175 53.5073ZM87.335 54.7841C87.1339 54.8519 86.813 54.9322 86.3734 55.0259C85.9361 55.1197 85.6491 55.2124 85.5147 55.3005C85.309 55.4485 85.205 55.6327 85.205 55.8565C85.205 56.0791 85.2875 56.2689 85.4525 56.4305C85.6175 56.5909 85.8265 56.6723 86.0819 56.6723C86.3655 56.6723 86.639 56.5774 86.8977 56.392C87.0875 56.2474 87.2141 56.0757 87.2729 55.8678C87.3135 55.7344 87.335 55.4768 87.335 55.0994V54.7841Z" fill="#332C2B"/>
<path d="M91.9519 57.6384H90.3745V51.6655H91.8367V52.513C92.0875 52.113 92.3146 51.8497 92.5158 51.7254C92.7169 51.6 92.9451 51.5389 93.2005 51.5389C93.561 51.5389 93.9078 51.6384 94.2423 51.8361L93.753 53.2135C93.4864 53.0406 93.2389 52.9548 93.0107 52.9548C92.7881 52.9548 92.5994 53.0158 92.4468 53.1367C92.2932 53.2598 92.1723 53.4779 92.0841 53.7966C91.996 54.1152 91.9519 54.783 91.9519 55.7966V57.6384Z" fill="#332C2B"/>
<path d="M94.9226 50.8598V49.3988H96.5V50.8598H94.9226ZM94.9226 57.6384V51.6655H96.5V57.6384H94.9226Z" fill="#332C2B"/>
<path fill-rule="evenodd" clip-rule="evenodd" d="M50.6672 53.4813L50.7621 57.4745L46.5181 57.3717L50.6672 53.4813Z" fill="#E62129"/>
<path fill-rule="evenodd" clip-rule="evenodd" d="M50.7622 57.4745H54.8051V61.34H50.7622V57.4745Z" fill="#FFF000"/>
<path fill-rule="evenodd" clip-rule="evenodd" d="M58.987 61.5299L54.8164 61.3582L54.8503 65.6022L58.987 61.5299Z" fill="#332C2B"/>
</g>
</g>
<rect x="1.5" y="1" width="110" height="110" rx="9" stroke="#CCCCCC" stroke-width="2"/>
<defs>
<clipPath id="clip0_421_550">
<rect x="2.5" y="2" width="108" height="108" rx="8" fill="white"/>
</clipPath>
<clipPath id="clip1_421_550">
<rect width="80" height="27.1186" fill="white" transform="translate(16.5 42)"/>
</clipPath>
</defs>
</svg>
