<svg width="113" height="112" viewBox="0 0 113 112" fill="none" xmlns="http://www.w3.org/2000/svg">
<g clip-path="url(#clip0_528_598)">
<rect x="2.5" y="2" width="108" height="108" rx="8" fill="white"/>
<path fill-rule="evenodd" clip-rule="evenodd" d="M16.5 63.0636C16.9189 63.1416 17.574 63.1943 18.3331 63.1943C19.5252 63.1943 20.4937 62.9849 21.1882 62.4613C21.7638 62.029 22.2488 61.3219 22.2488 60.418C22.2614 59.3573 21.5937 58.6896 20.7953 58.4542V58.4282C21.8031 58.166 22.7071 57.3408 22.7071 56.2282C22.7071 55.6518 22.4709 55.1802 22.0654 54.8534C21.5937 54.4337 20.9394 54.2376 20.0354 54.2376C19.315 54.2376 18.674 54.3164 18.137 54.4211L16.5 63.0636ZM19.0795 55.1935C19.2496 55.1408 19.5772 55.1022 19.9835 55.1022C20.9394 55.1022 21.5811 55.4684 21.5811 56.3195C21.5811 57.3935 20.5984 58.0479 19.3417 58.0479H18.5299L19.0795 55.1935ZM18.3598 58.8731H19.237C20.2323 58.8731 21.1094 59.3313 21.1094 60.366C21.1094 61.7802 19.9047 62.3172 18.6213 62.3038C18.3205 62.3038 17.9929 62.2904 17.7181 62.2518L18.3598 58.8731ZM28.4551 63.129C28.4291 62.4219 28.5205 61.2959 28.7307 60.1959L29.3717 56.8959C28.9402 56.7518 28.2724 56.6471 27.6693 56.6471C24.9063 56.6471 23.2827 58.9778 23.2827 61.1778C23.2827 62.3825 23.9898 63.2731 25.1031 63.2731C26.0063 63.2731 26.8709 62.8014 27.5646 61.492H27.5913C27.5126 62.1471 27.4472 62.7495 27.4472 63.129H28.4551ZM27.7874 59.5148C27.4732 61.2038 26.3992 62.3825 25.4961 62.3825C24.6583 62.3825 24.4094 61.6888 24.4094 60.981C24.422 59.2266 25.7583 57.5109 27.3945 57.5109C27.7614 57.5109 27.9969 57.5636 28.1543 57.603L27.7874 59.5148ZM31.1661 63.129L31.7417 60.0518C32.0299 58.4802 33.1299 57.5502 33.9024 57.5502C34.6488 57.5502 34.8976 58.0219 34.8976 58.6636C34.8976 58.9258 34.8583 59.2266 34.8063 59.4754L34.1126 63.129H35.1992L35.9063 59.4361C35.9717 59.0959 36.0236 58.6896 36.0236 58.4148C36.0236 57.0794 35.1732 56.6471 34.4134 56.6471C33.4835 56.6471 32.6323 57.1447 32.0693 58.0353H32.0433L32.2008 56.7912H31.2315C31.1528 57.3148 31.074 57.9306 30.9299 58.6376L30.0787 63.129H31.1661ZM38.1583 63.129L38.6165 60.7085L39.4157 59.9865L40.9346 63.129H42.1394L40.2402 59.3841L43.0031 56.7912H41.6677L39.4283 59.0061C39.2717 59.1896 39.0354 59.4235 38.8394 59.6455H38.8134L39.926 53.8313H38.8394L37.0843 63.129H38.1583Z" fill="#095491"/>
<path fill-rule="evenodd" clip-rule="evenodd" d="M55.6724 62.6558C56.0709 62.9676 56.9047 63.2668 58.0756 63.2928C59.9433 63.2928 61.4866 62.2794 61.4866 60.3298C61.4866 59.2904 60.8394 58.5762 59.8189 58.0172C59.1087 57.6014 58.5984 57.2896 58.5984 56.7825C58.5984 56.3022 59.0339 55.8605 59.8685 55.8605C60.5654 55.8471 61.163 56.0943 61.437 56.2502L61.9976 54.7038C61.6362 54.4825 61.0386 54.2487 60.0181 54.2487C58.1874 54.2487 56.7055 55.3274 56.7055 57.0943C56.7055 58.2384 57.5528 58.914 58.4488 59.4203C59.2205 59.8361 59.5819 60.1613 59.5819 60.655C59.5819 61.3439 58.9472 61.6817 58.2496 61.6817C57.478 61.6817 56.7677 61.4345 56.2701 61.1227L55.6724 62.6558ZM67.0008 56.7959L66.463 59.7321C66.2268 61.0061 65.6039 61.7723 64.9961 61.7723C64.5354 61.7723 64.3882 61.4479 64.3882 61.0321C64.3882 60.7975 64.4252 60.4865 64.4756 60.1998L65.0835 56.7959H63.2921L62.6575 60.3432C62.5701 60.7849 62.5331 61.1621 62.5331 61.5124C62.5331 62.7211 63.1181 63.2928 64.089 63.2928C64.822 63.2928 65.5693 62.9424 66.1898 62.1101H66.2142L66.1024 63.1495H67.6858C67.7732 62.5778 67.8598 61.8896 68.0094 61.0841L68.7937 56.7959H67.0008ZM70.9496 63.1495L72.6433 53.9243H70.8504L69.1567 63.1495H70.9496ZM74.0504 55.5998L73.826 56.7959H73.0417L72.7929 58.2117H73.5646L73.0913 60.7329C73.0047 61.2266 72.9669 61.5644 72.9669 61.9156C72.9669 62.7077 73.478 63.2928 74.548 63.2928C74.9346 63.2928 75.3827 63.2408 75.6071 63.1495L75.8181 61.6817C75.6567 61.7077 75.4819 61.7077 75.3205 61.7077C74.9346 61.7077 74.8102 61.4865 74.8102 61.1747C74.8102 60.9542 74.8598 60.6156 74.9094 60.3691L75.3205 58.2117H76.615L76.8772 56.7959H75.5819L75.8929 55.0676L74.0504 55.5998ZM81.6953 61.4345C81.2102 61.6817 80.6496 61.8376 79.9898 61.8376C79.4669 61.8376 79.0559 61.6684 78.8189 61.3439C78.6945 61.1621 78.6323 60.8762 78.6323 60.6935C81.0724 60.7589 82.5795 60.1739 82.5795 58.5502C82.5795 57.3676 81.6953 56.6526 80.463 56.6526C78.2591 56.6526 76.9142 58.6668 76.9142 60.603C76.9142 62.2534 77.811 63.2928 79.5535 63.2928C80.226 63.2928 81.1102 63.1628 81.8197 62.7857L81.6953 61.4345ZM80.8984 58.5628C80.8984 59.1345 80.2016 59.3424 78.8063 59.3298C78.9315 58.7321 79.4039 58.0172 80.2386 58.0172C80.6496 58.0172 80.8984 58.2384 80.8984 58.5502V58.5628ZM84.7583 63.1495L85.2685 60.3298C85.5181 58.9266 86.2024 58.1597 86.7882 58.1597C87.2362 58.1597 87.3858 58.4723 87.3858 58.914C87.3858 59.1479 87.3606 59.4077 87.3236 59.6282L86.6882 63.1495H88.4811L89.1535 59.4597C89.2032 59.1479 89.2535 58.6668 89.2535 58.3809C89.2535 57.2896 88.6929 56.6526 87.6969 56.6526C86.8874 56.6526 86.1283 57.0164 85.5551 57.8479H85.5307L85.6551 56.7959H84.0614C83.9866 57.3542 83.8866 58.0558 83.737 58.8621L82.9654 63.1495H84.7583ZM89.963 65.4628C90.374 65.7101 91.1331 65.866 91.9425 65.866C92.752 65.866 93.6362 65.6967 94.2961 65.151C95.0307 64.54 95.3669 63.5006 95.5787 62.3313L96.5 57.0943C95.8646 56.8085 95.1055 56.6526 94.2465 56.6526C91.5945 56.6526 90.1622 58.7321 90.1622 60.8369C90.1748 62.0715 90.9095 63.0975 92.1173 63.0975C92.8394 63.0975 93.3874 62.7991 93.8598 62.1621H93.885L93.7858 62.6951C93.5362 63.9684 92.8646 64.3841 91.9677 64.3841C91.4575 64.3841 90.7102 64.2416 90.374 64.0337L89.963 65.4628ZM94.2465 59.9014C94.0591 60.9794 93.4622 61.6558 92.8764 61.6558C92.3291 61.6558 92.0551 61.188 92.0551 60.551C92.0551 59.3424 92.8268 58.0817 93.9102 58.0817C94.1591 58.0817 94.4205 58.1345 94.5575 58.1991L94.2465 59.9014Z" fill="#095491"/>
<path fill-rule="evenodd" clip-rule="evenodd" d="M51.9031 64.3124C51.9031 64.3187 51.9024 64.325 51.9008 64.3337C51.8992 64.3416 51.8961 64.3518 51.8921 64.3644L51.5669 65.4124C51.5646 65.4219 51.5606 65.4298 51.5551 65.4353C51.5504 65.4408 51.5425 65.4455 51.5339 65.4487C51.5236 65.4518 51.511 65.4542 51.4945 65.4558C51.478 65.4565 51.4575 65.4573 51.4339 65.4573C51.4079 65.4573 51.3866 65.4565 51.3693 65.455C51.3528 65.4526 51.3386 65.4502 51.3283 65.4479C51.3181 65.4439 51.311 65.44 51.3063 65.4337C51.3008 65.4282 51.2976 65.4211 51.2953 65.4124L51.063 64.6117L51.0606 64.6006L51.0583 64.6117L50.8433 65.4124C50.8409 65.4219 50.837 65.4298 50.8323 65.4353C50.8268 65.4408 50.8189 65.4455 50.8087 65.4487C50.7976 65.4518 50.7835 65.4542 50.7669 65.4558C50.7504 65.4565 50.7299 65.4573 50.7047 65.4573C50.6795 65.4573 50.6591 65.4565 50.6433 65.455C50.6276 65.4526 50.6142 65.4502 50.6039 65.4479C50.5937 65.4439 50.5858 65.44 50.5819 65.4337C50.5764 65.4282 50.5724 65.4211 50.5701 65.4124L50.248 64.3644C50.2441 64.3518 50.2409 64.3416 50.2394 64.3337C50.2378 64.325 50.237 64.3187 50.237 64.3124C50.237 64.3054 50.2386 64.2991 50.2417 64.2943C50.2449 64.2904 50.2504 64.2865 50.2583 64.2833C50.2661 64.281 50.2764 64.2794 50.2898 64.2786C50.3032 64.2778 50.3189 64.277 50.3378 64.277C50.3598 64.277 50.3787 64.2778 50.3921 64.2786C50.4063 64.2802 50.4173 64.2817 50.4244 64.2849C50.4315 64.288 50.437 64.292 50.4402 64.2975C50.4433 64.3022 50.4465 64.3085 50.4488 64.3164L50.715 65.2282L50.7173 65.2384L50.7197 65.2282L50.9638 64.3164C50.9654 64.3085 50.9685 64.3022 50.9717 64.2975C50.9756 64.292 50.9811 64.288 50.9882 64.2849C50.9961 64.2817 51.0055 64.2802 51.0181 64.2786C51.0307 64.2778 51.048 64.277 51.0685 64.277C51.0882 64.277 51.1039 64.2778 51.1165 64.2786C51.1291 64.2802 51.1394 64.2817 51.1465 64.2849C51.1543 64.288 51.1591 64.292 51.1622 64.2967C51.1654 64.3014 51.1685 64.3069 51.1701 64.314L51.4339 65.2282L51.4362 65.2384L51.437 65.2282L51.7 64.3164C51.7008 64.3085 51.7039 64.3022 51.7079 64.2975C51.711 64.292 51.7173 64.288 51.7252 64.2849C51.7323 64.2817 51.7425 64.2802 51.7567 64.2786C51.7701 64.2778 51.7874 64.277 51.8087 64.277C51.8283 64.277 51.8441 64.2778 51.8559 64.2786C51.8677 64.2794 51.8772 64.281 51.8843 64.2849C51.8905 64.2872 51.8961 64.2912 51.8992 64.2951C51.9016 64.2998 51.9031 64.3054 51.9031 64.3124ZM53.0992 65.4187C53.0992 65.4258 53.0976 65.4313 53.0953 65.4361C53.0921 65.44 53.0866 65.4439 53.0795 65.4479C53.0724 65.4502 53.063 65.4526 53.0504 65.455C53.0386 65.4565 53.0244 65.4573 53.0071 65.4573C52.989 65.4573 52.9732 65.4565 52.9614 65.455C52.9496 65.4526 52.9402 65.4502 52.9331 65.4479C52.926 65.4439 52.9213 65.44 52.9189 65.4361C52.9165 65.4313 52.9157 65.4258 52.9157 65.4187V65.2731C52.852 65.3424 52.7906 65.3928 52.7291 65.4243C52.6677 65.4565 52.6055 65.4723 52.5425 65.4723C52.4693 65.4723 52.4071 65.4605 52.3567 65.4353C52.3063 65.4109 52.2654 65.3778 52.2346 65.3353C52.2039 65.2935 52.1811 65.2447 52.1677 65.1888C52.1543 65.1321 52.1472 65.0644 52.1472 64.9841V64.3148C52.1472 64.3085 52.1488 64.303 52.152 64.2983C52.1543 64.2943 52.1598 64.2904 52.1685 64.2865C52.1764 64.2825 52.1874 64.2802 52.2 64.2786C52.2134 64.2778 52.2291 64.277 52.2496 64.277C52.2693 64.277 52.285 64.2778 52.2984 64.2786C52.311 64.2802 52.3213 64.2825 52.3299 64.2865C52.337 64.2904 52.3425 64.2943 52.3457 64.2983C52.3496 64.303 52.3512 64.3085 52.3512 64.3148V64.9581C52.3512 65.0227 52.3559 65.0747 52.3654 65.1132C52.374 65.1518 52.3882 65.1849 52.4079 65.2124C52.4268 65.24 52.452 65.2613 52.4811 65.2762C52.5102 65.2912 52.5449 65.2991 52.5843 65.2991C52.6346 65.2991 52.685 65.281 52.7354 65.2447C52.7858 65.2093 52.8394 65.1565 52.8961 65.0872V64.3148C52.8961 64.3085 52.8969 64.303 52.9 64.2983C52.9032 64.2943 52.9087 64.2904 52.9165 64.2865C52.9244 64.2825 52.9354 64.2802 52.948 64.2786C52.9606 64.2778 52.9772 64.277 52.9976 64.277C53.0173 64.277 53.0331 64.2778 53.0465 64.2786C53.0591 64.2802 53.0701 64.2825 53.0772 64.2865C53.0843 64.2904 53.0898 64.2943 53.0937 64.2983C53.0976 64.303 53.0992 64.3085 53.0992 64.3148V65.4187ZM53.7 65.4684C53.7 65.5495 53.6937 65.6156 53.6819 65.666C53.6693 65.7156 53.6504 65.7581 53.6244 65.7928C53.5984 65.8266 53.5654 65.8526 53.5236 65.8699C53.4835 65.888 53.4339 65.8967 53.3764 65.8967C53.3504 65.8967 53.3283 65.8951 53.3094 65.892C53.2913 65.888 53.2772 65.8849 53.2677 65.881C53.2575 65.8762 53.2512 65.8723 53.2472 65.8668C53.2433 65.8613 53.2409 65.855 53.2394 65.8479C53.2378 65.8408 53.2362 65.8337 53.2362 65.8266C53.2354 65.8195 53.2354 65.8101 53.2354 65.7998C53.2354 65.7849 53.2362 65.7723 53.237 65.7613C53.2386 65.751 53.2409 65.7424 53.2433 65.7353C53.2465 65.729 53.2496 65.7243 53.2535 65.7219C53.2567 65.7187 53.2614 65.7172 53.2677 65.7172C53.2724 65.7172 53.2819 65.7187 53.2961 65.7203C53.3102 65.7227 53.3268 65.7235 53.3457 65.7235C53.3724 65.7235 53.3953 65.7195 53.4142 65.7109C53.4339 65.703 53.4488 65.6896 53.4614 65.6715C53.474 65.6534 53.4827 65.629 53.4882 65.5998C53.4937 65.5707 53.4968 65.5266 53.4968 65.4668V64.3148C53.4968 64.3093 53.4984 64.3038 53.5016 64.2991C53.5047 64.2943 53.5102 64.2904 53.5181 64.2865C53.526 64.2833 53.5362 64.281 53.5496 64.2794C53.5622 64.2778 53.5787 64.277 53.5984 64.277C53.6181 64.277 53.6346 64.2778 53.6472 64.2794C53.6606 64.281 53.6709 64.2833 53.6787 64.2865C53.6866 64.2904 53.6921 64.2943 53.6953 64.2991C53.6984 64.3038 53.7 64.3093 53.7 64.3148V65.4684ZM53.7228 63.9432C53.7228 63.9904 53.7142 64.0227 53.6961 64.04C53.678 64.0573 53.6449 64.066 53.5969 64.066C53.5488 64.066 53.5165 64.0573 53.5 64.0408C53.4827 64.0243 53.474 63.9928 53.474 63.9455C53.474 63.8983 53.4827 63.8652 53.5008 63.8487C53.5181 63.8313 53.5504 63.8227 53.5992 63.8227C53.6472 63.8227 53.6803 63.8306 53.6968 63.8479C53.7142 63.8644 53.7228 63.8959 53.7228 63.9432ZM55.0189 65.4187C55.0189 65.4258 55.0181 65.4313 55.015 65.4361C55.0126 65.44 55.0071 65.4439 54.9992 65.4479C54.9921 65.4502 54.9827 65.4526 54.9709 65.455C54.9591 65.4565 54.9441 65.4573 54.9276 65.4573C54.9087 65.4573 54.8929 65.4565 54.8819 65.455C54.8693 65.4526 54.8606 65.4502 54.8528 65.4479C54.8465 65.4439 54.8417 65.44 54.8394 65.4361C54.837 65.4313 54.8354 65.4258 54.8354 65.4187V65.2731C54.7724 65.3424 54.7102 65.3928 54.6488 65.4243C54.5882 65.4565 54.5252 65.4723 54.463 65.4723C54.389 65.4723 54.3268 65.4605 54.2772 65.4353C54.2268 65.4109 54.1858 65.3778 54.1543 65.3353C54.1236 65.2935 54.1016 65.2447 54.0874 65.1888C54.074 65.1321 54.0677 65.0644 54.0677 64.9841V64.3148C54.0677 64.3085 54.0693 64.303 54.0717 64.2983C54.0748 64.2943 54.0803 64.2904 54.0882 64.2865C54.0969 64.2825 54.1071 64.2802 54.1205 64.2786C54.1331 64.2778 54.1496 64.277 54.1693 64.277C54.189 64.277 54.2055 64.2778 54.2181 64.2786C54.2315 64.2802 54.2417 64.2825 54.2496 64.2865C54.2575 64.2904 54.263 64.2943 54.2661 64.2983C54.2693 64.303 54.2709 64.3085 54.2709 64.3148V64.9581C54.2709 65.0227 54.2756 65.0747 54.285 65.1132C54.2945 65.1518 54.3087 65.1849 54.3276 65.2124C54.3472 65.24 54.3717 65.2613 54.4008 65.2762C54.4307 65.2912 54.4646 65.2991 54.5039 65.2991C54.5543 65.2991 54.6055 65.281 54.6559 65.2447C54.7063 65.2093 54.7591 65.1565 54.8157 65.0872V64.3148C54.8157 64.3085 54.8173 64.303 54.8205 64.2983C54.8228 64.2943 54.8283 64.2904 54.837 64.2865C54.8449 64.2825 54.8551 64.2802 54.8677 64.2786C54.8811 64.2778 54.8968 64.277 54.9173 64.277C54.937 64.277 54.9535 64.2778 54.9669 64.2786C54.9795 64.2802 54.9898 64.2825 54.9968 64.2865C55.0047 64.2904 55.0102 64.2943 55.0142 64.2983C55.0173 64.303 55.0189 64.3085 55.0189 64.3148V65.4187ZM56.3386 65.4187C56.3386 65.4258 56.337 65.4313 56.3339 65.4361C56.3315 65.4416 56.326 65.4447 56.3197 65.4479C56.3126 65.451 56.3032 65.4526 56.2921 65.455C56.2803 65.4565 56.2661 65.4573 56.2504 65.4573C56.2331 65.4573 56.2189 65.4565 56.2071 65.455C56.1953 65.4526 56.1866 65.451 56.1787 65.4479C56.1717 65.4447 56.1661 65.4416 56.163 65.4361C56.1598 65.4313 56.1583 65.425 56.1583 65.4187V65.2723C56.1 65.3353 56.0402 65.3841 55.978 65.4195C55.915 65.455 55.8465 65.4723 55.7724 65.4723C55.6913 65.4723 55.622 65.4565 55.5654 65.425C55.5079 65.3935 55.4614 65.351 55.426 65.2975C55.3913 65.2439 55.3654 65.181 55.3488 65.1085C55.3323 65.0361 55.3236 64.9597 55.3236 64.8802C55.3236 64.7849 55.3339 64.6991 55.3543 64.6235C55.3748 64.5463 55.4047 64.481 55.4457 64.4274C55.485 64.3731 55.5346 64.3321 55.5945 64.303C55.6535 64.2739 55.7213 64.2597 55.7992 64.2597C55.8638 64.2597 55.9228 64.2739 55.9764 64.3014C56.0299 64.3306 56.0827 64.3715 56.1346 64.4266V63.7865C56.1346 63.7809 56.1362 63.7754 56.1394 63.7699C56.1425 63.7644 56.1472 63.7605 56.1559 63.7573C56.1638 63.755 56.174 63.7526 56.1866 63.7502C56.2 63.7479 56.2158 63.7471 56.2354 63.7471C56.2559 63.7471 56.2724 63.7479 56.2858 63.7502C56.2984 63.7526 56.3094 63.755 56.3165 63.7573C56.3236 63.7605 56.3291 63.7644 56.3331 63.7699C56.337 63.7754 56.3386 63.7809 56.3386 63.7865V65.4187ZM56.1346 64.6424C56.0803 64.5739 56.0276 64.5219 55.9772 64.4865C55.926 64.451 55.8724 64.4329 55.8173 64.4329C55.7661 64.4329 55.722 64.4447 55.6866 64.4699C55.6504 64.4943 55.6213 64.5266 55.5992 64.5668C55.5764 64.6061 55.5606 64.6518 55.5504 64.703C55.5402 64.7534 55.5346 64.8046 55.5346 64.8573C55.5346 64.9124 55.5394 64.9676 55.548 65.0203C55.5559 65.0731 55.5717 65.1203 55.5921 65.1621C55.6134 65.2038 55.6417 65.2369 55.6764 65.2621C55.7118 65.2865 55.7559 65.2991 55.8087 65.2991C55.8354 65.2991 55.8614 65.2951 55.8866 65.288C55.911 65.281 55.937 65.2684 55.963 65.251C55.9882 65.2345 56.0165 65.2117 56.0449 65.1841C56.0732 65.1573 56.1031 65.1235 56.1346 65.0833V64.6424ZM57.6197 65.418C57.6197 65.4243 57.6181 65.4306 57.615 65.4353C57.6118 65.44 57.6063 65.4439 57.5984 65.4479C57.5906 65.4502 57.5795 65.4526 57.5661 65.455C57.552 65.4565 57.5346 65.4573 57.5134 65.4573C57.4913 65.4573 57.4732 65.4565 57.4591 65.4558C57.4449 65.4542 57.4323 65.4518 57.4228 65.4495C57.4126 65.4463 57.4047 65.4424 57.3992 65.4369C57.3929 65.4313 57.3874 65.425 57.3819 65.418L56.9165 64.8069V65.4187C56.9165 65.4258 56.915 65.4313 56.9118 65.4361C56.9087 65.44 56.9032 65.4439 56.8961 65.4479C56.8882 65.4502 56.878 65.4526 56.8646 65.455C56.852 65.4565 56.8354 65.4573 56.815 65.4573C56.7945 65.4573 56.778 65.4565 56.7654 65.455C56.752 65.4526 56.7417 65.4502 56.7339 65.4479C56.726 65.4439 56.7205 65.44 56.7173 65.4361C56.715 65.4313 56.7134 65.4258 56.7134 65.4187V63.7817C56.7134 63.7747 56.715 63.7691 56.7173 63.7644C56.7205 63.7597 56.726 63.755 56.7339 63.7518C56.7417 63.7487 56.752 63.7463 56.7654 63.7447C56.778 63.7432 56.7945 63.7424 56.815 63.7424C56.8354 63.7424 56.852 63.7432 56.8646 63.7447C56.878 63.7463 56.8882 63.7487 56.8961 63.7518C56.9032 63.755 56.9087 63.7597 56.9118 63.7644C56.915 63.7691 56.9165 63.7747 56.9165 63.7817V64.7786L57.3323 64.3203C57.3394 64.3117 57.3465 64.3054 57.3535 64.2998C57.3606 64.2943 57.3693 64.2904 57.3795 64.2865C57.3898 64.2825 57.4016 64.2802 57.4157 64.2786C57.4291 64.2778 57.4465 64.277 57.4661 64.277C57.4866 64.277 57.5032 64.2778 57.5173 64.2786C57.5307 64.2802 57.5425 64.2817 57.5504 64.2849C57.5591 64.288 57.5654 64.292 57.5693 64.2959C57.5732 64.3006 57.5748 64.3061 57.5748 64.314C57.5748 64.3235 57.5724 64.3337 57.5669 64.3432C57.5614 64.3534 57.5528 64.3644 57.5402 64.3778L57.1425 64.7778L57.5905 65.3597C57.6008 65.3747 57.6087 65.3849 57.6134 65.3943C57.6181 65.403 57.6197 65.4109 57.6197 65.418ZM58.6433 65.4203C58.6433 65.4298 58.6394 65.4376 58.6339 65.4424C58.6268 65.4479 58.6181 65.451 58.6063 65.4534C58.5953 65.4558 58.5779 65.4573 58.5559 65.4573C58.5354 65.4573 58.5181 65.4558 58.5055 65.4534C58.4929 65.451 58.4835 65.4479 58.478 65.4424C58.4717 65.4376 58.4693 65.4306 58.4693 65.4203V65.3101C58.4205 65.3613 58.3669 65.4014 58.3079 65.4298C58.2488 65.4581 58.1858 65.4723 58.1197 65.4723C58.0614 65.4723 58.0087 65.4644 57.9622 65.4495C57.915 65.4345 57.8748 65.4124 57.8417 65.3841C57.8087 65.3558 57.7827 65.3203 57.7646 65.2786C57.7457 65.2369 57.737 65.1896 57.737 65.1361C57.737 65.0739 57.7488 65.0195 57.7748 64.9739C57.8 64.9282 57.8362 64.8904 57.8843 64.8597C57.9315 64.8298 57.9898 64.8069 58.0583 64.792C58.1268 64.777 58.2039 64.7691 58.2898 64.7691H58.4425V64.6833C58.4425 64.6408 58.4378 64.603 58.4291 64.5699C58.4197 64.5376 58.4055 64.5101 58.385 64.488C58.3654 64.4668 58.3394 64.4502 58.3079 64.4392C58.2756 64.4282 58.2362 64.4227 58.1898 64.4227C58.1402 64.4227 58.0953 64.4282 58.0559 64.4408C58.0165 64.4526 57.9811 64.466 57.952 64.4802C57.922 64.4951 57.8968 64.5077 57.8772 64.5203C57.8575 64.5321 57.8417 64.5384 57.8323 64.5384C57.826 64.5384 57.8197 64.5369 57.815 64.5329C57.8102 64.5306 57.8063 64.525 57.8024 64.5187C57.7984 64.5124 57.7961 64.5038 57.7945 64.4935C57.7929 64.4833 57.7921 64.4723 57.7921 64.4597C57.7921 64.44 57.7929 64.4235 57.7961 64.4117C57.7992 64.3998 57.8063 64.3888 57.8173 64.3786C57.8276 64.3676 57.8472 64.355 57.874 64.3408C57.9008 64.3266 57.9323 64.3132 57.9669 64.3006C58.0016 64.2888 58.0402 64.2794 58.0819 64.2715C58.1236 64.2628 58.1661 64.2597 58.2079 64.2597C58.2874 64.2597 58.3551 64.2684 58.4102 64.2865C58.4661 64.3046 58.511 64.3313 58.5449 64.366C58.5795 64.4006 58.6039 64.4439 58.6197 64.4951C58.6354 64.5463 58.6433 64.6069 58.6433 64.6754V65.4203ZM58.4425 64.9148H58.2693C58.2142 64.9148 58.1661 64.9195 58.1252 64.929C58.0843 64.9384 58.0504 64.9526 58.0236 64.9707C57.9968 64.9896 57.9772 65.0109 57.9638 65.0369C57.9512 65.0628 57.9449 65.0928 57.9449 65.1258C57.9449 65.1833 57.963 65.229 57.9992 65.2628C58.0362 65.2967 58.0866 65.314 58.152 65.314C58.2047 65.314 58.2543 65.3006 58.2992 65.2739C58.3449 65.2471 58.3921 65.2054 58.4425 65.1495V64.9148ZM59.9638 65.4187C59.9638 65.4258 59.9622 65.4313 59.9591 65.4361C59.9551 65.44 59.9504 65.4439 59.9433 65.4479C59.9354 65.4502 59.9252 65.4526 59.9118 65.455C59.8992 65.4565 59.8827 65.4573 59.863 65.4573C59.8417 65.4573 59.8252 65.4565 59.8126 65.455C59.7992 65.4526 59.789 65.4502 59.7811 65.4479C59.774 65.4439 59.7685 65.44 59.7654 65.4361C59.7622 65.4313 59.7606 65.4258 59.7606 65.4187V64.7723C59.7606 64.7101 59.7551 64.6589 59.7457 64.6203C59.7362 64.5817 59.722 64.5495 59.7031 64.5211C59.6842 64.4935 59.6606 64.4723 59.6307 64.4573C59.6008 64.4432 59.5669 64.4353 59.5276 64.4353C59.4772 64.4353 59.4268 64.4534 59.3764 64.4888C59.326 64.525 59.2732 64.5778 59.2181 64.6471V65.4187C59.2181 65.4258 59.2165 65.4313 59.2134 65.4361C59.2094 65.44 59.2047 65.4439 59.1968 65.4479C59.1898 65.4502 59.1795 65.4526 59.1661 65.455C59.1535 65.4565 59.1362 65.4573 59.1157 65.4573C59.0961 65.4573 59.0795 65.4565 59.0669 65.455C59.0535 65.4526 59.0425 65.4502 59.0354 65.4479C59.0276 65.4439 59.022 65.44 59.0189 65.4361C59.0157 65.4313 59.015 65.4258 59.015 65.4187V64.3148C59.015 64.3085 59.0157 64.303 59.0189 64.2983C59.0213 64.2943 59.0252 64.2904 59.0331 64.2865C59.0409 64.2825 59.0496 64.2802 59.0614 64.2786C59.0732 64.2778 59.0882 64.277 59.1071 64.277C59.1252 64.277 59.1402 64.2778 59.152 64.2786C59.1638 64.2802 59.1732 64.2825 59.1803 64.2865C59.1866 64.2904 59.1913 64.2943 59.1945 64.2983C59.1968 64.303 59.1984 64.3085 59.1984 64.3148V64.4613C59.2606 64.3912 59.322 64.34 59.3843 64.3077C59.4457 64.2754 59.5071 64.2597 59.5701 64.2597C59.6433 64.2597 59.7055 64.2723 59.7551 64.2967C59.8055 64.3219 59.8465 64.355 59.8772 64.3967C59.9079 64.4384 59.9307 64.4873 59.9441 64.5439C59.9575 64.5998 59.9638 64.6668 59.9638 64.7455V65.4187ZM61.8079 65.418C61.8079 65.4243 61.8063 65.4306 61.8031 65.4353C61.7992 65.44 61.7937 65.4439 61.7866 65.4479C61.7787 65.4502 61.7677 65.4526 61.7535 65.455C61.7402 65.4565 61.722 65.4573 61.7008 65.4573C61.6795 65.4573 61.6606 65.4565 61.6465 65.4558C61.6323 65.4542 61.6205 65.4518 61.611 65.4495C61.6008 65.4463 61.5929 65.4424 61.5866 65.4369C61.5803 65.4313 61.5748 65.425 61.5701 65.418L61.1047 64.8069V65.4187C61.1047 65.4258 61.1031 65.4313 61.1 65.4361C61.0961 65.44 61.0913 65.4439 61.0835 65.4479C61.0764 65.4502 61.0661 65.4526 61.0528 65.455C61.0402 65.4565 61.0228 65.4573 61.0024 65.4573C60.9827 65.4573 60.9661 65.4565 60.9535 65.455C60.9402 65.4526 60.9291 65.4502 60.922 65.4479C60.9142 65.4439 60.9087 65.44 60.9055 65.4361C60.9024 65.4313 60.9016 65.4258 60.9016 65.4187V63.7817C60.9016 63.7747 60.9024 63.7691 60.9055 63.7644C60.9087 63.7597 60.9142 63.755 60.922 63.7518C60.9291 63.7487 60.9402 63.7463 60.9535 63.7447C60.9661 63.7432 60.9827 63.7424 61.0024 63.7424C61.0228 63.7424 61.0402 63.7432 61.0528 63.7447C61.0661 63.7463 61.0764 63.7487 61.0835 63.7518C61.0913 63.755 61.0961 63.7597 61.1 63.7644C61.1031 63.7691 61.1047 63.7747 61.1047 63.7817V64.7786L61.5205 64.3203C61.5268 64.3117 61.5339 64.3054 61.5409 64.2998C61.5488 64.2943 61.5575 64.2904 61.5677 64.2865C61.5779 64.2825 61.5898 64.2802 61.6039 64.2786C61.6173 64.2778 61.6339 64.277 61.6535 64.277C61.674 64.277 61.6913 64.2778 61.7055 64.2786C61.7189 64.2802 61.7307 64.2817 61.7386 64.2849C61.7472 64.288 61.7535 64.292 61.7575 64.2959C61.7606 64.3006 61.763 64.3061 61.763 64.314C61.763 64.3235 61.7598 64.3337 61.7543 64.3432C61.7496 64.3534 61.7409 64.3644 61.7283 64.3778L61.3307 64.7778L61.7787 65.3597C61.789 65.3747 61.7969 65.3849 61.8008 65.3943C61.8055 65.403 61.8079 65.4109 61.8079 65.418ZM62.9008 64.8187C62.9008 64.851 62.8929 64.8731 62.8772 64.8872C62.8614 64.9006 62.8425 64.9069 62.822 64.9069H62.0976C62.0976 64.9691 62.1039 65.0243 62.1157 65.0731C62.1283 65.1227 62.1488 65.1644 62.1772 65.1998C62.2055 65.2353 62.2433 65.2621 62.289 65.281C62.3346 65.2991 62.3906 65.3093 62.4567 65.3093C62.5095 65.3093 62.5559 65.3046 62.5968 65.2959C62.6378 65.288 62.6732 65.2778 62.7032 65.2676C62.7331 65.2573 62.7575 65.2479 62.7764 65.2392C62.7961 65.2306 62.8102 65.2258 62.8205 65.2258C62.826 65.2258 62.8307 65.2274 62.8354 65.2306C62.8394 65.2329 62.8433 65.2376 62.8457 65.2432C62.848 65.2487 62.8504 65.2565 62.8512 65.2668C62.8528 65.277 62.8535 65.2896 62.8535 65.3038C62.8535 65.3148 62.8528 65.3235 62.852 65.3313C62.8512 65.3392 62.8504 65.3463 62.8488 65.3518C62.848 65.3581 62.8457 65.3636 62.8425 65.3691C62.8394 65.3739 62.8362 65.3778 62.8315 65.3825C62.8276 65.3872 62.8142 65.3943 62.7921 65.4046C62.7701 65.4148 62.7417 65.4243 62.7063 65.4345C62.6709 65.4439 62.6307 65.4526 62.5843 65.4605C62.5386 65.4684 62.4898 65.4723 62.437 65.4723C62.3465 65.4723 62.2669 65.4597 62.1992 65.4345C62.1307 65.4093 62.0732 65.3715 62.0268 65.3219C61.9803 65.2715 61.9457 65.2093 61.922 65.1337C61.8984 65.0589 61.8866 64.9715 61.8866 64.8715C61.8866 64.777 61.8984 64.6912 61.9236 64.6156C61.9472 64.54 61.9835 64.4754 62.0291 64.4235C62.0756 64.3707 62.1315 64.3306 62.1968 64.3014C62.2622 64.2739 62.3354 64.2597 62.4157 64.2597C62.5024 64.2597 62.5764 64.2731 62.637 64.3014C62.6976 64.329 62.748 64.3668 62.7874 64.4132C62.826 64.4605 62.8551 64.5156 62.8732 64.5794C62.8913 64.6424 62.9008 64.7101 62.9008 64.7817V64.8187ZM62.6976 64.7589C62.7 64.6526 62.6764 64.5691 62.6268 64.5085C62.5772 64.4479 62.5039 64.418 62.4063 64.418C62.3559 64.418 62.3118 64.4266 62.2748 64.4455C62.237 64.4644 62.2055 64.4896 62.1795 64.5211C62.1543 64.5518 62.1346 64.588 62.1205 64.6298C62.1071 64.6707 62.0992 64.714 62.0976 64.7589H62.6976ZM64.2252 64.8518C64.2252 64.9471 64.215 65.0329 64.1937 65.1101C64.1732 65.1865 64.1433 65.2518 64.1024 65.3054C64.0622 65.3589 64.0126 65.4006 63.9535 65.429C63.8953 65.4581 63.8276 65.4723 63.752 65.4723C63.7173 65.4723 63.6842 65.4691 63.6543 65.4621C63.6252 65.455 63.5953 65.4439 63.5669 65.4282C63.5386 65.4124 63.5102 65.3935 63.4811 65.3691C63.4528 65.3455 63.4228 65.3172 63.3906 65.2833V65.4187C63.3906 65.425 63.389 65.4313 63.3858 65.4361C63.3827 65.4416 63.3772 65.4447 63.3701 65.4479C63.3622 65.451 63.3535 65.4526 63.3425 65.455C63.3315 65.4565 63.3165 65.4573 63.3 65.4573C63.2835 65.4573 63.2693 65.4565 63.2575 65.455C63.2465 65.4526 63.237 65.451 63.2291 65.4479C63.222 65.4447 63.2173 65.4416 63.215 65.4361C63.2126 65.4313 63.211 65.4258 63.211 65.4187V63.7817C63.211 63.7747 63.2126 63.7691 63.215 63.7644C63.2181 63.7597 63.2236 63.755 63.2315 63.7518C63.2394 63.7487 63.2496 63.7463 63.263 63.7447C63.2756 63.7432 63.2921 63.7424 63.3126 63.7424C63.3331 63.7424 63.3496 63.7432 63.3622 63.7447C63.3756 63.7463 63.3858 63.7487 63.3937 63.7518C63.4008 63.755 63.4063 63.7597 63.4094 63.7644C63.4126 63.7691 63.4142 63.7747 63.4142 63.7817V64.4408C63.4472 64.4077 63.4787 64.3794 63.5094 64.3558C63.5402 64.3337 63.5693 64.3148 63.5992 64.3006C63.6283 64.2865 63.6583 64.2754 63.6874 64.2691C63.7165 64.2628 63.7472 64.2597 63.7803 64.2597C63.8598 64.2597 63.9283 64.2754 63.985 64.3069C64.0417 64.3392 64.0874 64.3817 64.1236 64.4353C64.1591 64.4888 64.185 64.5518 64.2008 64.6235C64.2173 64.6959 64.2252 64.7715 64.2252 64.8518ZM64.0142 64.8754C64.0142 64.8187 64.0102 64.7636 64.0016 64.7109C63.9929 64.6573 63.978 64.6101 63.9567 64.5691C63.9354 64.5282 63.9071 64.4951 63.8724 64.4707C63.837 64.4455 63.7929 64.4329 63.7409 64.4329C63.715 64.4329 63.689 64.4369 63.663 64.4439C63.6386 64.451 63.6126 64.4636 63.5866 64.4809C63.5598 64.4983 63.5331 64.5203 63.5047 64.5471C63.4764 64.5739 63.4465 64.6085 63.4142 64.6495V65.0896C63.4701 65.1581 63.5236 65.2101 63.574 65.2455C63.6244 65.281 63.6779 65.2991 63.7323 65.2991C63.7827 65.2991 63.826 65.2872 63.8622 65.2621C63.8984 65.2376 63.9276 65.2046 63.9504 65.1644C63.9724 65.1243 63.989 65.0786 63.9992 65.0282C64.0094 64.9778 64.0142 64.9266 64.0142 64.8754ZM65.4693 64.8187C65.4693 64.851 65.4614 64.8731 65.4457 64.8872C65.4291 64.9006 65.411 64.9069 65.3905 64.9069H64.6654C64.6654 64.9691 64.6717 65.0243 64.6842 65.0731C64.6961 65.1227 64.7165 65.1644 64.7457 65.1998C64.774 65.2353 64.811 65.2621 64.8567 65.281C64.9031 65.2991 64.9591 65.3093 65.0252 65.3093C65.0772 65.3093 65.1244 65.3046 65.1654 65.2959C65.2063 65.288 65.2417 65.2778 65.2717 65.2676C65.3008 65.2573 65.326 65.2479 65.3449 65.2392C65.3646 65.2306 65.3787 65.2258 65.3882 65.2258C65.3945 65.2258 65.3992 65.2274 65.4039 65.2306C65.4079 65.2329 65.4118 65.2376 65.4142 65.2432C65.4165 65.2487 65.4189 65.2565 65.4197 65.2668C65.4213 65.277 65.4213 65.2896 65.4213 65.3038C65.4213 65.3148 65.4213 65.3235 65.4205 65.3313C65.4197 65.3392 65.4189 65.3463 65.4173 65.3518C65.4157 65.3581 65.4142 65.3636 65.411 65.3691C65.4079 65.3739 65.4047 65.3778 65.4 65.3825C65.3953 65.3872 65.3819 65.3943 65.3606 65.4046C65.3378 65.4148 65.3094 65.4243 65.2748 65.4345C65.2394 65.4439 65.1992 65.4526 65.1528 65.4605C65.1071 65.4684 65.0575 65.4723 65.0055 65.4723C64.915 65.4723 64.8354 65.4597 64.7677 65.4345C64.6992 65.4093 64.6417 65.3715 64.5953 65.3219C64.5488 65.2715 64.5142 65.2093 64.4905 65.1337C64.4669 65.0589 64.4551 64.9715 64.4551 64.8715C64.4551 64.777 64.4669 64.6912 64.4913 64.6156C64.5157 64.54 64.5512 64.4754 64.5976 64.4235C64.6433 64.3707 64.6992 64.3306 64.7646 64.3014C64.8299 64.2739 64.9032 64.2597 64.9843 64.2597C65.0709 64.2597 65.1441 64.2731 65.2047 64.3014C65.2661 64.329 65.3158 64.3668 65.3551 64.4132C65.3945 64.4605 65.4228 64.5156 65.4417 64.5794C65.4598 64.6424 65.4693 64.7101 65.4693 64.7817V64.8187ZM65.2661 64.7589C65.2685 64.6526 65.2449 64.5691 65.1953 64.5085C65.1457 64.4479 65.0724 64.418 64.9748 64.418C64.9244 64.418 64.8803 64.4266 64.8425 64.4455C64.8047 64.4644 64.774 64.4896 64.748 64.5211C64.7228 64.5518 64.7031 64.588 64.689 64.6298C64.6756 64.6707 64.6669 64.714 64.6654 64.7589H65.2661Z" fill="#0383B0"/>
<path fill-rule="evenodd" clip-rule="evenodd" d="M66.4244 64.3865C66.4244 64.4046 66.4244 64.4195 66.4236 64.4321C66.4228 64.4439 66.4205 64.4534 66.4181 64.4605C66.4165 64.4676 66.4126 64.4731 66.4087 64.477C66.4055 64.4802 66.4008 64.4817 66.3937 64.4817C66.3874 64.4817 66.3795 64.4802 66.3701 64.477C66.3606 64.4731 66.3504 64.4691 66.3386 64.466C66.3268 64.4621 66.3134 64.4589 66.2984 64.455C66.2843 64.4518 66.2677 64.4502 66.2512 64.4502C66.2307 64.4502 66.2102 64.4542 66.1906 64.4621C66.1717 64.4707 66.1504 64.4841 66.1291 64.5038C66.1071 64.5227 66.085 64.5471 66.0606 64.5786C66.0378 64.6101 66.011 64.6479 65.9827 64.6928V65.4187C65.9827 65.4258 65.9811 65.4313 65.978 65.4361C65.974 65.44 65.9693 65.4439 65.9614 65.4479C65.9543 65.4502 65.9441 65.4526 65.9307 65.455C65.9181 65.4565 65.9008 65.4573 65.8803 65.4573C65.8606 65.4573 65.8441 65.4565 65.8315 65.455C65.8181 65.4526 65.8071 65.4502 65.8 65.4479C65.7921 65.4439 65.7866 65.44 65.7835 65.4361C65.7803 65.4313 65.7795 65.4258 65.7795 65.4187V64.3148C65.7795 64.3085 65.7803 64.303 65.7827 64.2983C65.7858 64.2943 65.7906 64.2904 65.7976 64.2865C65.8055 64.2825 65.8142 64.2802 65.826 64.2786C65.8378 64.2778 65.8528 64.277 65.8717 64.277C65.8898 64.277 65.9047 64.2778 65.9165 64.2786C65.9283 64.2802 65.9378 64.2825 65.9449 64.2865C65.9512 64.2904 65.9559 64.2943 65.9591 64.2983C65.9614 64.303 65.963 64.3085 65.963 64.3148V64.4754C65.9929 64.4313 66.0213 64.3951 66.048 64.3676C66.0748 64.34 66.1 64.318 66.1236 64.3014C66.1472 64.2857 66.1709 64.2747 66.1937 64.2684C66.2173 64.2621 66.2402 64.2597 66.2646 64.2597C66.2748 64.2597 66.2866 64.2597 66.3 64.2613C66.3134 64.2621 66.3276 64.2652 66.3425 64.2676C66.3575 64.2715 66.3709 64.2747 66.3819 64.2794C66.3937 64.2833 66.4024 64.2872 66.4071 64.2912C66.4126 64.2951 66.4157 64.2991 66.4173 64.303C66.4189 64.3069 66.4205 64.3117 66.422 64.3172C66.4228 64.3227 66.4236 64.3313 66.4244 64.3416C66.4244 64.3534 66.4244 64.3676 66.4244 64.3865ZM67.3047 65.118C67.3047 65.1747 67.2945 65.2243 67.2732 65.2691C67.2528 65.3124 67.2228 65.3502 67.1843 65.3802C67.1465 65.4101 67.1008 65.4337 67.0472 65.4487C66.9945 65.4644 66.9354 65.4723 66.8717 65.4723C66.8323 65.4723 66.7953 65.4691 66.7598 65.4628C66.7244 65.4573 66.6921 65.4495 66.6638 65.44C66.6362 65.4306 66.6118 65.4211 66.5921 65.4109C66.5724 65.4014 66.5583 65.392 66.5496 65.3841C66.5402 65.3762 66.5339 65.3644 66.5299 65.3495C66.526 65.3353 66.5236 65.3148 66.5236 65.2896C66.5236 65.2739 66.5244 65.2613 66.526 65.2502C66.5283 65.24 66.5299 65.2313 66.5323 65.2243C66.5346 65.218 66.5386 65.2132 66.5425 65.2101C66.5472 65.2077 66.552 65.2061 66.5583 65.2061C66.5669 65.2061 66.5803 65.2117 66.5976 65.2227C66.6157 65.2337 66.637 65.2455 66.663 65.2589C66.6882 65.2715 66.7189 65.2841 66.7543 65.2951C66.789 65.3061 66.8291 65.3117 66.8748 65.3117C66.9095 65.3117 66.9402 65.3077 66.9677 65.3006C66.9961 65.2936 67.0197 65.2825 67.0402 65.2676C67.0606 65.2534 67.0764 65.2353 67.0874 65.2124C67.0984 65.1904 67.1039 65.1644 67.1039 65.1337C67.1039 65.103 67.0961 65.0762 67.0795 65.0558C67.0638 65.0337 67.0433 65.0156 67.0173 64.9991C66.9906 64.9825 66.9614 64.9684 66.9291 64.9558C66.8961 64.9432 66.863 64.9298 66.8283 64.9156C66.7937 64.9014 66.7598 64.8857 66.7268 64.8684C66.6937 64.851 66.6646 64.8298 66.6378 64.8038C66.6118 64.7786 66.5913 64.7487 66.5756 64.7132C66.5591 64.6778 66.5512 64.6361 66.5512 64.5865C66.5512 64.5439 66.5598 64.5022 66.5764 64.4621C66.5929 64.4227 66.6181 64.388 66.652 64.3581C66.6858 64.3282 66.7276 64.3046 66.778 64.2865C66.8283 64.2684 66.8866 64.2597 66.9543 64.2597C66.9835 64.2597 67.0126 64.2621 67.0425 64.2668C67.0717 64.2723 67.0976 64.2786 67.122 64.2865C67.1457 64.2935 67.1654 64.3022 67.1827 64.3109C67.1992 64.3203 67.2126 64.3274 67.2205 64.3345C67.2291 64.3416 67.2346 64.3471 67.2378 64.3518C67.2409 64.3573 67.2425 64.3621 67.2441 64.3684C67.2449 64.3747 67.2465 64.3817 67.248 64.3912C67.2488 64.3998 67.2496 64.4109 67.2496 64.4243C67.2496 64.4376 67.2488 64.4502 67.248 64.4597C67.2465 64.4699 67.2441 64.4786 67.2417 64.4849C67.2386 64.4912 67.2354 64.4959 67.2315 64.4991C67.2268 64.5014 67.222 64.503 67.2173 64.503C67.2102 64.503 67.2 64.4983 67.1858 64.4888C67.1717 64.4802 67.1535 64.4707 67.1315 64.4605C67.1094 64.4502 67.0835 64.44 67.0535 64.4313C67.0236 64.4219 66.9898 64.418 66.9512 64.418C66.9165 64.418 66.8858 64.4211 66.8606 64.4298C66.8339 64.4369 66.8126 64.4479 66.7961 64.4621C66.7787 64.4762 66.7661 64.4928 66.7575 64.5124C66.7488 64.5321 66.7449 64.5534 66.7449 64.5762C66.7449 64.6077 66.7528 64.6345 66.7693 64.6565C66.7858 64.6778 66.8063 64.6967 66.8331 64.7132C66.8591 64.7298 66.889 64.7439 66.9228 64.7573C66.9559 64.7707 66.9898 64.7841 67.0244 64.7975C67.0591 64.8117 67.0937 64.8274 67.1276 64.8447C67.1614 64.8613 67.1913 64.8825 67.2173 64.9069C67.2441 64.9313 67.2646 64.9605 67.2811 64.9951C67.2968 65.0298 67.3047 65.0707 67.3047 65.118ZM68.4252 65.4203C68.4252 65.4298 68.422 65.4376 68.4157 65.4424C68.4087 65.4479 68.4 65.451 68.3882 65.4534C68.3772 65.4558 68.3598 65.4573 68.3378 65.4573C68.3173 65.4573 68.3 65.4558 68.2874 65.4534C68.2748 65.451 68.2654 65.4479 68.2598 65.4424C68.2535 65.4376 68.2512 65.4306 68.2512 65.4203V65.3101C68.2031 65.3613 68.1496 65.4014 68.0898 65.4298C68.0307 65.4581 67.9677 65.4723 67.9016 65.4723C67.8433 65.4723 67.7906 65.4644 67.7441 65.4495C67.6968 65.4345 67.6567 65.4124 67.6236 65.3841C67.5906 65.3558 67.5646 65.3203 67.5465 65.2786C67.5276 65.2369 67.5189 65.1896 67.5189 65.1361C67.5189 65.0739 67.5307 65.0195 67.5567 64.9739C67.5819 64.9282 67.6181 64.8904 67.6661 64.8597C67.7134 64.8298 67.7717 64.8069 67.8402 64.792C67.9087 64.777 67.9858 64.7691 68.0717 64.7691H68.2244V64.6833C68.2244 64.6408 68.2197 64.603 68.211 64.5699C68.2016 64.5376 68.1874 64.5101 68.1669 64.488C68.1472 64.4668 68.1213 64.4502 68.0898 64.4392C68.0575 64.4282 68.0181 64.4227 67.9717 64.4227C67.922 64.4227 67.8772 64.4282 67.8378 64.4408C67.7984 64.4526 67.7638 64.466 67.7339 64.4802C67.7039 64.4951 67.6787 64.5077 67.6591 64.5203C67.6394 64.5321 67.6236 64.5384 67.6142 64.5384C67.6079 64.5384 67.6016 64.5369 67.5969 64.5329C67.5921 64.5306 67.5882 64.525 67.5843 64.5187C67.5803 64.5124 67.578 64.5038 67.5764 64.4935C67.5748 64.4833 67.574 64.4723 67.574 64.4597C67.574 64.44 67.5748 64.4235 67.578 64.4117C67.5811 64.3998 67.5882 64.3888 67.5992 64.3786C67.6102 64.3676 67.6291 64.355 67.6559 64.3408C67.6827 64.3266 67.7142 64.3132 67.7488 64.3006C67.7835 64.2888 67.822 64.2794 67.8646 64.2715C67.9055 64.2628 67.948 64.2597 67.9906 64.2597C68.0693 64.2597 68.137 64.2684 68.1921 64.2865C68.248 64.3046 68.2929 64.3313 68.3268 64.366C68.3614 64.4006 68.3858 64.4439 68.4016 64.4951C68.4173 64.5463 68.4252 64.6069 68.4252 64.6754V65.4203ZM68.2244 64.9148H68.0512C67.9961 64.9148 67.948 64.9195 67.9071 64.929C67.8661 64.9384 67.8323 64.9526 67.8055 64.9707C67.7787 64.9896 67.7591 65.0109 67.7457 65.0369C67.7331 65.0628 67.7268 65.0928 67.7268 65.1258C67.7268 65.1833 67.7449 65.229 67.7811 65.2628C67.8181 65.2967 67.8685 65.314 67.9339 65.314C67.9866 65.314 68.0362 65.3006 68.0819 65.2739C68.1268 65.2471 68.174 65.2054 68.2244 65.1495V64.9148ZM70.4339 65.4187C70.4339 65.4258 70.4323 65.4313 70.4291 65.4361C70.4252 65.44 70.4205 65.4439 70.4126 65.4479C70.4055 65.4502 70.3953 65.4526 70.3827 65.455C70.3693 65.4565 70.3528 65.4573 70.3331 65.4573C70.3126 65.4573 70.2961 65.4565 70.2835 65.455C70.2701 65.4526 70.2598 65.4502 70.252 65.4479C70.2441 65.4439 70.2386 65.44 70.2354 65.4361C70.2323 65.4313 70.2307 65.4258 70.2307 65.4187V64.7487C70.2307 64.7014 70.226 64.6589 70.2181 64.6203C70.2102 64.5817 70.1968 64.5495 70.1787 64.5211C70.1606 64.4935 70.1386 64.4723 70.111 64.4573C70.0835 64.4432 70.0504 64.4353 70.0126 64.4353C69.9661 64.4353 69.9197 64.4534 69.8732 64.4888C69.826 64.525 69.774 64.5778 69.7181 64.6471V65.4187C69.7181 65.4258 69.7165 65.4313 69.7134 65.4361C69.7094 65.44 69.7039 65.4439 69.6961 65.4479C69.689 65.4502 69.6787 65.4526 69.6654 65.455C69.652 65.4565 69.6354 65.4573 69.6157 65.4573C69.5969 65.4573 69.5811 65.4565 69.5669 65.455C69.5535 65.4526 69.5425 65.4502 69.5354 65.4479C69.5276 65.4439 69.522 65.44 69.5189 65.4361C69.5157 65.4313 69.515 65.4258 69.515 65.4187V64.7487C69.515 64.7014 69.5102 64.6589 69.5016 64.6203C69.4921 64.5817 69.4787 64.5495 69.4606 64.5211C69.4425 64.4935 69.4205 64.4723 69.3929 64.4573C69.3654 64.4432 69.3331 64.4353 69.2953 64.4353C69.2488 64.4353 69.2016 64.4534 69.1543 64.4888C69.1071 64.525 69.0559 64.5778 69 64.6471V65.4187C69 65.4258 68.9984 65.4313 68.9953 65.4361C68.9913 65.44 68.9866 65.4439 68.9795 65.4479C68.9717 65.4502 68.9614 65.4526 68.948 65.455C68.9354 65.4565 68.9181 65.4573 68.8976 65.4573C68.878 65.4573 68.8614 65.4565 68.8488 65.455C68.8354 65.4526 68.8244 65.4502 68.8173 65.4479C68.8094 65.4439 68.8039 65.44 68.8008 65.4361C68.7976 65.4313 68.7968 65.4258 68.7968 65.4187V64.3148C68.7968 64.3085 68.7976 64.303 68.8008 64.2983C68.8031 64.2943 68.8079 64.2904 68.815 64.2865C68.8228 64.2825 68.8315 64.2802 68.8433 64.2786C68.8551 64.2778 68.8701 64.277 68.889 64.277C68.9071 64.277 68.922 64.2778 68.9339 64.2786C68.9465 64.2802 68.9551 64.2825 68.9622 64.2865C68.9685 64.2904 68.9732 64.2943 68.9764 64.2983C68.9787 64.303 68.9803 64.3085 68.9803 64.3148V64.4613C69.0425 64.3912 69.1031 64.34 69.1614 64.3077C69.2197 64.2754 69.2795 64.2597 69.3386 64.2597C69.385 64.2597 69.426 64.2652 69.4622 64.2754C69.4984 64.2865 69.5307 64.3006 69.5583 64.3203C69.5866 64.3392 69.6102 64.3621 69.6291 64.3896C69.6488 64.4156 69.6654 64.4455 69.6787 64.4786C69.7157 64.4384 69.7504 64.4046 69.7835 64.3762C69.8165 64.3479 69.848 64.3258 69.8787 64.3085C69.9094 64.2912 69.9394 64.2786 69.9677 64.2715C69.9976 64.2628 70.026 64.2597 70.0559 64.2597C70.1268 64.2597 70.1858 64.2723 70.2339 64.2967C70.2827 64.3219 70.3213 64.355 70.3512 64.3967C70.3811 64.4384 70.4024 64.4873 70.415 64.5439C70.4276 64.5998 70.4339 64.6589 70.4339 64.7211V65.4187ZM71.6339 65.4203C71.6339 65.4298 71.6299 65.4376 71.6244 65.4424C71.6173 65.4479 71.6087 65.451 71.5968 65.4534C71.5858 65.4558 71.5685 65.4573 71.5465 65.4573C71.526 65.4573 71.5087 65.4558 71.4961 65.4534C71.4835 65.451 71.474 65.4479 71.4685 65.4424C71.4622 65.4376 71.4598 65.4306 71.4598 65.4203V65.3101C71.411 65.3613 71.3575 65.4014 71.2984 65.4298C71.2386 65.4581 71.1764 65.4723 71.1102 65.4723C71.052 65.4723 70.9992 65.4644 70.9528 65.4495C70.9055 65.4345 70.8654 65.4124 70.8323 65.3841C70.7992 65.3558 70.7732 65.3203 70.7551 65.2786C70.7362 65.2369 70.7276 65.1896 70.7276 65.1361C70.7276 65.0739 70.7394 65.0195 70.7654 64.9739C70.7906 64.9282 70.8268 64.8904 70.8748 64.8597C70.922 64.8298 70.9803 64.8069 71.0488 64.792C71.1173 64.777 71.1945 64.7691 71.2803 64.7691H71.4331V64.6833C71.4331 64.6408 71.4283 64.603 71.4189 64.5699C71.4102 64.5376 71.3961 64.5101 71.3756 64.488C71.3559 64.4668 71.3299 64.4502 71.2976 64.4392C71.2661 64.4282 71.2268 64.4227 71.1803 64.4227C71.1307 64.4227 71.0858 64.4282 71.0465 64.4408C71.0071 64.4526 70.9717 64.466 70.9425 64.4802C70.9126 64.4951 70.8874 64.5077 70.8677 64.5203C70.848 64.5321 70.8323 64.5384 70.8228 64.5384C70.8165 64.5384 70.8102 64.5369 70.8055 64.5329C70.8008 64.5306 70.7969 64.525 70.7929 64.5187C70.789 64.5124 70.7866 64.5038 70.785 64.4935C70.7835 64.4833 70.7827 64.4723 70.7827 64.4597C70.7827 64.44 70.7835 64.4235 70.7866 64.4117C70.7898 64.3998 70.7969 64.3888 70.8079 64.3786C70.8181 64.3676 70.8378 64.355 70.8646 64.3408C70.8913 64.3266 70.9228 64.3132 70.9575 64.3006C70.9921 64.2888 71.0307 64.2794 71.0724 64.2715C71.1142 64.2628 71.1567 64.2597 71.1984 64.2597C71.278 64.2597 71.3449 64.2684 71.4008 64.2865C71.4567 64.3046 71.5016 64.3313 71.5354 64.366C71.5701 64.4006 71.5945 64.4439 71.6102 64.4951C71.626 64.5463 71.6339 64.6069 71.6339 64.6754V65.4203ZM71.4331 64.9148H71.2598C71.2047 64.9148 71.1567 64.9195 71.1157 64.929C71.0748 64.9384 71.0409 64.9526 71.0142 64.9707C70.9874 64.9896 70.9677 65.0109 70.9543 65.0369C70.9417 65.0628 70.9354 65.0928 70.9354 65.1258C70.9354 65.1833 70.9535 65.229 70.9898 65.2628C71.0268 65.2967 71.0772 65.314 71.1425 65.314C71.1953 65.314 71.2449 65.3006 71.2898 65.2739C71.3354 65.2471 71.3827 65.2054 71.4331 65.1495V64.9148ZM72.8362 65.4203C72.8362 65.4298 72.8331 65.4376 72.8268 65.4424C72.8205 65.4479 72.811 65.451 72.7992 65.4534C72.7882 65.4558 72.7717 65.4573 72.7496 65.4573C72.7283 65.4573 72.711 65.4558 72.6984 65.4534C72.6858 65.451 72.6772 65.4479 72.6709 65.4424C72.6654 65.4376 72.6622 65.4306 72.6622 65.4203V65.3101C72.6142 65.3613 72.5606 65.4014 72.5016 65.4298C72.4417 65.4581 72.3787 65.4723 72.3126 65.4723C72.2543 65.4723 72.2024 65.4644 72.1551 65.4495C72.1079 65.4345 72.0677 65.4124 72.0346 65.3841C72.0024 65.3558 71.9764 65.3203 71.9575 65.2786C71.9394 65.2369 71.9299 65.1896 71.9299 65.1361C71.9299 65.0739 71.9425 65.0195 71.9677 64.9739C71.9929 64.9282 72.0299 64.8904 72.0772 64.8597C72.1244 64.8298 72.1827 64.8069 72.2512 64.792C72.3197 64.777 72.3976 64.7691 72.4835 64.7691H72.6354V64.6833C72.6354 64.6408 72.6307 64.603 72.622 64.5699C72.6126 64.5376 72.5984 64.5101 72.5787 64.488C72.5583 64.4668 72.5323 64.4502 72.5008 64.4392C72.4685 64.4282 72.4299 64.4227 72.3835 64.4227C72.3331 64.4227 72.2882 64.4282 72.2496 64.4408C72.2094 64.4526 72.1748 64.466 72.1449 64.4802C72.115 64.4951 72.0905 64.5077 72.0701 64.5203C72.0504 64.5321 72.0354 64.5384 72.026 64.5384C72.0189 64.5384 72.0134 64.5369 72.0087 64.5329C72.0039 64.5306 71.9992 64.525 71.9953 64.5187C71.9921 64.5124 71.989 64.5038 71.9874 64.4935C71.9858 64.4833 71.985 64.4723 71.985 64.4597C71.985 64.44 71.9866 64.4235 71.989 64.4117C71.9921 64.3998 71.9992 64.3888 72.0102 64.3786C72.0213 64.3676 72.0402 64.355 72.0669 64.3408C72.0937 64.3266 72.1252 64.3132 72.1606 64.3006C72.1953 64.2888 72.2339 64.2794 72.2756 64.2715C72.3173 64.2628 72.3591 64.2597 72.4016 64.2597C72.4803 64.2597 72.548 64.2684 72.6039 64.2865C72.6591 64.3046 72.7039 64.3313 72.7386 64.366C72.7724 64.4006 72.7976 64.4439 72.8126 64.4951C72.8283 64.5463 72.8362 64.6069 72.8362 64.6754V65.4203ZM72.6354 64.9148H72.463C72.4071 64.9148 72.3591 64.9195 72.3181 64.929C72.278 64.9384 72.2441 64.9526 72.2165 64.9707C72.1898 64.9896 72.1701 65.0109 72.1575 65.0369C72.1449 65.0628 72.1386 65.0928 72.1386 65.1258C72.1386 65.1833 72.1567 65.229 72.1929 65.2628C72.2291 65.2967 72.2795 65.314 72.3457 65.314C72.3984 65.314 72.448 65.3006 72.4929 65.2739C72.5378 65.2471 72.5858 65.2054 72.6354 65.1495V64.9148ZM74.1575 65.4187C74.1575 65.4258 74.1551 65.4313 74.152 65.4361C74.1488 65.44 74.1441 65.4439 74.1362 65.4479C74.1283 65.4502 74.1189 65.4526 74.1055 65.455C74.0921 65.4565 74.0756 65.4573 74.0567 65.4573C74.0354 65.4573 74.0189 65.4565 74.0055 65.455C73.9921 65.4526 73.9819 65.4502 73.9748 65.4479C73.9669 65.4439 73.9622 65.44 73.9591 65.4361C73.9551 65.4313 73.9535 65.4258 73.9535 65.4187V64.7723C73.9535 64.7101 73.9488 64.6589 73.9394 64.6203C73.9291 64.5817 73.915 64.5495 73.8969 64.5211C73.878 64.4935 73.8535 64.4723 73.8244 64.4573C73.7945 64.4432 73.7598 64.4353 73.7213 64.4353C73.6709 64.4353 73.6205 64.4534 73.5701 64.4888C73.5197 64.525 73.4669 64.5778 73.4118 64.6471V65.4187C73.4118 65.4258 73.4095 65.4313 73.4063 65.4361C73.4031 65.44 73.3984 65.4439 73.3906 65.4479C73.3827 65.4502 73.3732 65.4526 73.3598 65.455C73.3465 65.4565 73.3299 65.4573 73.3094 65.4573C73.289 65.4573 73.2732 65.4565 73.2598 65.455C73.2465 65.4526 73.2362 65.4502 73.2283 65.4479C73.2205 65.4439 73.215 65.44 73.2118 65.4361C73.2094 65.4313 73.2079 65.4258 73.2079 65.4187V64.3148C73.2079 64.3085 73.2094 64.303 73.2118 64.2983C73.2142 64.2943 73.2189 64.2904 73.2268 64.2865C73.2339 64.2825 73.2433 64.2802 73.2551 64.2786C73.2661 64.2778 73.2819 64.277 73.3008 64.277C73.3189 64.277 73.3339 64.2778 73.3457 64.2786C73.3575 64.2802 73.3669 64.2825 73.3732 64.2865C73.3795 64.2904 73.385 64.2943 73.3874 64.2983C73.3898 64.303 73.3921 64.3085 73.3921 64.3148V64.4613C73.4535 64.3912 73.515 64.34 73.5772 64.3077C73.6386 64.2754 73.7008 64.2597 73.763 64.2597C73.8362 64.2597 73.8984 64.2723 73.9488 64.2967C73.9992 64.3219 74.0394 64.355 74.0709 64.3967C74.1016 64.4384 74.1236 64.4873 74.137 64.5439C74.1504 64.5998 74.1575 64.6668 74.1575 64.7455V65.4187ZM76.0386 65.4187C76.0386 65.4258 76.0378 65.4313 76.0346 65.4361C76.0315 65.4416 76.0268 65.4447 76.0197 65.4479C76.0126 65.451 76.0039 65.4526 75.9921 65.455C75.9803 65.4565 75.9669 65.4573 75.9504 65.4573C75.9331 65.4573 75.9189 65.4565 75.9079 65.455C75.8961 65.4526 75.8866 65.451 75.8795 65.4479C75.8724 65.4447 75.8669 65.4416 75.863 65.4361C75.8606 65.4313 75.8591 65.425 75.8591 65.4187V65.2723C75.8008 65.3353 75.7402 65.3841 75.678 65.4195C75.615 65.455 75.5472 65.4723 75.4724 65.4723C75.3913 65.4723 75.3228 65.4565 75.2661 65.425C75.2087 65.3935 75.1622 65.351 75.1268 65.2975C75.0913 65.2439 75.0654 65.181 75.0488 65.1085C75.0331 65.0361 75.0244 64.9597 75.0244 64.8802C75.0244 64.7849 75.0346 64.6991 75.0551 64.6235C75.0756 64.5463 75.1055 64.481 75.1457 64.4274C75.1858 64.3731 75.2354 64.3321 75.2945 64.303C75.3535 64.2739 75.422 64.2597 75.5 64.2597C75.5646 64.2597 75.6228 64.2739 75.6764 64.3014C75.7299 64.3306 75.7827 64.3715 75.8354 64.4266V63.7865C75.8354 63.7809 75.8362 63.7754 75.8394 63.7699C75.8425 63.7644 75.848 63.7605 75.8567 63.7573C75.8646 63.755 75.8748 63.7526 75.8874 63.7502C75.9 63.7479 75.9165 63.7471 75.9354 63.7471C75.9559 63.7471 75.9732 63.7479 75.9858 63.7502C75.9992 63.7526 76.0094 63.755 76.0165 63.7573C76.0244 63.7605 76.0299 63.7644 76.0331 63.7699C76.037 63.7754 76.0386 63.7809 76.0386 63.7865V65.4187ZM75.8354 64.6424C75.7811 64.5739 75.7283 64.5219 75.6772 64.4865C75.626 64.451 75.5732 64.4329 75.5181 64.4329C75.4661 64.4329 75.4228 64.4447 75.3866 64.4699C75.3504 64.4943 75.322 64.5266 75.2992 64.5668C75.2772 64.6061 75.2606 64.6518 75.2504 64.703C75.2402 64.7534 75.2354 64.8046 75.2354 64.8573C75.2354 64.9124 75.2394 64.9676 75.248 65.0203C75.2567 65.0731 75.2717 65.1203 75.2929 65.1621C75.3142 65.2038 75.3417 65.2369 75.3772 65.2621C75.4118 65.2865 75.4559 65.2991 75.5087 65.2991C75.5354 65.2991 75.5614 65.2951 75.5866 65.288C75.6118 65.281 75.637 65.2684 75.663 65.251C75.689 65.2345 75.7165 65.2117 75.7449 65.1841C75.7732 65.1573 75.8039 65.1235 75.8354 65.0833V64.6424ZM77.2449 65.4203C77.2449 65.4298 77.2417 65.4376 77.2354 65.4424C77.2283 65.4479 77.2197 65.451 77.2079 65.4534C77.1968 65.4558 77.1803 65.4573 77.1575 65.4573C77.137 65.4573 77.1197 65.4558 77.1071 65.4534C77.0945 65.451 77.085 65.4479 77.0795 65.4424C77.074 65.4376 77.0709 65.4306 77.0709 65.4203V65.3101C77.0228 65.3613 76.9693 65.4014 76.9095 65.4298C76.8504 65.4581 76.7874 65.4723 76.7213 65.4723C76.663 65.4723 76.6102 65.4644 76.5638 65.4495C76.5165 65.4345 76.4764 65.4124 76.4433 65.3841C76.4102 65.3558 76.3843 65.3203 76.3661 65.2786C76.348 65.2369 76.3386 65.1896 76.3386 65.1361C76.3386 65.0739 76.3512 65.0195 76.3764 64.9739C76.4016 64.9282 76.4378 64.8904 76.4858 64.8597C76.5331 64.8298 76.5913 64.8069 76.6598 64.792C76.7283 64.777 76.8055 64.7691 76.8913 64.7691H77.0441V64.6833C77.0441 64.6408 77.0394 64.603 77.0307 64.5699C77.0213 64.5376 77.0071 64.5101 76.9874 64.488C76.9669 64.4668 76.9409 64.4502 76.9095 64.4392C76.8772 64.4282 76.8378 64.4227 76.7913 64.4227C76.7417 64.4227 76.6968 64.4282 76.6575 64.4408C76.6181 64.4526 76.5835 64.466 76.5535 64.4802C76.5236 64.4951 76.4984 64.5077 76.4787 64.5203C76.4591 64.5321 76.4441 64.5384 76.4346 64.5384C76.4276 64.5384 76.4221 64.5369 76.4173 64.5329C76.4118 64.5306 76.4079 64.525 76.4039 64.5187C76.4 64.5124 76.3976 64.5038 76.3961 64.4935C76.3945 64.4833 76.3937 64.4723 76.3937 64.4597C76.3937 64.44 76.3953 64.4235 76.3976 64.4117C76.4008 64.3998 76.4079 64.3888 76.4189 64.3786C76.4299 64.3676 76.4488 64.355 76.4756 64.3408C76.5024 64.3266 76.5339 64.3132 76.5693 64.3006C76.6039 64.2888 76.6425 64.2794 76.6843 64.2715C76.7252 64.2628 76.7677 64.2597 76.8102 64.2597C76.889 64.2597 76.9567 64.2684 77.0118 64.2865C77.0677 64.3046 77.1126 64.3313 77.1472 64.366C77.1811 64.4006 77.2055 64.4439 77.2213 64.4951C77.237 64.5463 77.2449 64.6069 77.2449 64.6754V65.4203ZM77.0441 64.9148H76.8709C76.8158 64.9148 76.7677 64.9195 76.7268 64.929C76.6858 64.9384 76.652 64.9526 76.6252 64.9707C76.5984 64.9896 76.5787 65.0109 76.5654 65.0369C76.5528 65.0628 76.5472 65.0928 76.5472 65.1258C76.5472 65.1833 76.5646 65.229 76.6016 65.2628C76.6378 65.2967 76.6882 65.314 76.7543 65.314C76.8063 65.314 76.8559 65.3006 76.9016 65.2739C76.9465 65.2471 76.9945 65.2054 77.0441 65.1495V64.9148ZM78.5654 65.4187C78.5654 65.4258 78.5638 65.4313 78.5606 65.4361C78.5575 65.44 78.552 65.4439 78.5449 65.4479C78.537 65.4502 78.5268 65.4526 78.5142 65.455C78.5008 65.4565 78.4843 65.4573 78.4646 65.4573C78.4441 65.4573 78.4268 65.4565 78.4142 65.455C78.4008 65.4526 78.3905 65.4502 78.3835 65.4479C78.3756 65.4439 78.3709 65.44 78.3669 65.4361C78.3638 65.4313 78.3622 65.4258 78.3622 65.4187V64.7723C78.3622 64.7101 78.3575 64.6589 78.348 64.6203C78.3378 64.5817 78.3236 64.5495 78.3047 64.5211C78.2858 64.4935 78.2622 64.4723 78.2323 64.4573C78.2032 64.4432 78.1685 64.4353 78.1299 64.4353C78.0787 64.4353 78.0284 64.4534 77.9787 64.4888C77.9276 64.525 77.8748 64.5778 77.8197 64.6471V65.4187C77.8197 65.4258 77.8181 65.4313 77.815 65.4361C77.8118 65.44 77.8063 65.4439 77.7992 65.4479C77.7913 65.4502 77.7811 65.4526 77.7677 65.455C77.7551 65.4565 77.7386 65.4573 77.7181 65.4573C77.6976 65.4573 77.6811 65.4565 77.6685 65.455C77.6551 65.4526 77.6449 65.4502 77.637 65.4479C77.6291 65.4439 77.6236 65.44 77.6205 65.4361C77.6181 65.4313 77.6165 65.4258 77.6165 65.4187V64.3148C77.6165 64.3085 77.6181 64.303 77.6205 64.2983C77.6228 64.2943 77.6276 64.2904 77.6346 64.2865C77.6425 64.2825 77.652 64.2802 77.6638 64.2786C77.6748 64.2778 77.6906 64.277 77.7087 64.277C77.7268 64.277 77.7417 64.2778 77.7535 64.2786C77.7661 64.2802 77.7748 64.2825 77.7819 64.2865C77.7882 64.2904 77.7929 64.2943 77.7961 64.2983C77.7984 64.303 77.8 64.3085 77.8 64.3148V64.4613C77.8622 64.3912 77.9236 64.34 77.9858 64.3077C78.0472 64.2754 78.1087 64.2597 78.1717 64.2597C78.2449 64.2597 78.3071 64.2723 78.3575 64.2967C78.4071 64.3219 78.448 64.355 78.4787 64.3967C78.5102 64.4384 78.5323 64.4873 78.5457 64.5439C78.5591 64.5998 78.5654 64.6668 78.5654 64.7455V65.4187ZM80.4095 65.418C80.4095 65.4243 80.4079 65.4306 80.4047 65.4353C80.4016 65.44 80.3961 65.4439 80.3882 65.4479C80.3803 65.4502 80.3693 65.4526 80.3559 65.455C80.3417 65.4565 80.3244 65.4573 80.3031 65.4573C80.2811 65.4573 80.263 65.4565 80.248 65.4558C80.2346 65.4542 80.222 65.4518 80.2126 65.4495C80.2024 65.4463 80.1945 65.4424 80.189 65.4369C80.1827 65.4313 80.1772 65.425 80.1717 65.418L79.7063 64.8069V65.4187C79.7063 65.4258 79.7047 65.4313 79.7016 65.4361C79.6984 65.44 79.6929 65.4439 79.6858 65.4479C79.678 65.4502 79.6677 65.4526 79.6543 65.455C79.6417 65.4565 79.6252 65.4573 79.6047 65.4573C79.5843 65.4573 79.5677 65.4565 79.5551 65.455C79.5417 65.4526 79.5315 65.4502 79.5236 65.4479C79.5158 65.4439 79.5102 65.44 79.5071 65.4361C79.5047 65.4313 79.5032 65.4258 79.5032 65.4187V63.7817C79.5032 63.7747 79.5047 63.7691 79.5071 63.7644C79.5102 63.7597 79.5158 63.755 79.5236 63.7518C79.5315 63.7487 79.5417 63.7463 79.5551 63.7447C79.5677 63.7432 79.5843 63.7424 79.6047 63.7424C79.6252 63.7424 79.6417 63.7432 79.6543 63.7447C79.6677 63.7463 79.678 63.7487 79.6858 63.7518C79.6929 63.755 79.6984 63.7597 79.7016 63.7644C79.7047 63.7691 79.7063 63.7747 79.7063 63.7817V64.7786L80.122 64.3203C80.1283 64.3117 80.1362 64.3054 80.1433 64.2998C80.1504 64.2943 80.159 64.2904 80.1693 64.2865C80.1795 64.2825 80.1913 64.2802 80.2055 64.2786C80.2189 64.2778 80.2362 64.277 80.2559 64.277C80.2764 64.277 80.2929 64.2778 80.3071 64.2786C80.3205 64.2802 80.3323 64.2817 80.3402 64.2849C80.3488 64.288 80.3551 64.292 80.3591 64.2959C80.363 64.3006 80.3646 64.3061 80.3646 64.314C80.3646 64.3235 80.3622 64.3337 80.3567 64.3432C80.3512 64.3534 80.3425 64.3644 80.3299 64.3778L79.9323 64.7778L80.3803 65.3597C80.3906 65.3747 80.3984 65.3849 80.4032 65.3943C80.4079 65.403 80.4095 65.4109 80.4095 65.418Z" fill="#0383B0"/>
<path fill-rule="evenodd" clip-rule="evenodd" d="M81.5024 64.8187C81.5024 64.851 81.4945 64.8731 81.4787 64.8872C81.463 64.9006 81.4441 64.9069 81.4244 64.9069H80.6992C80.6992 64.9691 80.7055 65.0243 80.7173 65.0731C80.7299 65.1227 80.7504 65.1644 80.7787 65.1998C80.8079 65.2353 80.8449 65.2621 80.8905 65.281C80.9362 65.2991 80.9929 65.3093 81.0583 65.3093C81.111 65.3093 81.1583 65.3046 81.1984 65.2959C81.2394 65.288 81.2748 65.2778 81.3047 65.2676C81.3346 65.2573 81.3591 65.2479 81.3787 65.2392C81.3976 65.2306 81.4118 65.2258 81.4221 65.2258C81.4276 65.2258 81.4331 65.2274 81.4378 65.2306C81.4417 65.2329 81.4457 65.2376 81.4472 65.2432C81.4496 65.2487 81.452 65.2565 81.4535 65.2668C81.4543 65.277 81.4551 65.2896 81.4551 65.3038C81.4551 65.3148 81.4543 65.3235 81.4535 65.3313C81.4528 65.3392 81.452 65.3463 81.4512 65.3518C81.4496 65.3581 81.4472 65.3636 81.4441 65.3691C81.4417 65.3739 81.4386 65.3778 81.4339 65.3825C81.4291 65.3872 81.4157 65.3943 81.3937 65.4046C81.3717 65.4148 81.3433 65.4243 81.3079 65.4345C81.2732 65.4439 81.2323 65.4526 81.1866 65.4605C81.1402 65.4684 81.0913 65.4723 81.0394 65.4723C80.948 65.4723 80.8693 65.4597 80.8008 65.4345C80.7331 65.4093 80.6756 65.3715 80.6291 65.3219C80.5827 65.2715 80.5472 65.2093 80.5236 65.1337C80.5 65.0589 80.4882 64.9715 80.4882 64.8715C80.4882 64.777 80.5 64.6912 80.5252 64.6156C80.5496 64.54 80.585 64.4754 80.6307 64.4235C80.6772 64.3707 80.7331 64.3306 80.7984 64.3014C80.8638 64.2739 80.937 64.2597 81.0173 64.2597C81.1039 64.2597 81.1779 64.2731 81.2386 64.3014C81.3 64.329 81.3496 64.3668 81.389 64.4132C81.4276 64.4605 81.4567 64.5156 81.4748 64.5794C81.4937 64.6424 81.5024 64.7101 81.5024 64.7817V64.8187ZM81.2992 64.7589C81.3016 64.6526 81.2787 64.5691 81.2283 64.5085C81.1787 64.4479 81.1055 64.418 81.0079 64.418C80.9575 64.418 80.9142 64.4266 80.8764 64.4455C80.8386 64.4644 80.8071 64.4896 80.7819 64.5211C80.7559 64.5518 80.7362 64.588 80.7228 64.6298C80.7087 64.6707 80.7008 64.714 80.6992 64.7589H81.2992ZM83.4496 65.4187C83.4496 65.4258 83.448 65.4313 83.4449 65.4361C83.4417 65.44 83.4362 65.4439 83.4291 65.4479C83.422 65.4502 83.4118 65.4526 83.3984 65.455C83.3858 65.4565 83.3693 65.4573 83.3496 65.4573C83.3291 65.4573 83.3126 65.4565 83.2992 65.455C83.2866 65.4526 83.2756 65.4502 83.2677 65.4479C83.2606 65.4439 83.2551 65.44 83.252 65.4361C83.248 65.4313 83.2465 65.4258 83.2465 65.4187V64.7487C83.2465 64.7014 83.2425 64.6589 83.2346 64.6203C83.226 64.5817 83.2134 64.5495 83.1953 64.5211C83.1772 64.4935 83.1543 64.4723 83.1268 64.4573C83.0992 64.4432 83.0669 64.4353 83.0291 64.4353C82.9827 64.4353 82.9354 64.4534 82.889 64.4888C82.8425 64.525 82.7906 64.5778 82.7346 64.6471V65.4187C82.7346 65.4258 82.7323 65.4313 82.7291 65.4361C82.726 65.44 82.7205 65.4439 82.7126 65.4479C82.7047 65.4502 82.6945 65.4526 82.6811 65.455C82.6685 65.4565 82.652 65.4573 82.6323 65.4573C82.6126 65.4573 82.5968 65.4565 82.5835 65.455C82.5701 65.4526 82.5591 65.4502 82.5512 65.4479C82.5433 65.4439 82.5378 65.44 82.5354 65.4361C82.5323 65.4313 82.5307 65.4258 82.5307 65.4187V64.7487C82.5307 64.7014 82.526 64.6589 82.5173 64.6203C82.5087 64.5817 82.4953 64.5495 82.4772 64.5211C82.4591 64.4935 82.4362 64.4723 82.4094 64.4573C82.3819 64.4432 82.3496 64.4353 82.3118 64.4353C82.2654 64.4353 82.2181 64.4534 82.1709 64.4888C82.1236 64.525 82.0716 64.5778 82.0165 64.6471V65.4187C82.0165 65.4258 82.0142 65.4313 82.011 65.4361C82.0079 65.44 82.0031 65.4439 81.9953 65.4479C81.9874 65.4502 81.978 65.4526 81.9646 65.455C81.9512 65.4565 81.9346 65.4573 81.9142 65.4573C81.8937 65.4573 81.878 65.4565 81.8646 65.455C81.8512 65.4526 81.8409 65.4502 81.8331 65.4479C81.8252 65.4439 81.8197 65.44 81.8165 65.4361C81.8142 65.4313 81.8126 65.4258 81.8126 65.4187V64.3148C81.8126 64.3085 81.8142 64.303 81.8165 64.2983C81.8189 64.2943 81.8236 64.2904 81.8315 64.2865C81.8386 64.2825 81.848 64.2802 81.8598 64.2786C81.8709 64.2778 81.8866 64.277 81.9055 64.277C81.9228 64.277 81.9386 64.2778 81.9496 64.2786C81.9622 64.2802 81.9716 64.2825 81.978 64.2865C81.9843 64.2904 81.9898 64.2943 81.9921 64.2983C81.9945 64.303 81.9968 64.3085 81.9968 64.3148V64.4613C82.0583 64.3912 82.1189 64.34 82.1779 64.3077C82.2362 64.2754 82.2953 64.2597 82.3551 64.2597C82.4008 64.2597 82.4417 64.2652 82.478 64.2754C82.5142 64.2865 82.5465 64.3006 82.5748 64.3203C82.6024 64.3392 82.626 64.3621 82.6457 64.3896C82.6654 64.4156 82.6819 64.4455 82.6953 64.4786C82.7315 64.4384 82.7661 64.4046 82.8 64.3762C82.8323 64.3479 82.8646 64.3258 82.8953 64.3085C82.9252 64.2912 82.9551 64.2786 82.9842 64.2715C83.0134 64.2628 83.0425 64.2597 83.0717 64.2597C83.1425 64.2597 83.2024 64.2723 83.2504 64.2967C83.2984 64.3219 83.337 64.355 83.3677 64.3967C83.3969 64.4384 83.4181 64.4872 83.4307 64.5439C83.4433 64.5998 83.4496 64.6589 83.4496 64.7211V65.4187ZM84.022 65.4187C84.022 65.4258 84.0205 65.4313 84.0165 65.4361C84.0134 65.44 84.0087 65.4439 84.0008 65.4479C83.9937 65.4502 83.9835 65.4526 83.9701 65.455C83.9575 65.4565 83.9402 65.4573 83.9197 65.4573C83.9 65.4573 83.8835 65.4565 83.8701 65.455C83.8567 65.4526 83.8465 65.4502 83.8394 65.4479C83.8315 65.4439 83.826 65.44 83.8228 65.4361C83.8197 65.4313 83.8189 65.4258 83.8189 65.4187V64.3148C83.8189 64.3093 83.8197 64.3038 83.8228 64.2991C83.826 64.2943 83.8315 64.2904 83.8394 64.2865C83.8465 64.2833 83.8567 64.281 83.8701 64.2794C83.8835 64.2778 83.9 64.277 83.9197 64.277C83.9402 64.277 83.9575 64.2778 83.9701 64.2794C83.9835 64.281 83.9937 64.2833 84.0008 64.2865C84.0087 64.2904 84.0134 64.2943 84.0165 64.2991C84.0205 64.3038 84.022 64.3093 84.022 64.3148V65.4187ZM84.0449 63.9432C84.0449 63.9904 84.0354 64.0227 84.0173 64.04C83.9992 64.0573 83.9661 64.066 83.9173 64.066C83.8701 64.066 83.8378 64.0573 83.8197 64.0408C83.8024 64.0243 83.7937 63.9928 83.7937 63.9455C83.7937 63.8983 83.8024 63.8652 83.8205 63.8487C83.8386 63.8313 83.8717 63.8227 83.9205 63.8227C83.9677 63.8227 84.0008 63.8306 84.0181 63.8479C84.0354 63.8644 84.0449 63.8959 84.0449 63.9432ZM84.9677 65.3369C84.9677 65.3613 84.9654 65.3802 84.9622 65.3935C84.9591 65.4077 84.9543 65.418 84.948 65.4243C84.9417 65.4306 84.9315 65.4369 84.9181 65.4424C84.9055 65.4487 84.8905 65.4526 84.874 65.4565C84.8567 65.4605 84.8394 65.4636 84.8205 65.466C84.8016 65.4683 84.7835 65.4699 84.7646 65.4699C84.7071 65.4699 84.6583 65.4621 84.6173 65.4471C84.5772 65.4321 84.5433 65.4093 84.5173 65.3786C84.4913 65.3479 84.4724 65.3093 84.4598 65.2621C84.4488 65.2156 84.4425 65.1597 84.4425 65.0967V64.4526H84.2874C84.2756 64.4526 84.2654 64.4463 84.2575 64.4329C84.2504 64.4203 84.2465 64.3991 84.2465 64.3691C84.2465 64.3534 84.248 64.3408 84.2496 64.3306C84.252 64.3195 84.2543 64.3101 84.2575 64.3038C84.2606 64.2967 84.2654 64.292 84.2709 64.2888C84.2764 64.2857 84.2819 64.2849 84.2882 64.2849H84.4425V64.0227C84.4425 64.0164 84.4441 64.0117 84.4465 64.0069C84.4496 64.0014 84.4551 63.9975 84.463 63.9935C84.4709 63.9896 84.4811 63.9872 84.4945 63.9857C84.5071 63.9841 84.5236 63.9833 84.5441 63.9833C84.5646 63.9833 84.5811 63.9841 84.5945 63.9857C84.6079 63.9872 84.6173 63.9896 84.6252 63.9935C84.6323 63.9975 84.6378 64.0014 84.6409 64.0069C84.6441 64.0117 84.6457 64.0164 84.6457 64.0227V64.2849H84.9276C84.9339 64.2849 84.9394 64.2857 84.9441 64.2888C84.9488 64.292 84.9535 64.2967 84.9567 64.3038C84.9606 64.3101 84.963 64.3195 84.9646 64.3306C84.9669 64.3408 84.9677 64.3534 84.9677 64.3691C84.9677 64.3991 84.9638 64.4203 84.9567 64.4329C84.9488 64.4463 84.9394 64.4526 84.9276 64.4526H84.6457V65.0668C84.6457 65.1424 84.6575 65.1998 84.6795 65.2384C84.7016 65.277 84.7417 65.2967 84.7992 65.2967C84.8181 65.2967 84.8346 65.2951 84.8496 65.2912C84.8638 65.2872 84.8772 65.2833 84.8882 65.2794C84.8992 65.2754 84.9094 65.2715 84.9173 65.2676C84.9252 65.2636 84.9331 65.2621 84.9394 65.2621C84.9433 65.2621 84.9472 65.2628 84.9512 65.2652C84.9543 65.2668 84.9575 65.2707 84.9591 65.277C84.9614 65.2825 84.963 65.2904 84.9646 65.3006C84.9669 65.3101 84.9677 65.3227 84.9677 65.3369ZM85.8811 64.3865C85.8811 64.4046 85.8811 64.4195 85.8803 64.4321C85.8795 64.4439 85.878 64.4534 85.8748 64.4605C85.8732 64.4676 85.8693 64.4731 85.8661 64.477C85.8622 64.4802 85.8575 64.4817 85.8512 64.4817C85.8441 64.4817 85.8362 64.4802 85.8268 64.477C85.8173 64.4731 85.8071 64.4691 85.7953 64.466C85.7835 64.4621 85.7701 64.4589 85.7551 64.455C85.7409 64.4518 85.7252 64.4502 85.7079 64.4502C85.6874 64.4502 85.6669 64.4542 85.6472 64.4621C85.6283 64.4707 85.6071 64.4841 85.5858 64.5038C85.5638 64.5227 85.5417 64.5471 85.5181 64.5786C85.4945 64.6101 85.4677 64.6479 85.4394 64.6928V65.4187C85.4394 65.4258 85.4378 65.4313 85.4346 65.4361C85.4307 65.44 85.426 65.4439 85.4181 65.4479C85.411 65.4502 85.4008 65.4526 85.3874 65.455C85.3748 65.4565 85.3575 65.4573 85.337 65.4573C85.3173 65.4573 85.3008 65.4565 85.2882 65.455C85.2748 65.4526 85.2638 65.4502 85.2567 65.4479C85.2488 65.4439 85.2433 65.44 85.2402 65.4361C85.237 65.4313 85.2362 65.4258 85.2362 65.4187V64.3148C85.2362 64.3085 85.237 64.303 85.2402 64.2983C85.2425 64.2943 85.2472 64.2904 85.2543 64.2865C85.2622 64.2825 85.2709 64.2802 85.2827 64.2786C85.2945 64.2778 85.3094 64.277 85.3283 64.277C85.3465 64.277 85.3614 64.2778 85.3732 64.2786C85.385 64.2802 85.3945 64.2825 85.4016 64.2865C85.4079 64.2904 85.4126 64.2943 85.4157 64.2983C85.4181 64.303 85.4197 64.3085 85.4197 64.3148V64.4754C85.4496 64.4313 85.478 64.3951 85.5047 64.3676C85.5315 64.34 85.5567 64.318 85.5803 64.3014C85.6039 64.2857 85.6276 64.2747 85.6504 64.2684C85.674 64.2621 85.6969 64.2597 85.7213 64.2597C85.7315 64.2597 85.7433 64.2597 85.7567 64.2613C85.7709 64.2621 85.7842 64.2652 85.7992 64.2676C85.8142 64.2715 85.8276 64.2747 85.8394 64.2794C85.8512 64.2833 85.8591 64.2872 85.8646 64.2912C85.8693 64.2951 85.8724 64.2991 85.874 64.303C85.8756 64.3069 85.8772 64.3117 85.8787 64.3172C85.8795 64.3227 85.8803 64.3313 85.8811 64.3416C85.8811 64.3534 85.8811 64.3676 85.8811 64.3865ZM86.8913 65.4203C86.8913 65.4298 86.8882 65.4376 86.8819 65.4424C86.8748 65.4479 86.8661 65.451 86.8543 65.4534C86.8433 65.4558 86.826 65.4573 86.8039 65.4573C86.7835 65.4573 86.7661 65.4558 86.7535 65.4534C86.7409 65.451 86.7315 65.4479 86.726 65.4424C86.7197 65.4376 86.7173 65.4306 86.7173 65.4203V65.3101C86.6693 65.3613 86.6158 65.4014 86.5559 65.4298C86.4969 65.4581 86.4339 65.4723 86.3677 65.4723C86.3094 65.4723 86.2567 65.4644 86.2102 65.4495C86.163 65.4345 86.1228 65.4124 86.0898 65.3841C86.0567 65.3558 86.0307 65.3203 86.0126 65.2786C85.9937 65.2369 85.985 65.1896 85.985 65.1361C85.985 65.0739 85.9976 65.0195 86.0228 64.9739C86.048 64.9282 86.0843 64.8904 86.1323 64.8597C86.1795 64.8298 86.2378 64.8069 86.3063 64.792C86.3748 64.777 86.452 64.7691 86.5378 64.7691H86.6906V64.6833C86.6906 64.6408 86.6858 64.603 86.6772 64.5699C86.6677 64.5376 86.6535 64.5101 86.6331 64.488C86.6134 64.4668 86.5874 64.4502 86.5559 64.4392C86.5236 64.4282 86.4843 64.4227 86.4378 64.4227C86.3882 64.4227 86.3433 64.4282 86.3039 64.4408C86.2646 64.4526 86.2291 64.466 86.2 64.4802C86.1701 64.4951 86.1449 64.5077 86.1252 64.5203C86.1055 64.5321 86.0906 64.5384 86.0803 64.5384C86.074 64.5384 86.0677 64.5369 86.0638 64.5329C86.0583 64.5306 86.0543 64.525 86.0504 64.5187C86.0465 64.5124 86.0441 64.5038 86.0425 64.4935C86.0409 64.4833 86.0402 64.4723 86.0402 64.4597C86.0402 64.44 86.0409 64.4235 86.0441 64.4117C86.0472 64.3998 86.0543 64.3888 86.0654 64.3786C86.0756 64.3676 86.0953 64.355 86.122 64.3408C86.1488 64.3266 86.1803 64.3132 86.215 64.3006C86.2504 64.2888 86.2882 64.2794 86.3307 64.2715C86.3717 64.2628 86.4142 64.2597 86.4559 64.2597C86.5354 64.2597 86.6031 64.2684 86.6583 64.2865C86.7142 64.3046 86.759 64.3313 86.7929 64.366C86.8276 64.4006 86.852 64.4439 86.8677 64.4951C86.8835 64.5463 86.8913 64.6069 86.8913 64.6754V65.4203ZM86.6906 64.9148H86.5173C86.4622 64.9148 86.4142 64.9195 86.3732 64.929C86.3323 64.9384 86.2984 64.9526 86.2717 64.9707C86.2449 64.9896 86.2252 65.0109 86.2118 65.0369C86.1992 65.0628 86.1929 65.0928 86.1929 65.1258C86.1929 65.1833 86.211 65.229 86.2472 65.2628C86.2842 65.2967 86.3346 65.314 86.4 65.314C86.4528 65.314 86.5024 65.3006 86.5472 65.2739C86.5929 65.2471 86.6402 65.2054 86.6906 65.1495V64.9148ZM88.0937 65.4203C88.0937 65.4298 88.0906 65.4376 88.0843 65.4424C88.0779 65.4479 88.0685 65.451 88.0567 65.4534C88.0457 65.4558 88.0291 65.4573 88.0071 65.4573C87.9858 65.4573 87.9685 65.4558 87.9559 65.4534C87.9441 65.451 87.9346 65.4479 87.9283 65.4424C87.9228 65.4376 87.9197 65.4306 87.9197 65.4203V65.3101C87.8717 65.3613 87.8181 65.4014 87.7591 65.4298C87.6992 65.4581 87.6362 65.4723 87.5701 65.4723C87.5126 65.4723 87.4598 65.4644 87.4126 65.4495C87.3661 65.4345 87.3252 65.4124 87.2929 65.3841C87.2598 65.3558 87.2339 65.3203 87.215 65.2786C87.1968 65.2369 87.1874 65.1896 87.1874 65.1361C87.1874 65.0739 87.2 65.0195 87.2252 64.9739C87.2504 64.9282 87.2874 64.8904 87.3346 64.8597C87.3819 64.8298 87.4402 64.8069 87.5087 64.792C87.5772 64.777 87.6551 64.7691 87.7409 64.7691H87.8929V64.6833C87.8929 64.6408 87.8882 64.603 87.8795 64.5699C87.8701 64.5376 87.8559 64.5101 87.8362 64.488C87.8158 64.4668 87.7905 64.4502 87.7583 64.4392C87.7268 64.4282 87.6874 64.4227 87.6409 64.4227C87.5906 64.4227 87.5464 64.4282 87.5071 64.4408C87.4669 64.4526 87.4323 64.466 87.4024 64.4802C87.3732 64.4951 87.348 64.5077 87.3276 64.5203C87.3079 64.5321 87.2929 64.5384 87.2835 64.5384C87.2764 64.5384 87.2709 64.5369 87.2661 64.5329C87.2614 64.5306 87.2567 64.525 87.2528 64.5187C87.2496 64.5124 87.2472 64.5038 87.2449 64.4935C87.2433 64.4833 87.2425 64.4723 87.2425 64.4597C87.2425 64.44 87.2441 64.4235 87.2472 64.4117C87.2496 64.3998 87.2567 64.3888 87.2677 64.3786C87.2787 64.3676 87.2976 64.355 87.3244 64.3408C87.3512 64.3266 87.3827 64.3132 87.4181 64.3006C87.4528 64.2888 87.4913 64.2794 87.5331 64.2715C87.5748 64.2628 87.6165 64.2597 87.659 64.2597C87.7386 64.2597 87.8055 64.2684 87.8614 64.2865C87.9165 64.3046 87.9614 64.3313 87.9961 64.366C88.0299 64.4006 88.0551 64.4439 88.0709 64.4951C88.0858 64.5463 88.0937 64.6069 88.0937 64.6754V65.4203ZM87.8929 64.9148H87.7205C87.6654 64.9148 87.6165 64.9195 87.5756 64.929C87.5354 64.9384 87.5016 64.9526 87.474 64.9707C87.4472 64.9896 87.4276 65.0109 87.415 65.0369C87.4024 65.0628 87.3961 65.0928 87.3961 65.1258C87.3961 65.1833 87.4142 65.229 87.4504 65.2628C87.4866 65.2967 87.537 65.314 87.6031 65.314C87.6559 65.314 87.7055 65.3006 87.7504 65.2739C87.7953 65.2471 87.8433 65.2054 87.8929 65.1495V64.9148ZM89.415 65.4187C89.415 65.4258 89.4134 65.4313 89.4094 65.4361C89.4063 65.44 89.4016 65.4439 89.3937 65.4479C89.3866 65.4502 89.3764 65.4526 89.363 65.455C89.3496 65.4565 89.3339 65.4573 89.3142 65.4573C89.2929 65.4573 89.2764 65.4565 89.263 65.455C89.2496 65.4526 89.2402 65.4502 89.2323 65.4479C89.2244 65.4439 89.2197 65.44 89.2165 65.4361C89.2134 65.4313 89.211 65.4258 89.211 65.4187V64.7723C89.211 64.7101 89.2063 64.6589 89.1968 64.6203C89.1874 64.5817 89.1732 64.5495 89.1543 64.5211C89.1354 64.4935 89.111 64.4723 89.0819 64.4573C89.052 64.4432 89.0173 64.4353 88.9787 64.4353C88.9283 64.4353 88.878 64.4534 88.8276 64.4888C88.7772 64.525 88.7244 64.5778 88.6693 64.6471V65.4187C88.6693 65.4258 88.6669 65.4313 88.6638 65.4361C88.6606 65.44 88.6559 65.4439 88.648 65.4479C88.6402 65.4502 88.6307 65.4526 88.6173 65.455C88.6039 65.4565 88.5874 65.4573 88.5669 65.4573C88.5465 65.4573 88.5307 65.4565 88.5173 65.455C88.5039 65.4526 88.4937 65.4502 88.4858 65.4479C88.478 65.4439 88.4724 65.44 88.4701 65.4361C88.4669 65.4313 88.4654 65.4258 88.4654 65.4187V64.3148C88.4654 64.3085 88.4669 64.303 88.4693 64.2983C88.4717 64.2943 88.4764 64.2904 88.4843 64.2865C88.4913 64.2825 88.5008 64.2802 88.5126 64.2786C88.5236 64.2778 88.5394 64.277 88.5583 64.277C88.5764 64.277 88.5913 64.2778 88.6031 64.2786C88.615 64.2802 88.6244 64.2825 88.6307 64.2865C88.637 64.2904 88.6425 64.2943 88.6449 64.2983C88.648 64.303 88.6496 64.3085 88.6496 64.3148V64.4613C88.711 64.3912 88.7724 64.34 88.8346 64.3077C88.8961 64.2754 88.9583 64.2597 89.0213 64.2597C89.0945 64.2597 89.1559 64.2723 89.2063 64.2967C89.2567 64.3219 89.2969 64.355 89.3283 64.3967C89.3591 64.4384 89.3811 64.4872 89.3945 64.5439C89.4079 64.5998 89.415 64.6668 89.415 64.7455V65.4187Z" fill="#0383B0"/>
<path fill-rule="evenodd" clip-rule="evenodd" d="M53.689 47.2699C54.5984 48.1156 54.9252 49.4644 54.8598 51.1258C51.326 55.9093 47.3118 59.7652 42.8165 62.6951C44.7787 59.7872 46.2 57.0471 47.0795 54.4747L47.1299 58.0439C48.8032 55.8676 49.9079 53.3077 50.4449 50.3652C50.7732 51.9014 50.9425 53.277 50.9528 54.492C52.8614 51.9857 53.8583 49.8959 53.5913 48.318C53.4205 47.3093 52.774 47.125 52.1488 47.8195C52.0732 47.9038 52.1465 48.0778 52.1874 47.988C52.274 47.7983 52.4417 47.8581 52.6016 48.0306C52.9693 48.4274 52.8008 49.1479 51.9126 49.0455C51.3055 48.9754 51.163 48.177 51.5323 47.7723C52.1748 47.0684 53.1016 46.7235 53.689 47.2699Z" fill="#0383B0"/>
<path fill-rule="evenodd" clip-rule="evenodd" d="M55.8709 51.6077C51.811 56.4644 46.9614 60.7369 41.3205 64.425C43.8559 63.5621 46.2693 62.6951 48.6102 61.9809C49.389 61.7432 49.7315 61.9613 49.5953 62.4754C49.4953 62.3739 49.363 62.3439 49.1976 62.3825C48.6591 62.5077 48.5283 63.1369 49.1299 63.5321C49.6354 63.8644 50.2921 63.1093 50.3228 62.518C50.3575 61.8526 49.4756 61.3621 47.4984 61.029C49.7906 60.1447 52.5535 58.6061 55.7858 56.4117C54.5331 56.7353 53.2362 56.8652 51.8961 56.8006C55.9315 55.0715 59.015 52.8668 61.148 50.1872C59.6992 51.2187 57.9402 51.692 55.8709 51.6077Z" fill="#F4C60A"/>
</g>
<rect x="1.5" y="1" width="110" height="110" rx="9" stroke="#CCCCCC" stroke-width="2"/>
<defs>
<clipPath id="clip0_528_598">
<rect x="2.5" y="2" width="108" height="108" rx="8" fill="white"/>
</clipPath>
</defs>
</svg>
