<svg width="113" height="112" viewBox="0 0 113 112" fill="none" xmlns="http://www.w3.org/2000/svg">
<g clip-path="url(#clip0_6_7360)">
<rect x="2.49988" y="2" width="108" height="108" rx="8" fill="white"/>
<path d="M43.7406 42.1689L43.2183 44.7342C48.3794 44.7136 64.6201 38.7454 65.3743 35.1848C65.3743 35.1854 65.4241 34.9517 65.4727 34.7167C65.5213 34.483 65.5693 34.2493 65.5662 34.2493C58.5303 38.9835 47.9014 42.1583 43.7406 42.1689ZM42.7559 46.5946L42.2691 48.9555C47.2451 48.9461 63.6709 42.9679 64.425 39.4067L64.6338 38.3883C57.358 43.4266 47.1697 46.4718 42.7559 46.5946ZM41.6957 50.9025L41.1722 53.4653C46.1794 53.3681 62.5752 47.4784 63.3294 43.9184L63.5781 42.7005C57.9383 46.6202 46.2367 50.9268 41.6957 50.9025Z" fill="url(#paint0_linear_6_7360)"/>
<path d="M16.8353 58.8097H18.7206V65.3963H18.7642C19.4361 64.227 20.6489 63.4679 22.3398 63.4679C24.9407 63.4679 26.7817 65.6343 26.7593 68.821C26.7593 72.568 24.3984 74.4309 22.0575 74.4309C20.5405 74.4309 19.327 73.8463 18.5473 72.4602H18.4825L18.3965 74.1928H16.7493C16.7923 73.4773 16.8353 72.4153 16.8353 71.4842V58.8097ZM18.7206 69.9896C18.7206 70.2277 18.7642 70.4652 18.8079 70.6827C19.1762 72.004 20.2812 72.9152 21.668 72.9152C23.6611 72.9152 24.8534 71.2897 24.8534 68.884C24.8534 66.7818 23.7689 64.9843 21.7328 64.9843C20.4321 64.9843 19.2186 65.8724 18.8284 67.3246C18.7854 67.5415 18.7206 67.8008 18.7206 68.1049V69.9896Z" fill="#1B517E"/>
<path d="M36.2721 71.6793C36.2721 72.5898 36.3151 73.4773 36.4454 74.1928H34.7115L34.56 72.8709H34.4946C33.91 73.6948 32.7825 74.4309 31.2886 74.4309C29.1646 74.4309 28.082 72.937 28.082 71.4206C28.082 68.8846 30.3344 67.4972 34.3868 67.5209V67.3028C34.3868 66.4371 34.1487 64.8758 32.0035 64.8758C31.0281 64.8758 30.0103 65.1787 29.273 65.6562L28.8386 64.3991C29.7062 63.8363 30.9639 63.4679 32.2846 63.4679C35.4918 63.4679 36.2721 65.6562 36.2721 67.7578V71.6793ZM34.4304 68.841C32.3494 68.7973 29.9885 69.1663 29.9885 71.2018C29.9885 72.4384 30.8112 73.0236 31.786 73.0236C33.1515 73.0236 34.0178 72.156 34.3213 71.2685C34.3868 71.0722 34.4304 70.8559 34.4304 70.6621V68.841Z" fill="#1B517E"/>
<path d="M39.198 66.5433C39.198 65.4601 39.1756 64.5732 39.1114 63.7057H40.7998L40.9095 65.4389H40.9518C41.4729 64.4436 42.6864 63.4676 44.4196 63.4676C45.8699 63.4676 48.1248 64.3345 48.1248 67.9301V74.1931H46.2171V68.1476C46.2171 66.4573 45.5901 65.0482 43.7908 65.0482C42.5343 65.0482 41.5576 65.9375 41.2329 66.9996C41.1469 67.2364 41.1033 67.5623 41.1033 67.8883V74.1931H39.198V66.5433Z" fill="#1B517E"/>
<path d="M52.8043 68.5163H52.8473C53.1078 68.1473 53.4761 67.6924 53.7803 67.3246L56.8567 63.7061H59.1533L55.1016 68.0177L59.7155 74.1929H57.3989L53.7803 69.1664L52.8043 70.2496V74.1929H50.9189V58.8098H52.8043V68.5163Z" fill="#1B517E"/>
<path d="M75.4261 64.0771C75.3551 63.9923 75.2853 63.9076 75.2099 63.8297C75.0865 63.7025 74.9493 63.5822 74.8035 63.4688C74.0145 62.8244 73.0609 62.4454 72.0332 62.4454C70.9238 62.4454 69.9023 62.8904 69.0802 63.6315C69.0559 63.6464 69.0353 63.6633 69.011 63.677C68.9817 63.6919 68.94 63.7137 68.8913 63.7006C68.7567 63.6651 68.6115 63.5212 68.6109 63.3149V59.0263C68.6109 58.7576 68.3896 58.5401 68.1191 58.5401H66.0325C65.7601 58.5401 65.5401 58.7576 65.5401 59.0263V59.1758C65.5401 59.1808 65.5389 59.1852 65.5389 59.1914V59.6888L65.5426 73.5125C65.5426 73.7867 65.7645 74.0098 66.0381 74.0098H67.9272C68.0475 74.0098 68.1565 73.9643 68.2432 73.8921C68.2457 73.8902 68.25 73.8902 68.2513 73.8877C68.2544 73.8858 68.2556 73.8827 68.2575 73.8802C68.298 73.8447 68.3298 73.8029 68.3566 73.7562H68.3572C68.3896 73.6951 68.4114 73.6309 68.4189 73.5599C68.4563 73.2545 68.6645 73.0856 68.7935 73.1298C68.8377 73.1441 68.8801 73.1653 68.9238 73.1953C68.968 73.2227 69.011 73.2526 69.0534 73.2806C69.1812 73.3741 69.7452 73.7599 70.1809 73.9544C70.4009 74.0516 71.1014 74.2891 71.9147 74.2891C72.7287 74.2891 73.3065 74.1089 73.4429 74.0728C73.5801 74.036 73.7147 73.9899 73.8443 73.9307C74.4813 73.6565 74.993 73.2806 75.3825 72.8039C75.767 72.3358 76.0862 71.7817 76.3448 71.1454C76.7293 70.3071 76.9481 69.3467 76.9481 68.3233C76.9481 66.6524 76.3629 65.1472 75.4261 64.0771ZM71.1176 72.0809C69.5888 72.0809 68.3485 70.4343 68.3485 68.4037C68.3485 66.3719 69.5888 64.7253 71.1176 64.7253C72.6458 64.7253 73.8848 66.3719 73.8848 68.4037C73.8848 70.4343 72.6458 72.0809 71.1176 72.0809Z" fill="#1B517E"/>
<path d="M82.38 63.6757C82.3781 63.6476 82.375 63.6202 82.3725 63.5934V63.2269C82.3725 62.9515 82.1506 62.7283 81.8752 62.7283H79.7723C79.4968 62.7283 79.2737 62.9515 79.2737 63.2269V74.5558C79.2631 74.8443 78.9122 75.2401 78.5065 75.338C78.3195 75.3959 78.1319 75.4227 77.9437 75.414C77.7555 75.4071 77.6264 75.4832 77.5535 75.6421C77.5249 75.7132 77.5037 75.8079 77.4881 75.9244C77.475 76.0397 77.4912 77.2538 77.4993 77.3542C77.5074 77.4558 77.5249 77.5418 77.5535 77.6135C77.6402 77.7443 77.7922 77.831 78.0085 77.8746C78.0808 77.9039 79.4769 77.9076 80.4161 77.6795C80.7845 77.5904 81.0811 77.4121 81.3279 77.2258C81.5716 77.0376 81.7891 76.7982 81.9786 76.509C82.1955 76.1625 82.3139 75.725 82.3364 75.1977C82.3432 75.0388 82.3725 74.6237 82.3725 74.5751V64.2809C82.375 64.2254 82.3769 64.1693 82.38 64.1101C82.3875 63.9661 82.3875 63.8209 82.38 63.6757Z" fill="#1B517E"/>
<path d="M94.7287 64.0771C94.6589 63.9923 94.5885 63.9076 94.5124 63.8297C94.389 63.7025 94.2513 63.5822 94.1061 63.4688C93.3177 62.8244 92.3641 62.4454 91.3357 62.4454C90.2269 62.4454 89.2054 62.8904 88.384 63.6315C88.3591 63.6464 88.3379 63.6633 88.3129 63.677C88.2843 63.6919 88.2438 63.7137 88.1945 63.7006C88.0599 63.6651 87.9147 63.5212 87.9128 63.3149V59.0263C87.9128 58.7576 87.6934 58.5401 87.4223 58.5401H85.3357C85.0633 58.5401 84.8433 58.7576 84.8433 59.0263V59.1758C84.8433 59.1808 84.8414 59.1852 84.8414 59.1914V59.6888L84.8445 73.5125C84.8445 73.7867 85.067 74.0098 85.3419 74.0098H87.2285C87.3506 74.0098 87.4603 73.9643 87.5463 73.8921C87.5488 73.8902 87.5513 73.8902 87.5544 73.8877C87.5569 73.8858 87.5588 73.8827 87.5607 73.8802C87.5993 73.8447 87.6336 73.8029 87.6598 73.7562L87.661 73.7543C87.6934 73.6951 87.7146 73.6309 87.7221 73.5599C87.7595 73.2545 87.9664 73.0856 88.096 73.1298C88.1403 73.1441 88.1839 73.1653 88.2269 73.1953C88.2699 73.2227 88.3129 73.2526 88.3572 73.2806C88.4843 73.3741 89.0478 73.7599 89.484 73.9544C89.704 74.0516 90.4033 74.2891 91.2185 74.2891C92.0306 74.2891 92.6084 74.1089 92.7461 74.0728C92.8832 74.036 93.0172 73.9899 93.1475 73.9307C93.7826 73.6565 94.2968 73.2806 94.6863 72.8039C95.0709 72.3358 95.39 71.7817 95.648 71.1454C96.0319 70.3071 96.2507 69.3467 96.2507 68.3233C96.2507 66.6524 95.6648 65.1472 94.7287 64.0771ZM90.4214 72.0809C88.8913 72.0809 87.6523 70.4343 87.6523 68.4037C87.6523 66.3719 88.8913 64.7253 90.4214 64.7253C91.9496 64.7253 93.1886 66.3719 93.1886 68.4037C93.1886 70.4343 91.9496 72.0809 90.4214 72.0809Z" fill="#1B517E"/>
<path d="M80.7867 58.6642C80.4875 58.6686 80.2245 58.7365 79.9983 58.868C79.7758 59.0039 79.6038 59.1853 79.4816 59.4078C79.3545 59.634 79.2915 59.8833 79.2915 60.16C79.2915 60.4274 79.3545 60.6674 79.4722 60.8892C79.59 61.1117 79.7577 61.2887 79.9708 61.424C80.1884 61.5555 80.442 61.6234 80.7325 61.6284C81.0584 61.6234 81.3351 61.5555 81.562 61.424C81.7883 61.2887 81.9603 61.1117 82.0781 60.8892C82.1959 60.6674 82.2551 60.4274 82.2551 60.16C82.2551 59.8833 82.1915 59.634 82.0737 59.4078C81.9559 59.1853 81.7839 59.0039 81.5658 58.868C81.3482 58.7365 81.0858 58.6686 80.7867 58.6642Z" fill="#1B517E"/>
</g>
<rect x="1.5" y="1" width="110" height="110" rx="9" stroke="#CCCCCC" stroke-width="2"/>
<defs>
<linearGradient id="paint0_linear_6_7360" x1="39.5824" y1="34.6272" x2="69.0375" y2="33.5986" gradientUnits="userSpaceOnUse">
<stop stop-color="#3AA7DF"/>
<stop offset="0.12" stop-color="#227AAB"/>
<stop offset="0.42" stop-color="#1B517E"/>
<stop offset="0.57" stop-color="#8B8666"/>
<stop offset="1" stop-color="#EFC900"/>
</linearGradient>
<clipPath id="clip0_6_7360">
<rect x="2.5" y="2" width="108" height="108" rx="8" fill="white"/>
</clipPath>
</defs>
</svg>
