<svg width="113" height="112" viewBox="0 0 113 112" fill="none" xmlns="http://www.w3.org/2000/svg">
<g clip-path="url(#clip0_517_508)">
<rect x="2.5" y="2" width="108" height="108" rx="8" fill="white"/>
<path d="M16.5 48.9456C16.9177 48.836 17.3355 48.7263 17.7804 48.6097C18.124 49.8856 18.4651 51.1521 18.8128 52.4427C24.7947 50.8418 30.763 49.2445 36.7474 47.6429C36.8641 48.0749 36.9745 48.4839 37.0911 48.9163C30.6801 50.632 24.2882 52.3426 17.882 54.0568C17.7125 53.4308 17.5493 52.8326 17.3883 52.2337C17.1151 51.2163 16.8433 50.1985 16.5693 49.1815C16.5543 49.125 16.5235 49.0729 16.5 49.019C16.5 48.9944 16.5 48.9702 16.5 48.9456Z" fill="#28317D"/>
<path d="M43.9352 53.9472C44.0541 54.3891 44.1641 54.7988 44.2785 55.2242C42.1377 55.7967 40.0186 56.3638 37.8752 56.9366C37.4729 55.4395 37.0746 53.9556 36.6723 52.4592C30.6838 54.0609 24.7173 55.6563 18.735 57.2561C18.9082 57.9016 19.0765 58.5288 19.2507 59.179C23.522 58.0373 27.779 56.8992 32.061 55.7546C32.1747 56.176 32.2862 56.5901 32.4035 57.0269C27.7057 58.2845 23.0188 59.5388 18.3144 60.7979C17.9124 59.3004 17.5163 57.826 17.1132 56.3245C23.9449 54.4962 30.7645 52.6716 37.609 50.84C38.0091 52.3301 38.4063 53.8089 38.8109 55.3159C40.517 54.86 42.2151 54.4064 43.9352 53.9468V53.9472Z" fill="#E62530"/>
<path d="M35.5353 60.9861C35.0207 59.0653 34.5124 57.1681 33.9975 55.2451C34.4134 55.1318 34.8212 55.0207 35.258 54.9015C35.6596 56.3935 36.0576 57.8708 36.4639 59.3811C39.2378 58.6395 42.0009 57.9005 44.7861 57.1556C44.8995 57.5708 45.011 57.979 45.1302 58.4151C41.9331 59.2718 38.7463 60.1256 35.5353 60.9861Z" fill="#ED721F"/>
<path d="M38.0425 47.3036C38.4731 47.1885 38.8776 47.0803 39.3082 46.9651C39.537 47.8145 39.7622 48.6508 39.9922 49.5049C39.5587 49.6216 39.1505 49.7316 38.7265 49.8457C38.4965 48.9907 38.2724 48.1582 38.0425 47.3033V47.3036Z" fill="#ED721F"/>
<path d="M22.9059 47.238C23.1336 48.0907 23.3562 48.9236 23.5851 49.7804C23.1619 49.8944 22.7537 50.0045 22.3245 50.12C22.095 49.2691 21.8694 48.4329 21.6394 47.5802C22.0616 47.4661 22.4712 47.3554 22.9059 47.238Z" fill="#ED721F"/>
<path d="M49.9941 51.239H52.2375C52.4493 51.239 52.6675 51.2229 52.8922 51.1908C53.1232 51.1587 53.3318 51.0978 53.518 51.0079C53.7105 50.9116 53.8678 50.7832 53.9898 50.6228C54.1117 50.4559 54.1727 50.2377 54.1727 49.9681C54.1727 49.7049 54.1149 49.4835 53.9994 49.3037C53.8903 49.124 53.7458 48.9796 53.5661 48.8705C53.3928 48.7549 53.1938 48.6715 52.9692 48.6201C52.751 48.5688 52.5295 48.5431 52.3049 48.5431H49.9941V51.239ZM49.9941 48.0521H52.3049C52.5103 48.0521 52.7092 48.036 52.9018 48.0039C53.1008 47.9654 53.2773 47.9012 53.4313 47.8114C53.5918 47.7151 53.7202 47.5899 53.8165 47.4359C53.9127 47.2754 53.9609 47.0764 53.9609 46.839C53.9609 46.595 53.9095 46.3864 53.8068 46.2131C53.7106 46.0334 53.579 45.889 53.4121 45.7799C53.2516 45.6643 53.0687 45.5809 52.8633 45.5295C52.6579 45.4718 52.4493 45.4429 52.2375 45.4429H49.9941V48.0521ZM52.2375 45C52.5199 45 52.7927 45.0353 53.0558 45.1059C53.3254 45.1765 53.5629 45.2888 53.7683 45.4429C53.9737 45.5905 54.1374 45.7799 54.2593 46.0109C54.3877 46.242 54.4519 46.518 54.4519 46.839C54.4519 47.1856 54.3524 47.4872 54.1534 47.744C53.9609 47.9943 53.6945 48.174 53.3543 48.2832C53.7779 48.3987 54.1053 48.6137 54.3364 48.9282C54.5674 49.2363 54.683 49.5862 54.683 49.9777C54.683 50.3243 54.6092 50.6131 54.4615 50.8442C54.3139 51.0689 54.1246 51.2486 53.8935 51.3834C53.6624 51.5118 53.3992 51.6048 53.104 51.6626C52.8151 51.714 52.5263 51.7396 52.2375 51.7396H49.4742V45H52.2375Z" fill="#28317D"/>
<path d="M60.3914 46.9834V51.7396H59.9197V50.7287C59.6886 51.101 59.403 51.377 59.0628 51.5567C58.7226 51.73 58.3599 51.8167 57.9748 51.8167C57.641 51.8167 57.3265 51.7589 57.0312 51.6433C56.7424 51.5214 56.4889 51.3513 56.2706 51.1331C56.0524 50.9148 55.8791 50.6581 55.7507 50.3628C55.6223 50.0611 55.5582 49.7274 55.5582 49.3615C55.5582 48.9956 55.6223 48.6651 55.7507 48.3698C55.8791 48.0681 56.0524 47.8114 56.2706 47.5996C56.4889 47.3878 56.7424 47.2241 57.0312 47.1085C57.3265 46.9866 57.641 46.9256 57.9748 46.9256C58.3599 46.9256 58.729 47.0155 59.082 47.1952C59.4415 47.3749 59.7207 47.6509 59.9197 48.0232V46.9834H60.3914ZM57.9748 47.3781C57.7052 47.3781 57.4517 47.4263 57.2142 47.5225C56.9767 47.6124 56.7713 47.744 56.598 47.9173C56.4247 48.0906 56.2867 48.2992 56.184 48.5431C56.0813 48.787 56.0299 49.0598 56.0299 49.3615C56.0299 49.6568 56.0813 49.9296 56.184 50.1799C56.2867 50.4238 56.4247 50.6324 56.598 50.8057C56.7713 50.979 56.9767 51.1138 57.2142 51.2101C57.4517 51.3064 57.7052 51.3545 57.9748 51.3545C58.4177 51.3545 58.7835 51.2582 59.0724 51.0657C59.3676 50.8667 59.5891 50.6196 59.7367 50.3243C59.8843 50.029 59.9582 49.7113 59.9582 49.3711C59.9582 49.0245 59.8843 48.7036 59.7367 48.4083C59.5891 48.1131 59.3676 47.8692 59.0724 47.6766C58.7835 47.4776 58.4177 47.3781 57.9748 47.3781Z" fill="#28317D"/>
<path d="M62.1187 46.9834V47.8306C62.3048 47.5033 62.5487 47.269 62.8504 47.1278C63.1585 46.9802 63.4794 46.9031 63.8132 46.8967C64.1342 46.8967 64.4262 46.9449 64.6894 47.0411C64.9525 47.1374 65.1772 47.2754 65.3633 47.4552C65.5495 47.6349 65.6939 47.8563 65.7966 48.1195C65.9057 48.3762 65.9603 48.6683 65.9603 48.9956V51.7396H65.4885V49.0053C65.4885 48.4597 65.3344 48.0489 65.0264 47.7729C64.7247 47.4905 64.3139 47.3525 63.794 47.3589C63.5501 47.3589 63.3254 47.4038 63.12 47.4937C62.9146 47.5835 62.7381 47.7055 62.5905 47.8595C62.4428 48.0136 62.3273 48.1965 62.2439 48.4083C62.1668 48.6201 62.1283 48.848 62.1283 49.0919V51.7396H61.6565V46.9834H62.1187Z" fill="#28317D"/>
<path d="M67.6374 45V49.063L69.8808 46.9834H70.5066V47.0026L68.0996 49.2267L70.7858 51.7107V51.7396H70.1889L67.6374 49.4096V51.7396H67.1753V45H67.6374Z" fill="#28317D"/>
<path d="M50.8634 53.5096V59.71H54.7252V61.0187H49.4474V53.5096H50.8634Z" fill="#28317D"/>
<path d="M60.0512 55.7301H61.3063V61.0187H60.0727L60.0083 60.2463C59.9368 60.4037 59.8331 60.5395 59.6972 60.654C59.5613 60.7684 59.4147 60.8649 59.2574 60.9436C59.1001 61.0223 58.9356 61.0795 58.764 61.1152C58.5995 61.1582 58.4421 61.1796 58.292 61.1796C57.8986 61.1796 57.5339 61.1224 57.1978 61.008C56.8688 60.8864 56.5827 60.7076 56.3396 60.4716C56.0964 60.2356 55.9069 59.9424 55.771 59.592C55.6352 59.2415 55.5672 58.8339 55.5672 58.3691C55.5672 57.9114 55.6387 57.5109 55.7818 57.1676C55.9248 56.8172 56.1179 56.5275 56.361 56.2987C56.6113 56.0627 56.9046 55.8875 57.2407 55.773C57.5768 55.6586 57.938 55.6014 58.3241 55.6014C58.6817 55.6014 59.0143 55.6801 59.3218 55.8374C59.6293 55.9876 59.8581 56.195 60.0083 56.4596L60.0512 55.7301ZM58.4421 56.7707C58.2276 56.7707 58.0238 56.8064 57.8307 56.878C57.6376 56.9495 57.4695 57.0532 57.3265 57.1891C57.1906 57.3249 57.0798 57.493 56.9939 57.6932C56.9153 57.8935 56.876 58.1188 56.876 58.3691C56.876 58.6194 56.9153 58.8446 56.9939 59.0449C57.0798 59.2451 57.1906 59.4168 57.3265 59.5598C57.4695 59.6957 57.6376 59.7994 57.8307 59.8709C58.0238 59.9424 58.2276 59.9782 58.4421 59.9782C58.7854 59.9782 59.0715 59.8995 59.3003 59.7422C59.5292 59.5848 59.7008 59.3882 59.8152 59.1522C59.9297 58.909 59.9869 58.6515 59.9869 58.3798C59.9869 58.1009 59.9297 57.8434 59.8152 57.6074C59.7008 57.3643 59.5292 57.164 59.3003 57.0067C59.0715 56.8494 58.7854 56.7707 58.4421 56.7707Z" fill="#28317D"/>
<path d="M65.9548 61.0187V58.1867C65.9548 58.0151 65.9297 57.8506 65.8797 57.6932C65.8368 57.5288 65.7688 57.3857 65.6759 57.2641C65.59 57.1354 65.4792 57.0353 65.3433 56.9638C65.2074 56.8923 65.0501 56.8565 64.8713 56.8565C64.6925 56.8565 64.5316 56.8923 64.3886 56.9638C64.2527 57.0353 64.1347 57.1354 64.0346 57.2641C63.9416 57.3857 63.8701 57.5288 63.82 57.6932C63.77 57.8506 63.7449 58.0151 63.7449 58.1867V61.0187H62.4362V55.7194H63.6484L63.7449 56.3631C63.888 56.0913 64.0918 55.9018 64.3564 55.7945C64.6282 55.6872 64.8892 55.6336 65.1395 55.6336C65.4613 55.6336 65.7653 55.7087 66.0513 55.8589C66.3374 56.0019 66.5555 56.2558 66.7057 56.6205C66.9417 56.2415 67.2099 55.9876 67.5102 55.8589C67.8106 55.723 68.1324 55.655 68.4757 55.655C69.2337 55.655 69.7951 55.8732 70.1599 56.3094C70.5317 56.7457 70.7177 57.3643 70.7177 58.1652V61.0187H69.409V58.1652C69.409 57.9936 69.3911 57.8291 69.3553 57.6718C69.3196 57.5144 69.2588 57.3786 69.173 57.2641C69.0943 57.1426 68.9906 57.0496 68.8619 56.9852C68.7403 56.9137 68.5901 56.878 68.4113 56.878C68.2325 56.878 68.0716 56.9137 67.9286 56.9852C67.7927 57.0567 67.6747 57.1533 67.5746 57.2749C67.4745 57.3893 67.3958 57.5288 67.3386 57.6932C67.2885 57.8506 67.2635 58.0151 67.2635 58.1867V61.0187H65.9548Z" fill="#28317D"/>
<path d="M74.8983 59.8816C75.12 59.8816 75.3238 59.8423 75.5098 59.7636C75.6957 59.6849 75.853 59.5777 75.9818 59.4418C76.1177 59.3059 76.2214 59.1486 76.2929 58.9698C76.3644 58.7838 76.4001 58.5872 76.4001 58.3798C76.4001 58.1724 76.3644 57.9793 76.2929 57.8005C76.2285 57.6146 76.132 57.4537 76.0032 57.3178C75.8745 57.1819 75.7172 57.0746 75.5312 56.996C75.3453 56.9173 75.1343 56.878 74.8983 56.878C74.6623 56.878 74.4513 56.9173 74.2654 56.996C74.0795 57.0746 73.9221 57.1819 73.7934 57.3178C73.6647 57.4537 73.5646 57.6146 73.493 57.8005C73.4287 57.9793 73.3965 58.1724 73.3965 58.3798C73.3965 58.5872 73.4323 58.7838 73.5038 58.9698C73.5753 59.1486 73.6754 59.3059 73.8041 59.4418C73.94 59.5777 74.1009 59.6849 74.2869 59.7636C74.4728 59.8423 74.6766 59.8816 74.8983 59.8816ZM71.9698 63.2285V55.7301H73.1927L73.2785 56.4596C73.4859 56.1592 73.7469 55.9447 74.0616 55.816C74.3834 55.6801 74.6945 55.6121 74.9949 55.6121C75.4025 55.6121 75.7708 55.6837 76.0998 55.8267C76.4359 55.9697 76.722 56.1664 76.958 56.4167C77.2011 56.6598 77.3871 56.9531 77.5158 57.2963C77.6445 57.6324 77.7089 57.9936 77.7089 58.3798C77.7089 58.766 77.6481 59.1271 77.5265 59.4632C77.4121 59.7994 77.2404 60.0926 77.0116 60.3429C76.7827 60.5932 76.5003 60.7899 76.1641 60.9329C75.8352 61.0759 75.4597 61.1474 75.0378 61.1474C74.9019 61.1474 74.7481 61.1331 74.5765 61.1045C74.412 61.0831 74.2475 61.0437 74.083 60.9865C73.9257 60.9293 73.7755 60.8542 73.6325 60.7612C73.4895 60.6611 73.3715 60.5395 73.2785 60.3965V63.2285H71.9698Z" fill="#28317D"/>
<path d="M79.9319 55.7301V58.4978C79.9319 58.9054 80.0392 59.2451 80.2538 59.5169C80.4683 59.7815 80.7865 59.9138 81.2085 59.9138C81.4087 59.9138 81.5911 59.8745 81.7556 59.7958C81.9272 59.7171 82.0702 59.6098 82.1847 59.474C82.3062 59.3381 82.3992 59.1808 82.4636 59.002C82.5279 58.8232 82.5601 58.6337 82.5601 58.4334V55.7301H83.8581V61.0294H82.6889L82.603 60.3107C82.3313 60.5825 82.0559 60.7827 81.777 60.9114C81.5053 61.0402 81.1835 61.1045 80.8116 61.1045C80.4969 61.1045 80.2037 61.0473 79.9319 60.9329C79.6673 60.8113 79.4385 60.6397 79.2454 60.418C79.0523 60.1963 78.8985 59.9245 78.7841 59.6027C78.6768 59.2809 78.6232 58.9161 78.6232 58.5085V55.7301H79.9319Z" fill="#28317D"/>
<path d="M88.9282 61.0187V58.2511C88.9282 57.8434 88.8209 57.5073 88.6064 57.2427C88.3918 56.9709 88.0736 56.8351 87.6516 56.8351C87.4514 56.8351 87.2655 56.8744 87.0938 56.9531C86.9294 57.0317 86.7863 57.139 86.6647 57.2749C86.5503 57.4108 86.4609 57.5681 86.3966 57.7469C86.3322 57.9257 86.3 58.1152 86.3 58.3154V61.0187H85.002V55.7194H86.1713L86.2571 56.4381C86.5289 56.1735 86.8006 55.9769 87.0724 55.8481C87.3513 55.7123 87.6588 55.6443 87.9949 55.6443C88.3096 55.6443 88.6028 55.7015 88.8746 55.816C89.1463 55.9304 89.3823 56.0984 89.5826 56.3201C89.7828 56.5418 89.9401 56.8136 90.0546 57.1354C90.1761 57.4572 90.2369 57.8255 90.2369 58.2403V61.0187H88.9282Z" fill="#28317D"/>
<path d="M95.5345 55.1938L96.5 55.9232L95.91 56.6741C96.1174 56.903 96.2604 57.1497 96.3391 57.4143C96.4249 57.6718 96.4678 57.9471 96.4678 58.2403C96.4678 58.4048 96.4499 58.5836 96.4142 58.7767C96.3784 58.9626 96.3176 59.145 96.2318 59.3238C96.146 59.5026 96.0316 59.6706 95.8885 59.828C95.7455 59.9853 95.5667 60.114 95.3522 60.2142C95.7956 60.4359 96.0888 60.7005 96.2318 61.008C96.3748 61.3083 96.4464 61.6266 96.4464 61.9627C96.4464 62.3274 96.3784 62.6564 96.2425 62.9496C96.1138 63.2428 95.9314 63.4896 95.6954 63.6898C95.4594 63.8972 95.1805 64.0545 94.8587 64.1618C94.5369 64.2691 94.1829 64.3227 93.7967 64.3227C93.4105 64.3227 93.053 64.2655 92.724 64.1511C92.4022 64.0438 92.1197 63.8865 91.8765 63.6791C91.6405 63.4717 91.4546 63.2214 91.3187 62.9282C91.1828 62.6421 91.1149 62.3203 91.1149 61.9627H92.4129C92.4129 62.1343 92.4486 62.2881 92.5202 62.424C92.5988 62.567 92.699 62.6886 92.8205 62.7887C92.9493 62.8888 93.0959 62.9639 93.2604 63.014C93.432 63.0712 93.6108 63.0998 93.7967 63.0998C94.1758 63.0998 94.494 62.9997 94.7514 62.7994C95.0089 62.6063 95.1376 62.3274 95.1376 61.9627C95.1376 61.7839 95.0983 61.6266 95.0196 61.4907C94.941 61.3548 94.8373 61.244 94.7085 61.1582C94.587 61.0723 94.4439 61.008 94.2794 60.9651C94.1221 60.9222 93.9612 60.9007 93.7967 60.9007C93.3819 60.9007 93.0101 60.8399 92.6811 60.7183C92.3521 60.5968 92.0696 60.4215 91.8336 60.1927C91.6048 59.9638 91.426 59.6849 91.2973 59.356C91.1757 59.027 91.1149 58.6551 91.1149 58.2403C91.1149 57.8255 91.1828 57.4537 91.3187 57.1247C91.4617 56.7957 91.6548 56.5168 91.898 56.288C92.1411 56.052 92.4236 55.8732 92.7454 55.7516C93.0744 55.6229 93.4248 55.5585 93.7967 55.5585C94.0041 55.5585 94.2115 55.58 94.4189 55.6229C94.6263 55.6586 94.823 55.7373 95.0089 55.8589L95.5345 55.1938ZM93.7967 56.7492C93.6036 56.7492 93.4213 56.785 93.2496 56.8565C93.0851 56.9209 92.9385 57.0174 92.8098 57.1461C92.6882 57.2749 92.5917 57.4322 92.5202 57.6181C92.4486 57.8041 92.4129 58.0115 92.4129 58.2403C92.4129 58.4692 92.4486 58.6766 92.5202 58.8625C92.5917 59.0413 92.6882 59.1951 92.8098 59.3238C92.9385 59.4454 93.0851 59.5419 93.2496 59.6134C93.4213 59.6778 93.6036 59.71 93.7967 59.71C93.9827 59.71 94.1579 59.6778 94.3224 59.6134C94.494 59.5419 94.6406 59.4454 94.7622 59.3238C94.8909 59.1951 94.991 59.0413 95.0625 58.8625C95.1341 58.6766 95.1698 58.4692 95.1698 58.2403C95.1698 58.0115 95.1341 57.8077 95.0625 57.6289C94.991 57.4429 94.8909 57.2856 94.7622 57.1569C94.6406 57.0281 94.494 56.928 94.3224 56.8565C94.1579 56.785 93.9827 56.7492 93.7967 56.7492Z" fill="#28317D"/>
<path d="M50.1429 65.4698C50.0628 65.4698 49.9884 65.4838 49.9195 65.5117C49.8506 65.5396 49.7911 65.5796 49.7408 65.6317C49.6906 65.682 49.6505 65.7425 49.6208 65.8132C49.5928 65.884 49.5789 65.9621 49.5789 66.0478C49.5789 66.1334 49.5928 66.2125 49.6208 66.2851C49.6505 66.3558 49.6906 66.4172 49.7408 66.4694C49.7911 66.5196 49.8506 66.5587 49.9195 66.5866C49.9884 66.6145 50.0628 66.6285 50.1429 66.6285C50.221 66.6285 50.2936 66.6164 50.3606 66.5922C50.4295 66.568 50.4891 66.5317 50.5393 66.4833C50.5914 66.4349 50.6324 66.3744 50.6622 66.3018C50.692 66.2292 50.7069 66.1455 50.7069 66.0505C50.7069 65.9538 50.692 65.8691 50.6622 65.7965C50.6324 65.7239 50.5914 65.6634 50.5393 65.615C50.4891 65.5666 50.4295 65.5303 50.3606 65.5061C50.2936 65.4819 50.221 65.4698 50.1429 65.4698ZM49.5761 64.7858V65.6625C49.6319 65.5508 49.711 65.4689 49.8134 65.4168C49.9176 65.3646 50.0293 65.3386 50.1484 65.3386C50.2452 65.3386 50.3355 65.3544 50.4193 65.386C50.503 65.4177 50.5756 65.4642 50.6371 65.5256C50.7003 65.5852 50.7497 65.6597 50.785 65.749C50.8223 65.8365 50.8409 65.937 50.8409 66.0505C50.8409 66.1641 50.8232 66.2655 50.7878 66.3549C50.7525 66.4442 50.7031 66.5187 50.6399 66.5782C50.5784 66.6378 50.5058 66.6834 50.4221 66.7151C50.3383 66.7467 50.248 66.7625 50.1512 66.7625C50.034 66.7625 49.9232 66.7346 49.819 66.6788C49.7148 66.6229 49.6338 66.5419 49.5761 66.4359V66.7402H49.4421V64.7858H49.5761Z" fill="#28317D"/>
<path d="M52.7788 65.3609V66.7402H52.642V66.447C52.575 66.555 52.4922 66.635 52.3935 66.6871C52.2949 66.7374 52.1897 66.7625 52.078 66.7625C51.9812 66.7625 51.89 66.7458 51.8044 66.7123C51.7206 66.6769 51.6471 66.6276 51.5838 66.5643C51.5205 66.501 51.4703 66.4265 51.433 66.3409C51.3958 66.2534 51.3772 66.1566 51.3772 66.0505C51.3772 65.9445 51.3958 65.8486 51.433 65.763C51.4703 65.6755 51.5205 65.601 51.5838 65.5396C51.6471 65.4782 51.7206 65.4307 51.8044 65.3972C51.89 65.3618 51.9812 65.3442 52.078 65.3442C52.1897 65.3442 52.2967 65.3702 52.3991 65.4223C52.5033 65.4745 52.5843 65.5545 52.642 65.6625V65.3609H52.7788ZM52.078 65.4754C51.9998 65.4754 51.9263 65.4894 51.8574 65.5173C51.7886 65.5433 51.729 65.5815 51.6787 65.6317C51.6285 65.682 51.5885 65.7425 51.5587 65.8132C51.5289 65.884 51.514 65.9631 51.514 66.0505C51.514 66.1362 51.5289 66.2153 51.5587 66.2879C51.5885 66.3586 51.6285 66.4191 51.6787 66.4694C51.729 66.5196 51.7886 66.5587 51.8574 66.5866C51.9263 66.6145 51.9998 66.6285 52.078 66.6285C52.2064 66.6285 52.3125 66.6006 52.3963 66.5447C52.4819 66.487 52.5461 66.4154 52.589 66.3298C52.6318 66.2441 52.6532 66.152 52.6532 66.0533C52.6532 65.9528 52.6318 65.8598 52.589 65.7741C52.5461 65.6885 52.4819 65.6178 52.3963 65.5619C52.3125 65.5042 52.2064 65.4754 52.078 65.4754Z" fill="#28317D"/>
<path d="M53.5589 64.7858V65.6178C53.6147 65.5173 53.6873 65.4465 53.7767 65.4056C53.866 65.3646 53.9591 65.3432 54.0559 65.3414C54.1527 65.3414 54.2364 65.3563 54.3072 65.386C54.3798 65.4158 54.4403 65.4577 54.4886 65.5117C54.537 65.5638 54.5733 65.628 54.5975 65.7043C54.6217 65.7788 54.6338 65.8607 54.6338 65.95V66.7402H54.4998V65.95C54.4998 65.8067 54.4645 65.6913 54.3937 65.6038C54.323 65.5163 54.2104 65.4726 54.0559 65.4726C53.9833 65.4726 53.9163 65.4856 53.8549 65.5117C53.7953 65.5377 53.7441 65.574 53.7013 65.6206C53.6585 65.6671 53.625 65.7211 53.6008 65.7825C53.5766 65.8439 53.5645 65.9109 53.5645 65.9835V66.7402H53.4277V64.7858H53.5589Z" fill="#28317D"/>
<path d="M56.5926 65.3609V66.7402H56.4558V66.447C56.3888 66.555 56.306 66.635 56.2073 66.6871C56.1087 66.7374 56.0035 66.7625 55.8918 66.7625C55.7951 66.7625 55.7038 66.7458 55.6182 66.7123C55.5345 66.6769 55.4609 66.6276 55.3977 66.5643C55.3344 66.501 55.2841 66.4265 55.2469 66.3409C55.2097 66.2534 55.191 66.1566 55.191 66.0505C55.191 65.9445 55.2097 65.8486 55.2469 65.763C55.2841 65.6755 55.3344 65.601 55.3977 65.5396C55.4609 65.4782 55.5345 65.4307 55.6182 65.3972C55.7038 65.3618 55.7951 65.3442 55.8918 65.3442C56.0035 65.3442 56.1106 65.3702 56.2129 65.4223C56.3172 65.4745 56.3981 65.5545 56.4558 65.6625V65.3609H56.5926ZM55.8918 65.4754C55.8137 65.4754 55.7401 65.4894 55.6713 65.5173C55.6024 65.5433 55.5428 65.5815 55.4926 65.6317C55.4423 65.682 55.4023 65.7425 55.3725 65.8132C55.3427 65.884 55.3279 65.9631 55.3279 66.0505C55.3279 66.1362 55.3427 66.2153 55.3725 66.2879C55.4023 66.3586 55.4423 66.4191 55.4926 66.4694C55.5428 66.5196 55.6024 66.5587 55.6713 66.5866C55.7401 66.6145 55.8137 66.6285 55.8918 66.6285C56.0203 66.6285 56.1264 66.6006 56.2101 66.5447C56.2958 66.487 56.36 66.4154 56.4028 66.3298C56.4456 66.2441 56.467 66.152 56.467 66.0533C56.467 65.9528 56.4456 65.8598 56.4028 65.7741C56.36 65.6885 56.2958 65.6178 56.2101 65.5619C56.1264 65.5042 56.0203 65.4754 55.8918 65.4754Z" fill="#28317D"/>
<path d="M58.3499 65.3051L58.4393 65.3833L58.3053 65.5396C58.3537 65.5936 58.3937 65.6578 58.4253 65.7323C58.4588 65.8049 58.4756 65.897 58.4756 66.0087C58.4756 66.0682 58.4672 66.1278 58.4505 66.1874C58.4337 66.2469 58.4086 66.3028 58.3751 66.3549C58.3434 66.4051 58.3043 66.4517 58.2578 66.4945C58.2131 66.5354 58.162 66.5689 58.1043 66.595C58.2271 66.6378 58.3202 66.7011 58.3835 66.7849C58.4486 66.8686 58.4812 66.9701 58.4812 67.0892C58.4812 67.1823 58.4635 67.2632 58.4281 67.3321C58.3946 67.401 58.3481 67.4577 58.2885 67.5024C58.2308 67.5489 58.162 67.5834 58.0819 67.6057C58.0019 67.6281 57.9163 67.6392 57.825 67.6392C57.7338 67.6392 57.6482 67.6271 57.5682 67.6029C57.4881 67.5787 57.4183 67.5424 57.3588 67.494C57.3011 67.4475 57.2555 67.3898 57.222 67.3209C57.1885 67.2539 57.1717 67.1767 57.1717 67.0892H57.3085C57.3085 67.1599 57.3225 67.2213 57.3504 67.2735C57.3783 67.3256 57.4155 67.3684 57.4621 67.4019C57.5105 67.4373 57.5654 67.4633 57.6268 67.4801C57.6901 67.4968 57.7562 67.5052 57.825 67.5052C57.8939 67.5052 57.96 67.4968 58.0233 67.4801C58.0866 67.4652 58.1415 67.441 58.188 67.4075C58.2364 67.374 58.2746 67.3302 58.3025 67.2763C58.3323 67.2241 58.3472 67.1618 58.3472 67.0892C58.3472 67.0147 58.3313 66.9514 58.2997 66.8993C58.2699 66.8472 58.2308 66.8044 58.1824 66.7709C58.134 66.7374 58.0782 66.7132 58.0149 66.6983C57.9535 66.6834 57.8902 66.676 57.825 66.676C57.7245 66.676 57.6343 66.6583 57.5542 66.6229C57.4742 66.5876 57.4062 66.5401 57.3504 66.4805C57.2946 66.421 57.2517 66.3502 57.222 66.2683C57.1922 66.1864 57.1773 66.0999 57.1773 66.0087C57.1773 65.9007 57.194 65.8049 57.2276 65.7211C57.2629 65.6373 57.3095 65.5675 57.3672 65.5117C57.4267 65.454 57.4956 65.4102 57.5738 65.3805C57.6519 65.3507 57.7357 65.3358 57.825 65.3358C57.8958 65.3358 57.9646 65.3479 58.0317 65.3721C58.1005 65.3944 58.162 65.4242 58.2159 65.4614L58.3499 65.3051ZM57.825 65.4726C57.7543 65.4726 57.6873 65.4838 57.624 65.5061C57.5626 65.5284 57.5086 65.5619 57.4621 65.6066C57.4174 65.6513 57.3811 65.7071 57.3532 65.7741C57.3271 65.8411 57.3141 65.9193 57.3141 66.0087C57.3141 66.0794 57.3253 66.1473 57.3476 66.2125C57.3718 66.2758 57.4062 66.3316 57.4509 66.38C57.4956 66.4284 57.5496 66.4675 57.6129 66.4973C57.6761 66.5252 57.7469 66.5392 57.825 66.5392C57.8958 66.5392 57.9628 66.5252 58.0261 66.4973C58.0894 66.4675 58.1443 66.4284 58.1908 66.38C58.2373 66.3316 58.2736 66.2758 58.2997 66.2125C58.3276 66.1473 58.3416 66.0794 58.3416 66.0087C58.3416 65.9212 58.3276 65.8439 58.2997 65.7769C58.2736 65.7099 58.2373 65.6541 58.1908 65.6094C58.1443 65.5647 58.0894 65.5312 58.0261 65.5089C57.9628 65.4847 57.8958 65.4726 57.825 65.4726Z" fill="#28317D"/>
<path d="M59.1707 65.3553V66.7402H59.0339V65.3553H59.1707ZM58.9948 64.9114C58.9948 64.9468 59.006 64.9738 59.0283 64.9924C59.0525 65.011 59.0777 65.0203 59.1037 65.0203C59.1316 65.0203 59.1568 65.011 59.1791 64.9924C59.2033 64.9738 59.2154 64.9468 59.2154 64.9114C59.2154 64.8742 59.2033 64.8472 59.1791 64.8304C59.1568 64.8118 59.1316 64.8025 59.1037 64.8025C59.0777 64.8025 59.0525 64.8118 59.0283 64.8304C59.006 64.8472 58.9948 64.8742 58.9948 64.9114Z" fill="#28317D"/>
<path d="M61.1655 65.3609V66.7402H61.0287V66.447C60.9617 66.555 60.8788 66.635 60.7802 66.6871C60.6815 66.7374 60.5764 66.7625 60.4647 66.7625C60.3679 66.7625 60.2767 66.7458 60.1911 66.7123C60.1073 66.6769 60.0338 66.6276 59.9705 66.5643C59.9072 66.501 59.857 66.4265 59.8197 66.3409C59.7825 66.2534 59.7639 66.1566 59.7639 66.0505C59.7639 65.9445 59.7825 65.8486 59.8197 65.763C59.857 65.6755 59.9072 65.601 59.9705 65.5396C60.0338 65.4782 60.1073 65.4307 60.1911 65.3972C60.2767 65.3618 60.3679 65.3442 60.4647 65.3442C60.5764 65.3442 60.6834 65.3702 60.7858 65.4223C60.89 65.4745 60.971 65.5545 61.0287 65.6625V65.3609H61.1655ZM60.4647 65.4754C60.3865 65.4754 60.313 65.4894 60.2441 65.5173C60.1753 65.5433 60.1157 65.5815 60.0654 65.6317C60.0152 65.682 59.9752 65.7425 59.9454 65.8132C59.9156 65.884 59.9007 65.9631 59.9007 66.0505C59.9007 66.1362 59.9156 66.2153 59.9454 66.2879C59.9752 66.3586 60.0152 66.4191 60.0654 66.4694C60.1157 66.5196 60.1753 66.5587 60.2441 66.5866C60.313 66.6145 60.3865 66.6285 60.4647 66.6285C60.5931 66.6285 60.6992 66.6006 60.783 66.5447C60.8686 66.487 60.9328 66.4154 60.9756 66.3298C61.0185 66.2441 61.0399 66.152 61.0399 66.0533C61.0399 65.9528 61.0185 65.8598 60.9756 65.7741C60.9328 65.6885 60.8686 65.6178 60.783 65.5619C60.6992 65.5042 60.5931 65.4754 60.4647 65.4754Z" fill="#28317D"/>
<path d="M64.9035 66.7402V65.9137C64.9035 65.8467 64.8923 65.7862 64.8699 65.7323C64.8495 65.6764 64.8197 65.629 64.7806 65.5899C64.7415 65.5489 64.695 65.5173 64.641 65.4949C64.587 65.4726 64.5275 65.4614 64.4623 65.4614C64.3972 65.4614 64.3367 65.4735 64.2808 65.4977C64.2268 65.5201 64.1803 65.5517 64.1412 65.5927C64.1021 65.6336 64.0714 65.682 64.0491 65.7378C64.0286 65.7937 64.0184 65.8551 64.0184 65.9221V66.7402H63.8816V65.9221C63.8816 65.8551 63.8704 65.7937 63.8481 65.7378C63.8276 65.682 63.7978 65.6345 63.7587 65.5954C63.7196 65.5545 63.6722 65.5229 63.6163 65.5005C63.5623 65.4763 63.5028 65.4642 63.4376 65.4642C63.3725 65.4642 63.3129 65.4763 63.2589 65.5005C63.205 65.5229 63.1584 65.5545 63.1193 65.5954C63.0802 65.6345 63.0495 65.682 63.0272 65.7378C63.0067 65.7937 62.9965 65.8551 62.9965 65.9221V66.7402H62.8597V65.3609H62.9881L62.9909 65.5899C63.0393 65.4987 63.1035 65.4335 63.1836 65.3944C63.2655 65.3535 63.3511 65.333 63.4404 65.333C63.4925 65.333 63.5447 65.3395 63.5968 65.3525C63.6489 65.3637 63.6973 65.3833 63.742 65.4112C63.7885 65.4391 63.8294 65.4745 63.8648 65.5173C63.902 65.5601 63.9309 65.6122 63.9514 65.6736C63.9718 65.6178 63.9998 65.5685 64.0351 65.5256C64.0724 65.4828 64.1133 65.4475 64.158 65.4195C64.2045 65.3898 64.2538 65.3684 64.306 65.3553C64.3581 65.3404 64.4102 65.333 64.4623 65.333C64.5461 65.333 64.6233 65.347 64.694 65.3749C64.7648 65.4028 64.8253 65.4428 64.8755 65.4949C64.9276 65.5452 64.9677 65.6066 64.9956 65.6792C65.0254 65.7499 65.0403 65.8281 65.0403 65.9137V66.7402H64.9035Z" fill="#28317D"/>
<path d="M66.3244 66.7597C66.2276 66.7597 66.1364 66.7439 66.0508 66.7123C65.9652 66.6788 65.8907 66.6313 65.8275 66.5699C65.7642 66.5084 65.7139 66.434 65.6767 66.3465C65.6413 66.259 65.6236 66.1604 65.6236 66.0505C65.6236 65.9463 65.6413 65.8514 65.6767 65.7658C65.7139 65.6783 65.7642 65.6029 65.8275 65.5396C65.8907 65.4763 65.9652 65.427 66.0508 65.3916C66.1364 65.3563 66.2276 65.3386 66.3244 65.3386C66.4212 65.3386 66.5134 65.3544 66.6009 65.386C66.6902 65.4158 66.7665 65.4624 66.8298 65.5256C66.8949 65.5889 66.9433 65.6699 66.975 65.7686C67.0085 65.8653 67.0187 65.9807 67.0057 66.1148H65.7632C65.7707 66.1948 65.7902 66.2674 65.8219 66.3325C65.8554 66.3958 65.8973 66.4489 65.9475 66.4917C65.9978 66.5345 66.0555 66.568 66.1206 66.5922C66.1858 66.6145 66.2537 66.6257 66.3244 66.6257C66.3691 66.6257 66.4156 66.6211 66.464 66.6117C66.5124 66.6024 66.558 66.5894 66.6009 66.5727C66.6455 66.554 66.6865 66.5317 66.7237 66.5057C66.7628 66.4796 66.7954 66.4498 66.8214 66.4163L66.9191 66.4945C66.8521 66.5838 66.7637 66.6508 66.6539 66.6955C66.5459 66.7383 66.4361 66.7597 66.3244 66.7597ZM66.8829 65.9947C66.881 65.8235 66.8289 65.6922 66.7265 65.601C66.626 65.5098 66.492 65.4642 66.3244 65.4642C66.2537 65.4642 66.1858 65.4763 66.1206 65.5005C66.0555 65.5229 65.9978 65.5573 65.9475 65.6038C65.8973 65.6485 65.8554 65.7043 65.8219 65.7713C65.7902 65.8365 65.7707 65.9109 65.7632 65.9947H66.8829Z" fill="#28317D"/>
<path d="M67.7728 64.7858V66.7402H67.636V64.7858H67.7728Z" fill="#28317D"/>
<path d="M69.7567 65.3609V66.7402H69.6199V66.447C69.5529 66.555 69.47 66.635 69.3714 66.6871C69.2727 66.7374 69.1676 66.7625 69.0559 66.7625C68.9591 66.7625 68.8679 66.7458 68.7823 66.7123C68.6985 66.6769 68.625 66.6276 68.5617 66.5643C68.4984 66.501 68.4482 66.4265 68.4109 66.3409C68.3737 66.2534 68.3551 66.1566 68.3551 66.0505C68.3551 65.9445 68.3737 65.8486 68.4109 65.763C68.4482 65.6755 68.4984 65.601 68.5617 65.5396C68.625 65.4782 68.6985 65.4307 68.7823 65.3972C68.8679 65.3618 68.9591 65.3442 69.0559 65.3442C69.1676 65.3442 69.2746 65.3702 69.377 65.4223C69.4812 65.4745 69.5622 65.5545 69.6199 65.6625V65.3609H69.7567ZM69.0559 65.4754C68.9777 65.4754 68.9042 65.4894 68.8353 65.5173C68.7664 65.5433 68.7069 65.5815 68.6566 65.6317C68.6064 65.682 68.5663 65.7425 68.5366 65.8132C68.5068 65.884 68.4919 65.9631 68.4919 66.0505C68.4919 66.1362 68.5068 66.2153 68.5366 66.2879C68.5663 66.3586 68.6064 66.4191 68.6566 66.4694C68.7069 66.5196 68.7664 66.5587 68.8353 66.5866C68.9042 66.6145 68.9777 66.6285 69.0559 66.6285C69.1843 66.6285 69.2904 66.6006 69.3742 66.5447C69.4598 66.487 69.524 66.4154 69.5668 66.3298C69.6096 66.2441 69.631 66.152 69.631 66.0533C69.631 65.9528 69.6096 65.8598 69.5668 65.7741C69.524 65.6885 69.4598 65.6178 69.3742 65.5619C69.2904 65.5042 69.1843 65.4754 69.0559 65.4754Z" fill="#28317D"/>
<path d="M71.5238 65.3609L70.6834 67.3153H70.5382L70.7923 66.7234L70.2395 65.3609H70.3874L70.7085 66.1762L70.8705 66.5755L71.0296 66.1734L71.3758 65.3609H71.5238Z" fill="#28317D"/>
<path d="M73.3906 65.3609V66.7402H73.2538V66.447C73.1867 66.555 73.1039 66.635 73.0053 66.6871C72.9066 66.7374 72.8014 66.7625 72.6898 66.7625C72.593 66.7625 72.5018 66.7458 72.4161 66.7123C72.3324 66.6769 72.2589 66.6276 72.1956 66.5643C72.1323 66.501 72.082 66.4265 72.0448 66.3409C72.0076 66.2534 71.989 66.1566 71.989 66.0505C71.989 65.9445 72.0076 65.8486 72.0448 65.763C72.082 65.6755 72.1323 65.601 72.1956 65.5396C72.2589 65.4782 72.3324 65.4307 72.4161 65.3972C72.5018 65.3618 72.593 65.3442 72.6898 65.3442C72.8014 65.3442 72.9085 65.3702 73.0108 65.4223C73.1151 65.4745 73.1961 65.5545 73.2538 65.6625V65.3609H73.3906ZM72.6898 65.4754C72.6116 65.4754 72.5381 65.4894 72.4692 65.5173C72.4003 65.5433 72.3408 65.5815 72.2905 65.6317C72.2402 65.682 72.2002 65.7425 72.1704 65.8132C72.1407 65.884 72.1258 65.9631 72.1258 66.0505C72.1258 66.1362 72.1407 66.2153 72.1704 66.2879C72.2002 66.3586 72.2402 66.4191 72.2905 66.4694C72.3408 66.5196 72.4003 66.5587 72.4692 66.5866C72.5381 66.6145 72.6116 66.6285 72.6898 66.6285C72.8182 66.6285 72.9243 66.6006 73.0081 66.5447C73.0937 66.487 73.1579 66.4154 73.2007 66.3298C73.2435 66.2441 73.2649 66.152 73.2649 66.0533C73.2649 65.9528 73.2435 65.8598 73.2007 65.7741C73.1579 65.6885 73.0937 65.6178 73.0081 65.5619C72.9243 65.5042 72.8182 65.4754 72.6898 65.4754Z" fill="#28317D"/>
<path d="M74.1734 65.3609V65.6066C74.2274 65.5117 74.2982 65.4437 74.3856 65.4028C74.475 65.36 74.5681 65.3377 74.6648 65.3358C74.7579 65.3358 74.8426 65.3498 74.9189 65.3777C74.9952 65.4056 75.0604 65.4456 75.1144 65.4977C75.1683 65.5498 75.2102 65.6141 75.24 65.6904C75.2716 65.7648 75.2875 65.8495 75.2875 65.9445V66.7402H75.1507V65.9472C75.1507 65.789 75.106 65.6699 75.0166 65.5899C74.9292 65.508 74.81 65.4679 74.6593 65.4698C74.5885 65.4698 74.5234 65.4828 74.4638 65.5089C74.4043 65.535 74.3531 65.5703 74.3103 65.615C74.2674 65.6597 74.2339 65.7127 74.2097 65.7741C74.1874 65.8356 74.1762 65.9016 74.1762 65.9724V66.7402H74.0394V65.3609H74.1734Z" fill="#28317D"/>
<path d="M76.0586 65.3553V66.7402H75.9218V65.3553H76.0586ZM75.8827 64.9114C75.8827 64.9468 75.8939 64.9738 75.9162 64.9924C75.9404 65.011 75.9655 65.0203 75.9916 65.0203C76.0195 65.0203 76.0447 65.011 76.067 64.9924C76.0912 64.9738 76.1033 64.9468 76.1033 64.9114C76.1033 64.8742 76.0912 64.8472 76.067 64.8304C76.0447 64.8118 76.0195 64.8025 75.9916 64.8025C75.9655 64.8025 75.9404 64.8118 75.9162 64.8304C75.8939 64.8472 75.8827 64.8742 75.8827 64.9114Z" fill="#28317D"/>
<path d="M78.3951 65.4698C78.3169 65.4698 78.2434 65.4819 78.1745 65.5061C78.1075 65.5303 78.048 65.5666 77.9959 65.615C77.9456 65.6634 77.9056 65.7239 77.8758 65.7965C77.846 65.8691 77.8311 65.9538 77.8311 66.0505C77.8311 66.1455 77.846 66.2292 77.8758 66.3018C77.9056 66.3744 77.9456 66.4349 77.9959 66.4833C78.048 66.5317 78.1075 66.568 78.1745 66.5922C78.2434 66.6164 78.3169 66.6285 78.3951 66.6285C78.477 66.6285 78.5524 66.6145 78.6213 66.5866C78.6901 66.5587 78.7497 66.5196 78.8 66.4694C78.8502 66.4172 78.8893 66.3558 78.9172 66.2851C78.9451 66.2125 78.9591 66.1334 78.9591 66.0478C78.9591 65.9621 78.9442 65.884 78.9144 65.8132C78.8865 65.7425 78.8474 65.682 78.7972 65.6317C78.7469 65.5796 78.6874 65.5396 78.6185 65.5117C78.5496 65.4838 78.4752 65.4698 78.3951 65.4698ZM79.0959 64.7858V66.7402H78.9619V66.4359C78.9042 66.5419 78.8232 66.6229 78.719 66.6788C78.6148 66.7346 78.504 66.7625 78.3867 66.7625C78.29 66.7625 78.1997 66.7467 78.1159 66.7151C78.0322 66.6834 77.9586 66.6378 77.8953 66.5782C77.8339 66.5187 77.7855 66.4442 77.7502 66.3549C77.7148 66.2655 77.6971 66.1641 77.6971 66.0505C77.6971 65.937 77.7148 65.8365 77.7502 65.749C77.7874 65.6597 77.8367 65.5852 77.8981 65.5256C77.9614 65.4642 78.0349 65.4177 78.1187 65.386C78.2025 65.3544 78.2927 65.3386 78.3895 65.3386C78.5087 65.3386 78.6194 65.3646 78.7218 65.4168C78.826 65.4689 78.9061 65.5508 78.9619 65.6625V64.7858H79.0959Z" fill="#28317D"/>
<path d="M81.0929 65.3609V66.7402H80.9561V66.447C80.8891 66.555 80.8062 66.635 80.7076 66.6871C80.6089 66.7374 80.5038 66.7625 80.3921 66.7625C80.2953 66.7625 80.2041 66.7458 80.1185 66.7123C80.0347 66.6769 79.9612 66.6276 79.8979 66.5643C79.8346 66.501 79.7843 66.4265 79.7471 66.3409C79.7099 66.2534 79.6913 66.1566 79.6913 66.0505C79.6913 65.9445 79.7099 65.8486 79.7471 65.763C79.7843 65.6755 79.8346 65.601 79.8979 65.5396C79.9612 65.4782 80.0347 65.4307 80.1185 65.3972C80.2041 65.3618 80.2953 65.3442 80.3921 65.3442C80.5038 65.3442 80.6108 65.3702 80.7132 65.4223C80.8174 65.4745 80.8984 65.5545 80.9561 65.6625V65.3609H81.0929ZM80.3921 65.4754C80.3139 65.4754 80.2404 65.4894 80.1715 65.5173C80.1026 65.5433 80.0431 65.5815 79.9928 65.6317C79.9426 65.682 79.9025 65.7425 79.8728 65.8132C79.843 65.884 79.8281 65.9631 79.8281 66.0505C79.8281 66.1362 79.843 66.2153 79.8728 66.2879C79.9025 66.3586 79.9426 66.4191 79.9928 66.4694C80.0431 66.5196 80.1026 66.5587 80.1715 66.5866C80.2404 66.6145 80.3139 66.6285 80.3921 66.6285C80.5205 66.6285 80.6266 66.6006 80.7104 66.5447C80.796 66.487 80.8602 66.4154 80.903 66.3298C80.9458 66.2441 80.9672 66.152 80.9672 66.0533C80.9672 65.9528 80.9458 65.8598 80.903 65.7741C80.8602 65.6885 80.796 65.6178 80.7104 65.5619C80.6266 65.5042 80.5205 65.4754 80.3921 65.4754Z" fill="#28317D"/>
<path d="M81.8702 65.3609L81.8758 65.6066C81.8981 65.5601 81.926 65.521 81.9595 65.4894C81.993 65.4558 82.0303 65.4289 82.0712 65.4084C82.1122 65.386 82.155 65.3702 82.1996 65.3609C82.2443 65.3516 82.289 65.347 82.3337 65.347C82.4379 65.3432 82.5365 65.3702 82.6296 65.4279L82.5682 65.5396C82.531 65.5173 82.4928 65.5014 82.4537 65.4921C82.4146 65.481 82.3746 65.4754 82.3337 65.4754C82.2704 65.4754 82.2108 65.4884 82.155 65.5145C82.0991 65.5387 82.0507 65.5722 82.0098 65.615C81.9688 65.6559 81.9363 65.7043 81.9121 65.7602C81.8897 65.8142 81.8786 65.8728 81.8786 65.9361V66.7402H81.7417V65.3609H81.8702Z" fill="#28317D"/>
<path d="M83.2483 65.3553V66.7402H83.1115V65.3553H83.2483ZM83.0724 64.9114C83.0724 64.9468 83.0836 64.9738 83.1059 64.9924C83.1301 65.011 83.1553 65.0203 83.1813 65.0203C83.2092 65.0203 83.2344 65.011 83.2567 64.9924C83.2809 64.9738 83.293 64.9468 83.293 64.9114C83.293 64.8742 83.2809 64.8472 83.2567 64.8304C83.2344 64.8118 83.2092 64.8025 83.1813 64.8025C83.1553 64.8025 83.1301 64.8118 83.1059 64.8304C83.0836 64.8472 83.0724 64.8742 83.0724 64.9114Z" fill="#28317D"/>
<path d="M85.0934 64.7858V65.6178C85.1493 65.5173 85.2219 65.4465 85.3112 65.4056C85.4006 65.3646 85.4936 65.3432 85.5904 65.3414C85.6872 65.3414 85.771 65.3563 85.8417 65.386C85.9143 65.4158 85.9748 65.4577 86.0232 65.5117C86.0716 65.5638 86.1079 65.628 86.1321 65.7043C86.1563 65.7788 86.1684 65.8607 86.1684 65.95V66.7402H86.0343V65.95C86.0343 65.8067 85.999 65.6913 85.9283 65.6038C85.8575 65.5163 85.7449 65.4726 85.5904 65.4726C85.5178 65.4726 85.4508 65.4856 85.3894 65.5117C85.3298 65.5377 85.2786 65.574 85.2358 65.6206C85.193 65.6671 85.1595 65.7211 85.1353 65.7825C85.1111 65.8439 85.099 65.9109 85.099 65.9835V66.7402H84.9622V64.7858H85.0934Z" fill="#28317D"/>
<path d="M88.1272 65.3609V66.7402H87.9904V66.447C87.9234 66.555 87.8405 66.635 87.7419 66.6871C87.6432 66.7374 87.5381 66.7625 87.4264 66.7625C87.3296 66.7625 87.2384 66.7458 87.1528 66.7123C87.069 66.6769 86.9955 66.6276 86.9322 66.5643C86.8689 66.501 86.8186 66.4265 86.7814 66.3409C86.7442 66.2534 86.7256 66.1566 86.7256 66.0505C86.7256 65.9445 86.7442 65.8486 86.7814 65.763C86.8186 65.6755 86.8689 65.601 86.9322 65.5396C86.9955 65.4782 87.069 65.4307 87.1528 65.3972C87.2384 65.3618 87.3296 65.3442 87.4264 65.3442C87.5381 65.3442 87.6451 65.3702 87.7475 65.4223C87.8517 65.4745 87.9327 65.5545 87.9904 65.6625V65.3609H88.1272ZM87.4264 65.4754C87.3482 65.4754 87.2747 65.4894 87.2058 65.5173C87.1369 65.5433 87.0774 65.5815 87.0271 65.6317C86.9769 65.682 86.9368 65.7425 86.9071 65.8132C86.8773 65.884 86.8624 65.9631 86.8624 66.0505C86.8624 66.1362 86.8773 66.2153 86.9071 66.2879C86.9368 66.3586 86.9769 66.4191 87.0271 66.4694C87.0774 66.5196 87.1369 66.5587 87.2058 66.5866C87.2747 66.6145 87.3482 66.6285 87.4264 66.6285C87.5548 66.6285 87.6609 66.6006 87.7447 66.5447C87.8303 66.487 87.8945 66.4154 87.9373 66.3298C87.9801 66.2441 88.0015 66.152 88.0015 66.0533C88.0015 65.9528 87.9801 65.8598 87.9373 65.7741C87.8945 65.6885 87.8303 65.6178 87.7447 65.5619C87.6609 65.5042 87.5548 65.4754 87.4264 65.4754Z" fill="#28317D"/>
<path d="M89.0316 64.9449V65.3609H89.5006V65.4754H89.0316V66.3158C89.0316 66.3623 89.0343 66.4051 89.0399 66.4442C89.0474 66.4833 89.0595 66.5168 89.0762 66.5447C89.0948 66.5727 89.1209 66.595 89.1544 66.6117C89.1879 66.6266 89.2317 66.6341 89.2856 66.6341C89.3191 66.6341 89.3536 66.6294 89.3889 66.6201C89.4262 66.609 89.4625 66.595 89.4978 66.5782L89.5453 66.6899C89.5025 66.7104 89.4587 66.7272 89.4141 66.7402C89.3713 66.7532 89.3284 66.7597 89.2856 66.7597C89.213 66.7597 89.1516 66.7495 89.1014 66.729C89.0511 66.7085 89.0111 66.6788 88.9813 66.6397C88.9515 66.6006 88.9301 66.554 88.9171 66.5001C88.904 66.4442 88.8975 66.3828 88.8975 66.3158V65.4754H88.6044V65.3609H88.8975V64.9589L89.0316 64.9449Z" fill="#28317D"/>
<path d="M90.2281 65.3553V66.7402H90.0913V65.3553H90.2281ZM90.0522 64.9114C90.0522 64.9468 90.0634 64.9738 90.0857 64.9924C90.1099 65.011 90.135 65.0203 90.1611 65.0203C90.189 65.0203 90.2141 65.011 90.2365 64.9924C90.2607 64.9738 90.2728 64.9468 90.2728 64.9114C90.2728 64.8742 90.2607 64.8472 90.2365 64.8304C90.2141 64.8118 90.189 64.8025 90.1611 64.8025C90.135 64.8025 90.1099 64.8118 90.0857 64.8304C90.0634 64.8472 90.0522 64.8742 90.0522 64.9114Z" fill="#28317D"/>
</g>
<rect x="1.5" y="1" width="110" height="110" rx="9" stroke="#CCCCCC" stroke-width="2"/>
<defs>
<clipPath id="clip0_517_508">
<rect x="2.5" y="2" width="108" height="108" rx="8" fill="white"/>
</clipPath>
</defs>
</svg>
