<svg width="113" height="112" viewBox="0 0 113 112" fill="none" xmlns="http://www.w3.org/2000/svg">
<g clip-path="url(#clip0_517_518)">
<rect x="2.5" y="2" width="108" height="108" rx="8" fill="white"/>
<path d="M20.673 49.2199C20.46 49.5175 20.0452 49.5848 19.7487 49.3707C19.4511 49.1577 19.3838 48.743 19.5978 48.4464C20.3489 47.4028 21.0755 46.7068 21.9153 46.3277C22.7805 45.9363 23.7201 45.8935 24.8707 46.1697C25.6177 46.3481 26.2791 46.3042 26.859 46.0219C27.4613 45.7284 28.0025 45.171 28.4845 44.3323C28.6669 44.0153 29.0725 43.9063 29.3895 44.0877C29.7064 44.2701 29.8154 44.6757 29.633 44.9926C29.0114 46.0739 28.2817 46.8077 27.4409 47.2174C26.5767 47.6393 25.6198 47.7116 24.564 47.4589C23.714 47.2551 23.0445 47.2744 22.4605 47.5384C21.8501 47.8146 21.2865 48.369 20.673 49.2199Z" fill="#4198FF"/>
<path d="M17.7003 58.984C17.4873 59.2806 17.0725 59.3489 16.7759 59.1349C16.4783 58.9208 16.4111 58.5061 16.6251 58.2095C17.3762 57.1659 18.1028 56.4709 18.9425 56.0908C19.8078 55.6994 20.7474 55.6576 21.898 55.9328C22.645 56.1122 23.3064 56.0683 23.8863 55.7861C24.4886 55.4925 25.0287 54.9351 25.5117 54.0964C25.6942 53.7784 26.0998 53.6694 26.4167 53.8518C26.7337 54.0342 26.8427 54.4388 26.6603 54.7557C26.0386 55.837 25.3089 56.5718 24.4682 56.9815C23.604 57.4024 22.647 57.4747 21.5912 57.222C20.7413 57.0182 20.0717 57.0385 19.4878 57.3025C18.8773 57.5787 18.3138 58.132 17.7003 58.984Z" fill="#4198FF"/>
<path d="M21.4638 51.0329C21.2498 51.3305 20.8361 51.3978 20.5385 51.1837C20.2419 50.9697 20.1736 50.556 20.3876 50.2584C21.1387 49.2148 21.8664 48.5198 22.7051 48.1407C23.5714 47.7483 24.511 47.7065 25.6605 47.9817C26.4075 48.1611 27.07 48.1172 27.6488 47.8349C28.2521 47.5414 28.7923 46.984 29.2753 46.1453C29.4577 45.8283 29.8623 45.7182 30.1793 45.9007C30.4962 46.0831 30.6063 46.4877 30.4239 46.8056C29.8012 47.8869 29.0725 48.6207 28.2307 49.0304C27.3665 49.4523 26.4096 49.5236 25.3538 49.2709C24.5038 49.067 23.8343 49.0874 23.2514 49.3514C22.6409 49.6276 22.0763 50.182 21.4638 51.0329Z" fill="#4198FF"/>
<path d="M18.4911 60.797C18.2771 61.0936 17.8623 61.1608 17.5657 60.9468C17.2681 60.7338 17.2009 60.3191 17.4149 60.0225C18.166 58.9789 18.8936 58.2839 19.7324 57.9038C20.5986 57.5124 21.5372 57.4696 22.6878 57.7458C23.4348 57.9241 24.0962 57.8813 24.6761 57.599C25.2794 57.3045 25.8195 56.7471 26.3026 55.9083C26.485 55.5914 26.8896 55.4824 27.2065 55.6648C27.5235 55.8462 27.6335 56.2518 27.4511 56.5687C26.8284 57.65 26.0998 58.3848 25.258 58.7945C24.3938 59.2154 23.4368 59.2877 22.381 59.035C21.5311 58.8312 20.8615 58.8505 20.2776 59.1145C19.6671 59.3906 19.1036 59.945 18.4911 60.797Z" fill="#4198FF"/>
<path d="M22.325 53.009C22.111 53.3055 21.6972 53.3738 21.3996 53.1598C21.1031 52.9458 21.0348 52.531 21.2488 52.2344C21.9999 51.1909 22.7275 50.4958 23.5663 50.1167C24.4325 49.7244 25.3721 49.6826 26.5217 49.9578C27.2697 50.1371 27.9311 50.0933 28.51 49.811C29.1133 49.5175 29.6534 48.96 30.1365 48.1213C30.3189 47.8034 30.7235 47.6943 31.0404 47.8767C31.3584 48.0591 31.4674 48.4637 31.285 48.7807C30.6623 49.862 29.9337 50.5967 29.0929 51.0064C28.2277 51.4273 27.2717 51.4997 26.2159 51.2469C25.365 51.0431 24.6965 51.0635 24.1125 51.3274C23.5021 51.6036 22.9375 52.157 22.325 53.009Z" fill="#4198FF"/>
<path d="M19.3522 62.7721C19.1382 63.0696 18.7245 63.1369 18.4269 62.9229C18.1303 62.7089 18.062 62.2951 18.276 61.9975C19.0271 60.955 19.7548 60.2589 20.5935 59.8798C21.4598 59.4885 22.3994 59.4457 23.5489 59.7208C24.2959 59.9002 24.9584 59.8564 25.5372 59.5741C26.1405 59.2806 26.6807 58.7231 27.1637 57.8844C27.3461 57.5675 27.7507 57.4584 28.0677 57.6398C28.3846 57.8222 28.4947 58.2268 28.3123 58.5448C27.6896 59.6261 26.9609 60.3598 26.1191 60.7695C25.2549 61.1914 24.298 61.2628 23.2422 61.01C22.3922 60.8072 21.7237 60.8266 21.1398 61.0905C20.5293 61.3667 19.9647 61.9211 19.3522 62.7721Z" fill="#4198FF"/>
<path d="M23.1046 54.7985C22.8916 55.0951 22.4768 55.1624 22.1803 54.9494C21.8827 54.7353 21.8154 54.3206 22.0294 54.024C22.7805 52.9804 23.5071 52.2854 24.3469 51.9053C25.2121 51.5139 26.1517 51.4722 27.3023 51.7473C28.0493 51.9267 28.7107 51.8829 29.2906 51.6006C29.8929 51.3071 30.434 50.7496 30.9161 49.9109C31.0985 49.5929 31.5041 49.4839 31.8211 49.6663C32.138 49.8487 32.247 50.2533 32.0656 50.5702C31.443 51.6515 30.7133 52.3863 29.8725 52.796C29.0083 53.2169 28.0514 53.2892 26.9956 53.0365C26.1456 52.8327 25.4761 52.853 24.8921 53.117C24.2817 53.3932 23.7181 53.9466 23.1046 54.7985Z" fill="#4198FF"/>
<path d="M20.1319 64.5616C19.9189 64.8592 19.5041 64.9265 19.2075 64.7124C18.9099 64.4984 18.8427 64.0847 19.0567 63.7871C19.8078 62.7435 20.5344 62.0485 21.3741 61.6694C22.2394 61.277 23.179 61.2352 24.3296 61.5104C25.0766 61.6898 25.738 61.6459 26.3179 61.3636C26.9202 61.0701 27.4603 60.5127 27.9433 59.674C28.1258 59.357 28.5314 59.247 28.8483 59.4294C29.1653 59.6118 29.2743 60.0164 29.0919 60.3343C28.4702 61.4156 27.7405 62.1494 26.8998 62.5591C26.0356 62.981 25.0786 63.0523 24.0228 62.7996C23.1729 62.5958 22.5033 62.6161 21.9194 62.8801C21.3089 63.1563 20.7454 63.7107 20.1319 64.5616Z" fill="#4198FF"/>
<path fill-rule="evenodd" clip-rule="evenodd" d="M43.3207 50.0444C43.2963 50.2227 43.2484 50.3929 43.177 50.5519C43.1057 50.7129 43.0129 50.8586 42.8998 50.9911C42.7867 51.1236 42.6552 51.2408 42.5064 51.3417C42.3587 51.4436 42.1966 51.5262 42.0213 51.5863C42.1508 51.6097 42.268 51.6536 42.3699 51.7147C42.4749 51.7748 42.5584 51.8533 42.6257 51.946C42.6919 52.0418 42.7398 52.1539 42.7653 52.2834C42.7918 52.4118 42.7938 52.5575 42.7724 52.7195C42.7521 52.8653 42.7113 53.0171 42.6512 53.1741C42.591 53.33 42.5085 53.4839 42.4025 53.6316C42.2985 53.7815 42.1681 53.9252 42.0132 54.0607C41.8593 54.1962 41.6779 54.3145 41.471 54.4153C41.2652 54.5183 41.0318 54.5998 40.7729 54.6589C40.512 54.718 40.2155 54.7476 39.8822 54.7476H38.2415C38.1171 54.7476 38.0305 54.716 37.9826 54.6559C37.9347 54.5947 37.9327 54.4999 37.9775 54.3695L39.7019 49.2179C39.7457 49.0844 39.8109 48.9876 39.9036 48.9284C39.9954 48.8693 40.0962 48.8398 40.2063 48.8398H41.631C41.9439 48.8398 42.2099 48.8642 42.431 48.9132C42.6522 48.9611 42.8336 49.0344 42.9742 49.1343C43.1159 49.2321 43.2157 49.3575 43.2749 49.5083C43.334 49.6592 43.3482 49.8365 43.3207 50.0444ZM42.056 50.2686C42.0682 50.183 42.0621 50.1076 42.0417 50.0444C42.0183 49.9802 41.9816 49.9241 41.9266 49.8793C41.8705 49.8334 41.7992 49.7978 41.7085 49.7743C41.6198 49.7499 41.5036 49.7376 41.3599 49.7376H40.7057L40.1931 51.2704H40.8677C41.0654 51.2704 41.2336 51.2388 41.3732 51.1766C41.5118 51.1144 41.63 51.035 41.7258 50.9351C41.8236 50.8372 41.8991 50.7282 41.9531 50.61C42.0071 50.4907 42.0417 50.3776 42.056 50.2686ZM41.5118 52.7797C41.5373 52.585 41.4863 52.4311 41.3569 52.319C41.2295 52.2049 41.0073 52.1488 40.6914 52.1488H39.8965L39.3329 53.8314H40.1808C40.3959 53.8314 40.5824 53.8008 40.7362 53.7397C40.8932 53.6785 41.0247 53.599 41.1327 53.5032C41.2427 53.4044 41.3284 53.2923 41.3905 53.1659C41.4527 53.0406 41.4935 52.9111 41.5118 52.7797ZM47.974 54.3002C47.975 54.4113 47.9689 54.4969 47.9587 54.5611C47.9485 54.6243 47.922 54.6732 47.8772 54.7058C47.8313 54.7364 47.763 54.7567 47.6682 54.7649C47.5735 54.772 47.4451 54.7761 47.283 54.7761C47.1648 54.7761 47.07 54.7741 46.9967 54.77C46.9233 54.7649 46.8672 54.7557 46.8285 54.7435C46.7908 54.7323 46.7653 54.7129 46.7531 54.6885C46.7409 54.665 46.7358 54.6304 46.7388 54.5886V53.4013H44.5263L43.76 54.5611C43.7324 54.6039 43.7039 54.6406 43.6723 54.6681C43.6417 54.6976 43.5989 54.719 43.5449 54.7353C43.4919 54.7496 43.4206 54.7598 43.334 54.7659C43.2453 54.772 43.1363 54.7761 43.0048 54.7761C42.8652 54.7761 42.7551 54.771 42.6787 54.7618C42.6022 54.7527 42.5533 54.7303 42.5319 54.6966C42.5115 54.6599 42.5146 54.612 42.5421 54.5478C42.5717 54.4826 42.6216 54.399 42.694 54.291L46.2639 49.0487C46.3026 48.9967 46.3393 48.9549 46.373 48.9244C46.4086 48.8907 46.4555 48.8683 46.5156 48.851C46.5737 48.8337 46.6512 48.8225 46.75 48.8184C46.8468 48.8133 46.9742 48.8113 47.1312 48.8113C47.3085 48.8113 47.4491 48.8133 47.5521 48.8184C47.655 48.8225 47.7345 48.8337 47.7895 48.851C47.8446 48.8683 47.8792 48.8928 47.8914 48.9254C47.9057 48.96 47.9118 49.0049 47.9108 49.063L47.974 54.3002ZM46.7643 49.9679H46.7602L45.1062 52.476H46.7633L46.7643 49.9679ZM53.6535 54.3287C53.6321 54.399 53.6005 54.4612 53.5567 54.5152C53.5149 54.5703 53.467 54.6151 53.415 54.6528C53.362 54.6885 53.307 54.715 53.2469 54.7323C53.1888 54.7496 53.1286 54.7567 53.0675 54.7567H52.5539C52.4448 54.7567 52.3572 54.7455 52.2899 54.7262C52.2247 54.7038 52.1707 54.665 52.1279 54.611C52.0851 54.556 52.0504 54.4816 52.0239 54.3878C51.9974 54.2931 51.973 54.1728 51.9516 54.026L51.4308 51.3876C51.3911 51.1827 51.3564 50.9789 51.3289 50.772C51.3004 50.5641 51.2739 50.3583 51.2494 50.1544H51.2433C51.1801 50.395 51.1139 50.6314 51.0415 50.8648C50.9712 51.0971 50.8948 51.3305 50.8142 51.5659L49.8023 54.5845C49.7921 54.6141 49.7737 54.6416 49.7472 54.6671C49.7228 54.6895 49.6851 54.7099 49.6362 54.7262C49.5893 54.7394 49.5281 54.7527 49.4558 54.7618C49.3824 54.771 49.2937 54.7761 49.1857 54.7761C49.0797 54.7761 48.9931 54.771 48.9258 54.7618C48.8606 54.7527 48.8086 54.7394 48.775 54.7262C48.7393 54.7099 48.719 54.6895 48.7108 54.6671C48.7057 54.6416 48.7077 54.6141 48.721 54.5845L50.5044 49.2699C50.5503 49.1262 50.6267 49.0192 50.7337 48.9468C50.8397 48.8755 50.9539 48.8398 51.0751 48.8398H51.7019C51.8028 48.8398 51.8874 48.851 51.9567 48.8744C52.026 48.8979 52.082 48.9335 52.1248 48.9835C52.1676 49.0344 52.2043 49.0986 52.2308 49.1781C52.2593 49.2576 52.2818 49.3534 52.2991 49.4696L52.8178 52.1315C52.8525 52.3017 52.881 52.4719 52.9065 52.638C52.9309 52.8062 52.9564 52.9733 52.985 53.1415H53.0013C53.0644 52.9213 53.1327 52.6961 53.2051 52.4637C53.2764 52.2304 53.3488 52.0041 53.4211 51.784L54.3577 48.9998C54.3689 48.9692 54.3842 48.9427 54.4097 48.9193C54.4341 48.8958 54.4698 48.8785 54.5146 48.8642C54.5605 48.851 54.6186 48.8398 54.6889 48.8316C54.7592 48.8245 54.8479 48.8214 54.9529 48.8214C55.0599 48.8214 55.1485 48.8245 55.2188 48.8316C55.2881 48.8398 55.3391 48.851 55.3748 48.8642C55.4094 48.8785 55.4318 48.8958 55.441 48.9193C55.4502 48.9427 55.4502 48.9692 55.439 48.9998L53.6535 54.3287ZM60.935 49.0039C60.9279 49.0579 60.9004 49.116 60.8525 49.1781C60.8036 49.2383 60.7292 49.3167 60.6293 49.4146L58.2354 51.6301L59.1251 54.2645C59.1414 54.3257 59.1516 54.3766 59.1577 54.4225C59.1648 54.4653 59.1648 54.506 59.1608 54.5417C59.1547 54.5855 59.1404 54.6212 59.1159 54.6497C59.0915 54.6793 59.0548 54.7027 59.0038 54.7211C58.9529 54.7394 58.8856 54.7527 58.802 54.7618C58.7185 54.771 58.6115 54.7761 58.4851 54.7761C58.3557 54.7761 58.2517 54.772 58.1733 54.7649C58.0958 54.7567 58.0347 54.7445 57.9898 54.7303C57.947 54.715 57.9154 54.6936 57.8971 54.6671C57.8808 54.6385 57.8675 54.608 57.8604 54.5703L56.989 51.7708L56.0555 54.5845C56.0464 54.6171 56.027 54.6446 55.9995 54.6681C55.973 54.6915 55.9332 54.7099 55.8813 54.7272C55.8283 54.7445 55.7631 54.7567 55.6836 54.7649C55.6061 54.772 55.5093 54.7761 55.3941 54.7761C55.2759 54.7761 55.1781 54.772 55.1047 54.7649C55.0303 54.7567 54.9732 54.7445 54.9335 54.7272C54.8917 54.7099 54.8662 54.6915 54.854 54.6681C54.8418 54.6446 54.8428 54.6171 54.856 54.5845L56.7231 48.9988C56.7312 48.9662 56.7485 48.9376 56.7771 48.9142C56.8036 48.8907 56.8433 48.8724 56.8963 48.8571C56.9483 48.8428 57.0155 48.8306 57.095 48.8225C57.1735 48.8153 57.2734 48.8113 57.3916 48.8113C57.5078 48.8113 57.6015 48.8153 57.6739 48.8225C57.7462 48.8306 57.8033 48.8428 57.8441 48.8571C57.8838 48.8724 57.9093 48.8907 57.9215 48.9142C57.9338 48.9376 57.9348 48.9662 57.9246 48.9988L57.0818 51.5241L59.6092 49.0171C59.6449 48.9814 59.6826 48.9488 59.7203 48.9203C59.76 48.8948 59.8079 48.8724 59.866 48.8571C59.9231 48.8428 59.9913 48.8306 60.0729 48.8225C60.1544 48.8153 60.2543 48.8113 60.3725 48.8113C60.4927 48.8113 60.5906 48.8153 60.667 48.8225C60.7424 48.8306 60.7995 48.8428 60.8413 48.8602C60.881 48.8755 60.9075 48.8958 60.9218 48.9193C60.934 48.9427 60.9401 48.9702 60.935 49.0039Z" fill="#4198FF"/>
<path fill-rule="evenodd" clip-rule="evenodd" d="M40.8249 57.1639C40.8198 57.1894 40.8106 57.2261 40.7974 57.274C40.7841 57.3219 40.7678 57.3738 40.7475 57.4319C40.7281 57.489 40.7047 57.5481 40.6792 57.6062C40.6547 57.6653 40.6272 57.7193 40.5966 57.7692C40.5671 57.8182 40.5355 57.8589 40.5039 57.8915C40.4723 57.9221 40.4417 57.9384 40.4122 57.9384C40.3684 57.9384 40.3164 57.9191 40.2573 57.8783C40.1971 57.8375 40.1217 57.7957 40.0341 57.7478C39.9454 57.701 39.8384 57.6582 39.7151 57.6184C39.5928 57.5766 39.4491 57.5573 39.283 57.5573C39.1128 57.5573 38.963 57.5817 38.8366 57.6296C38.7092 57.6765 38.6002 57.7397 38.5095 57.8182C38.4208 57.8966 38.3485 57.9822 38.2955 58.0801C38.2415 58.1759 38.2058 58.2757 38.1885 58.3736C38.1681 58.4867 38.1793 58.5876 38.2211 58.6763C38.2618 58.7639 38.325 58.8434 38.4076 58.9188C38.4901 58.9932 38.5859 59.0666 38.696 59.1369C38.8061 59.2062 38.9182 59.2785 39.0303 59.355C39.1424 59.4314 39.2524 59.514 39.3584 59.6057C39.4644 59.6964 39.5551 59.8003 39.6295 59.9196C39.7049 60.0398 39.7569 60.1754 39.7864 60.3293C39.816 60.4842 39.814 60.6615 39.7783 60.8622C39.7263 61.1598 39.6162 61.438 39.4491 61.6938C39.283 61.9496 39.0731 62.1708 38.8183 62.3614C38.5615 62.5499 38.268 62.6977 37.9347 62.8057C37.6015 62.9147 37.2438 62.9688 36.8616 62.9688C36.6547 62.9688 36.4682 62.9524 36.299 62.9178C36.1309 62.8852 35.9831 62.8434 35.8567 62.7955C35.7314 62.7486 35.6264 62.6977 35.5449 62.6447C35.4613 62.5927 35.4022 62.5417 35.3666 62.4949C35.3309 62.4459 35.3207 62.3746 35.338 62.2778C35.3421 62.2533 35.3523 62.2146 35.3676 62.1637C35.3839 62.1117 35.4012 62.0566 35.4236 61.9986C35.445 61.9394 35.4685 61.8793 35.495 61.8161C35.5225 61.754 35.552 61.6969 35.5816 61.647C35.6132 61.596 35.6448 61.5542 35.6774 61.5216C35.71 61.49 35.7406 61.4737 35.7732 61.4737C35.8272 61.4737 35.8863 61.4982 35.9525 61.5491C36.0188 61.598 36.1013 61.651 36.2032 61.7101C36.3031 61.7703 36.4254 61.8253 36.5701 61.8763C36.7138 61.9262 36.8911 61.9527 37.1052 61.9527C37.2917 61.9527 37.4618 61.9282 37.6127 61.8814C37.7625 61.8335 37.8929 61.7682 38.003 61.6877C38.1141 61.6042 38.2017 61.5104 38.27 61.4003C38.3403 61.2913 38.3852 61.1731 38.4086 61.0426C38.429 60.9254 38.4188 60.8215 38.377 60.7338C38.3362 60.6442 38.2761 60.5626 38.1946 60.4872C38.1151 60.4128 38.0203 60.3415 37.9133 60.2742C37.8063 60.208 37.6962 60.1377 37.5862 60.0612C37.4761 59.9848 37.3691 59.9012 37.2662 59.8126C37.1622 59.7239 37.0736 59.6199 37.0022 59.5017C36.9289 59.3805 36.8779 59.2439 36.8494 59.088C36.8198 58.9331 36.8229 58.7506 36.8585 58.5438C36.9095 58.2594 37.0134 57.9955 37.1704 57.7529C37.3263 57.5124 37.523 57.3055 37.7554 57.1313C37.9897 56.959 38.2568 56.8235 38.5564 56.7257C38.855 56.6299 39.175 56.581 39.5133 56.581C39.6733 56.581 39.8241 56.5922 39.9627 56.6166C40.1013 56.6411 40.2287 56.6706 40.3408 56.7083C40.4519 56.744 40.5457 56.7848 40.6201 56.8296C40.6955 56.8745 40.7454 56.9111 40.7729 56.9427C40.8005 56.9713 40.8168 57.0039 40.8259 57.0365C40.8351 57.0712 40.8341 57.1129 40.8249 57.1639ZM45.896 60.584C45.7472 60.9774 45.5617 61.3239 45.3416 61.6205C45.1215 61.918 44.8667 62.1677 44.5803 62.3675C44.295 62.5682 43.9801 62.718 43.6366 62.8189C43.2932 62.9178 42.9243 62.9688 42.5309 62.9688C42.111 62.9688 41.7605 62.9168 41.4771 62.8138C41.1949 62.7099 40.9839 62.557 40.8443 62.3532C40.7047 62.1494 40.6374 61.8936 40.6415 61.5879C40.6455 61.2801 40.723 60.9254 40.8779 60.5219L42.2588 56.8592C42.271 56.8286 42.2904 56.799 42.32 56.7736C42.3485 56.7491 42.3903 56.7277 42.4463 56.7114C42.5014 56.6951 42.5717 56.6839 42.6552 56.6737C42.7378 56.6635 42.8428 56.6594 42.9681 56.6594C43.0873 56.6594 43.1852 56.6635 43.2616 56.6737C43.3401 56.6839 43.4002 56.6951 43.441 56.7114C43.4817 56.7277 43.5072 56.7491 43.5174 56.7736C43.5266 56.799 43.5256 56.8286 43.5143 56.8592L42.1324 60.5219C42.0387 60.7675 41.9867 60.9794 41.9755 61.1578C41.9663 61.3372 41.9949 61.4839 42.058 61.6011C42.1222 61.7163 42.2211 61.8029 42.3546 61.86C42.4881 61.915 42.6542 61.9425 42.856 61.9425C43.0578 61.9425 43.2514 61.9119 43.4359 61.8498C43.6193 61.7866 43.7885 61.6969 43.9434 61.5766C44.0973 61.4574 44.2359 61.3117 44.3602 61.1384C44.4835 60.9662 44.5885 60.7705 44.671 60.5514L46.0682 56.8592C46.0795 56.8286 46.0998 56.799 46.1284 56.7736C46.1579 56.7491 46.1966 56.7277 46.2507 56.7114C46.3026 56.6951 46.3709 56.6839 46.4555 56.6737C46.5391 56.6635 46.642 56.6594 46.7643 56.6594C46.8846 56.6594 46.9814 56.6635 47.0568 56.6737C47.1291 56.6839 47.1872 56.6951 47.23 56.7114C47.2718 56.7277 47.2973 56.7491 47.3075 56.7736C47.3177 56.799 47.3156 56.8286 47.3034 56.8592L45.896 60.584ZM53.6382 62.6946C53.6229 62.7262 53.6036 62.7547 53.5811 62.7812C53.5567 62.8057 53.52 62.8271 53.4721 62.8434C53.4221 62.8577 53.3579 62.8709 53.2764 62.8791C53.1959 62.8872 53.0971 62.8903 52.9788 62.8903C52.8545 62.8903 52.7557 62.8872 52.6813 62.8791C52.6058 62.8709 52.5498 62.8577 52.51 62.8434C52.4723 62.8271 52.4499 62.8057 52.4428 62.7812C52.4357 62.7547 52.4397 62.7262 52.452 62.6946L54.3424 57.6714H54.3332L50.6441 62.6895C50.5921 62.77 50.5085 62.823 50.3944 62.8495C50.2802 62.877 50.1223 62.8903 49.9215 62.8903C49.7146 62.8903 49.5699 62.8719 49.4853 62.8352C49.4018 62.7986 49.363 62.7537 49.3691 62.6997L49.5373 57.6663H49.5271L47.6305 62.6946C47.6183 62.7262 47.5979 62.7547 47.5745 62.7812C47.549 62.8057 47.5123 62.8271 47.4624 62.8434C47.4145 62.8577 47.3503 62.8709 47.2708 62.8791C47.1913 62.8872 47.0904 62.8903 46.9702 62.8903C46.8499 62.8903 46.751 62.8872 46.6767 62.8791C46.6012 62.8709 46.5452 62.8577 46.5065 62.8434C46.4677 62.8271 46.4453 62.8057 46.4361 62.7812C46.428 62.7547 46.4321 62.7262 46.4463 62.6946L48.5182 57.1945C48.5488 57.115 48.5865 57.0436 48.6303 56.9794C48.6751 56.9162 48.7261 56.8622 48.7832 56.8204C48.8402 56.7766 48.9024 56.744 48.9697 56.7226C49.0379 56.7002 49.1083 56.688 49.1816 56.688H49.9623C50.1029 56.688 50.2191 56.7002 50.3139 56.7247C50.4076 56.7491 50.482 56.7889 50.535 56.8459C50.589 56.903 50.6247 56.9784 50.642 57.0691C50.6583 57.1619 50.6614 57.274 50.6512 57.4044L50.5962 61.0773H50.6206L53.3895 57.4044C53.4751 57.279 53.5577 57.172 53.6362 57.0824C53.7167 56.9906 53.7992 56.9162 53.8879 56.8582C53.9765 56.799 54.0703 56.7552 54.1712 56.7287C54.2701 56.7012 54.3873 56.688 54.5167 56.688H55.4043C55.4838 56.688 55.5501 56.7002 55.6031 56.7226C55.656 56.744 55.6958 56.7766 55.7213 56.8204C55.7478 56.8622 55.758 56.9142 55.7549 56.9764C55.7518 57.0385 55.7376 57.1099 55.7111 57.1894L53.6382 62.6946ZM60.2818 57.1639C60.2767 57.1894 60.2675 57.2261 60.2533 57.274C60.24 57.3219 60.2247 57.3738 60.2043 57.4319C60.185 57.489 60.1615 57.5481 60.1361 57.6062C60.1106 57.6653 60.0841 57.7193 60.0535 57.7692C60.024 57.8182 59.9924 57.8589 59.9608 57.8915C59.9292 57.9221 59.8986 57.9384 59.8691 57.9384C59.8252 57.9384 59.7733 57.9191 59.7131 57.8783C59.654 57.8375 59.5786 57.7957 59.491 57.7478C59.4013 57.701 59.2953 57.6582 59.172 57.6184C59.0487 57.5766 58.906 57.5573 58.7399 57.5573C58.5687 57.5573 58.4199 57.5817 58.2925 57.6296C58.1651 57.6765 58.0571 57.7397 57.9664 57.8182C57.8777 57.8966 57.8054 57.9822 57.7524 58.0801C57.6973 58.1759 57.6627 58.2757 57.6454 58.3736C57.625 58.4867 57.6362 58.5876 57.678 58.6763C57.7187 58.7639 57.7809 58.8434 57.8645 58.9188C57.947 58.9932 58.0428 59.0666 58.1529 59.1369C58.2619 59.2062 58.375 59.2785 58.4871 59.355C58.5982 59.4314 58.7093 59.514 58.8153 59.6057C58.9213 59.6964 59.012 59.8003 59.0864 59.9196C59.1608 60.0398 59.2138 60.1754 59.2433 60.3293C59.2729 60.4842 59.2708 60.6615 59.2352 60.8622C59.1822 61.1598 59.0731 61.438 58.906 61.6938C58.7399 61.9496 58.5299 62.1708 58.2741 62.3614C58.0183 62.5499 57.7248 62.6977 57.3916 62.8057C57.0583 62.9147 56.7006 62.9688 56.3174 62.9688C56.1116 62.9688 55.9251 62.9524 55.7559 62.9178C55.5867 62.8852 55.44 62.8434 55.3136 62.7955C55.1883 62.7486 55.0833 62.6977 55.0018 62.6447C54.9182 62.5927 54.8581 62.5417 54.8234 62.4949C54.7878 62.4459 54.7776 62.3746 54.7949 62.2778C54.799 62.2533 54.8092 62.2146 54.8244 62.1637C54.8408 62.1117 54.8581 62.0566 54.8795 61.9986C54.9019 61.9394 54.9253 61.8793 54.9508 61.8161C54.9783 61.754 55.0079 61.6969 55.0385 61.647C55.0701 61.596 55.1016 61.5542 55.1332 61.5216C55.1669 61.49 55.1974 61.4737 55.2301 61.4737C55.2841 61.4737 55.3432 61.4982 55.4084 61.5491C55.4746 61.598 55.5582 61.651 55.6601 61.7101C55.76 61.7703 55.8823 61.8253 56.026 61.8763C56.1707 61.9262 56.348 61.9527 56.561 61.9527C56.7485 61.9527 56.9187 61.9282 57.0685 61.8814C57.2183 61.8335 57.3488 61.7682 57.4599 61.6877C57.571 61.6042 57.6586 61.5104 57.7269 61.4003C57.7972 61.2913 57.842 61.1731 57.8655 61.0426C57.8859 60.9254 57.8757 60.8215 57.8339 60.7338C57.7931 60.6442 57.732 60.5626 57.6515 60.4872C57.572 60.4128 57.4772 60.3415 57.3702 60.2742C57.2632 60.208 57.1531 60.1377 57.0431 60.0612C56.933 59.9848 56.825 59.9012 56.722 59.8126C56.6191 59.7239 56.5304 59.6199 56.4581 59.5017C56.3857 59.3805 56.3348 59.2439 56.3052 59.088C56.2757 58.9331 56.2787 58.7506 56.3154 58.5438C56.3664 58.2594 56.4693 57.9955 56.6273 57.7529C56.7832 57.5124 56.9799 57.3055 57.2122 57.1313C57.4466 56.959 57.7126 56.8235 58.0133 56.7257C58.3119 56.6299 58.6319 56.581 58.9702 56.581C59.1292 56.581 59.281 56.5922 59.4196 56.6166C59.5582 56.6411 59.6846 56.6706 59.7967 56.7083C59.9078 56.744 60.0015 56.7848 60.077 56.8296C60.1524 56.8745 60.2023 56.9111 60.2298 56.9427C60.2563 56.9713 60.2736 57.0039 60.2828 57.0365C60.291 57.0712 60.2899 57.1129 60.2818 57.1639ZM65.3274 56.8704C65.3233 56.8897 65.3162 56.9234 65.303 56.9713C65.2897 57.0192 65.2724 57.0722 65.252 57.1313C65.2326 57.1894 65.2092 57.2515 65.1817 57.3147C65.1542 57.3799 65.1246 57.437 65.09 57.491C65.0584 57.543 65.0217 57.5868 64.9819 57.6225C64.9422 57.6571 64.9035 57.6745 64.8658 57.6745H62.6614L62.0938 59.1787H63.9649C64.0087 59.1787 64.0382 59.195 64.0505 59.2266C64.0637 59.2582 64.0658 59.303 64.0556 59.3591C64.0525 59.3825 64.0443 59.4161 64.0311 59.462C64.0179 59.5078 64.0005 59.5619 63.9801 59.6199C63.9618 59.6791 63.9384 59.7371 63.9119 59.7973C63.8844 59.8574 63.8558 59.9135 63.8222 59.9654C63.7896 60.0154 63.7539 60.0561 63.7172 60.0887C63.6785 60.1193 63.6418 60.1356 63.6031 60.1356H61.734L61.0777 61.8742H63.3106C63.3483 61.8742 63.3748 61.8905 63.387 61.9252C63.4003 61.9578 63.4013 62.0067 63.3901 62.0719C63.386 62.0923 63.3779 62.128 63.3666 62.1759C63.3544 62.2248 63.3391 62.2778 63.3167 62.3369C63.2953 62.395 63.2708 62.4561 63.2443 62.5163C63.2178 62.5764 63.1873 62.6335 63.1557 62.6865C63.1221 62.7384 63.0864 62.7812 63.0497 62.8138C63.012 62.8444 62.9733 62.8607 62.9325 62.8607H59.8303C59.7794 62.8607 59.7335 62.8546 59.6958 62.8393C59.6561 62.8251 59.6255 62.8006 59.6051 62.768C59.5837 62.7344 59.5735 62.6936 59.5725 62.6447C59.5715 62.5937 59.5837 62.5356 59.6092 62.4653L61.6372 57.0844C61.6912 56.9438 61.7656 56.8429 61.8645 56.7817C61.9623 56.7196 62.0652 56.688 62.1712 56.688H65.2357C65.3182 56.688 65.3488 56.7491 65.3274 56.8704ZM67.9098 62.0159C67.9058 62.0393 67.8986 62.075 67.8844 62.1239C67.8711 62.1728 67.8528 62.2289 67.8303 62.2931C67.8079 62.3563 67.7814 62.4215 67.7529 62.4877C67.7233 62.555 67.6918 62.6172 67.6571 62.6722C67.6245 62.7272 67.5888 62.7731 67.5501 62.8087C67.5134 62.8434 67.4726 62.8607 67.4319 62.8607H64.6008C64.5508 62.8607 64.504 62.8546 64.4632 62.8393C64.4214 62.8251 64.3919 62.8006 64.3705 62.768C64.348 62.7344 64.3379 62.6936 64.3368 62.6447C64.3358 62.5937 64.348 62.5356 64.3735 62.4653L66.4902 56.8541C66.4994 56.8235 66.5188 56.794 66.5503 56.7685C66.5789 56.744 66.6217 56.7226 66.6777 56.7063C66.7328 56.692 66.8031 56.6788 66.8867 56.6706C66.9692 56.6625 67.0742 56.6594 67.1975 56.6594C67.3177 56.6594 67.4166 56.6625 67.493 56.6706C67.5715 56.6788 67.6316 56.692 67.6724 56.7063C67.7132 56.7226 67.7397 56.744 67.7498 56.7685C67.758 56.794 67.758 56.8235 67.7458 56.8541L65.8747 61.8253H67.8253C67.8691 61.8253 67.8966 61.8437 67.9088 61.8773C67.92 61.914 67.92 61.9588 67.9098 62.0159Z" fill="#4198FF"/>
<path fill-rule="evenodd" clip-rule="evenodd" d="M76.6151 57.9466C76.5815 58.1341 76.5244 58.3114 76.4429 58.4775C76.3613 58.6447 76.2574 58.7975 76.1341 58.9361C76.0097 59.0747 75.8681 59.197 75.7071 59.303C75.5481 59.408 75.3758 59.4946 75.1904 59.5578C75.3239 59.5822 75.4441 59.6281 75.5491 59.6913C75.6551 59.7555 75.7397 59.836 75.8049 59.9338C75.8711 60.0337 75.915 60.1509 75.9374 60.2854C75.9588 60.421 75.9547 60.5718 75.9241 60.742C75.8976 60.8949 75.8477 61.0528 75.7784 61.2169C75.7091 61.38 75.6153 61.541 75.4981 61.6959C75.383 61.8518 75.2403 62.0016 75.0722 62.1433C74.905 62.2849 74.7114 62.4082 74.4902 62.5142C74.2711 62.6212 74.0235 62.7058 73.7504 62.768C73.4752 62.8301 73.1644 62.8607 72.8158 62.8607H71.1017C70.9712 62.8607 70.8826 62.8281 70.8357 62.7649C70.7878 62.7017 70.7898 62.6019 70.8428 62.4653L72.8709 57.0844C72.9218 56.9438 72.9952 56.8429 73.0941 56.7817C73.1929 56.7196 73.2989 56.688 73.4151 56.688H74.903C75.2301 56.688 75.5063 56.7145 75.7356 56.7654C75.9639 56.8154 76.1504 56.8918 76.293 56.9957C76.4367 57.0987 76.5356 57.2291 76.5906 57.3871C76.6457 57.545 76.6538 57.7305 76.6151 57.9466ZM75.2841 58.181C75.3004 58.0913 75.2974 58.0138 75.279 57.9466C75.2576 57.8803 75.2209 57.8212 75.1659 57.7743C75.1088 57.7264 75.0365 57.6897 74.9427 57.6653C74.851 57.6388 74.7297 57.6255 74.5799 57.6255H73.8961L73.2938 59.2276H73.998C74.2049 59.2276 74.3822 59.195 74.53 59.1298C74.6788 59.0645 74.8051 58.982 74.9101 58.878C75.0161 58.7751 75.0997 58.661 75.1608 58.5377C75.224 58.4133 75.2637 58.2951 75.2841 58.181ZM74.6044 60.8052C74.64 60.6014 74.5942 60.4403 74.4637 60.3231C74.3353 60.2039 74.106 60.1458 73.7758 60.1458H72.9453L72.2828 61.9038H73.1674C73.3927 61.9038 73.5883 61.8712 73.7534 61.808C73.9185 61.7438 74.0602 61.6612 74.1774 61.5603C74.2966 61.4574 74.3904 61.3402 74.4617 61.2087C74.532 61.0773 74.5799 60.9417 74.6044 60.8052ZM81.2897 62.394C81.2857 62.5091 81.2765 62.5988 81.2622 62.6661C81.249 62.7323 81.2194 62.7833 81.1705 62.8169C81.1206 62.8495 81.0492 62.8709 80.9494 62.8791C80.8505 62.8872 80.717 62.8903 80.5478 62.8903C80.4235 62.8903 80.3247 62.8882 80.2472 62.8842C80.1718 62.8791 80.1137 62.8689 80.0729 62.8556C80.0342 62.8444 80.0087 62.8251 79.9975 62.7986C79.9853 62.7741 79.9822 62.7384 79.9863 62.6946L80.0383 61.4543H77.7269L76.876 62.6661C76.8454 62.7109 76.8138 62.7486 76.7792 62.7782C76.7466 62.8087 76.6997 62.8312 76.6436 62.8475C76.5865 62.8628 76.5122 62.874 76.4215 62.8801C76.3287 62.8872 76.2146 62.8903 76.078 62.8903C75.9313 62.8903 75.8161 62.8852 75.7366 62.875C75.6571 62.8658 75.6072 62.8434 75.5858 62.8067C75.5664 62.77 75.5725 62.7191 75.6041 62.6528C75.6367 62.5845 75.6938 62.4959 75.7733 62.3838L79.7346 56.9071C79.7764 56.8531 79.8171 56.8092 79.8528 56.7766C79.8915 56.742 79.9415 56.7175 80.0057 56.7002C80.0668 56.6818 80.1483 56.6706 80.2523 56.6655C80.3542 56.6604 80.4857 56.6594 80.6508 56.6594C80.8362 56.6594 80.982 56.6604 81.09 56.6655C81.197 56.6706 81.2796 56.6818 81.3366 56.7002C81.3937 56.7175 81.4283 56.744 81.4406 56.7776C81.4528 56.8133 81.4579 56.8612 81.4538 56.9213L81.2897 62.394ZM80.2166 57.8671H80.2115L78.3741 60.4872H80.1055L80.2166 57.8671ZM87.9089 57.9466C87.8753 58.1341 87.8182 58.3114 87.7366 58.4775C87.6541 58.6447 87.5512 58.7975 87.4268 58.9361C87.3035 59.0747 87.1608 59.197 87.0008 59.303C86.8419 59.408 86.6686 59.4946 86.4831 59.5578C86.6177 59.5822 86.7379 59.6281 86.8419 59.6913C86.9479 59.7555 87.0335 59.836 87.0987 59.9338C87.1639 60.0337 87.2087 60.1509 87.2301 60.2854C87.2515 60.421 87.2475 60.5718 87.2179 60.742C87.1904 60.8949 87.1415 61.0528 87.0722 61.2169C87.0019 61.38 86.9081 61.541 86.7919 61.6959C86.6758 61.8518 86.5341 62.0016 86.3659 62.1433C86.1988 62.2849 86.0042 62.4082 85.784 62.5142C85.5649 62.6212 85.3173 62.7058 85.0442 62.768C84.769 62.8301 84.4572 62.8607 84.1096 62.8607H82.3955C82.265 62.8607 82.1764 62.8281 82.1295 62.7649C82.0816 62.7017 82.0826 62.6019 82.1366 62.4653L84.1647 57.0844C84.2156 56.9438 84.289 56.8429 84.3868 56.7817C84.4857 56.7196 84.5927 56.688 84.7078 56.688H86.1958C86.5229 56.688 86.8001 56.7145 87.0294 56.7654C87.2577 56.8154 87.4442 56.8918 87.5868 56.9957C87.7295 57.0987 87.8284 57.2291 87.8834 57.3871C87.9395 57.545 87.9466 57.7305 87.9089 57.9466ZM86.5779 58.181C86.5932 58.0913 86.5912 58.0138 86.5718 57.9466C86.5514 57.8803 86.5147 57.8212 86.4597 57.7743C86.4026 57.7264 86.3293 57.6897 86.2365 57.6653C86.1448 57.6388 86.0235 57.6255 85.8737 57.6255H85.1899L84.5866 59.2276H85.2918C85.4987 59.2276 85.675 59.195 85.8238 59.1298C85.9715 59.0645 86.0989 58.982 86.2039 58.878C86.3099 58.7751 86.3935 58.661 86.4546 58.5377C86.5168 58.4133 86.5575 58.2951 86.5779 58.181ZM85.8982 60.8052C85.9338 60.6014 85.888 60.4403 85.7565 60.3231C85.6281 60.2039 85.3998 60.1458 85.0686 60.1458H84.2391L83.5756 61.9038H84.4612C84.6854 61.9038 84.8821 61.8712 85.0462 61.808C85.2123 61.7438 85.354 61.6612 85.4712 61.5603C85.5904 61.4574 85.6842 61.3402 85.7545 61.2087C85.8248 61.0773 85.8737 60.9417 85.8982 60.8052ZM93.3295 56.8704C93.3255 56.8897 93.3183 56.9234 93.3051 56.9713C93.2918 57.0192 93.2735 57.0722 93.2541 57.1313C93.2348 57.1894 93.2113 57.2515 93.1838 57.3147C93.1553 57.3799 93.1257 57.437 93.0921 57.491C93.0605 57.543 93.0228 57.5868 92.9841 57.6225C92.9443 57.6571 92.9046 57.6745 92.8679 57.6745H90.6635L90.0959 59.1787H91.966C92.0098 59.1787 92.0393 59.195 92.0526 59.2266C92.0658 59.2582 92.0679 59.303 92.0577 59.3591C92.0536 59.3825 92.0465 59.4161 92.0332 59.462C92.02 59.5078 92.0027 59.5619 91.9823 59.6199C91.9639 59.6791 91.9405 59.7371 91.914 59.7973C91.8865 59.8574 91.8569 59.9135 91.8233 59.9654C91.7917 60.0154 91.755 60.0561 91.7183 60.0887C91.6806 60.1193 91.6439 60.1356 91.6042 60.1356H89.7361L89.0798 61.8742H91.3127C91.3504 61.8742 91.3769 61.8905 91.3881 61.9252C91.4024 61.9578 91.4034 62.0067 91.3922 62.0719C91.3881 62.0923 91.38 62.128 91.3688 62.1759C91.3565 62.2248 91.3402 62.2778 91.3188 62.3369C91.2964 62.395 91.273 62.4561 91.2465 62.5163C91.219 62.5764 91.1894 62.6335 91.1578 62.6865C91.1242 62.7384 91.0885 62.7812 91.0518 62.8138C91.0141 62.8444 90.9754 62.8607 90.9346 62.8607H87.8325C87.7815 62.8607 87.7356 62.8546 87.6969 62.8393C87.6572 62.8251 87.6276 62.8006 87.6072 62.768C87.5858 62.7344 87.5756 62.6936 87.5736 62.6447C87.5736 62.5937 87.5848 62.5356 87.6103 62.4653L89.6383 57.0844C89.6923 56.9438 89.7677 56.8429 89.8666 56.7817C89.9634 56.7196 90.0663 56.688 90.1723 56.688H93.2378C93.3204 56.688 93.3509 56.7491 93.3295 56.8704ZM95.912 62.0159C95.9079 62.0393 95.8997 62.075 95.8865 62.1239C95.8732 62.1728 95.8549 62.2289 95.8325 62.2931C95.809 62.3563 95.7836 62.4215 95.755 62.4877C95.7255 62.555 95.6929 62.6172 95.6592 62.6722C95.6266 62.7272 95.5909 62.7731 95.5522 62.8087C95.5145 62.8434 95.4737 62.8607 95.434 62.8607H92.6029C92.552 62.8607 92.5061 62.8546 92.4653 62.8393C92.4235 62.8251 92.394 62.8006 92.3716 62.768C92.3502 62.7344 92.34 62.6936 92.339 62.6447C92.3379 62.5937 92.3492 62.5356 92.3746 62.4653L94.4923 56.8541C94.5015 56.8235 94.5209 56.794 94.5515 56.7685C94.58 56.744 94.6238 56.7226 94.6799 56.7063C94.7349 56.692 94.8052 56.6788 94.8878 56.6706C94.9713 56.6625 95.0753 56.6594 95.1996 56.6594C95.3199 56.6594 95.4187 56.6625 95.4951 56.6706C95.5736 56.6788 95.6327 56.692 95.6745 56.7063C95.7153 56.7226 95.7408 56.744 95.752 56.7685C95.7601 56.794 95.7591 56.8235 95.7479 56.8541L93.8768 61.8253H95.8274C95.8712 61.8253 95.8987 61.8436 95.9109 61.8773C95.9221 61.914 95.9222 61.9588 95.912 62.0159Z" fill="#4198FF"/>
<path fill-rule="evenodd" clip-rule="evenodd" d="M35.1678 67.5853V64.5871H36.0769L36.615 66.6325L37.1459 64.5871H38.058V67.5853H37.4965L37.4945 65.2251L36.9034 67.5853H36.3194L35.7304 65.2251L35.7283 67.5853H35.1678ZM38.6603 65.1191V64.5871H39.2341V65.1191H38.6603ZM38.6603 67.5853V65.4116H39.2341V67.5853H38.6603ZM40.8168 65.4116V65.8681H40.4234V66.7486C40.4234 66.928 40.4275 67.0319 40.4346 67.0605C40.4427 67.09 40.4591 67.1145 40.4866 67.1339C40.5131 67.1532 40.5447 67.1624 40.5834 67.1624C40.6374 67.1624 40.7138 67.1451 40.8147 67.1074L40.8636 67.5548C40.7301 67.6118 40.5793 67.6404 40.4101 67.6404C40.3072 67.6404 40.2145 67.623 40.1309 67.5884C40.0473 67.5527 39.9872 67.5079 39.9485 67.4528C39.9098 67.3968 39.8833 67.3224 39.868 67.2266C39.8557 67.1604 39.8496 67.0248 39.8496 66.82V65.8681H39.5857V65.4116H39.8496V64.9805L40.4234 64.6411V65.4116H40.8168ZM41.7676 67.5853H41.1938V65.4116H41.7258V65.7204C41.8175 65.5746 41.9001 65.4788 41.9735 65.434C42.0468 65.3881 42.1294 65.3657 42.2221 65.3657C42.3536 65.3657 42.48 65.4024 42.6012 65.4737L42.4239 65.9751C42.3261 65.913 42.2364 65.8814 42.1528 65.8814C42.0723 65.8814 42.004 65.9038 41.948 65.9476C41.8919 65.9925 41.8481 66.0719 41.8165 66.1871C41.7839 66.3033 41.7676 66.5468 41.7676 66.9158V67.5853ZM43.2769 66.0821L42.7572 65.9904C42.8163 65.7774 42.9172 65.6205 43.0598 65.5186C43.2035 65.4167 43.4165 65.3657 43.6978 65.3657C43.9546 65.3657 44.1452 65.3963 44.2716 65.4564C44.3959 65.5175 44.4845 65.594 44.5355 65.6877C44.5865 65.7815 44.613 65.9527 44.613 66.2024L44.6038 66.8719C44.6038 67.0625 44.613 67.2042 44.6313 67.2949C44.6496 67.3856 44.6843 67.4824 44.7342 67.5853H44.1645C44.1503 67.5476 44.1309 67.4926 44.1095 67.4182C44.1003 67.3846 44.0932 67.3621 44.0891 67.3509C43.9913 67.4477 43.8863 67.5191 43.7752 67.568C43.6631 67.6159 43.5449 67.6404 43.4186 67.6404C43.1954 67.6404 43.0201 67.5792 42.8917 67.4579C42.7622 67.3377 42.6991 67.1838 42.6991 66.9983C42.6991 66.876 42.7276 66.766 42.7867 66.6702C42.8448 66.5744 42.9273 66.5 43.0333 66.449C43.1383 66.3981 43.2901 66.3542 43.4899 66.3155C43.7579 66.2656 43.9434 66.2177 44.0473 66.1739V66.1168C44.0473 66.0047 44.0198 65.9252 43.9658 65.8773C43.9108 65.8294 43.8068 65.806 43.656 65.806C43.5531 65.806 43.4736 65.8263 43.4165 65.8671C43.3584 65.9079 43.3126 65.9792 43.2769 66.0821ZM44.0473 66.5468C43.974 66.5713 43.8578 66.6009 43.6978 66.6355C43.5388 66.6691 43.4338 66.7028 43.3849 66.7354C43.3105 66.7884 43.2728 66.8556 43.2728 66.9372C43.2728 67.0187 43.3024 67.087 43.3625 67.1461C43.4226 67.2052 43.498 67.2337 43.5918 67.2337C43.6947 67.2337 43.7936 67.2001 43.8884 67.1318C43.9577 67.0798 44.0035 67.0167 44.0249 66.9412C44.0392 66.8923 44.0473 66.7996 44.0473 66.662V66.5468ZM46.7694 66.0821L46.2507 65.9904C46.3088 65.7774 46.4107 65.6205 46.5533 65.5186C46.696 65.4167 46.909 65.3657 47.1913 65.3657C47.4481 65.3657 47.6387 65.3963 47.7651 65.4564C47.8894 65.5175 47.9781 65.594 48.029 65.6877C48.08 65.7815 48.1054 65.9527 48.1054 66.2024L48.0973 66.8719C48.0973 67.0625 48.1065 67.2042 48.1248 67.2949C48.1432 67.3856 48.1768 67.4824 48.2277 67.5853H47.6581C47.6428 67.5476 47.6244 67.4926 47.603 67.4182C47.5939 67.3846 47.5867 67.3621 47.5826 67.3509C47.4848 67.4477 47.3798 67.5191 47.2688 67.568C47.1567 67.6159 47.0374 67.6404 46.9111 67.6404C46.6889 67.6404 46.5126 67.5792 46.3842 67.4579C46.2558 67.3377 46.1916 67.1838 46.1916 66.9983C46.1916 66.876 46.2211 66.766 46.2802 66.6702C46.3383 66.5744 46.4198 66.5 46.5258 66.449C46.6318 66.3981 46.7837 66.3542 46.9824 66.3155C47.2504 66.2656 47.4369 66.2177 47.5409 66.1739V66.1168C47.5409 66.0047 47.5133 65.9252 47.4593 65.8773C47.4033 65.8294 47.3004 65.806 47.1485 65.806C47.0466 65.806 46.9671 65.8263 46.909 65.8671C46.8519 65.9079 46.8051 65.9792 46.7694 66.0821ZM47.5409 66.5468C47.4675 66.5713 47.3503 66.6009 47.1903 66.6355C47.0313 66.6691 46.9263 66.7028 46.8784 66.7354C46.803 66.7884 46.7653 66.8556 46.7653 66.9372C46.7653 67.0187 46.7959 67.087 46.856 67.1461C46.9161 67.2052 46.9916 67.2337 47.0843 67.2337C47.1882 67.2337 47.2871 67.2001 47.3809 67.1318C47.4502 67.0798 47.497 67.0167 47.5184 66.9412C47.5327 66.8923 47.5409 66.7996 47.5409 66.662V66.5468ZM50.6492 67.5853H50.0754V66.4775C50.0754 66.2432 50.0621 66.0923 50.0387 66.023C50.0132 65.9547 49.9735 65.9018 49.9174 65.863C49.8614 65.8243 49.7951 65.806 49.7167 65.806C49.6158 65.806 49.5261 65.8335 49.4466 65.8875C49.3661 65.9415 49.3121 66.0149 49.2825 66.1035C49.2519 66.1942 49.2377 66.3604 49.2377 66.6029V67.5853H48.6639V65.4116H49.1959V65.7305C49.3865 65.487 49.626 65.3657 49.9154 65.3657C50.0428 65.3657 50.159 65.3891 50.2649 65.434C50.3709 65.4809 50.4504 65.5379 50.5034 65.6093C50.5584 65.6806 50.5962 65.7601 50.6165 65.8508C50.639 65.9405 50.6492 66.0689 50.6492 66.236V67.5853ZM53.2244 67.5853H52.6925V67.2674C52.6038 67.3907 52.4978 67.4844 52.3776 67.5466C52.2573 67.6088 52.135 67.6404 52.0117 67.6404C51.761 67.6404 51.547 67.5395 51.3676 67.3377C51.1903 67.1359 51.1006 66.8556 51.1006 66.4949C51.1006 66.126 51.1872 65.8457 51.3615 65.6531C51.5348 65.4615 51.7539 65.3657 52.0199 65.3657C52.2624 65.3657 52.4734 65.4676 52.6507 65.6694V64.5871H53.2244V67.5853ZM51.6917 66.4572C51.6917 66.6895 51.7233 66.8577 51.7865 66.9616C51.8802 67.1125 52.0086 67.1879 52.1748 67.1879C52.3072 67.1879 52.4193 67.1318 52.5111 67.0187C52.6048 66.9056 52.6507 66.7374 52.6507 66.5122C52.6507 66.2615 52.6058 66.0811 52.5162 65.9711C52.4255 65.861 52.3113 65.806 52.1707 65.806C52.0351 65.806 51.921 65.86 51.8293 65.969C51.7376 66.0781 51.6917 66.2411 51.6917 66.4572ZM54.216 66.0821L53.6973 65.9904C53.7554 65.7774 53.8563 65.6205 54 65.5186C54.1427 65.4167 54.3557 65.3657 54.638 65.3657C54.8938 65.3657 55.0853 65.3963 55.2107 65.4564C55.336 65.5175 55.4247 65.594 55.4757 65.6877C55.5266 65.7815 55.5521 65.9527 55.5521 66.2024L55.5439 66.8719C55.5439 67.0625 55.5531 67.2042 55.5715 67.2949C55.5898 67.3856 55.6234 67.4824 55.6744 67.5853H55.1037C55.0894 67.5476 55.0711 67.4926 55.0487 67.4182C55.0405 67.3846 55.0334 67.3621 55.0293 67.3509C54.9315 67.4477 54.8265 67.5191 54.7144 67.568C54.6033 67.6159 54.4841 67.6404 54.3577 67.6404C54.1355 67.6404 53.9592 67.5792 53.8308 67.4579C53.7024 67.3377 53.6382 67.1838 53.6382 66.9983C53.6382 66.876 53.6678 66.766 53.7258 66.6702C53.785 66.5744 53.8665 66.5 53.9725 66.449C54.0785 66.3981 54.2303 66.3542 54.429 66.3155C54.6971 66.2656 54.8836 66.2177 54.9865 66.1739V66.1168C54.9865 66.0047 54.96 65.9252 54.905 65.8773C54.8499 65.8294 54.747 65.806 54.5951 65.806C54.4922 65.806 54.4127 65.8263 54.3557 65.8671C54.2976 65.9079 54.2517 65.9792 54.216 66.0821ZM54.9865 66.5468C54.9141 66.5713 54.7969 66.6009 54.6369 66.6355C54.478 66.6691 54.373 66.7028 54.3241 66.7354C54.2497 66.7884 54.212 66.8556 54.212 66.9372C54.212 67.0187 54.2425 67.087 54.3016 67.1461C54.3618 67.2052 54.4382 67.2337 54.5309 67.2337C54.6339 67.2337 54.7337 67.2001 54.8275 67.1318C54.8968 67.0798 54.9427 67.0167 54.9651 66.9412C54.9794 66.8923 54.9865 66.7996 54.9865 66.662V66.5468ZM57.2408 65.4116H57.7687V65.7091C57.9572 65.4809 58.1824 65.3657 58.4443 65.3657C58.584 65.3657 58.7042 65.3942 58.8061 65.4523C58.909 65.5094 58.9926 65.596 59.0578 65.7112C59.1536 65.596 59.2566 65.5094 59.3666 65.4523C59.4767 65.3942 59.5949 65.3657 59.7203 65.3657C59.8803 65.3657 60.0148 65.3983 60.1259 65.4625C60.2359 65.5277 60.3185 65.6225 60.3725 65.7489C60.4122 65.8406 60.4316 65.9904 60.4316 66.1983V67.5853H59.8578V66.3451C59.8578 66.13 59.8385 65.9904 59.7987 65.9282C59.7457 65.8467 59.6632 65.806 59.5531 65.806C59.4726 65.806 59.3972 65.8304 59.3259 65.8793C59.2545 65.9282 59.2036 66.0006 59.172 66.0944C59.1404 66.1891 59.1251 66.3389 59.1251 66.5438V67.5853H58.5513V66.396C58.5513 66.1851 58.5411 66.0485 58.5208 65.9884C58.5004 65.9262 58.4688 65.8804 58.426 65.8508C58.3832 65.8202 58.3241 65.806 58.2517 65.806C58.1631 65.806 58.0826 65.8294 58.0122 65.8773C57.9409 65.9252 57.891 65.9935 57.8604 66.0832C57.8298 66.1739 57.8145 66.3226 57.8145 66.5316V67.5853H57.2408V65.4116ZM62.2629 66.8984L62.8367 66.9953C62.7633 67.2052 62.6472 67.3652 62.4882 67.4753C62.3292 67.5853 62.1305 67.6404 61.892 67.6404C61.5149 67.6404 61.2347 67.517 61.0543 67.2694C60.9106 67.0717 60.8392 66.821 60.8392 66.5193C60.8392 66.1586 60.933 65.8763 61.1215 65.6725C61.3091 65.4676 61.5465 65.3657 61.8349 65.3657C62.157 65.3657 62.4117 65.4727 62.5993 65.6867C62.7858 65.8997 62.8744 66.2279 62.8663 66.6681H61.4293C61.4334 66.8393 61.4803 66.9718 61.5689 67.0666C61.6566 67.1614 61.7666 67.2093 61.8981 67.2093C61.9878 67.2093 62.0632 67.1848 62.1243 67.1359C62.1855 67.087 62.2314 67.0075 62.2629 66.8984ZM62.2966 66.3165C62.2925 66.1494 62.2497 66.023 62.1682 65.9364C62.0866 65.8488 61.9878 65.806 61.8706 65.806C61.7452 65.806 61.6423 65.8518 61.5598 65.9435C61.4782 66.0342 61.4385 66.1596 61.4405 66.3165H62.2966ZM63.2943 65.4116H63.8222V65.7091C64.0107 65.4809 64.237 65.3657 64.4989 65.3657C64.6375 65.3657 64.7577 65.3942 64.8596 65.4523C64.9626 65.5094 65.0461 65.596 65.1114 65.7112C65.2072 65.596 65.3101 65.5094 65.4202 65.4523C65.5312 65.3942 65.6484 65.3657 65.7748 65.3657C65.9338 65.3657 66.0683 65.3983 66.1794 65.4625C66.2895 65.5277 66.372 65.6225 66.427 65.7489C66.4668 65.8406 66.4861 65.9904 66.4861 66.1983V67.5853H65.9124V66.3451C65.9124 66.13 65.892 65.9904 65.8523 65.9282C65.7993 65.8467 65.7177 65.806 65.6067 65.806C65.5272 65.806 65.4507 65.8304 65.3794 65.8793C65.3091 65.9282 65.2571 66.0006 65.2255 66.0944C65.1939 66.1891 65.1786 66.3389 65.1786 66.5438V67.5853H64.6049V66.396C64.6049 66.1851 64.5947 66.0485 64.5743 65.9884C64.5539 65.9262 64.5233 65.8804 64.4795 65.8508C64.4367 65.8202 64.3786 65.806 64.3052 65.806C64.2166 65.806 64.1371 65.8294 64.0668 65.8773C63.9954 65.9252 63.9445 65.9935 63.9139 66.0832C63.8833 66.1739 63.868 66.3226 63.868 66.5316V67.5853H63.2943V65.4116ZM67.0354 67.5853V64.5871H67.6092V65.6694C67.7865 65.4676 67.9954 65.3657 68.239 65.3657C68.503 65.3657 68.7221 65.4615 68.8953 65.6531C69.0676 65.8457 69.1542 66.1209 69.1542 66.4806C69.1542 66.8526 69.0665 67.1379 68.8902 67.3397C68.7139 67.5395 68.4989 67.6404 68.2462 67.6404C68.1218 67.6404 67.9995 67.6077 67.8793 67.5446C67.758 67.4804 67.654 67.3886 67.5674 67.2674V67.5853H67.0354ZM67.6011 66.4572C67.6011 66.6824 67.6367 66.8495 67.707 66.9576C67.8069 67.1114 67.9394 67.1879 68.1045 67.1879C68.2319 67.1879 68.3399 67.1339 68.4296 67.0248C68.5193 66.9158 68.5641 66.7435 68.5641 66.5102C68.5641 66.2605 68.5183 66.0811 68.4286 65.9711C68.3389 65.861 68.2237 65.806 68.0821 65.806C67.9445 65.806 67.8293 65.86 67.7386 65.967C67.6469 66.075 67.6011 66.2381 67.6011 66.4572ZM70.0459 66.0821L69.5262 65.9904C69.5853 65.7774 69.6862 65.6205 69.8298 65.5186C69.9725 65.4167 70.1855 65.3657 70.4678 65.3657C70.7236 65.3657 70.9152 65.3963 71.0406 65.4564C71.1659 65.5175 71.2546 65.594 71.3055 65.6877C71.3565 65.7815 71.382 65.9527 71.382 66.2024L71.3738 66.8719C71.3738 67.0625 71.383 67.2042 71.4013 67.2949C71.4197 67.3856 71.4533 67.4824 71.5032 67.5853H70.9335C70.9193 67.5476 70.9009 67.4926 70.8785 67.4182C70.8693 67.3846 70.8632 67.3621 70.8581 67.3509C70.7613 67.4477 70.6563 67.5191 70.5442 67.568C70.4332 67.6159 70.3139 67.6404 70.1876 67.6404C69.9654 67.6404 69.7891 67.5792 69.6607 67.4579C69.5323 67.3377 69.4681 67.1838 69.4681 66.9983C69.4681 66.876 69.4976 66.766 69.5557 66.6702C69.6148 66.5744 69.6964 66.5 69.8023 66.449C69.9083 66.3981 70.0602 66.3542 70.2589 66.3155C70.5269 66.2656 70.7134 66.2177 70.8163 66.1739V66.1168C70.8163 66.0047 70.7899 65.9252 70.7348 65.8773C70.6798 65.8294 70.5769 65.806 70.425 65.806C70.3221 65.806 70.2426 65.8263 70.1855 65.8671C70.1274 65.9079 70.0816 65.9792 70.0459 66.0821ZM70.8163 66.5468C70.743 66.5713 70.6268 66.6009 70.4668 66.6355C70.3078 66.6691 70.2028 66.7028 70.1539 66.7354C70.0795 66.7884 70.0418 66.8556 70.0418 66.9372C70.0418 67.0187 70.0724 67.087 70.1315 67.1461C70.1916 67.2052 70.2681 67.2337 70.3608 67.2337C70.4637 67.2337 70.5636 67.2001 70.6574 67.1318C70.7267 67.0798 70.7725 67.0167 70.795 66.9412C70.8092 66.8923 70.8163 66.7996 70.8163 66.662V66.5468ZM73.9257 67.5853H73.3519V66.4775C73.3519 66.2432 73.3386 66.0923 73.3142 66.023C73.2897 65.9547 73.25 65.9018 73.1939 65.863C73.1379 65.8243 73.0706 65.806 72.9932 65.806C72.8923 65.806 72.8026 65.8335 72.7221 65.8875C72.6426 65.9415 72.5876 66.0149 72.558 66.1035C72.5285 66.1942 72.5142 66.3604 72.5142 66.6029V67.5853H71.9404V65.4116H72.4714V65.7305C72.662 65.487 72.9015 65.3657 73.1919 65.3657C73.3183 65.3657 73.4355 65.3891 73.5404 65.434C73.6464 65.4809 73.7259 65.5379 73.7799 65.6093C73.835 65.6806 73.8727 65.7601 73.893 65.8508C73.9144 65.9405 73.9257 66.0689 73.9257 66.236V67.5853ZM74.4525 67.7239L75.1099 67.8034C75.1211 67.8809 75.1466 67.9339 75.1853 67.9634C75.2403 68.0042 75.3259 68.0256 75.4431 68.0256C75.5939 68.0256 75.706 68.0032 75.7815 67.9583C75.8314 67.9277 75.8701 67.8798 75.8956 67.8126C75.9139 67.7657 75.9221 67.677 75.9221 67.5486L75.9252 67.2317C75.7519 67.4681 75.5348 67.5853 75.2719 67.5853C74.9804 67.5853 74.7481 67.462 74.5779 67.2154C74.4444 67.0207 74.3771 66.7782 74.3771 66.4888C74.3771 66.1239 74.4648 65.8467 74.6401 65.6541C74.8153 65.4625 75.0334 65.3657 75.2953 65.3657C75.5634 65.3657 75.7855 65.4839 75.9598 65.7193V65.4116H76.4969V67.3611C76.4969 67.6169 76.4755 67.8095 76.4327 67.9359C76.3909 68.0623 76.3318 68.1621 76.2553 68.2345C76.1789 68.3058 76.077 68.3639 75.9486 68.4037C75.8212 68.4455 75.6602 68.4658 75.4655 68.4658C75.0966 68.4658 74.8357 68.4016 74.6818 68.2753C74.5269 68.1489 74.4505 67.9889 74.4505 67.7942C74.4505 67.7749 74.4515 67.7514 74.4525 67.7239ZM74.9672 66.4551C74.9672 66.6854 75.012 66.8536 75.1007 66.9606C75.1904 67.0676 75.3004 67.1206 75.4309 67.1206C75.5705 67.1206 75.6897 67.0656 75.7855 66.9565C75.8824 66.8465 75.9313 66.6844 75.9313 66.4694C75.9313 66.2452 75.8844 66.0781 75.7917 65.969C75.6999 65.86 75.5827 65.806 75.4411 65.806C75.3035 65.806 75.1904 65.86 75.1007 65.966C75.012 66.073 74.9672 66.236 74.9672 66.4551ZM78.5015 67.5853V67.2602C78.422 67.3764 78.318 67.4681 78.1896 67.5374C78.0602 67.6057 77.9236 67.6404 77.781 67.6404C77.6342 67.6404 77.5027 67.6077 77.3876 67.5435C77.2704 67.4793 77.1868 67.3886 77.1348 67.2735C77.0829 67.1563 77.0574 66.9963 77.0574 66.7904V65.4116H77.6311V66.4133C77.6311 66.7191 77.6413 66.9066 77.6627 66.9759C77.6841 67.0452 77.7218 67.1002 77.7789 67.14C77.835 67.1807 77.9053 67.2001 77.9919 67.2001C78.0908 67.2001 78.1784 67.1736 78.2569 67.1196C78.3354 67.0656 78.3883 66.9983 78.4169 66.9188C78.4454 66.8383 78.4597 66.6426 78.4597 66.3308V65.4116H79.0334V67.5853H78.5015ZM81.6006 67.5853H81.0268V66.4775C81.0268 66.2432 81.0146 66.0923 80.9901 66.023C80.9647 65.9547 80.9249 65.9018 80.8689 65.863C80.8138 65.8243 80.7466 65.806 80.6681 65.806C80.5672 65.806 80.4775 65.8335 80.398 65.8875C80.3175 65.9415 80.2635 66.0149 80.234 66.1035C80.2034 66.1942 80.1891 66.3604 80.1891 66.6029V67.5853H79.6154V65.4116H80.1473V65.7305C80.3379 65.487 80.5774 65.3657 80.8668 65.3657C80.9942 65.3657 81.1104 65.3891 81.2164 65.434C81.3224 65.4809 81.4019 65.5379 81.4559 65.6093C81.5099 65.6806 81.5476 65.7601 81.569 65.8508C81.5904 65.9405 81.6006 66.0689 81.6006 66.236V67.5853ZM85.3397 67.5853H84.8077V67.2674C84.7191 67.3907 84.6141 67.4844 84.4928 67.5466C84.3726 67.6088 84.2503 67.6404 84.127 67.6404C83.8763 67.6404 83.6623 67.5395 83.4839 67.3377C83.3056 67.1359 83.2159 66.8556 83.2159 66.4949C83.2159 66.126 83.3025 65.8457 83.4768 65.6531C83.65 65.4615 83.8691 65.3657 84.1351 65.3657C84.3777 65.3657 84.5886 65.4676 84.766 65.6694V64.5871H85.3397V67.5853ZM83.807 66.4572C83.807 66.6895 83.8386 66.8577 83.9028 66.9616C83.9955 67.1125 84.1239 67.1879 84.29 67.1879C84.4225 67.1879 84.5346 67.1318 84.6273 67.0187C84.7201 66.9056 84.766 66.7374 84.766 66.5122C84.766 66.2615 84.7211 66.0811 84.6314 65.9711C84.5407 65.861 84.4266 65.806 84.2859 65.806C84.1504 65.806 84.0363 65.86 83.9445 65.969C83.8528 66.0781 83.807 66.2411 83.807 66.4572ZM86.3313 66.0821L85.8126 65.9904C85.8707 65.7774 85.9726 65.6205 86.1153 65.5186C86.2579 65.4167 86.4709 65.3657 86.7532 65.3657C87.01 65.3657 87.2006 65.3963 87.326 65.4564C87.4513 65.5175 87.54 65.594 87.5909 65.6877C87.6419 65.7815 87.6674 65.9527 87.6674 66.2024L87.6592 66.8719C87.6592 67.0625 87.6684 67.2042 87.6867 67.2949C87.7051 67.3856 87.7387 67.4824 87.7897 67.5853H87.22C87.2047 67.5476 87.1863 67.4926 87.1649 67.4182C87.1558 67.3846 87.1486 67.3621 87.1446 67.3509C87.0467 67.4477 86.9418 67.5191 86.8297 67.568C86.7186 67.6159 86.5993 67.6404 86.473 67.6404C86.2508 67.6404 86.0745 67.5792 85.9461 67.4579C85.8177 67.3377 85.7535 67.1838 85.7535 66.9983C85.7535 66.876 85.783 66.766 85.8421 66.6702C85.9002 66.5744 85.9818 66.5 86.0877 66.449C86.1937 66.3981 86.3456 66.3542 86.5443 66.3155C86.8123 66.2656 86.9988 66.2177 87.1028 66.1739V66.1168C87.1028 66.0047 87.0753 65.9252 87.0202 65.8773C86.9652 65.8294 86.8623 65.806 86.7104 65.806C86.6085 65.806 86.529 65.8263 86.4709 65.8671C86.4128 65.9079 86.367 65.9792 86.3313 66.0821ZM87.1028 66.5468C87.0294 66.5713 86.9122 66.6009 86.7522 66.6355C86.5932 66.6691 86.4883 66.7028 86.4404 66.7354C86.3649 66.7884 86.3272 66.8556 86.3272 66.9372C86.3272 67.0187 86.3578 67.087 86.4179 67.1461C86.4781 67.2052 86.5535 67.2337 86.6462 67.2337C86.7502 67.2337 86.849 67.2001 86.9428 67.1318C87.0121 67.0798 87.0579 67.0167 87.0804 66.9412C87.0946 66.8923 87.1028 66.7996 87.1028 66.662V66.5468ZM89.4905 66.8984L90.0643 66.9953C89.9909 67.2052 89.8748 67.3652 89.7158 67.4753C89.5568 67.5853 89.3581 67.6404 89.1196 67.6404C88.7425 67.6404 88.4623 67.517 88.2819 67.2694C88.1382 67.0717 88.0669 66.821 88.0669 66.5193C88.0669 66.1586 88.1606 65.8763 88.3481 65.6725C88.5367 65.4676 88.7741 65.3657 89.0615 65.3657C89.3846 65.3657 89.6393 65.4727 89.8258 65.6867C90.0123 65.8997 90.102 66.2279 90.0939 66.6681H88.6569C88.661 66.8393 88.7069 66.9718 88.7955 67.0666C88.8842 67.1614 88.9942 67.2093 89.1257 67.2093C89.2154 67.2093 89.2908 67.1848 89.352 67.1359C89.4131 67.087 89.459 67.0075 89.4905 66.8984ZM89.5242 66.3165C89.5201 66.1494 89.4773 66.023 89.3958 65.9364C89.3142 65.8488 89.2144 65.806 89.0972 65.806C88.9728 65.806 88.8689 65.8518 88.7874 65.9435C88.7058 66.0342 88.6661 66.1596 88.6671 66.3165H89.5242ZM91.112 67.5853H90.5382V65.4116H91.0702V65.7204C91.1619 65.5746 91.2444 65.4788 91.3178 65.434C91.3902 65.3881 91.4738 65.3657 91.5665 65.3657C91.698 65.3657 91.8243 65.4024 91.9456 65.4737L91.7673 65.9751C91.6704 65.913 91.5807 65.8814 91.4972 65.8814C91.4167 65.8814 91.3484 65.9038 91.2923 65.9476C91.2363 65.9925 91.1925 66.0719 91.1599 66.1871C91.1283 66.3033 91.112 66.5468 91.112 66.9158V67.5853ZM92.6202 66.0821L92.1015 65.9904C92.1596 65.7774 92.2615 65.6205 92.4042 65.5186C92.5479 65.4167 92.7599 65.3657 93.0422 65.3657C93.299 65.3657 93.4895 65.3963 93.6159 65.4564C93.7402 65.5175 93.8289 65.594 93.8799 65.6877C93.9308 65.7815 93.9573 65.9527 93.9573 66.2024L93.9482 66.8719C93.9482 67.0625 93.9573 67.2042 93.9757 67.2949C93.994 67.3856 94.0276 67.4824 94.0786 67.5853H93.5089C93.4936 67.5476 93.4753 67.4926 93.4539 67.4182C93.4447 67.3846 93.4376 67.3621 93.4335 67.3509C93.3357 67.4477 93.2307 67.5191 93.1196 67.568C93.0075 67.6159 92.8893 67.6404 92.7619 67.6404C92.5397 67.6404 92.3634 67.5792 92.235 67.4579C92.1066 67.3377 92.0424 67.1838 92.0424 66.9983C92.0424 66.876 92.072 66.766 92.1311 66.6702C92.1892 66.5744 92.2707 66.5 92.3767 66.449C92.4827 66.3981 92.6345 66.3542 92.8332 66.3155C93.1013 66.2656 93.2878 66.2177 93.3917 66.1739V66.1168C93.3917 66.0047 93.3642 65.9252 93.3102 65.8773C93.2541 65.8294 93.1512 65.806 92.9994 65.806C92.8974 65.806 92.818 65.8263 92.7599 65.8671C92.7028 65.9079 92.6559 65.9792 92.6202 66.0821ZM93.3917 66.5468C93.3183 66.5713 93.2011 66.6009 93.0422 66.6355C92.8822 66.6691 92.7782 66.7028 92.7293 66.7354C92.6539 66.7884 92.6162 66.8556 92.6162 66.9372C92.6162 67.0187 92.6467 67.087 92.7069 67.1461C92.767 67.2052 92.8424 67.2337 92.9352 67.2337C93.0391 67.2337 93.138 67.2001 93.2327 67.1318C93.301 67.0798 93.3479 67.0167 93.3693 66.9412C93.3836 66.8923 93.3917 66.7996 93.3917 66.662V66.5468ZM95.0885 64.5871V65.6979C95.275 65.4768 95.4982 65.3657 95.7571 65.3657C95.8906 65.3657 96.0108 65.3902 96.1178 65.4391C96.2238 65.489 96.3043 65.5512 96.3594 65.6276C96.4134 65.704 96.4501 65.7886 96.4705 65.8814C96.4898 65.9741 96.5 66.1178 96.5 66.3125V67.5853H95.9262V66.4398C95.9262 66.2116 95.915 66.0679 95.8936 66.0057C95.8712 65.9446 95.8315 65.8956 95.7764 65.86C95.7204 65.8243 95.6501 65.806 95.5655 65.806C95.4697 65.806 95.3841 65.8284 95.3076 65.8753C95.2312 65.9221 95.1762 65.9914 95.1415 66.0852C95.1059 66.1779 95.0885 66.3165 95.0885 66.4979V67.5853H94.5148V64.5871H95.0885Z" fill="#ED1C24"/>
</g>
<rect x="1.5" y="1" width="110" height="110" rx="9" stroke="#CCCCCC" stroke-width="2"/>
<defs>
<clipPath id="clip0_517_518">
<rect x="2.5" y="2" width="108" height="108" rx="8" fill="white"/>
</clipPath>
</defs>
</svg>
