<svg width="113" height="112" viewBox="0 0 113 112" fill="none" xmlns="http://www.w3.org/2000/svg">
<g clip-path="url(#clip0_421_557)">
<rect x="2.5" y="2" width="108" height="108" rx="8" fill="white"/>
<g clip-path="url(#clip1_421_557)">
<path fill-rule="evenodd" clip-rule="evenodd" d="M17.5112 50.6486C22.8805 47.723 27.4708 46.2779 31.1713 46.1178C38.8036 45.7885 41.2538 48.7719 37.4055 53.2194C35.9184 54.9384 33.549 56.688 29.0586 57.9235C40.4186 51.5449 36.4317 48.4071 31.409 47.8195C28.4314 47.4704 22.628 48.2627 17.5112 50.6486Z" fill="#115588"/>
<path fill-rule="evenodd" clip-rule="evenodd" d="M16.6455 52.4766C19.6347 50.519 22.7155 49.409 25.2821 48.9757C30.4443 48.1059 36.8468 49.5254 31.9875 53.0147C30.7059 53.9349 28.6344 55.0515 25.467 56.2869C27.2776 55.4129 28.5931 54.5472 29.5397 53.8226C33.0629 51.1272 30.9287 49.3735 25.4661 49.938C23.1108 50.1815 20.0795 50.9696 16.6455 52.4766Z" fill="#FECC1A"/>
<path fill-rule="evenodd" clip-rule="evenodd" d="M27.8884 55.5012C28.0353 56.1433 27.871 56.9471 27.3949 57.9136C29.2031 56.754 29.8517 55.7208 29.3409 54.813L29.3301 54.8179C28.887 55.0399 28.4075 55.2685 27.8884 55.5012ZM25.8309 50.5116C22.9251 50.4926 19.0521 51.6629 16.015 53.0543C18.6625 52.1877 20.9799 51.7247 22.8508 51.6208C26.095 51.44 28.5222 51.6711 27.8265 53.5082C27.7217 53.7855 27.4939 54.0892 27.1786 54.435C27.3552 54.5679 27.5013 54.7181 27.6169 54.8839L27.7184 54.8212C28.1038 54.5827 28.4545 54.35 28.7731 54.1263C28.6839 53.9051 28.7789 53.6609 29.0702 53.4083C30.3634 52.2843 30.0556 51.4276 28.2688 50.8623C27.6474 50.6651 26.8328 50.5182 25.8309 50.5116Z" fill="#115588"/>
<path fill-rule="evenodd" clip-rule="evenodd" d="M41.5559 51.4599C42.2764 51.28 44.4147 51.2214 45.0749 51.6522C46.5052 52.5856 45.7244 53.9861 44.4568 54.3311C45.783 54.8105 45.8598 56.2177 44.8307 57.0413C44.4164 57.3731 43.96 57.5546 43.1603 57.6256C42.2162 57.7106 41.2679 57.7164 40.3114 57.5802L41.5559 51.4599ZM42.7782 52.3842L42.4712 53.8953H43.0546C43.3592 53.8953 43.719 53.8326 43.9055 53.7286C44.2719 53.5239 44.3479 53.2153 44.3528 53.0915C44.371 52.6359 44.0673 52.3842 43.4978 52.3842H42.7782ZM42.2756 54.8559L41.9199 56.608H42.798C43.1281 56.608 43.5713 56.4347 43.738 56.2829C43.9055 56.1318 43.9955 55.947 44.0062 55.7266C44.0194 55.4592 43.9352 55.2818 43.7982 55.1473C43.6678 55.0193 43.4186 54.8559 43.1372 54.8559H42.2756Z" fill="#115588"/>
<path fill-rule="evenodd" clip-rule="evenodd" d="M51.6392 57.6866H50.1529L50.0101 56.0402H48.0303L47.1984 57.6866H45.6262L49.0833 51.3319H50.8841L51.6392 57.6866ZM48.4495 55.0061H49.935L49.6932 52.4254L48.4495 55.0061Z" fill="#115588"/>
<path fill-rule="evenodd" clip-rule="evenodd" d="M77.5804 57.6866H76.0941L75.9513 56.0402H73.9723L73.1404 57.6866H71.5674L75.0245 51.3319H76.8253L77.5804 57.6866ZM74.3907 55.0061H75.877L75.6344 52.4254L74.3907 55.0061Z" fill="#115588"/>
<path fill-rule="evenodd" clip-rule="evenodd" d="M95.9851 57.6866H94.4987L94.356 56.0402H92.3761L91.5442 57.6866H89.972L93.4292 51.3319H95.2299L95.9851 57.6866ZM92.7953 55.0061H94.2808L94.0382 52.4254L92.7953 55.0061Z" fill="#115588"/>
<path fill-rule="evenodd" clip-rule="evenodd" d="M59.0643 51.3319L57.7777 57.6866H56.3268L54.6391 52.9726C54.621 53.2796 54.4501 54.1197 54.2199 55.2619L53.7313 57.6866H52.4406L53.7197 51.3319H55.419L56.945 55.8941C56.9582 55.767 57.1447 54.4465 57.3708 53.3357L57.7785 51.3319H59.0643Z" fill="#115588"/>
<path fill-rule="evenodd" clip-rule="evenodd" d="M65.7144 51.3319L62.9348 54.0983L64.4913 57.6866H62.9159L61.7695 54.9326L61.0086 55.6118L60.5844 57.6866H59.2004L60.4986 51.3319H61.8826L61.2719 54.3244L61.4807 54.0677C61.5995 53.9183 61.7052 53.7929 61.7943 53.6897L63.9079 51.3319H65.7144Z" fill="#115588"/>
<path fill-rule="evenodd" clip-rule="evenodd" d="M90.6198 51.3427L89.9043 54.7552C89.5312 56.5337 88.7819 57.6866 86.7566 57.6866C85.5369 57.6866 84.4541 57.0899 84.4541 55.7769C84.4541 55.5912 84.4673 55.3808 84.5135 55.1489L85.2612 51.3427H86.7558L86.0089 54.917C85.9553 55.1753 85.9363 55.4039 85.9396 55.5986C85.9437 55.8239 86.0023 56.0847 86.1674 56.2572C86.6106 56.7194 87.5679 56.7598 88.0837 55.8256C88.2521 55.5211 88.4006 55.1167 88.5128 54.5901L89.2044 51.3427H90.6198Z" fill="#115588"/>
<path fill-rule="evenodd" clip-rule="evenodd" d="M68.8819 55.4666L68.4387 57.6866H67.02L68.2505 51.5209C69.2392 51.3476 70.9451 51.2543 71.6144 51.6562C72.1648 51.988 72.5956 52.3767 72.6014 53.0675C72.6064 53.7467 72.3027 54.4655 71.7126 54.8814C70.7462 55.5623 69.9853 55.4666 68.8819 55.4666ZM69.4835 52.4535L69.0989 54.3747C69.5181 54.4226 69.9019 54.4275 70.237 54.3351C71.4006 54.0165 71.4039 52.5632 70.4714 52.4584C70.1412 52.4213 69.7971 52.446 69.4835 52.4535Z" fill="#115588"/>
<path fill-rule="evenodd" clip-rule="evenodd" d="M80.2254 55.4666L79.783 57.6866H78.3635L79.5949 51.5209C80.5827 51.3476 82.2886 51.2543 82.9579 51.6562C83.5083 51.988 83.94 52.3767 83.9449 53.0675C83.9507 53.7467 83.6462 54.4655 83.0561 54.8814C82.0905 55.5623 81.3296 55.4666 80.2254 55.4666ZM80.8278 52.4535L80.4432 54.3747C80.8617 54.4226 81.2462 54.4275 81.5813 54.3351C82.745 54.0165 82.7483 52.5632 81.8149 52.4584C81.4847 52.4213 81.1406 52.446 80.8278 52.4535Z" fill="#115588"/>
<path fill-rule="evenodd" clip-rule="evenodd" d="M16.1743 64.9227L16.8742 61.5819H18.0172C18.2656 61.5819 18.4389 61.5902 18.5379 61.605C18.7022 61.6281 18.8416 61.6727 18.9555 61.7412C19.0702 61.8097 19.1569 61.9005 19.2163 62.0152C19.2757 62.1291 19.3046 62.2553 19.3046 62.3932C19.3046 62.5789 19.2535 62.739 19.1503 62.8751C19.0471 63.0113 18.8878 63.1145 18.6725 63.1838C18.8425 63.2317 18.9762 63.315 19.0727 63.4355C19.1684 63.556 19.2163 63.693 19.2163 63.8448C19.2163 64.0454 19.1594 64.236 19.0455 64.4159C18.9308 64.5958 18.774 64.7246 18.5734 64.8046C18.3729 64.883 18.0981 64.9227 17.7498 64.9227H16.1743ZM17.2777 62.9304H17.8034C18.0403 62.9304 18.2095 62.9139 18.3126 62.8809C18.4166 62.8471 18.4942 62.7926 18.5462 62.7167C18.5982 62.6407 18.6238 62.5599 18.6238 62.474C18.6238 62.389 18.5998 62.3189 18.5511 62.2644C18.5016 62.21 18.4323 62.1736 18.3423 62.1563C18.292 62.1464 18.1707 62.1423 17.9784 62.1423H17.4428L17.2777 62.9304ZM16.9732 64.3862H17.6367C17.9165 64.3862 18.103 64.3681 18.1979 64.3326C18.2936 64.2963 18.3687 64.2385 18.4265 64.156C18.4835 64.0743 18.5115 63.9868 18.5115 63.896C18.5115 63.7854 18.4703 63.6938 18.3886 63.622C18.3068 63.5494 18.1699 63.5139 17.9776 63.5139H17.1556L16.9732 64.3862ZM21.9001 63.915H20.2578C20.2562 63.9406 20.2553 63.9604 20.2553 63.9744C20.2553 64.137 20.3016 64.2682 20.394 64.3672C20.4864 64.4671 20.6003 64.5166 20.7332 64.5166C20.9527 64.5166 21.1235 64.4044 21.2465 64.1807L21.83 64.2789C21.7153 64.5133 21.5634 64.6891 21.372 64.8063C21.1805 64.9243 20.9667 64.9829 20.7291 64.9829C20.4031 64.9829 20.1382 64.8797 19.9343 64.6734C19.7296 64.4671 19.6273 64.1939 19.6273 63.8531C19.6273 63.5213 19.7197 63.2259 19.9038 62.9659C20.1538 62.6152 20.5128 62.4402 20.9775 62.4402C21.2737 62.4402 21.5098 62.5326 21.6847 62.7158C21.8589 62.8991 21.9464 63.1566 21.9464 63.4875C21.9464 63.6459 21.9307 63.7879 21.9001 63.915ZM21.3488 63.518C21.3505 63.4883 21.3513 63.4669 21.3513 63.4512C21.3513 63.2704 21.3109 63.1343 21.23 63.0435C21.15 62.9519 21.0418 62.9073 20.9057 62.9073C20.7703 62.9073 20.649 62.9585 20.5417 63.0616C20.4344 63.164 20.3626 63.3167 20.3247 63.518H21.3488ZM22.6082 62.5013H23.2222L23.1298 62.9568C23.3551 62.6127 23.5994 62.4402 23.8635 62.4402C23.9567 62.4402 24.0566 62.4641 24.1631 62.5112L23.9114 63.046C23.8519 63.0253 23.7884 63.0146 23.7215 63.0146C23.6085 63.0146 23.4946 63.0575 23.3782 63.1425C23.261 63.2284 23.1702 63.3414 23.1051 63.485C23.039 63.627 22.9747 63.8531 22.9103 64.1626L22.7543 64.9227H22.1015L22.6082 62.5013ZM23.8701 64.2492L24.5047 64.1477C24.5609 64.2822 24.631 64.3771 24.7135 64.4333C24.7969 64.4886 24.9099 64.5166 25.0535 64.5166C25.2021 64.5166 25.3209 64.4836 25.4101 64.4159C25.472 64.3697 25.5033 64.3128 25.5033 64.2476C25.5033 64.2022 25.4876 64.1626 25.4555 64.1279C25.4224 64.0941 25.3317 64.0528 25.1848 64.0041C24.7911 63.8737 24.5485 63.7697 24.4544 63.693C24.3067 63.575 24.234 63.4198 24.234 63.2275C24.234 63.0352 24.3058 62.8694 24.4478 62.7307C24.6459 62.5368 24.9405 62.4402 25.3308 62.4402C25.642 62.4402 25.8772 62.498 26.0356 62.6127C26.1949 62.7266 26.2956 62.8809 26.3377 63.0765L25.7361 63.1821C25.7047 63.0938 25.6527 63.027 25.5826 62.9824C25.4852 62.9222 25.3696 62.8933 25.2335 62.8933C25.0973 62.8933 24.9991 62.9156 24.9388 62.9618C24.8794 63.0072 24.8497 63.06 24.8497 63.1194C24.8497 63.1805 24.8802 63.2308 24.9405 63.2704C24.9784 63.2952 25.1006 63.3381 25.3053 63.3984C25.6238 63.4916 25.8359 63.5824 25.9432 63.6732C26.0951 63.7994 26.1702 63.9521 26.1702 64.1304C26.1702 64.3606 26.0736 64.5604 25.8805 64.7295C25.689 64.8987 25.4175 64.9829 25.0668 64.9829C24.7177 64.9829 24.4486 64.9185 24.258 64.7906C24.0673 64.6619 23.9386 64.482 23.8701 64.2492ZM27.4725 63.178L26.8337 63.1235C26.9063 62.9098 27.0342 62.7423 27.2158 62.6218C27.3982 62.5013 27.6383 62.4402 27.9379 62.4402C28.2499 62.4402 28.481 62.5038 28.6295 62.6284C28.7789 62.7546 28.8532 62.9081 28.8532 63.0889C28.8532 63.1623 28.8474 63.2399 28.8342 63.3216C28.821 63.4041 28.7756 63.6204 28.698 63.9703C28.6336 64.2591 28.6014 64.4622 28.6014 64.5777C28.6014 64.6817 28.6204 64.7956 28.6567 64.9227H28.0188C27.9932 64.8344 27.9784 64.7427 27.9718 64.6487C27.876 64.7551 27.7654 64.8377 27.6416 64.8963C27.517 64.954 27.3908 64.9829 27.2653 64.9829C27.0639 64.9829 26.8989 64.9169 26.7685 64.7848C26.6373 64.6528 26.5721 64.4836 26.5721 64.2756C26.5721 64.0437 26.6439 63.858 26.7875 63.7194C26.9311 63.5807 27.1877 63.4966 27.5575 63.4677C27.8694 63.4413 28.0774 63.4099 28.1822 63.3736C28.2094 63.282 28.2235 63.2085 28.2235 63.1541C28.2235 63.0839 28.1954 63.0253 28.1393 62.9775C28.0832 62.9304 27.999 62.9073 27.8876 62.9073C27.7712 62.9073 27.6788 62.9304 27.6111 62.9775C27.5434 63.0245 27.4964 63.0914 27.4725 63.178ZM28.0955 63.7887C28.0559 63.7994 28.0039 63.8102 27.9379 63.8193C27.6103 63.8589 27.3957 63.9175 27.295 63.9942C27.224 64.0503 27.1877 64.1246 27.1877 64.2179C27.1877 64.2954 27.215 64.3606 27.2703 64.4143C27.3247 64.4671 27.3974 64.4935 27.4865 64.4935C27.5855 64.4935 27.6788 64.4688 27.7654 64.4201C27.8537 64.3722 27.9189 64.3095 27.9618 64.2335C28.0056 64.1576 28.0435 64.038 28.0766 63.877L28.0955 63.7887ZM29.6322 62.5013H30.2512L30.1951 62.791C30.4352 62.5574 30.6878 62.4402 30.9519 62.4402C31.1351 62.4402 31.2754 62.479 31.3744 62.5541C31.4743 62.63 31.537 62.7348 31.5642 62.8685C31.6484 62.7472 31.7681 62.6457 31.9249 62.5632C32.0817 62.4815 32.2442 62.4402 32.4134 62.4402C32.6065 62.4402 32.7576 62.493 32.8657 62.5987C32.9738 62.7035 33.0274 62.8421 33.0274 63.0154C33.0266 63.0988 33.0043 63.2424 32.9589 63.4471L32.6429 64.9227H31.9892L32.3037 63.4471C32.3425 63.2614 32.3631 63.1557 32.3647 63.131C32.3647 63.0616 32.3449 63.0072 32.3037 62.9667C32.2632 62.9271 32.2013 62.9073 32.1205 62.9073C31.9562 62.9073 31.8093 62.9931 31.6798 63.1665C31.5857 63.2902 31.5056 63.5106 31.4396 63.825L31.2102 64.9227H30.5574L30.8635 63.4553C30.8982 63.2861 30.9155 63.1772 30.9155 63.126C30.9155 63.0625 30.8941 63.0097 30.8512 62.9684C30.8074 62.9271 30.748 62.9073 30.6713 62.9073C30.6003 62.9073 30.526 62.9288 30.4509 62.9717C30.3742 63.0146 30.3073 63.0724 30.2512 63.1483C30.1934 63.2226 30.1439 63.3191 30.1026 63.4363C30.0845 63.4916 30.0523 63.6162 30.0102 63.8102L29.7783 64.9227H29.1247L29.6322 62.5013ZM34.2158 63.178L33.5763 63.1235C33.6497 62.9098 33.7768 62.7423 33.9592 62.6218C34.1407 62.5013 34.3809 62.4402 34.6813 62.4402C34.9933 62.4402 35.2243 62.5038 35.3729 62.6284C35.5223 62.7546 35.5965 62.9081 35.5965 63.0889C35.5965 63.1623 35.5908 63.2399 35.5776 63.3216C35.5644 63.4041 35.519 63.6204 35.4414 63.9703C35.3762 64.2591 35.3448 64.4622 35.3448 64.5777C35.3448 64.6817 35.363 64.7956 35.4001 64.9227H34.7614C34.7366 64.8344 34.7209 64.7427 34.7151 64.6487C34.6194 64.7551 34.5088 64.8377 34.3842 64.8963C34.2596 64.954 34.1341 64.9829 34.0079 64.9829C33.8073 64.9829 33.6415 64.9169 33.5111 64.7848C33.3807 64.6528 33.3155 64.4836 33.3155 64.2756C33.3155 64.0437 33.3864 63.858 33.5309 63.7194C33.6745 63.5807 33.9311 63.4966 34.3 63.4677C34.612 63.4413 34.8208 63.4099 34.9256 63.3736C34.9528 63.282 34.9669 63.2085 34.9669 63.1541C34.9669 63.0839 34.9388 63.0253 34.8819 62.9775C34.8257 62.9304 34.7424 62.9073 34.631 62.9073C34.5146 62.9073 34.4213 62.9304 34.3537 62.9775C34.286 63.0245 34.2398 63.0914 34.2158 63.178ZM34.8381 63.7887C34.7985 63.7994 34.7465 63.8102 34.6813 63.8193C34.3537 63.8589 34.1383 63.9175 34.0384 63.9942C33.9666 64.0503 33.9311 64.1246 33.9311 64.2179C33.9311 64.2954 33.9584 64.3606 34.0137 64.4143C34.0681 64.4671 34.1399 64.4935 34.2299 64.4935C34.3281 64.4935 34.4213 64.4688 34.5088 64.4201C34.5963 64.3722 34.6623 64.3095 34.7044 64.2335C34.7482 64.1576 34.7861 64.038 34.82 63.877L34.8381 63.7887ZM37.8743 64.9227H37.1877L37.8875 61.5819H39.2427C39.4845 61.5819 39.6751 61.6108 39.8146 61.6677C39.9557 61.7247 40.0671 61.8188 40.1488 61.95C40.2305 62.0812 40.271 62.238 40.271 62.4204C40.271 62.5888 40.2388 62.753 40.1736 62.9123C40.1084 63.0724 40.0283 63.2003 39.9334 63.296C39.8385 63.3918 39.7362 63.4636 39.6264 63.5139C39.5183 63.5626 39.3706 63.5997 39.1849 63.6261C39.0776 63.641 38.8754 63.6484 38.58 63.6484H38.1409L37.8743 64.9227ZM38.2573 63.0889H38.4694C38.8317 63.0889 39.0735 63.0666 39.1948 63.0212C39.3161 62.9758 39.411 62.904 39.4812 62.8042C39.5505 62.7051 39.586 62.5954 39.586 62.4765C39.586 62.3965 39.5678 62.3313 39.5323 62.2793C39.496 62.2281 39.4465 62.191 39.3821 62.1679C39.3169 62.1439 39.1733 62.1324 38.9505 62.1324H38.4578L38.2573 63.0889ZM41.2184 63.178L40.5796 63.1235C40.6522 62.9098 40.7802 62.7423 40.9617 62.6218C41.1441 62.5013 41.3843 62.4402 41.6847 62.4402C41.9958 62.4402 42.2269 62.5038 42.3754 62.6284C42.5248 62.7546 42.5991 62.9081 42.5991 63.0889C42.5991 63.1623 42.5933 63.2399 42.5801 63.3216C42.5669 63.4041 42.5215 63.6204 42.4439 63.9703C42.3796 64.2591 42.3474 64.4622 42.3474 64.5777C42.3474 64.6817 42.3664 64.7956 42.4027 64.9227H41.7647C41.7391 64.8344 41.7235 64.7427 41.7177 64.6487C41.6219 64.7551 41.5114 64.8377 41.3876 64.8963C41.2629 64.954 41.1367 64.9829 41.0112 64.9829C40.8107 64.9829 40.6448 64.9169 40.5136 64.7848C40.3832 64.6528 40.318 64.4836 40.318 64.2756C40.318 64.0437 40.3898 63.858 40.5334 63.7194C40.677 63.5807 40.9337 63.4966 41.3034 63.4677C41.6153 63.4413 41.8233 63.4099 41.9281 63.3736C41.9554 63.282 41.9694 63.2085 41.9694 63.1541C41.9694 63.0839 41.9413 63.0253 41.8852 62.9775C41.8291 62.9304 41.7449 62.9073 41.6335 62.9073C41.5171 62.9073 41.4247 62.9304 41.357 62.9775C41.2894 63.0245 41.2423 63.0914 41.2184 63.178ZM41.8415 63.7887C41.8019 63.7994 41.7499 63.8102 41.6847 63.8193C41.3562 63.8589 41.1416 63.9175 41.0409 63.9942C40.97 64.0503 40.9337 64.1246 40.9337 64.2179C40.9337 64.2954 40.9609 64.3606 41.0162 64.4143C41.0707 64.4671 41.1433 64.4935 41.2324 64.4935C41.3314 64.4935 41.4247 64.4688 41.5114 64.4201C41.5997 64.3722 41.6649 64.3095 41.7078 64.2335C41.7507 64.1576 41.7895 64.038 41.8225 63.877L41.8415 63.7887ZM43.3699 62.5013H43.9897L43.941 62.748C44.073 62.6383 44.1977 62.559 44.3132 62.5112C44.4279 62.4641 44.5525 62.4402 44.6846 62.4402C44.9388 62.4402 45.1434 62.5285 45.2986 62.7035C45.4529 62.8793 45.5297 63.14 45.5297 63.4875C45.5297 63.9249 45.396 64.2946 45.1286 64.5967C44.9 64.8542 44.6285 64.9829 44.3157 64.9829C43.993 64.9829 43.7495 64.8542 43.5845 64.5958L43.327 65.8462H42.675L43.3699 62.5013ZM43.7619 63.8902C43.7619 64.0809 43.8081 64.2294 43.9014 64.3351C43.9946 64.4407 44.1036 64.4935 44.229 64.4935C44.338 64.4935 44.4428 64.4539 44.5443 64.3747C44.645 64.2954 44.7291 64.165 44.7952 63.9818C44.862 63.7986 44.8958 63.6286 44.8958 63.4726C44.8958 63.2902 44.8521 63.1508 44.7638 63.0534C44.6771 62.956 44.5657 62.9073 44.4312 62.9073C44.3058 62.9073 44.1911 62.9511 44.0879 63.041C43.9839 63.1301 43.9039 63.2614 43.8477 63.4347C43.7908 63.6088 43.7619 63.7598 43.7619 63.8902ZM46.2691 62.5013H46.9227L46.5992 63.9381C46.5596 64.1106 46.5398 64.2179 46.5398 64.2608C46.5398 64.3309 46.5637 64.3904 46.61 64.4415C46.657 64.4919 46.7164 64.5166 46.7899 64.5166C46.8419 64.5166 46.893 64.5051 46.9442 64.4828C46.9954 64.4597 47.0474 64.425 47.101 64.378C47.1546 64.3318 47.2025 64.2789 47.2454 64.2187C47.2883 64.1593 47.328 64.08 47.3651 63.9827C47.3907 63.91 47.4212 63.8011 47.4542 63.6567L47.715 62.5013H48.3686L47.8182 64.9227H47.2091L47.2735 64.6115C47.0276 64.8591 46.7602 64.9829 46.4705 64.9829C46.2873 64.9829 46.1429 64.926 46.0389 64.8112C45.9332 64.6974 45.8804 64.543 45.8804 64.3507C45.8804 64.2674 45.9085 64.1007 45.9646 63.8514L46.2691 62.5013ZM49.5125 63.178L48.8737 63.1235C48.9463 62.9098 49.0743 62.7423 49.2558 62.6218C49.4382 62.5013 49.6784 62.4402 49.9788 62.4402C50.2907 62.4402 50.521 62.5038 50.6695 62.6284C50.8189 62.7546 50.894 62.9081 50.894 63.0889C50.894 63.1623 50.8874 63.2399 50.8742 63.3216C50.861 63.4041 50.8156 63.6204 50.738 63.9703C50.6737 64.2591 50.6415 64.4622 50.6415 64.5777C50.6415 64.6817 50.6605 64.7956 50.6968 64.9227H50.0588C50.0341 64.8344 50.0184 64.7427 50.0118 64.6487C49.916 64.7551 49.8063 64.8377 49.6817 64.8963C49.5571 64.954 49.4308 64.9829 49.3053 64.9829C49.1048 64.9829 48.9389 64.9169 48.8085 64.7848C48.6773 64.6528 48.6121 64.4836 48.6121 64.2756C48.6121 64.0437 48.6839 63.858 48.8275 63.7194C48.9719 63.5807 49.2286 63.4966 49.5975 63.4677C49.9094 63.4413 50.1174 63.4099 50.2231 63.3736C50.2503 63.282 50.2643 63.2085 50.2643 63.1541C50.2643 63.0839 50.2363 63.0253 50.1793 62.9775C50.1232 62.9304 50.039 62.9073 49.9284 62.9073C49.8112 62.9073 49.7188 62.9304 49.6511 62.9775C49.5835 63.0245 49.5372 63.0914 49.5125 63.178ZM50.1356 63.7887C50.096 63.7994 50.044 63.8102 49.9788 63.8193C49.6503 63.8589 49.4357 63.9175 49.335 63.9942C49.2641 64.0503 49.2286 64.1246 49.2286 64.2179C49.2286 64.2954 49.255 64.3606 49.3103 64.4143C49.3648 64.4671 49.4374 64.4935 49.5265 64.4935C49.6255 64.4935 49.7188 64.4688 49.8063 64.4201C49.8938 64.3722 49.959 64.3095 50.0019 64.2335C50.0456 64.1576 50.0836 64.038 50.1166 63.877L50.1356 63.7887ZM54.4114 64.9227H53.7586L53.6348 62.1315L53.1049 64.9227H52.4852L53.1842 61.5819H54.1646L54.2669 63.8778L55.3175 61.5819H56.3054L55.6972 64.9227H55.0741L55.6551 62.1514L54.4114 64.9227ZM58.7235 63.915H57.0803C57.0787 63.9406 57.0779 63.9604 57.0779 63.9744C57.0779 64.137 57.1241 64.2682 57.2173 64.3672C57.3098 64.4671 57.4228 64.5166 57.5557 64.5166C57.7752 64.5166 57.9461 64.4044 58.069 64.1807L58.6525 64.2789C58.5378 64.5133 58.3859 64.6891 58.1945 64.8063C58.003 64.9243 57.7893 64.9829 57.5516 64.9829C57.2256 64.9829 56.9607 64.8797 56.7568 64.6734C56.5522 64.4671 56.4506 64.1939 56.4506 63.8531C56.4506 63.5213 56.5423 63.2259 56.7263 62.9659C56.9764 62.6152 57.3354 62.4402 57.8 62.4402C58.0963 62.4402 58.3323 62.5326 58.5073 62.7158C58.6822 62.8991 58.7689 63.1566 58.7689 63.4875C58.7689 63.6459 58.7532 63.7879 58.7235 63.915ZM58.1722 63.518C58.173 63.4883 58.1738 63.4669 58.1738 63.4512C58.1738 63.2704 58.1334 63.1343 58.0525 63.0435C57.9725 62.9519 57.8644 62.9073 57.7282 62.9073C57.5928 62.9073 57.4724 62.9585 57.3651 63.0616C57.257 63.164 57.1852 63.3167 57.1472 63.518H58.1722ZM59.4497 62.5013H60.0679L60.0126 62.791C60.2527 62.5574 60.5053 62.4402 60.7694 62.4402C60.9526 62.4402 61.0929 62.479 61.1919 62.5541C61.2918 62.63 61.3545 62.7348 61.3817 62.8685C61.4659 62.7472 61.5856 62.6457 61.7424 62.5632C61.8992 62.4815 62.0618 62.4402 62.2309 62.4402C62.4241 62.4402 62.5751 62.493 62.6832 62.5987C62.7913 62.7035 62.8449 62.8421 62.8449 63.0154C62.8441 63.0988 62.8218 63.2424 62.7764 63.4471L62.4604 64.9227H61.8067L62.1212 63.4471C62.16 63.2614 62.1806 63.1557 62.1822 63.131C62.1822 63.0616 62.1624 63.0072 62.1212 62.9667C62.0807 62.9271 62.0188 62.9073 61.938 62.9073C61.7737 62.9073 61.6268 62.9931 61.4973 63.1665C61.4032 63.2902 61.3231 63.5106 61.2571 63.825L61.0277 64.9227H60.3749L60.681 63.4553C60.7157 63.2861 60.733 63.1772 60.733 63.126C60.733 63.0625 60.7116 63.0097 60.6687 62.9684C60.6249 62.9271 60.5655 62.9073 60.4888 62.9073C60.4178 62.9073 60.3435 62.9288 60.2684 62.9717C60.1917 63.0146 60.1248 63.0724 60.0679 63.1483C60.0109 63.2226 59.9614 63.3191 59.9201 63.4363C59.902 63.4916 59.8698 63.6162 59.8269 63.8102L59.5958 64.9227H58.9422L59.4497 62.5013ZM63.0909 64.9227L63.7907 61.5819H64.4427L64.2042 62.6927C64.3247 62.6011 64.4377 62.5368 64.5417 62.498C64.6465 62.46 64.7613 62.4402 64.8842 62.4402C65.1401 62.4402 65.3456 62.526 65.5007 62.6977C65.6542 62.8685 65.731 63.1186 65.731 63.4471C65.731 63.6674 65.6946 63.882 65.6229 64.0908C65.5502 64.2979 65.4537 64.4679 65.3324 64.5983C65.211 64.7279 65.0839 64.8253 64.9502 64.888C64.8174 64.9515 64.6779 64.9829 64.5318 64.9829C64.1836 64.9829 63.9285 64.8319 63.7668 64.5315L63.6818 64.9227H63.0909ZM63.9682 63.9389C63.9682 64.1032 64.0135 64.2368 64.106 64.3392C64.1984 64.4423 64.3074 64.4935 64.4328 64.4935C64.5426 64.4935 64.6474 64.4539 64.7481 64.3738C64.8471 64.2946 64.9304 64.1667 64.9973 63.9917C65.0633 63.8176 65.0971 63.641 65.0971 63.4627C65.0971 63.2902 65.0526 63.1541 64.9626 63.0559C64.8735 62.9568 64.7654 62.9073 64.6391 62.9073C64.4741 62.9073 64.3313 62.9841 64.2124 63.1376C64.0499 63.3472 63.9682 63.6146 63.9682 63.9389ZM66.8831 63.178L66.2435 63.1235C66.3169 62.9098 66.444 62.7423 66.6264 62.6218C66.808 62.5013 67.0481 62.4402 67.3485 62.4402C67.6605 62.4402 67.8916 62.5038 68.0401 62.6284C68.1895 62.7546 68.2638 62.9081 68.2638 63.0889C68.2638 63.1623 68.258 63.2399 68.2448 63.3216C68.2316 63.4041 68.1862 63.6204 68.1086 63.9703C68.0442 64.2591 68.012 64.4622 68.012 64.5777C68.012 64.6817 68.0302 64.7956 68.0673 64.9227H67.4286C67.4038 64.8344 67.3881 64.7427 67.3824 64.6487C67.2866 64.7551 67.176 64.8377 67.0514 64.8963C66.9268 64.954 66.8014 64.9829 66.6751 64.9829C66.4745 64.9829 66.3087 64.9169 66.1783 64.7848C66.0479 64.6528 65.9827 64.4836 65.9827 64.2756C65.9827 64.0437 66.0545 63.858 66.1981 63.7194C66.3417 63.5807 66.5983 63.4966 66.9672 63.4677C67.2792 63.4413 67.488 63.4099 67.5928 63.3736C67.62 63.282 67.6341 63.2085 67.6341 63.1541C67.6341 63.0839 67.606 63.0253 67.5491 62.9775C67.4929 62.9304 67.4096 62.9073 67.2982 62.9073C67.1818 62.9073 67.0886 62.9304 67.0209 62.9775C66.954 63.0245 66.907 63.0914 66.8831 63.178ZM67.5053 63.7887C67.4657 63.7994 67.4137 63.8102 67.3485 63.8193C67.0209 63.8589 66.8055 63.9175 66.7056 63.9942C66.6338 64.0503 66.5983 64.1246 66.5983 64.2179C66.5983 64.2954 66.6256 64.3606 66.6809 64.4143C66.7353 64.4671 66.8071 64.4935 66.8971 64.4935C66.9953 64.4935 67.0886 64.4688 67.176 64.4201C67.2635 64.3722 67.3295 64.3095 67.3716 64.2335C67.4154 64.1576 67.4533 64.038 67.4872 63.877L67.5053 63.7887ZM69.0701 62.5013H69.6948L69.6313 62.819C69.7872 62.682 69.9333 62.5855 70.0687 62.5277C70.204 62.4691 70.346 62.4402 70.4962 62.4402C70.6959 62.4402 70.8543 62.498 70.9699 62.6135C71.0846 62.7299 71.1423 62.8826 71.1423 63.074C71.1415 63.159 71.1135 63.3191 71.0582 63.5543L70.7652 64.9227H70.1124L70.4095 63.551C70.4516 63.3455 70.4747 63.2234 70.4772 63.183C70.4772 63.0963 70.4516 63.0303 70.4021 62.9808C70.3517 62.9321 70.2824 62.9073 70.1941 62.9073C70.0967 62.9073 69.9894 62.9478 69.8714 63.0286C69.7526 63.1095 69.6601 63.2168 69.5925 63.3497C69.5421 63.4438 69.4852 63.6369 69.4216 63.929L69.2161 64.9227H68.5633L69.0701 62.5013ZM71.3701 65.0531L72.0617 65.1537C72.0617 65.2231 72.0733 65.2759 72.0956 65.3114C72.1178 65.3469 72.155 65.3774 72.2053 65.403C72.2557 65.4277 72.325 65.4401 72.4125 65.4401C72.5594 65.4401 72.6774 65.4129 72.7657 65.3576C72.8317 65.3155 72.8862 65.247 72.9283 65.1521C72.9538 65.0927 72.9877 64.9631 73.0281 64.7634L73.0512 64.6495C72.8135 64.8377 72.5668 64.9317 72.3126 64.9317C72.0757 64.9317 71.881 64.8476 71.7291 64.6809C71.5781 64.5133 71.5014 64.2682 71.5014 63.9447C71.5014 63.6608 71.5533 63.3992 71.6565 63.1623C71.7597 62.9246 71.9049 62.7456 72.0923 62.6234C72.2796 62.5013 72.4702 62.4402 72.665 62.4402C72.8251 62.4402 72.972 62.4831 73.1057 62.5689C73.2386 62.6548 73.3417 62.7744 73.4168 62.9296L73.5018 62.5013H74.1167L73.7313 64.5249C73.6611 64.8476 73.6017 65.0778 73.5538 65.2165C73.5051 65.3543 73.4507 65.464 73.3879 65.5449C73.3269 65.6275 73.2477 65.696 73.1536 65.7512C73.0587 65.8065 72.9473 65.8462 72.8177 65.8701C72.6889 65.8948 72.5495 65.9072 72.3993 65.9072C72.0576 65.9072 71.7993 65.8486 71.6251 65.7323C71.451 65.6142 71.3635 65.4203 71.3635 65.1488C71.3635 65.1199 71.3652 65.0885 71.3701 65.0531ZM72.1409 63.8787C72.1409 64.0644 72.1822 64.2047 72.2647 64.3012C72.3473 64.3986 72.4504 64.4465 72.575 64.4465C72.6914 64.4465 72.8045 64.4027 72.9134 64.3161C73.0232 64.2286 73.1074 64.1056 73.1659 63.9455C73.2237 63.7854 73.2534 63.6311 73.2534 63.4809C73.2534 63.3092 73.2056 63.1698 73.1107 63.0649C73.0149 62.9601 72.9043 62.9073 72.7789 62.9073C72.6617 62.9073 72.5544 62.9535 72.4562 63.046C72.3588 63.1392 72.2779 63.2828 72.2136 63.4768C72.1649 63.6261 72.1409 63.7598 72.1409 63.8787ZM74.7827 62.5013H75.4371L75.1136 63.9381C75.074 64.1106 75.0542 64.2179 75.0542 64.2608C75.0542 64.3309 75.0773 64.3904 75.1243 64.4415C75.1706 64.4919 75.2308 64.5166 75.3043 64.5166C75.3562 64.5166 75.4074 64.5051 75.4586 64.4828C75.5089 64.4597 75.5617 64.425 75.6154 64.378C75.6682 64.3318 75.7169 64.2789 75.7598 64.2187C75.8027 64.1593 75.8423 64.08 75.8795 63.9827C75.9051 63.91 75.9356 63.8011 75.9686 63.6567L76.2294 62.5013H76.8822L76.3326 64.9227H75.7227L75.7879 64.6115C75.5419 64.8591 75.2746 64.9829 74.9841 64.9829C74.8017 64.9829 74.6572 64.926 74.5524 64.8112C74.4476 64.6974 74.3948 64.543 74.3948 64.3507C74.3948 64.2674 74.4229 64.1007 74.479 63.8514L74.7827 62.5013ZM77.6192 62.5013H78.2439L78.1812 62.819C78.3364 62.682 78.4824 62.5855 78.6178 62.5277C78.7531 62.4691 78.8959 62.4402 79.0453 62.4402C79.245 62.4402 79.4034 62.498 79.519 62.6135C79.6345 62.7299 79.6915 62.8826 79.6915 63.074C79.6906 63.159 79.6634 63.3191 79.6081 63.5543L79.3143 64.9227H78.6615L78.9586 63.551C79.0015 63.3455 79.0238 63.2234 79.0263 63.183C79.0263 63.0963 79.0015 63.0303 78.9512 62.9808C78.9008 62.9321 78.8315 62.9073 78.7432 62.9073C78.6458 62.9073 78.5385 62.9478 78.4205 63.0286C78.3025 63.1095 78.2101 63.2168 78.1424 63.3497C78.0912 63.4438 78.0351 63.6369 77.9707 63.929L77.7653 64.9227H77.1125L77.6192 62.5013ZM83.9219 64.9227H83.2831L82.3802 62.6787L81.9107 64.9227H81.2727L81.9726 61.5819H82.6105L83.5158 63.8168L83.9829 61.5819H84.6217L83.9219 64.9227ZM86.9754 63.915H85.3323C85.3306 63.9406 85.3298 63.9604 85.3298 63.9744C85.3298 64.137 85.3768 64.2682 85.4693 64.3672C85.5617 64.4671 85.6748 64.5166 85.8085 64.5166C86.0272 64.5166 86.1988 64.4044 86.321 64.1807L86.9044 64.2789C86.7906 64.5133 86.6379 64.6891 86.4464 64.8063C86.255 64.9243 86.0412 64.9829 85.8035 64.9829C85.4775 64.9829 85.2126 64.8797 85.0088 64.6734C84.8041 64.4671 84.7026 64.1939 84.7026 63.8531C84.7026 63.5213 84.7942 63.2259 84.9782 62.9659C85.2291 62.6152 85.5873 62.4402 86.0519 62.4402C86.3482 62.4402 86.5842 62.5326 86.7592 62.7158C86.9342 62.8991 87.0208 63.1566 87.0208 63.4875C87.0208 63.6459 87.006 63.7879 86.9754 63.915ZM86.4241 63.518C86.4258 63.4883 86.4266 63.4669 86.4266 63.4512C86.4266 63.2704 86.3862 63.1343 86.3053 63.0435C86.2252 62.9519 86.1171 62.9073 85.981 62.9073C85.8456 62.9073 85.7243 62.9585 85.617 63.0616C85.5097 63.164 85.4371 63.3167 85.3991 63.518H86.4241ZM87.1801 65.0531L87.8709 65.1537C87.8709 65.2231 87.8824 65.2759 87.9055 65.3114C87.9278 65.3469 87.9641 65.3774 88.0153 65.403C88.0656 65.4277 88.1349 65.4401 88.2216 65.4401C88.3685 65.4401 88.4865 65.4129 88.5756 65.3576C88.6417 65.3155 88.6961 65.247 88.7382 65.1521C88.7638 65.0927 88.7968 64.9631 88.8373 64.7634L88.8612 64.6495C88.6227 64.8377 88.3768 64.9317 88.1226 64.9317C87.8849 64.9317 87.6909 64.8476 87.5391 64.6809C87.3872 64.5133 87.3113 64.2682 87.3113 63.9447C87.3113 63.6608 87.3625 63.3992 87.4656 63.1623C87.5696 62.9246 87.7149 62.7456 87.9022 62.6234C88.0887 62.5013 88.2802 62.4402 88.4741 62.4402C88.6342 62.4402 88.7811 62.4831 88.9157 62.5689C89.0485 62.6548 89.1517 62.7744 89.226 62.9296L89.311 62.5013H89.9258L89.5404 64.5249C89.4703 64.8476 89.4117 65.0778 89.363 65.2165C89.3151 65.3543 89.2598 65.464 89.1979 65.5449C89.136 65.6275 89.0576 65.696 88.9627 65.7512C88.8678 65.8065 88.7564 65.8462 88.6276 65.8701C88.4989 65.8948 88.3594 65.9072 88.2084 65.9072C87.8667 65.9072 87.6092 65.8486 87.4351 65.7323C87.261 65.6142 87.1727 65.4203 87.1727 65.1488C87.1727 65.1199 87.1751 65.0885 87.1801 65.0531ZM87.9501 63.8787C87.9501 64.0644 87.9913 64.2047 88.0739 64.3012C88.1564 64.3986 88.2596 64.4465 88.3842 64.4465C88.5005 64.4465 88.6136 64.4027 88.7234 64.3161C88.8331 64.2286 88.9165 64.1056 88.9751 63.9455C89.0337 63.7854 89.0634 63.6311 89.0634 63.4809C89.0634 63.3092 89.0147 63.1698 88.9198 63.0649C88.8241 62.9601 88.7135 62.9073 88.5889 62.9073C88.4717 62.9073 88.3644 62.9535 88.2662 63.046C88.168 63.1392 88.0871 63.2828 88.0235 63.4768C87.9748 63.6261 87.9501 63.7598 87.9501 63.8787ZM92.4198 63.915H90.7767C90.775 63.9406 90.7742 63.9604 90.7742 63.9744C90.7742 64.137 90.8212 64.2682 90.9137 64.3672C91.0061 64.4671 91.12 64.5166 91.2529 64.5166C91.4716 64.5166 91.6432 64.4044 91.7662 64.1807L92.3488 64.2789C92.235 64.5133 92.0823 64.6891 91.8908 64.8063C91.7002 64.9243 91.4856 64.9829 91.2479 64.9829C90.9219 64.9829 90.657 64.8797 90.4532 64.6734C90.2485 64.4671 90.147 64.1939 90.147 63.8531C90.147 63.5213 90.2386 63.2259 90.4226 62.9659C90.6735 62.6152 91.0317 62.4402 91.4972 62.4402C91.7926 62.4402 92.0286 62.5326 92.2036 62.7158C92.3786 62.8991 92.466 63.1566 92.466 63.4875C92.466 63.6459 92.4504 63.7879 92.4198 63.915ZM91.8685 63.518C91.8702 63.4883 91.871 63.4669 91.871 63.4512C91.871 63.2704 91.8306 63.1343 91.7497 63.0435C91.6696 62.9519 91.5615 62.9073 91.4254 62.9073C91.29 62.9073 91.1687 62.9585 91.0614 63.0616C90.9541 63.164 90.8815 63.3167 90.8435 63.518H91.8685ZM93.1271 62.5013H93.7419L93.6495 62.9568C93.8748 62.6127 94.1191 62.4402 94.3823 62.4402C94.4756 62.4402 94.5763 62.4641 94.6827 62.5112L94.4302 63.046C94.3716 63.0253 94.3081 63.0146 94.2404 63.0146C94.1282 63.0146 94.0134 63.0575 93.8971 63.1425C93.7807 63.2284 93.6899 63.3414 93.6239 63.485C93.5579 63.627 93.4935 63.8531 93.43 64.1626L93.274 64.9227H92.6204L93.1271 62.5013ZM95.173 61.5819H95.8258L95.702 62.1745H95.0484L95.173 61.5819ZM94.9807 62.5013H95.6335L95.1267 64.9227H94.4731L94.9807 62.5013Z" fill="#115588"/>
</g>
</g>
<rect x="1.5" y="1" width="110" height="110" rx="9" stroke="#CCCCCC" stroke-width="2"/>
<defs>
<clipPath id="clip0_421_557">
<rect x="2.5" y="2" width="108" height="108" rx="8" fill="white"/>
</clipPath>
<clipPath id="clip1_421_557">
<rect width="80" height="19.8142" fill="white" transform="translate(16 46.0929)"/>
</clipPath>
</defs>
</svg>
