<svg width="113" height="112" viewBox="0 0 113 112" fill="none" xmlns="http://www.w3.org/2000/svg">
<g clip-path="url(#clip0_528_601)">
<rect x="2.5" y="2" width="108" height="108" rx="8" fill="white"/>
<path fill-rule="evenodd" clip-rule="evenodd" d="M43.9201 72.8733L36.3367 66.6366V31.3866L43.9201 25.7133V72.8733ZM52.1201 79.62L45.1501 73.8866V24.7966L52.1201 19.5833V79.62ZM69.7467 25.7166L77.3301 31.3866V66.6366L69.7467 72.8733V25.7166ZM61.5467 19.5833L68.5167 24.7966V73.8866L61.5467 79.62V19.5833ZM56.8334 16.0566L60.3167 18.6633V80.63L56.8334 83.4966L53.3501 80.63V18.6633L56.8334 16.0566Z" fill="#009B4C"/>
<path fill-rule="evenodd" clip-rule="evenodd" d="M56.7401 28.5666C68.0034 28.5666 77.1467 37.7066 77.1467 48.97C77.1467 60.2333 68.0034 69.3733 56.7401 69.3733C45.4801 69.3733 36.3367 60.2333 36.3367 48.97C36.3367 37.7066 45.4801 28.5666 56.7401 28.5666Z" fill="#FEFEFE"/>
<path fill-rule="evenodd" clip-rule="evenodd" d="M74.3667 49.9233C73.8667 59.2166 66.1334 66.6433 56.7167 66.6433C47.3034 66.6433 39.5701 59.2166 39.0701 49.9233H74.3667ZM56.7167 31.2966C66.1034 31.2966 73.8167 38.6766 74.3601 47.9266H39.0767C39.6201 38.6766 47.3334 31.2966 56.7167 31.2966Z" fill="#FEFEFE"/>
<path fill-rule="evenodd" clip-rule="evenodd" d="M74.3834 49.9233C73.8834 59.2166 66.1501 66.6433 56.7334 66.6433C47.3201 66.6433 39.5834 59.2166 39.0867 49.9233H74.3834ZM56.7334 31.2966C66.1201 31.2966 73.8334 38.6766 74.3767 47.9266H39.0901C39.6334 38.6766 47.3501 31.2966 56.7334 31.2966Z" fill="#00A2E9"/>
<path fill-rule="evenodd" clip-rule="evenodd" d="M74.3867 47.9266H75.1001L77.3301 48.8366L75.1001 49.9233H74.3901C74.4067 49.6066 74.4167 49.29 74.4167 48.97C74.4167 48.62 74.4067 48.2733 74.3867 47.9266ZM36.4234 47.9266H39.0534C39.0301 48.2733 39.0201 48.62 39.0201 48.97C39.0201 49.29 39.0301 49.6066 39.0467 49.9233H36.4234L39.6134 48.8366L36.4234 47.9266Z" fill="#00A2E9"/>
<path fill-rule="evenodd" clip-rule="evenodd" d="M47.6101 33.7766C53.4901 37.2633 59.9067 37.28 65.6467 33.66L67.0434 34.59C61.5401 39.33 52.2301 39.58 46.1001 34.86L47.6101 33.7766Z" fill="#FEFEFE"/>
<path fill-rule="evenodd" clip-rule="evenodd" d="M42.2267 38.8966C50.7601 44.6133 62.2601 44.5333 70.9934 38.62C71.4934 39.2733 71.9167 39.9233 72.2301 40.5733C64.4167 46.52 50.5834 47.0166 41.0267 40.8466C41.3801 40.1966 41.7634 39.5466 42.2267 38.8966Z" fill="#FEFEFE"/>
<path fill-rule="evenodd" clip-rule="evenodd" d="M47.6101 64.1866C53.4901 60.7 59.9067 60.6833 65.6467 64.3033L67.0434 63.3733C61.5401 58.6333 52.2301 58.3833 46.1001 63.1L47.6101 64.1866Z" fill="#FEFEFE"/>
<path fill-rule="evenodd" clip-rule="evenodd" d="M42.2267 59.0433C50.7601 53.3266 62.2601 53.4066 70.9934 59.3166C71.4934 58.6666 71.9167 58.0166 72.2301 57.3633C64.4167 51.42 50.5834 50.92 41.0267 57.0933C41.3801 57.7433 41.7634 58.3933 42.2267 59.0433Z" fill="#FEFEFE"/>
<path d="M29.0867 89.3533C29.6167 89.47 29.9934 89.6133 30.2067 89.7833C30.5167 90.0233 30.6701 90.3333 30.6701 90.7166C30.6701 91.12 30.5001 91.4533 30.1601 91.7166C29.7434 92.0366 29.1401 92.1933 28.3467 92.1933H25.5001V92.05C25.7601 92.05 25.9334 92.0266 26.0267 91.98C26.1201 91.9333 26.1834 91.8733 26.2201 91.8C26.2601 91.7266 26.2767 91.5433 26.2767 91.2533V87.7733C26.2767 87.4866 26.2601 87.3033 26.2201 87.2266C26.1834 87.1533 26.1201 87.0933 26.0234 87.0466C25.9301 87.0033 25.7567 86.98 25.5001 86.98V86.8333H28.1867C28.8267 86.8333 29.2834 86.89 29.5501 86.9966C29.8167 87.1066 30.0267 87.27 30.1801 87.4866C30.3367 87.7066 30.4134 87.9366 30.4134 88.1833C30.4134 88.44 30.3167 88.67 30.1201 88.8733C29.9234 89.0733 29.5801 89.2333 29.0867 89.3533ZM27.5834 89.5533V91.2733L27.5767 91.47C27.5767 91.6133 27.6167 91.72 27.6934 91.7933C27.7667 91.8666 27.8801 91.9033 28.0301 91.9033C28.2501 91.9033 28.4534 91.8566 28.6367 91.7633C28.8234 91.6666 28.9667 91.5333 29.0667 91.3533C29.1634 91.1766 29.2134 90.9766 29.2134 90.76C29.2134 90.51 29.1534 90.2833 29.0334 90.0866C28.9134 89.8866 28.7467 89.7466 28.5334 89.67C28.3201 89.59 28.0034 89.55 27.5834 89.5533ZM27.5834 89.2466C27.9734 89.2466 28.2634 89.2033 28.4467 89.12C28.6334 89.0333 28.7767 88.9166 28.8767 88.7633C28.9767 88.61 29.0234 88.4166 29.0234 88.1766C29.0234 87.94 28.9767 87.7466 28.8767 87.5966C28.7801 87.4433 28.6401 87.3266 28.4601 87.25C28.2767 87.17 27.9834 87.1333 27.5834 87.1333V89.2466Z" fill="#332C2B"/>
<path d="M34.4867 90.67H32.5067L32.2734 91.19C32.1967 91.3633 32.1567 91.5066 32.1567 91.62C32.1567 91.77 32.2201 91.8833 32.3467 91.9533C32.4201 91.9966 32.6034 92.0266 32.8967 92.05V92.1933H31.0334V92.05C31.2334 92.02 31.4001 91.94 31.5301 91.81C31.6567 91.68 31.8167 91.41 32.0067 91L34.0134 86.7233H34.0901L36.1101 91.12C36.3034 91.5366 36.4634 91.7966 36.5867 91.9066C36.6801 91.9866 36.8134 92.0366 36.9834 92.05V92.1933H34.2734V92.05H34.3834C34.6001 92.05 34.7534 92.02 34.8434 91.96C34.9034 91.92 34.9334 91.86 34.9334 91.78C34.9334 91.7333 34.9267 91.6833 34.9101 91.6333C34.9034 91.61 34.8634 91.51 34.7834 91.3366L34.4867 90.67ZM34.3467 90.3766L33.5134 88.53L32.6534 90.3766H34.3467Z" fill="#332C2B"/>
<path d="M39.1867 86.8333L41.9501 90.16V87.8533C41.9501 87.5333 41.9001 87.3133 41.8067 87.2C41.6734 87.05 41.4501 86.9733 41.1401 86.98V86.8333H42.9901V86.98C42.7534 87.01 42.5934 87.0466 42.5134 87.0933C42.4334 87.14 42.3701 87.2133 42.3234 87.32C42.2767 87.4233 42.2567 87.6 42.2567 87.8533V92.3166H42.1134L38.3267 87.8533V91.2633C38.3267 91.57 38.4001 91.7766 38.5467 91.8866C38.6934 91.9933 38.8634 92.05 39.0534 92.05H39.1867V92.1933H37.1967V92.05C37.5067 92.0466 37.7201 91.9866 37.8434 91.8666C37.9634 91.7466 38.0234 91.5466 38.0234 91.2633V87.48L37.9034 87.3366C37.7867 87.1933 37.6801 87.1 37.5901 87.0566C37.5001 87.01 37.3701 86.9866 37.1967 86.98V86.8333H39.1867Z" fill="#332C2B"/>
<path d="M46.7134 88.8866L48.6834 91.2466C48.9634 91.5766 49.2034 91.8033 49.4034 91.9233C49.5501 92.0066 49.7034 92.05 49.8667 92.05V92.1933H46.9501V92.05C47.1334 92.0333 47.2534 92.0066 47.3067 91.9666C47.3601 91.9266 47.3867 91.8766 47.3867 91.82C47.3867 91.7066 47.2601 91.5 47.0067 91.1933L45.7234 89.65L45.5167 89.8133V91.2766C45.5167 91.5566 45.5334 91.73 45.5667 91.8C45.5967 91.8666 45.6601 91.9266 45.7567 91.9766C45.8501 92.0233 46.0001 92.05 46.2067 92.05V92.1933H43.3801V92.05H43.5667C43.7267 92.05 43.8601 92.02 43.9567 91.9666C44.0301 91.93 44.0834 91.8666 44.1234 91.7766C44.1534 91.7133 44.1701 91.5466 44.1701 91.2766V87.75C44.1701 87.4766 44.1534 87.3066 44.1234 87.2366C44.0934 87.17 44.0301 87.11 43.9401 87.0566C43.8467 87.0066 43.7234 86.98 43.5667 86.98H43.3801V86.8333H46.1701V86.98C45.9801 86.98 45.8334 87.0066 45.7334 87.06C45.6634 87.0966 45.6067 87.16 45.5667 87.2466C45.5334 87.31 45.5167 87.48 45.5167 87.75V89.42L47.5934 87.81C47.8834 87.5866 48.0267 87.4066 48.0267 87.2733C48.0267 87.1733 47.9701 87.0933 47.8501 87.0366C47.7901 87.0066 47.6401 86.9866 47.4001 86.98V86.8333H49.5867V86.98C49.3901 86.9933 49.2367 87.0266 49.1267 87.08C49.0134 87.1366 48.7567 87.3166 48.3534 87.63L46.7134 88.8866Z" fill="#332C2B"/>
<path d="M55.4134 88.8866L57.3834 91.2466C57.6601 91.5766 57.9001 91.8033 58.1034 91.9233C58.2467 92.0066 58.4034 92.05 58.5634 92.05V92.1933H55.6467V92.05C55.8334 92.0333 55.9501 92.0066 56.0034 91.9666C56.0601 91.9266 56.0867 91.8766 56.0867 91.82C56.0867 91.7066 55.9601 91.5 55.7067 91.1933L54.4201 89.65L54.2134 89.8133V91.2766C54.2134 91.5566 54.2301 91.73 54.2634 91.8C54.2967 91.8666 54.3601 91.9266 54.4534 91.9766C54.5467 92.0233 54.6967 92.05 54.9034 92.05V92.1933H52.0767V92.05H52.2634C52.4267 92.05 52.5567 92.02 52.6567 91.9666C52.7267 91.93 52.7834 91.8666 52.8201 91.7766C52.8501 91.7133 52.8667 91.5466 52.8667 91.2766V87.75C52.8667 87.4766 52.8501 87.3066 52.8201 87.2366C52.7901 87.17 52.7301 87.11 52.6367 87.0566C52.5434 87.0066 52.4201 86.98 52.2634 86.98H52.0767V86.8333H54.8667V86.98C54.6767 86.98 54.5334 87.0066 54.4334 87.06C54.3601 87.0966 54.3034 87.16 54.2634 87.2466C54.2301 87.31 54.2134 87.48 54.2134 87.75V89.42L56.2934 87.81C56.5801 87.5866 56.7267 87.4066 56.7267 87.2733C56.7267 87.1733 56.6667 87.0933 56.5467 87.0366C56.4867 87.0066 56.3367 86.9866 56.0967 86.98V86.8333H58.2834V86.98C58.0867 86.9933 57.9334 87.0266 57.8234 87.08C57.7101 87.1366 57.4534 87.3166 57.0534 87.63L55.4134 88.8866Z" fill="#332C2B"/>
<path d="M61.9901 90.67H60.0101L59.7767 91.19C59.6967 91.3633 59.6601 91.5066 59.6601 91.62C59.6601 91.77 59.7234 91.8833 59.8501 91.9533C59.9234 91.9966 60.1067 92.0266 60.4001 92.05V92.1933H58.5367V92.05C58.7367 92.02 58.9034 91.94 59.0301 91.81C59.1601 91.68 59.3201 91.41 59.5101 91L61.5134 86.7233H61.5934L63.6134 91.12C63.8067 91.5366 63.9667 91.7966 64.0901 91.9066C64.1834 91.9866 64.3167 92.0366 64.4867 92.05V92.1933H61.7767V92.05H61.8867C62.1034 92.05 62.2567 92.02 62.3467 91.96C62.4067 91.92 62.4367 91.86 62.4367 91.78C62.4367 91.7333 62.4267 91.6833 62.4134 91.6333C62.4067 91.61 62.3634 91.51 62.2867 91.3366L61.9901 90.67ZM61.8501 90.3766L61.0134 88.53L60.1567 90.3766H61.8501Z" fill="#332C2B"/>
<path d="M69.9234 90.3133L69.7134 92.1933H64.7367V92.05H64.9234C65.0867 92.05 65.2167 92.02 65.3167 91.9666C65.3867 91.93 65.4434 91.8666 65.4834 91.7766C65.5134 91.7133 65.5267 91.5466 65.5267 91.2766V87.75C65.5267 87.4766 65.5134 87.3066 65.4834 87.2366C65.4501 87.17 65.3901 87.11 65.2967 87.0566C65.2067 87.0066 65.0801 86.98 64.9234 86.98H64.7367V86.8333H67.7267V86.98H67.4801C67.3201 86.98 67.1867 87.0066 67.0901 87.0633C67.0167 87.1 66.9601 87.1633 66.9201 87.2533C66.8901 87.3166 66.8734 87.4833 66.8734 87.75V91.1666C66.8734 91.44 66.8901 91.6166 66.9234 91.69C66.9567 91.7666 67.0234 91.82 67.1167 91.86C67.1867 91.8833 67.3534 91.8933 67.6167 91.8933H68.0834C68.3834 91.8933 68.6301 91.8433 68.8301 91.7433C69.0267 91.6433 69.2001 91.4866 69.3434 91.27C69.4867 91.0533 69.6234 90.7333 69.7534 90.3133H69.9234Z" fill="#332C2B"/>
<path d="M73.9901 89.3533C74.5201 89.47 74.8934 89.6133 75.1101 89.7833C75.4167 90.0233 75.5734 90.3333 75.5734 90.7166C75.5734 91.12 75.4034 91.4533 75.0634 91.7166C74.6467 92.0366 74.0434 92.1933 73.2501 92.1933H70.4034V92.05C70.6634 92.05 70.8367 92.0266 70.9301 91.98C71.0234 91.9333 71.0867 91.8733 71.1234 91.8C71.1601 91.7266 71.1801 91.5433 71.1801 91.2533V87.7733C71.1801 87.4866 71.1601 87.3033 71.1234 87.2266C71.0867 87.1533 71.0201 87.0933 70.9267 87.0466C70.8334 87.0033 70.6601 86.98 70.4034 86.98V86.8333H73.0901C73.7301 86.8333 74.1867 86.89 74.4534 86.9966C74.7201 87.1066 74.9301 87.27 75.0834 87.4866C75.2401 87.7066 75.3167 87.9366 75.3167 88.1833C75.3167 88.44 75.2167 88.67 75.0234 88.8733C74.8267 89.0733 74.4834 89.2333 73.9901 89.3533ZM72.4867 89.5533V91.2733L72.4801 91.47C72.4801 91.6133 72.5201 91.72 72.5967 91.7933C72.6701 91.8666 72.7834 91.9033 72.9334 91.9033C73.1534 91.9033 73.3567 91.8566 73.5401 91.7633C73.7267 91.6666 73.8701 91.5333 73.9701 91.3533C74.0667 91.1766 74.1167 90.9766 74.1167 90.76C74.1167 90.51 74.0567 90.2833 73.9367 90.0866C73.8134 89.8866 73.6467 89.7466 73.4367 89.67C73.2234 89.59 72.9067 89.55 72.4867 89.5533ZM72.4867 89.2466C72.8767 89.2466 73.1667 89.2033 73.3501 89.12C73.5367 89.0333 73.6801 88.9166 73.7801 88.7633C73.8801 88.61 73.9267 88.4166 73.9267 88.1766C73.9267 87.94 73.8801 87.7466 73.7801 87.5966C73.6834 87.4433 73.5434 87.3266 73.3601 87.25C73.1801 87.17 72.8867 87.1333 72.4867 87.1333V89.2466Z" fill="#332C2B"/>
<path d="M79.3901 90.67H77.4101L77.1767 91.19C77.0967 91.3633 77.0601 91.5066 77.0601 91.62C77.0601 91.77 77.1234 91.8833 77.2501 91.9533C77.3234 91.9966 77.5067 92.0266 77.8001 92.05V92.1933H75.9367V92.05C76.1367 92.02 76.3034 91.94 76.4301 91.81C76.5601 91.68 76.7201 91.41 76.9101 91L78.9167 86.7233H78.9934L81.0134 91.12C81.2067 91.5366 81.3667 91.7966 81.4901 91.9066C81.5834 91.9866 81.7167 92.0366 81.8867 92.05V92.1933H79.1767V92.05H79.2867C79.5034 92.05 79.6567 92.02 79.7467 91.96C79.8067 91.92 79.8367 91.86 79.8367 91.78C79.8367 91.7333 79.8301 91.6833 79.8134 91.6333C79.8067 91.61 79.7667 91.51 79.6867 91.3366L79.3901 90.67ZM79.2501 90.3766L78.4134 88.53L77.5567 90.3766H79.2501Z" fill="#332C2B"/>
<path d="M84.2301 89.75V91.2533C84.2301 91.5433 84.2467 91.7266 84.2834 91.8C84.3234 91.8766 84.3867 91.9366 84.4801 91.98C84.5734 92.0266 84.7501 92.05 85.0067 92.05V92.1933H82.1401V92.05C82.3967 92.05 82.5734 92.0266 82.6667 91.98C82.7567 91.9333 82.8234 91.8733 82.8601 91.8C82.8967 91.7266 82.9134 91.5433 82.9134 91.2533V87.7733C82.9134 87.4866 82.8967 87.3033 82.8601 87.2266C82.8234 87.1533 82.7567 87.0933 82.6634 87.0466C82.5701 87.0033 82.3934 86.98 82.1401 86.98V86.8333H84.7401C85.4201 86.8333 85.9167 86.88 86.2301 86.97C86.5434 87.0566 86.8001 87.2233 86.9967 87.4633C87.1967 87.7066 87.2967 87.99 87.2967 88.3133C87.2967 88.7066 87.1467 89.0333 86.8501 89.2933C86.6601 89.4566 86.3934 89.58 86.0501 89.66L87.4001 91.4766C87.5734 91.71 87.7001 91.8566 87.7734 91.9133C87.8867 91.9966 88.0167 92.04 88.1667 92.05V92.1933H86.4034L84.5967 89.75H84.2301ZM84.2301 87.1233V89.47H84.4634C84.8467 89.47 85.1334 89.4366 85.3234 89.37C85.5134 89.3033 85.6634 89.18 85.7734 89.0066C85.8801 88.83 85.9367 88.6033 85.9367 88.32C85.9367 87.9133 85.8367 87.61 85.6367 87.4166C85.4367 87.22 85.1134 87.1233 84.6701 87.1233H84.2301Z" fill="#332C2B"/>
<path d="M26.0801 95.91V93.92H26.5901C26.7834 93.92 26.9101 93.93 26.9701 93.95C27.0601 93.98 27.1334 94.0466 27.1967 94.1466C27.2567 94.2466 27.2867 94.3766 27.2867 94.5333C27.2867 94.6566 27.2701 94.7566 27.2334 94.84C27.2001 94.9233 27.1534 94.99 27.1001 95.0366C27.0467 95.0866 26.9901 95.1166 26.9367 95.1333C26.8601 95.15 26.7501 95.16 26.6034 95.16H26.3967V95.91H26.0801ZM26.3967 94.2566V94.8233H26.5701C26.6967 94.8233 26.7801 94.8133 26.8234 94.79C26.8667 94.77 26.9001 94.7366 26.9234 94.6933C26.9467 94.65 26.9601 94.5966 26.9601 94.54C26.9601 94.4666 26.9434 94.4066 26.9067 94.36C26.8734 94.3133 26.8301 94.2833 26.7801 94.27C26.7434 94.2633 26.6667 94.2566 26.5501 94.2566H26.3967Z" fill="#332C2B"/>
<path d="M27.9034 95.91V94.2566H27.4367V93.92H28.6867V94.2566H28.2201V95.91H27.9034Z" fill="#332C2B"/>
<path d="M28.6467 95.91V95.53H28.9501V95.91H28.6467Z" fill="#332C2B"/>
<path d="M29.8734 93.92H30.5034C30.6301 93.92 30.7234 93.9266 30.7834 93.94C30.8467 93.9533 30.9001 93.98 30.9467 94.0233C30.9967 94.0633 31.0367 94.12 31.0701 94.19C31.1001 94.2566 31.1167 94.3366 31.1167 94.4233C31.1167 94.5166 31.0967 94.6 31.0567 94.68C31.0167 94.7566 30.9634 94.8133 30.8967 94.8533C30.9934 94.89 31.0667 94.95 31.1167 95.0333C31.1701 95.12 31.1967 95.22 31.1967 95.3333C31.1967 95.4233 31.1801 95.5133 31.1467 95.5966C31.1134 95.6833 31.0667 95.7533 31.0101 95.8033C30.9501 95.8533 30.8801 95.8866 30.7934 95.8966C30.7434 95.9033 30.6134 95.91 30.4101 95.91H29.8734V93.92ZM30.1934 94.2533V94.7133H30.4001C30.5267 94.7133 30.6034 94.71 30.6334 94.7066C30.6867 94.6966 30.7301 94.6733 30.7601 94.6333C30.7934 94.5966 30.8067 94.5433 30.8067 94.48C30.8067 94.4166 30.7934 94.3666 30.7667 94.33C30.7401 94.29 30.7001 94.2666 30.6467 94.26C30.6167 94.2533 30.5267 94.2533 30.3767 94.2533H30.1934ZM30.1934 95.0433V95.5766H30.4867C30.6034 95.5766 30.6767 95.5733 30.7067 95.5633C30.7534 95.5533 30.7934 95.5266 30.8201 95.4833C30.8501 95.4433 30.8667 95.3866 30.8667 95.3166C30.8667 95.2566 30.8534 95.2033 30.8334 95.1633C30.8101 95.12 30.7767 95.09 30.7334 95.0733C30.6901 95.0533 30.5934 95.0433 30.4501 95.0433H30.1934Z" fill="#332C2B"/>
<path d="M32.8867 95.91H32.5401L32.4034 95.46H31.7701L31.6401 95.91H31.3034L31.9167 93.92H32.2534L32.8867 95.91ZM32.3001 95.1233L32.0834 94.3866L31.8701 95.1233H32.3001Z" fill="#332C2B"/>
<path d="M33.0567 95.91V93.92H33.3667L34.0134 95.25V93.92H34.3101V95.91H33.9901L33.3534 94.6133V95.91H33.0567Z" fill="#332C2B"/>
<path d="M34.6501 95.91V93.92H34.9667V94.8033L35.6101 93.92H36.0401L35.4467 94.6966L36.0734 95.91H35.6601L35.2267 94.9766L34.9667 95.31V95.91H34.6501Z" fill="#332C2B"/>
<path d="M36.8467 95.91V93.92H37.3601C37.5534 93.92 37.6801 93.93 37.7367 93.95C37.8267 93.98 37.9034 94.0466 37.9634 94.1466C38.0267 94.2466 38.0567 94.3766 38.0567 94.5333C38.0567 94.6566 38.0401 94.7566 38.0034 94.84C37.9701 94.9233 37.9234 94.99 37.8701 95.0366C37.8167 95.0866 37.7601 95.1166 37.7034 95.1333C37.6301 95.15 37.5201 95.16 37.3734 95.16H37.1667V95.91H36.8467ZM37.1667 94.2566V94.8233H37.3401C37.4667 94.8233 37.5501 94.8133 37.5934 94.79C37.6334 94.77 37.6667 94.7366 37.6934 94.6933C37.7167 94.65 37.7267 94.5966 37.7267 94.54C37.7267 94.4666 37.7101 94.4066 37.6767 94.36C37.6434 94.3133 37.6001 94.2833 37.5501 94.27C37.5101 94.2633 37.4367 94.2566 37.3201 94.2566H37.1667Z" fill="#332C2B"/>
<path d="M38.3167 95.91V93.92H39.4867V94.2566H38.6367V94.7H39.4267V95.0333H38.6367V95.5766H39.5167V95.91H38.3167Z" fill="#332C2B"/>
<path d="M39.7834 95.91V93.92H40.2601L40.5467 95.28L40.8267 93.92H41.3067V95.91H41.0101V94.3433L40.6967 95.91H40.3901L40.0801 94.3433V95.91H39.7834Z" fill="#332C2B"/>
<path d="M41.6234 93.92H42.2534C42.3767 93.92 42.4701 93.9266 42.5334 93.94C42.5934 93.9533 42.6501 93.98 42.6967 94.0233C42.7467 94.0633 42.7867 94.12 42.8167 94.19C42.8501 94.2566 42.8667 94.3366 42.8667 94.4233C42.8667 94.5166 42.8467 94.6 42.8067 94.68C42.7667 94.7566 42.7134 94.8133 42.6434 94.8533C42.7401 94.89 42.8134 94.95 42.8667 95.0333C42.9167 95.12 42.9434 95.22 42.9434 95.3333C42.9434 95.4233 42.9267 95.5133 42.8934 95.5966C42.8601 95.6833 42.8134 95.7533 42.7567 95.8033C42.7001 95.8533 42.6267 95.8866 42.5434 95.8966C42.4901 95.9033 42.3634 95.91 42.1601 95.91H41.6234V93.92ZM41.9401 94.2533V94.7133H42.1501C42.2734 94.7133 42.3501 94.71 42.3801 94.7066C42.4367 94.6966 42.4767 94.6733 42.5101 94.6333C42.5401 94.5966 42.5567 94.5433 42.5567 94.48C42.5567 94.4166 42.5434 94.3666 42.5167 94.33C42.4901 94.29 42.4501 94.2666 42.3967 94.26C42.3634 94.2533 42.2734 94.2533 42.1234 94.2533H41.9401ZM41.9401 95.0433V95.5766H42.2367C42.3501 95.5766 42.4234 95.5733 42.4534 95.5633C42.5001 95.5533 42.5401 95.5266 42.5701 95.4833C42.6001 95.4433 42.6134 95.3866 42.6134 95.3166C42.6134 95.2566 42.6034 95.2033 42.5801 95.1633C42.5567 95.12 42.5234 95.09 42.4801 95.0733C42.4367 95.0533 42.3434 95.0433 42.1967 95.0433H41.9401Z" fill="#332C2B"/>
<path d="M44.6334 95.91H44.2867L44.1501 95.46H43.5201L43.3901 95.91H43.0534L43.6667 93.92H44.0034L44.6334 95.91ZM44.0467 95.1233L43.8301 94.3866L43.6167 95.1233H44.0467Z" fill="#332C2B"/>
<path d="M44.8067 95.91V93.92H45.1167L45.7601 95.25V93.92H46.0567V95.91H45.7367L45.1034 94.6133V95.91H44.8067Z" fill="#332C2B"/>
<path d="M47.1267 95.18V94.8433H47.8134V95.6366C47.7467 95.7166 47.6501 95.79 47.5234 95.8533C47.3967 95.9133 47.2701 95.9433 47.1401 95.9433C46.9734 95.9433 46.8301 95.9 46.7067 95.8133C46.5867 95.7266 46.4934 95.6033 46.4301 95.44C46.3701 95.2766 46.3401 95.1 46.3401 94.91C46.3401 94.7033 46.3734 94.5166 46.4434 94.3566C46.5101 94.1966 46.6134 94.0733 46.7434 93.9866C46.8467 93.92 46.9701 93.8866 47.1234 93.8866C47.3167 93.8866 47.4701 93.94 47.5801 94.0433C47.6901 94.1466 47.7634 94.29 47.7934 94.4733L47.4767 94.5466C47.4567 94.45 47.4134 94.3733 47.3534 94.3166C47.2901 94.26 47.2134 94.23 47.1234 94.23C46.9834 94.23 46.8734 94.2866 46.7901 94.3966C46.7067 94.51 46.6667 94.6733 46.6667 94.8933C46.6667 95.13 46.7101 95.3066 46.7934 95.4233C46.8734 95.5433 46.9834 95.6 47.1201 95.6C47.1867 95.6 47.2534 95.5833 47.3201 95.5533C47.3867 95.52 47.4434 95.48 47.4934 95.4333V95.18H47.1267Z" fill="#332C2B"/>
<path d="M48.1034 93.92H48.4234V95C48.4234 95.17 48.4267 95.28 48.4367 95.33C48.4501 95.4133 48.4801 95.4766 48.5334 95.5266C48.5834 95.5766 48.6534 95.6 48.7434 95.6C48.8334 95.6 48.9001 95.5766 48.9467 95.5333C48.9934 95.4833 49.0201 95.4266 49.0301 95.36C49.0401 95.2933 49.0434 95.18 49.0434 95.0233V93.92H49.3634V94.9666C49.3634 95.2066 49.3534 95.3733 49.3367 95.4733C49.3201 95.57 49.2867 95.6533 49.2401 95.7233C49.1967 95.79 49.1334 95.8433 49.0567 95.8833C48.9801 95.9233 48.8767 95.9433 48.7534 95.9433C48.6034 95.9433 48.4867 95.9233 48.4101 95.88C48.3334 95.8366 48.2701 95.7766 48.2267 95.7066C48.1801 95.6366 48.1501 95.5633 48.1367 95.4866C48.1167 95.3733 48.1034 95.2066 48.1034 94.9833V93.92Z" fill="#332C2B"/>
<path d="M49.7001 95.91V93.92H50.0101L50.6567 95.25V93.92H50.9534V95.91H50.6334L49.9967 94.6133V95.91H49.7001Z" fill="#332C2B"/>
<path d="M52.7101 95.91H52.3634L52.2267 95.46H51.5967L51.4667 95.91H51.1267L51.7434 93.92H52.0801L52.7101 95.91ZM52.1234 95.1233L51.9067 94.3866L51.6934 95.1233H52.1234Z" fill="#332C2B"/>
<path d="M52.8834 95.91V93.92H53.1934L53.8367 95.25V93.92H54.1334V95.91H53.8134L53.1801 94.6133V95.91H52.8834Z" fill="#332C2B"/>
<path d="M55.0801 93.92H55.6634C55.7934 93.92 55.8934 93.9333 55.9634 93.96C56.0567 93.9933 56.1367 94.0533 56.2001 94.1433C56.2667 94.23 56.3167 94.3366 56.3501 94.4633C56.3867 94.5933 56.4034 94.75 56.4034 94.9333C56.4034 95.1 56.3867 95.24 56.3534 95.3566C56.3167 95.5033 56.2601 95.62 56.1867 95.71C56.1301 95.7766 56.0567 95.83 55.9634 95.87C55.8934 95.8966 55.7967 95.91 55.6801 95.91H55.0801V93.92ZM55.4001 94.2566V95.5766H55.6367C55.7267 95.5766 55.7901 95.57 55.8301 95.5566C55.8801 95.54 55.9234 95.5133 55.9567 95.4733C55.9934 95.4333 56.0201 95.37 56.0434 95.28C56.0634 95.1933 56.0734 95.07 56.0734 94.9166C56.0734 94.7633 56.0634 94.6466 56.0434 94.5633C56.0201 94.48 55.9901 94.4166 55.9501 94.37C55.9134 94.3233 55.8634 94.2933 55.8034 94.2766C55.7601 94.2633 55.6734 94.2566 55.5434 94.2566H55.4001Z" fill="#332C2B"/>
<path d="M58.0934 95.91H57.7501L57.6101 95.46H56.9801L56.8501 95.91H56.5134L57.1267 93.92H57.4634L58.0934 95.91ZM57.5101 95.1233L57.2934 94.3866L57.0801 95.1233H57.5101Z" fill="#332C2B"/>
<path d="M58.2634 95.91V93.92H59.4334V94.2566H58.5834V94.7H59.3734V95.0333H58.5834V95.5766H59.4634V95.91H58.2634Z" fill="#332C2B"/>
<path d="M59.7334 95.91V93.92H60.4034C60.5734 93.92 60.6967 93.94 60.7701 93.9733C60.8467 94.01 60.9101 94.0733 60.9534 94.1666C61.0001 94.2566 61.0234 94.36 61.0234 94.48C61.0234 94.6266 60.9901 94.75 60.9201 94.85C60.8501 94.9466 60.7467 95.0066 60.6067 95.0333C60.6767 95.0833 60.7334 95.14 60.7767 95.2C60.8234 95.26 60.8834 95.3666 60.9601 95.5233L61.1534 95.91H60.7701L60.5401 95.4766C60.4601 95.3233 60.4034 95.2266 60.3734 95.1866C60.3434 95.1466 60.3101 95.1166 60.2767 95.1033C60.2434 95.0866 60.1901 95.08 60.1167 95.08H60.0534V95.91H59.7334ZM60.0534 94.7633H60.2867C60.4401 94.7633 60.5367 94.7533 60.5734 94.7366C60.6134 94.7233 60.6434 94.6933 60.6634 94.6533C60.6834 94.6133 60.6967 94.5633 60.6967 94.5066C60.6967 94.4366 60.6801 94.3833 60.6534 94.3433C60.6234 94.3 60.5834 94.2766 60.5334 94.2633C60.5067 94.26 60.4301 94.2566 60.3001 94.2566H60.0534V94.7633Z" fill="#332C2B"/>
<path d="M62.7467 95.91H62.4001L62.2601 95.46H61.6301L61.5001 95.91H61.1634L61.7767 93.92H62.1134L62.7467 95.91ZM62.1601 95.1233L61.9434 94.3866L61.7301 95.1233H62.1601Z" fill="#332C2B"/>
<path d="M62.9167 95.91V93.92H63.2334V94.7033H63.8567V93.92H64.1767V95.91H63.8567V95.04H63.2334V95.91H62.9167Z" fill="#332C2B"/>
<path d="M65.1234 95.91V93.92H65.4401V94.8033L66.0834 93.92H66.5101L65.9167 94.6966L66.5434 95.91H66.1301L65.6967 94.9766L65.4401 95.31V95.91H65.1234Z" fill="#332C2B"/>
<path d="M68.1301 95.91H67.7834L67.6467 95.46H67.0167L66.8867 95.91H66.5467L67.1634 93.92H67.5001L68.1301 95.91ZM67.5434 95.1233L67.3267 94.3866L67.1134 95.1233H67.5434Z" fill="#332C2B"/>
<path d="M68.3067 95.91V93.9366H68.6267V95.5766H69.4167V95.91H68.3067Z" fill="#332C2B"/>
<path d="M69.6334 95.91V93.92H69.9534V95.91H69.6334Z" fill="#332C2B"/>
<path d="M70.2534 95.91V93.92H70.7301L71.0134 95.28L71.2967 93.92H71.7767V95.91H71.4801V94.3433L71.1667 95.91H70.8601L70.5467 94.3433V95.91H70.2534Z" fill="#332C2B"/>
<path d="M73.5134 95.91H73.1667L73.0301 95.46H72.4001L72.2701 95.91H71.9301L72.5434 93.92H72.8834L73.5134 95.91ZM72.9267 95.1233L72.7101 94.3866L72.4967 95.1233H72.9267Z" fill="#332C2B"/>
<path d="M73.6834 95.91V93.92H73.9934L74.6401 95.25V93.92H74.9367V95.91H74.6167L73.9801 94.6133V95.91H73.6834Z" fill="#332C2B"/>
<path d="M75.6267 95.91V94.2566H75.1601V93.92H76.4134V94.2566H75.9467V95.91H75.6267Z" fill="#332C2B"/>
<path d="M77.8767 95.91H77.5301L77.3934 95.46H76.7634L76.6334 95.91H76.2934L76.9101 93.92H77.2467L77.8767 95.91ZM77.2901 95.1233L77.0734 94.3866L76.8601 95.1233H77.2901Z" fill="#332C2B"/>
<path d="M78.0501 95.91V93.92H78.3601L79.0034 95.25V93.92H79.3001V95.91H78.9801L78.3434 94.6133V95.91H78.0501Z" fill="#332C2B"/>
<path d="M80.2501 93.92H80.8801C81.0034 93.92 81.0967 93.9266 81.1601 93.94C81.2201 93.9533 81.2767 93.98 81.3234 94.0233C81.3734 94.0633 81.4134 94.12 81.4434 94.19C81.4767 94.2566 81.4934 94.3366 81.4934 94.4233C81.4934 94.5166 81.4734 94.6 81.4334 94.68C81.3934 94.7566 81.3401 94.8133 81.2701 94.8533C81.3667 94.89 81.4401 94.95 81.4934 95.0333C81.5434 95.12 81.5701 95.22 81.5701 95.3333C81.5701 95.4233 81.5534 95.5133 81.5201 95.5966C81.4867 95.6833 81.4401 95.7533 81.3834 95.8033C81.3267 95.8533 81.2534 95.8866 81.1701 95.8966C81.1167 95.9033 80.9901 95.91 80.7867 95.91H80.2501V93.92ZM80.5667 94.2533V94.7133H80.7767C80.9001 94.7133 80.9767 94.71 81.0067 94.7066C81.0634 94.6966 81.1034 94.6733 81.1367 94.6333C81.1667 94.5966 81.1834 94.5433 81.1834 94.48C81.1834 94.4166 81.1701 94.3666 81.1434 94.33C81.1167 94.29 81.0767 94.2666 81.0234 94.26C80.9901 94.2533 80.9001 94.2533 80.7501 94.2533H80.5667ZM80.5667 95.0433V95.5766H80.8634C80.9767 95.5766 81.0501 95.5733 81.0801 95.5633C81.1267 95.5533 81.1667 95.5266 81.1967 95.4833C81.2267 95.4433 81.2401 95.3866 81.2401 95.3166C81.2401 95.2566 81.2301 95.2033 81.2067 95.1633C81.1834 95.12 81.1501 95.09 81.1067 95.0733C81.0634 95.0533 80.9701 95.0433 80.8234 95.0433H80.5667Z" fill="#332C2B"/>
<path d="M83.2601 95.91H82.9134L82.7767 95.46H82.1467L82.0167 95.91H81.6801L82.2934 93.92H82.6301L83.2601 95.91ZM82.6767 95.1233L82.4567 94.3866L82.2434 95.1233H82.6767Z" fill="#332C2B"/>
<path d="M83.4301 95.91V93.92H84.1001C84.2701 93.92 84.3934 93.94 84.4667 93.9733C84.5434 94.01 84.6067 94.0733 84.6534 94.1666C84.6967 94.2566 84.7201 94.36 84.7201 94.48C84.7201 94.6266 84.6867 94.75 84.6167 94.85C84.5467 94.9466 84.4434 95.0066 84.3034 95.0333C84.3734 95.0833 84.4301 95.14 84.4734 95.2C84.5201 95.26 84.5801 95.3666 84.6567 95.5233L84.8501 95.91H84.4667L84.2367 95.4766C84.1567 95.3233 84.1001 95.2266 84.0701 95.1866C84.0401 95.1466 84.0067 95.1166 83.9734 95.1033C83.9401 95.0866 83.8867 95.08 83.8134 95.08H83.7501V95.91H83.4301ZM83.7501 94.7633H83.9834C84.1367 94.7633 84.2334 94.7533 84.2701 94.7366C84.3101 94.7233 84.3401 94.6933 84.3601 94.6533C84.3834 94.6133 84.3934 94.5633 84.3934 94.5066C84.3934 94.4366 84.3767 94.3833 84.3501 94.3433C84.3234 94.3 84.2834 94.2766 84.2301 94.2633C84.2034 94.26 84.1267 94.2566 83.9967 94.2566H83.7501V94.7633Z" fill="#332C2B"/>
<path d="M86.4434 95.91H86.0967L85.9601 95.46H85.3267L85.2001 95.91H84.8601L85.4734 93.92H85.8101L86.4434 95.91ZM85.8567 95.1233L85.6401 94.3866L85.4267 95.1233H85.8567Z" fill="#332C2B"/>
<path d="M86.8034 95.91V94.2566H86.3334V93.92H87.5901V94.2566H87.1201V95.91H86.8034Z" fill="#332C2B"/>
</g>
<rect x="1.5" y="1" width="110" height="110" rx="9" stroke="#CCCCCC" stroke-width="2"/>
<defs>
<clipPath id="clip0_528_601">
<rect x="2.5" y="2" width="108" height="108" rx="8" fill="white"/>
</clipPath>
</defs>
</svg>
