<svg width="113" height="112" viewBox="0 0 113 112" fill="none" xmlns="http://www.w3.org/2000/svg">
<g clip-path="url(#clip0_421_552)">
<rect x="2.5" y="2" width="108" height="108" rx="8" fill="white"/>
<g clip-path="url(#clip1_421_552)">
<path fill-rule="evenodd" clip-rule="evenodd" d="M60.2214 57.9347C59.6737 57.9347 59.8647 57.9322 59.5681 57.7336C59.5681 57.2075 59.8065 56.5953 59.8192 56.0249C60.1467 56.0249 60.1929 55.9724 60.4547 55.9066C60.5774 55.8756 60.671 55.8744 60.7931 55.8415C61.034 55.777 61.139 55.6176 61.5671 56.0356C61.846 56.3082 61.829 56.3436 61.829 56.7787C61.829 57.5623 60.9701 57.9347 60.2214 57.9347ZM59.9697 55.3716C59.9697 54.9624 60.0835 54.5482 60.1493 54.1441C60.3093 53.1645 60.4269 53.2612 61.2762 53.2612C62.0756 53.2612 62.2754 53.9866 61.4919 54.7328C61.3907 54.8302 61.3426 54.8473 61.2206 54.9137C60.9075 55.0832 60.3396 55.3412 59.9697 55.3716ZM58.412 53.0102C58.5689 53.2442 58.7637 53.2011 58.7637 53.4623C58.7637 53.9487 58.6296 54.3155 58.555 54.7613C58.5208 54.9668 58.5056 55.197 58.4531 55.4127L58.1085 57.3795C57.9852 58.3262 57.5077 57.8981 57.5077 58.3363C57.5077 58.5336 57.7562 58.588 57.9599 58.588C58.9831 58.588 60.8538 58.6633 61.7663 58.4748C61.9086 58.4457 62.0282 58.3857 62.1761 58.3319C63.3891 57.8892 63.8337 56.4505 63.0748 55.734C62.9654 55.6309 62.8155 55.5291 62.6783 55.4772L62.1306 55.3216C62.4715 55.2419 62.8301 55.0073 63.0716 54.8049C63.6667 54.306 63.8369 53.3555 63.0337 52.9115C62.3222 52.5181 59.7939 52.6579 58.8142 52.6579C58.5581 52.6579 58.4607 52.8002 58.412 53.0102Z" fill="#34368F"/>
<path fill-rule="evenodd" clip-rule="evenodd" d="M18.7137 57.9348C18.0585 57.9348 18.0035 57.8614 18.1394 57.1595L18.3115 56.0249L19.3252 55.8301C19.4441 55.7941 19.5181 55.7467 19.6085 55.7561C20.2125 55.8169 20.7469 56.9672 19.8552 57.6192C19.5428 57.8482 19.114 57.9348 18.7137 57.9348ZM18.412 55.3716C18.5309 55.1244 18.5891 54.0455 18.7744 53.5731C18.9281 53.1816 19.2285 53.2613 19.7685 53.2613C20.6122 53.2613 20.8424 54.1757 19.7097 54.9106C19.4365 55.0877 18.7529 55.364 18.412 55.3716ZM16.9043 53.0102C17.3072 53.611 17.3862 52.749 17.0549 54.7177L16.5995 57.3783C16.5053 58.2984 16 57.9051 16 58.3364C16 58.5337 16.2485 58.5881 16.4522 58.5881C17.4754 58.5881 19.3461 58.6633 20.2587 58.4749C20.4009 58.4458 20.5205 58.3857 20.6685 58.332C22.0408 57.8311 22.5904 55.8605 20.8904 55.4058C20.8797 55.4033 20.7766 55.3767 20.7709 55.3748L20.6229 55.3217C20.9828 55.2376 21.4065 54.958 21.6367 54.7272C21.6443 54.7196 21.6538 54.7089 21.6607 54.7013C21.8688 54.4793 22.0484 54.1694 22.0667 53.8545C22.1173 52.9818 21.1883 52.658 20.3219 52.658H17.3066C17.0504 52.658 16.9537 52.8003 16.9043 53.0102Z" fill="#34368F"/>
<path fill-rule="evenodd" clip-rule="evenodd" d="M82.1811 57.9348C81.223 57.9348 81.1471 58.2681 81.7663 55.2591C81.8181 55.0093 82.03 53.604 82.1008 53.4826C82.3101 53.1234 83.6148 53.1588 84.0929 53.7615C85.1256 55.0637 84.1239 57.9348 82.1811 57.9348ZM80.1707 52.9596C80.1707 53.2335 80.5223 53.2569 80.5223 53.4118L79.8412 57.4542C79.6698 58.3478 79.2664 57.8172 79.2664 58.4875C79.4415 58.528 79.4358 58.5881 79.618 58.5881C81.4602 58.5881 82.8351 58.7791 84.3484 58.0923C85.2104 57.7008 85.6948 56.8047 85.9769 55.9516C86.1856 55.3223 86.128 54.5818 85.8795 53.9848L85.569 53.4915C85.0934 52.9565 84.3206 52.658 83.4371 52.658H80.6229C80.38 52.658 80.1707 52.7199 80.1707 52.9596Z" fill="#34368F"/>
<path fill-rule="evenodd" clip-rule="evenodd" d="M72.4319 57.9349C71.3087 57.9349 71.6584 57.9424 72.0948 55.2857C72.1599 54.8904 72.2466 54.5369 72.3098 54.0936C72.4306 53.2481 72.4913 53.2613 73.3868 53.2613C73.5867 53.2613 73.8194 53.3556 73.9743 53.427C74.2052 53.5339 74.2703 53.6028 74.4303 53.7755C75.3726 54.7892 74.7124 57.9349 72.4319 57.9349ZM70.472 52.9597C70.5549 53.1165 70.4954 53.0704 70.6434 53.1911C70.9052 53.4043 70.9527 53.262 70.7636 54.055C70.615 54.6798 70.2646 57.5883 70.023 57.8874C69.8441 58.1094 69.6183 58.0183 69.6183 58.387C69.6183 58.5635 69.8409 58.5881 70.0199 58.5881C71.6009 58.5881 73.7435 58.7766 74.909 57.9494C75.6376 57.4321 75.9639 56.9666 76.2719 56.0958C76.6728 54.9606 76.3813 53.3979 75.0602 52.8945C74.1255 52.5391 72.091 52.658 70.9748 52.658C70.651 52.658 70.5846 52.7478 70.472 52.9597Z" fill="#34368F"/>
<path fill-rule="evenodd" clip-rule="evenodd" d="M35.749 52.9596C35.749 53.1569 35.9672 53.241 36.1006 53.3112L35.5858 56.6661C35.546 56.8571 35.4935 57.148 35.4619 57.346C35.4163 57.6305 35.4227 57.7912 35.2494 57.9373C35.1387 58.0302 34.844 58.1637 34.844 58.3363C34.844 58.4988 35.0268 58.588 35.1962 58.588H36.8544C37.0676 58.588 37.206 58.4925 37.206 58.2863C37.206 57.8158 36.6419 58.4451 36.9651 57.0905C36.9809 57.0228 37.0182 56.8653 37.0347 56.7578L37.0676 56.489C37.1245 56.2297 37.151 56.2784 37.4413 56.1096C37.5899 56.0236 37.6823 55.9591 37.8094 55.8743L38.3286 56.8122C38.4506 57.0563 38.7637 57.6495 38.7637 57.8841C38.7637 58.0214 38.4879 58.0119 38.4121 58.3363C38.517 58.5349 38.5632 58.588 38.8642 58.588C40.4851 58.588 40.7235 58.7581 40.7235 58.0852C40.4054 58.0005 40.3725 57.6976 40.2574 57.3959C40.1354 57.0746 40.0336 56.8552 39.8862 56.5611L39.2323 55.4063C39.1172 55.2084 39.0717 55.2628 39.0154 55.0199C39.2171 54.9662 39.7774 54.428 39.988 54.2339L40.2283 54.022C40.6982 53.6305 40.4598 53.6514 41.1308 53.2663C41.5849 53.0051 41.3635 52.6579 41.0252 52.6579C40.5894 52.6579 39.3512 52.4998 39.417 53.0101C39.5668 53.2928 39.5719 53.1429 39.7186 53.3618C39.6396 53.6571 39.4113 53.7697 39.2045 53.9531C39.1494 54.0011 39.1311 54.0264 39.0767 54.0764L37.256 55.4721L37.4774 53.9847C37.6215 53.0424 38.1578 53.2739 38.1104 52.9096C38.0282 52.7534 38.001 52.6579 37.7588 52.6579C37.158 52.6579 35.749 52.5055 35.749 52.9596Z" fill="#34368F"/>
<path fill-rule="evenodd" clip-rule="evenodd" d="M29.2661 53.0103C29.7031 53.6623 29.7208 52.8926 29.576 54.1239C29.5406 54.4275 29.5153 54.5046 29.4628 54.7639L28.9935 57.4106C28.9442 57.6958 28.9929 57.8166 28.8026 57.9734C28.5863 58.1518 28.4939 58.0367 28.4124 58.387C28.6255 58.7058 28.8272 58.5881 29.7689 58.5881C30.025 58.5881 30.1218 58.4465 30.1711 58.2365C30.1028 58.1581 30.0503 58.1151 29.9618 58.0436C29.6095 57.7616 29.7954 57.4428 29.9061 56.8155L30.3216 54.0651L32.0734 57.2885C32.3592 57.8305 32.5705 58.5881 33.0353 58.5881C34.0844 58.5881 33.7126 58.2239 34.0788 56.6169L34.6682 53.4365C34.801 53.0558 35.1956 53.3524 35.0451 52.7086C34.7953 52.6504 33.4375 52.4961 33.4375 52.9597C33.4375 53.243 33.7891 53.1013 33.7891 53.6129L33.3369 56.4771C33.1852 56.3665 33.2712 56.4057 33.0726 55.9877C32.8247 55.4672 32.5629 54.8582 32.272 54.3763L31.3765 52.9097C31.1355 52.5378 30.3197 52.658 29.6683 52.658C29.4122 52.658 29.3154 52.8003 29.2661 53.0103Z" fill="#34368F"/>
<path fill-rule="evenodd" clip-rule="evenodd" d="M66.1509 55.6733C66.2027 55.452 66.223 55.23 66.259 54.9776C66.2894 54.7658 66.3387 54.5457 66.3804 54.2953C66.5594 53.224 66.5069 53.2613 67.4574 53.2613C67.6098 53.2613 67.9305 53.4289 68.0152 53.5073C68.5464 53.998 68.0835 54.9283 67.5751 55.2382C67.3284 55.3881 67.2804 55.4431 66.9749 55.543C66.6442 55.6505 66.5727 55.6733 66.1509 55.6733ZM64.6938 52.9097C64.6938 53.2872 64.9929 53.1449 65.0353 53.4719C65.0498 53.5863 65.041 53.5427 65.0283 53.6388L64.4016 57.3916C64.3011 58.1675 63.8995 57.9133 63.7888 58.387C63.797 58.3958 63.8072 58.3996 63.811 58.4154C63.8141 58.4312 63.828 58.4376 63.8331 58.4433C63.9298 58.5425 63.9703 58.5881 64.1411 58.5881H65.8492C66.1528 58.5881 66.2008 58.4274 66.2008 58.2365C66.2008 58.0657 65.8492 57.9696 65.8492 57.8342C65.8492 57.4175 66.0503 56.8477 66.0503 56.2766C67.0084 56.2766 67.971 56.2077 68.795 55.6537C69.1264 55.4311 69.2674 55.3223 69.5045 55.0067C70.3608 53.8684 69.7006 52.658 67.8091 52.658H65.0954C64.9303 52.658 64.6938 52.811 64.6938 52.9097Z" fill="#34368F"/>
<path fill-rule="evenodd" clip-rule="evenodd" d="M25.4975 53.8639C25.5114 54.0303 25.5633 54.1947 25.6196 54.3452C25.7467 54.6823 25.9497 55.6024 25.9497 55.9749H24.141C24.3408 55.5961 24.5179 55.2249 24.7462 54.872C24.812 54.7702 24.8329 54.7563 24.91 54.6336C25.0232 54.4546 25.3761 53.9455 25.4975 53.8639ZM21.8795 58.2864C21.8795 58.7019 21.7745 58.588 23.4371 58.588C23.6458 58.588 23.6382 58.4015 23.6382 58.2864C23.6382 58.0239 23.2866 58.1371 23.2866 57.7836C23.2866 57.5363 23.6597 57.0184 23.7388 56.6782H26.1002C26.1413 57.1683 26.2008 57.2429 26.2008 57.8842C26.2008 58.2092 25.7992 57.888 25.7992 58.3869C25.7992 58.5412 25.9459 58.588 26.1002 58.588H27.8589C28.0721 58.588 28.2112 58.4926 28.2112 58.2864C28.2112 58.1163 27.9336 58.0391 27.8393 57.7033C27.759 57.42 27.7609 57.1354 27.6964 56.8407L27.0052 54.1156C26.861 53.728 26.8521 53.5699 26.6207 53.0424C26.4335 52.6168 26.4329 52.5574 25.9497 52.5574C25.5083 52.5574 25.3091 52.9476 24.9663 53.3833C24.8613 53.5174 24.7955 53.5869 24.7032 53.7229L24.2055 54.4312C24.0284 54.6816 23.883 54.9365 23.723 55.2053C23.1753 56.1267 22.9375 56.6339 22.474 57.6249C22.2197 58.1688 21.8795 58.0138 21.8795 58.2864Z" fill="#34368F"/>
<path fill-rule="evenodd" clip-rule="evenodd" d="M89.8188 52.9595C89.8188 53.2302 90.1363 53.1025 90.3412 53.6938C90.4582 54.0309 90.5891 54.299 90.7403 54.6013C90.8933 54.9067 91.0261 55.1445 91.176 55.4222C91.7964 56.57 91.723 55.8288 91.5801 56.8818C91.5453 57.1373 91.4985 57.5578 91.3872 57.7937C91.3069 57.9632 91.3335 57.9018 91.1646 57.9733C90.3292 58.3275 90.9085 58.588 91.1254 58.588H93.1358C93.4109 58.588 93.7088 58.2566 93.2585 58.0625C92.9689 57.9379 92.9847 58.0062 92.9847 57.6331L93.1687 56.41C93.2212 56.0716 93.2459 56.1513 93.6595 55.6947L95.5333 53.4478C95.7711 53.2075 96 53.265 96 52.859C96 52.546 95.1621 52.6579 94.6435 52.6579C94.4203 52.6579 94.3305 52.7761 94.2413 52.9096C94.3178 53.2372 94.4171 53.0993 94.5929 53.3618L94.2811 53.9543C94.1268 54.1472 94.0168 54.2914 93.8549 54.483C93.7758 54.576 93.736 54.6361 93.6544 54.7347C93.6057 54.7942 93.5823 54.8245 93.5406 54.872L93.4679 54.9497C93.4609 54.9573 93.4501 54.9681 93.4432 54.9757C93.2712 55.1622 93.0441 55.3001 92.9847 55.5227C92.7602 55.4626 92.7627 55.3109 92.6426 55.111C91.2304 52.7559 92.382 53.4901 92.382 52.9096C92.382 52.7471 92.1992 52.6579 92.0304 52.6579H90.2717C90.0282 52.6579 89.8188 52.7199 89.8188 52.9595Z" fill="#34368F"/>
<path fill-rule="evenodd" clip-rule="evenodd" d="M87.1057 52.9097C87.1057 53.5876 87.6452 52.7421 87.3454 54.0537C87.3049 54.2301 87.2853 54.4989 87.2493 54.7114C87.2145 54.9176 87.174 55.1218 87.1329 55.3495C87.0279 55.9313 86.9154 57.6515 86.6042 57.9361C86.455 58.0727 86.2513 58.122 86.2513 58.387C86.2513 58.5413 86.3987 58.5881 86.553 58.5881H88.1606C88.4041 58.5881 88.6128 58.5261 88.6128 58.2864C88.6128 58.0606 88.2611 58.0183 88.2611 57.8842C88.2611 57.2322 88.8328 54.7493 88.9176 53.9177C89.0061 53.0513 89.5177 53.3182 89.5177 52.9097C89.5177 52.7471 89.335 52.658 89.1655 52.658H87.5579C87.3543 52.658 87.1057 52.7123 87.1057 52.9097Z" fill="#34368F"/>
<path fill-rule="evenodd" clip-rule="evenodd" d="M54.0174 55.705C54.0174 56.4721 54.0269 56.8484 53.896 57.6281C53.6696 58.9758 53.2263 60.1654 52.4149 61.2499C51.656 62.2643 50.4778 63.0751 49.1377 63.0751C48.7823 63.0751 48.4585 63.0081 48.1815 62.9379C47.059 62.652 46.0503 61.649 45.4565 60.6618C44.4395 58.9726 44.0671 56.806 44.3244 54.7386C44.4825 53.4669 44.8923 52.2982 45.4362 51.3957C46.7219 49.2601 48.9986 48.1464 51.2032 49.6098C51.8489 50.0392 52.4048 50.6811 52.8063 51.3477C53.0163 51.6955 53.0327 51.7556 53.194 52.0737C53.6816 53.0356 54.0174 54.6179 54.0174 55.705ZM46.0598 48.7902C45.8467 49.0716 45.6474 49.3619 45.4609 49.6794C45.4122 49.7622 45.3705 49.8337 45.3306 49.914C44.9581 50.6716 44.8272 50.8468 44.5237 51.7587C43.5573 54.659 43.453 58.1303 44.7229 61.0305C44.764 61.1247 44.8057 61.2057 44.8449 61.2936C44.9651 61.5649 45.0833 61.7742 45.2225 62.0291L45.8252 62.9448C45.8859 63.022 45.9453 63.0858 45.9984 63.1567C46.0939 63.2838 46.3323 63.3034 46.5499 63.3546C48.0588 63.7088 50.6808 63.6417 52.0696 63.2737C52.2163 63.2345 52.2068 63.2427 52.2935 63.1333C53.2086 61.9728 53.767 60.7763 54.135 59.3047C54.2337 58.9088 54.3317 58.4642 54.3804 58.0316C54.4892 57.0615 54.4797 56.8054 54.4829 55.8669C54.4841 55.5987 54.4171 54.7728 54.3735 54.4579C54.2577 53.6186 54.0927 52.7807 53.8277 51.987C53.5545 51.1693 53.2345 50.3737 52.7912 49.6414L52.3396 48.959C52.3105 48.9205 52.2935 48.8939 52.2625 48.8541C52.2131 48.7914 52.2283 48.8003 52.1429 48.7706C51.7565 48.6384 50.9477 48.5284 50.5157 48.4948C50.0554 48.4588 49.5741 48.4209 49.0568 48.4373C48.5218 48.4386 47.9886 48.4658 47.4612 48.5233C47.2184 48.5499 46.9749 48.5891 46.7403 48.6314C46.4923 48.6764 46.2906 48.7415 46.0598 48.7902Z" fill="#34368F"/>
<path fill-rule="evenodd" clip-rule="evenodd" d="M48.8303 59.1503L48.8651 59.1174C48.9866 58.977 49.2085 58.461 49.2648 58.3022C49.49 57.6616 49.5165 57.0222 49.3603 56.3525C49.7802 56.3177 50.4569 55.9383 50.7111 55.6379C50.868 55.4526 50.9888 55.2129 51.0786 54.9732C51.279 54.4382 51.2993 53.6509 51.1399 53.095C51.0982 52.9489 50.9768 52.5258 50.8383 52.5258C50.739 52.5258 50.5783 52.5555 50.5145 52.5865C50.7453 53.0235 50.6738 53.2847 50.7288 53.6477L50.7162 54.2662C50.6808 54.7051 50.5328 55.1016 50.2716 55.4419C49.9832 55.8188 49.7568 55.9826 49.2996 56.0894C49.2231 55.7619 49.0043 55.2869 48.8133 55.0162C48.702 54.8581 48.616 54.8006 48.5704 54.7329C48.6039 54.683 48.7077 54.6235 48.7962 54.5135C49.1725 54.048 49.2395 53.2727 49.0074 52.7162L48.8164 52.3816C48.7747 52.3266 48.7715 52.343 48.7526 52.2627C49.027 52.1989 49.4413 51.8447 49.9674 52.08C50.0471 52.116 50.2052 52.2001 50.2514 52.2627C50.068 52.3051 49.8612 52.3241 49.6721 52.2747C49.5817 52.2507 49.5614 52.2204 49.4817 52.202C49.5469 52.2994 49.8112 52.4651 49.9674 52.4651C50.5979 52.4651 50.7541 52.2045 51.0925 52.3121C51.219 52.3519 51.336 52.4872 51.3922 52.5992C51.6939 53.1955 51.6686 55.2806 51.6686 56.1299C51.6686 56.9919 51.3897 58.2592 50.9768 58.941C50.911 59.0491 50.8199 59.2022 50.7333 59.2844C50.4645 59.5399 49.9624 59.397 49.6784 59.2743C49.5178 59.2053 49.0979 58.9555 48.8544 59.1674L48.8303 59.1503ZM49.4381 59.1503C49.5703 59.1168 49.796 58.9252 50.1641 59.0921C50.4152 59.2066 50.3146 59.2224 50.4133 59.1674C50.3854 59.063 50.271 58.9985 50.1907 58.9441V56.3121L49.9137 56.4607C49.8131 56.5113 49.7164 56.5467 49.6234 56.5954V58.843C49.5013 58.9075 49.3894 58.9619 49.3603 59.0864L49.4381 59.1503ZM49.4817 52.1818L49.4754 52.1875C49.476 52.1868 49.4836 52.1837 49.4817 52.1818ZM49.4615 52.1615L49.4552 52.1672C49.4558 52.1666 49.4634 52.1634 49.4615 52.1615ZM49.4413 52.1413L49.4349 52.147C49.4356 52.1464 49.4432 52.1432 49.4413 52.1413ZM49.421 52.1204L49.4147 52.1268C49.4153 52.1261 49.4229 52.123 49.421 52.1204ZM49.4008 52.1002L49.3945 52.1065C49.3951 52.1059 49.4027 52.1027 49.4008 52.1002ZM49.3805 52.08L49.3742 52.0863C49.3749 52.0856 49.3824 52.0825 49.3805 52.08ZM48.3276 59.0864C48.282 59.0554 48.1657 58.9745 48.1657 58.9239V56.2918L48.8544 56.3121C48.9031 56.522 48.8949 56.9919 48.8949 57.2436C48.8949 57.6641 48.8702 57.9841 48.7583 58.3022C48.6242 58.6861 48.5255 58.7905 48.3276 59.0864ZM47.5782 51.999C47.7122 51.9883 47.6572 51.9585 47.9228 51.9585C48.1081 51.9585 48.3706 52.0597 48.4085 52.202C48.227 52.202 48.0822 52.264 47.8128 52.1698L47.618 52.061C47.5598 52.0066 47.6104 52.061 47.5782 51.999ZM46.2621 51.8169C46.2621 51.9902 46.2963 52.0654 46.4392 52.2071C46.7775 52.5435 47.0786 52.2627 47.5377 52.0192C47.5763 52.1002 47.556 52.1072 47.6231 52.1773C47.8368 52.4031 48.2428 52.4107 48.53 52.3437C48.5622 52.4815 48.6071 52.5808 48.6349 52.7453C48.6931 53.0899 48.7273 54.0455 48.5502 54.3275C48.4269 54.5236 48.2492 54.5305 48.1657 54.571V52.8091C48.2998 52.7193 48.3377 52.7029 48.4288 52.5663L48.3649 52.4885C48.1714 52.6162 48.1707 52.6675 47.9026 52.6675C47.8292 52.6675 47.7293 52.6314 47.68 52.6061C47.6111 52.5707 47.5756 52.5239 47.5175 52.4853C47.4871 52.5062 47.396 52.5789 47.3758 52.6068C47.4232 52.677 47.4827 52.7465 47.5782 52.7687V54.4901C47.4877 54.4464 47.4036 54.4155 47.3151 54.368C47.3847 54.6653 47.7717 54.8543 48.0645 54.8543C48.1796 54.8543 48.2043 54.8341 48.3276 54.8341C48.4281 54.984 48.559 55.2313 48.6286 55.4033C48.7608 55.729 48.7545 55.7296 48.8341 56.0692H48.1657V55.0972C48.012 55.1332 47.9077 55.1282 47.7546 55.063C47.6857 55.0339 47.6395 54.9922 47.5782 54.9758V56.1906C47.4637 56.2513 47.3277 56.3336 47.2949 56.4739L47.5782 56.3525V58.843C47.4726 58.8992 47.3802 58.9694 47.3151 59.0662L47.3916 59.1516C47.5567 59.106 47.6851 58.9568 48.0468 59.063C48.1353 59.089 48.1903 59.1288 48.2669 59.1472C48.1518 59.3185 47.8109 59.5924 47.5175 59.5924C47.1013 59.5924 46.8591 59.0036 46.3804 59.4064C46.3266 59.452 46.2191 59.5974 46.2014 59.6733C46.3096 59.6164 46.4044 59.5532 46.5277 59.5133C46.9616 59.3729 46.9072 59.7777 47.6035 59.8713C48.0487 59.9307 48.3453 59.7783 48.6286 59.4273C48.769 59.2534 48.7842 59.1876 48.9151 59.1876C49.0707 59.1876 49.2168 59.2686 49.316 59.3331C49.4349 59.4096 49.5368 59.4792 49.6525 59.5633C50.2501 59.9996 50.9407 60.0717 51.4201 59.4248C51.7907 58.9245 52.0076 58.1195 52.1056 57.4782C52.1619 57.1083 52.2156 56.6788 52.215 56.2716C52.215 56.1723 52.2087 56.0445 52.2169 55.9484C52.222 55.8852 52.2334 55.8782 52.227 55.8143C52.2024 55.5626 52.2144 55.273 52.2156 55.0162L52.1284 53.7868C52.0721 53.3372 51.9216 51.9585 51.3246 51.9585C51.1627 51.9585 50.9761 51.9958 50.8585 52.0395C50.6005 52.135 50.6093 52.2007 50.4765 52.0983C50.2615 51.9313 49.9466 51.7562 49.6234 51.7562C49.3552 51.7562 48.8904 52.0711 48.5907 52.1413C48.4958 51.9984 48.1587 51.7966 48.024 51.7966C47.5946 51.7966 46.9451 52.2792 46.615 52.0724C46.5663 52.0414 46.5157 51.9996 46.4841 51.9598C46.4462 51.9117 46.419 51.8624 46.3848 51.8143C46.357 51.7758 46.2621 51.6961 46.2621 51.8169Z" fill="#34368F"/>
<path fill-rule="evenodd" clip-rule="evenodd" d="M46.1812 52.5663C46.1958 52.7383 46.4038 52.7845 46.4038 52.8699V58.7823C46.4038 58.8563 46.2565 58.8929 46.1407 59.0662L46.2173 59.1516C46.5126 59.0751 46.5385 58.8721 47.1735 59.2079L47.2544 59.1472C47.231 59.0454 47.1558 58.9745 47.0875 58.9094C46.9629 58.7899 46.9901 58.8259 46.9913 58.6001V52.8496C47.0982 52.8212 47.2386 52.6706 47.2949 52.5865L47.1893 52.4898C46.8174 52.7333 46.6928 52.7326 46.3229 52.4854C46.2729 52.529 46.2571 52.5486 46.1812 52.5663Z" fill="#34368F"/>
<path fill-rule="evenodd" clip-rule="evenodd" d="M49.421 52.5865C49.4463 52.6827 49.5254 52.7459 49.6234 52.7687V55.7252C49.6993 55.7075 49.7183 55.6771 49.7777 55.636C49.8732 55.569 50.1331 55.3597 50.1736 55.2831C50.2659 55.1099 50.1205 52.942 50.2147 52.8136C50.2324 52.7895 50.3102 52.7402 50.3475 52.7035C50.3962 52.6561 50.4379 52.6194 50.474 52.5663L50.4095 52.4885C50.216 52.6163 50.1774 52.6675 49.9269 52.6675C49.7967 52.6675 49.6164 52.5581 49.5627 52.4854C49.5159 52.517 49.471 52.553 49.421 52.5865Z" fill="#34368F"/>
<path fill-rule="evenodd" clip-rule="evenodd" d="M47.9431 61.6782H47.8014V60.7061H48.0038C48.2422 60.7061 48.3478 60.911 48.3478 61.1514C48.3478 61.4537 48.2485 61.6782 47.9431 61.6782ZM47.5175 61.7389C47.5175 61.8337 47.642 61.7996 47.8824 61.7996C48.0778 61.7996 48.2289 61.7439 48.3333 61.6434C48.7039 61.2854 48.5394 60.5847 48.0443 60.5847H47.5175V61.7389Z" fill="#34368F"/>
<path fill-rule="evenodd" clip-rule="evenodd" d="M50.049 61.3341V61.7996H50.3121V61.3341C50.6207 61.262 50.8332 60.7997 50.8383 60.5645H50.6157C50.6131 60.684 50.5505 60.892 50.5081 60.9831C50.3589 61.3063 50.0319 61.3259 49.8726 61.004C49.7916 60.8396 49.7885 60.7516 49.7448 60.5645H49.5222C49.5431 60.8149 49.741 61.262 50.049 61.3341Z" fill="#34368F"/>
<path fill-rule="evenodd" clip-rule="evenodd" d="M48.9353 61.7996H49.1984V60.5847H48.9353V61.7996Z" fill="#34368F"/>
<path fill-rule="evenodd" clip-rule="evenodd" d="M46.0598 48.7902C46.2906 48.7415 46.4924 48.6763 46.7403 48.6314C46.9749 48.589 47.2184 48.5498 47.4612 48.5233C47.9887 48.4657 48.5218 48.4385 49.0568 48.4373C49.0018 48.3993 48.7627 48.4151 48.6717 48.4151L47.4758 48.4948C47.2209 48.5226 46.4057 48.6447 46.1427 48.7402L46.0598 48.7902Z" fill="#34368F"/>
<path fill-rule="evenodd" clip-rule="evenodd" d="M49.3666 52.1558L49.3818 52.1406C49.3805 52.1419 49.3615 52.1507 49.3666 52.1558Z" fill="#34368F"/>
</g>
</g>
<rect x="1.5" y="1" width="110" height="110" rx="9" stroke="#CCCCCC" stroke-width="2"/>
<defs>
<clipPath id="clip0_421_552">
<rect x="2.5" y="2" width="108" height="108" rx="8" fill="white"/>
</clipPath>
<clipPath id="clip1_421_552">
<rect width="80" height="15.1779" fill="white" transform="translate(16 48.4111)"/>
</clipPath>
</defs>
</svg>
