<svg width="112" height="112" viewBox="0 0 112 112" fill="none" xmlns="http://www.w3.org/2000/svg">
<g clip-path="url(#clip0_642_1036)">
<rect x="2" y="2" width="108" height="108" rx="8" fill="white"/>
<path d="M96 36H16V76.0019H96V36Z" fill="#0077B3"/>
<path fill-rule="evenodd" clip-rule="evenodd" d="M25.648 49.7424C22.8542 50.0063 22.5149 51.8499 22.0248 52.7473C21.7156 52.4984 21.5573 52.4381 21.2444 52.193C21.4404 51.5408 22.0323 50.5756 22.5036 50.0252C23.6121 48.8262 24.8374 49.2108 26.1419 48.5623C26.9411 48.0458 27.1447 47.3219 27.4124 46.5905C27.8309 46.6659 27.9365 46.7564 28.2645 46.9185C28.0119 48.1891 27.1938 49.437 25.648 49.7424ZM26.7036 51.1751C28.2494 50.8697 29.0675 49.618 29.3202 48.3512C28.9921 48.1891 28.8866 48.0986 28.4681 48.0232C28.2004 48.7546 27.9968 49.4823 27.1975 49.995C25.893 50.6435 24.6677 50.2589 23.5593 51.4578C23.0842 52.0083 22.4923 52.9735 22.3 53.6257C22.6092 53.8745 22.7675 53.9349 23.0805 54.1799C23.5706 53.2789 23.9099 51.4352 26.7036 51.1751ZM27.7291 52.5814C29.2749 52.276 30.093 51.0243 30.3456 49.7575C30.0176 49.5954 29.9121 49.5049 29.4936 49.4295C29.2259 50.1609 29.0223 50.8885 28.223 51.4013C26.9185 52.0498 25.6932 51.6652 24.5848 52.8641C24.1097 53.4146 23.5178 54.3798 23.3255 55.032C23.6347 55.2808 23.793 55.3412 24.106 55.5862C24.5961 54.6851 24.9354 52.8415 27.7291 52.5814ZM28.8338 53.8745C30.3796 53.5692 31.1977 52.3174 31.4503 51.0507C31.1223 50.8885 31.0167 50.7981 30.5982 50.7227C30.3306 51.4541 30.127 52.1817 29.3277 52.6945C28.0232 53.3429 26.7979 52.9584 25.6894 54.1573C25.2144 54.7078 24.6225 55.6729 24.4302 56.3252C24.7393 56.574 24.8977 56.6343 25.2106 56.8794C25.7008 55.9783 26.0401 54.1347 28.8338 53.8745ZM25.4481 58.2744C22.6507 58.493 22.2812 60.3291 21.776 61.2227C21.4706 60.9701 21.3122 60.906 21.0068 60.6534C21.2104 60.0049 21.8174 59.0473 22.3 58.5044C23.4273 57.3243 24.6489 57.7277 25.9609 57.0981C26.7677 56.5966 26.9826 55.8728 27.2616 55.1451C27.6801 55.228 27.7819 55.3185 28.1061 55.4844C27.8347 56.7512 26.9977 57.9878 25.4481 58.2668V58.2744ZM26.4812 59.7221C23.6837 59.9408 23.3142 61.7769 22.809 62.6704C22.5036 62.4178 22.3453 62.3537 22.0399 62.1011C22.2435 61.4527 22.8505 60.495 23.3331 59.9521C24.4604 58.772 25.6819 59.1755 26.9939 58.5458C27.8008 58.0444 28.0157 57.3205 28.2947 56.5929C28.7131 56.6758 28.8149 56.7663 29.1392 56.9322C28.8677 58.199 28.0307 59.4356 26.4812 59.7184V59.7221ZM27.4878 61.1473C29.0374 60.8645 29.8744 59.6279 30.1458 58.3649C29.8216 58.199 29.716 58.1085 29.3013 58.0255C29.0223 58.7532 28.8074 59.4771 28.0006 59.9785C26.6885 60.6044 25.467 60.201 24.3397 61.3848C23.8571 61.9277 23.2501 62.8853 23.0465 63.5338C23.3519 63.7864 23.5103 63.8505 23.8194 64.1031C24.3246 63.2096 24.6903 61.3735 27.4916 61.1548L27.4878 61.1473ZM28.5699 62.4593C30.1194 62.1765 30.9564 60.9399 31.2316 59.6769C30.9074 59.511 30.8056 59.4205 30.3871 59.3376C30.1081 60.0652 29.8932 60.7891 29.0864 61.2905C27.7744 61.9164 26.5528 61.513 25.4255 62.6968C24.9429 63.2397 24.3359 64.1974 24.1323 64.8458C24.4377 65.0984 24.5961 65.1625 24.9015 65.4151C25.4067 64.5216 25.7724 62.6855 28.5736 62.4668L28.5699 62.4593ZM39.2584 50.0553C39.2584 50.2325 39.2358 50.3984 39.1868 50.5568C39.1415 50.7151 39.0737 50.8584 38.9907 50.9903C38.904 51.1223 38.8022 51.2392 38.6778 51.341C38.5572 51.4428 38.4177 51.5257 38.2631 51.5936C38.38 51.6162 38.4893 51.6577 38.5949 51.718C38.6967 51.7783 38.7871 51.8537 38.8588 51.9442C38.9304 52.0347 38.9907 52.144 39.0284 52.2647C39.0699 52.3891 39.0888 52.5248 39.0888 52.6756C39.0888 52.8264 39.0699 52.9848 39.0284 53.1356C38.9907 53.2902 38.9266 53.4372 38.8475 53.5767C38.7645 53.7162 38.6665 53.8482 38.5458 53.9688C38.4252 54.0894 38.2857 54.195 38.1236 54.2817C37.9615 54.3722 37.7805 54.4401 37.5807 54.4891C37.3808 54.5381 37.1509 54.5645 36.887 54.5645H35.4241C35.3299 54.5645 35.2582 54.5419 35.213 54.4929C35.1677 54.4438 35.1564 54.3684 35.1828 54.2591L36.1593 49.256C36.1782 49.1429 36.2234 49.0638 36.295 49.0185C36.3667 48.9733 36.4421 48.9507 36.5175 48.9507H37.7051C37.9841 48.9507 38.2178 48.9733 38.4063 49.0223C38.5949 49.0713 38.7532 49.1392 38.8776 49.2334C39.0058 49.3277 39.0963 49.4408 39.1604 49.5765C39.2245 49.7122 39.2546 49.8668 39.2546 50.044L39.2584 50.0553ZM38.4818 50.1911C38.4818 50.0968 38.4667 50.0101 38.4365 49.9347C38.4063 49.8593 38.3536 49.7952 38.2857 49.7386C38.2178 49.6858 38.1273 49.6444 38.0218 49.6142C37.9162 49.5841 37.7767 49.569 37.6033 49.569H36.8304L36.4835 51.3862H37.3092C37.5317 51.3862 37.7164 51.3485 37.8597 51.2731C38.0029 51.1977 38.1198 51.1034 38.2141 50.9866C38.3046 50.8697 38.3724 50.7415 38.4177 50.5982C38.4629 50.455 38.4818 50.3192 38.4818 50.1911ZM38.3159 52.7359C38.3159 52.4946 38.2329 52.3099 38.067 52.178C37.9011 52.046 37.6448 51.9819 37.2941 51.9819H36.3591L35.9746 53.9613H37.0001C37.2338 53.9613 37.4299 53.9273 37.5882 53.8595C37.7466 53.7916 37.8823 53.7011 37.9916 53.5918C38.101 53.4824 38.1801 53.3505 38.2367 53.2034C38.2932 53.0564 38.3234 52.9018 38.3234 52.7397L38.3159 52.7359ZM43.9523 54.3081L43.1266 49.0977C43.1191 49.0675 43.1116 49.0411 43.0965 49.0185C43.0814 48.9997 43.0588 48.9808 43.0211 48.9695C42.9871 48.9582 42.9381 48.9507 42.8816 48.9431C42.825 48.9393 42.7496 48.9356 42.6554 48.9356C42.5724 48.9356 42.5046 48.9356 42.448 48.9431C42.3915 48.9469 42.3424 48.9582 42.3085 48.9695C42.2708 48.9808 42.2406 48.9959 42.218 49.0185C42.1954 49.0374 42.1728 49.0638 42.1539 49.0977L39.2886 54.3081C39.2584 54.3722 39.2396 54.4212 39.2283 54.4627C39.2207 54.5004 39.2283 54.5306 39.2471 54.5532C39.266 54.572 39.3037 54.5871 39.3527 54.5947C39.4017 54.6022 39.4695 54.606 39.5563 54.606C39.6317 54.606 39.6995 54.606 39.7523 54.5984C39.8051 54.5947 39.8466 54.5833 39.8805 54.572C39.9144 54.5607 39.9408 54.5456 39.9559 54.5268C39.9748 54.5079 39.9898 54.4853 40.0049 54.4552L40.7213 53.1017H43.0173L43.2171 54.4665C43.2171 54.4929 43.2284 54.5155 43.2397 54.5306C43.2511 54.5494 43.2699 54.5607 43.2925 54.572C43.3152 54.5833 43.3491 54.5909 43.3943 54.5947C43.4396 54.5984 43.4961 54.6022 43.5564 54.6022C43.6507 54.6022 43.7299 54.6022 43.7864 54.5947C43.843 54.5871 43.8845 54.5758 43.9108 54.557C43.9372 54.5381 43.9561 54.5079 43.9599 54.4665C43.9636 54.425 43.9599 54.376 43.9523 54.3119V54.3081ZM42.5196 49.7085L42.9306 52.5022H41.038L42.5196 49.7085ZM49.0308 54.2629C49.0232 54.3194 49.0044 54.3684 48.9818 54.4099C48.9554 54.4514 48.9252 54.4815 48.8951 54.5079C48.8611 54.5343 48.8272 54.5532 48.7895 54.5645C48.7518 54.5758 48.7141 54.5796 48.6802 54.5796H48.4049C48.3295 54.5796 48.2692 54.572 48.2164 54.5532C48.1674 54.5343 48.1222 54.5042 48.0807 54.4627C48.043 54.4212 48.0091 54.3647 47.9789 54.3006C47.9487 54.2327 47.9148 54.1498 47.8846 54.048L46.8516 51.0582C46.78 50.8433 46.7121 50.6322 46.6405 50.4173C46.5688 50.2061 46.5047 49.9912 46.4369 49.7801H46.4256C46.3879 50.0176 46.3502 50.2514 46.3049 50.4851C46.2635 50.7189 46.2182 50.9526 46.173 51.1864L45.5358 54.4552C45.532 54.4778 45.5207 54.5004 45.5056 54.5155C45.4906 54.5343 45.4679 54.5456 45.4378 54.557C45.4076 54.5683 45.3699 54.5758 45.3247 54.5833C45.2757 54.5909 45.2229 54.5947 45.155 54.5947C45.0872 54.5947 45.0344 54.5947 44.9891 54.5833C44.9439 54.5758 44.9137 54.5683 44.8873 54.557C44.8647 54.5456 44.8496 54.5343 44.8421 54.5155C44.8345 54.5004 44.8345 54.4778 44.8421 54.4552L45.8525 49.2824C45.8751 49.1656 45.9241 49.0826 45.9958 49.0336C46.0674 48.9846 46.1428 48.9582 46.2182 48.9582H46.5538C46.6216 48.9582 46.6819 48.9657 46.731 48.9808C46.78 48.9959 46.8252 49.0223 46.8629 49.0562C46.9006 49.0939 46.9308 49.1429 46.9609 49.2033C46.9911 49.2636 47.0213 49.339 47.0552 49.4295L48.0995 52.4607C48.1636 52.6492 48.2315 52.8377 48.2956 53.0225C48.3597 53.211 48.4238 53.3995 48.4841 53.5918H48.4916C48.5293 53.3543 48.5746 53.1092 48.6198 52.8566C48.6688 52.604 48.7141 52.3552 48.7593 52.1214L49.3626 49.0826C49.3701 49.06 49.3776 49.0411 49.3927 49.0261C49.4078 49.011 49.4267 48.9959 49.4568 48.9846C49.487 48.9733 49.5209 48.9657 49.5662 48.9582C49.6114 48.9507 49.668 48.9507 49.732 48.9507C49.7961 48.9507 49.8527 48.9507 49.8979 48.9582C49.9432 48.962 49.9771 48.9733 49.9997 48.9846C50.0261 48.9959 50.0412 49.0072 50.0487 49.0261C50.0563 49.0411 50.0601 49.06 50.0563 49.0826L49.0308 54.2629ZM54.999 49.0788C54.999 49.1165 54.9839 49.1542 54.9538 49.1995C54.9236 49.241 54.8784 49.2937 54.8143 49.3541L52.5258 51.6237L53.9735 54.2365C53.9999 54.2855 54.0188 54.3232 54.0263 54.3534C54.0376 54.3835 54.0414 54.4099 54.0414 54.4325C54.0414 54.4589 54.0338 54.4815 54.0225 54.5004C54.0112 54.5192 53.9924 54.5381 53.966 54.5494C53.9396 54.5607 53.9019 54.5683 53.8491 54.5758C53.8001 54.5833 53.736 54.5871 53.6568 54.5871C53.5777 54.5871 53.5136 54.5871 53.4683 54.5796C53.4193 54.572 53.3816 54.5645 53.3514 54.557C53.3213 54.5456 53.2987 54.5306 53.2836 54.5155C53.2685 54.4966 53.2572 54.474 53.2459 54.4476L51.734 51.6464L51.1911 54.4514C51.1911 54.474 51.1798 54.4966 51.1647 54.5117C51.1496 54.5306 51.127 54.5419 51.0931 54.5532C51.0629 54.5645 51.0215 54.572 50.9724 54.5796C50.9234 54.5871 50.8669 54.5909 50.799 54.5909C50.7312 54.5909 50.6708 54.5909 50.6218 54.5796C50.5728 54.5683 50.5389 54.5645 50.5125 54.5532C50.4861 54.5419 50.471 54.5306 50.4635 54.5117C50.4559 54.4966 50.4522 54.474 50.4597 54.4514L51.5154 49.0638C51.5154 49.0449 51.5267 49.0223 51.5455 49.0072C51.5606 48.9884 51.587 48.977 51.6171 48.9657C51.6473 48.9544 51.6888 48.9469 51.7378 48.9393C51.7868 48.9318 51.8434 48.928 51.9112 48.928C51.9791 48.928 52.0356 48.928 52.0847 48.9393C52.1299 48.9469 52.1676 48.9544 52.194 48.9657C52.2204 48.977 52.2355 48.9884 52.243 49.0072C52.2505 49.0223 52.2543 49.0411 52.2505 49.0638L51.7604 51.5596L54.1696 49.0713C54.1922 49.0449 54.2186 49.0223 54.245 49.0034C54.2714 48.9846 54.3015 48.9695 54.3392 48.962C54.3769 48.9507 54.4184 48.9431 54.4674 48.9393C54.5202 48.9318 54.5768 48.9318 54.6446 48.9318C54.72 48.9318 54.7803 48.9318 54.8256 48.9431C54.8708 48.9507 54.9085 48.962 54.9312 48.9695C54.9576 48.9808 54.9764 48.9959 54.9839 49.0147C54.9953 49.0298 54.999 49.0525 54.999 49.0751V49.0788ZM39.5261 57.3507C39.5261 57.3771 39.5261 57.411 39.5186 57.4562C39.5148 57.5015 39.5072 57.5505 39.4997 57.607C39.4922 57.6636 39.4771 57.7164 39.462 57.7729C39.4469 57.8295 39.4318 57.8823 39.4092 57.9275C39.3904 57.9728 39.364 58.0142 39.3414 58.0444C39.315 58.0746 39.2886 58.0896 39.2622 58.0896C39.2207 58.0896 39.1679 58.0708 39.1038 58.0331C39.0397 57.9954 38.9606 57.9539 38.8663 57.9087C38.7721 57.8634 38.6627 57.822 38.5383 57.7842C38.4139 57.7465 38.2744 57.7277 38.1123 57.7277C37.9502 57.7277 37.8107 57.7503 37.6938 57.7956C37.5807 57.8408 37.4864 57.9011 37.411 57.9765C37.3394 58.0519 37.2828 58.1349 37.2489 58.2291C37.2112 58.3196 37.1961 58.4176 37.1961 58.5119C37.1961 58.6212 37.2225 58.7193 37.2791 58.8022C37.3356 58.8851 37.4072 58.9643 37.4977 59.036C37.5882 59.1076 37.6938 59.1792 37.8107 59.2471C37.9275 59.315 38.0482 59.3828 38.1688 59.4582C38.2895 59.5299 38.4101 59.6128 38.527 59.6995C38.6439 59.7862 38.7494 59.888 38.8399 60.0011C38.9304 60.118 39.0058 60.2462 39.0586 60.3932C39.1151 60.5403 39.1415 60.7137 39.1415 60.906C39.1415 61.1925 39.085 61.4602 38.9681 61.7053C38.8512 61.9503 38.6891 62.1615 38.4742 62.3462C38.2593 62.5272 38.0029 62.6704 37.7013 62.7722C37.3997 62.8778 37.0642 62.9268 36.6984 62.9268C36.4986 62.9268 36.3177 62.9117 36.1518 62.8778C35.9859 62.8476 35.8351 62.8062 35.7069 62.7609C35.5787 62.7157 35.4694 62.6667 35.3826 62.6139C35.2922 62.5649 35.2281 62.5159 35.1866 62.4706C35.1451 62.4254 35.1225 62.3537 35.1225 62.2633C35.1225 62.2406 35.1225 62.2029 35.13 62.1539C35.1376 62.1049 35.1451 62.0521 35.1564 61.9956C35.1677 61.939 35.179 61.8825 35.1941 61.8221C35.2092 61.7618 35.2281 61.709 35.2507 61.66C35.2733 61.611 35.2959 61.5695 35.3223 61.5394C35.3487 61.5092 35.3751 61.4941 35.4053 61.4941C35.458 61.4941 35.5184 61.5168 35.59 61.5658C35.6616 61.611 35.7521 61.6638 35.8577 61.7203C35.9633 61.7769 36.0914 61.8297 36.2385 61.8787C36.3855 61.9277 36.5589 61.9503 36.7663 61.9503C36.9473 61.9503 37.1056 61.9277 37.2414 61.8825C37.3771 61.8372 37.4902 61.7731 37.5844 61.6977C37.6749 61.6186 37.7466 61.5281 37.7918 61.4225C37.8408 61.3169 37.8634 61.2038 37.8634 61.0794C37.8634 60.9663 37.837 60.8683 37.7805 60.7816C37.7239 60.6948 37.6523 60.6157 37.5618 60.544C37.4713 60.4724 37.3695 60.4045 37.2564 60.3404C37.1433 60.2764 37.0265 60.2085 36.9058 60.1369C36.7889 60.0652 36.6683 59.9823 36.5552 59.8993C36.4421 59.8164 36.3365 59.7146 36.2498 59.6015C36.1593 59.4846 36.0877 59.3527 36.0311 59.2056C35.9746 59.0586 35.9482 58.8814 35.9482 58.6853C35.9482 58.4101 36.0047 58.1575 36.1141 57.9275C36.2234 57.6975 36.378 57.4977 36.5703 57.3318C36.7663 57.1659 37.0001 57.0377 37.2715 56.9435C37.543 56.853 37.8408 56.804 38.1651 56.804C38.3196 56.804 38.4667 56.8153 38.6024 56.8379C38.7381 56.8605 38.8663 56.8907 38.9794 56.9246C39.0925 56.9586 39.1905 56.9963 39.2697 57.0415C39.3489 57.083 39.4054 57.1207 39.4356 57.1509C39.4658 57.1772 39.4884 57.2112 39.5035 57.2413C39.5186 57.2753 39.5223 57.313 39.5223 57.362L39.5261 57.3507ZM44.9778 60.6345C44.9024 61.0115 44.7818 61.3471 44.6196 61.6299C44.4575 61.9164 44.2577 62.1539 44.0164 62.3462C43.7751 62.5385 43.4999 62.6817 43.187 62.7798C42.874 62.874 42.5272 62.923 42.1502 62.923C41.7467 62.923 41.3999 62.874 41.1134 62.776C40.823 62.6742 40.5968 62.5272 40.4272 62.3349C40.2575 62.1388 40.152 61.8938 40.1029 61.5997C40.0539 61.3056 40.069 60.9625 40.1482 60.5742L40.8532 57.0566C40.8607 57.0264 40.8721 57 40.8985 56.9737C40.9211 56.951 40.9588 56.9284 41.0078 56.9133C41.0568 56.8983 41.1247 56.8869 41.2001 56.8756C41.2792 56.8681 41.3773 56.8605 41.4979 56.8605C41.611 56.8605 41.709 56.8643 41.7807 56.8756C41.8561 56.8832 41.9164 56.8945 41.9579 56.9133C41.9994 56.9284 42.0295 56.951 42.0408 56.9737C42.0521 57 42.0597 57.0264 42.0521 57.0566L41.3471 60.5742C41.2981 60.8117 41.283 61.0115 41.3056 61.185C41.3283 61.3584 41.381 61.4979 41.4602 61.611C41.5432 61.7203 41.6525 61.8033 41.7882 61.8598C41.9239 61.9126 42.0898 61.939 42.2821 61.939C42.4744 61.939 42.6554 61.9089 42.8213 61.8485C42.9871 61.7882 43.1342 61.7015 43.2624 61.5846C43.3906 61.4715 43.4999 61.3282 43.5904 61.1624C43.6809 60.9965 43.745 60.808 43.7902 60.5968L44.5028 57.0528C44.5103 57.0227 44.5216 56.9963 44.548 56.9699C44.5706 56.9473 44.6046 56.9246 44.6536 56.9096C44.6988 56.8945 44.7629 56.8832 44.8459 56.8719C44.925 56.8643 45.0231 56.8568 45.1399 56.8568C45.2568 56.8568 45.3511 56.8605 45.4227 56.8719C45.4943 56.8794 45.5509 56.8907 45.5961 56.9096C45.6376 56.9246 45.6678 56.9473 45.6791 56.9699C45.6942 56.9963 45.6979 57.0227 45.6904 57.0528L44.974 60.627L44.9778 60.6345ZM52.7708 62.6629C52.7633 62.6931 52.7482 62.7194 52.7294 62.7458C52.7105 62.7685 52.6803 62.7911 52.6351 62.8062C52.5899 62.8212 52.5295 62.8326 52.4541 62.8401C52.3787 62.8476 52.2845 62.8514 52.1714 62.8514C52.0583 62.8514 51.9565 62.8514 51.8848 62.8401C51.8132 62.8326 51.7566 62.8212 51.7152 62.8062C51.6775 62.7911 51.6511 62.7685 51.6398 62.7458C51.6285 62.7194 51.6285 62.6931 51.6322 62.6629L52.5936 57.8408H52.5861L49.8979 62.6591C49.8602 62.7345 49.7886 62.7873 49.6868 62.8137C49.5812 62.8401 49.4304 62.8514 49.2381 62.8514C49.0459 62.8514 48.8988 62.8326 48.8083 62.7986C48.7216 62.7647 48.6764 62.7194 48.6726 62.6704L47.9789 57.837H47.9714L47.0062 62.6629C46.9986 62.6931 46.9873 62.7194 46.9685 62.7458C46.9496 62.7685 46.9157 62.7911 46.8705 62.8062C46.8252 62.8212 46.7687 62.8326 46.6933 62.8401C46.6179 62.8476 46.5236 62.8514 46.4067 62.8514C46.2898 62.8514 46.1956 62.8514 46.124 62.8401C46.0523 62.8326 45.9958 62.8212 45.9543 62.8062C45.9128 62.7911 45.8902 62.7685 45.8751 62.7458C45.8638 62.7194 45.86 62.6931 45.8714 62.6629L46.9232 57.3808C46.9383 57.3054 46.9609 57.2338 46.9949 57.1735C47.0288 57.1132 47.0665 57.0604 47.1155 57.0189C47.1608 56.9774 47.2173 56.9473 47.2776 56.9246C47.338 56.902 47.4058 56.8907 47.4737 56.8907H48.224C48.3597 56.8907 48.4728 56.902 48.5671 56.9246C48.6613 56.9473 48.7405 56.9887 48.8008 57.0415C48.8611 57.0981 48.9101 57.1697 48.9403 57.2564C48.9705 57.3469 48.9931 57.4525 49.0044 57.5769L49.5775 61.102H49.6001L51.6322 57.5769C51.6926 57.4562 51.7529 57.3544 51.8132 57.2677C51.8735 57.181 51.9414 57.1094 52.0168 57.0528C52.0922 56.9963 52.1751 56.9548 52.2656 56.9284C52.3561 56.902 52.4654 56.8907 52.5899 56.8907H53.4419C53.5173 56.8907 53.5852 56.902 53.638 56.9246C53.6908 56.9435 53.736 56.9774 53.7662 57.0189C53.8001 57.0604 53.819 57.1094 53.8265 57.1697C53.834 57.23 53.834 57.2979 53.8189 57.3733L52.7671 62.6591L52.7708 62.6629ZM58.2075 57.3507C58.2075 57.3017 58.1999 57.2602 58.1886 57.23C58.1735 57.1999 58.1509 57.1659 58.1208 57.1395C58.0906 57.1094 58.034 57.0754 57.9549 57.0302C57.8757 56.985 57.7777 56.9473 57.6646 56.9133C57.5515 56.8756 57.4233 56.8492 57.2875 56.8266C57.1518 56.804 57.0048 56.7927 56.8502 56.7927C56.526 56.7927 56.2281 56.8379 55.9567 56.9322C55.6852 57.0264 55.4514 57.1546 55.2554 57.3205C55.0631 57.4864 54.9085 57.6862 54.7992 57.9162C54.6899 58.15 54.6333 58.4026 54.6333 58.674C54.6333 58.8738 54.6597 59.0473 54.7163 59.1943C54.7728 59.3451 54.8444 59.4771 54.9349 59.5902C55.0254 59.7033 55.1272 59.8051 55.2403 59.888C55.3534 59.9747 55.4703 60.0539 55.5909 60.1255C55.7116 60.1972 55.8285 60.265 55.9416 60.3291C56.0547 60.3932 56.1602 60.4611 56.247 60.5327C56.3374 60.6044 56.4091 60.6835 56.4656 60.7703C56.5184 60.8532 56.5486 60.955 56.5486 61.0681C56.5486 61.1925 56.526 61.3056 56.4769 61.4112C56.4317 61.5168 56.3601 61.6072 56.2696 61.6864C56.1791 61.7656 56.0622 61.8259 55.9265 61.8712C55.7908 61.9164 55.6324 61.939 55.4514 61.939C55.2479 61.939 55.0707 61.9126 54.9236 61.8674C54.7766 61.8184 54.6484 61.7656 54.5428 61.709C54.4335 61.6525 54.3468 61.5997 54.2751 61.5545C54.2035 61.5054 54.1432 61.4828 54.0904 61.4828C54.0602 61.4828 54.0338 61.4979 54.0075 61.5281C53.9811 61.5582 53.9584 61.5997 53.9358 61.6487C53.917 61.6977 53.8981 61.7505 53.8793 61.8108C53.8642 61.8712 53.8529 61.9277 53.8416 61.9843C53.8303 62.0408 53.8227 62.0936 53.8152 62.1426C53.8076 62.1916 53.8076 62.2293 53.8076 62.2519C53.8076 62.3424 53.8303 62.4141 53.8717 62.4593C53.9132 62.5045 53.9811 62.5536 54.0678 62.6026C54.1545 62.6554 54.2638 62.7044 54.392 62.7496C54.5202 62.7949 54.671 62.8363 54.8369 62.8665C55.0066 62.9004 55.1875 62.9155 55.3836 62.9155C55.7493 62.9155 56.0848 62.8627 56.3865 62.7609C56.6881 62.6591 56.9444 62.5159 57.1593 62.3349C57.3705 62.1539 57.5364 61.939 57.6532 61.694C57.7701 61.4489 57.8267 61.1812 57.8267 60.8947C57.8267 60.7024 57.8003 60.5327 57.7437 60.3819C57.6909 60.2349 57.6155 60.1029 57.5251 59.9898C57.4346 59.8767 57.329 59.7749 57.2121 59.6882C57.0953 59.6015 56.9746 59.5223 56.854 59.4469C56.7333 59.3753 56.6127 59.3036 56.4958 59.2358C56.3789 59.1679 56.2733 59.1 56.1829 59.0246C56.0924 58.953 56.017 58.8776 55.9642 58.7909C55.9076 58.7079 55.8812 58.6099 55.8812 58.5006C55.8812 58.4063 55.9001 58.3121 55.934 58.2178C55.968 58.1236 56.0245 58.0406 56.0962 57.9652C56.1678 57.8898 56.262 57.8295 56.3789 57.7842C56.492 57.739 56.6315 57.7164 56.7974 57.7164C56.9633 57.7164 57.099 57.7352 57.2234 57.7729C57.3479 57.8106 57.4572 57.8521 57.5515 57.8974C57.6419 57.9426 57.7249 57.9841 57.789 58.0218C57.8531 58.0595 57.9059 58.0783 57.9473 58.0783C57.9737 58.0783 58.0039 58.0632 58.0265 58.0331C58.0529 58.0029 58.0755 57.9614 58.0944 57.9162C58.1132 57.8672 58.1321 57.8144 58.1471 57.7616C58.1622 57.7051 58.1735 57.6485 58.1848 57.5957C58.1924 57.5392 58.1999 57.4902 58.2037 57.4449C58.2075 57.3997 58.2112 57.362 58.2112 57.3394L58.2075 57.3507ZM63.0032 57.0679C63.0032 57.0679 63.0032 57.1169 62.9956 57.1659C62.9919 57.2112 62.9843 57.264 62.973 57.3205C62.9655 57.3771 62.9542 57.4374 62.9353 57.4977C62.9202 57.5618 62.9014 57.6146 62.8787 57.6674C62.8561 57.7164 62.8297 57.7579 62.7958 57.7956C62.7619 57.8295 62.7279 57.8446 62.694 57.8446H60.5789L60.2886 59.2886H62.0832C62.1247 59.2886 62.1549 59.3036 62.1737 59.3338C62.1926 59.364 62.2001 59.4054 62.2001 59.462C62.2001 59.4846 62.2001 59.5185 62.1926 59.56C62.1888 59.6053 62.1813 59.6543 62.17 59.7108C62.1624 59.7674 62.1511 59.8239 62.1323 59.8805C62.1172 59.937 62.0983 59.9898 62.0757 60.0426C62.0531 60.0916 62.0267 60.1293 61.9965 60.1595C61.9664 60.1896 61.9324 60.2047 61.8947 60.2047H60.1001L59.7646 61.8749H61.9098C61.9475 61.8749 61.9739 61.89 61.9928 61.9239C62.0116 61.9541 62.0191 62.0031 62.0191 62.0634C62.0191 62.0823 62.0191 62.12 62.0154 62.1652C62.0154 62.2105 62.0078 62.2633 61.9965 62.3198C61.9852 62.3764 61.9739 62.4329 61.9588 62.4932C61.9437 62.5498 61.9249 62.6063 61.9023 62.6591C61.8797 62.7081 61.8533 62.7496 61.8231 62.7798C61.7929 62.8099 61.759 62.825 61.7175 62.825H58.7391C58.6901 62.825 58.6448 62.8175 58.6071 62.8062C58.5656 62.7911 58.5355 62.7685 58.5091 62.7383C58.4827 62.7044 58.4638 62.6667 58.4563 62.6214C58.4488 62.5724 58.4488 62.5159 58.4601 62.448L59.4931 57.2828C59.5195 57.1471 59.5761 57.0528 59.659 56.9925C59.7419 56.9322 59.8362 56.902 59.938 56.902H62.8825C62.9617 56.902 62.9994 56.9586 62.9994 57.0755L63.0032 57.0679ZM66.3587 62.0069C66.3587 62.0295 66.3587 62.0634 66.3511 62.1087C66.3473 62.1539 66.3398 62.2105 66.3285 62.2708C66.3172 62.3311 66.3021 62.3952 66.287 62.4593C66.2682 62.5234 66.2493 62.5837 66.2267 62.6365C66.2041 62.6893 66.1777 62.7345 66.1475 62.7685C66.1174 62.8024 66.0834 62.8175 66.042 62.8175H63.3236C63.2746 62.8175 63.2294 62.8099 63.1879 62.7986C63.1464 62.7835 63.1125 62.7609 63.0861 62.7308C63.0597 62.6968 63.0409 62.6591 63.0333 62.6139C63.0258 62.5649 63.0258 62.5083 63.0371 62.4405L64.1154 57.0528C64.1154 57.0227 64.1342 56.9963 64.1569 56.9699C64.1795 56.9473 64.2172 56.9246 64.27 56.9096C64.319 56.8945 64.3868 56.8832 64.4622 56.8756C64.5414 56.8681 64.6394 56.8643 64.7601 56.8643C64.8807 56.8643 64.9712 56.8643 65.0466 56.8756C65.122 56.8832 65.1823 56.8945 65.2238 56.9096C65.2653 56.9246 65.2955 56.9473 65.3068 56.9699C65.3181 56.9963 65.3256 57.0227 65.3181 57.0528L64.368 61.8259H66.2418C66.2832 61.8259 66.3134 61.8448 66.3323 61.8749C66.3511 61.9089 66.3587 61.9541 66.3587 62.0069ZM71.7764 58.1009C71.7764 58.2819 71.75 58.4516 71.701 58.6099C71.652 58.772 71.5766 58.9191 71.4824 59.051C71.3881 59.183 71.2712 59.2999 71.1355 59.4017C70.9998 59.5035 70.849 59.5864 70.6831 59.6467C70.815 59.6694 70.9395 59.7146 71.0488 59.7749C71.1619 59.8352 71.2561 59.9144 71.3353 60.0087C71.4145 60.1029 71.4786 60.216 71.5201 60.348C71.5653 60.4762 71.5842 60.6232 71.5842 60.7853C71.5842 60.9324 71.5653 61.0832 71.5238 61.2415C71.4861 61.3961 71.422 61.5507 71.3353 61.7015C71.2524 61.8523 71.1393 61.9956 71.0035 62.1313C70.8678 62.267 70.7019 62.3877 70.5097 62.4895C70.3174 62.5913 70.0949 62.6742 69.8423 62.7345C69.5897 62.7949 69.2956 62.825 68.9601 62.825H67.3163C67.1919 62.825 67.1014 62.7949 67.0448 62.7345C66.9883 62.6742 66.9732 62.5799 66.9996 62.448L68.0326 57.2828C68.059 57.1471 68.1118 57.0528 68.1947 56.9925C68.2777 56.9322 68.3757 56.902 68.4851 56.902H69.914C70.2269 56.902 70.4983 56.9284 70.7283 56.9737C70.9583 57.0227 71.1468 57.0943 71.3052 57.1961C71.4597 57.2941 71.5766 57.4185 71.6558 57.5693C71.735 57.7202 71.7727 57.8974 71.7727 58.1085L71.7764 58.1009ZM70.5398 58.3272C70.5398 58.2404 70.5247 58.165 70.4946 58.1009C70.4644 58.0369 70.4192 57.9803 70.3588 57.9351C70.2947 57.8898 70.2193 57.8521 70.1251 57.8295C70.0346 57.8031 69.914 57.7918 69.7707 57.7918H69.1147L68.8093 59.33H69.4842C69.684 59.33 69.8461 59.2999 69.9781 59.2358C70.11 59.1717 70.2156 59.0925 70.2985 58.9945C70.3815 58.8965 70.4456 58.7871 70.4795 58.6665C70.5172 58.5458 70.536 58.4327 70.536 58.3234L70.5398 58.3272ZM70.3325 60.8457C70.3325 60.6496 70.2608 60.495 70.1138 60.3819C69.9705 60.2688 69.7405 60.2123 69.4238 60.2123H68.6283L68.289 61.9013H69.1411C69.356 61.9013 69.5407 61.8712 69.6877 61.8108C69.8348 61.7505 69.9592 61.6713 70.0535 61.5733C70.1515 61.4753 70.2193 61.3622 70.2646 61.234C70.3098 61.1058 70.3325 60.9776 70.3325 60.8457ZM77.0208 62.3726L76.2479 57.1169C76.2404 57.0604 76.2291 57.0151 76.2102 56.9812C76.1913 56.9473 76.1536 56.9246 76.0971 56.9058C76.0405 56.8869 75.9576 56.8794 75.8558 56.8719C75.7502 56.8681 75.6107 56.8643 75.4335 56.8643C75.2752 56.8643 75.1508 56.8643 75.0527 56.8719C74.9547 56.8756 74.8793 56.8869 74.8228 56.9058C74.7662 56.9246 74.721 56.9473 74.6908 56.9774C74.6606 57.0076 74.6305 57.0491 74.6003 57.1018L71.7312 62.3613C71.6746 62.4706 71.6332 62.5536 71.6143 62.6177C71.5955 62.6817 71.5992 62.7308 71.6219 62.7647C71.6483 62.7986 71.701 62.8212 71.7764 62.8288C71.8556 62.8363 71.965 62.8439 72.1044 62.8439C72.2364 62.8439 72.3457 62.8439 72.4325 62.8363C72.5192 62.8288 72.587 62.8175 72.6398 62.8062C72.6926 62.7911 72.7303 62.7685 72.7567 62.7383C72.7831 62.7119 72.8095 62.6742 72.8283 62.629L73.4391 61.4677H75.6598L75.8219 62.6591C75.8219 62.7006 75.8332 62.7345 75.8483 62.7609C75.8633 62.7873 75.8935 62.8062 75.9312 62.8175C75.9727 62.8288 76.0292 62.8401 76.1046 62.8439C76.18 62.8476 76.2743 62.8514 76.3949 62.8514C76.5571 62.8514 76.6852 62.8514 76.7795 62.8401C76.8738 62.8326 76.9379 62.8137 76.9793 62.7798C77.0208 62.7458 77.0396 62.6968 77.0434 62.6327C77.0434 62.5686 77.0396 62.4819 77.0246 62.3726H77.0208ZM75.2186 58.0255L75.558 60.5403H73.8953L75.2149 58.0255H75.2186ZM82.6158 58.1009C82.6158 58.2819 82.5894 58.4516 82.5404 58.6099C82.4914 58.772 82.416 58.9191 82.3217 59.051C82.2274 59.183 82.1106 59.2999 81.9748 59.4017C81.8391 59.5035 81.6883 59.5864 81.5224 59.6467C81.6544 59.6694 81.7788 59.7146 81.8881 59.7749C82.0012 59.8352 82.0955 59.9144 82.1747 60.0087C82.2538 60.1029 82.3179 60.216 82.3594 60.348C82.4046 60.4762 82.4235 60.6232 82.4235 60.7853C82.4235 60.9324 82.4046 61.0832 82.3632 61.2415C82.3255 61.3961 82.2614 61.5507 82.1747 61.7015C82.0917 61.8523 81.9786 61.9956 81.8429 62.1313C81.7072 62.267 81.5413 62.3877 81.349 62.4895C81.1567 62.5913 80.9343 62.6742 80.6817 62.7345C80.4291 62.7949 80.135 62.825 79.7994 62.825H78.1556C78.0312 62.825 77.9407 62.7949 77.8842 62.7345C77.8276 62.6742 77.8125 62.5799 77.8389 62.448L78.872 57.2828C78.8984 57.1471 78.9511 57.0528 79.0341 56.9925C79.117 56.9322 79.2151 56.902 79.3282 56.902H80.7571C81.07 56.902 81.3415 56.9284 81.5714 56.9737C81.8014 57.0227 81.9899 57.0943 82.1483 57.1961C82.3029 57.2941 82.4197 57.4185 82.4989 57.5693C82.5781 57.7202 82.6158 57.8974 82.6158 58.1085V58.1009ZM81.3792 58.3272C81.3792 58.2404 81.3641 58.165 81.3339 58.1009C81.3037 58.0369 81.2585 57.9803 81.1982 57.9351C81.1341 57.8898 81.0587 57.8521 80.9644 57.8295C80.8739 57.8031 80.7533 57.7918 80.61 57.7918H79.954L79.6486 59.33H80.3235C80.5233 59.33 80.6854 59.2999 80.8174 59.2358C80.9493 59.1717 81.0549 59.0925 81.1379 58.9945C81.2208 58.8965 81.2849 58.7871 81.3188 58.6665C81.3565 58.5458 81.3754 58.4327 81.3754 58.3234L81.3792 58.3272ZM81.1718 60.8457C81.1718 60.6496 81.1002 60.495 80.9531 60.3819C80.8099 60.2688 80.5799 60.2123 80.2632 60.2123H79.4677L79.1283 61.9013H79.9766C80.1915 61.9013 80.3763 61.8712 80.5233 61.8108C80.6704 61.7505 80.7948 61.6713 80.889 61.5733C80.9871 61.4753 81.0549 61.3622 81.1002 61.234C81.1454 61.1058 81.168 60.9776 81.168 60.8457H81.1718ZM87.6377 57.0679C87.6377 57.0679 87.6377 57.1169 87.6302 57.1659C87.6264 57.2112 87.6188 57.264 87.6075 57.3205C87.6 57.3771 87.5887 57.4374 87.5698 57.4977C87.5548 57.5618 87.5359 57.6146 87.5133 57.6674C87.4907 57.7164 87.4643 57.7579 87.4303 57.7956C87.3964 57.8295 87.3625 57.8446 87.3285 57.8446H85.2135L84.9231 59.2886H86.7178C86.7592 59.2886 86.7894 59.3036 86.8083 59.3338C86.8271 59.364 86.8346 59.4054 86.8346 59.462C86.8346 59.4846 86.8346 59.5185 86.8271 59.56C86.8233 59.6053 86.8158 59.6543 86.8045 59.7108C86.7969 59.7674 86.7856 59.8239 86.7668 59.8805C86.7517 59.937 86.7328 59.9898 86.7102 60.0426C86.6876 60.0916 86.6612 60.1293 86.6311 60.1595C86.6009 60.1896 86.567 60.2047 86.5293 60.2047H84.7346L84.3991 61.8749H86.5443C86.582 61.8749 86.6084 61.89 86.6273 61.9239C86.6461 61.9541 86.6537 62.0031 86.6537 62.0634C86.6537 62.0823 86.6537 62.12 86.6499 62.1652C86.6499 62.2105 86.6424 62.2633 86.6311 62.3198C86.6197 62.3764 86.6084 62.4329 86.5934 62.4932C86.5783 62.5498 86.5594 62.6063 86.5368 62.6591C86.5142 62.7081 86.4878 62.7496 86.4576 62.7798C86.4275 62.8099 86.3935 62.825 86.3521 62.825H83.3736C83.3246 62.825 83.2793 62.8175 83.2416 62.8062C83.2002 62.7911 83.17 62.7685 83.1436 62.7383C83.1172 62.7044 83.0984 62.6667 83.0908 62.6214C83.0833 62.5724 83.0833 62.5159 83.0946 62.448L84.1276 57.2828C84.154 57.1471 84.2106 57.0528 84.2935 56.9925C84.3765 56.9322 84.4707 56.902 84.5725 56.902H87.5171C87.5962 56.902 87.6339 56.9586 87.6339 57.0755L87.6377 57.0679ZM90.9932 62.0069C90.9932 62.0295 90.9932 62.0634 90.9856 62.1087C90.9819 62.1539 90.9743 62.2105 90.963 62.2708C90.9517 62.3311 90.9366 62.3952 90.9215 62.4593C90.9027 62.5234 90.8838 62.5837 90.8612 62.6365C90.8386 62.6893 90.8122 62.7345 90.7821 62.7685C90.7519 62.8024 90.718 62.8175 90.6765 62.8175H87.9582C87.9091 62.8175 87.8639 62.8099 87.8224 62.7986C87.781 62.7835 87.747 62.7609 87.7206 62.7308C87.6942 62.6968 87.6754 62.6591 87.6679 62.6139C87.6603 62.5649 87.6603 62.5083 87.6716 62.4405L88.7499 57.0528C88.7499 57.0227 88.7688 56.9963 88.7914 56.9699C88.814 56.9473 88.8517 56.9246 88.9045 56.9096C88.9535 56.8945 89.0214 56.8832 89.0968 56.8756C89.1759 56.8681 89.274 56.8643 89.3946 56.8643C89.5153 56.8643 89.6057 56.8643 89.6811 56.8756C89.7565 56.8832 89.8169 56.8945 89.8583 56.9096C89.8998 56.9246 89.93 56.9473 89.9413 56.9699C89.9526 56.9963 89.9601 57.0227 89.9526 57.0528L89.0025 61.8259H90.8763C90.9178 61.8259 90.9479 61.8448 90.9668 61.8749C90.9856 61.9089 90.9932 61.9541 90.9932 62.0069Z" fill="white"/>
</g>
<rect x="1" y="1" width="110" height="110" rx="9" stroke="#CCCCCC" stroke-width="2"/>
<defs>
<clipPath id="clip0_642_1036">
<rect x="2" y="2" width="108" height="108" rx="8" fill="white"/>
</clipPath>
</defs>
</svg>
