<svg width="113" height="112" viewBox="0 0 113 112" fill="none" xmlns="http://www.w3.org/2000/svg">
<g clip-path="url(#clip0_528_592)">
<rect x="2.5" y="2" width="108" height="108" rx="8" fill="white"/>
<path fill-rule="evenodd" clip-rule="evenodd" d="M18.9512 57.3475V57.6486C18.8114 57.7265 18.7402 57.8569 18.7402 58.037V63.0739C19.6607 62.019 20.3099 61.3739 20.6861 61.1414C21.0624 60.9089 21.4455 60.7933 21.8365 60.7933C22.4628 60.7933 22.9641 61.0419 23.3377 61.5378C23.7113 62.0337 23.8994 62.6654 23.8994 63.4354C23.8994 64.0792 23.761 64.7068 23.4882 65.3155C23.2154 65.9243 22.8592 66.4243 22.4225 66.8127C21.9857 67.2037 21.5745 67.4497 21.1888 67.5545C20.8031 67.6593 20.3233 67.7131 19.7494 67.7131H19.0748C18.5614 67.7131 18.2201 67.748 18.0575 67.8206C17.8922 67.8905 17.7685 68.0114 17.6865 68.1794H17.1906C17.3183 67.9483 17.4218 67.6486 17.4971 67.275C17.575 66.9014 17.6126 66.6205 17.6126 66.435V59.182C17.6126 58.7506 17.45 58.5356 17.1208 58.5356C16.9702 58.5356 16.7619 58.5907 16.4985 58.7035V58.3582L18.9498 57.3502L18.9512 57.3475ZM18.7603 66.56C19.3516 66.9255 19.9833 67.1097 20.6525 67.1097C21.139 67.1097 21.5395 66.982 21.858 66.7267C22.1738 66.4686 22.409 66.1219 22.5595 65.6811C22.7101 65.243 22.7853 64.7404 22.7853 64.18C22.7853 63.4529 22.6456 62.871 22.3647 62.4382C22.0811 62.0042 21.6927 61.7865 21.1995 61.7865C20.5625 61.7865 19.9806 62.152 19.4551 62.8844C18.9283 63.6169 18.6649 64.4917 18.6649 65.5064C18.6649 65.8195 18.6972 66.1703 18.7603 66.5613V66.56ZM25.3186 61.8899C26.4461 61.1481 27.5092 60.7772 28.505 60.7772C28.9713 60.7772 29.3073 60.8807 29.5156 61.0849C29.7212 61.2906 29.822 61.6386 29.8166 62.1278V66.7186C29.8166 66.939 29.9174 67.0492 30.115 67.0492C30.3125 67.0492 30.6512 66.8234 31.1404 66.3719V66.8234C30.3959 67.5558 29.7898 67.9214 29.3207 67.9214C28.9001 67.9214 28.6891 67.6875 28.6891 67.2199V66.1367C28.0776 66.7602 27.5616 67.2145 27.1369 67.4981C26.7162 67.7816 26.3144 67.9214 25.9381 67.9214C25.5618 67.9214 25.2581 67.7789 25.0001 67.4927C24.7421 67.2064 24.6117 66.8584 24.6117 66.4471C24.6117 65.3868 25.9704 64.2431 28.6878 63.0175V62.1332C28.6878 61.8631 28.6071 61.6386 28.4472 61.4639C28.2846 61.2865 28.0642 61.1978 27.7779 61.1978C27.2968 61.1978 26.8654 61.4303 26.4891 61.8993C26.1128 62.3684 25.8871 62.9516 25.8145 63.6491H25.3186V61.8886V61.8899ZM28.763 63.6195C27.8599 63.805 27.1288 64.1235 26.5671 64.5751C26.0053 65.0266 25.7244 65.4903 25.7244 65.9633C25.7244 66.2643 25.8172 66.5076 26.0053 66.6877C26.1935 66.8678 26.4394 66.9578 26.7418 66.9578C27.3035 66.9578 27.7766 66.6621 28.1663 66.0681C28.5547 65.4768 28.7536 64.6597 28.763 63.6182V63.6195ZM31.6336 61.5432L33.5366 60.7758H33.8443V63.2029C34.5512 62.2582 35.1331 61.6185 35.5887 61.2798C36.0456 60.9438 36.4784 60.7758 36.8869 60.7758C37.7161 60.7758 38.13 61.3053 38.13 62.3657V66.2066C38.13 66.6474 38.2174 66.9484 38.3961 67.1097C38.5735 67.2696 38.8544 67.3556 39.2441 67.365V67.7104H36.6867V67.365C36.8977 67.3556 37.0025 67.2346 37.0025 67.0062V62.4759C37.0025 62.2232 36.938 62.0176 36.8049 61.8644C36.6719 61.7112 36.5012 61.6333 36.2916 61.6333C35.672 61.6333 35.0982 62.07 34.5673 62.9422C34.0365 63.8144 33.7704 64.8143 33.7704 65.9432C33.7704 66.5143 33.8578 66.8906 34.0338 67.0761C34.2112 67.2588 34.5257 67.3543 34.9745 67.365V67.7104H31.6349V67.365C32.0314 67.3556 32.315 67.2696 32.487 67.1043C32.6603 66.9417 32.7477 66.6433 32.7477 66.2066V62.4611C32.7477 61.9571 32.5878 61.7072 32.2639 61.7072C32.1483 61.7072 31.9387 61.7676 31.6349 61.8899V61.5446L31.6336 61.5432ZM42.1658 64.1208V66.2066L42.1577 66.3772C42.1577 67.021 42.5313 67.3502 43.2785 67.365V67.7104H39.9241V67.365C40.3058 67.3556 40.5854 67.2723 40.7668 67.1164C40.9469 66.9605 41.0369 66.6581 41.0369 66.2066V59.3244C41.0369 58.8003 40.8609 58.5369 40.5101 58.5369C40.3676 58.5369 40.1714 58.5772 39.9241 58.6552V58.3098L42.4668 57.3166V57.6177C42.2666 57.6808 42.1658 57.8287 42.1658 58.0585V64.1208L43.4519 63.0551L43.5191 62.9825L43.8497 62.6896C44.2152 62.3684 44.398 62.0727 44.398 61.7999C44.398 61.4989 44.105 61.343 43.5177 61.3336V60.9882H46.9595V61.3336C46.3453 61.343 45.6008 61.7152 44.7179 62.4463L43.2181 63.6894L44.6641 65.5225C45.6237 66.7455 46.4838 67.3596 47.2484 67.365V67.7104H44.9947L42.1618 64.1208H42.1658Z" fill="#3156A5"/>
<path fill-rule="evenodd" clip-rule="evenodd" d="M64.5956 64.3775V66.4632L64.5875 66.6339C64.5875 67.2777 64.9611 67.6069 65.7083 67.6217V67.9671H62.3539V67.6217C62.7356 67.6123 63.0151 67.529 63.1966 67.3731C63.3766 67.2172 63.4667 66.9148 63.4667 66.4632V59.5811C63.4667 59.057 63.2906 58.7936 62.9399 58.7936C62.7974 58.7936 62.6012 58.8339 62.3526 58.9118V58.5665L64.8953 57.5733V57.8743C64.695 57.9375 64.5942 58.0853 64.5942 58.3152V64.3775L65.8803 63.3118L65.9475 63.2392L66.2781 62.9462C66.6437 62.6251 66.8264 62.3294 66.8264 62.0566C66.8264 61.7555 66.5335 61.601 65.9462 61.5902V61.2449H69.3879V61.5902C68.7738 61.5997 68.0292 61.9719 67.1463 62.703L65.6478 63.9461L67.0939 65.7792C68.0534 67.0021 68.9135 67.6163 69.6782 67.6217V67.9671H67.4245L64.5915 64.3775H64.5956ZM70.627 62.1466C71.7545 61.4048 72.8176 61.0339 73.8134 61.0339C74.2797 61.0339 74.6157 61.136 74.824 61.3416C75.0296 61.5472 75.1304 61.8953 75.1251 62.3845V66.9753C75.1251 67.1957 75.2259 67.3059 75.4234 67.3059C75.621 67.3059 75.9596 67.0801 76.4488 66.6285V67.0801C75.7043 67.8125 75.0982 68.1781 74.6292 68.1781C74.2085 68.1781 73.9975 67.9442 73.9975 67.4765V66.3934C73.386 67.0183 72.87 67.4712 72.4453 67.7547C72.0247 68.0383 71.6228 68.1781 71.2465 68.1781C70.8703 68.1781 70.5665 68.0356 70.3085 67.7494C70.0505 67.4631 69.9201 67.115 69.9201 66.7038C69.9201 65.6435 71.2788 64.4998 73.9962 63.2742V62.3899C73.9962 62.1197 73.9156 61.8967 73.7556 61.7206C73.593 61.5432 73.3726 61.4545 73.0864 61.4545C72.6052 61.4545 72.1738 61.687 71.7976 62.156C71.4213 62.6251 71.1955 63.2083 71.1229 63.9058H70.627V62.1453V62.1466ZM74.0714 63.8762C73.1683 64.0617 72.4372 64.3802 71.8755 64.8317C71.3137 65.2833 71.0329 65.7469 71.0329 66.22C71.0329 66.521 71.1256 66.7643 71.3137 66.9444C71.5019 67.1244 71.7478 67.2145 72.0502 67.2145C72.612 67.2145 73.085 66.9188 73.4747 66.3248C73.8631 65.7335 74.062 64.9164 74.0714 63.8749V63.8762ZM79.5438 57.8743C79.3436 57.9778 79.2428 58.1552 79.2428 58.4106V66.4632C79.2428 66.9 79.3301 67.1984 79.5089 67.361C79.6863 67.5263 79.9672 67.6123 80.3569 67.6217V67.9671H76.9877V67.6217C77.3882 67.6123 77.6771 67.5236 77.8532 67.3529C78.0292 67.1849 78.1166 66.8893 78.1166 66.4632V59.4709C78.1166 59.0194 77.9311 58.7936 77.5602 58.7936C77.4043 58.7936 77.2148 58.8339 76.9891 58.9118V58.5665L79.5465 57.5733V57.8743H79.5438ZM81.725 65.6959C81.7653 66.3329 81.9454 66.8288 82.2746 67.1822C82.5999 67.5357 82.9909 67.7117 83.4479 67.7117C83.8242 67.7117 84.1319 67.5962 84.3725 67.3663C84.613 67.1379 84.734 66.8476 84.734 66.4942C84.734 66.181 84.6439 65.9176 84.4639 65.7026C84.2757 65.4916 83.9128 65.2161 83.3659 64.8734C82.9802 64.6275 82.6267 64.399 82.3082 64.1867C81.9897 63.973 81.7693 63.758 81.647 63.5376C81.5194 63.3172 81.4562 63.0941 81.4562 62.8629C81.4562 62.3885 81.6766 61.9652 82.1161 61.5916C82.5542 61.2207 83.1388 61.0352 83.8631 61.0352C84.312 61.0352 84.7904 61.1333 85.3065 61.3282V63.2459H84.7797C84.7743 62.7043 84.6211 62.2703 84.3214 61.945C84.0204 61.6185 83.675 61.4559 83.2839 61.4559C83.0084 61.4559 82.792 61.5432 82.6375 61.7166C82.4816 61.8899 82.405 62.0956 82.405 62.3281C82.405 62.5941 82.4923 62.8213 82.6711 63.0121C82.8418 63.2083 83.1898 63.4663 83.7086 63.7889C84.6036 64.3533 85.1654 64.7484 85.3912 64.9769C85.6169 65.2121 85.7298 65.5239 85.7298 65.9096C85.7298 66.521 85.4597 67.0532 84.9181 67.5034C84.3765 67.9523 83.7529 68.1781 83.0474 68.1781C82.5233 68.1781 81.9198 68.0302 81.2318 67.7373V65.6972H81.7277L81.725 65.6959ZM92.3848 66.1165C91.2949 67.49 90.2319 68.1767 89.1931 68.1767C88.4633 68.1767 87.8223 67.8609 87.2659 67.2266C86.7068 66.5949 86.4286 65.845 86.4286 64.9755C86.4286 63.973 86.7592 63.0699 87.4218 62.2676C88.083 61.4626 88.8652 61.0621 89.7629 61.0621C90.4872 61.0621 91.0584 61.3147 91.4858 61.8241C91.9118 62.3307 92.1349 62.9503 92.1604 63.6787H87.4379C87.4285 63.8695 87.4231 64.0093 87.4231 64.0993C87.4231 64.9688 87.6543 65.6959 88.1126 66.2778C88.5708 66.8624 89.138 67.1527 89.8126 67.1527C90.6552 67.1527 91.5126 66.646 92.3875 65.6341V66.1152L92.3848 66.1165ZM90.9563 63.3333C90.8985 62.7621 90.7157 62.3186 90.4066 62.0015C90.0989 61.6857 89.7347 61.5271 89.3167 61.5271C88.8988 61.5271 88.4848 61.6978 88.1381 62.0405C87.7927 62.3818 87.579 62.8132 87.5011 63.3319H90.9563V63.3333ZM95.6868 57.873C95.4866 57.9765 95.3858 58.1539 95.3858 58.4092V66.4619C95.3858 66.8987 95.4731 67.197 95.6519 67.3596C95.8293 67.5249 96.1101 67.6109 96.4999 67.6203V67.9657H93.1307V67.6203C93.5312 67.6109 93.8201 67.5222 93.9962 67.3516C94.1722 67.1836 94.2596 66.8879 94.2596 66.4619V59.4696C94.2596 59.018 94.0741 58.7922 93.7032 58.7922C93.5473 58.7922 93.3578 58.8326 93.132 58.9105V58.5651L95.6895 57.572V57.873H95.6868Z" fill="#00AA43"/>
<path fill-rule="evenodd" clip-rule="evenodd" d="M57.7497 57.2333L56.8721 57.0667L55.9946 56.9014L54.3093 57.4927L53.1455 58.8473L52.8149 60.6025L53.4062 62.2877L54.0835 62.871L54.7609 63.4529L56.516 63.7835L58.2013 63.1922L59.3651 61.8375L59.6957 60.0824L59.1044 58.3971L58.427 57.8139L57.7497 57.232V57.2333ZM57.8653 58.1378L58.6555 59.022L58.5883 60.2074L57.704 60.9976L56.5187 60.9304L55.7285 60.0461L55.7957 58.8608L56.68 58.0706L57.8653 58.1378Z" fill="#4964AE"/>
<path fill-rule="evenodd" clip-rule="evenodd" d="M56.3547 43.9999L58.9592 44.6974L60.8649 46.603L61.5637 49.2075L60.8649 51.812L58.9592 53.7177L56.3547 54.4151L53.7502 53.7177L51.8446 51.812L51.1458 49.2075L51.8446 46.603L53.7502 44.6974L56.3547 43.9999ZM55.6048 45.1543L53.9518 45.8397L53.2664 47.4927L53.9518 49.1457L55.6048 49.8311L57.2578 49.1457L57.9432 47.4927L57.2578 45.8397L55.6048 45.1543Z" fill="#4964AE"/>
<path fill-rule="evenodd" clip-rule="evenodd" d="M52.9372 65.6475L52.7517 65.2215L52.5649 64.7955L51.8177 64.2445L50.8931 64.1423L50.0411 64.5159L49.4901 65.2631L49.4377 65.7254L49.3866 66.1877L49.572 66.6138L49.7589 67.0398L50.5061 67.5908L51.4307 67.6929L52.2827 67.3193L52.8337 66.5721L52.9358 65.6475H52.9372ZM52.5824 65.9633L52.4346 66.5627L52.1712 66.7226L51.9064 66.8825L51.307 66.7347L50.9872 66.2052L51.135 65.6058L51.6645 65.286L52.2639 65.4338L52.5837 65.9633H52.5824Z" fill="#4964AE"/>
</g>
<rect x="1.5" y="1" width="110" height="110" rx="9" stroke="#CCCCCC" stroke-width="2"/>
<defs>
<clipPath id="clip0_528_592">
<rect x="2.5" y="2" width="108" height="108" rx="8" fill="white"/>
</clipPath>
</defs>
</svg>
