<svg width="112" height="112" viewBox="0 0 112 112" fill="none" xmlns="http://www.w3.org/2000/svg">
<g clip-path="url(#clip0_642_1034)">
<rect x="2" y="2" width="108" height="108" rx="8" fill="white"/>
<path fill-rule="evenodd" clip-rule="evenodd" d="M31.8255 43.0001C31.6335 43.1834 31.5942 43.275 31.472 43.515C31.3673 43.7201 31.267 43.9382 31.1753 44.1651C30.8743 44.9156 30.6387 45.7795 30.438 46.7001C29.8402 49.4141 29.5653 52.0451 29.1028 54.7503C29.0286 55.1823 28.937 55.671 28.7843 56.1247C28.5792 56.7356 28.2738 57.2941 27.6891 57.6126C27.4928 57.7173 27.2702 57.8002 27.0128 57.8482H19.351C19.7524 57.4206 20.0971 56.5829 20.3938 55.5139C20.625 54.6762 20.8345 53.6988 21.0221 52.6647C21.3624 50.8016 21.5719 48.921 21.8773 47.0536C22.1216 45.5439 22.6714 43.4364 24.0371 43.0045H31.8255V43.0001Z" fill="#EFB305"/>
<path fill-rule="evenodd" clip-rule="evenodd" d="M41.5904 54.9423C41.5904 55.2565 41.5424 55.5488 41.4508 55.815C41.3548 56.0811 41.2239 56.3211 41.0537 56.5349C40.8836 56.7487 40.6785 56.9319 40.4429 57.0934C40.2029 57.2505 39.9367 57.3857 39.64 57.4948C39.339 57.6039 39.0205 57.6868 38.6801 57.7391C38.3398 57.7959 37.9471 57.822 37.5108 57.822H34.4521C34.3125 57.822 34.1816 57.7828 34.0594 57.7042C33.9373 57.6213 33.8762 57.4817 33.8762 57.281V48.3233C33.8762 48.1226 33.9373 47.9829 34.0594 47.9C34.1816 47.8215 34.3125 47.7822 34.4521 47.7822H37.1137C37.8118 47.7822 38.3878 47.839 38.8285 47.9524C39.2779 48.0658 39.6488 48.2316 39.9455 48.4498C40.2465 48.668 40.469 48.9341 40.6174 49.2483C40.7701 49.5624 40.8443 49.9202 40.8443 50.3173C40.8443 50.5573 40.8094 50.7841 40.7439 51.0023C40.6785 51.2205 40.5825 51.4212 40.4516 51.6044C40.3207 51.7877 40.1636 51.9535 39.9629 52.0975C39.7666 52.2415 39.544 52.3593 39.291 52.4553C39.6095 52.5076 39.9106 52.5992 40.1854 52.7389C40.4647 52.8741 40.7047 53.0487 40.9141 53.2625C41.1192 53.4763 41.285 53.725 41.4071 54.0086C41.5293 54.2922 41.5904 54.6063 41.5904 54.9467V54.9423ZM95.9738 54.8114C95.9738 55.1692 95.9171 55.4921 95.8036 55.7801C95.6858 56.0724 95.5288 56.3298 95.3281 56.5523C95.123 56.7749 94.883 56.9669 94.6038 57.1239C94.3245 57.2854 94.0147 57.4163 93.6788 57.521C93.3428 57.6257 92.9806 57.6999 92.5967 57.7479C92.2127 57.8002 91.7895 57.822 91.3139 57.822H88.2029C88.0022 57.822 87.8364 57.7697 87.7011 57.6693C87.5659 57.569 87.496 57.4032 87.496 57.1763V48.4236C87.496 48.1967 87.5659 48.0309 87.7011 47.9306C87.8364 47.8302 88.0022 47.7779 88.2029 47.7779H91.1437C91.8593 47.7779 92.4701 47.8302 92.9632 47.9349C93.4606 48.0397 93.8795 48.1967 94.2198 48.4018C94.5645 48.6112 94.8219 48.8774 95.0052 49.1959C95.1841 49.5144 95.2757 49.894 95.2757 50.3304C95.2757 50.5747 95.2364 50.8016 95.1666 51.0154C95.0968 51.2292 94.9921 51.4255 94.8525 51.6001C94.7128 51.779 94.5427 51.9317 94.342 52.0669C94.1413 52.2022 93.91 52.3113 93.6526 52.3942C93.9842 52.4465 94.2896 52.5382 94.5732 52.6691C94.8525 52.8 95.0968 52.9614 95.3062 53.1708C95.5113 53.3759 95.6815 53.6115 95.7993 53.8908C95.9215 54.1657 95.9782 54.4711 95.9782 54.8114H95.9738ZM92.8977 50.5834C92.8977 50.3784 92.8628 50.1995 92.7887 50.0424C92.7188 49.881 92.6054 49.7501 92.4614 49.641C92.3174 49.5363 92.1385 49.4534 91.916 49.3966C91.6978 49.3399 91.4055 49.3137 91.0346 49.3137H89.8304V51.9186H91.1612C91.5059 51.9186 91.7764 51.8837 91.9815 51.8139C92.1865 51.7441 92.3567 51.6481 92.492 51.5259C92.6272 51.4037 92.7276 51.2597 92.793 51.0983C92.8585 50.9369 92.8934 50.7623 92.8934 50.5834H92.8977ZM93.5042 54.8856C93.5042 54.6543 93.4606 54.4449 93.369 54.2616C93.2773 54.074 93.1464 53.9213 92.9719 53.7991C92.7974 53.677 92.5749 53.581 92.3 53.5112C92.0294 53.4457 91.676 53.4108 91.2397 53.4108H89.8304V56.2687H91.5495C91.8811 56.2687 92.156 56.2382 92.3872 56.1771C92.6141 56.1204 92.8061 56.0331 92.9719 55.9153C93.1377 55.7975 93.2686 55.6535 93.3602 55.479C93.4519 55.3045 93.4999 55.1081 93.4999 54.8856H93.5042ZM86.6932 48.62C86.6932 48.7727 86.6845 48.8992 86.667 49.0039C86.6496 49.1087 86.6321 49.1959 86.5972 49.2614C86.5667 49.3268 86.5274 49.3748 86.4881 49.4054C86.4401 49.4359 86.3921 49.4534 86.3354 49.4534H83.4077V57.5515C83.4077 57.6039 83.3902 57.6475 83.351 57.6911C83.3117 57.7348 83.2463 57.7697 83.1546 57.7915C83.063 57.8177 82.9408 57.8395 82.7881 57.857C82.6354 57.8744 82.4434 57.8788 82.2122 57.8788C81.9809 57.8788 81.7933 57.87 81.6362 57.857C81.4835 57.8395 81.3613 57.8177 81.2741 57.7915C81.1824 57.7697 81.117 57.7348 81.0777 57.6911C81.0385 57.6519 81.021 57.6039 81.021 57.5515V49.449H78.0889C78.0322 49.449 77.9798 49.4315 77.9362 49.401C77.8926 49.3705 77.8576 49.3225 77.8271 49.257C77.8009 49.1916 77.7747 49.1043 77.7573 48.9996C77.7442 48.8949 77.7355 48.7683 77.7355 48.6156C77.7355 48.4629 77.7442 48.3276 77.7573 48.2229C77.7747 48.1138 77.7966 48.0266 77.8271 47.9655C77.8576 47.9 77.8969 47.852 77.9362 47.8259C77.9755 47.7953 78.0278 47.7822 78.0889 47.7822H86.3398C86.3965 47.7822 86.4445 47.7953 86.4925 47.8259C86.5361 47.8564 86.571 47.9 86.6016 47.9655C86.6321 48.0309 86.6539 48.1182 86.6714 48.2229C86.6889 48.332 86.6976 48.4629 86.6976 48.6156L86.6932 48.62ZM76.9283 57.1108C76.9283 57.2286 76.9021 57.3377 76.8585 57.4294C76.8105 57.521 76.745 57.5995 76.6621 57.6606C76.5792 57.7261 76.4832 57.7697 76.3698 57.8002C76.2607 57.8264 76.1429 57.8439 76.0295 57.8439H75.0172C74.8077 57.8439 74.6201 57.8264 74.4718 57.7871C74.3191 57.7522 74.1751 57.6868 74.0442 57.5908C73.9133 57.4948 73.7867 57.3639 73.6689 57.2025C73.5468 57.041 73.4115 56.8272 73.2632 56.5698L70.3485 51.875C70.1827 51.5957 70.0082 51.2946 69.8336 50.9718C69.6591 50.6489 69.502 50.3347 69.3624 50.0293H69.345C69.3711 50.4002 69.3886 50.7711 69.4017 51.1419C69.4104 51.5128 69.4191 51.8924 69.4191 52.2851V57.5428C69.4191 57.5952 69.4017 57.6388 69.3711 57.6824C69.3406 57.7261 69.2795 57.761 69.201 57.7871C69.1181 57.8177 69.009 57.8395 68.8694 57.8526C68.7298 57.87 68.5509 57.8744 68.3371 57.8744C68.1233 57.8744 67.9531 57.8657 67.8135 57.8526C67.6738 57.8351 67.5648 57.8133 67.4862 57.7871C67.4077 57.7566 67.3553 57.7217 67.3248 57.6824C67.2942 57.6432 67.2768 57.5952 67.2768 57.5428V48.5109C67.2768 48.2709 67.3597 48.0877 67.5255 47.9655C67.6913 47.8433 67.892 47.7822 68.132 47.7822H69.4104C69.6373 47.7822 69.8293 47.7997 69.9864 47.8346C70.1434 47.8695 70.2831 47.9262 70.4052 48.0004C70.5274 48.0789 70.6452 48.1837 70.7543 48.3233C70.8634 48.4585 70.9725 48.6287 71.0859 48.8294L73.3679 52.5033C73.4988 52.7258 73.6297 52.9439 73.7606 53.1621C73.8915 53.3759 74.018 53.5897 74.1358 53.8079C74.258 54.0217 74.3714 54.2355 74.4892 54.4405C74.6027 54.6456 74.7161 54.855 74.8208 55.0601H74.8296C74.8121 54.698 74.799 54.3227 74.7903 53.9257C74.7816 53.533 74.7772 53.1577 74.7772 52.8043V48.092C74.7772 48.0397 74.7947 47.996 74.8296 47.9524C74.8645 47.9131 74.9299 47.8739 75.0128 47.8433C75.0957 47.8128 75.2092 47.791 75.3444 47.7779C75.484 47.7648 75.6629 47.7561 75.8767 47.7561C76.0905 47.7561 76.252 47.7648 76.3916 47.7779C76.5312 47.7866 76.6403 47.8128 76.7145 47.8433C76.793 47.8739 76.8454 47.9131 76.8716 47.9524C76.9021 47.996 76.9196 48.044 76.9196 48.092V57.1196L76.9283 57.1108ZM65.6362 57.6257C65.6362 57.665 65.6231 57.7042 65.6013 57.7348C65.5751 57.7653 65.5359 57.7915 65.4791 57.8133C65.4224 57.8351 65.3439 57.8482 65.2392 57.8613C65.1388 57.87 65.0079 57.8788 64.8508 57.8788C64.6938 57.8788 64.5541 57.8744 64.4494 57.8657C64.3447 57.857 64.2531 57.8439 64.1833 57.8308C64.1091 57.8133 64.0524 57.7871 64.0044 57.7522C63.9607 57.7217 63.9215 57.6781 63.8822 57.6344L60.444 53.7686V57.6432C60.444 57.6824 60.4309 57.7217 60.4091 57.7479C60.3829 57.7784 60.3436 57.8002 60.2912 57.822C60.2345 57.8439 60.1603 57.857 60.0644 57.87C59.964 57.8788 59.8418 57.8875 59.6891 57.8875C59.5451 57.8875 59.4273 57.8831 59.327 57.87C59.231 57.8613 59.1524 57.8439 59.1001 57.822C59.0434 57.8002 58.9997 57.7784 58.9823 57.7479C58.9605 57.7217 58.9474 57.6824 58.9474 57.6432V47.263C58.9474 47.2194 58.9605 47.1845 58.9823 47.1539C58.9997 47.1234 59.039 47.0972 59.1001 47.0754C59.1568 47.0579 59.231 47.0405 59.327 47.0318C59.4273 47.023 59.5451 47.0143 59.6891 47.0143C59.8418 47.0143 59.964 47.0187 60.0644 47.0318C60.1603 47.0405 60.2345 47.0579 60.2912 47.0754C60.3436 47.0972 60.3829 47.1234 60.4091 47.1539C60.4352 47.1845 60.444 47.2194 60.444 47.263V53.581L63.52 50.6794C63.568 50.6271 63.6204 50.5834 63.6728 50.5485C63.7251 50.518 63.7906 50.4874 63.8691 50.4656C63.9433 50.4438 64.0349 50.4307 64.1353 50.422C64.2356 50.4133 64.3621 50.4089 64.5061 50.4089C64.6501 50.4089 64.7854 50.4133 64.8857 50.422C64.9861 50.4307 65.069 50.4394 65.1344 50.4569C65.1955 50.4744 65.2435 50.5005 65.2697 50.5267C65.2959 50.5529 65.309 50.5922 65.309 50.6402C65.309 50.7056 65.2872 50.7667 65.2522 50.8234C65.213 50.8889 65.1475 50.9587 65.0559 51.0416L62.1064 53.5723L65.4181 57.2592C65.4966 57.3465 65.549 57.4163 65.5839 57.473C65.6188 57.5253 65.6319 57.5777 65.6319 57.6257H65.6362ZM57.5511 57.6344C57.5511 57.6737 57.538 57.713 57.5162 57.7391C57.49 57.7697 57.4551 57.7915 57.3984 57.8133C57.3417 57.8351 57.2675 57.8482 57.1715 57.8613C57.0712 57.87 56.9534 57.8788 56.8094 57.8788C56.6567 57.8788 56.5345 57.8744 56.4341 57.8613C56.3382 57.8526 56.264 57.8351 56.2073 57.8133C56.1549 57.7915 56.1156 57.7697 56.0894 57.7391C56.0633 57.713 56.0545 57.6737 56.0545 57.6344V53.5417C56.0545 53.1403 56.0196 52.8218 55.9455 52.5818C55.8756 52.3375 55.7709 52.128 55.6313 51.9491C55.4917 51.7746 55.3128 51.6393 55.0903 51.5477C54.8721 51.4561 54.619 51.4081 54.3267 51.4081C53.9515 51.4081 53.5806 51.5215 53.2053 51.7484C52.8301 51.9753 52.4374 52.3113 52.0273 52.752V57.6344C52.0273 57.6737 52.0142 57.713 51.9924 57.7391C51.9662 57.7697 51.9269 57.7915 51.8746 57.8133C51.8178 57.8351 51.7437 57.8482 51.6477 57.8613C51.5473 57.87 51.4251 57.8788 51.2724 57.8788C51.1284 57.8788 51.0106 57.8744 50.9103 57.8613C50.8143 57.8526 50.7358 57.8351 50.6834 57.8133C50.6267 57.7915 50.583 57.7697 50.5656 57.7391C50.5438 57.713 50.5307 57.6737 50.5307 57.6344V50.6489C50.5307 50.6052 50.5394 50.5703 50.5569 50.5442C50.5743 50.518 50.6136 50.4918 50.6659 50.4656C50.7227 50.4438 50.7881 50.4307 50.8754 50.422C50.9583 50.4133 51.0717 50.4089 51.207 50.4089C51.3422 50.4089 51.4513 50.4133 51.5386 50.422C51.6259 50.4307 51.6913 50.4438 51.7437 50.4656C51.7917 50.4874 51.8266 50.518 51.8484 50.5442C51.8658 50.5747 51.8789 50.6096 51.8789 50.6489V51.5739C52.3371 51.1332 52.7908 50.8103 53.249 50.6052C53.7028 50.4002 54.1609 50.2998 54.6278 50.2998C55.1732 50.2998 55.6269 50.3784 55.9978 50.5398C56.3687 50.6969 56.6698 50.9063 56.901 51.1725C57.1279 51.4386 57.2937 51.7484 57.3897 52.1018C57.49 52.4553 57.5424 52.8829 57.5424 53.3803V57.6432L57.5511 57.6344ZM49.1737 57.6432C49.1737 57.7042 49.1475 57.7522 49.0995 57.7828C49.0515 57.8133 48.9861 57.8395 48.9032 57.8526C48.8159 57.87 48.6938 57.8744 48.5323 57.8744C48.3709 57.8744 48.2487 57.8657 48.1571 57.8526C48.0654 57.8351 47.9956 57.8133 47.952 57.7828C47.9084 57.7522 47.8909 57.7042 47.8909 57.6432V56.945C47.5331 57.2723 47.1361 57.5253 46.6998 57.7042C46.2634 57.8831 45.8009 57.9791 45.3122 57.9791C44.8846 57.9791 44.492 57.9311 44.1473 57.8351C43.8026 57.7391 43.5059 57.6039 43.2615 57.4206C43.0172 57.2374 42.8252 57.0148 42.6899 56.7531C42.559 56.4869 42.4892 56.1902 42.4892 55.8542C42.4892 55.4615 42.5809 55.1212 42.7685 54.8289C42.9561 54.5409 43.2266 54.3009 43.5757 54.1089C43.9247 53.9169 44.3523 53.773 44.8585 53.677C45.3646 53.581 45.9362 53.533 46.5689 53.533H47.6902V52.9919C47.6902 52.7214 47.6553 52.4814 47.5899 52.2764C47.52 52.0713 47.4153 51.8968 47.267 51.7615C47.1186 51.6219 46.9266 51.5215 46.691 51.4474C46.4554 51.3775 46.1674 51.3426 45.8227 51.3426C45.4519 51.3426 45.1246 51.3775 44.8323 51.4561C44.54 51.5346 44.2825 51.6132 44.0644 51.7048C43.8418 51.7964 43.6586 51.875 43.5102 51.9535C43.3619 52.0277 43.2528 52.0626 43.1786 52.0626C43.1306 52.0626 43.0914 52.0538 43.0521 52.032C43.0172 52.0102 42.9823 51.9797 42.9561 51.936C42.9299 51.8968 42.9081 51.8444 42.8994 51.779C42.8863 51.7135 42.8819 51.6437 42.8819 51.5652C42.8819 51.4343 42.895 51.3339 42.9168 51.2597C42.9386 51.1856 42.9866 51.1157 43.0695 51.0459C43.1481 50.9805 43.2877 50.9019 43.4884 50.8103C43.6848 50.7187 43.916 50.6402 44.1734 50.5616C44.4309 50.4874 44.7188 50.4264 45.0243 50.374C45.3297 50.3216 45.6395 50.2998 45.958 50.2998C46.5427 50.2998 47.0401 50.3565 47.4502 50.47C47.8604 50.5834 48.192 50.7492 48.445 50.9718C48.6981 51.1899 48.8814 51.4648 48.9992 51.792C49.1126 52.1193 49.1737 52.4945 49.1737 52.9309V57.6432ZM47.6902 54.4536H46.4161C46.006 54.4536 45.6526 54.4842 45.3472 54.5409C45.0461 54.602 44.7974 54.6892 44.5967 54.807C44.4003 54.9249 44.252 55.0645 44.1603 55.2259C44.0687 55.3917 44.0207 55.575 44.0207 55.7888C44.0207 56.1509 44.1516 56.4389 44.4221 56.6571C44.6927 56.8709 45.0679 56.9799 45.5479 56.9799C45.9406 56.9799 46.3027 56.897 46.6387 56.7225C46.9703 56.5523 47.3237 56.2906 47.6902 55.9371V54.4536ZM39.2561 50.4569C39.2561 50.2126 39.2168 49.9944 39.1383 49.798C39.0597 49.6017 38.9376 49.4359 38.7674 49.2963C38.5972 49.1567 38.3791 49.0519 38.1085 48.9821C37.838 48.9123 37.4802 48.873 37.0308 48.873H35.4208V52.128H37.1923C37.598 52.128 37.9253 52.0844 38.1696 51.9884C38.4183 51.8968 38.619 51.7746 38.7848 51.6262C38.9506 51.4735 39.0641 51.2946 39.1426 51.0896C39.2168 50.8845 39.2517 50.6751 39.2517 50.4569H39.2561ZM39.9629 55.0252C39.9629 54.7241 39.9062 54.4624 39.7927 54.2355C39.6837 54.0086 39.5222 53.8122 39.3041 53.6595C39.0903 53.5024 38.8241 53.3846 38.5012 53.3061C38.1783 53.2276 37.7726 53.1883 37.2839 53.1883H35.4208V56.7269H37.6809C38.0387 56.7269 38.3485 56.692 38.6147 56.6178C38.8808 56.548 39.1164 56.4389 39.3172 56.2949C39.5222 56.1553 39.6793 55.9764 39.7927 55.767C39.9062 55.5532 39.9673 55.3088 39.9673 55.0296L39.9629 55.0252Z" fill="#0B6E45"/>
<path fill-rule="evenodd" clip-rule="evenodd" d="M16.925 50.4045C17.3221 52.2153 17.5053 53.9693 17.8151 55.7757C17.8631 56.0637 17.9242 56.3865 18.0289 56.692C18.1642 57.1021 18.3692 57.473 18.7576 57.6824C18.8885 57.7522 19.0368 57.8046 19.207 57.8395H19.351C19.7524 57.4119 20.0927 56.5742 20.3894 55.5095C20.6207 54.6718 20.8301 53.6944 21.0177 52.6603C21.3057 51.0939 21.4977 49.5144 21.7333 47.9393H16C16.1265 48.0615 16.1571 48.1226 16.2356 48.284C16.3054 48.4193 16.3709 48.5633 16.432 48.716C16.6327 49.2177 16.7897 49.7937 16.925 50.4089V50.4045Z" fill="#00ABE5"/>
<path fill-rule="evenodd" clip-rule="evenodd" d="M21.742 47.9393C21.5064 49.5144 21.3101 51.0939 21.0265 52.6603C20.8388 53.6944 20.6294 54.6762 20.3981 55.5095C20.1014 56.5742 19.7611 57.4119 19.3597 57.8395H25.97C25.6995 57.5559 25.4726 56.9974 25.2719 56.2818C25.1148 55.7233 24.9795 55.0732 24.853 54.3795C24.6261 53.1359 24.4865 51.8837 24.2814 50.6358C24.1156 49.6322 23.7535 48.2229 22.8416 47.9349H21.7464L21.742 47.9393Z" fill="#007EBF"/>
<path fill-rule="evenodd" clip-rule="evenodd" d="M72.4036 62.0631H72.1331C72.1723 61.701 72.1898 61.4261 72.1898 61.2385C72.1898 60.9723 72.1156 60.7629 71.976 60.6102C71.832 60.4574 71.64 60.3789 71.3913 60.3789C71.0117 60.3789 70.6801 60.5185 70.4009 60.789C70.1173 61.0639 69.9776 61.3694 69.9776 61.7141C69.9776 61.8973 70.0169 62.0631 70.0954 62.2115C70.1696 62.3598 70.3442 62.5649 70.6103 62.831C71.0946 63.3066 71.4175 63.6775 71.5659 63.948C71.7186 64.2186 71.7927 64.4804 71.7927 64.7378C71.7927 65.113 71.6793 65.4752 71.4481 65.8242C71.2168 66.1733 70.8808 66.4613 70.4358 66.6838C69.9907 66.9107 69.5195 67.0241 69.0221 67.0241C68.5247 67.0241 68.1189 66.8932 67.7829 66.6402C67.447 66.3827 67.2768 66.1166 67.2768 65.833C67.2768 65.6802 67.3204 65.5537 67.4077 65.4534C67.495 65.353 67.5953 65.305 67.7088 65.305C67.8222 65.305 67.9226 65.353 67.9967 65.4446C68.0447 65.5013 68.0927 65.6235 68.1451 65.8155C68.2018 66.0511 68.2673 66.2213 68.3458 66.326C68.4243 66.4307 68.5334 66.518 68.673 66.5834C68.8127 66.6489 68.9654 66.6838 69.1312 66.6838C69.6242 66.6838 70.0562 66.518 70.4271 66.182C70.7936 65.8504 70.9812 65.4795 70.9812 65.0781C70.9812 64.9385 70.9594 64.8032 70.9114 64.668C70.8634 64.5327 70.7805 64.3756 70.6539 64.2055C70.571 64.0877 70.3747 63.8826 70.078 63.5859C69.7857 63.2979 69.6024 63.0972 69.5239 62.9925C69.4148 62.8354 69.3362 62.6827 69.2839 62.5256C69.2315 62.3685 69.2053 62.2115 69.2053 62.0588C69.2053 61.7446 69.3101 61.4304 69.5195 61.1119C69.7289 60.7934 70.0038 60.5403 70.3398 60.3527C70.6758 60.1651 71.0597 60.0691 71.4873 60.0691C71.7011 60.0691 71.9673 60.104 72.2771 60.1695C72.456 60.2044 72.613 60.2306 72.7439 60.248C72.6698 60.4705 72.6087 60.6843 72.5694 60.8807C72.5301 61.077 72.4734 61.4741 72.3992 62.0631H72.4036ZM72.8399 62.9576C73.1541 62.7307 73.3941 62.6129 73.5642 62.6129C73.7082 62.6129 73.8435 62.7045 73.9744 62.8878C74.2274 63.2412 74.4281 63.7561 74.5678 64.428C74.7074 65.0999 74.7772 65.6759 74.7772 66.1558C74.7772 66.5005 74.6812 66.8365 74.4936 67.1725C74.306 67.5041 74.0529 67.792 73.73 68.0364C73.4944 68.2109 73.2719 68.2982 73.0624 68.2982C72.9839 68.2982 72.8356 68.2764 72.6174 68.224C72.4123 68.1804 72.2553 68.1586 72.1374 68.1586C71.9847 68.1586 71.8626 68.1935 71.7753 68.2676C71.688 68.3418 71.64 68.4291 71.64 68.5338C71.64 68.6516 71.6968 68.752 71.8146 68.8349C71.9324 68.9178 72.1025 68.9614 72.3294 68.9614C72.6305 68.9614 72.949 68.8829 73.285 68.7214C73.6209 68.56 73.97 68.2938 74.3322 67.9229C74.6943 67.5521 75.0914 66.9848 75.5277 66.2213C75.964 65.4577 76.2825 64.7421 76.4876 64.0789C76.6927 63.4157 76.793 62.8616 76.793 62.4165C76.793 62.242 76.7581 62.1111 76.6839 62.0195C76.6098 61.9279 76.5138 61.8799 76.3916 61.8799C76.2956 61.8799 76.2171 61.9148 76.1516 61.9802C76.0862 62.0457 76.0556 62.1286 76.0556 62.2289C76.0556 62.3293 76.0862 62.5038 76.1473 62.7481C76.204 62.9663 76.2345 63.1365 76.2345 63.2717C76.2345 63.9 75.9422 64.7552 75.3619 65.8286C75.3706 65.6672 75.3706 65.545 75.3706 65.4664C75.3706 64.8556 75.2659 64.2229 75.0608 63.5772C74.8557 62.927 74.5983 62.4078 74.2929 62.0282C74.2274 61.9453 74.1576 61.9017 74.0878 61.9017C74.018 61.9017 73.9351 61.9235 73.8478 61.9628C73.6951 62.0369 73.4333 62.1984 73.0624 62.4558L72.6785 62.7132L72.8443 62.9576H72.8399ZM80.6196 61.8188L80.9599 61.7446L80.5716 63.0536C80.4189 63.5728 80.2705 64.1749 80.1309 64.8512C80.0567 65.2221 80.0175 65.4577 80.0175 65.5668C80.0175 65.6759 80.0611 65.7282 80.1484 65.7282C80.2051 65.7282 80.2923 65.6933 80.4145 65.6192C80.6283 65.4883 80.8334 65.3312 81.0297 65.1436L81.1955 65.3443C80.8028 65.7021 80.5498 65.9202 80.4407 65.9988C80.2182 66.1471 80.0087 66.2606 79.8124 66.3347C79.6815 66.3827 79.5549 66.4089 79.4284 66.4089C79.3368 66.4089 79.2713 66.3871 79.2277 66.3478C79.1797 66.3042 79.1623 66.2475 79.1623 66.1646C79.1623 66.1122 79.1754 66.0424 79.2015 65.9508L79.4066 65.2483C79.1099 65.6017 78.7565 65.9071 78.3463 66.1646C78.0933 66.3216 77.862 66.4045 77.6526 66.4045C77.4431 66.4045 77.2992 66.3347 77.1901 66.1907C77.0461 65.9988 76.9719 65.7544 76.9719 65.4446C76.9719 65.0781 77.0723 64.6723 77.2643 64.2229C77.4606 63.7735 77.718 63.3677 78.0496 63.0012C78.3769 62.6347 78.7216 62.3685 79.0837 62.194C79.363 62.0631 79.7207 61.9977 80.1571 61.9977C80.2705 61.9977 80.3796 62.0064 80.493 62.0195L80.6152 61.8144L80.6196 61.8188ZM79.9782 62.6129C79.7906 62.5736 79.6335 62.5562 79.507 62.5562C79.1972 62.5562 78.9266 62.6434 78.6954 62.8136C78.4641 62.9838 78.2503 63.2935 78.0496 63.7342C77.8533 64.1793 77.7529 64.62 77.7529 65.0607C77.7529 65.2963 77.7922 65.4664 77.8707 65.5668C77.9493 65.6715 78.054 65.7239 78.1805 65.7239C78.4205 65.7239 78.6736 65.5973 78.9485 65.3399C79.219 65.0825 79.4197 64.7116 79.5462 64.2316L79.9782 62.6172V62.6129ZM81.7278 66.2606L82.09 64.8687C82.2645 64.1836 82.4216 63.5379 82.5525 62.9227C82.583 62.77 82.6005 62.6783 82.6005 62.6391C82.6005 62.5562 82.5612 62.5169 82.487 62.5169C82.4347 62.5169 82.3561 62.5518 82.2471 62.6216C82.1423 62.6914 81.946 62.8659 81.6668 63.1452L81.5053 62.9663C81.8369 62.6129 82.1685 62.3467 82.4958 62.1678C82.8274 61.9933 83.0804 61.9017 83.255 61.9017C83.3161 61.9017 83.3641 61.9191 83.4033 61.9453C83.4382 61.9758 83.4601 62.0108 83.4601 62.0544C83.4601 62.098 83.4382 62.2202 83.3946 62.4122L83.1721 63.3372C83.5211 62.7874 83.9138 62.3205 84.3502 61.9279C84.5596 61.7402 84.7341 61.6486 84.8781 61.6486C84.9828 61.6486 85.0701 61.6835 85.1355 61.749C85.2053 61.8144 85.2402 61.8929 85.2402 61.9846C85.2402 62.0762 85.2053 62.1591 85.1399 62.2246C85.0744 62.29 84.9043 62.3685 84.6381 62.4558C84.3807 62.5431 84.1756 62.6434 84.0142 62.7656C83.8527 62.8878 83.6782 63.071 83.4862 63.3197C83.2942 63.5684 83.1633 63.7822 83.0848 63.9699C83.0106 64.1531 82.8928 64.5807 82.7401 65.257L82.5089 66.2606H81.7278ZM86.9245 59.6852C87.0292 59.6852 87.1208 59.7201 87.1863 59.7899C87.2561 59.8597 87.291 59.9513 87.291 60.0604C87.291 60.2131 87.2386 60.3484 87.1339 60.4618C87.0292 60.5796 86.9114 60.6363 86.7805 60.6363C86.6758 60.6363 86.5885 60.6014 86.523 60.5273C86.4532 60.4531 86.4227 60.3615 86.4227 60.2436C86.4227 60.0866 86.4707 59.9557 86.571 59.8466C86.6714 59.7375 86.7892 59.6808 86.9288 59.6808L86.9245 59.6852ZM84.8868 63.1103C85.1879 62.8136 85.3842 62.6391 85.4715 62.5823C85.5588 62.5256 85.6373 62.4994 85.7071 62.4994C85.7726 62.4994 85.7987 62.5343 85.7987 62.6042C85.7987 62.6652 85.7857 62.7351 85.7638 62.818C85.2446 64.4934 84.9872 65.5493 84.9872 65.9769C84.9872 66.1122 85.0221 66.2169 85.0919 66.2911C85.1617 66.3653 85.2577 66.4045 85.3799 66.4045C85.5195 66.4045 85.694 66.3435 85.9122 66.2213C86.1303 66.0947 86.4751 65.8111 86.9463 65.3661L86.7456 65.1697C86.2918 65.5973 86.0082 65.8111 85.8991 65.8111C85.8729 65.8111 85.8424 65.7937 85.8206 65.7631C85.7944 65.7326 85.7857 65.689 85.7857 65.641C85.7857 65.3923 85.9689 64.6505 86.3354 63.4288C86.5579 62.6783 86.6714 62.2551 86.6714 62.1547C86.6714 62.0718 86.6452 62.0064 86.5841 61.9584C86.5274 61.9104 86.4401 61.8842 86.3311 61.8842C86.1304 61.8842 85.886 61.9671 85.6024 62.1242C85.3188 62.2856 85.0046 62.5518 84.6599 62.9314L84.8868 63.1059V63.1103ZM90.7903 61.8231L91.1306 61.749L90.7423 63.0579C90.5896 63.5772 90.4412 64.1793 90.3016 64.8556C90.2274 65.2265 90.1882 65.4621 90.1882 65.5712C90.1882 65.6802 90.2318 65.7326 90.3191 65.7326C90.3758 65.7326 90.4631 65.6977 90.5852 65.6235C90.799 65.4926 91.0041 65.3355 91.2004 65.1479L91.3662 65.3486C90.9735 65.7064 90.7205 65.9246 90.6114 66.0031C90.3889 66.1515 90.1794 66.2649 89.9831 66.3391C89.8522 66.3871 89.7257 66.4133 89.5991 66.4133C89.5075 66.4133 89.4421 66.3914 89.3984 66.3522C89.3504 66.3085 89.333 66.2518 89.333 66.1689C89.333 66.1166 89.3461 66.0468 89.3722 65.9551L89.5773 65.2526C89.2806 65.6061 88.9272 65.9115 88.517 66.1689C88.264 66.326 88.0327 66.4089 87.8233 66.4089C87.6139 66.4089 87.4699 66.3391 87.3608 66.1951C87.2168 66.0031 87.1426 65.7588 87.1426 65.449C87.1426 65.0825 87.243 64.6767 87.435 64.2273C87.6313 63.7779 87.8887 63.3721 88.2203 63.0056C88.5476 62.6391 88.8923 62.3729 89.2544 62.1984C89.5337 62.0675 89.8915 62.002 90.3278 62.002C90.4369 62.002 90.5503 62.0108 90.6638 62.0238L90.7859 61.8188L90.7903 61.8231ZM90.1489 62.6172C89.9613 62.578 89.8042 62.5605 89.6777 62.5605C89.3679 62.5605 89.0974 62.6478 88.8661 62.818C88.6348 62.9881 88.4211 63.2979 88.2203 63.7386C88.024 64.1836 87.9236 64.6243 87.9236 65.065C87.9236 65.3006 87.9629 65.4708 88.0415 65.5712C88.12 65.6759 88.2247 65.7282 88.3512 65.7282C88.5912 65.7282 88.8443 65.6017 89.1192 65.3443C89.3897 65.0868 89.5904 64.716 89.7169 64.236L90.1489 62.6216V62.6172ZM95.8647 65.1654L96 65.3574C95.6859 65.7108 95.3586 65.99 95.0226 66.1951C94.7957 66.3347 94.6081 66.4089 94.4554 66.4089C94.3376 66.4089 94.2373 66.3609 94.1631 66.2649C94.0889 66.1689 94.054 66.0162 94.054 65.8155C94.054 65.6759 94.0802 65.4752 94.1369 65.2134C94.1936 64.9472 94.3551 64.3844 94.6212 63.5117C94.739 63.0841 94.7957 62.8354 94.7957 62.7612C94.7957 62.6434 94.739 62.5867 94.6212 62.5867C94.4772 62.5867 94.2983 62.6609 94.0802 62.8049C93.7747 63.0056 93.5042 63.2586 93.273 63.5728C93.1246 63.7735 93.0025 64.0702 92.9152 64.4629L92.5007 66.2606H91.7284C91.8942 65.6584 92.0251 65.1654 92.1124 64.7814L92.8716 61.461C93.0112 60.8501 93.1901 60.3833 93.417 60.0517C93.6438 59.7201 93.9362 59.4583 94.3027 59.2619C94.6648 59.0656 95.027 58.9652 95.3804 58.9652C95.5288 58.9652 95.6466 59.0001 95.7338 59.0743C95.8211 59.1485 95.8647 59.2357 95.8647 59.3492C95.8647 59.4408 95.8211 59.5237 95.7382 59.5935C95.6553 59.6633 95.5375 59.6982 95.3935 59.6982C95.3106 59.6982 95.2015 59.6895 95.0706 59.6721C94.7739 59.6284 94.5689 59.6066 94.4554 59.6066C94.2983 59.6066 94.1674 59.6721 94.0671 59.7986C93.9667 59.9251 93.862 60.2262 93.7573 60.6974L93.177 63.2543C93.5871 62.8223 94.0322 62.4602 94.5165 62.1635C94.8001 61.9889 95.027 61.8973 95.1972 61.8973C95.3324 61.8973 95.4371 61.9366 95.5113 62.0195C95.5855 62.1024 95.6248 62.2158 95.6248 62.3598C95.6248 62.4776 95.6117 62.5954 95.5855 62.7132C95.5419 62.9183 95.4371 63.2848 95.2713 63.8215C95.0488 64.5589 94.9179 65.017 94.8743 65.1959C94.835 65.3748 94.8176 65.5363 94.8176 65.6759C94.8176 65.7326 94.8263 65.7719 94.8437 65.798C94.8612 65.8242 94.8917 65.8417 94.9266 65.8417C95.0095 65.8417 95.1666 65.7413 95.3935 65.545C95.5201 65.4359 95.6771 65.3094 95.856 65.161L95.8647 65.1654Z" fill="#0B6E45"/>
</g>
<rect x="1" y="1" width="110" height="110" rx="9" stroke="#CCCCCC" stroke-width="2"/>
<defs>
<clipPath id="clip0_642_1034">
<rect x="2" y="2" width="108" height="108" rx="8" fill="white"/>
</clipPath>
</defs>
</svg>
