<svg width="113" height="112" viewBox="0 0 113 112" fill="none" xmlns="http://www.w3.org/2000/svg">
<g clip-path="url(#clip0_517_510)">
<rect x="2.5" y="2" width="108" height="108" rx="8" fill="white"/>
<path fill-rule="evenodd" clip-rule="evenodd" d="M52.0752 59.8782C54.1786 60.3105 56.2071 59.8333 58.1777 58.6366L51.7075 64.9346L49.3346 62.5589L52.0752 59.8782Z" fill="#C13439"/>
<path fill-rule="evenodd" clip-rule="evenodd" d="M58.6446 61.0207L53.1157 66.4223L52.0556 65.3603L58.1299 59.3832C61.2963 56.5023 61.853 53.4445 61.1007 50.2988C62.508 54.3858 62.6006 56.0335 60.7732 58.5626C60.1248 59.4609 59.4343 60.2497 58.6446 61.0207Z" fill="#EC9033"/>
<path fill-rule="evenodd" clip-rule="evenodd" d="M59.6803 62.164L54.1168 67.4684L53.4441 66.7685L59.5278 60.7774C62.5566 57.7542 63.1461 56.0373 62.4125 52.6239C63.5447 55.7706 63.3781 57.6728 61.8399 59.7921C61.1952 60.681 60.4691 61.4127 59.6803 62.164Z" fill="#DABD29"/>
<path fill-rule="evenodd" clip-rule="evenodd" d="M58.2928 47.0698C60.7377 49.9629 59.6495 54.776 55.2144 55.8408C56.573 55.1615 57.3449 54.121 57.6237 53.0207C58.1328 51.008 57.0287 48.9898 55.0778 48.318C53.9503 47.9287 52.6544 48.0139 51.6102 48.6267C50.0195 49.5605 49.2813 51.5545 49.8034 53.3313C50.4359 55.4871 52.5571 56.55 54.6895 56.4658C58.5912 56.3105 61.2504 52.244 59.8516 48.5369C63.089 54.6562 57.4684 60.4359 52.0696 59.0857C48.6366 58.2277 46.1449 54.6759 46.5295 51.1615C46.8139 48.5715 48.6301 46.4298 51.0291 45.5007C53.5508 44.5229 56.4953 44.9421 58.2928 47.0698Z" fill="#C13439"/>
<path fill-rule="evenodd" clip-rule="evenodd" d="M65.1063 51.5516C65.9288 51.6939 66.7456 51.7378 67.5494 51.5619C67.4502 52.8429 67.3996 54.2062 67.3819 55.6237C67.3688 56.7016 67.5007 57.8188 67.3903 58.9397C67.3211 59.5376 67.1292 59.9961 66.8439 60.3507C66.303 61.0207 65.4768 61.438 64.413 61.4773L64.1332 60.579C64.8106 60.5435 65.1596 60.1739 65.1363 59.4244C65.1952 56.8298 65.2747 54.1762 65.1063 51.5516ZM93.94 51.6162C94.8223 51.764 95.6775 51.7753 96.5 51.6115C96.1791 54.5037 96.2268 57.2967 96.4888 60.0298C95.5915 59.9166 94.7353 59.9306 93.9044 60.0223C94.1627 57.2134 94.1449 54.412 93.94 51.6162ZM87.5288 51.6312C88.7508 51.7472 89.9119 51.6443 91.104 51.6508C92.5608 51.7154 93.3028 52.5509 93.3851 53.4623C93.4563 54.238 93.0726 55.0716 92.0106 55.518C93.2158 55.8745 93.7538 56.9439 93.5377 57.9797C93.3346 58.9556 92.6263 59.8988 90.7961 59.9933C89.6836 60.0691 89.2317 59.8623 87.4595 60.0129C87.6944 57.234 87.6644 54.4363 87.5288 51.6312ZM89.751 52.7325C89.7351 53.5203 89.7145 54.3109 89.7182 55.0997C90.7793 55.14 91.1994 54.5159 91.2003 53.8777C91.2003 53.569 91.1414 53.2424 90.9365 53.0169C90.7026 52.7596 90.2881 52.6295 89.751 52.7325ZM89.7154 56.1898C89.6986 56.9776 89.7145 58.1173 89.7182 58.9051C90.5828 59.0127 90.8364 58.7376 91.0394 58.4345C91.2518 58.1163 91.293 57.7776 91.2939 57.4511C91.2939 57.1423 91.1685 56.7755 90.9646 56.5509C90.7297 56.2927 90.2525 56.0859 89.7154 56.1898ZM77.9194 51.6256C78.3461 51.735 78.7737 51.7715 79.2003 51.6031C80.0303 53.4136 80.9314 55.1802 81.867 56.9252C82.8018 55.1821 83.714 53.4193 84.5758 51.6097C85.0015 51.7145 85.4413 51.7313 85.9007 51.6115C86.1851 54.4476 86.537 57.249 86.9618 60.0129C86.1636 59.9147 85.3655 59.9053 84.5674 60.0064L84.1444 55.1839C83.308 56.768 82.4696 58.3643 81.7201 60.0083L81.0043 60.0111L78.6015 55.2869C78.4144 56.8597 78.2759 58.4541 78.1852 60.07C77.6752 59.9147 77.1615 59.9091 76.645 60.0447C76.6647 59.8688 76.6553 59.7201 76.6544 59.5423C77.2064 57.0338 77.5564 54.3231 77.9194 51.6256ZM71.3837 51.5526C71.7861 51.6714 72.1884 51.6873 72.5908 51.5619C73.7501 54.324 74.9374 57.0366 76.1894 59.6274L76.1753 60.0157C75.3323 59.9175 74.4958 59.9212 73.6659 60.0345C73.4207 59.2111 73.1372 58.4083 72.7994 57.6316C71.9302 57.5839 71.0469 57.5783 70.1505 57.6092C69.8174 58.3577 69.5152 59.1568 69.2607 60.0382C68.7695 59.8969 68.252 59.91 67.714 60.0541L67.7253 59.6349C69.0109 56.9514 70.2712 54.2632 71.3837 51.5526ZM71.4913 54.528L72.3447 56.5191L70.6174 56.5145L71.4913 54.528Z" fill="#332C2B"/>
<path fill-rule="evenodd" clip-rule="evenodd" d="M16.5 51.9736H19.2658C20.9697 51.9886 21.3945 52.783 21.4226 53.6054C21.4497 54.3895 20.9295 55.1933 19.5784 55.6256C21.2298 55.7631 21.8212 56.7212 21.6902 57.7467C21.5676 58.7123 20.7611 59.8847 18.4715 59.8043H16.5C16.6095 57.1881 16.6291 54.5767 16.5 51.9736ZM38.8382 51.9989C39.2022 52.0766 39.5653 52.0738 39.9292 51.9989L39.8787 55.4001C39.8871 55.5732 39.8899 55.6639 39.9882 55.6433C40.9332 54.9229 42.2544 53.4539 43.6429 51.9989C43.9564 52.0335 44.268 52.0298 44.5786 51.9989L40.966 55.5114L44.7442 59.7622L44.7451 59.8286C44.2848 59.7491 43.8759 59.7743 43.482 59.8267C42.3798 58.485 41.2607 57.1647 40.0995 55.896C40.0275 55.8651 39.9545 55.8529 39.8806 55.8651C39.8806 57.1825 39.86 58.4971 39.948 59.8286C39.5858 59.7968 39.2172 59.7912 38.8382 59.8221C39.0216 57.1657 39.0057 54.5626 38.8382 51.9989ZM30.8495 51.8249H31.0432L36.8827 57.9329C36.9594 55.9764 36.9416 53.9881 36.8799 51.9849C37.1437 52.0504 37.4095 52.0616 37.6771 51.9914C37.6219 52.4246 37.6135 52.8934 37.5863 53.3444C37.4544 55.5367 37.3945 57.7421 37.4778 59.9727L37.3327 59.9699L31.4081 53.6522C31.3809 55.4076 31.3594 57.2125 31.4184 58.8864C31.4296 59.227 31.4549 59.5011 31.4726 59.837C31.2275 59.7865 30.9636 59.7856 30.6782 59.8408C30.827 57.1769 30.8598 54.5028 30.8495 51.8249ZM26.0092 51.8352H26.2301L29.7519 59.8342C29.3271 59.7556 28.9295 59.7715 28.544 59.8324C28.1735 58.7647 27.7702 57.7355 27.3201 56.7605C26.3367 56.724 25.344 56.7222 24.3409 56.7577C23.9339 57.729 23.5437 58.747 23.176 59.8249C22.9215 59.7781 22.6408 59.779 22.3395 59.8193L26.0092 51.8352ZM24.5374 56.274L25.8333 53.3294L27.1395 56.289C26.2974 56.259 25.4329 56.2506 24.5374 56.274ZM17.5405 52.4218C19.5185 52.2796 20.3915 52.5145 20.4008 53.9385C20.3419 54.5879 20.049 54.9594 19.5306 55.227C19.263 55.3654 18.9608 55.4141 18.6277 55.4347C18.289 55.4553 17.9194 55.5011 17.5208 55.4721L17.5405 52.4218ZM17.5115 55.8894C18.9627 55.8249 19.7225 55.9559 20.1519 56.3704C20.7816 56.9795 20.7349 58.0611 20.2249 58.7292C19.9742 59.0567 19.6167 59.2597 19.1536 59.3533C18.7129 59.4422 18.1674 59.372 17.548 59.3327L17.5115 55.8894Z" fill="#332C2B"/>
</g>
<rect x="1.5" y="1" width="110" height="110" rx="9" stroke="#CCCCCC" stroke-width="2"/>
<defs>
<clipPath id="clip0_517_510">
<rect x="2.5" y="2" width="108" height="108" rx="8" fill="white"/>
</clipPath>
</defs>
</svg>
