<svg width="112" height="112" viewBox="0 0 112 112" fill="none" xmlns="http://www.w3.org/2000/svg">
<g clip-path="url(#clip0_642_1035)">
<rect x="2" y="2" width="108" height="108" rx="8" fill="white"/>
<path fill-rule="evenodd" clip-rule="evenodd" d="M21.3052 48.6027C18.1118 48.9044 17.7239 51.0118 17.1637 52.0375C16.8103 51.7531 16.6293 51.6841 16.2716 51.404C16.4957 50.6584 17.1723 49.5552 17.711 48.926C18.978 47.5555 20.3787 47.9951 21.8698 47.2538C22.7834 46.6634 23.0162 45.8359 23.3222 44.9999C23.8005 45.0861 23.9212 45.1895 24.2961 45.3748C24.0074 46.8272 23.0722 48.2537 21.3052 48.6027ZM22.5119 50.2404C24.2789 49.8913 25.2141 48.4605 25.5028 47.0125C25.1279 46.8272 25.0072 46.7237 24.5289 46.6375C24.2229 47.4736 23.9901 48.3054 23.0765 48.8915C21.5854 49.6328 20.1847 49.1932 18.9177 50.5636C18.3747 51.1928 17.6981 52.2961 17.4783 53.0417C17.8317 53.3261 18.0127 53.3951 18.3704 53.6752C18.9306 52.6452 19.3185 50.5378 22.5119 50.2404ZM23.6842 51.8479C25.4511 51.4988 26.3863 50.068 26.6751 48.62C26.3001 48.4347 26.1795 48.3312 25.7011 48.245C25.3951 49.0811 25.1624 49.9129 24.2487 50.499C22.7576 51.2403 21.357 50.8007 20.0899 52.1711C19.5469 52.8003 18.8703 53.9036 18.6505 54.6492C19.0039 54.9336 19.1849 55.0026 19.5426 55.2827C20.1028 54.2527 20.4907 52.1453 23.6842 51.8479ZM24.9469 53.3261C26.7138 52.977 27.649 51.5462 27.9378 50.0982C27.5628 49.9129 27.4422 49.8094 26.9638 49.7233C26.6578 50.5593 26.4251 51.3911 25.5115 51.9772C24.0203 52.7185 22.6197 52.2789 21.3526 53.6493C20.8096 54.2786 20.133 55.3818 19.9132 56.1274C20.2666 56.4118 20.4476 56.4808 20.8053 56.7609C21.3656 55.7309 21.7534 53.6235 24.9469 53.3261ZM21.0768 58.3555C17.8791 58.6054 17.4567 60.7042 16.8792 61.7256C16.5301 61.4369 16.3491 61.3636 16.0001 61.0749C16.2328 60.3336 16.9266 59.239 17.4783 58.6184C18.7669 57.2694 20.1632 57.7306 21.6629 57.0109C22.5852 56.4377 22.8309 55.6102 23.1498 54.7785C23.6281 54.8733 23.7445 54.9767 24.1151 55.1663C23.8048 56.6144 22.8481 58.0279 21.0768 58.3469V58.3555ZM22.2577 60.0104C19.0599 60.2603 18.6376 62.3591 18.0601 63.3805C17.711 63.0918 17.53 63.0185 17.1809 62.7298C17.4136 61.9885 18.1075 60.8939 18.6591 60.2733C19.9477 58.9244 21.344 59.3855 22.8438 58.6658C23.766 58.0926 24.0117 57.2651 24.3306 56.4334C24.809 56.5282 24.9253 56.6316 25.296 56.8212C24.9857 58.2693 24.0289 59.6829 22.2577 60.0061V60.0104ZM23.4083 61.6394C25.1796 61.3162 26.1364 59.9026 26.4466 58.4589C26.076 58.2693 25.9553 58.1659 25.4813 58.071C25.1624 58.9028 24.9167 59.7303 23.9945 60.3034C22.4947 61.0188 21.0984 60.5577 19.8098 61.9109C19.2582 62.5315 18.5643 63.6262 18.3316 64.3674C18.6807 64.6562 18.8617 64.7295 19.2151 65.0182C19.7926 63.9968 20.2106 61.898 23.4127 61.6481L23.4083 61.6394ZM24.6452 63.1392C26.4165 62.816 27.3732 61.4024 27.6878 59.9587C27.3172 59.769 27.2008 59.6656 26.7225 59.5708C26.4036 60.4026 26.1579 61.23 25.2356 61.8032C23.7359 62.5186 22.3396 62.0575 21.051 63.4107C20.4993 64.0313 19.8055 65.1259 19.5728 65.8672C19.9218 66.1559 20.1028 66.2292 20.4519 66.518C21.0294 65.4966 21.4475 63.3978 24.6495 63.1478L24.6452 63.1392ZM36.8631 48.9604C36.8631 49.163 36.8372 49.3526 36.7812 49.5336C36.7295 49.7146 36.6519 49.8784 36.5571 50.0292C36.458 50.1801 36.3416 50.3137 36.1994 50.43C36.0615 50.5464 35.902 50.6412 35.7253 50.7188C35.8589 50.7446 35.9839 50.792 36.1046 50.861C36.2209 50.93 36.3244 51.0162 36.4062 51.1196C36.4881 51.223 36.5571 51.348 36.6002 51.4859C36.6476 51.6281 36.6691 51.7833 36.6691 51.9557C36.6691 52.128 36.6476 52.309 36.6002 52.4814C36.5571 52.6581 36.4838 52.8262 36.3933 52.9857C36.2985 53.1451 36.1865 53.296 36.0485 53.4339C35.9106 53.5718 35.7512 53.6924 35.5659 53.7916C35.3805 53.895 35.1737 53.9726 34.9453 54.0286C34.7169 54.0846 34.454 54.1148 34.1523 54.1148H32.4802C32.3724 54.1148 32.2905 54.0889 32.2388 54.0329C32.1871 53.9769 32.1742 53.8907 32.2043 53.7657L33.3205 48.0468C33.3421 47.9175 33.3938 47.827 33.4757 47.7753C33.5576 47.7236 33.6438 47.6977 33.73 47.6977H35.0875C35.4064 47.6977 35.6736 47.7236 35.8891 47.7796C36.1046 47.8356 36.2856 47.9132 36.4278 48.0209C36.5743 48.1287 36.6778 48.258 36.751 48.4131C36.8243 48.5683 36.8588 48.745 36.8588 48.9475L36.8631 48.9604ZM35.9753 49.1156C35.9753 49.0079 35.958 48.9087 35.9236 48.8225C35.8891 48.7363 35.8288 48.6631 35.7512 48.5984C35.6736 48.5381 35.5702 48.4907 35.4495 48.4562C35.3288 48.4217 35.1694 48.4045 34.9711 48.4045H34.0877L33.6912 50.4818H34.635C34.8892 50.4818 35.1004 50.4387 35.2642 50.3525C35.428 50.2663 35.5616 50.1585 35.6693 50.0249C35.7727 49.8913 35.8503 49.7448 35.902 49.581C35.9537 49.4173 35.9753 49.2621 35.9753 49.1156ZM35.7857 52.0246C35.7857 51.7488 35.6908 51.5376 35.5012 51.3868C35.3116 51.2359 35.0185 51.1627 34.6177 51.1627H33.5489L33.1094 53.4252H34.2816C34.5488 53.4252 34.7729 53.3865 34.9539 53.3089C35.1349 53.2313 35.29 53.1279 35.415 53.0029C35.54 52.8779 35.6305 52.7271 35.6952 52.559C35.7598 52.3909 35.7943 52.2142 35.7943 52.0289L35.7857 52.0246ZM42.2286 53.8217L41.2848 47.8658C41.2761 47.8313 41.2675 47.8012 41.2503 47.7753C41.2331 47.7537 41.2072 47.7322 41.1641 47.7193C41.1253 47.7063 41.0693 47.6977 41.0046 47.6891C40.94 47.6848 40.8538 47.6805 40.7461 47.6805C40.6512 47.6805 40.5737 47.6805 40.509 47.6891C40.4444 47.6934 40.3884 47.7063 40.3496 47.7193C40.3065 47.7322 40.272 47.7494 40.2461 47.7753C40.2203 47.7968 40.1944 47.827 40.1729 47.8658L36.8975 53.8217C36.8631 53.895 36.8415 53.951 36.8286 53.9984C36.82 54.0415 36.8286 54.076 36.8501 54.1019C36.8717 54.1234 36.9148 54.1406 36.9708 54.1493C37.0268 54.1579 37.1044 54.1622 37.2035 54.1622C37.2897 54.1622 37.3673 54.1622 37.4276 54.1536C37.488 54.1493 37.5354 54.1363 37.5742 54.1234C37.6129 54.1105 37.6431 54.0932 37.6604 54.0717C37.6819 54.0501 37.6991 54.0243 37.7164 53.9898L38.5352 52.4426H41.1598L41.3882 54.0027C41.3882 54.0329 41.4011 54.0588 41.4141 54.076C41.427 54.0976 41.4485 54.1105 41.4744 54.1234C41.5002 54.1363 41.539 54.145 41.5908 54.1493C41.6425 54.1536 41.7071 54.1579 41.7761 54.1579C41.8838 54.1579 41.9743 54.1579 42.039 54.1493C42.1036 54.1406 42.151 54.1277 42.1812 54.1062C42.2113 54.0846 42.2329 54.0501 42.2372 54.0027C42.2415 53.9553 42.2372 53.8993 42.2286 53.826V53.8217ZM40.5909 48.564L41.0607 51.7574H38.8972L40.5909 48.564ZM48.0337 53.77C48.0251 53.8347 48.0035 53.8907 47.9777 53.9381C47.9475 53.9855 47.913 54.02 47.8785 54.0501C47.8397 54.0803 47.801 54.1019 47.7579 54.1148C47.7148 54.1277 47.6717 54.132 47.6329 54.132H47.3183C47.2321 54.132 47.1631 54.1234 47.1028 54.1019C47.0468 54.0803 46.995 54.0458 46.9476 53.9984C46.9045 53.951 46.8658 53.8864 46.8313 53.8131C46.7968 53.7355 46.758 53.6407 46.7235 53.5244L45.5427 50.1068C45.4608 49.8612 45.3832 49.6198 45.3014 49.3742C45.2195 49.1328 45.1462 48.8872 45.0686 48.6458H45.0557C45.0126 48.9174 44.9695 49.1845 44.9178 49.4517C44.8704 49.7189 44.8187 49.9861 44.767 50.2533L44.0386 53.9898C44.0343 54.0157 44.0214 54.0415 44.0042 54.0588C43.9869 54.0803 43.9611 54.0932 43.9266 54.1062C43.8921 54.1191 43.849 54.1277 43.7973 54.1363C43.7413 54.145 43.6809 54.1493 43.6034 54.1493C43.5258 54.1493 43.4654 54.1493 43.4137 54.1363C43.362 54.1277 43.3275 54.1191 43.2974 54.1062C43.2715 54.0932 43.2543 54.0803 43.2457 54.0588C43.237 54.0415 43.237 54.0157 43.2457 53.9898L44.4006 48.077C44.4265 47.9434 44.4825 47.8486 44.5644 47.7968C44.6463 47.7408 44.7325 47.7107 44.8187 47.7107H45.2022C45.2798 47.7107 45.3488 47.7193 45.4048 47.7365C45.4608 47.7537 45.5125 47.7839 45.5556 47.8227C45.5987 47.8658 45.6332 47.9218 45.6677 47.9908C45.7022 48.0597 45.7366 48.1459 45.7754 48.2494L46.9692 51.7143C47.0425 51.9298 47.12 52.1453 47.1933 52.3565C47.2666 52.5719 47.3398 52.7874 47.4088 53.0072H47.4174C47.4605 52.7357 47.5122 52.4556 47.5639 52.1668C47.6199 51.8781 47.6717 51.5936 47.7234 51.3264L48.4129 47.8529C48.4215 47.827 48.4302 47.8055 48.4474 47.7882C48.4646 47.771 48.4862 47.7537 48.5207 47.7408C48.5551 47.7279 48.5939 47.7193 48.6456 47.7107C48.6974 47.702 48.762 47.702 48.8353 47.702C48.9085 47.702 48.9732 47.702 49.0249 47.7107C49.0766 47.715 49.1154 47.7279 49.1413 47.7408C49.1714 47.7537 49.1887 47.7667 49.1973 47.7882C49.2059 47.8055 49.2102 47.827 49.2059 47.8529L48.0337 53.7743V53.77ZM54.8559 47.8442C54.8559 47.8873 54.8386 47.9304 54.8041 47.9822C54.7697 48.0296 54.7179 48.0899 54.6447 48.1589L52.0287 50.7533L53.6836 53.7399C53.7138 53.7959 53.7353 53.839 53.744 53.8734C53.7569 53.9079 53.7612 53.9381 53.7612 53.9639C53.7612 53.9941 53.7526 54.02 53.7396 54.0415C53.7267 54.0631 53.7052 54.0846 53.675 54.0975C53.6448 54.1105 53.6017 54.1191 53.5414 54.1277C53.4854 54.1363 53.4121 54.1406 53.3216 54.1406C53.2311 54.1406 53.1578 54.1406 53.1061 54.132C53.0501 54.1234 53.007 54.1148 52.9725 54.1062C52.9381 54.0932 52.9122 54.076 52.895 54.0588C52.8777 54.0372 52.8648 54.0114 52.8519 53.9812L51.1237 50.7834L50.5031 53.9898C50.5031 54.0157 50.4902 54.0415 50.4729 54.0588C50.4557 54.0803 50.4298 54.0932 50.3911 54.1062C50.3566 54.1191 50.3092 54.1277 50.2531 54.1363C50.1971 54.145 50.1325 54.1493 50.0549 54.1493C49.9773 54.1493 49.9084 54.1493 49.8523 54.1363C49.8006 54.1277 49.7575 54.1191 49.7274 54.1062C49.6972 54.0932 49.68 54.0803 49.6713 54.0588C49.6627 54.0415 49.6584 54.0157 49.667 53.9898L50.8737 47.8313C50.8737 47.8098 50.8867 47.7839 50.9082 47.7667C50.9254 47.7451 50.9556 47.7322 50.9901 47.7193C51.0246 47.7063 51.072 47.6977 51.128 47.6891C51.184 47.6805 51.2487 47.6762 51.3262 47.6762C51.4038 47.6762 51.4685 47.6762 51.5245 47.6891C51.5762 47.6977 51.6193 47.7063 51.6495 47.7193C51.6796 47.7322 51.6969 47.7451 51.7055 47.7667C51.7141 47.7839 51.7184 47.8055 51.7141 47.8313L51.1539 50.6843L53.9077 47.8399C53.9336 47.8098 53.9638 47.7839 53.9939 47.7624C54.0241 47.7408 54.0586 47.7236 54.1017 47.715C54.1448 47.702 54.1922 47.6934 54.2482 47.6891C54.3085 47.6805 54.3732 47.6805 54.4507 47.6805C54.5369 47.6805 54.6059 47.6805 54.6576 47.6934C54.7093 47.702 54.7524 47.715 54.7783 47.7236C54.8084 47.7365 54.83 47.7537 54.8386 47.7753C54.8515 47.7925 54.8559 47.8184 54.8559 47.8442ZM37.1691 57.2996C37.1691 57.3298 37.1691 57.3686 37.1604 57.4203C37.1561 57.472 37.1475 57.528 37.1389 57.5927C37.1303 57.6573 37.113 57.7177 37.0958 57.7823C37.0786 57.8469 37.0613 57.9073 37.0355 57.959C37.0139 58.0107 36.9837 58.0581 36.9579 58.0926C36.9277 58.1271 36.8975 58.1443 36.8674 58.1443C36.82 58.1443 36.7596 58.1228 36.6864 58.0797C36.6131 58.0366 36.5226 57.9892 36.4149 57.9374C36.3071 57.8857 36.1821 57.8383 36.0399 57.7952C35.8977 57.7521 35.7383 57.7306 35.5529 57.7306C35.3676 57.7306 35.2082 57.7564 35.0746 57.8082C34.9453 57.8599 34.8375 57.9288 34.7513 58.015C34.6695 58.1012 34.6048 58.196 34.566 58.3038C34.5229 58.4072 34.5057 58.5192 34.5057 58.627C34.5057 58.752 34.5359 58.864 34.6005 58.9588C34.6651 59.0536 34.747 59.1441 34.8505 59.226C34.9539 59.3079 35.0746 59.3898 35.2082 59.4674C35.3418 59.5449 35.4797 59.6225 35.6176 59.7087C35.7555 59.7949 35.8934 59.8854 36.027 59.9845C36.1606 60.0836 36.2813 60.2 36.3847 60.3293C36.4881 60.4629 36.5743 60.6094 36.6347 60.7775C36.6993 60.9456 36.7295 61.1438 36.7295 61.3636C36.7295 61.6911 36.6648 61.9971 36.5312 62.2773C36.3976 62.5574 36.2123 62.7987 35.9667 63.0099C35.721 63.2168 35.428 63.3805 35.0832 63.4969C34.7384 63.6176 34.3549 63.6736 33.9368 63.6736C33.7084 63.6736 33.5015 63.6563 33.3119 63.6176C33.1223 63.5831 32.9499 63.5357 32.8034 63.484C32.6569 63.4322 32.5319 63.3762 32.4327 63.3159C32.3293 63.2599 32.2561 63.2038 32.2086 63.1521C32.1612 63.1004 32.1354 63.0185 32.1354 62.9151C32.1354 62.8892 32.1354 62.8461 32.144 62.7901C32.1526 62.7341 32.1612 62.6737 32.1742 62.6091C32.1871 62.5445 32.2 62.4798 32.2173 62.4109C32.2345 62.3419 32.2561 62.2816 32.2819 62.2255C32.3078 62.1695 32.3336 62.1221 32.3638 62.0876C32.394 62.0532 32.4241 62.0359 32.4586 62.0359C32.5189 62.0359 32.5879 62.0618 32.6698 62.1178C32.7517 62.1695 32.8551 62.2299 32.9758 62.2945C33.0964 62.3591 33.243 62.4195 33.411 62.4755C33.5791 62.5315 33.7774 62.5574 34.0144 62.5574C34.2213 62.5574 34.4023 62.5315 34.5574 62.4798C34.7126 62.4281 34.8418 62.3548 34.9496 62.2686C35.053 62.1781 35.1349 62.0747 35.1866 61.954C35.2426 61.8334 35.2685 61.7041 35.2685 61.5619C35.2685 61.4326 35.2383 61.3205 35.1737 61.2214C35.109 61.1223 35.0272 61.0318 34.9237 60.9499C34.8203 60.868 34.7039 60.7904 34.5746 60.7172C34.4454 60.6439 34.3118 60.5663 34.1738 60.4844C34.0402 60.4026 33.9023 60.3077 33.7731 60.2129C33.6438 60.1181 33.5231 60.0018 33.424 59.8725C33.3205 59.7389 33.2387 59.588 33.174 59.42C33.1094 59.2519 33.0792 59.0493 33.0792 58.8252C33.0792 58.5106 33.1438 58.2219 33.2688 57.959C33.3938 57.6961 33.5705 57.4677 33.7903 57.2781C34.0144 57.0884 34.2816 56.9419 34.5919 56.8342C34.9022 56.7307 35.2426 56.6747 35.6133 56.6747C35.79 56.6747 35.958 56.6876 36.1132 56.7135C36.2683 56.7394 36.4149 56.7738 36.5442 56.8126C36.6734 56.8514 36.7855 56.8945 36.876 56.9462C36.9665 56.9936 37.0311 57.0367 37.0656 57.0712C37.1001 57.1014 37.126 57.1402 37.1432 57.1746C37.1604 57.2134 37.1647 57.2565 37.1647 57.3125L37.1691 57.2996ZM43.4008 61.0533C43.3146 61.4843 43.1767 61.8678 42.9914 62.1911C42.8061 62.5186 42.5777 62.7901 42.3018 63.0099C42.026 63.2297 41.7114 63.3935 41.3537 63.5055C40.996 63.6132 40.5995 63.6693 40.1686 63.6693C39.7074 63.6693 39.3109 63.6133 38.9834 63.5012C38.6516 63.3848 38.393 63.2168 38.1991 62.997C38.0051 62.7729 37.8845 62.4927 37.8284 62.1566C37.7724 61.8204 37.7896 61.4283 37.8801 60.9844L38.686 56.9635C38.6947 56.929 38.7076 56.8988 38.7378 56.8687C38.7636 56.8428 38.8067 56.8169 38.8627 56.7997C38.9188 56.7825 38.9963 56.7695 39.0825 56.7566C39.173 56.748 39.2851 56.7394 39.423 56.7394C39.5523 56.7394 39.6643 56.7437 39.7462 56.7566C39.8324 56.7652 39.9014 56.7781 39.9488 56.7997C39.9962 56.8169 40.0307 56.8428 40.0436 56.8687C40.0565 56.8988 40.0651 56.929 40.0565 56.9635L39.2506 60.9844C39.1946 61.2559 39.1773 61.4843 39.2032 61.6825C39.2291 61.8808 39.2894 62.0402 39.3799 62.1695C39.4747 62.2945 39.5997 62.3893 39.7548 62.454C39.91 62.5143 40.0996 62.5445 40.3194 62.5445C40.5392 62.5445 40.7461 62.51 40.9357 62.441C41.1253 62.3721 41.2934 62.2729 41.4399 62.1393C41.5864 62.0101 41.7114 61.8463 41.8149 61.6567C41.9183 61.467 41.9915 61.2516 42.0433 61.0102L42.8578 56.9592C42.8664 56.9247 42.8793 56.8945 42.9095 56.8643C42.9354 56.8385 42.9741 56.8126 43.0302 56.7954C43.0819 56.7782 43.1552 56.7652 43.25 56.7523C43.3405 56.7437 43.4525 56.7351 43.5861 56.7351C43.7197 56.7351 43.8275 56.7394 43.9093 56.7523C43.9912 56.7609 44.0559 56.7738 44.1076 56.7954C44.155 56.8126 44.1895 56.8385 44.2024 56.8643C44.2196 56.8945 44.2239 56.9247 44.2153 56.9592L43.3965 61.0447L43.4008 61.0533ZM52.3088 63.3719C52.3002 63.4064 52.283 63.4366 52.2614 63.4667C52.2399 63.4926 52.2054 63.5184 52.1537 63.5357C52.102 63.5529 52.033 63.5658 51.9468 63.5745C51.8606 63.5831 51.7529 63.5874 51.6236 63.5874C51.4943 63.5874 51.378 63.5874 51.2961 63.5745C51.2142 63.5658 51.1496 63.5529 51.1021 63.5357C51.059 63.5184 51.0289 63.4926 51.0159 63.4667C51.003 63.4366 51.003 63.4064 51.0073 63.3719L52.1063 57.8599H52.0977L49.0249 63.3676C48.9818 63.4538 48.8999 63.5141 48.7836 63.5443C48.6629 63.5745 48.4905 63.5874 48.2707 63.5874C48.0509 63.5874 47.8828 63.5658 47.7794 63.5271C47.6803 63.4883 47.6286 63.4366 47.6243 63.3805L46.8313 57.8556H46.8227L45.7194 63.3719C45.7108 63.4064 45.6978 63.4366 45.6763 63.4667C45.6547 63.4926 45.616 63.5184 45.5642 63.5357C45.5125 63.5529 45.4479 63.5658 45.3617 63.5745C45.2755 63.5831 45.1678 63.5874 45.0342 63.5874C44.9006 63.5874 44.7928 63.5874 44.7109 63.5745C44.6291 63.5658 44.5644 63.5529 44.517 63.5357C44.4696 63.5184 44.4437 63.4926 44.4265 63.4667C44.4136 63.4366 44.4093 63.4064 44.4222 63.3719L45.6246 57.3341C45.6418 57.2479 45.6677 57.166 45.7065 57.0971C45.7453 57.0281 45.7883 56.9678 45.8444 56.9204C45.8961 56.873 45.9607 56.8385 46.0297 56.8126C46.0986 56.7868 46.1762 56.7738 46.2538 56.7738H47.1114C47.2666 56.7738 47.3958 56.7868 47.5036 56.8126C47.6113 56.8385 47.7018 56.8859 47.7708 56.9462C47.8397 57.0109 47.8958 57.0928 47.9302 57.1919C47.9647 57.2953 47.9906 57.416 48.0035 57.5582L48.6586 61.5877H48.6844L51.0073 57.5582C51.0763 57.4203 51.1452 57.3039 51.2142 57.2048C51.2831 57.1057 51.3607 57.0238 51.4469 56.9592C51.5331 56.8945 51.6279 56.8471 51.7314 56.8169C51.8348 56.7868 51.9598 56.7738 52.102 56.7738H53.076C53.1622 56.7738 53.2397 56.7868 53.3001 56.8126C53.3604 56.8342 53.4121 56.873 53.4466 56.9204C53.4854 56.9678 53.5069 57.0238 53.5155 57.0928C53.5242 57.1617 53.5242 57.2393 53.5069 57.3255L52.3045 63.3676L52.3088 63.3719ZM58.5234 57.2996C58.5234 57.2436 58.5147 57.1962 58.5018 57.1617C58.4846 57.1272 58.4587 57.0884 58.4242 57.0583C58.3898 57.0238 58.3251 56.985 58.2346 56.9333C58.1441 56.8816 58.0321 56.8385 57.9028 56.7997C57.7735 56.7566 57.627 56.7264 57.4718 56.7006C57.3167 56.6747 57.1486 56.6618 56.9719 56.6618C56.6013 56.6618 56.2608 56.7135 55.9505 56.8212C55.6402 56.929 55.373 57.0755 55.1489 57.2651C54.9291 57.4548 54.7524 57.6832 54.6274 57.9461C54.5025 58.2133 54.4378 58.502 54.4378 58.8123C54.4378 59.0407 54.468 59.239 54.5326 59.407C54.5973 59.5794 54.6791 59.7303 54.7826 59.8595C54.886 59.9888 55.0024 60.1052 55.1317 60.2C55.261 60.2991 55.3946 60.3896 55.5325 60.4715C55.6704 60.5534 55.804 60.631 55.9333 60.7042C56.0625 60.7775 56.1832 60.8551 56.2823 60.937C56.3858 61.0188 56.4677 61.1093 56.5323 61.2085C56.5926 61.3033 56.6271 61.4196 56.6271 61.5489C56.6271 61.6911 56.6013 61.8204 56.5452 61.9411C56.4935 62.0618 56.4116 62.1652 56.3082 62.2557C56.2048 62.3462 56.0712 62.4152 55.916 62.4669C55.7609 62.5186 55.5799 62.5445 55.373 62.5445C55.1403 62.5445 54.9377 62.5143 54.7697 62.4626C54.6016 62.4065 54.4551 62.3462 54.3344 62.2816C54.2094 62.2169 54.1103 62.1566 54.0284 62.1049C53.9465 62.0488 53.8776 62.023 53.8172 62.023C53.7827 62.023 53.7526 62.0402 53.7224 62.0747C53.6922 62.1092 53.6664 62.1566 53.6405 62.2126C53.619 62.2686 53.5974 62.329 53.5759 62.3979C53.5586 62.4669 53.5457 62.5315 53.5328 62.5962C53.5199 62.6608 53.5112 62.7212 53.5026 62.7772C53.494 62.8332 53.494 62.8763 53.494 62.9022C53.494 63.0056 53.5199 63.0875 53.5673 63.1392C53.6147 63.1909 53.6922 63.2469 53.7914 63.303C53.8905 63.3633 54.0155 63.4193 54.162 63.471C54.3085 63.5227 54.4809 63.5702 54.6705 63.6046C54.8645 63.6434 55.0713 63.6607 55.2954 63.6607C55.7135 63.6607 56.097 63.6003 56.4418 63.484C56.7866 63.3676 57.0796 63.2038 57.3253 62.997C57.5666 62.7901 57.7562 62.5445 57.8898 62.2643C58.0234 61.9842 58.0881 61.6782 58.0881 61.3507C58.0881 61.1309 58.0579 60.937 57.9933 60.7646C57.9329 60.5965 57.8467 60.4457 57.7433 60.3164C57.6399 60.1871 57.5192 60.0707 57.3856 59.9716C57.252 59.8725 57.1141 59.782 56.9762 59.6958C56.8383 59.6096 56.7004 59.532 56.5668 59.4544C56.4332 59.3769 56.3125 59.2993 56.2091 59.2131C56.1056 59.1312 56.0195 59.045 55.9591 58.9459C55.8945 58.8511 55.8643 58.739 55.8643 58.6141C55.8643 58.5063 55.8859 58.3986 55.9246 58.2908C55.9634 58.1831 56.0281 58.0883 56.11 58.0021C56.1918 57.9159 56.2996 57.8469 56.4332 57.7952C56.5625 57.7435 56.7219 57.7177 56.9115 57.7177C57.1012 57.7177 57.2563 57.7392 57.3985 57.7823C57.5408 57.8254 57.6657 57.8728 57.7735 57.9245C57.8769 57.9762 57.9717 58.0236 58.045 58.0667C58.1182 58.1098 58.1786 58.1314 58.226 58.1314C58.2562 58.1314 58.2906 58.1141 58.3165 58.0797C58.3467 58.0452 58.3725 57.9978 58.3941 57.9461C58.4156 57.89 58.4372 57.834 58.4544 57.7694C58.4716 57.7047 58.4846 57.6401 58.4975 57.5797C58.5061 57.5151 58.5147 57.4591 58.5191 57.4074C58.5234 57.3556 58.5277 57.3125 58.5277 57.2867L58.5234 57.2996ZM64.0052 56.9764C64.0052 56.9764 64.0052 57.0324 63.9966 57.0884C63.9923 57.1402 63.9837 57.2005 63.9708 57.2651C63.9621 57.3298 63.9492 57.3987 63.9277 57.4677C63.9104 57.541 63.8889 57.6013 63.863 57.6616C63.8372 57.7177 63.807 57.7651 63.7682 57.8082C63.7294 57.8469 63.6906 57.8642 63.6518 57.8642H61.2341L60.9023 59.5148H62.9537C63.0011 59.5148 63.0356 59.532 63.0571 59.5665C63.0787 59.601 63.0873 59.6484 63.0873 59.713C63.0873 59.7389 63.0873 59.7777 63.0787 59.8251C63.0743 59.8768 63.0657 59.9328 63.0528 59.9975C63.0442 60.0621 63.0312 60.1267 63.0097 60.1914C62.9925 60.256 62.9709 60.3164 62.9451 60.3767C62.9192 60.4327 62.889 60.4758 62.8546 60.5103C62.8201 60.5448 62.7813 60.562 62.7382 60.562H60.6868L60.3032 62.4712H62.7554C62.7985 62.4712 62.8287 62.4884 62.8502 62.5272C62.8718 62.5617 62.8804 62.6177 62.8804 62.6867C62.8804 62.7082 62.8804 62.7513 62.8761 62.803C62.8761 62.8548 62.8675 62.9151 62.8546 62.9797C62.8416 63.0444 62.8287 63.109 62.8115 63.178C62.7942 63.2426 62.7727 63.3073 62.7468 63.3676C62.721 63.4236 62.6908 63.471 62.6563 63.5055C62.6218 63.54 62.583 63.5572 62.5356 63.5572H59.131C59.075 63.5572 59.0233 63.5486 58.9802 63.5357C58.9328 63.5184 58.8983 63.4926 58.8681 63.4581C58.838 63.4193 58.8164 63.3762 58.8078 63.3245C58.7992 63.2685 58.7992 63.2038 58.8121 63.1263L59.9929 57.222C60.0231 57.0669 60.0878 56.9592 60.1826 56.8902C60.2774 56.8212 60.3851 56.7868 60.5015 56.7868H63.8673C63.9578 56.7868 64.0009 56.8514 64.0009 56.985L64.0052 56.9764ZM67.8408 62.622C67.8408 62.6479 67.8408 62.6867 67.8322 62.7384C67.8279 62.7901 67.8193 62.8548 67.8063 62.9237C67.7934 62.9927 67.7762 63.0659 67.7589 63.1392C67.7374 63.2125 67.7158 63.2814 67.69 63.3417C67.6641 63.4021 67.634 63.4538 67.5995 63.4926C67.565 63.5314 67.5262 63.5486 67.4788 63.5486H64.3715C64.3155 63.5486 64.2638 63.54 64.2164 63.5271C64.169 63.5098 64.1302 63.484 64.1 63.4495C64.0699 63.4107 64.0483 63.3676 64.0397 63.3159C64.0311 63.2599 64.0311 63.1952 64.044 63.1176L65.2766 56.9592C65.2766 56.9247 65.2981 56.8945 65.324 56.8643C65.3498 56.8385 65.3929 56.8126 65.4533 56.7954C65.5093 56.7782 65.5869 56.7652 65.6731 56.7566C65.7636 56.748 65.8756 56.7437 66.0135 56.7437C66.1514 56.7437 66.2549 56.7437 66.3411 56.7566C66.4272 56.7652 66.4962 56.7782 66.5436 56.7954C66.591 56.8126 66.6255 56.8385 66.6384 56.8643C66.6514 56.8945 66.66 56.9247 66.6514 56.9592L65.5653 62.4152H67.7072C67.7546 62.4152 67.7891 62.4367 67.8106 62.4712C67.8322 62.51 67.8408 62.5617 67.8408 62.622ZM74.0338 58.1572C74.0338 58.3641 74.0036 58.558 73.9476 58.739C73.8916 58.9244 73.8054 59.0924 73.6976 59.2433C73.5899 59.3941 73.4563 59.5277 73.3011 59.6441C73.146 59.7604 72.9736 59.8552 72.784 59.9242C72.9348 59.95 73.077 60.0018 73.202 60.0707C73.3313 60.1397 73.4391 60.2302 73.5296 60.3379C73.6201 60.4457 73.6933 60.5749 73.7407 60.7258C73.7924 60.8723 73.814 61.0404 73.814 61.2257C73.814 61.3938 73.7924 61.5662 73.745 61.7472C73.7019 61.9239 73.6287 62.1006 73.5296 62.2729C73.4347 62.4453 73.3055 62.6091 73.1503 62.7642C72.9952 62.9194 72.8055 63.0573 72.5857 63.1737C72.3659 63.29 72.1117 63.3848 71.8229 63.4538C71.5342 63.5227 71.198 63.5572 70.8145 63.5572H68.9355C68.7933 63.5572 68.6898 63.5227 68.6252 63.4538C68.5605 63.3848 68.5433 63.2771 68.5735 63.1263L69.7543 57.222C69.7845 57.0669 69.8448 56.9592 69.9396 56.8902C70.0344 56.8212 70.1465 56.7868 70.2715 56.7868H71.9048C72.2625 56.7868 72.5728 56.8169 72.8357 56.8687C73.0986 56.9247 73.3141 57.0066 73.4951 57.1229C73.6718 57.235 73.8054 57.3772 73.8959 57.5496C73.9864 57.722 74.0295 57.9245 74.0295 58.1659L74.0338 58.1572ZM72.6202 58.4158C72.6202 58.3167 72.603 58.2305 72.5685 58.1572C72.534 58.084 72.4823 58.0193 72.4133 57.9676C72.3401 57.9159 72.2539 57.8728 72.1462 57.8469C72.0427 57.8168 71.9048 57.8038 71.741 57.8038H70.9912L70.6421 59.5622H71.4135C71.6419 59.5622 71.8272 59.5277 71.9781 59.4544C72.1289 59.3812 72.2496 59.2907 72.3444 59.1786C72.4392 59.0666 72.5125 58.9416 72.5513 58.8037C72.5944 58.6658 72.6159 58.5365 72.6159 58.4115L72.6202 58.4158ZM72.3832 61.2947C72.3832 61.0706 72.3013 60.8939 72.1332 60.7646C71.9695 60.6353 71.7066 60.5706 71.3446 60.5706H70.4352L70.0474 62.5014H71.0213C71.267 62.5014 71.4782 62.4669 71.6462 62.3979C71.8143 62.329 71.9565 62.2385 72.0643 62.1264C72.1763 62.0144 72.2539 61.8851 72.3056 61.7386C72.3573 61.592 72.3832 61.4455 72.3832 61.2947ZM80.0285 63.0401L79.145 57.0324C79.1364 56.9678 79.1235 56.9161 79.1019 56.8773C79.0804 56.8385 79.0373 56.8126 78.9726 56.7911C78.908 56.7695 78.8132 56.7609 78.6968 56.7523C78.5761 56.748 78.4167 56.7437 78.2141 56.7437C78.0331 56.7437 77.8909 56.7437 77.7789 56.7523C77.6668 56.7566 77.5806 56.7695 77.516 56.7911C77.4513 56.8126 77.3996 56.8385 77.3651 56.873C77.3307 56.9074 77.2962 56.9548 77.2617 57.0152L73.9821 63.0271C73.9174 63.1521 73.87 63.2469 73.8485 63.3202C73.8269 63.3935 73.8312 63.4495 73.8571 63.4883C73.8873 63.5271 73.9476 63.5529 74.0338 63.5615C74.1243 63.5702 74.2493 63.5788 74.4087 63.5788C74.5596 63.5788 74.6845 63.5788 74.7837 63.5702C74.8828 63.5615 74.9604 63.5486 75.0207 63.5357C75.081 63.5184 75.1241 63.4926 75.1543 63.4581C75.1845 63.4279 75.2146 63.3848 75.2362 63.3331L75.9343 62.0058H78.4727L78.658 63.3676C78.658 63.415 78.671 63.4538 78.6882 63.484C78.7054 63.5141 78.7399 63.5357 78.783 63.5486C78.8304 63.5615 78.8951 63.5745 78.9813 63.5788C79.0674 63.5831 79.1752 63.5874 79.3131 63.5874C79.4984 63.5874 79.6449 63.5874 79.7527 63.5745C79.8604 63.5658 79.9337 63.5443 79.9811 63.5055C80.0285 63.4667 80.05 63.4107 80.0544 63.3374C80.0544 63.2642 80.05 63.165 80.0328 63.0401H80.0285ZM77.9685 58.071L78.3564 60.9456H76.4558L77.9642 58.071H77.9685ZM86.424 58.1572C86.424 58.3641 86.3939 58.558 86.3378 58.739C86.2818 58.9244 86.1956 59.0924 86.0879 59.2433C85.9801 59.3941 85.8465 59.5277 85.6914 59.6441C85.5362 59.7604 85.3638 59.8552 85.1742 59.9242C85.3251 59.95 85.4673 60.0018 85.5923 60.0707C85.7215 60.1397 85.8293 60.2302 85.9198 60.3379C86.0103 60.4457 86.0836 60.5749 86.131 60.7258C86.1827 60.8723 86.2042 61.0404 86.2042 61.2257C86.2042 61.3938 86.1827 61.5662 86.1353 61.7472C86.0922 61.9239 86.0189 62.1006 85.9198 62.2729C85.825 62.4453 85.6957 62.6091 85.5405 62.7642C85.3854 62.9194 85.1958 63.0573 84.976 63.1737C84.7562 63.29 84.5019 63.3848 84.2132 63.4538C83.9244 63.5227 83.5883 63.5572 83.2047 63.5572H81.3257C81.1835 63.5572 81.0801 63.5227 81.0154 63.4538C80.9508 63.3848 80.9335 63.2771 80.9637 63.1263L82.1445 57.222C82.1747 57.0669 82.235 56.9592 82.3299 56.8902C82.4247 56.8212 82.5367 56.7868 82.666 56.7868H84.2994C84.6571 56.7868 84.9674 56.8169 85.2302 56.8687C85.4931 56.9247 85.7086 57.0066 85.8896 57.1229C86.0663 57.235 86.1999 57.3772 86.2904 57.5496C86.3809 57.722 86.424 57.9245 86.424 58.1659V58.1572ZM85.0105 58.4158C85.0105 58.3167 84.9932 58.2305 84.9587 58.1572C84.9243 58.084 84.8725 58.0193 84.8036 57.9676C84.7303 57.9159 84.6441 57.8728 84.5364 57.8469C84.433 57.8168 84.2951 57.8038 84.1313 57.8038H83.3814L83.0323 59.5622H83.8038C84.0322 59.5622 84.2175 59.5277 84.3683 59.4544C84.5192 59.3812 84.6398 59.2907 84.7346 59.1786C84.8295 59.0666 84.9027 58.9416 84.9415 58.8037C84.9846 58.6658 85.0061 58.5365 85.0061 58.4115L85.0105 58.4158ZM84.7734 61.2947C84.7734 61.0706 84.6915 60.8939 84.5235 60.7646C84.3597 60.6353 84.0968 60.5706 83.7348 60.5706H82.8255L82.4376 62.5014H83.4073C83.6529 62.5014 83.8641 62.4669 84.0322 62.3979C84.2002 62.329 84.3425 62.2385 84.4502 62.1264C84.5622 62.0144 84.6398 61.8851 84.6915 61.7386C84.7433 61.592 84.7691 61.4455 84.7691 61.2947H84.7734ZM92.1645 56.9764C92.1645 56.9764 92.1645 57.0324 92.1559 57.0884C92.1515 57.1402 92.1429 57.2005 92.13 57.2651C92.1214 57.3298 92.1084 57.3987 92.0869 57.4677C92.0697 57.541 92.0481 57.6013 92.0222 57.6616C91.9964 57.7177 91.9662 57.7651 91.9274 57.8082C91.8887 57.8469 91.8499 57.8642 91.8111 57.8642H89.3934L89.0615 59.5148H91.1129C91.1603 59.5148 91.1948 59.532 91.2163 59.5665C91.2379 59.601 91.2465 59.6484 91.2465 59.713C91.2465 59.7389 91.2465 59.7777 91.2379 59.8251C91.2336 59.8768 91.225 59.9328 91.212 59.9975C91.2034 60.0621 91.1905 60.1267 91.1689 60.1914C91.1517 60.256 91.1302 60.3164 91.1043 60.3767C91.0784 60.4327 91.0483 60.4758 91.0138 60.5103C90.9793 60.5448 90.9405 60.562 90.8974 60.562H88.846L88.4625 62.4712H90.9147C90.9578 62.4712 90.9879 62.4884 91.0095 62.5272C91.031 62.5617 91.0396 62.6177 91.0396 62.6867C91.0396 62.7082 91.0396 62.7513 91.0353 62.803C91.0353 62.8548 91.0267 62.9151 91.0138 62.9797C91.0009 63.0444 90.9879 63.109 90.9707 63.178C90.9535 63.2426 90.9319 63.3073 90.9061 63.3676C90.8802 63.4236 90.85 63.471 90.8156 63.5055C90.7811 63.54 90.7423 63.5572 90.6949 63.5572H87.2903C87.2342 63.5572 87.1825 63.5486 87.1394 63.5357C87.092 63.5184 87.0575 63.4926 87.0274 63.4581C86.9972 63.4193 86.9757 63.3762 86.967 63.3245C86.9584 63.2685 86.9584 63.2038 86.9713 63.1263L88.1522 57.222C88.1824 57.0669 88.247 56.9592 88.3418 56.8902C88.4366 56.8212 88.5444 56.7868 88.6607 56.7868H92.0266C92.1171 56.7868 92.1602 56.8514 92.1602 56.985L92.1645 56.9764ZM96.0001 62.622C96.0001 62.6479 96.0001 62.6867 95.9914 62.7384C95.9871 62.7901 95.9785 62.8548 95.9656 62.9237C95.9527 62.9927 95.9354 63.0659 95.9182 63.1392C95.8966 63.2125 95.8751 63.2814 95.8492 63.3417C95.8234 63.4021 95.7932 63.4538 95.7587 63.4926C95.7242 63.5314 95.6855 63.5486 95.638 63.5486H92.5308C92.4748 63.5486 92.423 63.54 92.3756 63.5271C92.3282 63.5098 92.2895 63.484 92.2593 63.4495C92.2291 63.4107 92.2076 63.3676 92.1989 63.3159C92.1903 63.2599 92.1903 63.1952 92.2033 63.1176L93.4358 56.9592C93.4358 56.9247 93.4574 56.8945 93.4832 56.8643C93.5091 56.8385 93.5522 56.8126 93.6125 56.7954C93.6685 56.7782 93.7461 56.7652 93.8323 56.7566C93.9228 56.748 94.0349 56.7437 94.1728 56.7437C94.3107 56.7437 94.4141 56.7437 94.5003 56.7566C94.5865 56.7652 94.6554 56.7782 94.7029 56.7954C94.7503 56.8126 94.7847 56.8385 94.7977 56.8643C94.8106 56.8945 94.8192 56.9247 94.8106 56.9592L93.7246 62.4152H95.8665C95.9139 62.4152 95.9483 62.4367 95.9699 62.4712C95.9914 62.51 96.0001 62.5617 96.0001 62.622Z" fill="#0077B3"/>
</g>
<rect x="1" y="1" width="110" height="110" rx="9" stroke="#CCCCCC" stroke-width="2"/>
<defs>
<clipPath id="clip0_642_1035">
<rect x="2" y="2" width="108" height="108" rx="8" fill="white"/>
</clipPath>
</defs>
</svg>
