<svg width="113" height="112" viewBox="0 0 113 112" fill="none" xmlns="http://www.w3.org/2000/svg">
<g clip-path="url(#clip0_528_599)">
<rect x="2.5" y="2" width="108" height="108" rx="8" fill="white"/>
<path fill-rule="evenodd" clip-rule="evenodd" d="M18.5516 62.2457L16.5166 60.5717V51.1136L18.5516 49.5919V62.2457ZM20.7516 64.0553L18.8817 62.517V49.3447L20.7516 47.9459V64.0553ZM25.481 49.5919L27.516 51.1136V60.5717L25.481 62.2457V49.5919ZM23.281 47.9459L25.1509 49.3447V62.517L23.281 64.0553V47.9459ZM22.0163 47L22.9509 47.6994V64.3266L22.0163 65.0961L21.081 64.3266V47.6994L22.0163 47Z" fill="#009B4C"/>
<path fill-rule="evenodd" clip-rule="evenodd" d="M21.9914 50.3562C25.0137 50.3562 27.4662 52.8095 27.4662 55.831C27.4662 58.8533 25.0137 61.3066 21.9914 61.3066C18.9699 61.3066 16.5166 58.8533 16.5166 55.831C16.5166 52.8095 18.9699 50.3562 21.9914 50.3562Z" fill="#FEFEFE"/>
<path fill-rule="evenodd" clip-rule="evenodd" d="M26.7208 56.0873C26.5867 58.5805 24.5118 60.5732 21.9854 60.5732C19.459 60.5732 17.3833 58.5805 17.2499 56.0873H26.7208ZM21.9854 51.0888C24.5035 51.0888 26.5739 53.0687 26.7193 55.5521H17.2515C17.3969 53.0687 19.4673 51.0888 21.9854 51.0888Z" fill="#FEFEFE"/>
<path fill-rule="evenodd" clip-rule="evenodd" d="M26.7246 56.0873C26.5912 58.5805 24.5155 60.5732 21.9899 60.5732C19.4635 60.5732 17.3879 58.5805 17.2545 56.0873H26.7246ZM21.9899 51.0888C24.508 51.0888 26.5776 53.0687 26.7238 55.5521H17.256C17.4014 53.0687 19.4718 51.0888 21.9899 51.0888Z" fill="#00A2E9"/>
<path fill-rule="evenodd" clip-rule="evenodd" d="M26.7261 55.5521H26.9175L27.516 55.7956L26.9175 56.0873H26.7276C26.7314 56.0021 26.7344 55.9169 26.7344 55.831C26.7344 55.7375 26.7314 55.6441 26.7261 55.5521ZM16.5392 55.5521H17.2447C17.2394 55.6441 17.2364 55.7375 17.2364 55.831C17.2364 55.9169 17.2386 56.0021 17.2432 56.0873H16.5392L17.3954 55.7956L16.5392 55.5521Z" fill="#00A2E9"/>
<path fill-rule="evenodd" clip-rule="evenodd" d="M19.5412 51.7543C21.1186 52.6904 22.8408 52.6949 24.3814 51.7234L24.756 51.9729C23.2795 53.2443 20.781 53.3114 19.1357 52.046L19.5412 51.7543Z" fill="#FEFEFE"/>
<path fill-rule="evenodd" clip-rule="evenodd" d="M18.0971 53.1283C20.3868 54.662 23.4724 54.6409 25.8156 53.0544C25.9498 53.2293 26.0636 53.4041 26.1473 53.579C24.0505 55.1738 20.3393 55.3079 17.7753 53.6513C17.8702 53.4772 17.972 53.3031 18.0971 53.1283Z" fill="#FEFEFE"/>
<path fill-rule="evenodd" clip-rule="evenodd" d="M19.5412 59.9145C21.1186 58.9792 22.8408 58.9747 24.3814 59.9462L24.756 59.6959C23.2795 58.4245 20.781 58.3574 19.1357 59.6236L19.5412 59.9145Z" fill="#FEFEFE"/>
<path fill-rule="evenodd" clip-rule="evenodd" d="M18.0971 58.5345C20.3868 57 23.4724 57.0218 25.8156 58.6076C25.9498 58.4327 26.0636 58.2586 26.1473 58.0838C24.0505 56.489 20.3393 56.3548 17.7753 58.0107C17.8702 58.1855 17.972 58.3596 18.0971 58.5345Z" fill="#FEFEFE"/>
<path d="M32.7609 53.9106C33.3345 54.038 33.7369 54.1932 33.9691 54.3749C34.3015 54.6334 34.468 54.9695 34.468 55.3818C34.468 55.8159 34.2856 56.1754 33.9201 56.4603C33.4716 56.804 32.819 56.9759 31.9635 56.9759H28.893V56.8183C29.1718 56.8183 29.3618 56.7935 29.4613 56.7437C29.5607 56.694 29.6308 56.6292 29.6708 56.5493C29.7107 56.4701 29.7303 56.2742 29.7303 55.9614V52.2088C29.7303 51.8967 29.7107 51.7 29.6708 51.6186C29.6308 51.5372 29.56 51.4732 29.459 51.4249C29.358 51.3759 29.1688 51.3518 28.893 51.3518V51.1943H31.7894C32.4821 51.1943 32.972 51.2531 33.2606 51.3714C33.5485 51.489 33.7761 51.6654 33.942 51.8997C34.1085 52.1341 34.1922 52.3836 34.1922 52.6482C34.1922 52.927 34.0867 53.175 33.8756 53.3921C33.6646 53.6099 33.293 53.7825 32.7609 53.9106ZM31.139 54.1277V55.9825L31.1344 56.1958C31.1344 56.3495 31.1751 56.4649 31.2573 56.5432C31.3387 56.6216 31.46 56.6608 31.6206 56.6608C31.858 56.6608 32.0773 56.6103 32.2778 56.5093C32.4783 56.4083 32.632 56.2621 32.7391 56.0699C32.8461 55.8777 32.8996 55.6644 32.8996 55.4285C32.8996 55.158 32.834 54.916 32.7036 54.7012C32.5725 54.4864 32.3931 54.3364 32.164 54.2513C31.9356 54.1661 31.5934 54.1246 31.139 54.1277ZM31.139 53.7953C31.561 53.7953 31.8723 53.7501 32.0728 53.6589C32.2733 53.5677 32.427 53.4403 32.5341 53.2752C32.6411 53.1102 32.6946 52.8999 32.6946 52.6436C32.6946 52.3881 32.6418 52.1786 32.5363 52.0151C32.4308 51.8515 32.2801 51.7272 32.0841 51.642C31.8874 51.5568 31.5731 51.5154 31.139 51.5184V53.7953Z" fill="#332C2B"/>
<path d="M38.5862 55.3306H36.4517L36.1978 55.8928C36.1141 56.0805 36.0726 56.2357 36.0726 56.3578C36.0726 56.5199 36.1412 56.639 36.2776 56.7158C36.3575 56.7611 36.5558 56.7957 36.87 56.8183V56.9759H34.8607V56.8183C35.077 56.7867 35.2556 56.7008 35.3951 56.5606C35.5345 56.4196 35.7071 56.1287 35.9121 55.6886L38.0737 51.0752H38.1581L40.3378 55.8159C40.5458 56.2651 40.7161 56.5478 40.8503 56.6646C40.9513 56.7528 41.0937 56.804 41.2776 56.8183V56.9759H38.3541V56.8183H38.4747C38.7098 56.8183 38.8741 56.7867 38.9691 56.7249C39.0346 56.6789 39.0678 56.6133 39.0678 56.5282C39.0678 56.4769 39.0588 56.4249 39.0407 56.3706C39.0346 56.345 38.9902 56.2388 38.9073 56.0511L38.5862 55.3306ZM38.4347 55.0148L37.5348 53.0235L36.6078 55.0148H38.4347Z" fill="#332C2B"/>
<path d="M43.6533 51.1943L46.6349 54.7804V52.2939C46.6349 51.9472 46.5829 51.7128 46.4789 51.5907C46.3364 51.4264 46.0975 51.3465 45.7613 51.3518V51.1943H47.7579V51.3518C47.5024 51.3835 47.3313 51.4234 47.2431 51.4739C47.1557 51.5237 47.0871 51.6043 47.0381 51.7166C46.9891 51.8289 46.965 52.0218 46.965 52.2939V57.1085H46.8135L42.7262 52.2939V55.9697C42.7262 56.3021 42.8061 56.5267 42.9651 56.6435C43.1242 56.7603 43.3058 56.8183 43.5108 56.8183H43.6533V56.9759H41.5098V56.8183C41.8421 56.8153 42.0743 56.7498 42.2047 56.6216C42.3358 56.4943 42.4014 56.2764 42.4014 55.9697V51.8892L42.2718 51.7354C42.1444 51.5824 42.0313 51.4815 41.9333 51.4332C41.8354 51.385 41.6937 51.3578 41.5098 51.3518V51.1943H43.6533Z" fill="#332C2B"/>
<path d="M51.7735 53.4071L53.8997 55.9523C54.1997 56.3111 54.4582 56.5538 54.6745 56.6819C54.8328 56.7724 54.9986 56.8183 55.1742 56.8183V56.9759H52.0275V56.8183C52.2265 56.801 52.3554 56.7716 52.4134 56.7287C52.4715 56.6864 52.5001 56.6337 52.5001 56.5711C52.5001 56.4513 52.3637 56.2274 52.0901 55.8973L50.7041 54.2302L50.481 54.4095V55.987C50.481 56.2885 50.4991 56.4754 50.5345 56.5493C50.5699 56.6239 50.6385 56.6864 50.7395 56.7392C50.8405 56.792 51.0025 56.8183 51.2256 56.8183V56.9759H48.1769V56.8183H48.3774C48.553 56.8183 48.694 56.7882 48.801 56.7287C48.8779 56.6887 48.9374 56.6209 48.9789 56.5244C49.012 56.4558 49.0278 56.2764 49.0278 55.987V52.1831C49.0278 51.8877 49.012 51.703 48.9789 51.6292C48.9464 51.5553 48.8801 51.4905 48.7806 51.4355C48.6811 51.3797 48.547 51.3518 48.3774 51.3518H48.1769V51.1943H51.1849V51.3518C50.9799 51.3518 50.8239 51.3805 50.7176 51.4377C50.64 51.4769 50.5789 51.544 50.5345 51.6382C50.4991 51.7091 50.481 51.8907 50.481 52.1831V53.983L52.7224 52.2472C53.0352 52.006 53.1912 51.8123 53.1912 51.6676C53.1912 51.5591 53.1272 51.4739 52.999 51.4121C52.9335 51.3805 52.7714 51.3609 52.5137 51.3518V51.1943H54.8712V51.3518C54.6602 51.3661 54.4944 51.4023 54.3738 51.4611C54.2539 51.5191 53.9766 51.7158 53.5432 52.0512L51.7735 53.4071Z" fill="#332C2B"/>
<path d="M61.1547 53.4071L63.2809 55.9523C63.5809 56.3111 63.8394 56.5538 64.0565 56.6819C64.214 56.7724 64.3798 56.8183 64.5554 56.8183V56.9759H61.4087V56.8183C61.6085 56.801 61.7366 56.7716 61.7946 56.7287C61.8527 56.6864 61.8813 56.6337 61.8813 56.5711C61.8813 56.4513 61.7449 56.2274 61.4713 55.8973L60.0853 54.2302L59.8629 54.4095V55.987C59.8629 56.2885 59.8802 56.4754 59.9164 56.5493C59.9519 56.6239 60.0197 56.6864 60.1207 56.7392C60.2217 56.792 60.3837 56.8183 60.6068 56.8183V56.9759H57.5581V56.8183H57.7586C57.9342 56.8183 58.0752 56.7882 58.1822 56.7287C58.2598 56.6887 58.3186 56.6209 58.3608 56.5244C58.3932 56.4558 58.4098 56.2764 58.4098 55.987V52.1831C58.4098 51.8877 58.3932 51.703 58.3608 51.6292C58.3276 51.5553 58.2621 51.4905 58.1626 51.4355C58.0631 51.3797 57.9282 51.3518 57.7586 51.3518H57.5581V51.1943H60.5669V51.3518C60.3619 51.3518 60.2058 51.3805 60.0988 51.4377C60.0212 51.4769 59.9601 51.544 59.9164 51.6382C59.8802 51.7091 59.8629 51.8907 59.8629 52.1831V53.983L62.1044 52.2472C62.4164 52.006 62.5724 51.8123 62.5724 51.6676C62.5724 51.5591 62.5084 51.4739 62.3802 51.4121C62.3154 51.3805 62.1534 51.3609 61.8949 51.3518V51.1943H64.2524V51.3518C64.0414 51.3661 63.8756 51.4023 63.7557 51.4611C63.6351 51.5191 63.3578 51.7158 62.9244 52.0512L61.1547 53.4071Z" fill="#332C2B"/>
<path d="M68.25 55.3306H66.1155L65.8608 55.8928C65.7779 56.0805 65.7364 56.2357 65.7364 56.3578C65.7364 56.5199 65.805 56.639 65.9414 56.7158C66.0213 56.7611 66.2195 56.7957 66.5346 56.8183V56.9759H64.5245V56.8183C64.7408 56.7867 64.9194 56.7008 65.0589 56.5606C65.1991 56.4196 65.3709 56.1287 65.5759 55.6886L67.7375 51.0752H67.8227L70.0016 55.8159C70.2096 56.2651 70.3807 56.5478 70.5141 56.6646C70.6151 56.7528 70.7575 56.804 70.9422 56.8183V56.9759H68.0179V56.8183H68.1384C68.3736 56.8183 68.5379 56.7867 68.6336 56.7249C68.6984 56.6789 68.7316 56.6133 68.7316 56.5282C68.7316 56.4769 68.7226 56.4249 68.7045 56.3706C68.6984 56.345 68.654 56.2388 68.5711 56.0511L68.25 55.3306ZM68.0985 55.0148L67.1986 53.0235L66.2716 55.0148H68.0985Z" fill="#332C2B"/>
<path d="M76.8067 54.9462L76.5798 56.9759H71.2135V56.8183H71.414C71.5896 56.8183 71.7305 56.7882 71.8376 56.7287C71.9152 56.6887 71.9747 56.6209 72.0162 56.5244C72.0486 56.4558 72.0652 56.2764 72.0652 55.987V52.1831C72.0652 51.8877 72.0486 51.703 72.0162 51.6292C71.983 51.5553 71.9175 51.4905 71.8172 51.4355C71.7177 51.3797 71.5836 51.3518 71.414 51.3518H71.2135V51.1943H74.4363V51.3518H74.1733C73.9976 51.3518 73.8567 51.382 73.7497 51.4415C73.6721 51.4815 73.6118 51.5493 73.5665 51.6465C73.5341 51.7143 73.5175 51.8937 73.5175 52.1831V55.8672C73.5175 56.1634 73.5356 56.3518 73.5711 56.4325C73.6072 56.5131 73.6766 56.5741 73.7806 56.6133C73.8552 56.639 74.0346 56.6518 74.3202 56.6518H74.8237C75.1448 56.6518 75.4123 56.5983 75.6256 56.4897C75.8397 56.382 76.0251 56.2116 76.1811 55.978C76.3371 55.7451 76.4841 55.4014 76.6243 54.9462H76.8067Z" fill="#332C2B"/>
<path d="M81.1924 53.9106C81.7659 54.038 82.1684 54.1932 82.3998 54.3749C82.7329 54.6334 82.8995 54.9695 82.8995 55.3818C82.8995 55.8159 82.7163 56.1754 82.3508 56.4603C81.9024 56.804 81.2504 56.9759 80.3942 56.9759H77.3237V56.8183C77.6033 56.8183 77.7925 56.7935 77.892 56.7437C77.9915 56.694 78.0615 56.6292 78.1015 56.5493C78.1414 56.4701 78.1618 56.2742 78.1618 55.9614V52.2088C78.1618 51.8967 78.1414 51.7 78.1015 51.6186C78.0615 51.5372 77.9907 51.4732 77.8897 51.4249C77.7887 51.3759 77.6003 51.3518 77.3237 51.3518V51.1943H80.2209C80.9128 51.1943 81.4034 51.2531 81.6913 51.3714C81.98 51.489 82.2069 51.6654 82.3734 51.8997C82.54 52.1341 82.6229 52.3836 82.6229 52.6482C82.6229 52.927 82.5174 53.175 82.3063 53.3921C82.0953 53.6099 81.7237 53.7825 81.1924 53.9106ZM79.5697 54.1277V55.9825L79.5659 56.1958C79.5659 56.3495 79.6059 56.4649 79.688 56.5432C79.7702 56.6216 79.8908 56.6608 80.0513 56.6608C80.2895 56.6608 80.508 56.6103 80.7085 56.5093C80.9098 56.4083 81.0628 56.2621 81.1698 56.0699C81.2768 55.8777 81.3303 55.6644 81.3303 55.4285C81.3303 55.158 81.2647 54.916 81.1343 54.7012C81.004 54.4864 80.8238 54.3364 80.5947 54.2513C80.3663 54.1661 80.0249 54.1246 79.5697 54.1277ZM79.5697 53.7953C79.9918 53.7953 80.303 53.7501 80.5035 53.6589C80.704 53.5677 80.8577 53.4403 80.9648 53.2752C81.0718 53.1102 81.1253 52.8999 81.1253 52.6436C81.1253 52.3881 81.0725 52.1786 80.967 52.0151C80.8615 51.8515 80.7108 51.7272 80.5148 51.642C80.3189 51.5568 80.0038 51.5154 79.5697 51.5184V53.7953Z" fill="#332C2B"/>
<path d="M87.0169 55.3306H84.8825L84.6285 55.8928C84.5456 56.0805 84.5033 56.2357 84.5033 56.3578C84.5033 56.5199 84.5719 56.639 84.7084 56.7158C84.789 56.7611 84.9865 56.7957 85.3015 56.8183V56.9759H83.2914V56.8183C83.5085 56.7867 83.6863 56.7008 83.8265 56.5606C83.966 56.4196 84.1378 56.1287 84.3436 55.6886L86.5044 51.0752H86.5896L88.7685 55.8159C88.9773 56.2651 89.1476 56.5478 89.281 56.6646C89.382 56.7528 89.5252 56.804 89.7091 56.8183V56.9759H86.7855V56.8183H86.9061C87.1405 56.8183 87.3056 56.7867 87.4005 56.7249C87.4661 56.6789 87.4985 56.6133 87.4985 56.5282C87.4985 56.4769 87.4902 56.4249 87.4721 56.3706C87.4661 56.345 87.4216 56.2388 87.3387 56.0511L87.0169 55.3306ZM86.8654 55.0148L85.9655 53.0235L85.0385 55.0148H86.8654Z" fill="#332C2B"/>
<path d="M92.2362 54.341V55.9614C92.2362 56.2742 92.2566 56.4709 92.2965 56.5515C92.3365 56.6329 92.4073 56.6978 92.5083 56.746C92.6086 56.7942 92.7977 56.8183 93.0743 56.8183V56.9759H89.9812V56.8183C90.26 56.8183 90.45 56.7935 90.5495 56.7437C90.6489 56.694 90.719 56.6292 90.7582 56.5493C90.7989 56.4701 90.8185 56.2742 90.8185 55.9614V52.2088C90.8185 51.8967 90.7989 51.7 90.7582 51.6186C90.719 51.5372 90.6474 51.4732 90.5472 51.4249C90.4462 51.3759 90.257 51.3518 89.9812 51.3518V51.1943H92.7887C93.5198 51.1943 94.0541 51.2425 94.3933 51.339C94.7317 51.4362 95.0083 51.6141 95.2224 51.8741C95.4364 52.1341 95.5434 52.4394 95.5434 52.7891C95.5434 53.2149 95.3821 53.5677 95.0618 53.8465C94.8568 54.0229 94.5697 54.1548 94.2019 54.243L95.6542 56.1996C95.8449 56.4536 95.9798 56.6111 96.0605 56.6729C96.1818 56.7611 96.3227 56.81 96.4833 56.8183V56.9759H94.5802L92.6327 54.341H92.2362ZM92.2362 51.5056V54.038H92.4902C92.9032 54.038 93.2123 54.0018 93.4173 53.9294C93.6223 53.8571 93.7836 53.7259 93.9004 53.5375C94.018 53.3483 94.0767 53.1019 94.0767 52.7974C94.0767 52.3572 93.969 52.0316 93.7534 51.8206C93.5386 51.6111 93.1911 51.5056 92.7133 51.5056H92.2362Z" fill="#332C2B"/>
<path d="M29.517 60.9847V58.8382H30.068C30.2767 58.8382 30.4132 58.8488 30.4765 58.8706C30.5737 58.9031 30.6551 58.9724 30.7214 59.0809C30.787 59.1887 30.8202 59.3274 30.8202 59.4985C30.8202 59.6304 30.8006 59.7412 30.7629 59.8308C30.7252 59.9205 30.677 59.9914 30.6182 60.0419C30.5601 60.0931 30.5006 60.1278 30.4403 60.1444C30.3589 60.1647 30.2398 60.1745 30.0846 60.1745H29.8607V60.9847H29.517ZM29.8607 59.2015V59.8105H30.0484C30.184 59.8105 30.2745 59.7992 30.3197 59.7766C30.3657 59.754 30.4011 59.7185 30.4275 59.6711C30.4531 59.6236 30.4659 59.5678 30.4659 59.5045C30.4659 59.4261 30.4478 59.362 30.4117 59.3108C30.3755 59.2603 30.3288 59.2286 30.2737 59.2158C30.2323 59.206 30.1501 59.2015 30.0265 59.2015H29.8607Z" fill="#332C2B"/>
<path d="M31.4849 60.9847V59.2015H30.9799V58.8382H32.3313V59.2015H31.8278V60.9847H31.4849Z" fill="#332C2B"/>
<path d="M32.2876 60.9847V60.5732H32.6132V60.9847H32.2876Z" fill="#332C2B"/>
<path d="M33.6111 58.8382H34.2909C34.4251 58.8382 34.5253 58.845 34.5916 58.8593C34.658 58.8737 34.7175 58.9031 34.7695 58.9483C34.8215 58.9927 34.8652 59.053 34.8999 59.1277C34.9346 59.2023 34.9519 59.2859 34.9519 59.3786C34.9519 59.4789 34.9308 59.5716 34.8878 59.6552C34.8449 59.7389 34.7868 59.8022 34.713 59.8444C34.817 59.8821 34.8961 59.9469 34.9519 60.0389C35.0077 60.1308 35.0356 60.2378 35.0356 60.3622C35.0356 60.4602 35.0175 60.5551 34.9813 60.6471C34.9459 60.739 34.8969 60.8129 34.8343 60.8679C34.7718 60.9229 34.6949 60.9569 34.6037 60.9697C34.5472 60.9772 34.4085 60.9825 34.1899 60.9847H33.6111V58.8382ZM33.954 59.1955V59.6914H34.1794C34.3135 59.6914 34.3964 59.6892 34.4288 59.6846C34.4876 59.6756 34.5336 59.65 34.5675 59.607C34.6007 59.5655 34.618 59.509 34.618 59.4397C34.618 59.3734 34.6037 59.3198 34.5743 59.2784C34.5457 59.2369 34.5027 59.2113 34.4447 59.203C34.4107 59.1977 34.3135 59.1955 34.1515 59.1955H33.954ZM33.954 60.0487V60.623H34.2721C34.3957 60.623 34.4748 60.6185 34.508 60.6102C34.5585 60.5981 34.6007 60.5695 34.6323 60.5242C34.6647 60.479 34.6806 60.418 34.6806 60.3418C34.6806 60.277 34.6685 60.2228 34.6436 60.1775C34.6188 60.1331 34.5826 60.0999 34.5359 60.0796C34.4891 60.0592 34.3881 60.0487 34.2314 60.0487H33.954Z" fill="#332C2B"/>
<path d="M36.8595 60.9847H36.4857L36.3372 60.4971H35.6574L35.5172 60.9847H35.1531L35.8149 58.8382H36.1782L36.8595 60.9847ZM36.2271 60.1353L35.9927 59.3394L35.7629 60.1353H36.2271Z" fill="#332C2B"/>
<path d="M37.0449 60.9847V58.8382H37.3788L38.0752 60.271V58.8382H38.394V60.9847H38.0496L37.3637 59.5851V60.9847H37.0449Z" fill="#332C2B"/>
<path d="M38.7618 60.9847V58.8382H39.1047V59.7917L39.7989 58.8382H40.2601L39.6203 59.6741L40.2956 60.9847H39.8509L39.3836 59.9771L39.1047 60.3358V60.9847H38.7618Z" fill="#332C2B"/>
<path d="M41.1329 60.9847V58.8382H41.6839C41.8926 58.8382 42.0291 58.8488 42.0924 58.8706C42.1896 58.9031 42.271 58.9724 42.3373 59.0809C42.4029 59.1887 42.4353 59.3274 42.4353 59.4985C42.4353 59.6304 42.4165 59.7412 42.3788 59.8308C42.3411 59.9205 42.2929 59.9914 42.2341 60.0419C42.176 60.0931 42.1165 60.1278 42.0562 60.1444C41.974 60.1647 41.8557 60.1745 41.7005 60.1745H41.4766V60.9847H41.1329ZM41.4766 59.2015V59.8105H41.6643C41.7992 59.8105 41.8896 59.7992 41.9356 59.7766C41.9808 59.754 42.017 59.7185 42.0426 59.6711C42.069 59.6236 42.0818 59.5678 42.0818 59.5045C42.0818 59.4261 42.0637 59.362 42.0276 59.3108C41.9906 59.2603 41.9446 59.2286 41.8889 59.2158C41.8482 59.206 41.766 59.2015 41.6424 59.2015H41.4766Z" fill="#332C2B"/>
<path d="M42.7172 60.9847V58.8382H43.9781V59.2015H43.0609V59.6771H43.9148V60.0389H43.0609V60.623H44.0113V60.9847H42.7172Z" fill="#332C2B"/>
<path d="M44.2977 60.9847V58.8382H44.8117L45.12 60.3019L45.4252 58.8382H45.94V60.9847H45.6212V59.295L45.2835 60.9847H44.9534L44.6165 59.295V60.9847H44.2977Z" fill="#332C2B"/>
<path d="M46.2821 58.8382H46.962C47.0969 58.8382 47.1971 58.845 47.2635 58.8593C47.329 58.8737 47.3886 58.9031 47.4406 58.9483C47.4926 58.9927 47.5363 59.053 47.571 59.1277C47.6064 59.2023 47.6237 59.2859 47.6237 59.3786C47.6237 59.4789 47.6019 59.5716 47.5589 59.6552C47.5159 59.7389 47.4579 59.8022 47.3848 59.8444C47.4881 59.8821 47.5679 59.9469 47.6237 60.0389C47.6787 60.1308 47.7066 60.2378 47.7066 60.3622C47.7066 60.4602 47.6885 60.5551 47.6531 60.6471C47.6169 60.739 47.5679 60.8129 47.5054 60.8679C47.4436 60.9229 47.3667 60.9569 47.2755 60.9697C47.2182 60.9772 47.0803 60.9825 46.861 60.9847H46.2821V58.8382ZM46.6258 59.1955V59.6914H46.8504C46.9846 59.6914 47.0675 59.6892 47.0999 59.6846C47.1587 59.6756 47.2054 59.65 47.2386 59.607C47.2725 59.5655 47.2891 59.509 47.2891 59.4397C47.2891 59.3734 47.2748 59.3198 47.2461 59.2784C47.2167 59.2369 47.1738 59.2113 47.1165 59.203C47.0826 59.1977 46.9846 59.1955 46.8225 59.1955H46.6258ZM46.6258 60.0487V60.623H46.9439C47.0675 60.623 47.1459 60.6185 47.179 60.6102C47.2303 60.5981 47.2717 60.5695 47.3041 60.5242C47.3358 60.479 47.3516 60.418 47.3516 60.3418C47.3516 60.277 47.3396 60.2228 47.3147 60.1775C47.2898 60.1331 47.2544 60.0999 47.2077 60.0796C47.1609 60.0592 47.0592 60.0487 46.9032 60.0487H46.6258Z" fill="#332C2B"/>
<path d="M49.5306 60.9847H49.1567L49.0082 60.4971H48.3284L48.1882 60.9847H47.8242L48.4867 58.8382H48.85L49.5306 60.9847ZM48.8982 60.1353L48.6638 59.3394L48.4339 60.1353H48.8982Z" fill="#332C2B"/>
<path d="M49.716 60.9847V58.8382H50.0506L50.7463 60.271V58.8382H51.0651V60.9847H50.7206L50.0348 59.5851V60.9847H49.716Z" fill="#332C2B"/>
<path d="M52.2197 60.1956V59.8339H52.9599V60.6885C52.8875 60.7767 52.7835 60.8536 52.6471 60.9207C52.5107 60.9878 52.372 61.0209 52.2325 61.0209C52.0547 61.0209 51.8994 60.9734 51.7668 60.88C51.6349 60.7858 51.5354 60.6509 51.4691 60.476C51.4027 60.3004 51.3696 60.1097 51.3696 59.904C51.3696 59.6801 51.4065 59.4819 51.4804 59.3078C51.555 59.1344 51.6635 59.001 51.8067 58.9083C51.9152 58.8375 52.0517 58.8021 52.2137 58.8021C52.4247 58.8021 52.5898 58.8578 52.7089 58.9694C52.8272 59.0809 52.9033 59.2354 52.938 59.4321L52.5966 59.5128C52.5725 59.408 52.5272 59.3244 52.4617 59.2633C52.3953 59.2023 52.3124 59.1721 52.2137 59.1721C52.0637 59.1721 51.9446 59.2324 51.8557 59.3523C51.7675 59.4721 51.723 59.65 51.723 59.8866C51.723 60.1414 51.7675 60.3321 51.858 60.4594C51.9476 60.5868 52.0652 60.6509 52.2099 60.6509C52.2823 60.6509 52.3546 60.6328 52.427 60.5974C52.4993 60.5612 52.5611 60.5182 52.6132 60.4677V60.1956H52.2197Z" fill="#332C2B"/>
<path d="M53.2741 58.8382H53.6171V60.0004C53.6171 60.1851 53.6216 60.3049 53.6299 60.3592C53.645 60.4466 53.6796 60.5175 53.7354 60.571C53.7904 60.6237 53.8658 60.6509 53.9623 60.6509C54.0595 60.6509 54.1326 60.6252 54.1823 60.5747C54.2321 60.525 54.2615 60.4632 54.272 60.3901C54.2818 60.317 54.2871 60.1956 54.2871 60.0253V58.8382H54.63V59.9658C54.63 60.2228 54.621 60.4052 54.6021 60.5114C54.5841 60.6177 54.5494 60.7074 54.4996 60.7813C54.4499 60.8544 54.3828 60.9124 54.2999 60.9554C54.2163 60.9991 54.107 61.0209 53.9721 61.0209C53.81 61.0209 53.6872 60.9976 53.6028 60.9501C53.5191 60.9026 53.4528 60.8415 53.4038 60.7654C53.3555 60.6901 53.3231 60.6102 53.3073 60.5273C53.2854 60.4044 53.2741 60.2228 53.2741 59.9831V58.8382Z" fill="#332C2B"/>
<path d="M54.9956 60.9847V58.8382H55.3295L56.0259 60.271V58.8382H56.3447V60.9847H56.0002L55.3144 59.5851V60.9847H54.9956Z" fill="#332C2B"/>
<path d="M58.2417 60.9847H57.8679L57.7194 60.4971H57.0396L56.8994 60.9847H56.5354L57.1979 58.8382H57.5604L58.2417 60.9847ZM57.6094 60.1353L57.375 59.3394L57.1451 60.1353H57.6094Z" fill="#332C2B"/>
<path d="M58.4271 60.9847V58.8382H58.761L59.4574 60.271V58.8382H59.7762V60.9847H59.4318L58.7459 59.5851V60.9847H58.4271Z" fill="#332C2B"/>
<path d="M60.7982 58.8382H61.4261C61.5678 58.8382 61.6755 58.8518 61.7494 58.8797C61.8489 58.9166 61.9348 58.9822 62.0057 59.0772C62.0773 59.1714 62.1315 59.2874 62.1685 59.4246C62.2054 59.5618 62.2242 59.7306 62.2242 59.9318C62.2242 60.1082 62.2069 60.2605 62.1715 60.3886C62.1293 60.5446 62.0682 60.6712 61.9898 60.7677C61.9303 60.8408 61.8496 60.8981 61.7479 60.9388C61.6725 60.9689 61.5715 60.9847 61.4442 60.9847H60.7982V58.8382ZM61.1419 59.2015V60.623H61.3982C61.4939 60.623 61.5632 60.6162 61.6054 60.6026C61.6612 60.5845 61.7072 60.5551 61.7441 60.5129C61.7811 60.4707 61.8112 60.4021 61.8346 60.3057C61.8572 60.21 61.8692 60.0788 61.8692 59.913C61.8692 59.7472 61.8572 59.6198 61.8346 59.5309C61.8112 59.4419 61.7788 59.3726 61.7366 59.3229C61.6951 59.2731 61.6424 59.2392 61.5776 59.2219C61.5301 59.2083 61.4359 59.2015 61.2957 59.2015H61.1419Z" fill="#332C2B"/>
<path d="M64.0489 60.9847H63.6751L63.5266 60.4971H62.8468L62.7066 60.9847H62.3426L63.0051 58.8382H63.3676L64.0489 60.9847ZM63.4166 60.1353L63.1822 59.3394L62.9523 60.1353H63.4166Z" fill="#332C2B"/>
<path d="M64.2306 60.9847V58.8382H65.4915V59.2015H64.5742V59.6771H65.4282V60.0389H64.5742V60.623H65.5246V60.9847H64.2306Z" fill="#332C2B"/>
<path d="M65.8163 60.9847V58.8382H66.5391C66.7215 58.8382 66.8534 58.8578 66.9356 58.8963C67.0177 58.9347 67.084 59.0033 67.133 59.102C67.1828 59.2 67.2076 59.3131 67.2076 59.4397C67.2076 59.601 67.17 59.7336 67.0953 59.8391C67.02 59.9439 66.9077 60.0102 66.7584 60.0374C66.8331 60.0916 66.8941 60.1519 66.9423 60.2175C66.9906 60.2831 67.0561 60.3991 67.1383 60.5657L67.3456 60.9847H66.9348L66.6868 60.5175C66.5987 60.3501 66.5384 60.2454 66.506 60.2017C66.4735 60.1587 66.4389 60.1286 66.4027 60.1127C66.3665 60.0961 66.3085 60.0886 66.2301 60.0886H66.16V60.9847H65.8163ZM66.16 59.7457H66.414C66.5791 59.7457 66.6816 59.7374 66.7223 59.7193C66.7637 59.702 66.7961 59.6718 66.8187 59.6289C66.8421 59.5859 66.8542 59.5324 66.8542 59.4676C66.8542 59.3952 66.8383 59.3372 66.8082 59.2927C66.7773 59.2482 66.7343 59.2204 66.6785 59.2083C66.6507 59.2038 66.567 59.2015 66.4283 59.2015H66.16V59.7457Z" fill="#332C2B"/>
<path d="M69.0647 60.9847H68.6917L68.5424 60.4971H67.8634L67.7224 60.9847H67.3584L68.0209 58.8382H68.3842L69.0647 60.9847ZM68.4324 60.1353L68.198 59.3394L67.9689 60.1353H68.4324Z" fill="#332C2B"/>
<path d="M69.2479 60.9847V58.8382H69.5916V59.6831H70.2646V58.8382H70.6075V60.9847H70.2646V60.0464H69.5916V60.9847H69.2479Z" fill="#332C2B"/>
<path d="M71.6273 60.9847V58.8382H71.971V59.7917L72.6644 58.8382H73.1264L72.4857 59.6741L73.161 60.9847H72.7164L72.2491 59.9771L71.971 60.3358V60.9847H71.6273Z" fill="#332C2B"/>
<path d="M74.8719 60.9847H74.4989L74.3504 60.4971H73.6705L73.5296 60.9847H73.1656L73.8281 58.8382H74.1913L74.8719 60.9847ZM74.2396 60.1353L74.0059 59.3394L73.7761 60.1353H74.2396Z" fill="#332C2B"/>
<path d="M75.0634 60.9847V58.8556H75.407V60.623H76.261V60.9847H75.0634Z" fill="#332C2B"/>
<path d="M76.4954 60.9847V58.8382H76.8383V60.9847H76.4954Z" fill="#332C2B"/>
<path d="M77.1609 60.9847V58.8382H77.6749L77.9832 60.3019L78.2884 58.8382H78.8039V60.9847H78.4844V59.295L78.1467 60.9847H77.8166L77.4797 59.295V60.9847H77.1609Z" fill="#332C2B"/>
<path d="M80.6784 60.9847H80.3045L80.1561 60.4971H79.4762L79.336 60.9847H78.972L79.6338 58.8382H79.997L80.6784 60.9847ZM80.046 60.1353L79.8116 59.3394L79.5817 60.1353H80.046Z" fill="#332C2B"/>
<path d="M80.8638 60.9847V58.8382H81.1984L81.8941 60.271V58.8382H82.2129V60.9847H81.8684L81.1826 59.5851V60.9847H80.8638Z" fill="#332C2B"/>
<path d="M82.959 60.9847V59.2015H82.4548V58.8382H83.8054V59.2015H83.3027V60.9847H82.959Z" fill="#332C2B"/>
<path d="M85.3852 60.9847H85.0113L84.8629 60.4971H84.183L84.0429 60.9847H83.6781L84.3406 58.8382H84.7038L85.3852 60.9847ZM84.7528 60.1353L84.5177 59.3394L84.2886 60.1353H84.7528Z" fill="#332C2B"/>
<path d="M85.5706 60.9847V58.8382H85.9045L86.6001 60.271V58.8382H86.9197V60.9847H86.5753L85.8894 59.5851V60.9847H85.5706Z" fill="#332C2B"/>
<path d="M87.944 58.8382H88.6238C88.7579 58.8382 88.8582 58.845 88.9245 58.8593C88.9908 58.8737 89.0504 58.9031 89.1024 58.9483C89.1544 58.9927 89.1981 59.053 89.2328 59.1277C89.2674 59.2023 89.2848 59.2859 89.2848 59.3786C89.2848 59.4789 89.2637 59.5716 89.2207 59.6552C89.1777 59.7389 89.1197 59.8022 89.0459 59.8444C89.1499 59.8821 89.229 59.9469 89.2848 60.0389C89.3405 60.1308 89.3684 60.2378 89.3684 60.3622C89.3684 60.4602 89.3511 60.5551 89.3142 60.6471C89.2787 60.739 89.229 60.8129 89.1672 60.8679C89.1046 60.9229 89.0285 60.9569 88.9366 60.9697C88.88 60.9772 88.7414 60.9825 88.5228 60.9847H87.944V58.8382ZM88.2876 59.1955V59.6914H88.5122C88.6464 59.6914 88.7293 59.6892 88.7617 59.6846C88.8205 59.6756 88.8665 59.65 88.9004 59.607C88.9343 59.5655 88.9509 59.509 88.9509 59.4397C88.9509 59.3734 88.9366 59.3198 88.9072 59.2784C88.8785 59.2369 88.8356 59.2113 88.7783 59.203C88.7436 59.1977 88.6464 59.1955 88.4844 59.1955H88.2876ZM88.2876 60.0487V60.623H88.6057C88.7285 60.623 88.8069 60.6185 88.8408 60.6102C88.8913 60.5981 88.9328 60.5695 88.9652 60.5242C88.9976 60.479 89.0134 60.418 89.0134 60.3418C89.0134 60.277 89.0014 60.2228 88.9758 60.1775C88.9516 60.1331 88.9162 60.0999 88.8695 60.0796C88.822 60.0592 88.7203 60.0487 88.565 60.0487H88.2876Z" fill="#332C2B"/>
<path d="M91.1924 60.9847H90.8185L90.6701 60.4971H89.9902L89.85 60.9847H89.4853L90.1477 58.8382H90.511L91.1924 60.9847ZM90.56 60.1353L90.3256 59.3394L90.0957 60.1353H90.56Z" fill="#332C2B"/>
<path d="M91.3755 60.9847V58.8382H92.0983C92.2799 58.8382 92.4118 58.8578 92.494 58.8963C92.5761 58.9347 92.6425 59.0033 92.6922 59.102C92.742 59.2 92.7661 59.3131 92.7661 59.4397C92.7661 59.601 92.7284 59.7336 92.6538 59.8391C92.5792 59.9439 92.4669 60.0102 92.3176 60.0374C92.3915 60.0916 92.4525 60.1519 92.5008 60.2175C92.549 60.2831 92.6146 60.3991 92.6967 60.5657L92.9048 60.9847H92.494L92.2453 60.5175C92.1571 60.3501 92.0968 60.2454 92.0644 60.2017C92.032 60.1587 91.9973 60.1286 91.9611 60.1127C91.9249 60.0961 91.8677 60.0886 91.7885 60.0886H91.7192V60.9847H91.3755ZM91.7192 59.7457H91.9724C92.1375 59.7457 92.2407 59.7374 92.2814 59.7193C92.3222 59.702 92.3546 59.6718 92.3779 59.6289C92.4013 59.5859 92.4126 59.5324 92.4126 59.4676C92.4126 59.3952 92.3975 59.3372 92.3666 59.2927C92.3365 59.2482 92.2935 59.2204 92.2377 59.2083C92.2091 59.2038 92.1262 59.2015 91.9868 59.2015H91.7192V59.7457Z" fill="#332C2B"/>
<path d="M94.6239 60.9847H94.2501L94.1016 60.4971H93.4218L93.2816 60.9847H92.9168L93.5793 58.8382H93.9426L94.6239 60.9847ZM93.9908 60.1353L93.7572 59.3394L93.5273 60.1353H93.9908Z" fill="#332C2B"/>
<path d="M95.0121 60.9847V59.2015H94.5079V58.8382H95.8592V59.2015H95.3558V60.9847H95.0121Z" fill="#332C2B"/>
</g>
<rect x="1.5" y="1" width="110" height="110" rx="9" stroke="#CCCCCC" stroke-width="2"/>
<defs>
<clipPath id="clip0_528_599">
<rect x="2.5" y="2" width="108" height="108" rx="8" fill="white"/>
</clipPath>
</defs>
</svg>
