<svg width="113" height="112" viewBox="0 0 113 112" fill="none" xmlns="http://www.w3.org/2000/svg">
<g clip-path="url(#clip0_421_561)">
<rect x="2.5" y="2" width="108" height="108" rx="8" fill="white"/>
<g clip-path="url(#clip1_421_561)">
<path fill-rule="evenodd" clip-rule="evenodd" d="M16.6164 62.6244C19.547 61.5527 21.8813 60.2848 23.6037 58.8094C23.8298 58.9632 24.0753 59.1027 24.341 59.2288C24.4619 59.2863 24.5836 59.3393 24.7059 59.3878C23.0179 60.9587 20.6164 62.4176 17.5455 63.7758L16.6164 62.6244ZM24.2709 58.1982C24.6373 57.8378 24.9694 57.4654 25.2679 57.0811C25.4604 56.8326 25.6276 56.5915 25.7709 56.3572C25.9112 56.3572 26.0507 56.3609 26.1888 56.3699C26.4627 56.387 26.7156 56.4214 26.947 56.4706C26.5597 57.2729 26.0089 58.049 25.3 58.7997C24.9059 58.6348 24.5627 58.4333 24.2709 58.1982ZM26.238 55.3841C26.5462 54.4579 26.3821 53.6781 25.7298 53.0796C24.8492 52.2721 23.1224 51.852 20.644 51.7102C21.8895 51.5094 23.1962 51.5064 24.5567 51.746C26.8358 52.1482 27.888 53.3102 27.4373 55.1251C27.3985 55.2811 27.3537 55.437 27.303 55.5915C26.9679 55.4908 26.6127 55.4214 26.238 55.3841Z" fill="#F6D300"/>
<path d="M16.5925 62.5579C18.0545 62.0236 19.3679 61.44 20.5291 60.8065C21.6903 60.1736 22.7 59.4908 23.5582 58.7565L23.5985 58.7214L23.6433 58.7512C23.7545 58.8266 23.8709 58.8997 23.9933 58.9691C24.1142 59.0378 24.2396 59.1035 24.3709 59.1654C24.4343 59.1953 24.494 59.2229 24.5507 59.2475C24.6127 59.2744 24.6724 59.299 24.7313 59.3229L24.8351 59.3639L24.7537 59.4393C23.9067 60.2281 22.8806 60.9885 21.6813 61.7221C20.4828 62.4542 19.1119 63.1602 17.5739 63.84L17.5246 63.8624L17.491 63.8199L16.5619 62.6684L16.5 62.5923L16.5925 62.5579ZM20.597 60.9303C19.453 61.5535 18.1642 62.1288 16.7328 62.6565L17.5664 63.6893C19.0791 63.0184 20.4284 62.3229 21.6075 61.6012C22.7612 60.8968 23.7522 60.1669 24.5769 59.4109C24.5493 59.3997 24.5216 59.3878 24.4948 59.3766C24.4299 59.3482 24.3687 59.3199 24.3104 59.293C24.1776 59.2296 24.0485 59.1624 23.9239 59.0915C23.8157 59.0296 23.7104 58.9654 23.609 58.8975C22.753 59.6251 21.7478 60.302 20.597 60.9303ZM24.2209 58.1482C24.4037 57.9684 24.5776 57.7863 24.7425 57.602L24.7418 57.6012C24.9082 57.4154 25.0649 57.2273 25.2119 57.0378C25.306 56.9169 25.3955 56.7953 25.4799 56.6744C25.5634 56.5535 25.6403 56.4356 25.7112 56.3206L25.7313 56.2871H25.7709C25.8425 56.2871 25.9127 56.2878 25.9828 56.29C26.0552 56.2915 26.1254 56.2953 26.1933 56.2997C26.3306 56.3079 26.4634 56.3214 26.5918 56.3385C26.7209 56.3557 26.8448 56.3766 26.9619 56.402L27.0493 56.4206L27.0104 56.5012C26.8157 56.905 26.5791 57.3027 26.3015 57.6945C26.0246 58.0863 25.7075 58.4706 25.3515 58.8475L25.3179 58.8833L25.2731 58.8647C25.0731 58.7811 24.8858 58.6885 24.7127 58.587C24.5381 58.4848 24.3761 58.3736 24.2261 58.2527L24.1649 58.2035L24.2209 58.1482ZM24.847 57.6953C24.697 57.8639 24.5396 58.0296 24.3769 58.1923C24.503 58.2893 24.6381 58.3803 24.7836 58.4654C24.9396 58.5565 25.106 58.64 25.2821 58.7154C25.6216 58.3535 25.9231 57.9863 26.1866 57.6139C26.4403 57.2557 26.6597 56.8915 26.844 56.5214C26.756 56.505 26.6657 56.49 26.5731 56.4781C26.45 56.4617 26.3201 56.449 26.1843 56.44C26.1142 56.4356 26.0455 56.4326 25.9791 56.4303C25.9224 56.4288 25.8664 56.4281 25.8104 56.4273C25.7433 56.5363 25.6716 56.6453 25.5955 56.755C25.5119 56.8744 25.4216 56.9975 25.3231 57.1236C25.1724 57.3184 25.0134 57.5087 24.8478 57.6953H24.847ZM26.1709 55.3617C26.3216 54.9094 26.3567 54.4938 26.2746 54.1199C26.1933 53.7505 25.9963 53.4199 25.6821 53.1318C25.2507 52.7356 24.609 52.4341 23.7687 52.2132C22.9216 51.9908 21.8746 51.8512 20.6403 51.7811L19.9955 51.7438L20.6328 51.6408C21.2701 51.5385 21.9231 51.487 22.591 51.493C23.2373 51.499 23.897 51.5579 24.5687 51.6766C24.7455 51.7079 24.9164 51.7438 25.0806 51.7848C26.009 52.0154 26.6963 52.3945 27.1187 52.9132C27.544 53.4348 27.6993 54.0953 27.5604 54.8826C27.5463 54.9669 27.5276 55.0527 27.506 55.1415C27.4858 55.2221 27.4642 55.3012 27.4425 55.3781C27.4201 55.4557 27.3955 55.5348 27.3694 55.6132L27.3485 55.6788L27.2821 55.6594C27.1164 55.6087 26.9463 55.5669 26.7724 55.5333C26.5963 55.499 26.4157 55.4721 26.2306 55.4535L26.1433 55.4445L26.1709 55.3617ZM26.4119 54.0893C26.4948 54.4654 26.4672 54.8781 26.3313 55.3229C26.491 55.3415 26.647 55.3654 26.7985 55.3945C26.956 55.4251 27.1082 55.4617 27.2567 55.5042C27.2739 55.4497 27.291 55.3945 27.3067 55.3393C27.3291 55.2609 27.35 55.1833 27.3687 55.1079C27.3896 55.0244 27.4075 54.9408 27.4216 54.8587C27.5537 54.1132 27.4082 53.4908 27.0097 53.0012C26.6067 52.5079 25.9455 52.1445 25.047 51.9214C24.8881 51.8818 24.7201 51.8468 24.544 51.8154C23.8791 51.6982 23.2269 51.6393 22.5903 51.6333C22.1709 51.6296 21.7567 51.649 21.3493 51.6893C22.2933 51.7691 23.1134 51.896 23.8045 52.0773C24.6672 52.3035 25.3291 52.6162 25.7776 53.0281C26.1134 53.3363 26.3246 53.6915 26.4119 54.0893Z" fill="#3D107A"/>
<path fill-rule="evenodd" clip-rule="evenodd" d="M27.5582 55.6758C26.3328 55.2303 24.8045 55.2512 23.0306 55.6639C23.0522 56.0661 23.1261 56.4393 23.2507 56.7811C24.2739 56.4684 25.2537 56.3094 26.1888 56.3699C28.6224 56.5258 29.388 57.9676 28.2515 60.1572C27.4082 61.7825 25.8455 63.1288 23.8768 64.3721C26.153 63.3079 27.7798 62.0669 28.7142 60.6199C30.1963 58.3228 29.8485 56.5102 27.5582 55.6758ZM21.756 56.0139C20.8821 56.2878 19.9589 56.6415 18.991 57.0676L19.9515 58.1743C20.7007 57.793 21.4306 57.4527 22.1403 57.1728C21.9604 56.8139 21.8321 56.4266 21.756 56.0139Z" fill="#F6D300"/>
<path d="M27.5343 55.7423C26.9291 55.5221 26.2485 55.4169 25.5 55.4184C24.7657 55.4191 23.9642 55.5229 23.1045 55.7191C23.1164 55.896 23.1388 56.0669 23.1709 56.2318C23.203 56.3923 23.244 56.5467 23.2948 56.6945C23.7881 56.5467 24.2709 56.4348 24.7433 56.3662C25.2373 56.2938 25.7209 56.2691 26.1933 56.2997C26.8455 56.3415 27.3813 56.4744 27.7955 56.6893C28.1627 56.8803 28.4351 57.1348 28.6097 57.4467C28.7836 57.7587 28.8589 58.1259 28.8328 58.5408C28.8015 59.0273 28.6298 59.5811 28.3142 60.19C27.8888 61.0094 27.2821 61.7587 26.5343 62.4594C26.0403 62.9221 25.4851 63.3632 24.8791 63.7893C25.5813 63.4087 26.2075 63.0072 26.756 62.5841C27.5575 61.9647 28.1925 61.2982 28.6545 60.5818C28.9425 60.1356 29.1604 59.7087 29.3075 59.3042C29.5522 58.6326 29.6015 58.0236 29.4515 57.4953C29.303 56.9691 28.9545 56.5199 28.4045 56.1647C28.1552 56.0042 27.8657 55.8632 27.5343 55.7423ZM25.5 55.2781C26.2649 55.2766 26.9619 55.3841 27.5821 55.6102C27.9239 55.7348 28.2231 55.8803 28.4806 56.0467C29.0612 56.4214 29.4284 56.8975 29.5873 57.4572C29.7455 58.0147 29.6948 58.6527 29.4403 59.3527C29.2888 59.7669 29.0664 60.2035 28.7731 60.6579C28.3022 61.3885 27.656 62.0662 26.8418 62.6953C26.0298 63.3229 25.0492 63.9012 23.9067 64.4356L22.8978 64.9072L23.8395 64.3124C24.8209 63.693 25.7 63.0482 26.4381 62.3564C27.1746 61.6676 27.7709 60.9303 28.1888 60.1251C28.4963 59.5341 28.6619 58.999 28.6918 58.5318C28.7164 58.1438 28.6478 57.8027 28.4866 57.5154C28.3261 57.2281 28.0731 56.9923 27.7306 56.8147C27.3336 56.6087 26.8172 56.4803 26.1843 56.44C25.7224 56.4102 25.2478 56.4348 24.7627 56.505C24.2761 56.5759 23.7784 56.693 23.2709 56.849L23.2075 56.8684L23.1843 56.8057C23.1209 56.6311 23.0701 56.4482 23.0328 56.2594C22.9955 56.0699 22.9709 55.8729 22.9604 55.6676L22.9567 55.6087L23.0142 55.5953C23.906 55.3878 24.7366 55.2788 25.5 55.2781ZM21.7022 56.105C21.291 56.2356 20.8679 56.3841 20.4343 56.549C20.0015 56.7139 19.5597 56.896 19.1075 57.0938L19.9686 58.087C20.3239 57.9065 20.6784 57.7341 21.0313 57.5721V57.5714C21.3731 57.4147 21.7104 57.2684 22.044 57.1348C21.9664 56.9744 21.9 56.8079 21.8425 56.6356C21.7858 56.4639 21.7388 56.2863 21.7022 56.105ZM20.3836 56.4176C20.8455 56.2415 21.2963 56.0841 21.7351 55.9467L21.8104 55.9229L21.8254 56.0012C21.8627 56.205 21.9134 56.402 21.9761 56.5915C22.0388 56.7818 22.1149 56.9647 22.203 57.1408L22.2373 57.2102L22.1657 57.2378C21.8119 57.3773 21.4537 57.5326 21.0903 57.6997H21.0895C20.7298 57.8654 20.3604 58.0453 19.9836 58.2378L19.9351 58.2624L19.8985 58.2206L18.9381 57.1139L18.8754 57.0415L18.9627 57.0035C19.4478 56.7893 19.9216 56.5938 20.3836 56.4176Z" fill="#3D107A"/>
<path fill-rule="evenodd" clip-rule="evenodd" d="M22.047 52.8631C22.1545 52.525 22.2776 52.1974 22.4142 51.878C22.9687 51.9556 23.4679 52.0556 23.9112 52.1788C23.5522 52.8377 23.303 53.4862 23.1672 54.125C22.6478 56.5698 23.5373 58.2765 25.7993 58.9803C26.6993 59.2601 27.6582 59.2922 28.6657 59.1146C28.6284 59.2579 28.5806 59.4049 28.5231 59.5571C27.0955 59.9437 25.6866 59.8683 24.3411 59.2288C21.9269 58.0818 21.1202 55.772 22.047 52.8631ZM29.5 58.9235C30.1067 58.7534 30.7291 58.5153 31.3649 58.2153C30.7097 58.6512 30.0522 59.0041 29.3963 59.2646C29.4366 59.1489 29.4709 59.0355 29.5 58.9235ZM22.5552 51.5631C23.3642 49.8295 24.5948 48.3668 26.0605 47.1101L26.9187 48.4653C25.759 49.5698 24.8448 50.6429 24.1963 51.6877C23.6403 51.6071 23.0925 51.5661 22.5552 51.5631Z" fill="#F6D300"/>
<path d="M21.9799 52.8415C22.0336 52.6713 22.0918 52.5042 22.1537 52.3392C22.2157 52.1721 22.2814 52.0094 22.3493 51.8504L22.3709 51.8004L22.4239 51.8079C22.7008 51.8474 22.9657 51.8915 23.2179 51.9422C23.4702 51.993 23.7075 52.0489 23.9299 52.1109L24.0149 52.1348L23.9724 52.2124C23.7955 52.5385 23.6448 52.8624 23.5209 53.1848C23.3985 53.5057 23.303 53.8243 23.2358 54.14C22.9784 55.3512 23.0709 56.3766 23.5082 57.184C23.9411 57.9818 24.7127 58.5683 25.8202 58.9131C26.2642 59.0512 26.7231 59.128 27.1948 59.1482C27.6679 59.1691 28.1545 59.1333 28.6537 59.0452L28.7612 59.0258L28.7336 59.1318C28.7149 59.2057 28.6933 59.2795 28.6687 59.3542C28.644 59.4303 28.6179 59.5064 28.5888 59.5825L28.5761 59.6161L28.5411 59.6251C27.8075 59.8236 27.0784 59.9019 26.3597 59.8452C25.6649 59.7907 24.9799 59.6109 24.3105 59.293C23.0903 58.7124 22.2739 57.8385 21.8784 56.7407C21.4821 55.64 21.5105 54.3161 21.9799 52.8415ZM22.2851 52.3877C22.2246 52.5512 22.1672 52.7169 22.1142 52.884C21.6537 54.328 21.6246 55.6213 22.0112 56.6937C22.3933 57.7549 23.1851 58.6019 24.3709 59.1654C25.0239 59.4758 25.6925 59.6519 26.3709 59.7049C27.062 59.7594 27.7634 59.6863 28.4702 59.4982C28.494 59.434 28.5157 59.3721 28.5351 59.3116C28.547 59.2743 28.5582 59.2385 28.5687 59.2027C28.0985 59.278 27.6381 59.3086 27.1888 59.2892C26.7045 59.2683 26.2336 59.1892 25.7784 59.0474C24.6343 58.6915 23.8343 58.0818 23.3843 57.2512C22.9306 56.4139 22.8336 55.3557 23.0978 54.1109C23.1664 53.7877 23.2642 53.4616 23.3896 53.1348C23.5045 52.8333 23.644 52.5303 23.8067 52.2236C23.612 52.1713 23.406 52.1236 23.1903 52.0803C22.9597 52.034 22.7157 51.9922 22.4575 51.9549C22.397 52.0989 22.3396 52.243 22.2851 52.3877ZM29.4806 58.8557C29.7814 58.7721 30.0866 58.6698 30.3963 58.5519C30.706 58.4348 31.0194 58.3004 31.3351 58.1519L32.2037 57.7422L31.4037 58.2743C31.0731 58.4937 30.7403 58.6937 30.4075 58.8713C30.0791 59.046 29.7508 59.1997 29.4224 59.3303L29.2799 59.387L29.3299 59.2422C29.3485 59.1892 29.3664 59.1325 29.3851 59.0721C29.4022 59.0161 29.4179 58.9609 29.4314 58.9064L29.4418 58.8669L29.4806 58.8557ZM30.4463 58.684C30.1478 58.7974 29.8515 58.8967 29.5575 58.9803C29.5455 59.0243 29.5328 59.0683 29.5194 59.1131H29.5202L29.5105 59.1422C29.7873 59.0266 30.0642 58.8945 30.3411 58.7474C30.3888 58.7221 30.4358 58.696 30.4836 58.6698L30.4463 58.684ZM22.4918 51.5333C22.8985 50.6616 23.4112 49.8579 24.0067 49.1139C24.6015 48.3706 25.2791 47.687 26.0149 47.0564L26.0769 47.0034L26.1202 47.0721L26.9784 48.428L27.009 48.4766L26.9672 48.5169C26.3888 49.0669 25.8724 49.6094 25.4194 50.1445C24.9672 50.6788 24.5784 51.2057 24.2567 51.7251L24.2321 51.7646L24.1866 51.7579C23.9127 51.7176 23.6403 51.6877 23.3694 51.6669C23.0933 51.646 22.8224 51.6348 22.5552 51.6333L22.4455 51.6325L22.4918 51.5333ZM24.1164 49.2012C23.5508 49.9086 23.0605 50.6698 22.6657 51.4937C22.903 51.4974 23.1418 51.5079 23.3799 51.5266C23.6381 51.546 23.8985 51.5743 24.1612 51.6116C24.4828 51.0982 24.8672 50.5788 25.312 50.0534C25.7567 49.528 26.2634 48.9952 26.8284 48.4549L26.0448 47.2161C25.3388 47.8273 24.6888 48.487 24.1164 49.2012Z" fill="#3D107A"/>
<path fill-rule="evenodd" clip-rule="evenodd" d="M38.2836 53.5556C38.6373 53.6317 38.9015 53.7511 39.0776 53.9176C39.3209 54.1489 39.4425 54.4317 39.4425 54.7661C39.4425 55.0206 39.3627 55.2646 39.2022 55.4967C39.0418 55.7295 38.8216 55.8989 38.5418 56.0056C38.2634 56.1123 37.8366 56.1661 37.2619 56.1661H34.8552V56.028H35.0455C35.2575 56.028 35.4097 55.9594 35.5022 55.8243C35.5597 55.737 35.5881 55.5497 35.5881 55.2646V51.9571C35.5881 51.6414 35.5522 51.4422 35.4799 51.3601C35.3821 51.2489 35.2388 51.1937 35.0455 51.1937H34.8552V51.0549H37.0582C37.4694 51.0549 37.7978 51.0847 38.0463 51.1452C38.4224 51.2362 38.709 51.3959 38.9067 51.6258C39.1045 51.8556 39.2037 52.1191 39.2037 52.4183C39.2037 52.6743 39.1269 52.9026 38.9709 53.1056C38.8157 53.3079 38.5866 53.4579 38.2836 53.5556ZM36.3127 53.3459C36.4052 53.3638 36.5119 53.3773 36.6299 53.3862C36.7493 53.3952 36.8806 53.3989 37.0231 53.3989C37.3896 53.3989 37.6657 53.3586 37.8493 53.281C38.0328 53.2019 38.1746 53.0817 38.2724 52.9183C38.3687 52.7564 38.4172 52.5788 38.4172 52.3862C38.4172 52.0885 38.2955 51.8347 38.0522 51.6243C37.8097 51.4153 37.4552 51.3094 36.9896 51.3094C36.7396 51.3094 36.5134 51.3362 36.3127 51.3914V53.3459ZM36.3127 55.7952C36.6045 55.8631 36.8933 55.8967 37.1776 55.8967C37.6336 55.8967 37.9821 55.7937 38.2209 55.5892C38.4597 55.3855 38.5791 55.1317 38.5791 54.8317C38.5791 54.6332 38.5239 54.4422 38.4119 54.2594C38.3015 54.0758 38.1246 53.9317 37.8813 53.8265C37.6388 53.7213 37.3366 53.6683 36.9784 53.6683C36.8224 53.6683 36.6903 53.6713 36.5799 53.6765C36.4694 53.6817 36.3806 53.6907 36.3127 53.7019V55.7952ZM43.3985 54.4631H41.4187L41.0769 55.2631C40.9918 55.4609 40.9485 55.6101 40.9485 55.7079C40.9485 55.7847 40.9858 55.8541 41.0604 55.9131C41.1336 55.9713 41.294 56.0094 41.5396 56.028V56.1661H39.9284V56.028C40.1418 55.9907 40.2791 55.9414 40.3418 55.881C40.4702 55.7601 40.6119 55.5153 40.7672 55.1459L42.5649 50.9392H42.6918L44.4687 55.1914C44.6119 55.5332 44.741 55.7541 44.8582 55.8564C44.9754 55.9579 45.1373 56.0146 45.3463 56.028V56.1661H43.3321V56.028C43.5351 56.0176 43.6724 55.984 43.744 55.9265C43.8164 55.8683 43.8507 55.7974 43.8507 55.7138C43.8507 55.6034 43.8007 55.4288 43.7007 55.19L43.3985 54.4631ZM43.2828 54.1855L42.4224 52.1228L41.5381 54.1855H43.2828ZM45.3313 51.0549H46.7045L49.8358 54.8929V51.9414C49.8358 51.6273 49.8 51.4303 49.7291 51.3519C49.6358 51.2467 49.4866 51.1937 49.2836 51.1937H49.1037V51.0549H50.9V51.1937H50.7172C50.4978 51.1937 50.3433 51.2594 50.2507 51.3907C50.1955 51.4713 50.1672 51.6556 50.1672 51.9414V56.2489H50.0313L46.6672 52.1317V55.2795C46.6672 55.5944 46.7022 55.7914 46.7702 55.8698C46.8664 55.975 47.0157 56.028 47.2172 56.028H47.4V56.1661H45.6037V56.028H45.7836C46.0045 56.028 46.1597 55.9623 46.2522 55.831C46.3075 55.7504 46.3358 55.5661 46.3358 55.2795V51.7258C46.1881 51.5526 46.0754 51.4377 45.9993 51.3825C45.9224 51.3273 45.8104 51.2765 45.6627 51.2273C45.5896 51.2056 45.4791 51.1937 45.3313 51.1937V51.0549ZM53.3037 53.3317L55.1903 55.2019C55.4993 55.5138 55.7627 55.7258 55.9813 55.8377C56.2 55.9489 56.4187 56.0123 56.6366 56.028V56.1661H54.203V56.028C54.35 56.028 54.4537 56.0034 54.5179 55.9541C54.5821 55.9056 54.6142 55.8504 54.6142 55.79C54.6142 55.7295 54.6015 55.6758 54.5784 55.628C54.5537 55.5803 54.4754 55.4907 54.3433 55.3609L52.5821 53.6146V55.2646C52.5821 55.5228 52.5985 55.6937 52.6321 55.7758C52.656 55.8385 52.7104 55.8929 52.791 55.9377C52.9 55.9982 53.0157 56.028 53.1381 56.028H53.3142V56.1661H51.1246V56.028H51.306C51.5179 56.028 51.6709 55.9661 51.7672 55.8437C51.8276 55.7631 51.8567 55.5706 51.8567 55.2646V51.9571C51.8567 51.6989 51.8403 51.5265 51.8082 51.4422C51.7828 51.3817 51.7313 51.3288 51.653 51.284C51.5425 51.2235 51.4269 51.1937 51.306 51.1937H51.1246V51.0549H53.3142V51.1937H53.1381C53.0187 51.1937 52.903 51.222 52.791 51.2803C52.7127 51.3198 52.6575 51.3803 52.6284 51.4616C52.597 51.5407 52.5821 51.7064 52.5821 51.9571V53.525C52.6321 53.4758 52.8037 53.3168 53.097 53.0452C53.8418 52.3616 54.2933 51.9056 54.4485 51.6773C54.5164 51.5758 54.55 51.4885 54.55 51.4123C54.55 51.3549 54.5231 51.3041 54.4701 51.2594C54.4179 51.2161 54.3291 51.1937 54.203 51.1937H54.0873V51.0549H55.9672V51.1937C55.8567 51.1967 55.7567 51.2116 55.6664 51.24C55.5754 51.2676 55.4649 51.3213 55.3351 51.4011C55.2045 51.4817 55.0433 51.6101 54.8537 51.7877C54.7985 51.8377 54.5425 52.0944 54.0866 52.5586L53.3037 53.3317ZM62.9209 54.7556L63.044 54.7825L62.6052 56.1661H58.65V56.028H58.8418C59.0575 56.028 59.2119 55.9579 59.3045 55.8183C59.3567 55.7385 59.3828 55.5534 59.3828 55.2646V51.9571C59.3828 51.6385 59.3478 51.4392 59.2769 51.3601C59.1799 51.2489 59.0343 51.1937 58.8418 51.1937H58.65V51.0549H60.9627V51.1937C60.6918 51.1914 60.5015 51.2161 60.391 51.2683C60.2821 51.3198 60.2075 51.387 60.1679 51.4653C60.1276 51.5444 60.1075 51.7347 60.1075 52.034V55.2571C60.1075 55.4661 60.1276 55.6086 60.1679 55.687C60.197 55.7414 60.2448 55.7795 60.3075 55.8056C60.3694 55.8295 60.5657 55.8429 60.8963 55.8429H61.2687C61.6619 55.8429 61.9366 55.8146 62.0948 55.7564C62.253 55.6989 62.3978 55.5959 62.5291 55.4497C62.659 55.3034 62.7903 55.0713 62.9209 54.7556ZM66.7373 54.4631H64.7575L64.4157 55.2631C64.3306 55.4609 64.2866 55.6101 64.2866 55.7079C64.2866 55.7847 64.3239 55.8541 64.3985 55.9131C64.4716 55.9713 64.6328 56.0094 64.8776 56.028V56.1661H63.2664V56.028C63.4799 55.9907 63.6172 55.9414 63.6806 55.881C63.809 55.7601 63.95 55.5153 64.106 55.1459L65.903 50.9392H66.0306L67.8075 55.1914C67.95 55.5332 68.0799 55.7541 68.197 55.8564C68.3134 55.9579 68.4754 56.0146 68.6851 56.028V56.1661H66.6702V56.028C66.8731 56.0176 67.0112 55.984 67.0828 55.9265C67.1545 55.8683 67.1896 55.7974 67.1896 55.7138C67.1896 55.6034 67.1396 55.4288 67.0388 55.19L66.7373 54.4631ZM66.6216 54.1855L65.7605 52.1228L64.8769 54.1855H66.6216ZM71.9254 56.1661L69.9522 51.8661V55.2795C69.9522 55.5944 69.9866 55.7914 70.0545 55.8698C70.1485 55.975 70.2978 56.028 70.5015 56.028H70.6843V56.1661H68.8881V56.028H69.0716C69.2903 56.028 69.444 55.9623 69.5366 55.831C69.5918 55.7504 69.6202 55.5661 69.6202 55.2795V51.9414C69.6202 51.7153 69.5948 51.5511 69.5448 51.4511C69.509 51.378 69.4433 51.3176 69.3478 51.2676C69.2515 51.2183 69.0985 51.1937 68.8881 51.1937V51.0549H70.353L72.1955 55.0511L74.0209 51.0549H75.4716V51.1937H75.2933C75.0709 51.1937 74.9157 51.2594 74.8231 51.3907C74.7679 51.4713 74.7396 51.6556 74.7396 51.9414V55.2795C74.7396 55.5944 74.7754 55.7914 74.8463 55.8698C74.9396 55.975 75.0888 56.028 75.2933 56.028H75.4716V56.1661H73.2821V56.028H73.4657C73.6873 56.028 73.841 55.9623 73.9313 55.831C73.9866 55.7504 74.0149 55.5661 74.0149 55.2795V51.8661L72.0485 56.1661H71.9254ZM77.2075 53.7698V55.2646C77.2075 55.5855 77.2425 55.7847 77.3127 55.8616C77.4082 55.972 77.5522 56.028 77.7448 56.028H77.9403V56.1661H75.7508V56.028H75.9433C76.159 56.028 76.3149 55.9571 76.4075 55.8168C76.4575 55.74 76.4828 55.5549 76.4828 55.2646V51.9571C76.4828 51.6362 76.4493 51.437 76.3813 51.3601C76.2821 51.2489 76.1373 51.1937 75.9433 51.1937H75.7508V51.0549H77.6239C78.0813 51.0549 78.441 51.1026 78.706 51.1967C78.9694 51.29 79.1918 51.4497 79.3724 51.6735C79.5537 51.8967 79.644 52.1616 79.644 52.4676C79.644 52.8847 79.506 53.2243 79.2313 53.4847C78.956 53.7459 78.5687 53.8765 78.0657 53.8765C77.9425 53.8765 77.8105 53.8676 77.6679 53.8497C77.5239 53.8332 77.3709 53.8064 77.2075 53.7698ZM77.2075 53.5541C77.3403 53.5803 77.4582 53.5989 77.5612 53.6109C77.6627 53.6235 77.7507 53.6303 77.8231 53.6303C78.0836 53.6303 78.3075 53.5288 78.4963 53.3265C78.6851 53.125 78.7806 52.8646 78.7806 52.5444C78.7806 52.3235 78.7351 52.1176 78.6455 51.9288C78.5552 51.74 78.4269 51.5989 78.2627 51.5049C78.097 51.4109 77.909 51.3638 77.7 51.3638C77.5709 51.3638 77.4082 51.3877 77.2075 51.4355V53.5541ZM83.6 51.1937V51.0549H85.3963V51.1937H85.2045C85.0045 51.1937 84.85 51.2773 84.7418 51.4459C84.6896 51.5243 84.6634 51.7041 84.6634 51.9877V54.0594C84.6634 54.572 84.6134 54.9691 84.5119 55.2519C84.4104 55.534 84.2105 55.7773 83.9134 55.9788C83.6164 56.1803 83.2127 56.2817 82.7015 56.2817C82.1455 56.2817 81.7224 56.1855 81.4351 55.9914C81.1455 55.7989 80.9418 55.5385 80.8216 55.2116C80.741 54.9885 80.7015 54.5691 80.7015 53.9541V51.9571C80.7015 51.6437 80.6575 51.4377 80.5716 51.3407C80.4851 51.2429 80.3455 51.1937 80.1522 51.1937H79.9612V51.0549H82.1657V51.1937H81.9709C81.7597 51.1937 81.6097 51.2609 81.5194 51.3929C81.4567 51.4832 81.4261 51.672 81.4261 51.9571V54.184C81.4261 54.3817 81.444 54.6094 81.4799 54.8661C81.5172 55.122 81.5828 55.3213 81.6776 55.4646C81.7739 55.6079 81.9112 55.7258 82.0903 55.8198C82.2701 55.9116 82.4896 55.9579 82.7507 55.9579C83.0843 55.9579 83.3843 55.8847 83.647 55.74C83.9104 55.5944 84.0903 55.4071 84.1873 55.181C84.2836 54.9534 84.3321 54.5683 84.3321 54.0258V51.9571C84.3321 51.6385 84.2978 51.4392 84.2269 51.3601C84.1291 51.2489 83.9843 51.1937 83.791 51.1937H83.6ZM85.3791 51.0549H86.753L89.8843 54.8929V51.9414C89.8843 51.6273 89.8485 51.4303 89.7776 51.3519C89.6836 51.2467 89.5343 51.1937 89.3313 51.1937H89.1515V51.0549H90.9478V51.1937H90.7657C90.5455 51.1937 90.3918 51.2594 90.2993 51.3907C90.244 51.4713 90.2157 51.6556 90.2157 51.9414V56.2489H90.0799L86.7157 52.1317V55.2795C86.7157 55.5944 86.75 55.7914 86.8187 55.8698C86.9149 55.975 87.0642 56.028 87.2657 56.028H87.4478V56.1661H85.6515V56.028H85.8313C86.053 56.028 86.2082 55.9623 86.3008 55.831C86.356 55.7504 86.3843 55.5661 86.3843 55.2795V51.7258C86.2366 51.5526 86.1231 51.4377 86.0478 51.3825C85.9701 51.3273 85.859 51.2765 85.7112 51.2273C85.6373 51.2056 85.5269 51.1937 85.3791 51.1937V51.0549ZM95.7754 50.9392L95.906 52.5511H95.7679C95.6351 52.1511 95.4634 51.8504 95.2537 51.6474C94.9508 51.3556 94.5612 51.2094 94.0858 51.2094C93.4381 51.2094 92.9448 51.4661 92.6067 51.9817C92.3239 52.4146 92.1828 52.9325 92.1828 53.5325C92.1828 54.0191 92.2769 54.4631 92.4657 54.8646C92.653 55.2661 92.9 55.5601 93.2045 55.7474C93.509 55.934 93.8224 56.028 94.1433 56.028C94.3313 56.028 94.5134 56.0034 94.6896 55.9556C94.8642 55.9079 95.0336 55.8377 95.197 55.7437V54.2623C95.197 54.0056 95.1776 53.837 95.1396 53.7586C95.0993 53.6788 95.0388 53.6183 94.9582 53.5773C94.8761 53.5347 94.7321 53.5146 94.5261 53.5146V53.3758H96.5V53.5146H96.406C96.2112 53.5146 96.0776 53.5803 96.0037 53.7109C95.9537 53.8034 95.9299 53.987 95.9299 54.2623V55.8288C95.6418 55.9855 95.3567 56.0997 95.0761 56.1728C94.7948 56.2459 94.4828 56.2817 94.1396 56.2817C93.1537 56.2817 92.406 55.9661 91.8948 55.3325C91.5112 54.8586 91.3194 54.3101 91.3194 53.6907C91.3194 53.2407 91.4269 52.8094 91.6433 52.3982C91.8985 51.9086 92.2493 51.5303 92.6955 51.2676C93.0694 51.0489 93.5097 50.9392 94.0202 50.9392C94.2052 50.9392 94.3731 50.9549 94.5254 50.9847C94.6769 51.0153 94.8911 51.081 95.1702 51.184C95.3105 51.2362 95.4052 51.2631 95.453 51.2631C95.5 51.2631 95.5403 51.2414 95.5746 51.1982C95.6082 51.1541 95.6291 51.0683 95.6366 50.9392H95.7754Z" fill="#0A4390"/>
<path fill-rule="evenodd" clip-rule="evenodd" d="M36.962 59.2348C37.1247 59.2698 37.247 59.325 37.3276 59.4019C37.4396 59.5086 37.4963 59.6385 37.4963 59.7922C37.4963 59.9094 37.4597 60.0221 37.3851 60.1295C37.3112 60.2362 37.2105 60.3146 37.0814 60.3639C36.953 60.4131 36.756 60.4377 36.4918 60.4377H35.3836V60.3736H35.4709C35.5687 60.3736 35.6381 60.3422 35.6814 60.2803C35.7075 60.24 35.7209 60.1534 35.7209 60.0221V58.4989C35.7209 58.3534 35.7038 58.2616 35.6709 58.2236C35.6261 58.1728 35.5597 58.1474 35.4709 58.1474H35.3836V58.0833H36.3978C36.5873 58.0833 36.7388 58.0967 36.853 58.125C37.0261 58.1668 37.1582 58.24 37.2493 58.3459C37.3403 58.4519 37.3858 58.5736 37.3858 58.7116C37.3858 58.8288 37.3508 58.9348 37.2791 59.028C37.2075 59.1206 37.1023 59.19 36.962 59.2348ZM36.0545 59.1385C36.097 59.1467 36.1463 59.1527 36.2008 59.1571C36.2552 59.1609 36.3157 59.1631 36.3814 59.1631C36.55 59.1631 36.6776 59.1445 36.762 59.1086C36.847 59.0721 36.912 59.0168 36.9567 58.9415C37.0015 58.8668 37.0239 58.7855 37.0239 58.6967C37.0239 58.5594 36.9679 58.443 36.856 58.3459C36.7441 58.2489 36.5806 58.2004 36.3664 58.2004C36.2508 58.2004 36.147 58.2131 36.0545 58.2385V59.1385ZM36.0545 60.2668C36.1888 60.2982 36.3217 60.3131 36.453 60.3131C36.6627 60.3131 36.8232 60.2661 36.9336 60.1721C37.0433 60.078 37.0985 59.9609 37.0985 59.8228C37.0985 59.7318 37.0732 59.6437 37.0217 59.5594C36.9702 59.475 36.8888 59.4086 36.7769 59.3601C36.6649 59.3116 36.5261 59.287 36.3612 59.287C36.2896 59.287 36.2284 59.2885 36.1776 59.2907C36.1269 59.293 36.0858 59.2974 36.0545 59.3027V60.2668ZM39.3179 59.6527H38.406L38.2485 60.0213C38.2097 60.1124 38.1896 60.181 38.1896 60.2265C38.1896 60.2616 38.2067 60.2937 38.2411 60.3213C38.2747 60.3474 38.3485 60.3653 38.462 60.3736V60.4377H37.7194V60.3736C37.8179 60.3564 37.8814 60.334 37.9105 60.3064C37.9694 60.2504 38.0344 60.1377 38.106 59.9676L38.9344 58.0303H38.9926L39.8112 59.9885C39.8769 60.1459 39.9366 60.2474 39.9903 60.2952C40.0441 60.3415 40.1187 60.3676 40.2157 60.3736V60.4377H39.2873V60.3736C39.3806 60.3691 39.4441 60.3534 39.4776 60.3273C39.5105 60.3004 39.5269 60.2676 39.5269 60.2295C39.5269 60.178 39.5038 60.0982 39.4575 59.9877L39.3179 59.6527ZM39.2649 59.525L38.8687 58.575L38.4612 59.525H39.2649ZM40.2082 58.0833H40.8411L42.2836 59.8512V58.4915C42.2836 58.3467 42.2664 58.2564 42.2344 58.2198C42.1911 58.1713 42.1224 58.1474 42.0291 58.1474H41.9463V58.0833H42.7732V58.1474H42.6888C42.5881 58.1474 42.5172 58.1773 42.4747 58.2377C42.4493 58.275 42.4358 58.3601 42.4358 58.4915V60.4758H42.3732L40.8239 58.5795V60.0295C40.8239 60.1743 40.8396 60.2646 40.8709 60.3012C40.9157 60.3497 40.9844 60.3736 41.0769 60.3736H41.1612V60.4377H40.3336V60.3736H40.4164C40.5187 60.3736 40.5903 60.3437 40.6329 60.2833C40.6582 60.2459 40.6709 60.1609 40.6709 60.0295V58.3922C40.603 58.3124 40.5508 58.2601 40.5164 58.234C40.4806 58.2086 40.4291 58.1855 40.3612 58.1624C40.3276 58.1527 40.2761 58.1474 40.2082 58.1474V58.0833ZM43.8806 59.1318L44.7493 59.993C44.8918 60.137 45.0135 60.2348 45.1142 60.2862C45.2142 60.3377 45.3149 60.3668 45.4157 60.3736V60.4377H44.2948V60.3736C44.362 60.3736 44.4105 60.3624 44.4396 60.34C44.4694 60.3176 44.4844 60.2922 44.4844 60.2639C44.4844 60.2362 44.4784 60.2116 44.4679 60.19C44.4567 60.1676 44.4202 60.1265 44.359 60.0668L43.5478 59.2624V60.0221C43.5478 60.1415 43.556 60.2198 43.5709 60.2579C43.5821 60.287 43.6067 60.3116 43.6441 60.3325C43.6948 60.3601 43.7478 60.3736 43.8045 60.3736H43.8851V60.4377H42.8769V60.3736H42.9605C43.0582 60.3736 43.1284 60.3452 43.1724 60.2892C43.2008 60.2519 43.2142 60.1631 43.2142 60.0221V58.4989C43.2142 58.3795 43.2067 58.3004 43.1918 58.2616C43.1799 58.234 43.156 58.2094 43.1202 58.1885C43.0694 58.1609 43.0157 58.1474 42.9605 58.1474H42.8769V58.0833H43.8851V58.1474H43.8045C43.7493 58.1474 43.6955 58.1601 43.6441 58.187C43.6082 58.2056 43.5829 58.2333 43.5694 58.2706C43.5552 58.3071 43.5478 58.3833 43.5478 58.4989V59.2206C43.5709 59.1982 43.65 59.125 43.7851 59.0004C44.1284 58.6855 44.3358 58.475 44.4075 58.3698C44.4396 58.3228 44.4545 58.2825 44.4545 58.2482C44.4545 58.2213 44.4426 58.1982 44.4179 58.1773C44.3933 58.1571 44.353 58.1474 44.2948 58.1474H44.2418V58.0833H45.1075V58.1474C45.0567 58.1482 45.0105 58.1556 44.9687 58.1683C44.9269 58.181 44.8761 58.2056 44.8164 58.243C44.756 58.2795 44.6821 58.3392 44.5941 58.4206C44.5687 58.4437 44.4508 58.5624 44.2411 58.7758L43.8806 59.1318ZM45.3373 58.0833H45.9694L47.412 59.8512V58.4915C47.412 58.3467 47.3955 58.2564 47.3627 58.2198C47.3194 58.1713 47.2508 58.1474 47.1575 58.1474H47.0747V58.0833H47.9015V58.1474H47.8179C47.7164 58.1474 47.6455 58.1773 47.603 58.2377C47.5776 58.275 47.5642 58.3601 47.5642 58.4915V60.4758H47.5015L45.9523 58.5795V60.0295C45.9523 60.1743 45.9687 60.2646 46 60.3012C46.0441 60.3497 46.1127 60.3736 46.206 60.3736H46.2896V60.4377H45.4627V60.3736H45.5455C45.647 60.3736 45.7187 60.3437 45.7612 60.2833C45.7866 60.2459 45.8 60.1609 45.8 60.0295V58.3922C45.7321 58.3124 45.6799 58.2601 45.6448 58.234C45.609 58.2086 45.5575 58.1855 45.4896 58.1624C45.456 58.1527 45.4052 58.1474 45.3373 58.1474V58.0833ZM49.6448 58.0833H50.4657V58.1474H50.4209C50.3903 58.1474 50.3463 58.1609 50.2888 58.1877C50.2306 58.2139 50.1784 58.2527 50.1306 58.3027C50.0836 58.3519 50.0254 58.434 49.956 58.5459L49.3903 59.4303V60.0295C49.3903 60.1743 49.4067 60.2646 49.4396 60.3012C49.4836 60.3497 49.5545 60.3736 49.65 60.3736H49.7276V60.4377H48.7194V60.3736H48.8038C48.9045 60.3736 48.9754 60.3437 49.0179 60.2833C49.0433 60.2459 49.0567 60.1609 49.0567 60.0295V59.4788L48.4127 58.4833C48.3366 58.3683 48.2851 58.2967 48.2575 58.2683C48.2306 58.2392 48.1739 58.2049 48.0881 58.1646C48.0649 58.1534 48.0321 58.1474 47.9881 58.1474V58.0833H48.9911V58.1474H48.9396C48.8851 58.1474 48.8344 58.1601 48.7888 58.1855C48.7433 58.2109 48.7202 58.2489 48.7202 58.2997C48.7202 58.3422 48.756 58.4168 48.8269 58.5258L49.3142 59.2848L49.7776 58.5594C49.8478 58.4504 49.8821 58.3691 49.8821 58.3161C49.8821 58.2833 49.8739 58.2542 49.8575 58.2288C49.8403 58.2034 49.8164 58.1833 49.7851 58.1691C49.7538 58.1542 49.7067 58.1474 49.6448 58.1474V58.0833ZM51.7463 59.6527H50.8344L50.6769 60.0213C50.6381 60.1124 50.6179 60.181 50.6179 60.2265C50.6179 60.2616 50.6351 60.2937 50.6694 60.3213C50.703 60.3474 50.7769 60.3653 50.8896 60.3736V60.4377H50.1478V60.3736C50.2463 60.3564 50.3097 60.334 50.3381 60.3064C50.3978 60.2504 50.4627 60.1377 50.5344 59.9676L51.362 58.0303H51.4209L52.2396 59.9885C52.3052 60.1459 52.3649 60.2474 52.4187 60.2952C52.4724 60.3415 52.547 60.3676 52.6433 60.3736V60.4377H51.7157V60.3736C51.809 60.3691 51.8724 60.3534 51.9052 60.3273C51.9388 60.3004 51.9545 60.2676 51.9545 60.2295C51.9545 60.178 51.9314 60.0982 51.8851 59.9877L51.7463 59.6527ZM51.6933 59.525L51.2963 58.575L50.8896 59.525H51.6933ZM54.8276 60.4377L53.9187 58.4571V60.0295C53.9187 60.1743 53.9351 60.2646 53.9664 60.3012C54.0097 60.3497 54.0784 60.3736 54.1724 60.3736H54.256V60.4377H53.4291V60.3736H53.5135C53.6142 60.3736 53.6851 60.3437 53.7276 60.2833C53.753 60.2459 53.7664 60.1609 53.7664 60.0295V58.4915C53.7664 58.3877 53.7545 58.3116 53.7314 58.2653C53.7149 58.2318 53.6844 58.2042 53.6403 58.181C53.5963 58.1586 53.5261 58.1474 53.4291 58.1474V58.0833H54.1038L54.9523 59.9236L55.7933 58.0833H56.4612V58.1474H56.3791C56.2769 58.1474 56.2052 58.1773 56.1627 58.2377C56.1366 58.275 56.1239 58.3601 56.1239 58.4915V60.0295C56.1239 60.1743 56.1403 60.2646 56.1732 60.3012C56.2164 60.3497 56.2851 60.3736 56.3791 60.3736H56.4612V60.4377H55.453V60.3736H55.5373C55.6388 60.3736 55.7105 60.3437 55.7515 60.2833C55.7769 60.2459 55.7903 60.1609 55.7903 60.0295V58.4571L54.8844 60.4377H54.8276ZM58.1597 59.6527H57.2478L57.0903 60.0213C57.0515 60.1124 57.0314 60.181 57.0314 60.2265C57.0314 60.2616 57.0485 60.2937 57.0829 60.3213C57.1164 60.3474 57.1903 60.3653 57.3038 60.3736V60.4377H56.5612V60.3736C56.6597 60.3564 56.7232 60.334 56.7515 60.3064C56.8112 60.2504 56.8761 60.1377 56.9478 59.9676L57.7754 58.0303H57.8344L58.653 59.9885C58.7187 60.1459 58.7784 60.2474 58.8321 60.2952C58.8858 60.3415 58.9605 60.3676 59.0567 60.3736V60.4377H58.1291V60.3736C58.2224 60.3691 58.2858 60.3534 58.3187 60.3273C58.3523 60.3004 58.3679 60.2676 58.3679 60.2295C58.3679 60.178 58.3448 60.0982 58.2985 59.9877L58.1597 59.6527ZM58.1067 59.525L57.7097 58.575L57.303 59.525H58.1067ZM60.7269 58.0303V58.843H60.6635C60.6426 58.687 60.6052 58.5624 60.5515 58.4706C60.4978 58.378 60.4202 58.3049 60.3202 58.2504C60.2209 58.1959 60.1179 58.1683 60.0112 58.1683C59.8911 58.1683 59.7911 58.2056 59.7127 58.2788C59.6336 58.3519 59.5941 58.4362 59.5941 58.5295C59.5941 58.6012 59.6194 58.6668 59.6687 58.7258C59.7411 58.8124 59.9112 58.9288 60.1814 59.0728C60.4015 59.1915 60.5515 59.2818 60.6321 59.3445C60.7127 59.4079 60.7747 59.4818 60.8179 59.5676C60.8612 59.6534 60.8836 59.743 60.8836 59.837C60.8836 60.0153 60.8142 60.1683 60.6761 60.2974C60.5373 60.4265 60.3597 60.4907 60.1426 60.4907C60.0739 60.4907 60.0097 60.4855 59.9493 60.4751C59.9135 60.4691 59.8396 60.4474 59.7261 60.4109C59.6142 60.3743 59.5426 60.3556 59.512 60.3556C59.4829 60.3556 59.4597 60.3646 59.4433 60.3818C59.4269 60.3997 59.4142 60.4355 59.406 60.4907H59.3426V59.6848H59.406C59.4366 59.8534 59.4761 59.9803 59.5276 60.0639C59.5784 60.1474 59.6567 60.2176 59.7612 60.2728C59.8657 60.328 59.9806 60.3556 60.1052 60.3556C60.25 60.3556 60.3649 60.3176 60.4485 60.2415C60.5321 60.1639 60.5746 60.0736 60.5746 59.9698C60.5746 59.9116 60.5582 59.8527 60.5269 59.7937C60.4948 59.7348 60.4463 59.6795 60.3791 59.628C60.3344 59.593 60.2105 59.5198 60.0082 59.4071C59.8067 59.2952 59.6627 59.2056 59.5776 59.1385C59.4926 59.0721 59.4276 58.9974 59.3836 58.9168C59.3396 58.8355 59.3172 58.7459 59.3172 58.6489C59.3172 58.4803 59.3821 58.3348 59.512 58.2131C59.6418 58.0907 59.8075 58.0303 60.0075 58.0303C60.1329 58.0303 60.2657 58.0609 60.406 58.1221C60.4709 58.1512 60.5164 58.1653 60.5433 58.1653C60.5732 58.1653 60.5978 58.1564 60.6172 58.1385C60.6358 58.1198 60.6515 58.0848 60.6635 58.0303H60.7269ZM62.7679 58.0833H63.5888V58.1474H63.5441C63.5142 58.1474 63.4702 58.1609 63.412 58.1877C63.3538 58.2139 63.3023 58.2527 63.2538 58.3027C63.2067 58.3519 63.1485 58.434 63.0791 58.5459L62.5135 59.4303V60.0295C62.5135 60.1743 62.5306 60.2646 62.5627 60.3012C62.6075 60.3497 62.6776 60.3736 62.7739 60.3736H62.8508V60.4377H61.8426V60.3736H61.9269C62.0276 60.3736 62.0985 60.3437 62.1418 60.2833C62.1672 60.2459 62.1799 60.1609 62.1799 60.0295V59.4788L61.5358 58.4833C61.4597 58.3683 61.4082 58.2967 61.3806 58.2683C61.3538 58.2392 61.2978 58.2049 61.212 58.1646C61.1888 58.1534 61.1552 58.1474 61.1112 58.1474V58.0833H62.1149V58.1474H62.0627C62.0082 58.1474 61.9582 58.1601 61.9127 58.1855C61.8672 58.2109 61.8441 58.2489 61.8441 58.2997C61.8441 58.3422 61.8791 58.4168 61.95 58.5258L62.4373 59.2848L62.9015 58.5594C62.9709 58.4504 63.0052 58.3691 63.0052 58.3161C63.0052 58.2833 62.997 58.2542 62.9806 58.2288C62.9635 58.2034 62.9396 58.1833 62.9082 58.1691C62.8769 58.1542 62.8306 58.1474 62.7679 58.1474V58.0833ZM64.8694 59.6527H63.9575L63.8 60.0213C63.7612 60.1124 63.7411 60.181 63.7411 60.2265C63.7411 60.2616 63.7582 60.2937 63.7926 60.3213C63.8261 60.3474 63.9 60.3653 64.0135 60.3736V60.4377H63.2709V60.3736C63.3694 60.3564 63.4329 60.334 63.462 60.3064C63.5209 60.2504 63.5858 60.1377 63.6575 59.9676L64.4858 58.0303H64.5441L65.3627 59.9885C65.4284 60.1459 65.4881 60.2474 65.5418 60.2952C65.5955 60.3415 65.6702 60.3676 65.7672 60.3736V60.4377H64.8388V60.3736C64.9321 60.3691 64.9955 60.3534 65.0291 60.3273C65.062 60.3004 65.0784 60.2676 65.0784 60.2295C65.0784 60.178 65.0553 60.0982 65.009 59.9877L64.8694 59.6527ZM64.8164 59.525L64.4202 58.575L64.0127 59.525H64.8164ZM68.209 60.4377H67.5784L66.7791 59.337C66.7217 59.3392 66.6747 59.3407 66.6388 59.3407C66.6239 59.3407 66.6082 59.34 66.5911 59.3392C66.5739 59.3385 66.5567 59.3377 66.5388 59.337V60.0221C66.5388 60.1698 66.5545 60.2616 66.5873 60.2974C66.6306 60.3482 66.6963 60.3736 66.7844 60.3736H66.8761V60.4377H65.8672V60.3736H65.956C66.0553 60.3736 66.1261 60.3415 66.1687 60.2765C66.1933 60.2415 66.2045 60.1556 66.2045 60.0221V58.4989C66.2045 58.3512 66.1888 58.2594 66.156 58.2236C66.1112 58.1728 66.0441 58.1474 65.956 58.1474H65.8672V58.0833H66.7247C66.9747 58.0833 67.159 58.1019 67.2769 58.1377C67.3963 58.1743 67.497 58.2422 67.5791 58.3392C67.662 58.437 67.703 58.5542 67.703 58.6892C67.703 58.8348 67.656 58.9601 67.562 59.0661C67.4672 59.1728 67.3217 59.2482 67.1232 59.2922L67.6105 59.9668C67.7217 60.1213 67.8172 60.2251 67.897 60.2758C67.9761 60.3273 68.0806 60.3594 68.209 60.3736V60.4377ZM66.5388 59.2265C66.5605 59.2265 66.5791 59.2265 66.5955 59.2273C66.6112 59.228 66.6247 59.2288 66.6344 59.2288C66.8567 59.2288 67.0239 59.1803 67.1366 59.0833C67.2493 58.9855 67.3052 58.8616 67.3052 58.7116C67.3052 58.5646 67.2597 58.4452 67.1694 58.3527C67.0784 58.2609 66.9575 58.2146 66.8082 58.2146C66.7418 58.2146 66.6515 58.2251 66.5388 58.2467V59.2265ZM69.8023 59.6527H68.8903L68.7329 60.0213C68.6941 60.1124 68.6739 60.181 68.6739 60.2265C68.6739 60.2616 68.6911 60.2937 68.7254 60.3213C68.759 60.3474 68.8329 60.3653 68.9463 60.3736V60.4377H68.2038V60.3736C68.3023 60.3564 68.3657 60.334 68.3948 60.3064C68.4538 60.2504 68.5187 60.1377 68.5903 59.9676L69.4187 58.0303H69.4769L70.2955 59.9885C70.3612 60.1459 70.4209 60.2474 70.4747 60.2952C70.5284 60.3415 70.603 60.3676 70.6993 60.3736V60.4377H69.7717V60.3736C69.865 60.3691 69.9284 60.3534 69.962 60.3273C69.9948 60.3004 70.0105 60.2676 70.0105 60.2295C70.0105 60.178 69.9873 60.0982 69.9418 59.9877L69.8023 59.6527ZM69.7493 59.525L69.353 58.575L68.9455 59.525H69.7493ZM71.8 59.1318L72.6694 59.993C72.812 60.137 72.9329 60.2348 73.0336 60.2862C73.1343 60.3377 73.2351 60.3668 73.3358 60.3736V60.4377H72.215V60.3736C72.2821 60.3736 72.3299 60.3624 72.3597 60.34C72.3896 60.3176 72.4038 60.2922 72.4038 60.2639C72.4038 60.2362 72.3978 60.2116 72.3873 60.19C72.3761 60.1676 72.3403 60.1265 72.2791 60.0668L71.4679 59.2624V60.0221C71.4679 60.1415 71.4754 60.2198 71.4911 60.2579C71.5023 60.287 71.5269 60.3116 71.5642 60.3325C71.6142 60.3601 71.6679 60.3736 71.7239 60.3736H71.8052V60.4377H70.797V60.3736H70.8799C70.9776 60.3736 71.0485 60.3452 71.0926 60.2892C71.1202 60.2519 71.1343 60.1631 71.1343 60.0221V58.4989C71.1343 58.3795 71.1261 58.3004 71.1112 58.2616C71.1 58.234 71.0761 58.2094 71.0396 58.1885C70.9888 58.1609 70.9358 58.1474 70.8799 58.1474H70.797V58.0833H71.8052V58.1474H71.7239C71.6687 58.1474 71.6157 58.1601 71.5642 58.187C71.5284 58.2056 71.503 58.2333 71.4888 58.2706C71.4746 58.3071 71.4679 58.3833 71.4679 58.4989V59.2206C71.4911 59.1982 71.5702 59.125 71.7052 59.0004C72.0485 58.6855 72.256 58.475 72.3276 58.3698C72.359 58.3228 72.3746 58.2825 72.3746 58.2482C72.3746 58.2213 72.362 58.1982 72.3381 58.1773C72.3135 58.1571 72.2724 58.1474 72.215 58.1474H72.1612V58.0833H73.0269V58.1474C72.9761 58.1482 72.9299 58.1556 72.8888 58.1683C72.847 58.181 72.7955 58.2056 72.7358 58.243C72.6754 58.2795 72.6015 58.3392 72.5142 58.4206C72.4888 58.4437 72.3709 58.5624 72.1605 58.7758L71.8 59.1318ZM74.9314 59.6527H74.0194L73.862 60.0213C73.8224 60.1124 73.8023 60.181 73.8023 60.2265C73.8023 60.2616 73.8194 60.2937 73.8538 60.3213C73.8881 60.3474 73.962 60.3653 74.0746 60.3736V60.4377H73.3329V60.3736C73.4306 60.3564 73.4941 60.334 73.5232 60.3064C73.5821 60.2504 73.6478 60.1377 73.7194 59.9676L74.547 58.0303H74.6052L75.4239 59.9885C75.4896 60.1459 75.5493 60.2474 75.6038 60.2952C75.6575 60.3415 75.7321 60.3676 75.8284 60.3736V60.4377H74.9V60.3736C74.9941 60.3691 75.0575 60.3534 75.0903 60.3273C75.1232 60.3004 75.1396 60.2676 75.1396 60.2295C75.1396 60.178 75.1164 60.0982 75.0702 59.9877L74.9314 59.6527ZM74.8776 59.525L74.4814 58.575L74.0739 59.525H74.8776ZM77.5306 58.0833L77.556 58.637H77.4903C77.4769 58.54 77.4597 58.4698 77.4381 58.4288C77.4023 58.3616 77.3545 58.3116 77.2948 58.2803C77.2351 58.2482 77.1567 58.2325 77.0597 58.2325H76.7284V60.0295C76.7284 60.1743 76.7441 60.2646 76.7754 60.3012C76.8187 60.3497 76.8866 60.3736 76.9776 60.3736H77.059V60.4377H76.0575V60.3736H76.1418C76.2426 60.3736 76.3135 60.3437 76.356 60.2833C76.3814 60.2459 76.3948 60.1609 76.3948 60.0295V58.2325H76.1127C76.0023 58.2325 75.9239 58.2407 75.8776 58.2571C75.8179 58.2788 75.7664 58.3206 75.7232 58.3833C75.6806 58.4459 75.6552 58.5303 75.647 58.637H75.5814L75.606 58.0833H77.5306ZM80.506 59.7877L80.5627 59.8004L80.3605 60.4377H78.5388V60.3736H78.6269C78.7261 60.3736 78.797 60.3415 78.8403 60.2773C78.8642 60.2407 78.8761 60.1556 78.8761 60.0221V58.4989C78.8761 58.3519 78.8597 58.2601 78.8276 58.2236C78.7829 58.1728 78.7157 58.1474 78.6269 58.1474H78.5388V58.0833H79.6038V58.1474C79.4791 58.1459 79.3918 58.1571 79.3403 58.1818C79.2903 58.2056 79.256 58.2362 79.2373 58.2721C79.2194 58.3086 79.2097 58.3967 79.2097 58.534V60.0183C79.2097 60.1153 79.2194 60.181 79.2373 60.2168C79.2515 60.2415 79.2732 60.2594 79.3023 60.2713C79.3306 60.2825 79.4209 60.2885 79.5732 60.2885H79.7448C79.9261 60.2885 80.0523 60.2758 80.1254 60.2489C80.1985 60.2221 80.2649 60.175 80.3254 60.1071C80.3851 60.04 80.4455 59.9333 80.506 59.7877ZM82.2635 59.6527H81.3515L81.1941 60.0213C81.1553 60.1124 81.1351 60.181 81.1351 60.2265C81.1351 60.2616 81.1523 60.2937 81.1866 60.3213C81.2202 60.3474 81.2941 60.3653 81.4075 60.3736V60.4377H80.6649V60.3736C80.7635 60.3564 80.8269 60.334 80.856 60.3064C80.9149 60.2504 80.9799 60.1377 81.0515 59.9676L81.8799 58.0303H81.9381L82.7567 59.9885C82.8224 60.1459 82.8821 60.2474 82.9358 60.2952C82.9896 60.3415 83.0642 60.3676 83.1605 60.3736V60.4377H82.2329V60.3736C82.3261 60.3691 82.3896 60.3534 82.4224 60.3273C82.456 60.3004 82.4717 60.2676 82.4717 60.2295C82.4717 60.178 82.4485 60.0982 82.4023 59.9877L82.2635 59.6527ZM82.2105 59.525L81.8135 58.575L81.4067 59.525H82.2105ZM84.653 60.4377L83.7441 58.4571V60.0295C83.7441 60.1743 83.7605 60.2646 83.7918 60.3012C83.8351 60.3497 83.9038 60.3736 83.9978 60.3736H84.0814V60.4377H83.2545V60.3736H83.3388C83.4396 60.3736 83.5105 60.3437 83.553 60.2833C83.5784 60.2459 83.5918 60.1609 83.5918 60.0295V58.4915C83.5918 58.3877 83.5799 58.3116 83.5567 58.2653C83.5403 58.2318 83.5097 58.2042 83.4664 58.181C83.4217 58.1586 83.3515 58.1474 83.2545 58.1474V58.0833H83.9291L84.7776 59.9236L85.6187 58.0833H86.2866V58.1474H86.2045C86.1023 58.1474 86.0306 58.1773 85.9881 58.2377C85.9627 58.275 85.9493 58.3601 85.9493 58.4915V60.0295C85.9493 60.1743 85.9657 60.2646 85.9985 60.3012C86.0418 60.3497 86.1105 60.3736 86.2045 60.3736H86.2866V60.4377H85.2784V60.3736H85.3627C85.465 60.3736 85.5358 60.3437 85.5769 60.2833C85.6023 60.2459 85.6157 60.1609 85.6157 60.0295V58.4571L84.7105 60.4377H84.653ZM87.0866 59.334V60.0221C87.0866 60.1698 87.1023 60.2616 87.1351 60.2974C87.1784 60.3482 87.2448 60.3736 87.3336 60.3736H87.4239V60.4377H86.4149V60.3736H86.5038C86.603 60.3736 86.6746 60.3415 86.7179 60.2765C86.7403 60.2415 86.7523 60.1556 86.7523 60.0221V58.4989C86.7523 58.3512 86.7373 58.2594 86.706 58.2236C86.6605 58.1728 86.5933 58.1474 86.5038 58.1474H86.4149V58.0833H87.2776C87.4888 58.0833 87.6545 58.1049 87.7761 58.1482C87.8978 58.1915 88 58.2653 88.0836 58.3683C88.1672 58.4713 88.2082 58.593 88.2082 58.734C88.2082 58.9258 88.1448 59.0825 88.0187 59.2027C87.8918 59.3228 87.7127 59.3833 87.4814 59.3833C87.4247 59.3833 87.3635 59.3788 87.2978 59.3706C87.2321 59.3631 87.1612 59.3504 87.0866 59.334ZM87.0866 59.2348C87.147 59.2459 87.2015 59.2549 87.2493 59.2601C87.2955 59.2661 87.3366 59.2691 87.3694 59.2691C87.4896 59.2691 87.5926 59.2228 87.6799 59.1295C87.7664 59.037 87.8105 58.9168 87.8105 58.7691C87.8105 58.6676 87.7896 58.5728 87.7485 58.4855C87.7067 58.3989 87.6478 58.334 87.5724 58.2907C87.4955 58.2474 87.409 58.225 87.3127 58.225C87.2538 58.225 87.1784 58.237 87.0866 58.2586V59.2348ZM90.0306 58.1474V58.0833H90.8582V58.1474H90.7694C90.6776 58.1474 90.606 58.1855 90.5567 58.2631C90.5321 58.2997 90.5202 58.3825 90.5202 58.5131V59.4668C90.5202 59.7034 90.4978 59.8862 90.4508 60.0161C90.4038 60.1467 90.3112 60.2586 90.1746 60.3512C90.0381 60.4445 89.8523 60.4907 89.6172 60.4907C89.3605 60.4907 89.1657 60.4467 89.0336 60.3571C88.9 60.2683 88.806 60.1482 88.7508 59.9982C88.7135 59.8952 88.6955 59.7019 88.6955 59.4183V58.4989C88.6955 58.3542 88.6754 58.2601 88.6358 58.2146C88.5963 58.1698 88.5314 58.1474 88.4426 58.1474H88.3545V58.0833H89.3702V58.1474H89.2799C89.1829 58.1474 89.1135 58.178 89.0724 58.2392C89.0433 58.2803 89.0291 58.3676 89.0291 58.4989V59.5243C89.0291 59.6153 89.0373 59.7206 89.0538 59.8385C89.0709 59.9564 89.1015 60.0482 89.1455 60.1146C89.1896 60.1803 89.253 60.2348 89.3351 60.278C89.4179 60.3206 89.5194 60.3415 89.6396 60.3415C89.7933 60.3415 89.9314 60.3079 90.0523 60.2415C90.1739 60.1743 90.2567 60.0877 90.3008 59.984C90.3455 59.8788 90.3679 59.7012 90.3679 59.4519V58.4989C90.3679 58.3519 90.3515 58.2601 90.3194 58.2236C90.2747 58.1728 90.2075 58.1474 90.1187 58.1474H90.0306ZM90.85 58.0833H91.4829L92.9254 59.8512V58.4915C92.9254 58.3467 92.9082 58.2564 92.8761 58.2198C92.8329 58.1713 92.7642 58.1474 92.6709 58.1474H92.5881V58.0833H93.415V58.1474H93.3314C93.2299 58.1474 93.159 58.1773 93.1164 58.2377C93.0911 58.275 93.0776 58.3601 93.0776 58.4915V60.4758H93.015L91.4657 58.5795V60.0295C91.4657 60.1743 91.4814 60.2646 91.5127 60.3012C91.5575 60.3497 91.6261 60.3736 91.7187 60.3736H91.803V60.4377H90.9754V60.3736H91.0582C91.1605 60.3736 91.2321 60.3437 91.2747 60.2833C91.3 60.2459 91.3127 60.1609 91.3127 60.0295V58.3922C91.2448 58.3124 91.1926 58.2601 91.1582 58.234C91.1224 58.2086 91.0709 58.1855 91.003 58.1624C90.9694 58.1527 90.9179 58.1474 90.85 58.1474V58.0833ZM95.6388 58.0303L95.6993 58.7721H95.6351C95.5739 58.5885 95.4948 58.4497 95.3985 58.3564C95.2582 58.2221 95.0791 58.1542 94.8605 58.1542C94.562 58.1542 94.3351 58.2728 94.1791 58.5101C94.0485 58.7094 93.9836 58.9482 93.9836 59.2243C93.9836 59.4489 94.0269 59.6527 94.1142 59.8377C94.2008 60.0228 94.3142 60.1586 94.4545 60.2445C94.5948 60.3303 94.7388 60.3736 94.8866 60.3736C94.9732 60.3736 95.0575 60.3624 95.1381 60.3407C95.2187 60.3183 95.297 60.2862 95.3724 60.243V59.5609C95.3724 59.4422 95.3635 59.3646 95.3455 59.3288C95.3276 59.2922 95.2993 59.2639 95.262 59.2452C95.2239 59.2258 95.1582 59.2161 95.0635 59.2161V59.1519H95.9724V59.2161H95.9291C95.8388 59.2161 95.7776 59.2459 95.7441 59.3064C95.7209 59.3489 95.7097 59.434 95.7097 59.5609V60.2818C95.5769 60.3542 95.4455 60.4071 95.3164 60.4407C95.1873 60.4743 95.0433 60.4907 94.8851 60.4907C94.4314 60.4907 94.0866 60.3452 93.8515 60.0534C93.6747 59.8348 93.5858 59.5825 93.5858 59.2974C93.5858 59.09 93.6358 58.8915 93.7351 58.7019C93.853 58.4765 94.0149 58.3027 94.2202 58.181C94.3918 58.0803 94.5948 58.0303 94.8299 58.0303C94.9149 58.0303 94.9926 58.037 95.0627 58.0512C95.1329 58.0653 95.2314 58.0952 95.3597 58.143C95.4246 58.1668 95.4679 58.1795 95.4903 58.1795C95.512 58.1795 95.5299 58.1691 95.5463 58.1489C95.5612 58.1288 95.5709 58.0892 95.5746 58.0303H95.6388Z" fill="#DD1717"/>
</g>
</g>
<rect x="1.5" y="1" width="110" height="110" rx="9" stroke="#CCCCCC" stroke-width="2"/>
<defs>
<clipPath id="clip0_421_561">
<rect x="2.5" y="2" width="108" height="108" rx="8" fill="white"/>
</clipPath>
<clipPath id="clip1_421_561">
<rect width="80" height="17.9104" fill="white" transform="translate(16.5 47)"/>
</clipPath>
</defs>
</svg>
