<svg width="113" height="112" viewBox="0 0 113 112" fill="none" xmlns="http://www.w3.org/2000/svg">
<g clip-path="url(#clip0_421_549)">
<rect x="2.5" y="2" width="108" height="108" rx="8" fill="white"/>
<g clip-path="url(#clip1_421_549)">
<path fill-rule="evenodd" clip-rule="evenodd" d="M25.9712 58.4572V45.2147C25.9712 45.2147 28.8683 44.6599 30.8943 45.334C32.9211 46.0081 35.4621 47.4183 35.4621 50.2571C35.4621 52.716 33.7392 54.1128 31.6939 55.045C29.6494 55.9762 28.4548 55.5574 27.7983 55.7164C27.1428 55.8764 26.6056 56.0752 26.3882 56.6698C26.1709 57.2644 25.9712 58.4572 25.9712 58.4572Z" fill="#DAB741"/>
<path fill-rule="evenodd" clip-rule="evenodd" d="M16.52 52.6567V65.8992C16.52 65.8992 19.4171 66.454 21.4431 65.7799C23.4699 65.1058 26.011 63.6956 26.011 60.8568C26.011 58.018 24.129 56.7731 22.5219 56.1122C20.4438 55.257 19.0036 55.5574 18.3472 55.3975C17.6907 55.2384 17.1544 55.0388 16.937 54.4441C16.7197 53.8495 16.52 52.6567 16.52 52.6567ZM37.906 52.6567V65.8992C37.906 65.8992 35.0098 66.454 32.983 65.7799C30.9561 65.1058 28.4151 63.6956 28.4151 60.8568C28.4151 58.018 30.2025 56.9631 32.247 56.0318C34.2915 55.1006 35.4224 55.5574 36.0789 55.3975C36.7353 55.2384 37.2716 55.0388 37.489 54.4441C37.7063 53.8495 37.906 52.6567 37.906 52.6567Z" fill="#2A82C5"/>
<path fill-rule="evenodd" clip-rule="evenodd" d="M44.4 64.8009C44.6288 64.8831 44.8479 64.9449 45.0591 64.9865C45.2694 65.028 45.4779 65.0483 45.6838 65.0483C46.3517 65.0483 46.8695 64.8628 47.2379 64.4917C47.6063 64.1197 47.791 63.5931 47.791 62.9102C47.791 62.2449 47.6125 61.72 47.2556 61.3348C46.8986 60.9505 46.4153 60.7579 45.8075 60.7579C45.5645 60.7579 45.3277 60.7967 45.0962 60.8745C44.8656 60.9522 44.6332 61.0715 44.4 61.2323V64.8009ZM43.1198 65.7834V56.4674H44.4V60.0846C44.6385 59.915 44.893 59.7904 45.166 59.71C45.439 59.6305 45.7421 59.5898 46.0769 59.5898C47.002 59.5898 47.7442 59.8911 48.3026 60.4937C48.8619 61.0963 49.141 61.8976 49.141 62.896C49.141 63.9545 48.8274 64.7726 48.1992 65.3496C47.5719 65.9274 46.6848 66.2155 45.5398 66.2155C45.1545 66.2155 44.764 66.1801 44.3673 66.1094C43.9706 66.0379 43.5553 65.9292 43.1198 65.7834ZM53.4951 64.7824V62.9243C52.6416 63.1894 52.0523 63.435 51.7289 63.6585C51.4056 63.8838 51.2439 64.1445 51.2439 64.4422C51.2439 64.7028 51.3278 64.9043 51.4948 65.0465C51.6627 65.1879 51.8977 65.2595 52.2007 65.2595C52.426 65.2595 52.646 65.2188 52.8616 65.1384C53.0772 65.058 53.2884 64.9388 53.4951 64.7824ZM53.5428 65.5546C53.2221 65.7799 52.9182 65.9416 52.6319 66.0396C52.3456 66.1386 52.0373 66.1881 51.7077 66.1881C51.1396 66.1881 50.6952 66.0511 50.3745 65.779C50.0537 65.506 49.8929 65.1314 49.8929 64.6543C49.8929 64.2054 50.067 63.8114 50.4151 63.4721C50.7632 63.1328 51.2872 62.8465 51.9878 62.6133L53.4951 62.1079C53.4995 62.0717 53.5031 62.0355 53.5048 61.9983C53.5075 61.9621 53.5084 61.9091 53.5084 61.8411C53.5084 61.462 53.4156 61.189 53.2301 61.022C53.0445 60.855 52.7379 60.772 52.3121 60.772C51.9586 60.772 51.5946 60.8462 51.2182 60.9946C50.8427 61.144 50.4664 61.3648 50.09 61.6582V60.408C50.4151 60.142 50.78 59.9415 51.1829 59.8072C51.5858 59.672 52.0143 59.604 52.4676 59.604C53.2831 59.604 53.8759 59.7833 54.247 60.1429C54.6181 60.5025 54.8036 61.0821 54.8036 61.8835V64.5694C54.8036 64.7947 54.8231 64.9538 54.8619 65.0483C54.9008 65.142 54.9662 65.1888 55.0581 65.1888C55.1358 65.1888 55.2171 65.1685 55.3019 65.1269C55.3868 65.0854 55.5255 64.9891 55.7181 64.8371V65.6102C55.4893 65.8073 55.2578 65.9531 55.0245 66.0467C54.7913 66.1404 54.5492 66.1881 54.2974 66.1881C54.0553 66.1881 53.8733 66.1377 53.7522 66.0361C53.6312 65.9354 53.5614 65.7746 53.5428 65.5546ZM56.4717 66.075V59.7312H57.7379V60.5025C58.0542 60.2012 58.3687 59.9812 58.6824 59.8416C58.996 59.702 59.3344 59.6322 59.6958 59.6322C60.3832 59.6322 60.9248 59.831 61.3215 60.2295C61.7182 60.6271 61.9161 61.174 61.9161 61.8693V66.075H60.65V62.1927C60.65 61.6794 60.5413 61.3004 60.324 61.0547C60.1057 60.81 59.7682 60.6872 59.3106 60.6872C58.9854 60.6872 58.7 60.7499 58.4553 60.8763C58.2105 61.0026 57.9711 61.2093 57.7379 61.4983V66.075H56.4717ZM69.1311 59.7312L66.4734 62.6283L69.6656 66.075H67.9347L64.8388 62.6972L67.5716 59.7312H69.1311ZM63.5312 66.075V56.4674H64.7973V66.075H63.5312ZM73.4012 64.7824V62.9243C72.5468 63.1894 71.9584 63.435 71.635 63.6585C71.3116 63.8838 71.1499 64.1445 71.1499 64.4422C71.1499 64.7028 71.2339 64.9043 71.4009 65.0465C71.5687 65.1879 71.8038 65.2595 72.1068 65.2595C72.3312 65.2595 72.5521 65.2188 72.7677 65.1384C72.9833 65.058 73.1944 64.9388 73.4012 64.7824ZM73.4489 65.5546C73.1282 65.7799 72.8242 65.9416 72.538 66.0396C72.2517 66.1386 71.9434 66.1881 71.6138 66.1881C71.0457 66.1881 70.6013 66.0511 70.2805 65.779C69.9598 65.506 69.799 65.1314 69.799 64.6543C69.799 64.2054 69.9731 63.8114 70.3212 63.4721C70.6684 63.1328 71.1932 62.8465 71.893 62.6133L73.4012 62.1079C73.4056 62.0717 73.4091 62.0355 73.4109 61.9983C73.4136 61.9621 73.4144 61.9091 73.4144 61.8411C73.4144 61.462 73.3217 61.189 73.1361 61.022C72.9506 60.855 72.644 60.772 72.2181 60.772C71.8647 60.772 71.4998 60.8462 71.1243 60.9946C70.7479 61.144 70.3724 61.3648 69.996 61.6582V60.408C70.3212 60.142 70.6852 59.9415 71.089 59.8072C71.4919 59.672 71.9195 59.604 72.3736 59.604C73.1883 59.604 73.782 59.7833 74.1531 60.1429C74.5242 60.5025 74.7088 61.0821 74.7088 61.8835V64.5694C74.7088 64.7947 74.7291 64.9538 74.768 65.0483C74.8069 65.142 74.8723 65.1888 74.9633 65.1888C75.0419 65.1888 75.1232 65.1685 75.208 65.1269C75.2928 65.0854 75.4307 64.9891 75.6233 64.8371V65.6102C75.3953 65.8073 75.1638 65.9531 74.9306 66.0467C74.6973 66.1404 74.4552 66.1881 74.2034 66.1881C73.9613 66.1881 73.7793 66.1377 73.6583 66.0361C73.5364 65.9354 73.4675 65.7746 73.4489 65.5546ZM76.4193 66.075V56.4674H77.6855V66.075H76.4193ZM82.8639 65.8788C82.6668 65.9884 82.4557 66.0697 82.2295 66.1227C82.0033 66.1757 81.7594 66.2022 81.4988 66.2022C80.7858 66.2022 80.2839 66.0326 79.9941 65.6933C79.7034 65.354 79.5585 64.7355 79.5585 63.837V60.8277H78.4753V60.7048L80.6948 58.2539H80.8388V59.7312H82.8223V60.8277H80.8388V63.7416C80.8388 64.2681 80.9042 64.6083 81.0341 64.762C81.1648 64.9149 81.4087 64.9918 81.7656 64.9918C81.9574 64.9918 82.1447 64.967 82.3284 64.9167C82.5113 64.8663 82.6898 64.7877 82.8639 64.6825V65.8788ZM83.8446 57.8599C83.8446 57.6575 83.9135 57.487 84.0513 57.3492C84.1892 57.2113 84.3597 57.1424 84.562 57.1424C84.7643 57.1424 84.9349 57.2113 85.0727 57.3492C85.2105 57.487 85.2794 57.6575 85.2794 57.8599C85.2794 58.0622 85.2105 58.2327 85.0727 58.3705C84.9349 58.5084 84.7643 58.5773 84.562 58.5773C84.3597 58.5773 84.1892 58.5084 84.0513 58.3705C83.9135 58.2327 83.8446 58.0622 83.8446 57.8599ZM83.9294 66.075V59.7312H85.1955V66.075H83.9294ZM86.8707 66.075V59.7312H88.1377V60.5025C88.4531 60.2012 88.7685 59.9812 89.0822 59.8416C89.3958 59.702 89.7334 59.6322 90.0956 59.6322C90.563 59.6322 90.9526 59.7179 91.2672 59.8893C91.5808 60.0607 91.845 60.3311 92.0606 60.7013C92.4493 60.3179 92.8142 60.0431 93.1553 59.8787C93.4954 59.7144 93.8586 59.6322 94.2429 59.6322C94.9338 59.6322 95.479 59.831 95.8792 60.2295C96.2795 60.6271 96.48 61.174 96.48 61.8693V66.075H95.1998V62.1927C95.1998 61.675 95.0929 61.2942 94.88 61.0512C94.667 60.8091 94.3339 60.6872 93.8807 60.6872C93.5467 60.6872 93.256 60.7499 93.0086 60.8763C92.7612 61.0026 92.5209 61.2093 92.2877 61.4983V66.075H91.0498V62.1927C91.0498 61.6794 90.9412 61.3004 90.7229 61.0547C90.5056 60.81 90.1681 60.6872 89.7104 60.6872C89.3852 60.6872 89.0999 60.7499 88.8551 60.8763C88.6104 61.0026 88.3709 61.2093 88.1377 61.4983V66.075H86.8707Z" fill="#2A82C5"/>
</g>
</g>
<rect x="1.5" y="1" width="110" height="110" rx="9" stroke="#CCCCCC" stroke-width="2"/>
<defs>
<clipPath id="clip0_421_549">
<rect x="2.5" y="2" width="108" height="108" rx="8" fill="white"/>
</clipPath>
<clipPath id="clip1_421_549">
<rect width="80" height="21.2155" fill="white" transform="translate(16.5 45)"/>
</clipPath>
</defs>
</svg>
