<svg width="113" height="112" viewBox="0 0 113 112" fill="none" xmlns="http://www.w3.org/2000/svg">
<g clip-path="url(#clip0_528_594)">
<rect x="2.5" y="2" width="108" height="108" rx="8" fill="white"/>
<path fill-rule="evenodd" clip-rule="evenodd" d="M48.935 29H67.8022C75.4492 29 81.7072 33.5966 81.7072 39.2122C81.7072 42.1009 80.0679 44.5532 77.8372 46.2633C80.2318 48.0998 81.7072 50.5875 81.7072 53.3144C81.7072 60.1374 73.6304 63.5289 67.8022 63.5289H50.7448V57.2686L68.1721 57.2265C69.4237 57.2221 72.4386 55.5009 72.4386 53.3144C72.4386 51.3783 69.993 49.4245 68.1721 49.4245H50.7448V43.1642L68.3515 43.1111C69.6895 42.9626 72.4386 41.2968 72.4386 39.2122C72.4386 36.6559 70.6089 35.3223 68.1721 35.3223H48.935C47.196 35.3223 44.8279 33.9001 44.8279 32.1611C44.8279 30.338 47.3223 29 48.935 29Z" fill="#00923F"/>
<path fill-rule="evenodd" clip-rule="evenodd" d="M64.065 70.6774H45.1979C37.5509 70.6774 31.2929 66.083 31.2929 60.4652C31.2929 57.5765 32.9321 55.1265 35.1629 53.4141C32.7682 51.5777 31.2929 49.09 31.2929 46.363C31.2929 39.5423 39.3696 36.1508 45.1979 36.1508H62.2552V42.411L44.8279 42.4531C43.5763 42.4553 40.5636 44.1788 40.5636 46.363C40.5636 48.2991 43.007 50.253 44.8279 50.253H62.2552V56.5132L44.6485 56.5664C43.3105 56.717 40.5636 58.3807 40.5636 60.4652C40.5636 63.0216 42.3912 64.3574 44.8279 64.3574H64.065C65.804 64.3574 68.1721 65.7796 68.1721 67.5185C68.1721 69.3417 65.6777 70.6774 64.065 70.6774Z" fill="#DF4C18"/>
<path fill-rule="evenodd" clip-rule="evenodd" d="M17.5185 79.3988H16.515V73.9117L17.5916 73.3247V75.4912C18.048 75.0991 18.6283 74.9019 19.3328 74.9019C19.7227 74.9019 20.0948 74.9573 20.4426 75.0658C20.7926 75.1744 21.0784 75.3272 21.3044 75.5244C21.5303 75.7238 21.7075 75.9608 21.8338 76.2399C21.9623 76.5168 22.0243 76.8136 22.0243 77.1304C22.0243 77.8836 21.7563 78.4662 21.2202 78.876C20.6797 79.2881 20.035 79.4919 19.2818 79.4919C18.5331 79.4919 17.9461 79.2748 17.5185 78.845V79.3988ZM17.5074 77.1659C17.5074 77.6909 17.6116 78.0719 17.8176 78.3067C18.1565 78.69 18.6128 78.8805 19.191 78.8805C19.6629 78.8805 20.0683 78.7409 20.4094 78.4574C20.7528 78.1738 20.9233 77.7529 20.9233 77.1925C20.9233 76.6187 20.7594 76.1956 20.4316 75.9231C20.1037 75.6507 19.705 75.5133 19.2398 75.5133C18.7679 75.5133 18.3625 75.6551 18.0214 75.9386C17.678 76.22 17.5074 76.6298 17.5074 77.1659ZM27.4893 78.8472C27.0883 79.0843 26.7029 79.2482 26.3329 79.3457C25.9652 79.4431 25.5687 79.4919 25.1434 79.4919C24.4456 79.4919 23.9095 79.3745 23.5329 79.1396C23.1585 78.9048 22.9702 78.6036 22.9702 78.2358C22.9702 78.021 23.0411 77.826 23.1829 77.6466C23.3246 77.4694 23.5107 77.3276 23.7389 77.219C23.9693 77.1127 24.2285 77.0307 24.5142 76.9754C24.7269 76.9377 25.0481 76.9 25.4756 76.8646C26.344 76.7937 26.9864 76.7073 27.3963 76.6076C27.4007 76.5057 27.4029 76.4415 27.4029 76.4149C27.4029 76.1114 27.301 75.8988 27.0972 75.7725C26.8225 75.6041 26.4105 75.5222 25.8677 75.5222C25.3605 75.5222 24.9839 75.5842 24.7446 75.706C24.5009 75.8301 24.3237 76.0472 24.2063 76.3617L23.1541 76.2598C23.2493 75.9475 23.4066 75.695 23.6281 75.5022C23.8474 75.3095 24.1664 75.1633 24.5829 75.0592C24.9972 74.9551 25.4801 74.9019 26.0272 74.9019C26.57 74.9019 27.013 74.9462 27.3542 75.0348C27.6931 75.1256 27.9434 75.2342 28.1029 75.3693C28.2624 75.5044 28.3754 75.6728 28.4396 75.8788C28.4751 76.0051 28.4928 76.2355 28.4928 76.5633V77.5535C28.4928 78.2447 28.5149 78.6811 28.5593 78.8672C28.6036 79.0533 28.6922 79.2283 28.8229 79.3988H27.6975C27.589 79.2415 27.5203 79.0577 27.4893 78.8472ZM27.4029 77.1925C27.0108 77.3032 26.4238 77.3963 25.6396 77.4738C25.1943 77.5159 24.8797 77.5668 24.6959 77.6222C24.5142 77.6776 24.3725 77.7573 24.2728 77.8615C24.1731 77.9678 24.1221 78.0852 24.1221 78.2159C24.1221 78.4108 24.2285 78.577 24.4478 78.7099C24.6671 78.8406 24.9839 78.907 25.4025 78.907C25.8168 78.907 26.1867 78.845 26.5124 78.7188C26.8336 78.5947 27.0728 78.4241 27.2235 78.207C27.3409 78.0387 27.3963 77.7906 27.3963 77.4649L27.4029 77.1925ZM30.1476 79.3988V74.9949H31.1156V75.6219C31.5808 75.1412 32.2543 74.9019 33.1337 74.9019C33.5169 74.9019 33.8692 74.9506 34.1882 75.0459C34.5094 75.1411 34.7508 75.2652 34.9103 75.4203C35.0676 75.5753 35.1806 75.757 35.2448 75.9696C35.2825 76.1092 35.3024 76.3507 35.3024 76.6962V79.3988H34.2258V76.7228C34.2258 76.4193 34.186 76.1912 34.1018 76.0427C34.0176 75.8921 33.8692 75.7725 33.6565 75.6817C33.4438 75.5931 33.1935 75.5465 32.9078 75.5465C32.4492 75.5465 32.0571 75.6484 31.7226 75.85C31.3903 76.0516 31.2264 76.4348 31.2264 76.9975V79.3988H30.1476ZM36.9616 79.3988V73.9117L38.0405 73.3247V76.7849L40.588 74.9949H41.9792L39.5535 76.632L42.225 79.3988H40.8981L38.787 77.1482L38.0405 77.6532V79.3988H36.9616Z" fill="#1F1A17"/>
<path fill-rule="evenodd" clip-rule="evenodd" d="M45.4881 79.2947V74.1775L47.1096 73.2959V75.4601C47.6103 75.057 48.2017 74.8554 48.8885 74.8554C49.6372 74.8554 50.2531 75.0459 50.7426 75.4313C51.2322 75.8146 51.4759 76.3662 51.4759 77.0861C51.4759 77.8282 51.2278 78.3998 50.7293 78.8029C50.2309 79.2039 49.6217 79.4033 48.9106 79.4033C48.5584 79.4033 48.215 79.339 47.8739 79.2127C47.5305 79.0843 47.2381 78.9004 46.9922 78.6567V79.2947H45.4881ZM47.0853 77.0374C47.0853 77.4893 47.1872 77.8238 47.3865 78.0387C47.6701 78.3466 48.0422 78.4994 48.5097 78.4994C48.8685 78.4994 49.1742 78.3909 49.429 78.1738C49.6815 77.9545 49.8078 77.6111 49.8078 77.1437C49.8078 76.6453 49.6793 76.2864 49.4246 76.0649C49.1698 75.8456 48.8442 75.7348 48.4476 75.7348C48.0555 75.7348 47.7321 75.8434 47.4751 76.0583C47.216 76.2731 47.0853 76.5988 47.0853 77.0374ZM56.3383 77.9213L57.9599 78.114C57.7516 78.5349 57.4216 78.8539 56.9741 79.0754C56.5244 79.2947 55.9639 79.4033 55.2905 79.4033C54.2228 79.4033 53.4319 79.1574 52.9224 78.6634C52.517 78.2668 52.3132 77.7662 52.3132 77.1614C52.3132 76.4415 52.5813 75.8766 53.1107 75.469C53.6424 75.0592 54.3136 74.8554 55.1266 74.8554C56.037 74.8554 56.757 75.068 57.2864 75.4956C57.8137 75.9231 58.0662 76.5788 58.0418 77.4605H53.9835C53.9946 77.8016 54.1253 78.0675 54.3756 78.2558C54.6237 78.4463 54.9361 78.5415 55.306 78.5415C55.5608 78.5415 55.7734 78.4928 55.9462 78.3953C56.119 78.2979 56.2497 78.1384 56.3383 77.9213ZM56.4336 76.7561C56.4203 76.4238 56.3006 76.169 56.0703 75.9962C55.8399 75.8212 55.5585 75.7348 55.2285 75.7348C54.874 75.7348 54.5816 75.8279 54.3512 76.0095C54.1209 76.1934 54.0079 76.4437 54.0123 76.7561H56.4336ZM64.9556 79.2947H63.334V77.0795C63.334 76.6098 63.2986 76.3064 63.2277 76.1712C63.1568 76.0317 63.046 75.9253 62.8888 75.85C62.7293 75.7725 62.541 75.7348 62.3194 75.7348C62.0359 75.7348 61.7811 75.7902 61.5552 75.8988C61.3292 76.0073 61.1764 76.1513 61.0922 76.3307C61.008 76.5102 60.9659 76.8424 60.9659 77.3298V79.2947H59.3444V74.9462H60.8485V75.5842C61.3868 75.0968 62.0625 74.8554 62.8821 74.8554C63.241 74.8554 63.5711 74.9019 63.8679 74.9927C64.167 75.0835 64.3929 75.201 64.5435 75.3405C64.6986 75.4845 64.8049 75.644 64.8647 75.8234C64.9246 76.0051 64.9556 76.2621 64.9556 76.5966V79.2947ZM66.4442 79.5716L68.3006 79.7311C68.3338 79.8862 68.4047 79.9925 68.5155 80.0501C68.6705 80.1343 68.912 80.1742 69.2443 80.1742C69.6674 80.1742 69.9864 80.1299 70.199 80.039C70.3408 79.9792 70.4494 79.884 70.5225 79.7488C70.5712 79.6536 70.5978 79.4764 70.5978 79.2216L70.6044 78.5858C70.1149 79.0599 69.5012 79.2947 68.7591 79.2947C67.9351 79.2947 67.2794 79.0488 66.7987 78.5548C66.4198 78.1649 66.2315 77.6798 66.2315 77.0994C66.2315 76.3706 66.4797 75.8146 66.9737 75.4313C67.4699 75.0481 68.0857 74.8554 68.8234 74.8554C69.5832 74.8554 70.2101 75.0902 70.7041 75.562V74.9462H72.2193V78.845C72.2193 79.359 72.1595 79.7422 72.0399 79.9947C71.9203 80.2495 71.7519 80.4466 71.537 80.5928C71.32 80.7368 71.032 80.852 70.6731 80.9318C70.312 81.0137 69.8557 81.0558 69.3063 81.0558C68.2651 81.0558 67.5275 80.9273 67.0911 80.6748C66.6547 80.4201 66.4376 80.1011 66.4376 79.7112C66.4376 79.6735 66.4398 79.627 66.4442 79.5716ZM67.8996 77.033C67.8996 77.4937 68.0259 77.8304 68.2762 78.0453C68.5288 78.258 68.8389 78.3665 69.2088 78.3665C69.6031 78.3665 69.9376 78.2558 70.2101 78.0365C70.4848 77.8172 70.6199 77.4937 70.6199 77.0618C70.6199 76.6121 70.4914 76.2798 70.2278 76.0605C69.9687 75.8434 69.6364 75.7348 69.2354 75.7348C68.8477 75.7348 68.5288 75.8434 68.2762 76.056C68.0259 76.2687 67.8996 76.5943 67.8996 77.033ZM73.7656 79.2947V74.1775L75.3871 73.2959V76.4791L77.2878 74.9462H79.2859L77.1925 76.5367L79.441 79.2947H77.6888L76.1403 77.3342L75.3871 77.9035V79.2947H73.7656ZM84.4652 79.2947V78.6456C84.2414 78.876 83.9468 79.0599 83.5835 79.1995C83.218 79.3368 82.8325 79.4033 82.4294 79.4033C82.0151 79.4033 81.6429 79.339 81.3173 79.2127C80.9872 79.0821 80.7502 78.9004 80.604 78.67C80.4556 78.4374 80.3847 78.1162 80.3847 77.7042V74.9462H82.004V76.9488C82.004 77.5624 82.035 77.9368 82.0949 78.0741C82.1547 78.2137 82.2632 78.3244 82.4227 78.4042C82.58 78.4839 82.7816 78.5238 83.0275 78.5238C83.3044 78.5238 83.5525 78.4706 83.774 78.3621C83.9955 78.2558 84.144 78.1206 84.2259 77.9611C84.3057 77.7994 84.3477 77.4095 84.3477 76.7849V74.9462H85.9693V79.2947H84.4652ZM87.6352 79.2947V74.1775L89.2567 73.2959V79.2947H87.6352ZM94.9831 79.2947V78.6456C94.7571 78.876 94.4625 79.0599 94.0992 79.1995C93.7337 79.3368 93.3483 79.4033 92.9451 79.4033C92.5308 79.4033 92.1609 79.339 91.833 79.2127C91.503 79.0821 91.2659 78.9004 91.1197 78.67C90.9735 78.4374 90.9004 78.1162 90.9004 77.7042V74.9462H92.5198V76.9488C92.5198 77.5624 92.5508 77.9368 92.6106 78.0741C92.6704 78.2137 92.7789 78.3244 92.9384 78.4042C93.0957 78.4839 93.2973 78.5238 93.5432 78.5238C93.8201 78.5238 94.0682 78.4706 94.2897 78.3621C94.5112 78.2558 94.6597 78.1206 94.7416 77.9611C94.8214 77.7994 94.8635 77.4095 94.8635 76.7849V74.9462H96.485V79.2947H94.9831Z" fill="#1F1A17"/>
<path d="M17.246 81.5144L17.2793 81.6938C17.2128 81.7071 17.153 81.7138 17.0998 81.7138C17.0157 81.7138 16.9492 81.7005 16.9005 81.6783C16.8539 81.6539 16.8207 81.6229 16.803 81.5853C16.7831 81.5454 16.7742 81.4656 16.7742 81.3438V80.646H16.5992V80.4887H16.7742V80.1897L17.009 80.0678V80.4887H17.246V80.646H17.009V81.3549C17.009 81.4125 17.0134 81.4501 17.0223 81.4679C17.0312 81.4834 17.0445 81.4967 17.0622 81.5077C17.0821 81.5166 17.1087 81.521 17.1441 81.521C17.1685 81.521 17.204 81.5188 17.246 81.5144Z" fill="#1F1A17"/>
<path d="M49.5154 81.5144L49.5486 81.6938C49.4822 81.7071 49.4223 81.7138 49.3714 81.7138C49.285 81.7138 49.2185 81.7005 49.172 81.6783C49.1255 81.6539 49.0923 81.6229 49.0723 81.5853C49.0524 81.5454 49.0435 81.4656 49.0435 81.3438V80.646H48.8685V80.4887H49.0435V80.1897L49.2806 80.0678V80.4887H49.5154V80.646H49.2806V81.3549C49.2806 81.4125 49.285 81.4501 49.2916 81.4679C49.3005 81.4834 49.3138 81.4967 49.3315 81.5077C49.3515 81.5166 49.378 81.521 49.4135 81.521C49.4401 81.521 49.4733 81.5188 49.5154 81.5144Z" fill="#1F1A17"/>
<path d="M19.8977 81.5454C19.7825 81.6096 19.6717 81.6562 19.5654 81.6827C19.4591 81.7093 19.3439 81.7226 19.222 81.7226C19.0204 81.7226 18.8654 81.6894 18.7568 81.6251C18.6483 81.5609 18.5951 81.4789 18.5951 81.377C18.5951 81.3194 18.6151 81.2641 18.6549 81.2153C18.697 81.1666 18.7502 81.1289 18.8166 81.0979C18.8831 81.0691 18.9562 81.047 19.0404 81.0315C19.1002 81.0204 19.1932 81.0115 19.3173 81.0004C19.5676 80.9805 19.7537 80.9584 19.8711 80.9318C19.8733 80.903 19.8733 80.8853 19.8733 80.8786C19.8733 80.7944 19.8445 80.7368 19.7847 80.7014C19.705 80.6549 19.5875 80.6327 19.4303 80.6327C19.2841 80.6327 19.1755 80.6504 19.1068 80.6837C19.036 80.7169 18.985 80.7767 18.9518 80.8631L18.6483 80.8343C18.6749 80.7501 18.7214 80.6792 18.7834 80.6283C18.8477 80.5751 18.9385 80.5352 19.0603 80.5064C19.1799 80.4776 19.3195 80.4621 19.4768 80.4621C19.6319 80.4621 19.7603 80.4754 19.8578 80.4998C19.9575 80.5242 20.0284 80.5552 20.0749 80.5906C20.1214 80.6283 20.1524 80.6748 20.1724 80.7302C20.1812 80.7656 20.1879 80.8277 20.1879 80.9185V81.191C20.1879 81.3792 20.1945 81.4989 20.2056 81.5498C20.2189 81.6008 20.2455 81.6495 20.2831 81.696H19.9575C19.9265 81.6539 19.9065 81.603 19.8977 81.5454ZM19.8733 81.0913C19.7603 81.1223 19.5898 81.1467 19.3638 81.1688C19.2353 81.1799 19.1445 81.1932 19.0913 81.2087C19.0404 81.2242 18.9983 81.2463 18.9695 81.2751C18.9407 81.3039 18.9274 81.3372 18.9274 81.3726C18.9274 81.4258 18.9584 81.4723 19.0204 81.5077C19.0847 81.5432 19.1755 81.5609 19.2951 81.5609C19.4148 81.5609 19.5211 81.5454 19.6163 81.5099C19.7094 81.4767 19.7781 81.428 19.8201 81.3704C19.8556 81.3239 19.8711 81.2552 19.8711 81.1666L19.8733 81.0913Z" fill="#1F1A17"/>
<path d="M42.1386 81.5321C42.0235 81.5963 41.9127 81.6429 41.8064 81.6694C41.7 81.696 41.5848 81.7093 41.463 81.7093C41.2614 81.7093 41.1063 81.6761 40.9978 81.6119C40.8915 81.5476 40.8361 81.4656 40.8361 81.3637C40.8361 81.3061 40.856 81.253 40.8981 81.202C40.938 81.1533 40.9934 81.1156 41.0576 81.0868C41.1241 81.0558 41.1994 81.0337 41.2814 81.0182C41.3434 81.0093 41.4364 80.9982 41.5583 80.9872C41.8086 80.9694 41.9947 80.9451 42.1121 80.9185C42.1143 80.8897 42.1143 80.872 42.1143 80.8653C42.1143 80.7811 42.0855 80.7235 42.0257 80.6881C41.9481 80.6438 41.8285 80.6194 41.6712 80.6194C41.525 80.6194 41.4165 80.6371 41.3478 80.6704C41.2769 80.7036 41.226 80.7634 41.1927 80.8498L40.8893 80.8232C40.9158 80.7368 40.9624 80.6682 41.0266 80.615C41.0886 80.5618 41.1817 80.522 41.3013 80.4932C41.4209 80.4644 41.5605 80.4511 41.7178 80.4511C41.875 80.4511 42.0013 80.4621 42.101 80.4865C42.1985 80.5109 42.2716 80.5419 42.3159 80.5773C42.3624 80.615 42.3956 80.6615 42.4133 80.7169C42.4244 80.7523 42.4288 80.8166 42.4288 80.9052V81.1777C42.4288 81.3682 42.4355 81.4878 42.4488 81.5387C42.4599 81.5897 42.4864 81.6362 42.5241 81.6827H42.2007C42.1674 81.6406 42.1475 81.5897 42.1386 81.5321ZM42.1143 81.078C42.0013 81.109 41.8329 81.1334 41.607 81.1555C41.4785 81.1666 41.3877 81.1799 41.3345 81.1954C41.2814 81.2109 41.2415 81.233 41.2127 81.2618C41.1839 81.2906 41.1684 81.3239 41.1684 81.3593C41.1684 81.4125 41.1994 81.459 41.2614 81.4944C41.3257 81.5299 41.4165 81.5498 41.5383 81.5498C41.6579 81.5498 41.7643 81.5321 41.8573 81.4967C41.9504 81.4634 42.019 81.4169 42.0633 81.3571C42.0966 81.3106 42.1121 81.2419 42.1121 81.1533L42.1143 81.078Z" fill="#1F1A17"/>
<path d="M21.7208 81.696V80.4887H22.0022V80.6593C22.1395 80.5286 22.3367 80.4621 22.5936 80.4621C22.7044 80.4621 22.8085 80.4754 22.9015 80.502C22.9946 80.5286 23.0655 80.5618 23.112 80.6039C23.1585 80.6482 23.1917 80.697 23.2095 80.7568C23.2205 80.7944 23.2272 80.8609 23.2272 80.9539V81.696H22.9126V80.9628C22.9126 80.8786 22.8993 80.8166 22.875 80.7745C22.8506 80.7346 22.8085 80.7014 22.7465 80.677C22.6844 80.6527 22.6091 80.6394 22.5272 80.6394C22.392 80.6394 22.2768 80.6682 22.1816 80.7235C22.0841 80.7789 22.0354 80.883 22.0354 81.0381V81.696H21.7208Z" fill="#1F1A17"/>
<path d="M43.9618 81.696V80.4887H44.2453V80.6593C44.3805 80.5286 44.5776 80.4621 44.8346 80.4621C44.9476 80.4621 45.0495 80.4754 45.1425 80.502C45.2355 80.5286 45.3064 80.5618 45.353 80.6039C45.3995 80.6482 45.4327 80.697 45.4504 80.7568C45.4637 80.7944 45.4681 80.8609 45.4681 80.9539V81.696H45.1536V80.9628C45.1536 80.8786 45.1425 80.8166 45.1181 80.7745C45.0938 80.7346 45.0495 80.7014 44.9874 80.677C44.9254 80.6527 44.8523 80.6394 44.7681 80.6394C44.6352 80.6394 44.52 80.6682 44.4226 80.7235C44.3251 80.7789 44.2763 80.883 44.2763 81.0381V81.696H43.9618Z" fill="#1F1A17"/>
<path d="M24.7136 81.7957L25.0082 81.8245C25.0215 81.8865 25.0547 81.9308 25.1123 81.9596C25.1877 81.9973 25.2918 82.015 25.4247 82.015C25.5665 82.015 25.675 81.9973 25.7525 81.9596C25.8301 81.922 25.881 81.8688 25.9098 81.8001C25.9253 81.7581 25.932 81.6717 25.932 81.5387C25.7969 81.6429 25.6307 81.696 25.4313 81.696C25.1832 81.696 24.9905 81.6362 24.8554 81.5166C24.718 81.397 24.6494 81.253 24.6494 81.0868C24.6494 80.9716 24.6826 80.8653 24.7446 80.7678C24.8066 80.6704 24.8953 80.5951 25.0149 80.5419C25.1323 80.4887 25.2718 80.4621 25.4313 80.4621C25.644 80.4621 25.8212 80.522 25.9586 80.6371V80.4887H26.2399V81.5321C26.2399 81.7204 26.2133 81.8533 26.1557 81.9308C26.0981 82.0106 26.0073 82.0726 25.8832 82.1169C25.7592 82.1634 25.6063 82.1856 25.4269 82.1856C25.2098 82.1856 25.037 82.1524 24.9041 82.0881C24.7712 82.0239 24.7092 81.9264 24.7136 81.7957ZM24.9639 81.0713C24.9639 81.2308 25.0104 81.346 25.1035 81.4169C25.1987 81.49 25.3161 81.5277 25.4579 81.5277C25.5997 81.5277 25.7171 81.49 25.8124 81.4191C25.9076 81.346 25.9563 81.233 25.9563 81.078C25.9563 80.9318 25.9054 80.8188 25.8079 80.7457C25.7105 80.6704 25.5908 80.6327 25.4535 80.6327C25.3184 80.6327 25.201 80.6704 25.1057 80.7435C25.0104 80.8166 24.9639 80.9273 24.9639 81.0713Z" fill="#1F1A17"/>
<path d="M27.7551 81.7957L28.0497 81.8245C28.063 81.8865 28.0985 81.9308 28.1539 81.9596C28.2314 81.9973 28.3333 82.015 28.4662 82.015C28.608 82.015 28.7165 81.9973 28.7941 81.9596C28.8716 81.922 28.9226 81.8688 28.9513 81.8001C28.9669 81.7581 28.9735 81.6717 28.9735 81.5387C28.8384 81.6429 28.6722 81.696 28.4729 81.696C28.2248 81.696 28.032 81.6362 27.8969 81.5166C27.7596 81.397 27.6931 81.253 27.6931 81.0868C27.6931 80.9716 27.7241 80.8653 27.7861 80.7678C27.8482 80.6704 27.939 80.5951 28.0564 80.5419C28.1738 80.4887 28.3134 80.4621 28.4751 80.4621C28.6877 80.4621 28.8627 80.522 29.0001 80.6371V80.4887H29.2836V81.5321C29.2836 81.7204 29.2548 81.8533 29.1972 81.9308C29.1396 82.0106 29.0488 82.0726 28.9248 82.1169C28.8007 82.1634 28.6479 82.1856 28.4684 82.1856C28.2513 82.1856 28.0785 82.1524 27.9456 82.0881C27.8149 82.0239 27.7507 81.9264 27.7551 81.7957ZM28.0054 81.0713C28.0054 81.2308 28.052 81.346 28.1472 81.4169C28.2403 81.49 28.3577 81.5277 28.4994 81.5277C28.6412 81.5277 28.7586 81.49 28.8539 81.4191C28.9491 81.346 28.9979 81.233 28.9979 81.078C28.9979 80.9318 28.9469 80.8188 28.8494 80.7457C28.752 80.6704 28.6346 80.6327 28.495 80.6327C28.3599 80.6327 28.2447 80.6704 28.1472 80.7435C28.052 80.8166 28.0054 80.9273 28.0054 81.0713Z" fill="#1F1A17"/>
<path d="M32.0394 81.696V81.5166C31.8932 81.6539 31.6938 81.7226 31.4435 81.7226C31.3327 81.7226 31.2308 81.7093 31.1334 81.6805C31.0381 81.6539 30.9672 81.6207 30.9207 81.5786C30.8742 81.5365 30.8409 81.4856 30.8232 81.428C30.8099 81.3859 30.8033 81.3239 30.8033 81.2353V80.4887H31.1223V81.1577C31.1223 81.2641 31.1289 81.3349 31.1422 81.3726C31.1622 81.4258 31.2042 81.4679 31.2685 81.4989C31.3327 81.5299 31.4125 81.5454 31.5077 81.5454C31.603 81.5454 31.6938 81.5299 31.7758 81.4989C31.86 81.4679 31.9198 81.4236 31.953 81.3704C31.9884 81.315 32.0062 81.2375 32.0062 81.1334V80.4887H32.3252V81.696H32.0394Z" fill="#1F1A17"/>
<path d="M52.2645 81.696V81.5166C52.1183 81.6539 51.9211 81.7226 51.6708 81.7226C51.56 81.7226 51.4559 81.7093 51.3607 81.6805C51.2654 81.6539 51.1923 81.6207 51.1458 81.5786C51.0993 81.5365 51.0683 81.4856 51.0483 81.428C51.0372 81.3859 51.0306 81.3239 51.0306 81.2353V80.4887H51.3474V81.1577C51.3474 81.2641 51.354 81.3349 51.3673 81.3726C51.3873 81.4258 51.4293 81.4679 51.4958 81.4989C51.56 81.5299 51.6398 81.5454 51.735 81.5454C51.8303 81.5454 51.9189 81.5299 52.0031 81.4989C52.0851 81.4679 52.1449 81.4236 52.1803 81.3704C52.2135 81.315 52.2313 81.2375 52.2313 81.1334V80.4887H52.5503V81.696H52.2645Z" fill="#1F1A17"/>
<path d="M62.3106 81.696V81.5166C62.1644 81.6539 61.9672 81.7226 61.7169 81.7226C61.6061 81.7226 61.502 81.7093 61.4068 81.6805C61.3115 81.6539 61.2406 81.6207 61.1941 81.5786C61.1476 81.5365 61.1144 81.4856 61.0944 81.428C61.0833 81.3859 61.0767 81.3239 61.0767 81.2353V80.4887H61.3957V81.1577C61.3957 81.2641 61.4023 81.3349 61.4134 81.3726C61.4333 81.4258 61.4754 81.4679 61.5419 81.4989C61.6061 81.5299 61.6859 81.5454 61.7811 81.5454C61.8764 81.5454 61.965 81.5299 62.0492 81.4989C62.1334 81.4679 62.191 81.4236 62.2264 81.3704C62.2618 81.315 62.2774 81.2375 62.2774 81.1334V80.4887H62.5963V81.696H62.3106Z" fill="#1F1A17"/>
<path d="M32.8413 81.696V80.0302H33.1559V80.6305C33.3021 80.5175 33.4859 80.4621 33.7097 80.4621C33.847 80.4621 33.9644 80.4799 34.0663 80.5153C34.1682 80.5508 34.2391 80.5995 34.2834 80.6615C34.3255 80.7235 34.3477 80.8144 34.3477 80.9318V81.696H34.0331V80.9318C34.0331 80.8299 33.9999 80.7568 33.9312 80.7103C33.8625 80.6637 33.7673 80.6394 33.6432 80.6394C33.5524 80.6394 33.4638 80.6549 33.3818 80.6859C33.2999 80.7191 33.2423 80.7612 33.2068 80.8144C33.1736 80.8675 33.1559 80.9428 33.1559 81.0381V81.696H32.8413Z" fill="#1F1A17"/>
<path d="M64.1559 81.696V80.0302H64.4704V80.6305C64.6166 80.5175 64.8005 80.4621 65.0242 80.4621C65.1616 80.4621 65.279 80.4799 65.3809 80.5153C65.4828 80.5508 65.5537 80.5995 65.598 80.6615C65.6423 80.7235 65.6622 80.8144 65.6622 80.9318V81.696H65.3477V80.9318C65.3477 80.8299 65.3144 80.7568 65.2458 80.7103C65.1793 80.6637 65.0818 80.6394 64.9578 80.6394C64.867 80.6394 64.7784 80.6549 64.6964 80.6859C64.6166 80.7191 64.5568 80.7612 64.5236 80.8144C64.4882 80.8675 64.4704 80.9428 64.4704 81.0381V81.696H64.1559Z" fill="#1F1A17"/>
<path d="M39.0683 81.696V81.5432C38.9509 81.6628 38.7803 81.7226 38.5544 81.7226C38.4082 81.7226 38.2753 81.696 38.1534 81.6429C38.0294 81.5897 37.9341 81.5166 37.8677 81.4213C37.8012 81.3261 37.7658 81.2175 37.7658 81.0935C37.7658 80.9739 37.7968 80.8653 37.8588 80.7656C37.9186 80.6682 38.0094 80.5928 38.1335 80.5419C38.2531 80.4887 38.3905 80.4621 38.5411 80.4621C38.6519 80.4621 38.7493 80.4777 38.8357 80.5087C38.9221 80.5397 38.993 80.5796 39.0462 80.6283V80.0302H39.3563V81.696H39.0683ZM38.0848 81.0935C38.0848 81.2486 38.1335 81.3637 38.2332 81.4391C38.3329 81.5166 38.4503 81.5543 38.5854 81.5543C38.7205 81.5543 38.8357 81.5188 38.931 81.4457C39.0262 81.3726 39.075 81.2618 39.075 81.1112C39.075 80.9473 39.0262 80.8254 38.9288 80.7479C38.8335 80.6704 38.7139 80.6327 38.5699 80.6327C38.4326 80.6327 38.3174 80.6704 38.2243 80.7435C38.1313 80.8188 38.0848 80.934 38.0848 81.0935Z" fill="#1F1A17"/>
<path d="M54.0522 81.7226V80.5131H54.3291V80.6837C54.3845 80.6261 54.4598 80.5773 54.555 80.5419C54.6481 80.5064 54.7544 80.4887 54.8763 80.4887C55.0092 80.4887 55.1199 80.5064 55.2041 80.5441C55.2905 80.5818 55.3503 80.6327 55.3858 80.6992C55.5297 80.5596 55.7158 80.4887 55.9462 80.4887C56.1256 80.4887 56.263 80.522 56.3605 80.5884C56.4579 80.6549 56.5067 80.7568 56.5067 80.8941V81.7226H56.1987V80.9628C56.1987 80.8808 56.1899 80.821 56.1699 80.7856C56.15 80.7501 56.1146 80.7213 56.0614 80.6992C56.0082 80.677 55.9462 80.6659 55.8775 80.6659C55.7491 80.6659 55.6427 80.6947 55.5585 80.7501C55.4744 80.8077 55.4323 80.8963 55.4323 81.0204V81.7226H55.1266V80.9384C55.1266 80.8476 55.1022 80.7789 55.0513 80.7346C55.0025 80.6881 54.9206 80.6659 54.8054 80.6659C54.7212 80.6659 54.6414 80.6814 54.5683 80.7102C54.4952 80.7413 54.4421 80.7856 54.4088 80.8432C54.3756 80.903 54.3601 80.9872 54.3601 81.0957V81.7226H54.0522Z" fill="#1F1A17"/>
<path d="M58.3431 81.696H58.0485V80.0302H58.3652V80.6239C58.5004 80.5175 58.671 80.4621 58.8792 80.4621C58.9944 80.4621 59.1029 80.4776 59.207 80.5064C59.3089 80.5375 59.3953 80.5796 59.4618 80.6327C59.5282 80.6881 59.5792 80.7523 59.6169 80.8299C59.6545 80.9052 59.6745 80.9872 59.6745 81.0736C59.6745 81.2818 59.5947 81.4413 59.4352 81.552C59.2757 81.665 59.0874 81.7226 58.8637 81.7226C58.6422 81.7226 58.4694 81.6628 58.3431 81.5454V81.696ZM58.3409 81.0846C58.3409 81.2286 58.3719 81.3327 58.4317 81.397C58.5314 81.5011 58.6665 81.5543 58.8371 81.5543C58.9767 81.5543 59.0963 81.5166 59.196 81.4391C59.2979 81.3615 59.3488 81.2441 59.3488 81.0913C59.3488 80.934 59.3001 80.8188 59.2026 80.7435C59.1051 80.6682 58.9899 80.6305 58.8504 80.6305C58.713 80.6305 58.5934 80.6704 58.4915 80.7479C58.3918 80.8254 58.3409 80.9362 58.3409 81.0846Z" fill="#1F1A17"/>
</g>
<rect x="1.5" y="1" width="110" height="110" rx="9" stroke="#CCCCCC" stroke-width="2"/>
<defs>
<clipPath id="clip0_528_594">
<rect x="2.5" y="2" width="108" height="108" rx="8" fill="white"/>
</clipPath>
</defs>
</svg>
