<svg width="113" height="112" viewBox="0 0 113 112" fill="none" xmlns="http://www.w3.org/2000/svg">
<g clip-path="url(#clip0_528_597)">
<rect x="2.5" y="2" width="108" height="108" rx="8" fill="white"/>
<path d="M24.6251 54.2866H16.8869V61.7668H24.6251V54.2866Z" fill="black"/>
<path d="M16.8869 54.2866H24.6601V61.8017H16.8869V54.2866Z"/>
<path d="M32.2988 53.6093H24.5606V61.0895H32.2988V53.6093Z" fill="black"/>
<path d="M24.5606 53.6093H32.3338V61.1244H24.5606V53.6093Z"/>
<path d="M24.2703 47H16.4999V54.4802H24.2703V47Z" fill="black"/>
<path d="M16.4999 47H24.3053V54.5151H16.4999V47Z"/>
<path fill-rule="evenodd" clip-rule="evenodd" d="M34.6802 51.7171C35.0054 51.2601 35.3575 51.0317 35.7338 51.0317C36.0792 51.0317 36.3803 51.1795 36.6383 51.4752C36.8963 51.7708 37.024 52.1753 37.024 52.6874C37.024 53.2854 36.8251 53.7679 36.4286 54.1334C36.0873 54.4479 35.7056 54.6051 35.2863 54.6051C35.0901 54.6051 34.8925 54.5702 34.6896 54.4989C34.4867 54.4277 34.2797 54.3189 34.0687 54.1764V50.6917C34.0687 50.31 34.0593 50.0748 34.0405 49.9875C34.0217 49.8988 33.9921 49.8396 33.9532 49.806C33.9128 49.7751 33.8645 49.7576 33.8053 49.7576C33.7368 49.7576 33.6508 49.7778 33.546 49.8168L33.4949 49.681L34.5122 49.2671H34.6775V51.7171H34.6802ZM34.6802 51.9509V53.9627C34.8052 54.085 34.9356 54.1778 35.0686 54.2409C35.2016 54.3027 35.3387 54.3336 35.4798 54.3336C35.7016 54.3336 35.9112 54.2114 36.1034 53.9668C36.2956 53.7222 36.3923 53.366 36.3923 52.8984C36.3923 52.467 36.2956 52.1377 36.1034 51.9066C35.9112 51.6754 35.6922 51.5598 35.4462 51.5598C35.3172 51.5598 35.1869 51.5921 35.0565 51.6593C34.9584 51.7077 34.8334 51.8058 34.6816 51.9522L34.6802 51.9509ZM39.4282 54.0165C39.0828 54.2839 38.8651 54.4398 38.7764 54.4815C38.6447 54.5433 38.5036 54.5742 38.3544 54.5742C38.1206 54.5742 37.9284 54.4936 37.7779 54.3336C37.6274 54.1737 37.5521 53.9641 37.5521 53.7047C37.5521 53.5407 37.5884 53.3969 37.6623 53.2773C37.7631 53.1107 37.9378 52.9535 38.1865 52.8056C38.4364 52.6591 38.8503 52.4791 39.4282 52.2681V52.1364C39.4282 51.8004 39.3758 51.5706 39.2683 51.4456C39.1621 51.3206 39.0076 51.2588 38.8033 51.2588C38.6501 51.2588 38.5265 51.3004 38.4364 51.3838C38.3437 51.4671 38.2967 51.5625 38.2967 51.67L38.3047 51.8837C38.3047 51.9966 38.2765 52.0853 38.2174 52.1458C38.1596 52.2076 38.083 52.2372 37.9902 52.2372C37.8975 52.2372 37.8236 52.2062 37.7658 52.1417C37.708 52.0772 37.6785 51.9899 37.6785 51.8797C37.6785 51.6687 37.786 51.4738 38.0023 51.2964C38.2187 51.119 38.5224 51.0317 38.9135 51.0317C39.2132 51.0317 39.4591 51.0814 39.6513 51.1822C39.7951 51.2574 39.9026 51.3771 39.9712 51.5383C40.0155 51.6431 40.0384 51.8582 40.0384 52.1834V53.3271C40.0384 53.6469 40.0451 53.8445 40.0572 53.9157C40.0693 53.9883 40.0894 54.0366 40.1177 54.0608C40.1472 54.085 40.1795 54.0971 40.2158 54.0971C40.2561 54.0971 40.2897 54.0877 40.3206 54.0716C40.3717 54.0393 40.4711 53.9493 40.6189 53.8028V54.0084C40.3421 54.3793 40.0787 54.5635 39.8274 54.5635C39.7064 54.5635 39.6097 54.5218 39.5384 54.4385C39.4672 54.3538 39.4309 54.2127 39.4282 54.0125V54.0165ZM39.4282 53.7759V52.4938C39.0546 52.6403 38.8154 52.7451 38.7052 52.807C38.5103 52.9145 38.3706 53.0274 38.2873 53.1443C38.2026 53.2626 38.1623 53.3902 38.1623 53.53C38.1623 53.7074 38.2147 53.8525 38.3222 53.9694C38.4284 54.0864 38.5507 54.1442 38.6891 54.1442C38.8759 54.1442 39.1232 54.0205 39.4296 53.7759H39.4282ZM41.854 51.7386C42.2491 51.2669 42.624 51.0317 42.9802 51.0317C43.1629 51.0317 43.3215 51.0787 43.4532 51.1701C43.5863 51.2615 43.6911 51.4133 43.7704 51.6243C43.8241 51.7722 43.851 51.9993 43.851 52.303V53.745C43.851 53.9574 43.8685 54.1012 43.9021 54.1778C43.929 54.2382 43.972 54.2853 44.0311 54.3202C44.0916 54.3538 44.2018 54.3713 44.363 54.3713V54.507H42.6966V54.3713H42.7665C42.9224 54.3713 43.0312 54.3471 43.0944 54.3C43.1562 54.2517 43.2006 54.1818 43.2234 54.0904C43.2342 54.0541 43.2382 53.9385 43.2382 53.7464V52.3581C43.2382 52.0503 43.1979 51.8259 43.1186 51.6862C43.0393 51.5464 42.9063 51.4778 42.7181 51.4778C42.4278 51.4778 42.1389 51.6378 41.8513 51.9576V53.7464C41.8513 53.9735 41.8647 54.1132 41.8916 54.167C41.9265 54.2369 41.9749 54.2893 42.0354 54.3229C42.0959 54.3551 42.2182 54.3713 42.4023 54.3713V54.507H40.7291V54.3713H40.803C40.9751 54.3713 41.0906 54.3283 41.1511 54.2423C41.2116 54.1549 41.2412 53.9896 41.2412 53.7464V52.4952C41.2412 52.0907 41.2317 51.8447 41.2129 51.756C41.1941 51.6673 41.1659 51.6069 41.1283 51.5746C41.0906 51.5437 41.0396 51.5276 40.9764 51.5276C40.9079 51.5276 40.8259 51.5464 40.7305 51.5827L40.6754 51.4469L41.6927 51.033H41.8513V51.7399L41.854 51.7386ZM45.6371 49.2671V52.6255L46.4918 51.8434C46.6746 51.6767 46.7794 51.5706 46.809 51.5262C46.8291 51.4967 46.8385 51.4671 46.8385 51.4375C46.8385 51.3891 46.817 51.3475 46.7767 51.3112C46.7364 51.2763 46.6705 51.2561 46.5751 51.2507V51.1298H48.0413V51.2507C47.8411 51.2561 47.6744 51.287 47.5414 51.3435C47.4083 51.4012 47.2632 51.5034 47.1033 51.6485L46.2351 52.4441L47.0966 53.5407C47.3371 53.8404 47.4984 54.0326 47.579 54.1173C47.6986 54.2288 47.8008 54.3014 47.8908 54.335C47.954 54.3592 48.0615 54.3713 48.2147 54.3713V54.507H46.5751V54.3713C46.6692 54.3686 46.7324 54.3551 46.7646 54.3296C46.7982 54.3027 46.8143 54.2678 46.8143 54.2221C46.8143 54.1657 46.766 54.0756 46.6678 53.9506L45.6371 52.6309V53.7464C45.6371 53.9654 45.6519 54.1079 45.6828 54.1778C45.7137 54.2449 45.7567 54.2947 45.8131 54.3242C45.8696 54.3538 45.9919 54.3699 46.18 54.3726V54.5084H44.4692V54.3726C44.6399 54.3726 44.7689 54.3511 44.8549 54.3095C44.906 54.2826 44.945 54.2423 44.9718 54.1858C45.0081 54.1052 45.0269 53.9654 45.0269 53.7692V50.6917C45.0269 50.306 45.0175 50.0694 45.0014 49.9834C44.9839 49.8974 44.9557 49.8383 44.9154 49.8047C44.8764 49.7711 44.8254 49.755 44.7622 49.755C44.7111 49.755 44.6332 49.7765 44.531 49.8181L44.4679 49.6824L45.4664 49.2685H45.6357L45.6371 49.2671Z" fill="#37489C"/>
<path fill-rule="evenodd" clip-rule="evenodd" d="M37.0011 59.1247L38.388 55.7743H40.4429V55.9047H40.2776C40.1297 55.9047 40.0088 55.9316 39.9201 55.9853C39.8569 56.0216 39.8072 56.0794 39.7709 56.164C39.744 56.2259 39.7306 56.3831 39.7306 56.6398V59.9888C39.7306 60.2509 39.744 60.4135 39.7709 60.4793C39.7991 60.5438 39.8542 60.6016 39.9389 60.65C40.0236 60.6997 40.1351 60.7239 40.2776 60.7239H40.4429V60.8543H37.7994V60.7239H37.9647C38.1125 60.7239 38.2335 60.697 38.3222 60.6446C38.3854 60.6083 38.4351 60.5492 38.4714 60.4632C38.4982 60.4027 38.5117 60.2455 38.5117 59.9875V56.2272L36.5603 60.8529H36.4703L34.4921 56.2608V59.8343C34.4921 60.0856 34.4988 60.2401 34.5109 60.2979C34.5445 60.4229 34.6144 60.525 34.7232 60.6043C34.8321 60.6836 35.0028 60.7226 35.2352 60.7226V60.8529H33.4962V60.7226H33.55C33.6629 60.7253 33.7677 60.7078 33.8645 60.6675C33.9626 60.6285 34.0351 60.5761 34.0849 60.5102C34.1359 60.4457 34.1736 60.353 34.2004 60.2347C34.2058 60.2065 34.2085 60.0788 34.2085 59.849V56.6384C34.2085 56.3764 34.1951 56.2138 34.1682 56.1493C34.1413 56.0848 34.0849 56.027 34.0002 55.9772C33.9142 55.9275 33.8013 55.9033 33.6588 55.9033H33.4962V55.773H35.5672L36.9998 59.1233L37.0011 59.1247ZM43.7596 59.4069H41.983L41.7626 59.9028C41.6927 60.0694 41.6578 60.2065 41.6578 60.3154C41.6578 60.4592 41.7156 60.5653 41.8284 60.6352C41.8956 60.6742 42.0623 60.7051 42.327 60.7253V60.8556H40.6404V60.7253C40.8219 60.697 40.9724 60.6204 41.0893 60.4968C41.2062 60.3718 41.3527 60.1138 41.5234 59.7227L43.3363 55.6749H43.4075L45.2379 59.8343C45.4126 60.2334 45.5564 60.4847 45.668 60.5882C45.754 60.6675 45.8723 60.7118 46.0282 60.7253V60.8556H43.5728V60.7253H43.6736C43.8698 60.7253 44.0096 60.697 44.0889 60.6406C44.144 60.6016 44.1709 60.5425 44.1709 60.4672C44.1709 60.4215 44.1642 60.3745 44.1494 60.3261C44.144 60.3046 44.1077 60.2092 44.0365 60.0412L43.7596 59.4082V59.4069ZM43.64 59.1314L42.8821 57.4004L42.1066 59.1314H43.64ZM50.9563 59.0776L50.7641 60.8556H46.266V60.7253H46.4327C46.5792 60.7253 46.6988 60.6984 46.7875 60.646C46.852 60.6097 46.903 60.5506 46.9366 60.4645C46.9635 60.4041 46.9769 60.2468 46.9769 59.9888V56.6398C46.9769 56.3777 46.9635 56.2151 46.9366 56.1493C46.9084 56.0848 46.8533 56.027 46.77 55.9786C46.6867 55.9289 46.5751 55.9047 46.4313 55.9047H46.2647V55.7743H48.97V55.9047H48.7482C48.6017 55.9047 48.4821 55.9316 48.3921 55.984C48.3262 56.0202 48.2752 56.0794 48.2375 56.1654C48.2107 56.2259 48.1972 56.3831 48.1972 56.6398V59.8813C48.1972 60.1407 48.212 60.306 48.2416 60.3785C48.2711 60.4498 48.3303 60.5022 48.4163 60.5385C48.4794 60.56 48.63 60.5721 48.8665 60.5721H49.2885C49.5572 60.5721 49.7803 60.525 49.9591 60.4309C50.1378 60.3369 50.2937 60.1877 50.4241 59.9821C50.5544 59.7778 50.6781 59.4768 50.795 59.0776H50.9563ZM51.4011 55.7757H54.0217V55.906H53.89C53.6924 55.906 53.5567 55.9262 53.4828 55.9692C53.4089 56.0095 53.3565 56.0673 53.3256 56.1399C53.2933 56.2124 53.2785 56.3952 53.2785 56.6882V59.1731C53.2785 59.6273 53.3135 59.9283 53.3807 60.0748C53.4492 60.2226 53.5621 60.3449 53.7193 60.443C53.8766 60.5398 54.0755 60.5882 54.3147 60.5882C54.5888 60.5882 54.8227 60.5264 55.0162 60.4027C55.2097 60.2791 55.3535 60.1084 55.4489 59.892C55.5443 59.6743 55.5927 59.2967 55.5927 58.7578V56.6882C55.5927 56.4597 55.5685 56.2944 55.5215 56.1976C55.4745 56.0995 55.414 56.031 55.3414 55.9934C55.2285 55.9356 55.0713 55.906 54.8657 55.906V55.7757H56.6208V55.906H56.516C56.3749 55.906 56.2566 55.9356 56.1625 55.9934C56.0685 56.0512 55.9986 56.1372 55.9569 56.2541C55.9247 56.3347 55.9085 56.4785 55.9085 56.6882V58.6167C55.9085 59.2134 55.8696 59.6434 55.7916 59.9082C55.7123 60.1743 55.5228 60.4162 55.2178 60.6393C54.9127 60.861 54.4988 60.9725 53.972 60.9725C53.5325 60.9725 53.1938 60.9134 52.956 60.7965C52.6294 60.6366 52.3983 60.4323 52.2639 60.1823C52.1295 59.9337 52.0623 59.5977 52.0623 59.1757V56.6895C52.0623 56.3939 52.0462 56.2124 52.0139 56.1399C51.9803 56.0686 51.9252 56.0108 51.8459 55.9678C51.7653 55.9262 51.6188 55.9047 51.4038 55.9074V55.777L51.4011 55.7757ZM59.9497 57.7243L61.729 59.9619C61.9803 60.2777 62.198 60.4914 62.3808 60.6057C62.5125 60.6863 62.6523 60.7253 62.8001 60.7253V60.8556H60.1633V60.7253C60.33 60.7105 60.4375 60.6836 60.4859 60.646C60.5343 60.607 60.5585 60.5613 60.5585 60.5049C60.5585 60.3987 60.4442 60.1998 60.2144 59.9068L59.0519 58.446L58.8611 58.5992V59.9888C58.8611 60.2562 58.8759 60.4215 58.9055 60.4874C58.9364 60.5519 58.9941 60.6083 59.0788 60.6554C59.1648 60.7024 59.3006 60.7253 59.4887 60.7253V60.8556H56.9299V60.7253H57.0965C57.243 60.7253 57.3626 60.6984 57.4513 60.646C57.5159 60.6097 57.5669 60.5506 57.6005 60.4645C57.6274 60.4041 57.6408 60.2468 57.6408 59.9888V56.6398C57.6408 56.3777 57.6274 56.2151 57.6005 56.1493C57.5723 56.0848 57.5172 56.027 57.4352 55.9786C57.3519 55.9289 57.2403 55.9047 57.0965 55.9047H56.9299V55.7743H59.4511V55.9047C59.2804 55.9047 59.1487 55.9302 59.0587 55.9799C58.9941 56.0162 58.9431 56.074 58.9055 56.1573C58.8759 56.2205 58.8611 56.3804 58.8611 56.6398V58.2243L60.7506 56.7043C61.0127 56.4879 61.1431 56.3146 61.1431 56.1855C61.1431 56.0888 61.0893 56.0135 60.9818 55.9571C60.9267 55.9289 60.7909 55.9114 60.5746 55.9033V55.773H62.5501V55.9033C62.3727 55.9168 62.233 55.9477 62.1322 56.0001C62.0314 56.0512 61.7989 56.2272 61.4347 56.5269L59.9497 57.723V57.7243ZM62.8942 55.7757H65.5148V55.906H65.3831C65.1855 55.906 65.0498 55.9262 64.9759 55.9692C64.902 56.0095 64.8495 56.0673 64.8186 56.1399C64.7864 56.2124 64.7716 56.3952 64.7716 56.6882V59.1731C64.7716 59.6273 64.8065 59.9283 64.8737 60.0748C64.9423 60.2226 65.0552 60.3449 65.2124 60.443C65.3696 60.5398 65.5685 60.5882 65.8077 60.5882C66.0819 60.5882 66.3157 60.5264 66.5093 60.4027C66.7028 60.2791 66.8466 60.1084 66.942 59.892C67.0374 59.6743 67.0858 59.2967 67.0858 58.7578V56.6882C67.0858 56.4597 67.0616 56.2944 67.0146 56.1976C66.9675 56.0995 66.9071 56.031 66.8345 55.9934C66.7216 55.9356 66.5644 55.906 66.3587 55.906V55.7757H68.1139V55.906H68.0091C67.868 55.906 67.7497 55.9356 67.6556 55.9934C67.5615 56.0512 67.4917 56.1372 67.45 56.2541C67.4177 56.3347 67.4016 56.4785 67.4016 56.6882V58.6167C67.4016 59.2134 67.3627 59.6434 67.2847 59.9082C67.2054 60.1743 67.0159 60.4162 66.7109 60.6393C66.4058 60.861 65.9919 60.9725 65.4651 60.9725C65.0256 60.9725 64.6869 60.9134 64.4491 60.7965C64.1225 60.6366 63.8913 60.4323 63.757 60.1823C63.6226 59.9337 63.5554 59.5977 63.5554 59.1757V56.6895C63.5554 56.3939 63.5392 56.2124 63.507 56.1399C63.4734 56.0686 63.4183 56.0108 63.339 55.9678C63.2584 55.9262 63.1119 55.9047 62.8969 55.9074V55.777L62.8942 55.7757ZM71.905 59.126L73.292 55.7757H75.3468V55.906H75.1815C75.0337 55.906 74.9127 55.9329 74.824 55.9867C74.7608 56.0229 74.7111 56.0807 74.6748 56.1654C74.648 56.2272 74.6345 56.3844 74.6345 56.6411V59.9901C74.6345 60.2522 74.648 60.4148 74.6748 60.4807C74.7031 60.5452 74.7582 60.603 74.8428 60.6513C74.9275 60.7011 75.039 60.7253 75.1815 60.7253H75.3468V60.8556H72.7033V60.7253H72.8686C73.0165 60.7253 73.1374 60.6984 73.2261 60.646C73.2893 60.6097 73.339 60.5506 73.3753 60.4645C73.4022 60.4041 73.4156 60.2468 73.4156 59.9888V56.2286L71.4642 60.8543H71.3755L69.3973 56.2622V59.8356C69.3973 60.0869 69.404 60.2415 69.4161 60.2992C69.4497 60.4242 69.5196 60.5264 69.6285 60.6057C69.7373 60.6849 69.908 60.7239 70.1405 60.7239V60.8543H68.4015V60.7239H68.4552C68.5681 60.7266 68.673 60.7091 68.7697 60.6688C68.8678 60.6298 68.9404 60.5774 68.9901 60.5116C69.0412 60.4471 69.0788 60.3543 69.1057 60.2361C69.1111 60.2079 69.1138 60.0802 69.1138 59.8504V56.6398C69.1138 56.3777 69.1003 56.2151 69.0734 56.1506C69.0466 56.0861 68.9901 56.0283 68.9054 55.9786C68.8194 55.9289 68.7066 55.9047 68.5641 55.9047H68.4015V55.7743H70.4724L71.905 59.1247V59.126ZM78.6635 59.4082H76.8869L76.6665 59.9041C76.5966 60.0708 76.5617 60.2079 76.5617 60.3167C76.5617 60.4605 76.6195 60.5667 76.7324 60.6366C76.7995 60.6755 76.9662 60.7064 77.2309 60.7266V60.857H75.5443V60.7266C75.7258 60.6984 75.8763 60.6218 75.9932 60.4981C76.1101 60.3732 76.2566 60.1151 76.4273 59.7241L78.2402 55.6762H78.3114L80.1418 59.8356C80.3166 60.2347 80.4603 60.486 80.5719 60.5895C80.6579 60.6688 80.7762 60.7132 80.9321 60.7266V60.857H78.4767V60.7266H78.5775C78.7737 60.7266 78.9135 60.6984 78.9928 60.6419C79.0479 60.603 79.0748 60.5438 79.0748 60.4686C79.0748 60.4229 79.0681 60.3758 79.0533 60.3275C79.0479 60.306 79.0116 60.2105 78.9404 60.0426L78.6635 59.4096V59.4082ZM78.5439 59.1327L77.786 57.4018L77.0105 59.1327H78.5439ZM85.8602 59.079L85.668 60.857H81.1699V60.7266H81.3366C81.4831 60.7266 81.6027 60.6997 81.6914 60.6473C81.7559 60.611 81.8069 60.5519 81.8405 60.4659C81.8674 60.4054 81.8809 60.2482 81.8809 59.9901V56.6411C81.8809 56.3791 81.8674 56.2165 81.8405 56.1506C81.8123 56.0861 81.7572 56.0283 81.6739 55.9799C81.5906 55.9302 81.479 55.906 81.3352 55.906H81.1686V55.7757H83.8739V55.906H83.6521C83.5056 55.906 83.386 55.9329 83.296 55.9853C83.2315 56.0216 83.1804 56.0807 83.1414 56.1667C83.1146 56.2272 83.1011 56.3844 83.1011 56.6411V59.8826C83.1011 60.142 83.1159 60.3073 83.1455 60.3799C83.175 60.4511 83.2342 60.5035 83.3202 60.5398C83.3833 60.5613 83.5339 60.5734 83.7704 60.5734H84.1924C84.4612 60.5734 84.6842 60.5264 84.863 60.4323C85.0417 60.3382 85.1976 60.189 85.328 59.9834C85.4583 59.7792 85.582 59.4781 85.6989 59.079H85.8602ZM86.305 55.777H88.9256V55.9074H88.7939C88.5964 55.9074 88.4606 55.9275 88.3867 55.9705C88.3128 56.0108 88.2604 56.0686 88.2295 56.1412C88.1972 56.2138 88.1824 56.3965 88.1824 56.6895V59.1744C88.1824 59.6286 88.2174 59.9297 88.2846 60.0762C88.3531 60.224 88.466 60.3463 88.6232 60.4444C88.7805 60.5411 88.9794 60.5895 89.2186 60.5895C89.4927 60.5895 89.7266 60.5277 89.9201 60.4041C90.1136 60.2804 90.2574 60.1098 90.3528 59.8934C90.4482 59.6757 90.4966 59.298 90.4966 58.7591V56.6895C90.4966 56.461 90.4724 56.2957 90.4254 56.199C90.3784 56.1009 90.3179 56.0323 90.2453 55.9947C90.1324 55.9369 89.9752 55.9074 89.7696 55.9074V55.777H91.5247V55.9074H91.4199C91.2788 55.9074 91.1605 55.9369 91.0664 55.9947C90.9724 56.0525 90.9025 56.1385 90.8608 56.2554C90.8286 56.3361 90.8125 56.4799 90.8125 56.6895V58.618C90.8125 59.2147 90.7735 59.6448 90.6955 59.9095C90.6162 60.1756 90.4254 60.4175 90.1217 60.6406C89.8166 60.8623 89.4027 60.9739 88.8759 60.9739C88.4364 60.9739 88.0978 60.9148 87.8599 60.7978C87.5333 60.6379 87.3022 60.4336 87.1678 60.1837C87.0334 59.935 86.9662 59.5991 86.9662 59.1771V56.6909C86.9662 56.3952 86.9501 56.2138 86.9178 56.1412C86.8842 56.07 86.8291 56.0122 86.7498 55.9692C86.6692 55.9275 86.5227 55.906 86.3077 55.9087V55.7783L86.305 55.777ZM96.4972 55.777V57.1491H96.3668C96.2862 56.832 96.1988 56.6048 96.1007 56.4678C96.004 56.328 95.8696 56.2191 95.7002 56.1372C95.6062 56.0928 95.4395 56.07 95.2016 56.07H94.8186V59.9928C94.8186 60.2549 94.8321 60.4175 94.8603 60.4834C94.8885 60.5479 94.945 60.6057 95.0269 60.654C95.1103 60.7038 95.2218 60.728 95.3656 60.728H95.5322V60.8583H92.8888V60.728H93.0568C93.2019 60.728 93.3202 60.7011 93.4089 60.6487C93.472 60.6124 93.5231 60.5532 93.5607 60.4672C93.5876 60.4068 93.6011 60.2495 93.6011 59.9915V56.0686H93.2328C92.8928 56.0686 92.6469 56.1412 92.4923 56.2863C92.276 56.4879 92.1416 56.7755 92.0838 57.1491H91.9386V55.777H96.4985H96.4972Z" fill="#37489C"/>
<path fill-rule="evenodd" clip-rule="evenodd" d="M74.1843 63.7289C74.148 63.6617 74.0929 63.6012 74.0204 63.5475C73.9478 63.4937 73.8658 63.4507 73.7744 63.4171C73.683 63.3835 73.5876 63.3593 73.4882 63.3432C73.1939 63.2988 72.9184 63.2034 72.6617 63.0556C72.6402 63.0448 72.6173 63.0193 72.5918 62.9817C72.5676 62.9441 72.5542 62.9064 72.5542 62.8715C72.5542 62.7438 72.5757 62.6135 72.6187 62.4858C72.6617 62.3568 72.7168 62.256 72.784 62.1821C72.8915 62.0611 73.0863 61.9549 73.3672 61.8636C73.6481 61.7735 73.9653 61.7278 74.3174 61.7278C74.527 61.7278 74.6896 61.7439 74.8052 61.7762C74.9194 61.8085 74.9772 61.8582 74.9772 61.9254C74.9772 62.0356 74.9611 62.1202 74.9315 62.1807C74.902 62.2412 74.8697 62.2802 74.8361 62.3003C74.8012 62.3191 74.7407 62.3474 74.6547 62.381C74.5633 62.4132 74.4827 62.4468 74.4141 62.4817C74.3456 62.5167 74.2878 62.5503 74.2394 62.5825C74.191 62.6148 74.1615 62.6309 74.1494 62.6309C74.1346 62.6309 74.1279 62.6255 74.1279 62.6135C74.1279 62.5879 74.1534 62.5503 74.2058 62.5006C74.2569 62.4495 74.3214 62.4051 74.398 62.3675C74.4786 62.3259 74.5189 62.299 74.5189 62.2869C74.5189 62.2681 74.4746 62.2587 74.3859 62.2587C74.1144 62.2587 73.8658 62.2829 73.636 62.3312C73.4062 62.3796 73.2261 62.4428 73.0931 62.5207C72.96 62.6 72.8942 62.6806 72.8942 62.7613C72.8942 62.8123 72.9224 62.8486 72.9761 62.8701C73.0312 62.8916 73.1522 62.9266 73.339 62.9763C73.5258 63.026 73.6924 63.0838 73.8403 63.147C74.0526 63.237 74.2098 63.3324 74.312 63.4305C74.4141 63.5287 74.4652 63.6375 74.4652 63.7585C74.4652 63.8418 74.445 63.9251 74.4047 64.0098C74.3644 64.0931 74.3053 64.171 74.2287 64.2409C74.1507 64.3108 74.062 64.3686 73.9612 64.4143C73.8752 64.4506 73.7664 64.4855 73.636 64.5178C73.5056 64.55 73.3632 64.5756 73.2113 64.593C73.0581 64.6118 72.913 64.6212 72.7746 64.6212C72.5192 64.6212 72.3122 64.5971 72.1577 64.5487C72.0018 64.5003 71.9239 64.4277 71.9239 64.3296C71.9239 64.2866 71.9494 64.2181 72.0032 64.1253C72.0556 64.0326 72.1174 63.9695 72.19 63.9372C72.2531 63.913 72.3136 63.8982 72.3714 63.8942C72.4292 63.8902 72.4587 63.8969 72.4587 63.9157C72.4587 63.9197 72.456 63.9251 72.452 63.9291C72.448 63.9332 72.4426 63.9372 72.4372 63.9399C72.4319 63.9426 72.4251 63.9453 72.4198 63.9493C72.3902 63.9614 72.3674 63.9708 72.3485 63.9775C72.3311 63.9829 72.3149 63.9896 72.3055 63.9963C72.2948 64.003 72.2894 64.0125 72.2894 64.0232C72.2894 64.0541 72.4399 64.0702 72.7423 64.0702C73.0044 64.0702 73.2207 64.0608 73.3887 64.042C73.5567 64.0232 73.7059 63.9883 73.8335 63.9385C73.9612 63.8888 74.0795 63.8203 74.1843 63.7329V63.7289ZM75.168 63.7517C75.3737 63.6684 75.547 63.5824 75.6895 63.4924C75.8306 63.4023 75.9354 63.3109 76.004 63.2196C76.0725 63.1282 76.1074 63.0368 76.1074 62.9441C76.1074 62.8809 76.0873 62.8339 76.047 62.8029C76.0066 62.772 75.9529 62.7559 75.8844 62.7559C75.7983 62.7559 75.7002 62.7801 75.5914 62.8285C75.4812 62.8769 75.371 62.9481 75.2594 63.0435C75.0968 63.1819 74.9799 63.3136 74.9087 63.4386C74.8374 63.5636 74.8012 63.7034 74.8012 63.8566C74.8012 64.0326 74.8388 64.1697 74.9154 64.2705C74.992 64.3713 75.0955 64.421 75.2245 64.421C75.3737 64.421 75.5215 64.3672 75.6653 64.2624C75.8104 64.1563 75.965 64.0044 76.1303 63.8055V63.6711C76.0214 63.7652 75.9287 63.8391 75.8521 63.8942C75.7768 63.9493 75.7002 63.995 75.6236 64.0286C75.547 64.0622 75.4731 64.0783 75.4019 64.0783C75.3307 64.0783 75.2783 64.0541 75.2352 64.0057C75.1922 63.9574 75.1721 63.8902 75.1721 63.8042V63.7491L75.168 63.7517ZM75.1896 63.6093C75.2043 63.5233 75.2366 63.4426 75.2836 63.3701C75.332 63.2962 75.3858 63.233 75.4462 63.1792C75.5067 63.1255 75.5672 63.0811 75.6263 63.0475C75.6855 63.0139 75.7285 62.9978 75.7553 62.9978C75.7862 62.9978 75.801 63.0139 75.801 63.0475C75.801 63.0811 75.7782 63.1309 75.7338 63.2007C75.6895 63.2693 75.6196 63.3432 75.5269 63.4184C75.4328 63.4937 75.3213 63.5582 75.1896 63.6093ZM76.9917 62.5355C77.0697 62.3957 77.1396 62.2976 77.2014 62.2412C77.2645 62.1834 77.3358 62.1538 77.4164 62.1538C77.497 62.1538 77.5374 62.1726 77.5374 62.2089C77.5374 62.2264 77.5064 62.2734 77.4433 62.3514C77.3801 62.428 77.3331 62.4938 77.3008 62.5463C77.3506 62.5516 77.3949 62.557 77.4339 62.561C77.4729 62.5651 77.5038 62.5691 77.5253 62.5718C77.4419 62.7263 77.3371 62.8836 77.2121 63.0448C77.1705 63.0422 77.1369 63.0395 77.1086 63.0368C77.0804 63.0341 77.0535 63.0327 77.024 63.0301C76.9958 63.0274 76.9608 63.026 76.9205 63.022C76.8426 63.1497 76.7754 63.2626 76.7216 63.3633C76.6678 63.4641 76.6275 63.5555 76.5993 63.6389C76.5711 63.7222 76.5563 63.8015 76.5563 63.8754C76.5563 63.9762 76.5966 64.0272 76.6773 64.0272C76.7324 64.0272 76.8063 63.9977 76.8963 63.9385C76.9864 63.8794 77.106 63.7894 77.2565 63.6657V63.8122C76.8614 64.2409 76.5697 64.4546 76.3803 64.4546C76.3144 64.4546 76.2606 64.4291 76.2217 64.378C76.1814 64.3269 76.1612 64.2611 76.1612 64.1804C76.1612 64.1267 76.1719 64.0622 76.1948 63.9883C76.2176 63.913 76.258 63.8015 76.3171 63.6509C76.2969 63.6684 76.2768 63.6859 76.2593 63.702C76.2405 63.7181 76.2244 63.7343 76.2082 63.7477C76.1935 63.7625 76.1773 63.7759 76.1585 63.7921C76.141 63.8068 76.1236 63.823 76.1061 63.8391V63.6872C76.2593 63.5582 76.4448 63.3324 76.6638 63.0086C76.641 63.0086 76.6208 63.0059 76.602 63.0059C76.5832 63.0059 76.5603 63.0059 76.5348 63.0059C76.4474 63.0059 76.3843 63.0112 76.3413 63.0233C76.3238 63.0274 76.3063 63.0327 76.2916 63.0381C76.2754 63.0435 76.266 63.0462 76.2593 63.0462C76.2526 63.0462 76.2499 63.0422 76.2499 63.0341C76.2499 62.9857 76.2795 62.9145 76.3399 62.8191C76.3883 62.7371 76.434 62.6766 76.477 62.6376C76.52 62.5987 76.5724 62.5704 76.6343 62.557C76.6961 62.5422 76.7834 62.5355 76.8963 62.5355H76.9917ZM78.1502 62.6927C78.1139 62.6927 78.0789 62.678 78.0467 62.6511C78.0131 62.6229 77.997 62.5879 77.997 62.5463C77.997 62.4817 78.0279 62.4105 78.0884 62.3312C78.1502 62.2519 78.2133 62.213 78.2778 62.213C78.3222 62.213 78.3585 62.2264 78.388 62.2533C78.4176 62.2802 78.431 62.3205 78.431 62.3702C78.431 62.4334 78.4015 62.5033 78.341 62.5785C78.2805 62.6538 78.2174 62.6927 78.1488 62.6927H78.1502ZM78.2994 63.6724C78.1676 63.784 78.0601 63.8646 77.9782 63.9144C77.8962 63.9641 77.8209 63.9896 77.751 63.9896C77.6879 63.9896 77.6368 63.9721 77.5978 63.9372C77.5575 63.9023 77.5387 63.8579 77.5387 63.8055C77.5387 63.7437 77.5575 63.6899 77.5965 63.6402C77.6341 63.5918 77.7174 63.5071 77.8451 63.3849C77.8895 63.3418 77.9419 63.2706 77.9997 63.1712C78.0574 63.0717 78.087 62.9978 78.087 62.9521C78.087 62.8836 78.0427 62.8486 77.9526 62.8486C77.7806 62.8486 77.5898 63.0099 77.3828 63.3338C77.3385 63.405 77.3089 63.4574 77.2928 63.491C77.2766 63.5246 77.2632 63.5676 77.2511 63.62C77.2404 63.6711 77.2336 63.7262 77.2336 63.7826C77.2336 63.9318 77.2632 64.0689 77.321 64.1952C77.3788 64.3216 77.4688 64.3834 77.5884 64.3834C77.6744 64.3834 77.7779 64.3363 77.9016 64.2436C78.0238 64.1509 78.1569 64.0125 78.2994 63.8297V63.6698V63.6724ZM78.5359 63.28C78.4526 63.358 78.3921 63.4225 78.3545 63.4709C78.3168 63.5192 78.2913 63.5663 78.2778 63.612C78.2658 63.6577 78.259 63.7155 78.259 63.784C78.259 63.8781 78.2778 63.9708 78.3155 64.0581C78.3531 64.1468 78.3961 64.2181 78.4431 64.2745C78.4915 64.3296 78.5318 64.3578 78.5641 64.3578C78.6313 64.3578 78.7173 64.3081 78.8208 64.2087C78.9243 64.1079 79.0828 63.9399 79.2965 63.7034C79.2132 63.9224 79.1702 64.0891 79.1702 64.2046C79.1702 64.2786 79.1823 64.3323 79.2065 64.3699C79.2307 64.4076 79.271 64.4264 79.3288 64.4264C79.4887 64.4264 79.7535 64.2208 80.123 63.8109V63.6778C79.9053 63.87 79.7454 63.9654 79.6419 63.9654C79.5384 63.9654 79.4927 63.9103 79.4927 63.8028C79.4927 63.737 79.5075 63.6819 79.5357 63.6362C79.564 63.5905 79.6137 63.5206 79.6849 63.4238C79.7561 63.3284 79.7911 63.2626 79.7911 63.2276C79.7911 63.2101 79.7871 63.19 79.779 63.1671C79.7696 63.1443 79.7575 63.1147 79.7414 63.0784C79.7252 63.0422 79.7118 63.0112 79.7024 62.9884C79.7535 62.9709 79.7897 62.9561 79.8099 62.9441C79.8301 62.932 79.8408 62.9131 79.8408 62.8863C79.8408 62.8701 79.8327 62.8446 79.818 62.811C79.8032 62.7774 79.7817 62.7478 79.7561 62.7223C79.7293 62.6968 79.701 62.6847 79.6701 62.6847C79.5559 62.6847 79.3946 62.7331 79.1863 62.8312C78.9767 62.9293 78.7617 63.0784 78.5386 63.2814L78.5359 63.28ZM79.5868 63.0381C79.4081 63.2881 79.2549 63.487 79.1285 63.6321C79.0009 63.7786 78.8611 63.8969 78.7066 63.9869C78.6662 64.0071 78.638 64.0178 78.6219 64.0178C78.5937 64.0178 78.5722 64.003 78.556 63.9735C78.5399 63.9439 78.5318 63.9049 78.5318 63.8579C78.5318 63.7289 78.6125 63.6039 78.7737 63.4816C78.935 63.3607 79.2065 63.2128 79.5868 63.0381ZM85.1197 63.6644V63.8149C84.9799 63.9439 84.8616 64.0487 84.7662 64.128C84.6695 64.2073 84.5714 64.2785 84.4746 64.3431C84.3778 64.4062 84.2985 64.4519 84.2354 64.4788C84.1722 64.5057 84.1171 64.5191 84.0714 64.5191C83.9639 64.5191 83.8752 64.4788 83.8067 64.3982C83.7381 64.3175 83.7032 64.214 83.7032 64.0864C83.7032 63.9399 83.7328 63.7961 83.7919 63.6536C83.851 63.5098 83.9357 63.362 84.0445 63.2101C84.1547 63.0569 84.2918 62.8863 84.4571 62.6954C84.5794 62.5557 84.6412 62.4764 84.6412 62.4576C84.6412 62.4482 84.6372 62.4387 84.6305 62.432C84.6224 62.4253 84.6157 62.4213 84.6063 62.4213C84.5781 62.4213 84.4934 62.4831 84.3496 62.6054C84.2072 62.7277 84.023 62.9091 83.7986 63.147C83.5742 63.3849 83.3323 63.6684 83.0716 63.9977C83.0568 64.0151 83.0097 64.0743 82.9318 64.1764C82.8538 64.2772 82.7987 64.3431 82.7665 64.374C82.7342 64.4049 82.706 64.4197 82.6832 64.4197C82.6429 64.4197 82.6066 64.378 82.577 64.296C82.5474 64.2127 82.5327 64.1253 82.5327 64.0313C82.5327 63.9748 82.5515 63.913 82.5891 63.8472C82.6267 63.7813 82.7074 63.663 82.8337 63.4937C82.9587 63.3244 83.0621 63.1806 83.1441 63.0637C83.2261 62.9467 83.3161 62.8043 83.4143 62.639C83.4828 62.5234 83.5339 62.4307 83.5675 62.3635C83.5997 62.2949 83.6172 62.2345 83.6172 62.1807C83.6172 62.1364 83.6037 62.1122 83.5782 62.1122C83.5231 62.1122 83.4183 62.1874 83.2651 62.3353C83.1105 62.4831 82.921 62.7035 82.6953 62.9965C82.4695 63.2881 82.233 63.6268 81.987 64.0125C81.9064 64.1428 81.8499 64.2315 81.8163 64.2772C81.7827 64.3216 81.7465 64.3457 81.7048 64.3457C81.6537 64.3457 81.6067 64.2906 81.561 64.1831C81.5167 64.0743 81.4938 63.9856 81.4938 63.9184C81.4938 63.8969 81.5019 63.8727 81.5193 63.8472C81.7129 63.5891 81.8714 63.3714 81.9951 63.1913C82.1187 63.0112 82.2289 62.8406 82.3257 62.6793C82.4225 62.518 82.4923 62.385 82.5353 62.2802C82.5797 62.1753 82.6012 62.0934 82.6012 62.0329C82.6012 61.9697 82.573 61.9388 82.5165 61.9388C82.4695 61.9388 82.3902 61.9684 82.2773 62.0289C82.1644 62.0893 82.022 62.1713 81.8513 62.2748C81.6793 62.3783 81.5422 62.4576 81.4387 62.5127C81.3352 62.5678 81.2573 62.5946 81.2062 62.5946C81.1551 62.5946 81.1336 62.5678 81.1336 62.514C81.1336 62.4831 81.1444 62.4132 81.1646 62.3017C81.1847 62.1915 81.2062 62.1135 81.2277 62.0678C81.2586 62.01 81.3366 61.9321 81.4629 61.8353C81.5892 61.7386 81.6591 61.6915 81.6726 61.6915C81.6846 61.6915 81.69 61.6969 81.69 61.7063C81.69 61.7117 81.6846 61.7211 81.6726 61.7318C81.6121 61.7802 81.5677 61.8205 81.5382 61.8515C81.5086 61.8824 81.4911 61.916 81.4831 61.9522C81.7505 61.791 81.9897 61.6687 82.202 61.5854C82.413 61.5007 82.5595 61.459 82.6415 61.459C82.6832 61.459 82.7208 61.4873 82.7571 61.541C82.7934 61.5961 82.8256 61.6593 82.8512 61.7318C82.8767 61.8044 82.8888 61.8515 82.8888 61.8716C82.8888 61.9469 82.87 62.0342 82.8323 62.1364C82.7947 62.2385 82.7423 62.3568 82.6778 62.4912C82.6133 62.6255 82.5313 62.7935 82.4359 62.9951C82.5125 62.897 82.5851 62.807 82.6536 62.7223C82.7221 62.639 82.7907 62.5584 82.8592 62.4791C82.9278 62.3998 82.9963 62.3205 83.0662 62.2398C83.1616 62.131 83.2678 62.0262 83.386 61.9254C83.5056 61.8246 83.6158 61.7439 83.7193 61.6794C83.8214 61.6163 83.8927 61.584 83.929 61.584C83.98 61.584 84.0257 61.6122 84.066 61.6687C84.1064 61.7251 84.1265 61.7856 84.1265 61.8501C84.1265 61.8918 84.0983 61.9738 84.0432 62.0934C83.9881 62.213 83.9075 62.3662 83.8 62.5543C83.6938 62.7411 83.5527 62.983 83.3766 63.2787C83.5433 63.1013 83.7166 62.9199 83.8954 62.7317C84.0755 62.5449 84.2085 62.4078 84.2959 62.3218C84.3832 62.2358 84.4571 62.17 84.5149 62.1243C84.5955 62.0624 84.6762 61.9966 84.7568 61.9254C84.8374 61.8541 84.902 61.7977 84.949 61.7574C84.996 61.7157 85.0377 61.6848 85.074 61.6633C85.1103 61.6405 85.1439 61.6297 85.1748 61.6297C85.2124 61.6297 85.2608 61.6727 85.3186 61.7614C85.3764 61.8488 85.4059 61.9052 85.4059 61.9294C85.4059 61.9603 85.3885 61.9966 85.3549 62.0396C85.3199 62.0813 85.25 62.1606 85.1412 62.2761C84.9423 62.4898 84.7702 62.7048 84.6238 62.9225C84.4773 63.1403 84.3657 63.3378 84.2918 63.5179C84.2166 63.6966 84.1789 63.8377 84.1789 63.9426C84.1789 64.0071 84.191 64.0528 84.2152 64.0823C84.2394 64.1119 84.277 64.1267 84.3281 64.1267C84.3751 64.1267 84.4182 64.1173 84.4585 64.1012C84.4988 64.0837 84.5431 64.0581 84.5915 64.0259C84.6412 63.9936 84.6869 63.9627 84.7313 63.9332C84.7931 63.8969 84.8536 63.8579 84.9127 63.8162C84.9718 63.7746 85.0175 63.7423 85.0511 63.7168C85.0834 63.6926 85.1076 63.6751 85.125 63.6657L85.1197 63.6644ZM85.4543 63.7517C85.6599 63.6684 85.8333 63.5824 85.9757 63.4924C86.1168 63.4023 86.2217 63.3109 86.2902 63.2196C86.3587 63.1282 86.3937 63.0368 86.3937 62.9441C86.3937 62.8809 86.3735 62.8339 86.3332 62.8029C86.2929 62.772 86.2391 62.7559 86.1706 62.7559C86.0846 62.7559 85.9865 62.7801 85.8776 62.8285C85.7674 62.8769 85.6572 62.9481 85.5457 63.0435C85.3831 63.1819 85.2662 63.3136 85.1949 63.4386C85.1237 63.5636 85.0874 63.7034 85.0874 63.8566C85.0874 64.0326 85.125 64.1697 85.2016 64.2705C85.2782 64.3713 85.3817 64.421 85.5107 64.421C85.6599 64.421 85.8077 64.3672 85.9515 64.2624C86.0967 64.1563 86.2512 64.0044 86.4165 63.8055V63.6711C86.3077 63.7652 86.215 63.8391 86.1384 63.8942C86.0631 63.9493 85.9865 63.995 85.9099 64.0286C85.8333 64.0622 85.7594 64.0783 85.6881 64.0783C85.6169 64.0783 85.5645 64.0541 85.5215 64.0057C85.4785 63.9574 85.4583 63.8902 85.4583 63.8042V63.7491L85.4543 63.7517ZM85.4758 63.6093C85.4906 63.5233 85.5215 63.4426 85.5699 63.3701C85.6183 63.2962 85.672 63.233 85.7325 63.1792C85.793 63.1255 85.8534 63.0811 85.9126 63.0475C85.9717 63.0139 86.0147 62.9978 86.0416 62.9978C86.0725 62.9978 86.0873 63.0139 86.0873 63.0475C86.0873 63.0811 86.0644 63.1309 86.0201 63.2007C85.9757 63.2693 85.9059 63.3432 85.8131 63.4184C85.7191 63.4937 85.6075 63.5582 85.4758 63.6093ZM87.4621 63.6469V63.8095C87.1557 64.214 86.9071 64.417 86.7162 64.417C86.6127 64.417 86.5308 64.3605 86.4716 64.2476C86.4125 64.1348 86.3829 63.9856 86.3829 63.8015C86.3829 63.6523 86.4179 63.4749 86.4878 63.2706C86.5577 63.065 86.6517 62.8567 86.7686 62.6457C86.8856 62.4347 87.0079 62.2506 87.1342 62.0934C87.2605 61.9361 87.3788 61.8259 87.4863 61.7628C87.5293 61.7372 87.5642 61.7224 87.5884 61.7224C87.6193 61.7224 87.6395 61.7359 87.6502 61.7628C87.6596 61.7896 87.665 61.8367 87.665 61.9025C87.665 62.1055 87.583 62.3554 87.4177 62.6511C87.2524 62.9467 87.0213 63.2491 86.7256 63.5569C86.7108 63.6335 86.7041 63.6913 86.7041 63.7316C86.7041 63.8257 86.7243 63.9009 86.7646 63.96C86.8049 64.0178 86.86 64.0474 86.9326 64.0474C86.9689 64.0474 87.0092 64.0326 87.0522 64.0044C87.0952 63.9762 87.1396 63.9399 87.1866 63.8982C87.2336 63.8552 87.325 63.7719 87.4608 63.6456L87.4621 63.6469ZM86.8049 63.2532C86.8815 63.1779 86.9541 63.0932 87.0253 62.9992C87.0966 62.9037 87.1637 62.8029 87.2269 62.6941C87.2901 62.5866 87.3398 62.4885 87.3747 62.4025C87.411 62.3164 87.4285 62.2506 87.4285 62.2076C87.4285 62.174 87.4164 62.1579 87.3936 62.1579C87.3841 62.1579 87.368 62.1659 87.3438 62.1821C87.2538 62.256 87.1543 62.3971 87.0428 62.6108C86.9313 62.8231 86.8533 63.0381 86.8049 63.2545V63.2532ZM87.6986 63.2787C87.6153 63.3566 87.5548 63.4211 87.5172 63.4695C87.4796 63.5179 87.454 63.5649 87.4406 63.6106C87.4285 63.6563 87.4218 63.7141 87.4218 63.7826C87.4218 63.8767 87.4406 63.9694 87.4782 64.0568C87.5159 64.1455 87.5589 64.2167 87.6059 64.2732C87.6543 64.3283 87.6946 64.3565 87.7268 64.3565C87.794 64.3565 87.8801 64.3068 87.9835 64.2073C88.087 64.1065 88.2456 63.9385 88.4593 63.702C88.376 63.9211 88.3329 64.0877 88.3329 64.2033C88.3329 64.2772 88.345 64.331 88.3692 64.3686C88.3934 64.4062 88.4337 64.425 88.4915 64.425C88.6515 64.425 88.9162 64.2194 89.2858 63.8095V63.6765C89.0681 63.8687 88.9081 63.9641 88.8047 63.9641C88.7012 63.9641 88.6555 63.909 88.6555 63.8015C88.6555 63.7356 88.6703 63.6805 88.6985 63.6348C88.7267 63.5891 88.7764 63.5192 88.8477 63.4225C88.9189 63.3271 88.9538 63.2612 88.9538 63.2263C88.9538 63.2088 88.9498 63.1886 88.9417 63.1658C88.9323 63.143 88.9202 63.1134 88.9041 63.0771C88.888 63.0408 88.8745 63.0099 88.8651 62.9871C88.9162 62.9696 88.9525 62.9548 88.9726 62.9427C88.9928 62.9306 89.0036 62.9118 89.0036 62.8849C89.0036 62.8688 88.9955 62.8433 88.9807 62.8097C88.9659 62.7761 88.9444 62.7465 88.9189 62.721C88.892 62.6954 88.8638 62.6833 88.8329 62.6833C88.7186 62.6833 88.5574 62.7317 88.3491 62.8298C88.1394 62.9279 87.9244 63.0771 87.7013 63.28L87.6986 63.2787ZM88.7496 63.0368C88.5708 63.2867 88.4176 63.4856 88.2913 63.6308C88.1636 63.7773 88.0238 63.8955 87.8693 63.9856C87.829 64.0057 87.8008 64.0165 87.7846 64.0165C87.7564 64.0165 87.7349 64.0017 87.7188 63.9721C87.7027 63.9426 87.6946 63.9036 87.6946 63.8566C87.6946 63.7275 87.7752 63.6026 87.9365 63.4803C88.0978 63.3593 88.3692 63.2115 88.7496 63.0368ZM90.2749 63.7571L89.8838 64.0877C89.6983 64.249 89.5734 64.3296 89.5116 64.3296C89.4551 64.3296 89.3946 64.2651 89.3315 64.1334C89.2683 64.003 89.2374 63.8875 89.2374 63.7907C89.2374 63.7074 89.2495 63.6362 89.275 63.5784C89.3006 63.5206 89.3449 63.4453 89.4081 63.3539C89.4981 63.2303 89.5828 63.1241 89.6648 63.0381C89.7467 62.9521 89.8193 62.8849 89.8811 62.8379C89.9443 62.7908 89.9886 62.7667 90.0128 62.7667C90.0518 62.7667 90.0908 62.7868 90.1284 62.8285C90.166 62.8701 90.1835 62.9118 90.1835 62.9561C90.1835 62.9844 90.1647 63.0287 90.123 63.0905C90.0827 63.1524 90.0195 63.2303 89.9322 63.3244C89.8448 63.4185 89.7239 63.5313 89.5693 63.663L89.5277 63.784C89.5169 63.8068 89.5102 63.827 89.5102 63.8458C89.5102 63.8861 89.529 63.9049 89.5693 63.9049C89.6097 63.9049 89.7064 63.8539 89.8569 63.7491C90.0088 63.6456 90.1728 63.5058 90.3488 63.3298C90.4173 63.2612 90.4751 63.2007 90.5195 63.1483C90.5638 63.0959 90.6055 63.0462 90.6418 63.0005C90.6781 62.9548 90.709 62.9199 90.7318 62.897C90.756 62.8742 90.7775 62.8607 90.7963 62.8594C90.8326 62.8554 90.8608 62.8701 90.8823 62.9064C90.9025 62.9414 90.9132 62.9938 90.9132 63.061C90.9132 63.0999 90.8958 63.1497 90.8608 63.2088C90.8259 63.2679 90.76 63.3687 90.6633 63.5112C90.5665 63.6536 90.4711 63.8015 90.3757 63.9547C90.2803 64.1079 90.1822 64.2799 90.0827 64.4707C90.0867 64.4667 90.1324 64.4223 90.2171 64.339C90.3018 64.2557 90.3932 64.1697 90.4886 64.0783C90.584 63.9883 90.6619 63.9157 90.7224 63.8606C90.7842 63.8055 90.8608 63.741 90.9536 63.6684V63.8149C90.756 64.0272 90.5773 64.2275 90.4173 64.417C90.2574 64.6065 90.1338 64.7583 90.0464 64.8726C89.9591 64.9868 89.9093 65.0526 89.8946 65.0715C89.8542 65.1225 89.8193 65.1709 89.7884 65.2153C89.7575 65.2596 89.7306 65.2932 89.7091 65.3187C89.6876 65.3429 89.6715 65.355 89.658 65.355C89.6271 65.355 89.6003 65.3241 89.5761 65.2636C89.5519 65.2032 89.5398 65.1494 89.5398 65.1024C89.5398 65.0607 89.5478 65.0231 89.564 64.9908C89.6701 64.7543 89.9053 64.3431 90.2722 63.7571H90.2749ZM91.2049 63.2787C91.1216 63.3566 91.0611 63.4211 91.0235 63.4695C90.9858 63.5179 90.9603 63.5649 90.9468 63.6106C90.9348 63.6563 90.928 63.7141 90.928 63.7826C90.928 63.8767 90.9468 63.9694 90.9845 64.0568C91.0221 64.1455 91.0651 64.2167 91.1121 64.2732C91.1605 64.3283 91.2008 64.3565 91.2331 64.3565C91.3003 64.3565 91.3863 64.3068 91.4898 64.2073C91.5933 64.1065 91.7518 63.9385 91.9655 63.702C91.8822 63.9211 91.8392 64.0877 91.8392 64.2033C91.8392 64.2772 91.8513 64.331 91.8755 64.3686C91.8997 64.4062 91.94 64.425 91.9978 64.425C92.1577 64.425 92.4224 64.2194 92.792 63.8095V63.6765C92.5743 63.8687 92.4144 63.9641 92.3109 63.9641C92.2074 63.9641 92.1617 63.909 92.1617 63.8015C92.1617 63.7356 92.1765 63.6805 92.2047 63.6348C92.233 63.5891 92.2827 63.5192 92.3539 63.4225C92.4251 63.3271 92.4601 63.2612 92.4601 63.2263C92.4601 63.2088 92.456 63.1886 92.448 63.1658C92.4386 63.143 92.4265 63.1134 92.4104 63.0771C92.3942 63.0408 92.3808 63.0099 92.3714 62.9871C92.4225 62.9696 92.4587 62.9548 92.4789 62.9427C92.499 62.9306 92.5098 62.9118 92.5098 62.8849C92.5098 62.8688 92.5017 62.8433 92.487 62.8097C92.4722 62.7761 92.4507 62.7465 92.4251 62.721C92.3983 62.6954 92.37 62.6833 92.3391 62.6833C92.2249 62.6833 92.0636 62.7317 91.8553 62.8298C91.6457 62.9279 91.4306 63.0771 91.2076 63.28L91.2049 63.2787ZM92.2558 63.0368C92.0771 63.2867 91.9239 63.4856 91.7975 63.6308C91.6699 63.7773 91.5301 63.8955 91.3755 63.9856C91.3352 64.0057 91.307 64.0165 91.2909 64.0165C91.2627 64.0165 91.2412 64.0017 91.225 63.9721C91.2089 63.9426 91.2008 63.9036 91.2008 63.8566C91.2008 63.7275 91.2815 63.6026 91.4427 63.4803C91.604 63.3593 91.8755 63.2115 92.2558 63.0368ZM94.2488 63.2747C93.9908 63.5609 93.8631 63.7611 93.8631 63.874C93.8631 63.9372 93.8886 63.9681 93.9397 63.9681C93.9814 63.9681 94.0365 63.9453 94.105 63.9009C94.1736 63.8566 94.2797 63.7773 94.4235 63.663V63.8136C94.2166 64.0192 94.0566 64.167 93.9464 64.257C93.8349 64.3471 93.7449 64.3928 93.6736 64.3928C93.554 64.3928 93.4935 64.3135 93.4935 64.1549C93.4935 64.1079 93.5016 64.0622 93.515 64.0178C93.5298 63.9721 93.55 63.9251 93.5755 63.8767C93.6011 63.827 93.64 63.7571 93.6924 63.6671C93.7449 63.5757 93.8053 63.4722 93.8739 63.3566C93.7906 63.3996 93.6857 63.483 93.5607 63.6079C93.4788 63.6872 93.4102 63.7625 93.3524 63.8337C93.296 63.9049 93.2355 63.9829 93.1697 64.0702C93.1052 64.1576 93.0568 64.2167 93.0272 64.2463C92.9976 64.2759 92.9667 64.2906 92.9372 64.2906C92.8901 64.2906 92.8471 64.2423 92.8082 64.1442C92.7678 64.0461 92.749 63.9318 92.749 63.8015C92.749 63.7208 92.7584 63.659 92.7772 63.6133C92.7947 63.569 92.831 63.5045 92.8861 63.4198C92.9869 63.2652 93.0742 63.151 93.1468 63.0784C93.2207 63.0072 93.2906 62.9696 93.3565 62.9696C93.4035 62.9696 93.4411 62.9776 93.4693 62.9938C93.4976 63.0099 93.5124 63.0354 93.5124 63.069C93.5124 63.0838 93.5083 63.0986 93.5003 63.1147C93.4909 63.1309 93.4814 63.1456 93.4707 63.1591C93.4599 63.1712 93.4371 63.198 93.4022 63.2357C93.1723 63.491 93.0568 63.6577 93.0568 63.7329C93.0568 63.7759 93.0716 63.7961 93.0984 63.7961C93.1159 63.7961 93.1495 63.7679 93.2006 63.7114C93.2503 63.655 93.3161 63.5811 93.3954 63.4897C93.4761 63.3983 93.5701 63.3029 93.6777 63.2034C93.7865 63.104 93.9101 63.0086 94.0486 62.9158C94.1265 62.8607 94.191 62.8339 94.2421 62.8339C94.2663 62.8339 94.2891 62.8661 94.312 62.9306C94.3348 62.9951 94.3456 63.0596 94.3456 63.1268C94.3456 63.1591 94.3147 63.2075 94.2515 63.2733L94.2488 63.2747ZM95.3105 62.6914C95.2742 62.6914 95.2393 62.6766 95.207 62.6497C95.1748 62.6215 95.1573 62.5866 95.1573 62.5449C95.1573 62.4804 95.1882 62.4092 95.2487 62.3299C95.3105 62.2506 95.3737 62.2116 95.4382 62.2116C95.4825 62.2116 95.5188 62.2251 95.5484 62.2519C95.5779 62.2788 95.5914 62.3191 95.5914 62.3689C95.5914 62.432 95.5618 62.5019 95.5013 62.5772C95.4409 62.6524 95.3777 62.6914 95.3092 62.6914H95.3105ZM95.4597 63.6711C95.328 63.7826 95.2205 63.8633 95.1385 63.913C95.0565 63.9627 94.9799 63.9883 94.9114 63.9883C94.8482 63.9883 94.7971 63.9708 94.7582 63.9359C94.7178 63.9009 94.699 63.8566 94.699 63.8042C94.699 63.7423 94.7178 63.6886 94.7568 63.6389C94.7944 63.5905 94.8778 63.5058 95.0054 63.3835C95.0498 63.3405 95.1022 63.2693 95.16 63.1698C95.2178 63.0704 95.2473 62.9965 95.2473 62.9508C95.2473 62.8822 95.203 62.8473 95.113 62.8473C94.9409 62.8473 94.7501 63.0086 94.5431 63.3324C94.4988 63.4037 94.4692 63.4561 94.4531 63.4897C94.437 63.5233 94.4235 63.5663 94.4114 63.6187C94.4007 63.6698 94.394 63.7249 94.394 63.7813C94.394 63.9305 94.4235 64.0676 94.4813 64.1939C94.5391 64.3202 94.6291 64.382 94.7487 64.382C94.8348 64.382 94.9382 64.335 95.0619 64.2423C95.1842 64.1495 95.3172 64.0111 95.4597 63.8283V63.6684V63.6711Z" fill="#E76A39"/>
</g>
<rect x="1.5" y="1" width="110" height="110" rx="9" stroke="#CCCCCC" stroke-width="2"/>
<defs>
<clipPath id="clip0_528_597">
<rect x="2.5" y="2" width="108" height="108" rx="8" fill="white"/>
</clipPath>
</defs>
</svg>
