<svg width="113" height="112" viewBox="0 0 113 112" fill="none" xmlns="http://www.w3.org/2000/svg">
<g clip-path="url(#clip0_528_591)">
<rect x="2.5" y="2" width="108" height="108" rx="8" fill="white"/>
<path fill-rule="evenodd" clip-rule="evenodd" d="M38.1023 69.2887L42.4754 42.3375H19.8373C18.1804 42.3375 16.8373 43.6807 16.8373 45.3375V66.2887C16.8373 67.9455 18.1804 69.2887 19.8373 69.2887H38.1023Z" fill="url(#paint0_linear_528_591)"/>
<path fill-rule="evenodd" clip-rule="evenodd" d="M42.4754 42.3375L38.1023 69.2887H69.7867L65.4149 42.3375H42.4754Z" fill="url(#paint1_linear_528_591)"/>
<path fill-rule="evenodd" clip-rule="evenodd" d="M65.4149 42.3375L69.7867 69.2887H93.1613C94.8182 69.2887 96.1613 67.9455 96.1613 66.2887V45.3375C96.1613 43.6807 94.8182 42.3375 93.1613 42.3375H65.4149Z" fill="url(#paint2_linear_528_591)"/>
<path fill-rule="evenodd" clip-rule="evenodd" d="M20.2213 42.0001H92.7787C93.8027 42.0001 94.7327 42.4194 95.4074 43.0927C96.082 43.7674 96.5 44.6974 96.5 45.7215V65.9046C96.5 66.9287 96.0807 67.8587 95.4074 68.5333C94.7327 69.208 93.8027 69.6259 92.7787 69.6259H20.2213C19.1973 69.6259 18.2673 69.2066 17.5926 68.5333C16.918 67.8587 16.5 66.9287 16.5 65.9046V45.7215C16.5 44.6974 16.9193 43.7674 17.5926 43.0927C18.2673 42.4181 19.1973 42.0001 20.2213 42.0001ZM92.7773 42.6761H20.2213C19.3841 42.6761 18.6221 43.0188 18.0711 43.5712C17.5187 44.1235 17.176 44.8842 17.176 45.7215V65.9046C17.176 66.7418 17.5187 67.5039 18.0711 68.0549C18.6234 68.6072 19.3841 68.9499 20.2213 68.9499H92.7787C93.6159 68.9499 94.3779 68.6072 94.929 68.0549C95.4813 67.5025 95.824 66.7418 95.824 65.9046V45.7215C95.824 44.8842 95.4813 44.1222 94.929 43.5712C94.3766 43.0188 93.6159 42.6761 92.7787 42.6761H92.7773Z" fill="white"/>
<path fill-rule="evenodd" clip-rule="evenodd" d="M37.0016 46.6758C36.8484 46.8236 36.8148 46.8989 36.7153 47.0911C36.6306 47.2564 36.5514 47.4311 36.4774 47.6138C36.2328 48.22 36.046 48.9161 35.8821 49.6593C35.4009 51.8472 35.1792 53.9706 34.8056 56.1518C34.7465 56.4999 34.6725 56.8937 34.5489 57.2606C34.3836 57.7551 34.135 58.204 33.6659 58.4607C33.5087 58.5467 33.3286 58.6112 33.1203 58.6502H26.9369C27.2621 58.3048 27.5376 57.6301 27.7782 56.766C27.9663 56.0913 28.133 55.3038 28.2862 54.4679C28.5604 52.9667 28.731 51.4481 28.977 49.9429C29.1759 48.7266 29.6167 47.0252 30.7187 46.6758H37.0002H37.0016Z" fill="#F0B300"/>
<path fill-rule="evenodd" clip-rule="evenodd" d="M44.8784 56.3104C44.8784 56.5644 44.8408 56.7996 44.7668 57.016C44.6902 57.2297 44.5854 57.4245 44.4483 57.5952C44.3113 57.7659 44.1473 57.9164 43.9551 58.0468C43.7629 58.1745 43.5466 58.2847 43.3073 58.372C43.0654 58.4594 42.8074 58.5252 42.5332 58.5682C42.2591 58.6126 41.9433 58.6341 41.5898 58.6341H39.1223C39.0108 58.6341 38.906 58.6018 38.8065 58.5373C38.7071 58.4715 38.6573 58.3572 38.6573 58.196V50.971C38.6573 50.8084 38.7071 50.6955 38.8065 50.6296C38.906 50.5651 39.0108 50.5329 39.1223 50.5329H41.2686C41.8317 50.5329 42.294 50.5772 42.6528 50.67C43.0144 50.7614 43.3154 50.8971 43.5546 51.0718C43.7965 51.2465 43.978 51.4629 44.0976 51.7169C44.2199 51.9709 44.2817 52.2598 44.2817 52.5797C44.2817 52.7719 44.2548 52.956 44.1997 53.1307C44.1473 53.3054 44.068 53.468 43.9632 53.6159C43.8584 53.7637 43.7293 53.8954 43.5694 54.0137C43.4122 54.1306 43.2307 54.2247 43.0265 54.3026C43.2832 54.3429 43.5251 54.4195 43.7481 54.5311C43.9726 54.6399 44.1661 54.781 44.3354 54.9517C44.5021 55.1224 44.6338 55.324 44.7319 55.5538C44.8287 55.7823 44.8784 56.0349 44.8784 56.3104ZM88.7442 56.2029C88.7442 56.4919 88.6999 56.7526 88.6071 56.9851C88.513 57.2203 88.3854 57.4272 88.2241 57.6073C88.0601 57.7874 87.8653 57.9406 87.6395 58.0683C87.4151 58.1987 87.1637 58.3062 86.8923 58.3895C86.6208 58.4728 86.3292 58.5346 86.0201 58.5736C85.711 58.6139 85.3669 58.6327 84.9866 58.6327H82.4788C82.3175 58.6327 82.1818 58.5924 82.0729 58.5104C81.9627 58.4298 81.909 58.2968 81.909 58.1126V51.049C81.909 50.8648 81.9641 50.7331 82.0729 50.6511C82.1831 50.5705 82.3175 50.5289 82.4788 50.5289H84.8495C85.4274 50.5289 85.9179 50.5719 86.3184 50.6552C86.7189 50.7385 87.0576 50.8648 87.3317 51.0328C87.6086 51.2022 87.8169 51.4158 87.9647 51.6739C88.1085 51.9319 88.1838 52.2383 88.1838 52.5891C88.1838 52.7853 88.1542 52.9694 88.0937 53.1428C88.036 53.3162 87.9513 53.4734 87.8397 53.6145C87.7282 53.7583 87.5911 53.882 87.4258 53.9908C87.2645 54.0997 87.0777 54.187 86.8681 54.2542C87.1369 54.2972 87.3842 54.3698 87.6099 54.4746C87.8344 54.5795 88.0333 54.7125 88.1999 54.8791C88.3666 55.0431 88.501 55.2366 88.5977 55.4584C88.6945 55.6788 88.7415 55.9261 88.7415 56.2016L88.7442 56.2029ZM86.2633 52.792C86.2633 52.6281 86.2337 52.4816 86.176 52.3539C86.1182 52.2235 86.0295 52.116 85.9125 52.0314C85.7983 51.9454 85.6505 51.8795 85.4717 51.8325C85.2943 51.7881 85.0578 51.7639 84.7621 51.7639H83.7905V53.8672H84.8643C85.1411 53.8672 85.3629 53.8389 85.5268 53.7838C85.6935 53.7287 85.8306 53.6495 85.9408 53.5527C86.051 53.4546 86.1303 53.339 86.1854 53.206C86.2378 53.0756 86.2647 52.9372 86.2647 52.792H86.2633ZM86.7512 56.2607C86.7512 56.0726 86.7162 55.9032 86.641 55.7567C86.5684 55.6076 86.4622 55.4826 86.3224 55.3831C86.18 55.285 86.0012 55.2057 85.7822 55.152C85.5631 55.0982 85.2796 55.0713 84.9274 55.0713H83.7891V57.3748H85.1761C85.4422 57.3748 85.6666 57.352 85.8507 57.3022C86.0322 57.2552 86.1894 57.1853 86.3238 57.0913C86.4582 56.9972 86.563 56.8803 86.6369 56.7405C86.7122 56.5994 86.7485 56.4408 86.7485 56.262L86.7512 56.2607ZM81.2558 51.2062C81.2558 51.3285 81.2478 51.4306 81.2357 51.5166C81.2236 51.6026 81.2061 51.6725 81.1806 51.7236C81.155 51.7747 81.1255 51.815 81.0905 51.8392C81.0529 51.8647 81.0139 51.8782 80.9682 51.8782H78.6043V58.4096C78.6043 58.45 78.5895 58.4889 78.5572 58.5212C78.525 58.5548 78.4726 58.583 78.4 58.6018C78.3274 58.6233 78.228 58.6408 78.103 58.6529C77.9807 58.6663 77.8261 58.6717 77.6393 58.6717C77.4525 58.6717 77.3007 58.665 77.1757 58.6529C77.0534 58.6395 76.9539 58.6233 76.8814 58.6018C76.8061 58.583 76.7537 58.5548 76.7241 58.5212C76.6919 58.4889 76.6771 58.4513 76.6771 58.4096V51.8782H74.3118C74.2647 51.8782 74.2217 51.8647 74.1895 51.8392C74.1545 51.8163 74.125 51.7747 74.0994 51.7236C74.0766 51.6725 74.0578 51.6013 74.0443 51.5166C74.0349 51.4306 74.0268 51.3285 74.0268 51.2062C74.0268 51.0839 74.0349 50.975 74.0443 50.8877C74.0564 50.8003 74.0766 50.7291 74.0994 50.678C74.125 50.6243 74.1545 50.588 74.1895 50.5651C74.2217 50.5423 74.2647 50.5315 74.3118 50.5315H80.9655C81.0099 50.5315 81.0502 50.5423 81.0879 50.5651C81.1228 50.588 81.1524 50.6256 81.1779 50.678C81.2034 50.7291 81.2209 50.8003 81.233 50.8877C81.2451 50.975 81.2532 51.0825 81.2532 51.2062H81.2558ZM73.3791 58.0562C73.3791 58.153 73.3589 58.2376 73.3213 58.3142C73.281 58.3895 73.2286 58.4513 73.164 58.4997C73.0969 58.5508 73.0202 58.587 72.9302 58.6112C72.8402 58.6327 72.7488 58.6448 72.656 58.6448H71.8389C71.6696 58.6448 71.5204 58.6301 71.3981 58.6005C71.2731 58.5723 71.1589 58.5198 71.0541 58.4419C70.9493 58.3653 70.8471 58.2605 70.7504 58.1274C70.6536 57.9971 70.5434 57.8264 70.4238 57.6167L68.0732 53.8295C67.9389 53.6024 67.7991 53.3619 67.658 53.1011C67.5182 52.8404 67.3919 52.5864 67.279 52.3405H67.2642C67.2844 52.6402 67.2991 52.9385 67.3086 53.2382C67.3166 53.5379 67.3207 53.8457 67.3207 54.1615V58.4016C67.3207 58.4419 67.3086 58.4809 67.2803 58.5131C67.2548 58.5467 67.2078 58.575 67.1432 58.5991C67.0761 58.622 66.9887 58.6395 66.8772 58.6529C66.7656 58.6663 66.6205 58.6717 66.4458 58.6717C66.271 58.6717 66.134 58.665 66.0224 58.6529C65.9109 58.6395 65.8235 58.6233 65.759 58.5991C65.6972 58.575 65.6542 58.5481 65.63 58.5131C65.6045 58.4809 65.5924 58.4432 65.5924 58.4016V51.1188C65.5924 50.924 65.6596 50.7775 65.7939 50.678C65.9256 50.5799 66.091 50.5302 66.2845 50.5302H67.3153C67.4994 50.5302 67.6539 50.5436 67.7816 50.5705C67.9093 50.5987 68.0208 50.6431 68.1203 50.7049C68.2197 50.7667 68.3152 50.8541 68.4012 50.9656C68.4885 51.0745 68.5786 51.2116 68.67 51.3742L70.5098 54.3362C70.6173 54.5163 70.7221 54.6937 70.8256 54.8657C70.9304 55.0391 71.0326 55.2124 71.1293 55.3845C71.2261 55.5578 71.3215 55.7285 71.4129 55.8952C71.5056 56.0618 71.5943 56.2285 71.6817 56.3951H71.6898C71.675 56.1021 71.6642 55.7984 71.6575 55.4799C71.6494 55.1641 71.6481 54.8603 71.6481 54.5741V50.7721C71.6481 50.7318 71.6629 50.6928 71.6911 50.6592C71.7207 50.627 71.7704 50.5974 71.8376 50.5719C71.9048 50.549 71.9948 50.5289 72.1064 50.5208C72.2179 50.51 72.3631 50.5033 72.5378 50.5033C72.7125 50.5033 72.8415 50.51 72.9531 50.5208C73.0646 50.5289 73.152 50.549 73.2124 50.5719C73.2743 50.5974 73.3173 50.627 73.3401 50.6592C73.3656 50.6928 73.3777 50.7318 73.3777 50.7721V58.0535L73.3791 58.0562ZM64.2699 58.4715C64.2699 58.5037 64.2605 58.5333 64.2431 58.5588C64.2229 58.5844 64.1906 58.6032 64.1436 58.6206C64.0966 58.6381 64.0334 58.6502 63.9487 58.6596C63.8668 58.6677 63.7619 58.6731 63.6356 58.6731C63.5093 58.6731 63.3964 58.669 63.3117 58.6623C63.227 58.6556 63.1545 58.6448 63.098 58.6327C63.0389 58.618 62.9905 58.5965 62.9542 58.5682C62.9193 58.5427 62.887 58.5078 62.8575 58.4715L60.0863 55.3536V58.4782C60.0863 58.5104 60.0769 58.54 60.0567 58.5615C60.0366 58.5844 60.0043 58.6045 59.9626 58.6206C59.9183 58.6381 59.8578 58.6502 59.7812 58.6596C59.7019 58.6677 59.6025 58.6731 59.4802 58.6731C59.3659 58.6731 59.2678 58.669 59.1885 58.6596C59.1119 58.6516 59.0488 58.6381 59.0044 58.6206C58.9574 58.6032 58.9251 58.5844 58.9103 58.5615C58.8929 58.54 58.8835 58.5104 58.8835 58.4782V50.1136C58.8835 50.08 58.8929 50.0491 58.9103 50.0262C58.9251 50.0007 58.9574 49.9792 59.0044 49.9617C59.0488 49.9469 59.1119 49.9335 59.1885 49.9254C59.2678 49.9174 59.3659 49.912 59.4802 49.912C59.6025 49.912 59.7019 49.916 59.7812 49.9254C59.8578 49.9335 59.9183 49.9469 59.9626 49.9617C60.0056 49.9792 60.0379 50.0007 60.0567 50.0262C60.0769 50.0491 60.0863 50.08 60.0863 50.1136V55.2084L62.5672 52.8686C62.6048 52.8256 62.6465 52.792 62.6922 52.7638C62.7338 52.7383 62.7862 52.7141 62.8494 52.6953C62.9085 52.6764 62.9811 52.6657 63.0631 52.659C63.1451 52.6523 63.2445 52.6482 63.3614 52.6482C63.4784 52.6482 63.5859 52.6523 63.6679 52.659C63.7498 52.6657 63.817 52.6738 63.8694 52.6885C63.9192 52.7033 63.9568 52.7221 63.9796 52.7463C63.9998 52.7678 64.0119 52.8001 64.0119 52.8364C64.0119 52.8874 63.9944 52.9372 63.9649 52.9856C63.9326 53.0366 63.8802 53.0944 63.8076 53.1603L61.4289 55.203L64.0979 58.1758C64.1597 58.2457 64.2054 58.3035 64.2323 58.3492C64.2592 58.3922 64.2726 58.4325 64.2726 58.4715H64.2699ZM57.7492 58.4782C57.7492 58.5104 57.7398 58.54 57.7196 58.5615C57.6995 58.5844 57.6699 58.6045 57.6255 58.6206C57.5812 58.6381 57.5207 58.6502 57.4441 58.6596C57.3648 58.6677 57.2667 58.6731 57.1525 58.6731C57.0302 58.6731 56.9307 58.669 56.8514 58.6596C56.7748 58.6516 56.7144 58.6381 56.67 58.6206C56.627 58.6032 56.5948 58.5844 56.5759 58.5615C56.5558 58.54 56.5464 58.5104 56.5464 58.4782V55.1788C56.5464 54.8563 56.5195 54.5969 56.459 54.4034C56.4012 54.2072 56.3166 54.0378 56.205 53.8954C56.0935 53.7543 55.9483 53.6454 55.7696 53.5702C55.5922 53.4949 55.3879 53.4573 55.1541 53.4573C54.853 53.4573 54.552 53.5487 54.2496 53.7328C53.9459 53.9169 53.6301 54.1857 53.3008 54.5405V58.4795C53.3008 58.5118 53.2914 58.5414 53.2712 58.5629C53.2511 58.5857 53.2188 58.6059 53.1771 58.622C53.1328 58.6395 53.0723 58.6516 52.9957 58.661C52.9164 58.669 52.817 58.6744 52.6947 58.6744C52.5804 58.6744 52.4823 58.6704 52.403 58.661C52.3264 58.6529 52.2633 58.6395 52.2189 58.622C52.1719 58.6045 52.1396 58.5857 52.1249 58.5629C52.1074 58.5414 52.098 58.5118 52.098 58.4795V52.8444C52.098 52.8108 52.106 52.7826 52.1208 52.7584C52.1356 52.7369 52.1652 52.7154 52.2082 52.6966C52.2525 52.6778 52.3076 52.667 52.3775 52.6603C52.4447 52.6536 52.5348 52.6496 52.6463 52.6496C52.7578 52.6496 52.8425 52.6536 52.9124 52.6603C52.9823 52.667 53.0374 52.6778 53.0764 52.6966C53.114 52.7154 53.1435 52.7369 53.161 52.7584C53.1758 52.7813 53.1866 52.8095 53.1866 52.8444V53.5903C53.5548 53.2355 53.923 52.9748 54.2926 52.8108C54.6582 52.6469 55.0304 52.5636 55.4027 52.5636C55.8408 52.5636 56.2091 52.6281 56.5087 52.7557C56.8071 52.8821 57.0517 53.0527 57.2358 53.2637C57.4199 53.4774 57.5516 53.7274 57.6323 54.0123C57.7143 54.2986 57.7546 54.6426 57.7546 55.0418V58.4809L57.7492 58.4782ZM50.9906 58.4849C50.9906 58.5346 50.9704 58.5723 50.9314 58.5965C50.8938 58.622 50.8387 58.6408 50.7715 58.6542C50.7016 58.6677 50.6022 58.6731 50.4732 58.6731C50.3441 58.6731 50.2447 58.6663 50.1694 58.6542C50.0942 58.6408 50.0404 58.622 50.0055 58.5965C49.9705 58.5736 49.9558 58.5346 49.9558 58.4849V57.9205C49.6668 58.1839 49.3483 58.3881 48.9948 58.5333C48.6441 58.6784 48.2705 58.7537 47.8767 58.7537C47.53 58.7537 47.2168 58.7147 46.9373 58.6368C46.6578 58.5602 46.4199 58.4486 46.2223 58.3035C46.0261 58.1556 45.8716 57.9769 45.7614 57.7646C45.6538 57.5509 45.6001 57.309 45.6001 57.0375C45.6001 56.719 45.6753 56.4462 45.8245 56.211C45.9764 55.9785 46.1928 55.7836 46.475 55.6291C46.7559 55.4732 47.1026 55.3576 47.5111 55.281C47.9197 55.2044 48.3807 55.1654 48.8914 55.1654H49.7958V54.7273C49.7958 54.5096 49.7689 54.3174 49.7165 54.1507C49.6614 53.9841 49.5768 53.8457 49.4572 53.7355C49.3375 53.6239 49.183 53.5406 48.9935 53.4828C48.804 53.4277 48.5702 53.3995 48.2933 53.3995C47.995 53.3995 47.7302 53.429 47.4937 53.4895C47.2571 53.5513 47.0502 53.6172 46.8741 53.6898C46.6954 53.7623 46.5476 53.8282 46.4279 53.89C46.3083 53.9505 46.221 53.9801 46.1618 53.9801C46.1242 53.9801 46.0893 53.972 46.0597 53.9559C46.0301 53.9384 46.0046 53.9129 45.9831 53.8793C45.9629 53.847 45.9455 53.804 45.9361 53.7516C45.9267 53.7005 45.9213 53.6427 45.9213 53.5809C45.9213 53.4761 45.9307 53.3928 45.9482 53.3336C45.9656 53.2732 46.0059 53.2167 46.0731 53.1603C46.1377 53.1065 46.2505 53.0433 46.4118 52.9694C46.5717 52.8969 46.7559 52.831 46.9642 52.7692C47.1738 52.7087 47.4023 52.6603 47.6509 52.62C47.8969 52.5797 48.1495 52.5595 48.4035 52.5595C48.8739 52.5595 49.2757 52.6066 49.6063 52.698C49.9369 52.7893 50.2044 52.9251 50.4087 53.1025C50.6129 53.2799 50.7621 53.5003 50.8548 53.7623C50.9476 54.0258 50.9946 54.3308 50.9946 54.6816V58.4836L50.9906 58.4849ZM49.7931 55.9113H48.765C48.4344 55.9113 48.1468 55.9355 47.9036 55.9812C47.6617 56.0309 47.4601 56.1008 47.2988 56.1949C47.1389 56.2889 47.0193 56.4018 46.9454 56.5322C46.8701 56.6652 46.8338 56.8144 46.8338 56.9851C46.8338 57.2781 46.9413 57.5106 47.1577 57.6839C47.3741 57.8573 47.6778 57.9446 48.0662 57.9446C48.382 57.9446 48.6736 57.8761 48.9451 57.7377C49.2139 57.6006 49.4975 57.3896 49.7945 57.1047V55.9099L49.7931 55.9113ZM42.9888 52.6859C42.9888 52.4896 42.9566 52.3122 42.8948 52.1537C42.8329 51.9951 42.7335 51.8607 42.5964 51.7491C42.4593 51.6376 42.2833 51.5529 42.0629 51.4951C41.8438 51.4373 41.5549 51.4078 41.1933 51.4078H39.8965V54.0325H41.3264C41.653 54.0325 41.9164 53.9962 42.1153 53.9209C42.3142 53.8484 42.4795 53.7502 42.6112 53.6279C42.7429 53.5043 42.8383 53.3605 42.9001 53.1965C42.9593 53.0299 42.9902 52.8606 42.9902 52.6859H42.9888ZM43.5587 56.3723C43.5587 56.1303 43.5143 55.9167 43.4216 55.7352C43.3315 55.5511 43.2025 55.3952 43.0278 55.2716C42.8558 55.1452 42.6394 55.0512 42.38 54.9853C42.118 54.9208 41.7927 54.8886 41.3963 54.8886H39.8951V57.7444H41.7175C42.0064 57.7444 42.255 57.7148 42.4701 57.657C42.6838 57.5993 42.8733 57.5119 43.0359 57.3963C43.1998 57.2834 43.3275 57.1396 43.4189 56.969C43.5116 56.7983 43.5587 56.5994 43.5587 56.3723Z" fill="white"/>
<path fill-rule="evenodd" clip-rule="evenodd" d="M24.9828 52.6482C25.304 54.1077 25.4519 55.5242 25.7005 56.9797C25.7408 57.2108 25.7892 57.4742 25.8712 57.7188C25.9814 58.0481 26.1467 58.3478 26.4598 58.5198C26.5646 58.5776 26.6842 58.6193 26.824 58.6461H26.9409C27.2648 58.2994 27.539 57.6261 27.7795 56.766C27.9677 56.0913 28.1343 55.3038 28.2875 54.4679C28.5187 53.2046 28.6759 51.9292 28.8668 50.6578H24.2356C24.3377 50.7573 24.3606 50.807 24.4264 50.9347C24.4829 51.0449 24.5353 51.1618 24.585 51.2841C24.7476 51.6886 24.8726 52.1536 24.9815 52.6482H24.9828Z" fill="#00ABE6"/>
<path fill-rule="evenodd" clip-rule="evenodd" d="M28.8668 50.6592C28.6759 51.9292 28.5187 53.2046 28.2875 54.4692C28.1343 55.3051 27.9677 56.094 27.7795 56.7673C27.539 57.6274 27.2648 58.3008 26.9409 58.6475H32.2736C32.0573 58.4177 31.8731 57.9675 31.7119 57.3909C31.5869 56.9407 31.4753 56.4152 31.3732 55.8575C31.1904 54.8563 31.0762 53.8429 30.9122 52.839C30.7805 52.0273 30.4849 50.893 29.7497 50.6605H28.8654L28.8668 50.6592Z" fill="#007BBF"/>
<path fill-rule="evenodd" clip-rule="evenodd" d="M69.7343 62.0543H69.5166C69.5475 61.7626 69.5636 61.5409 69.5636 61.3904C69.5636 61.1767 69.5058 61.0074 69.3902 60.8837C69.2746 60.7601 69.1187 60.6983 68.9198 60.6983C68.6148 60.6983 68.3473 60.8098 68.1189 61.0302C67.8904 61.2506 67.7775 61.4992 67.7775 61.7747C67.7775 61.9212 67.8084 62.0556 67.8716 62.1752C67.9334 62.2948 68.0718 62.4615 68.2855 62.6765C68.6766 63.0595 68.9346 63.3606 69.0569 63.5769C69.1792 63.7947 69.241 64.0057 69.241 64.2126C69.241 64.5164 69.1483 64.808 68.9629 65.0889C68.7774 65.3697 68.5059 65.6022 68.1457 65.7837C67.7856 65.9665 67.4052 66.0565 67.0047 66.0565C66.6043 66.0565 66.275 65.953 66.0049 65.7474C65.7347 65.5404 65.5977 65.3241 65.5977 65.0969C65.5977 64.9746 65.6326 64.8738 65.7052 64.7919C65.7764 64.7112 65.857 64.6709 65.9484 64.6709C66.0398 64.6709 66.1218 64.7085 66.1823 64.7838C66.2226 64.8281 66.2602 64.9289 66.3005 65.0848C66.3449 65.2743 66.3986 65.4114 66.4631 65.4961C66.5277 65.5807 66.615 65.6493 66.7279 65.7044C66.8408 65.7581 66.9631 65.785 67.0961 65.785C67.4939 65.785 67.842 65.6506 68.1404 65.3818C68.436 65.1144 68.5866 64.8161 68.5866 64.4922C68.5866 64.3806 68.5677 64.2704 68.5301 64.1602C68.4925 64.05 68.4253 63.925 68.3231 63.7866C68.2546 63.6912 68.1 63.5245 67.8608 63.2853C67.6243 63.0515 67.4765 62.8915 67.4146 62.8055C67.3273 62.6805 67.2641 62.5542 67.2225 62.4279C67.1808 62.3016 67.1593 62.1752 67.1593 62.0502C67.1593 61.7962 67.2453 61.5436 67.4146 61.2869C67.584 61.0302 67.8044 60.8273 68.0759 60.6754C68.3473 60.5235 68.6551 60.4469 69.0005 60.4469C69.1725 60.4469 69.3862 60.4738 69.6388 60.5262C69.784 60.5531 69.909 60.5746 70.0151 60.5894C69.9533 60.7708 69.9063 60.9402 69.8727 61.1001C69.8404 61.26 69.7947 61.5772 69.7356 62.0529L69.7343 62.0543ZM70.085 62.776C70.339 62.5919 70.5326 62.4991 70.6696 62.4991C70.7866 62.4991 70.8968 62.573 71.0002 62.7209C71.2059 63.0071 71.3645 63.4211 71.4773 63.964C71.5902 64.5069 71.6467 64.9706 71.6467 65.3577C71.6467 65.6345 71.5701 65.906 71.4182 66.1761C71.2677 66.4449 71.0621 66.6774 70.8027 66.8723C70.6132 67.0134 70.4331 67.0846 70.2638 67.0846C70.1993 67.0846 70.0797 67.0658 69.9049 67.0268C69.741 66.9905 69.612 66.9731 69.5179 66.9731C69.3956 66.9731 69.2975 67.0026 69.2249 67.0631C69.1537 67.1236 69.1161 67.1948 69.1161 67.2781C69.1161 67.3722 69.1631 67.4542 69.2558 67.5214C69.3499 67.5899 69.4883 67.6235 69.6711 67.6235C69.913 67.6235 70.1697 67.559 70.4398 67.43C70.7113 67.301 70.9922 67.0873 71.2825 66.7876C71.5728 66.4879 71.8953 66.031 72.2474 65.4141C72.5995 64.7972 72.8576 64.222 73.0215 63.6858C73.1868 63.1496 73.2675 62.7034 73.2675 62.3446C73.2675 62.2048 73.2379 62.0986 73.1774 62.0247C73.1169 61.9495 73.039 61.9105 72.9422 61.9105C72.8643 61.9105 72.7998 61.9374 72.7487 61.9898C72.6963 62.0422 72.6707 62.1094 72.6707 62.19C72.6707 62.2707 72.6963 62.4118 72.746 62.608C72.793 62.7827 72.8172 62.9225 72.8172 63.03C72.8172 63.538 72.5821 64.2247 72.1117 65.0916C72.1171 64.9599 72.1197 64.8631 72.1197 64.7999C72.1197 64.3067 72.0351 63.7987 71.8684 63.2746C71.7018 62.7504 71.4948 62.3325 71.2502 62.0247C71.1978 61.9575 71.1414 61.9239 71.0836 61.9239C71.0258 61.9239 70.9613 61.9414 70.8914 61.9736C70.7691 62.0314 70.5581 62.1645 70.2571 62.3714L69.948 62.5798L70.0823 62.776H70.085ZM76.3612 61.8567L76.6367 61.7989L76.3235 62.8553C76.1999 63.2746 76.0816 63.7584 75.9688 64.3067C75.9069 64.6051 75.8774 64.7972 75.8774 64.8819C75.8774 64.9666 75.911 65.0109 75.9808 65.0109C76.0252 65.0109 76.0964 64.9827 76.1945 64.9236C76.3666 64.8201 76.5319 64.6924 76.6904 64.5392L76.8248 64.7018C76.5077 64.9908 76.3047 65.1682 76.2147 65.2286C76.0373 65.3496 75.8666 65.441 75.7067 65.4988C75.6019 65.5377 75.497 65.5566 75.3976 65.5566C75.325 65.5566 75.2712 65.5391 75.235 65.5068C75.1973 65.4732 75.1812 65.4249 75.1812 65.3603C75.1812 65.3187 75.1933 65.2622 75.2135 65.1897L75.3801 64.6225C75.1409 64.9088 74.856 65.1547 74.5254 65.3603C74.3211 65.488 74.1356 65.5525 73.965 65.5525C73.7943 65.5525 73.68 65.4961 73.5927 65.3818C73.4758 65.2273 73.418 65.0284 73.418 64.7811C73.418 64.4868 73.4973 64.1589 73.6545 63.7974C73.8117 63.4358 74.0214 63.1066 74.2875 62.8123C74.5509 62.5179 74.8304 62.3002 75.1221 62.1618C75.3465 62.057 75.6368 62.0032 75.9889 62.0032C76.079 62.0032 76.169 62.0086 76.2604 62.0207L76.3598 61.8567H76.3612ZM75.8438 62.4964C75.6932 62.4655 75.5656 62.4494 75.4634 62.4494C75.2121 62.4494 74.9944 62.5193 74.8076 62.6564C74.6208 62.7948 74.4488 63.0421 74.2875 63.3996C74.1276 63.757 74.0483 64.1132 74.0483 64.4693C74.0483 64.6588 74.0792 64.7959 74.1437 64.8779C74.2082 64.9625 74.2915 65.0029 74.395 65.0029C74.5872 65.0029 74.7928 64.9007 75.0132 64.6924C75.2323 64.4854 75.3935 64.1871 75.4957 63.7974L75.8438 62.4951V62.4964ZM77.8758 65.4383H77.2535L77.5452 64.3161C77.6876 63.7651 77.8113 63.2423 77.9174 62.7464C77.943 62.6241 77.9551 62.5488 77.9551 62.5166C77.9551 62.4494 77.9255 62.4171 77.8637 62.4171C77.822 62.4171 77.7589 62.4454 77.6715 62.5032C77.5855 62.5596 77.4296 62.7007 77.2038 62.9265L77.0748 62.7813C77.3422 62.4951 77.6083 62.2801 77.8744 62.1363C78.1405 61.9938 78.3448 61.9212 78.4873 61.9212C78.537 61.9212 78.576 61.9347 78.6055 61.9575C78.6338 61.9817 78.6499 62.0113 78.6499 62.0476C78.6499 62.0838 78.6311 62.1806 78.5961 62.3352L78.416 63.0824C78.6969 62.6389 79.0141 62.2626 79.3675 61.9468C79.5369 61.7962 79.678 61.7223 79.7922 61.7223C79.8769 61.7223 79.9454 61.7492 80.0019 61.803C80.057 61.8567 80.0852 61.9199 80.0852 61.9925C80.0852 62.065 80.0583 62.1322 80.0032 62.1846C79.9495 62.2371 79.8137 62.3002 79.5974 62.3728C79.3904 62.4427 79.2237 62.5247 79.0947 62.6214C78.9657 62.7195 78.8233 62.8674 78.6687 63.0689C78.5155 63.2692 78.4066 63.4439 78.3448 63.5931C78.283 63.7409 78.1889 64.0876 78.0653 64.6306L77.8771 65.4396L77.8758 65.4383ZM81.4439 60.1338C81.5299 60.1338 81.6011 60.162 81.6562 60.2198C81.7114 60.2763 81.7409 60.3515 81.7409 60.4389C81.7409 60.5612 81.6979 60.67 81.6132 60.7628C81.5286 60.8568 81.4332 60.9025 81.3283 60.9025C81.2437 60.9025 81.1751 60.8743 81.1187 60.8152C81.0636 60.7574 81.0367 60.6794 81.0367 60.5854C81.0367 60.4604 81.077 60.3529 81.1577 60.2669C81.2369 60.1782 81.3337 60.1338 81.4453 60.1338H81.4439ZM79.8003 62.8969C80.0435 62.6577 80.2021 62.5152 80.2734 62.4709C80.3446 62.4265 80.4077 62.4037 80.4628 62.4037C80.5139 62.4037 80.5381 62.4319 80.5381 62.4884C80.5381 62.5381 80.5287 62.5959 80.5099 62.659C80.0919 64.011 79.8836 64.8617 79.8836 65.2085C79.8836 65.3173 79.9118 65.402 79.9696 65.4638C80.0261 65.5256 80.104 65.5552 80.2021 65.5552C80.3137 65.5552 80.4561 65.5055 80.6322 65.406C80.8069 65.3052 81.0851 65.0754 81.4654 64.7166L81.3028 64.558C80.9359 64.9021 80.7074 65.0754 80.6187 65.0754C80.5959 65.0754 80.5744 65.062 80.5556 65.0351C80.5354 65.0096 80.526 64.9773 80.526 64.937C80.526 64.7341 80.6738 64.1387 80.9695 63.1523C81.1509 62.5488 81.2396 62.2048 81.2396 62.1255C81.2396 62.0583 81.2168 62.0059 81.1684 61.9656C81.1214 61.9266 81.0528 61.9078 80.9641 61.9078C80.8029 61.9078 80.6066 61.9736 80.3768 62.1027C80.147 62.2317 79.8944 62.4494 79.6162 62.7545L79.8003 62.8969ZM84.5605 61.8567L84.836 61.7989L84.5228 62.8553C84.3992 63.2746 84.2809 63.7584 84.1681 64.3067C84.1062 64.6051 84.0767 64.7972 84.0767 64.8819C84.0767 64.9666 84.1103 65.0109 84.1801 65.0109C84.2245 65.0109 84.2957 64.9827 84.3938 64.9236C84.5659 64.8201 84.7312 64.6924 84.8897 64.5392L85.0241 64.7018C84.707 64.9908 84.504 65.1682 84.414 65.2286C84.2366 65.3496 84.0659 65.441 83.906 65.4988C83.8012 65.5377 83.6963 65.5566 83.5969 65.5566C83.5243 65.5566 83.4706 65.5391 83.4343 65.5068C83.3966 65.4732 83.3805 65.4249 83.3805 65.3603C83.3805 65.3187 83.3913 65.2622 83.4128 65.1897L83.5794 64.6225C83.3402 64.9088 83.0553 65.1547 82.7247 65.3603C82.5204 65.488 82.3349 65.5525 82.1643 65.5525C81.9936 65.5525 81.8793 65.4961 81.792 65.3818C81.6751 65.2273 81.6173 65.0284 81.6173 64.7811C81.6173 64.4868 81.6966 64.1589 81.8538 63.7974C82.011 63.4358 82.2207 63.1066 82.4868 62.8123C82.7502 62.5179 83.0297 62.3002 83.3214 62.1618C83.5458 62.057 83.8361 62.0032 84.1896 62.0032C84.2796 62.0032 84.3696 62.0086 84.461 62.0207L84.5605 61.8567ZM84.0431 62.4964C83.8925 62.4655 83.7649 62.4494 83.6627 62.4494C83.4114 62.4494 83.1937 62.5193 83.0069 62.6564C82.8201 62.7948 82.6481 63.0421 82.4868 63.3996C82.3269 63.757 82.2476 64.1132 82.2476 64.4693C82.2476 64.6588 82.2785 64.7959 82.343 64.8779C82.4075 64.9625 82.4908 65.0029 82.5943 65.0029C82.7865 65.0029 82.9921 64.9007 83.2125 64.6924C83.4316 64.4854 83.5929 64.1871 83.695 63.7974L84.0431 62.4951V62.4964ZM88.6541 64.554L88.7629 64.7072C88.5076 64.9921 88.2442 65.2165 87.9754 65.3832C87.7913 65.4974 87.6394 65.5539 87.5198 65.5539C87.423 65.5539 87.3451 65.5149 87.2846 65.4369C87.2241 65.359 87.1946 65.238 87.1946 65.0741C87.1946 64.9625 87.2174 64.8013 87.2631 64.5889C87.3088 64.3752 87.4392 63.9197 87.6529 63.2168C87.7483 62.8714 87.7953 62.6711 87.7953 62.6134C87.7953 62.5179 87.7483 62.4709 87.6529 62.4709C87.5359 62.4709 87.3908 62.5287 87.2161 62.6456C86.9715 62.8069 86.7538 63.0125 86.5656 63.2638C86.446 63.4251 86.3493 63.6643 86.2767 63.9815L85.9434 65.4329H85.3211C85.4555 64.9451 85.559 64.5486 85.6303 64.2395L86.2444 61.5597C86.356 61.0678 86.5025 60.6888 86.6852 60.4227C86.868 60.1567 87.1059 59.9457 87.3989 59.7857C87.6918 59.6271 87.9835 59.5479 88.2697 59.5479C88.3893 59.5479 88.4834 59.5774 88.5533 59.6366C88.6232 59.6943 88.6568 59.7683 88.6568 59.857C88.6568 59.9322 88.6232 59.9981 88.556 60.0545C88.4874 60.111 88.3947 60.1405 88.2778 60.1405C88.2106 60.1405 88.1246 60.1338 88.0184 60.1204C87.7792 60.0868 87.6139 60.0693 87.5212 60.0693C87.3948 60.0693 87.2887 60.1217 87.2094 60.2252C87.1287 60.3273 87.0441 60.5706 86.958 60.9523L86.4904 63.0138C86.821 62.6658 87.1811 62.3728 87.5709 62.1336C87.7993 61.9911 87.9821 61.9199 88.1205 61.9199C88.2294 61.9199 88.3141 61.9521 88.3759 62.018C88.4377 62.0838 88.4673 62.1752 88.4673 62.2908C88.4673 62.3849 88.4579 62.4803 88.435 62.5744C88.4001 62.7383 88.3141 63.0353 88.1797 63.4681C87.9982 64.0635 87.8934 64.4344 87.8612 64.5782C87.8303 64.7233 87.8141 64.8537 87.8141 64.9666C87.8141 65.0109 87.8209 65.0445 87.837 65.066C87.8518 65.0889 87.8746 65.0996 87.9055 65.0996C87.9727 65.0996 88.0977 65.0203 88.2818 64.8617C88.384 64.7744 88.5103 64.6723 88.6568 64.5526L88.6541 64.554Z" fill="white"/>
</g>
<rect x="1.5" y="1" width="110" height="110" rx="9" stroke="#CCCCCC" stroke-width="2"/>
<defs>
<linearGradient id="paint0_linear_528_591" x1="42.4754" y1="55.8131" x2="16.8373" y2="55.8131" gradientUnits="userSpaceOnUse">
<stop stop-color="#00693F"/>
<stop offset="1" stop-color="#008A44"/>
</linearGradient>
<linearGradient id="paint1_linear_528_591" x1="69.7867" y1="55.8131" x2="38.1023" y2="55.8131" gradientUnits="userSpaceOnUse">
<stop stop-color="#00693F"/>
<stop offset="1" stop-color="#008A44"/>
</linearGradient>
<linearGradient id="paint2_linear_528_591" x1="96.1613" y1="55.8131" x2="65.4149" y2="55.8131" gradientUnits="userSpaceOnUse">
<stop stop-color="#00693F"/>
<stop offset="1" stop-color="#008A44"/>
</linearGradient>
<clipPath id="clip0_528_591">
<rect x="2.5" y="2" width="108" height="108" rx="8" fill="white"/>
</clipPath>
</defs>
</svg>
