<svg width="113" height="112" viewBox="0 0 113 112" fill="none" xmlns="http://www.w3.org/2000/svg">
<g clip-path="url(#clip0_517_507)">
<rect x="2.5" y="2" width="108" height="108" rx="8" fill="white"/>
<path d="M47.4065 60.7985H48.0865V57.9697L50.8084 60.7985H51.7472L48.7345 57.7317L51.4232 55.2915H50.5482L48.0865 57.5478V52.6993H47.4065V60.7985ZM41.9689 60.7985H42.6488V57.7539C42.6488 57.5083 42.6807 57.2675 42.7363 57.0295C42.789 56.7999 42.884 56.5917 43.0062 56.3926C43.2587 55.9798 43.675 55.7487 44.2801 55.7452C44.7477 55.7418 45.0946 55.8979 45.2951 56.1983C45.4977 56.5022 45.5873 56.9248 45.5873 57.4514V60.7985H46.2672V57.2779C46.2672 56.659 46.1298 56.1525 45.8454 55.7661C45.5533 55.3685 45.0648 55.1666 44.3883 55.1617C44.1073 55.1596 43.8665 55.1943 43.6646 55.2589C43.4634 55.3234 43.2934 55.4143 43.1574 55.5288C43.0277 55.637 42.9194 55.7556 42.8334 55.8854C42.7467 56.0151 42.671 56.1442 42.6065 56.2733H42.5843V55.2915H41.9258C41.9543 55.73 41.9689 56.1622 41.9689 56.5869V60.7985ZM40.1794 58.3582C40.1794 58.5019 40.1718 58.6857 40.1579 58.9085C40.1434 59.1242 40.0823 59.3449 39.9741 59.5669C39.8735 59.7758 39.7111 59.9555 39.4877 60.1081C39.2573 60.2656 38.9444 60.3447 38.5489 60.3447C38.2318 60.3447 37.9696 60.2601 37.7496 60.1081C37.5234 59.9506 37.4041 59.7043 37.4041 59.3518C37.4041 59.0486 37.4908 58.812 37.6525 58.6282C37.8072 58.4512 38.007 58.318 38.2575 58.2285C38.5101 58.1383 38.7897 58.0668 39.0998 58.0446C39.394 58.0238 39.6896 58.0238 39.9852 58.0238H40.1794V58.3582ZM40.244 60.7985H40.9135C40.8705 60.446 40.8594 60.0609 40.8594 59.6432V57.2134C40.8594 55.8313 40.2301 55.1409 38.9264 55.1617C38.3574 55.17 37.8183 55.3019 37.3069 55.5399V56.1983C37.8183 55.8889 38.3574 55.7425 38.9264 55.7452C39.7833 55.7494 40.1794 56.2164 40.1794 57.1593V57.4403H40.0497C39.6903 57.4403 39.3149 57.4438 38.9264 57.4722C38.5302 57.5014 38.1645 57.5916 37.8245 57.7102C37.488 57.8282 37.2119 58.0176 36.994 58.2826C36.7727 58.5504 36.6679 58.9126 36.6589 59.3733C36.6533 59.6543 36.7415 59.9818 36.9829 60.3343C37.1023 60.5078 37.3014 60.632 37.5449 60.7444C37.7836 60.8554 38.0917 60.9282 38.4733 60.9282C38.8334 60.9282 39.1755 60.8311 39.4988 60.6583C39.8235 60.4856 40.0636 60.2365 40.2225 59.9131H40.244V60.7985ZM35.274 58.0446C35.274 58.3041 35.2559 58.5664 35.2199 58.8328C35.1699 59.1069 35.0797 59.3588 34.9507 59.5891C34.8348 59.8049 34.6696 59.9811 34.4532 60.1185C34.2374 60.2691 33.9675 60.3447 33.6435 60.3447C33.3409 60.3447 33.0891 60.2691 32.8879 60.1185C32.679 59.9811 32.5097 59.798 32.3793 59.5669C32.1281 59.0778 32.0053 58.5706 32.0129 58.0446C32.0053 57.5048 32.1246 56.9935 32.3696 56.5112C32.4986 56.2809 32.6679 56.0935 32.8768 55.9499C33.0849 55.8132 33.3409 55.7452 33.6435 55.7452C33.9675 55.7452 34.2374 55.8132 34.4532 55.9499C34.6696 56.0797 34.8348 56.2594 34.9507 56.4897C35.0797 56.7055 35.1699 56.9504 35.2199 57.2238C35.2559 57.4972 35.274 57.7713 35.274 58.0446ZM31.3323 60.7985H32.0129V59.9236H32.0344C32.3945 60.6007 32.967 60.9359 33.751 60.9282C34.5073 60.9137 35.0762 60.6368 35.4579 60.097C35.8318 59.5565 36.0192 58.8724 36.0192 58.0446C36.0192 57.1884 35.8464 56.4967 35.5009 55.9714C35.1408 55.4386 34.5579 55.1687 33.751 55.1617C33.4853 55.1617 33.2507 55.2013 33.0495 55.2804C32.8476 55.3595 32.6748 55.4601 32.5312 55.5829C32.3945 55.6904 32.2863 55.8028 32.2079 55.918C32.1205 56.0401 32.0629 56.1407 32.0344 56.2198H32.0129V52.6993H31.3323V60.7985Z" fill="#1C1C1A"/>
<path d="M95.0096 54.0273H96.5V52.6035H95.0096V54.0273ZM95.0096 60.7985H96.5V55.0722H95.0096V60.7985ZM90.8736 60.7985H92.3633V58.6968C92.3633 58.4741 92.3703 58.2334 92.3855 57.9746C92.4001 57.7074 92.4431 57.4549 92.5187 57.2183C92.5985 56.9657 92.7241 56.7645 92.8858 56.607C93.0502 56.4453 93.2785 56.3621 93.5755 56.3621C93.8648 56.3621 94.0868 56.403 94.2422 56.4842V54.9834C94.0868 54.9536 93.9349 54.9355 93.7864 54.939C93.3416 54.9494 92.9864 55.1277 92.7075 55.4504C92.4306 55.7723 92.2627 56.0769 92.2183 56.3732H92.1961V55.0722H90.8736V60.7985ZM86.8986 56.0949C87.1428 56.0901 87.3475 56.1504 87.5113 56.2622C87.6729 56.3732 87.8069 56.5182 87.8887 56.7062C88.058 57.0961 88.1337 57.5034 88.1337 57.9184C88.1337 58.1112 88.1246 58.3166 88.0892 58.5303C88.0518 58.7461 87.9741 58.9494 87.8776 59.1416C87.7881 59.3199 87.6618 59.4677 87.4995 59.5863C87.3281 59.7126 87.1213 59.7758 86.8771 59.7758C86.6315 59.7758 86.4296 59.7099 86.2651 59.5863C86.1042 59.4656 85.964 59.3213 85.8648 59.1416C85.6532 58.7586 85.5609 58.3485 85.565 57.9184C85.5678 57.4889 85.6719 57.0864 85.8759 56.7062C86.0868 56.3156 86.424 56.1046 86.8986 56.0949ZM84.0636 63.134H85.5533V60.1421H85.5761C85.8426 60.446 86.1146 60.6528 86.3873 60.7652C86.6551 60.8748 86.9444 60.9359 87.2546 60.9317C88.1441 60.9206 88.7803 60.6105 89.1564 60.0089C89.5213 59.4247 89.6892 58.7267 89.6892 57.9184C89.6892 57.1031 89.5248 56.403 89.1564 55.8285C88.7838 55.2464 88.1552 54.9355 87.2886 54.939C86.4206 54.9418 85.828 55.2755 85.5089 55.884H85.4866V55.0722H84.0636V63.134ZM82.4185 59.2644C82.1437 59.4268 81.8488 59.5558 81.5401 59.6648C81.2188 59.7772 80.8795 59.8424 80.5167 59.8424C80.0573 59.8424 79.6827 59.7085 79.3822 59.4531C79.0894 59.204 78.9194 58.8557 78.8827 58.3971H82.841C82.848 57.3737 82.671 56.5383 82.2846 55.9055C81.8918 55.2637 81.1619 54.9348 80.117 54.939C79.2344 54.9418 78.569 55.245 78.1264 55.8174C77.6795 56.394 77.4526 57.1107 77.4589 57.9628C77.4742 59.9125 78.4781 60.9109 80.45 60.9317C81.2355 60.94 81.8918 60.7798 82.4185 60.4759V59.2644ZM78.8827 57.3737C78.9118 56.981 79.0367 56.6569 79.2601 56.4065C79.4808 56.1602 79.7978 56.0283 80.2058 56.0283C80.6207 56.0283 80.9253 56.1685 81.1168 56.4287C81.3028 56.6805 81.4027 56.9955 81.4173 57.3737H78.8827ZM72.0546 60.7985H73.5449V58.019H73.5678L75.4801 60.7985H77.3694L74.9687 57.629L77.103 55.0722H75.3461L73.5678 57.3626H73.5449V52.4585H72.0546V60.7985ZM70.6093 55.0722H69.1189V57.8746C69.1189 58.0592 69.1043 58.2597 69.0752 58.4741C69.0454 58.6892 68.9725 58.8904 68.8747 59.0868C68.7796 59.2762 68.6533 59.4351 68.4861 59.5641C68.305 59.7022 68.0823 59.7758 67.8075 59.7758C67.5772 59.7758 67.3961 59.7196 67.2629 59.6086C67.1373 59.5052 67.0325 59.3747 66.9735 59.2082C66.9139 59.0403 66.8882 58.8557 66.8736 58.6635C66.866 58.5671 66.8688 58.4741 66.8625 58.3846C66.8549 58.2965 66.8403 58.2112 66.8403 58.13V55.0722H65.35V58.6864C65.35 59.338 65.5158 59.8674 65.8287 60.2878C66.1389 60.7041 66.6211 60.9359 67.2962 60.9317C68.0823 60.9282 68.7082 60.6132 69.1751 60.02H69.1973V60.7985H70.6093V55.0722ZM60.4792 59.1416C60.4792 58.9196 60.5437 58.7447 60.6575 58.608C60.7657 58.4783 60.899 58.3742 61.0696 58.3083C61.2396 58.241 61.4214 58.2001 61.6143 58.1744C61.7038 58.1626 61.7919 58.1522 61.8807 58.1522H62.7814C62.789 58.6046 62.6925 59.0021 62.4705 59.331C62.2409 59.6696 61.8849 59.8375 61.4249 59.8424C61.1508 59.8452 60.9323 59.7772 60.7581 59.6648C60.5763 59.5475 60.4792 59.3789 60.4792 59.1416ZM59.7236 56.6514C60.2495 56.2434 60.8393 56.0332 61.4915 56.0283C61.9363 56.0255 62.2651 56.1157 62.4705 56.2955C62.6794 56.4779 62.7814 56.8033 62.7814 57.2627H61.9592C61.6476 57.2627 61.3208 57.2772 60.9801 57.3182C60.6464 57.3584 60.3328 57.4583 60.0351 57.5957C59.7548 57.7248 59.5279 57.9218 59.3454 58.1848C59.1588 58.4561 59.0533 58.8009 59.0575 59.2304C59.061 59.7785 59.2795 60.1928 59.6903 60.4863C60.0865 60.7714 60.5396 60.9275 61.0578 60.9317C61.4138 60.9345 61.7545 60.8415 62.0813 60.6653C62.3997 60.4932 62.6481 60.2531 62.8265 59.9423H62.848C62.848 60.165 62.8702 60.4502 62.9146 60.7985H64.2273C64.1975 60.369 64.176 59.9423 64.1607 59.5197C64.1454 59.1201 64.1385 58.6413 64.1385 58.0856V57.3515C64.1385 55.7203 63.3371 54.9182 61.6691 54.939C60.9801 54.9473 60.3168 55.0909 59.6792 55.3726L59.7236 56.6514ZM56.5923 54.0273H58.0827V52.6035H56.5923V54.0273ZM56.5923 60.7985H58.0827V55.0722H56.5923V60.7985ZM52.414 60.7985H53.9036V58.6968C53.9036 58.4741 53.9113 58.234 53.9258 57.9746C53.9411 57.7074 53.9855 57.4549 54.0591 57.2183C54.1409 56.9664 54.2631 56.7624 54.4268 56.607C54.5892 56.4432 54.8195 56.3621 55.1158 56.3621C55.4051 56.3621 55.6271 56.403 55.7833 56.4842V54.9834C55.6271 54.9536 55.4752 54.939 55.3267 54.939C54.882 54.9536 54.5232 55.1242 54.2485 55.4504C53.9668 55.7688 53.8037 56.0769 53.7593 56.3732H53.7371V55.0722H52.414V60.7985Z" fill="#1C1C1A"/>
<path d="M61.1376 63.1215H61.4124V62.6039C61.4124 62.5699 61.4159 62.5324 61.4235 62.4915C61.4297 62.4519 61.4415 62.4138 61.4603 62.3784C61.4776 62.3423 61.5026 62.3131 61.5338 62.2889C61.565 62.2646 61.606 62.2535 61.6546 62.2535C61.699 62.2535 61.733 62.2625 61.7559 62.2819C61.7808 62.3027 61.7982 62.327 61.8093 62.3562C61.8211 62.3867 61.828 62.4186 61.8308 62.454C61.8329 62.4894 61.8336 62.5241 61.8336 62.5567V63.1215H62.1083V62.454C62.1083 62.395 62.1014 62.3402 62.0875 62.2903C62.0736 62.2396 62.0528 62.1952 62.023 62.1591C61.9938 62.1216 61.9557 62.0925 61.912 62.071C61.8662 62.0502 61.8121 62.0391 61.7489 62.0391C61.6768 62.0391 61.6115 62.0543 61.5553 62.0849C61.4991 62.1147 61.4526 62.1556 61.4166 62.2077H61.4124V61.5818H61.1376V63.1215ZM60.3411 62.0641H60.0657V62.581C60.0657 62.6164 60.0629 62.6524 60.0559 62.6934C60.049 62.7336 60.0365 62.7718 60.0192 62.8072C60.0011 62.8426 59.9762 62.8724 59.9449 62.896C59.9137 62.9203 59.8735 62.9321 59.8235 62.9321C59.7805 62.9321 59.7458 62.9223 59.7215 62.9022C59.6965 62.8828 59.6785 62.8585 59.6681 62.8287C59.657 62.7995 59.6507 62.7662 59.6487 62.7315C59.6459 62.6948 59.6452 62.6608 59.6452 62.6288V62.0641H59.3704V62.7315C59.3704 62.7919 59.3767 62.8467 59.3912 62.8974C59.4044 62.948 59.4259 62.9917 59.4558 63.0292C59.4849 63.0653 59.5224 63.0944 59.5675 63.1145C59.6119 63.1354 59.6667 63.1458 59.7291 63.1458C59.802 63.1458 59.8672 63.1305 59.9255 63.1007C59.9838 63.0701 60.0344 63.0299 60.0761 62.9778H60.0802V63.1215H60.3411V62.0641ZM57.6032 63.1215H57.8696V62.9917H57.8738C57.9134 63.0486 57.9633 63.0875 58.0216 63.1111C58.0799 63.134 58.1389 63.1458 58.1978 63.1458C58.279 63.1458 58.347 63.1305 58.4039 63.0993C58.4608 63.068 58.5066 63.0278 58.542 62.9765C58.5767 62.9251 58.6023 62.8661 58.6176 62.7988C58.6329 62.7322 58.6412 62.6622 58.6412 62.5893C58.6412 62.5171 58.6329 62.4478 58.6176 62.3811C58.6023 62.3152 58.5767 62.2563 58.542 62.2056C58.5066 62.155 58.4608 62.1147 58.4039 62.0849C58.347 62.0543 58.279 62.0391 58.1978 62.0391C58.1257 62.0391 58.0646 62.0537 58.014 62.0814C57.9647 62.1099 57.921 62.1487 57.8821 62.2001H57.878V61.5818H57.6032V63.1215ZM57.8801 62.5893C57.8801 62.5525 57.8849 62.5137 57.8932 62.4748C57.9023 62.4346 57.9168 62.3985 57.9363 62.3659C57.9564 62.3326 57.9813 62.3062 58.0133 62.2847C58.0452 62.2639 58.0827 62.2535 58.1264 62.2535C58.1715 62.2535 58.2082 62.2639 58.2367 62.2861C58.2658 62.3069 58.2887 62.3354 58.3068 62.368C58.3241 62.4013 58.3373 62.4373 58.3435 62.4769C58.3512 62.5164 58.3539 62.5539 58.3539 62.5893C58.3539 62.6268 58.3505 62.6649 58.3428 62.7045C58.3352 62.744 58.3227 62.7808 58.3061 62.8148C58.2887 62.8495 58.2651 62.8779 58.2353 62.8994C58.2048 62.9216 58.1673 62.9321 58.1222 62.9321C58.0771 62.9321 58.0389 62.9216 58.007 62.8994C57.9758 62.8779 57.9508 62.8502 57.9321 62.8162C57.9141 62.7829 57.9002 62.7454 57.8918 62.7052C57.8835 62.6649 57.8801 62.6268 57.8801 62.5893ZM55.2608 63.1215H55.5363V62.608C55.5363 62.5733 55.5383 62.5366 55.5425 62.4949C55.5467 62.454 55.5557 62.4151 55.5703 62.3791C55.5841 62.343 55.6049 62.3131 55.632 62.2889C55.6598 62.2646 55.6965 62.2535 55.7416 62.2535C55.7812 62.2535 55.811 62.2611 55.8325 62.2764C55.854 62.2923 55.8693 62.3118 55.8797 62.3354C55.8901 62.3589 55.8957 62.3839 55.897 62.4124C55.8984 62.4401 55.8991 62.4665 55.8991 62.4908V63.1215H56.1739V62.608C56.1739 62.5733 56.1767 62.5366 56.1801 62.4949C56.1843 62.454 56.194 62.4151 56.2086 62.3791C56.2225 62.343 56.2433 62.3131 56.2703 62.2889C56.2981 62.2646 56.3342 62.2535 56.3793 62.2535C56.4188 62.2535 56.45 62.2611 56.4702 62.2764C56.4924 62.2923 56.5076 62.3118 56.518 62.3354C56.5284 62.3589 56.534 62.3839 56.5354 62.4124C56.5368 62.4401 56.5375 62.4665 56.5375 62.4908V63.1215H56.8122V62.454C56.8122 62.395 56.8074 62.3402 56.797 62.2903C56.7873 62.2396 56.7692 62.1952 56.7428 62.1591C56.7172 62.1216 56.6825 62.0925 56.6402 62.071C56.5971 62.0502 56.5437 62.0391 56.4778 62.0391C56.414 62.0391 56.3501 62.055 56.2877 62.0856C56.2259 62.1168 56.1794 62.1633 56.1475 62.2264C56.1177 62.1605 56.0768 62.1133 56.0247 62.0842C55.9727 62.0543 55.9095 62.0391 55.836 62.0391C55.7833 62.0391 55.7291 62.0516 55.6722 62.0765C55.616 62.1008 55.5654 62.1459 55.5217 62.2118H55.5175V62.0641H55.2608V63.1215ZM54.4684 62.0641H54.1937V62.581C54.1937 62.6164 54.1902 62.6524 54.184 62.6934C54.1763 62.7336 54.1645 62.7718 54.1465 62.8072C54.1284 62.8426 54.1042 62.8724 54.0729 62.896C54.041 62.9203 54.0001 62.9321 53.9515 62.9321C53.9078 62.9321 53.8731 62.9223 53.8488 62.9022C53.8238 62.8828 53.8065 62.8585 53.7954 62.8287C53.7843 62.7995 53.7781 62.7662 53.776 62.7315C53.7739 62.6948 53.7725 62.6608 53.7725 62.6288V62.0641H53.4977V62.7315C53.4977 62.7919 53.5047 62.8467 53.5179 62.8974C53.5324 62.948 53.5533 62.9917 53.5831 63.0292C53.6129 63.0653 53.6497 63.0944 53.6955 63.1145C53.7399 63.1354 53.794 63.1458 53.8572 63.1458C53.9293 63.1458 53.9945 63.1305 54.0528 63.1007C54.1111 63.0701 54.1618 63.0299 54.2041 62.9778H54.2075V63.1215H54.4684V62.0641ZM52.2766 62.803C52.2766 62.9078 52.305 62.9917 52.3626 63.0535C52.4202 63.1145 52.5028 63.1458 52.611 63.1458C52.652 63.1458 52.6894 63.1444 52.722 63.1395C52.7546 63.1354 52.7852 63.1291 52.8143 63.1215L52.806 62.9036C52.7907 62.9126 52.7727 62.9203 52.7505 62.9251C52.7283 62.93 52.7054 62.9321 52.6811 62.9321C52.6547 62.9321 52.6332 62.9272 52.6159 62.9182C52.5992 62.9078 52.5853 62.8953 52.5763 62.8786C52.5666 62.8627 52.5604 62.8439 52.5569 62.8231C52.5527 62.803 52.5513 62.7808 52.5513 62.7579V62.2653H52.7956V62.0641H52.5513V61.765L52.2766 61.8524V62.0641H52.0733V62.2653H52.2766V62.803Z" fill="#1C1C1A"/>
<path d="M80.8601 63.1215H81.1349V62.6039C81.1349 62.5699 81.1376 62.5317 81.1453 62.4915C81.1522 62.4519 81.1647 62.4138 81.182 62.3784C81.1994 62.3423 81.2244 62.3125 81.2556 62.2889C81.2875 62.2646 81.3278 62.2535 81.3763 62.2535C81.4207 62.2535 81.4547 62.2625 81.479 62.2819C81.5026 62.3027 81.5206 62.327 81.5324 62.3569C81.5435 62.3867 81.5505 62.4186 81.5526 62.4547C81.5546 62.4894 81.5553 62.5241 81.5553 62.5567V63.1215H81.8301V62.4547C81.8301 62.3957 81.8239 62.3402 81.81 62.2903C81.7968 62.2389 81.7753 62.1952 81.7454 62.1584C81.7163 62.1216 81.6788 62.0925 81.6337 62.071C81.5886 62.0502 81.5345 62.0391 81.4714 62.0391C81.3992 62.0391 81.334 62.0523 81.2764 62.0779C81.2188 62.1022 81.1682 62.1459 81.1252 62.2077H81.1203V62.0641H80.8601V63.1215ZM79.4003 62.8148C79.4003 62.7746 79.4107 62.7419 79.4308 62.7184C79.4523 62.6934 79.4773 62.676 79.5071 62.6635C79.5369 62.651 79.5703 62.6434 79.6056 62.6393C79.6417 62.6344 79.6743 62.6323 79.7062 62.6323H79.8256C79.8256 62.6739 79.8214 62.7128 79.8138 62.7496C79.8062 62.7863 79.7916 62.8203 79.768 62.8502C79.7458 62.8793 79.7194 62.9015 79.6868 62.9189C79.6549 62.9362 79.6174 62.9445 79.5751 62.9445C79.5258 62.9445 79.4842 62.9341 79.4509 62.914C79.4176 62.8932 79.4003 62.8606 79.4003 62.8148ZM79.2608 62.3562C79.3073 62.3201 79.3593 62.2923 79.4148 62.2715C79.4717 62.2507 79.5286 62.241 79.5876 62.241C79.6695 62.241 79.7298 62.2569 79.768 62.2903C79.8062 62.3229 79.8256 62.3818 79.8256 62.4686H79.6729C79.616 62.4686 79.555 62.472 79.4918 62.4797C79.428 62.4873 79.3697 62.5046 79.3191 62.5303C79.267 62.556 79.2233 62.5928 79.1893 62.6406C79.1553 62.6885 79.1373 62.7523 79.1373 62.8314C79.1373 62.8821 79.1491 62.9272 79.1699 62.9661C79.1907 63.0049 79.2185 63.0382 79.2532 63.0646C79.2872 63.0916 79.3267 63.1111 79.3711 63.1256C79.4155 63.1388 79.4606 63.1458 79.5071 63.1458C79.539 63.1458 79.5702 63.1416 79.6029 63.1333C79.6348 63.1256 79.6646 63.1138 79.6938 63.0986C79.7229 63.0833 79.7493 63.0646 79.7729 63.041C79.7971 63.0174 79.8173 62.9917 79.8332 62.9633H79.8381C79.8395 62.9799 79.8402 63.0028 79.8409 63.0334C79.8409 63.0646 79.845 63.0937 79.8499 63.1215H80.0927C80.0892 63.0798 80.0872 63.0403 80.0851 63.0021C80.083 62.9633 80.0816 62.9244 80.0795 62.8849C80.0788 62.8453 80.0781 62.8051 80.0768 62.7628C80.0761 62.7211 80.0761 62.6739 80.0761 62.6205V62.4852C80.0761 62.3291 80.04 62.2153 79.9692 62.1452C79.8977 62.0745 79.7812 62.0391 79.6209 62.0391C79.5619 62.0391 79.4988 62.0474 79.4329 62.0613C79.3663 62.0752 79.3066 62.0953 79.2532 62.1203L79.2608 62.3562ZM77.5574 63.1215H77.8322V62.608H77.8363L78.1895 63.1215H78.5385L78.0951 62.5359L78.4892 62.0641H78.1652L77.8363 62.4866H77.8322V61.5818H77.5574V63.1215ZM76.4917 62.0641V62.2077H76.4875C76.4493 62.1459 76.4029 62.1022 76.3494 62.0779C76.2946 62.0523 76.2336 62.0391 76.1635 62.0391C76.0837 62.0391 76.0164 62.0564 75.9602 62.0897C75.904 62.1237 75.8582 62.1661 75.8214 62.2188C75.786 62.2701 75.759 62.3291 75.7416 62.3943C75.725 62.4602 75.716 62.5248 75.716 62.5872C75.716 62.658 75.7236 62.726 75.7395 62.7912C75.7555 62.8543 75.7805 62.9119 75.8145 62.9612C75.8492 63.0105 75.8936 63.0493 75.9477 63.0785C76.0032 63.1062 76.0691 63.1215 76.1475 63.1215C76.2252 63.1215 76.2925 63.1041 76.3501 63.0701C76.4077 63.0368 76.4493 62.998 76.4757 62.9522H76.4792C76.4792 62.998 76.4778 63.0445 76.4722 63.0937C76.4681 63.1416 76.4556 63.1867 76.4341 63.2269C76.414 63.2665 76.3814 63.2998 76.339 63.3248C76.296 63.3504 76.237 63.3636 76.1614 63.3636C76.1399 63.3636 76.1149 63.3609 76.0886 63.3546C76.0615 63.3497 76.0344 63.3421 76.0067 63.3338C75.9782 63.3248 75.9512 63.3144 75.9241 63.3033C75.8977 63.2929 75.8742 63.2818 75.854 63.27L75.8311 63.5045C75.897 63.5322 75.9602 63.551 76.0219 63.5614C76.0837 63.5711 76.142 63.5766 76.1961 63.5766C76.3071 63.5766 76.398 63.5607 76.4702 63.5295C76.5423 63.4982 76.5992 63.4566 76.6422 63.4053C76.6839 63.3546 76.7137 63.2949 76.7297 63.2276C76.7463 63.1603 76.7546 63.0903 76.7546 63.0181V62.0641H76.4917ZM76.2377 62.9078C76.1975 62.9078 76.1635 62.8981 76.1336 62.8779C76.1038 62.8585 76.0795 62.8321 76.0608 62.8023C76.0414 62.7718 76.0275 62.7364 76.0171 62.6975C76.0081 62.6601 76.0039 62.6233 76.0039 62.5872C76.0039 62.5463 76.0074 62.506 76.0157 62.4665C76.024 62.4269 76.0372 62.3909 76.0566 62.3596C76.0754 62.3284 76.1017 62.3027 76.133 62.2819C76.1642 62.2625 76.203 62.2535 76.2502 62.2535C76.2891 62.2535 76.3238 62.2611 76.3529 62.2785C76.3827 62.2958 76.407 62.3194 76.4251 62.3492C76.4438 62.3798 76.457 62.4151 76.4667 62.4547C76.4757 62.4929 76.4792 62.5359 76.4792 62.581C76.4792 62.6254 76.4757 62.6663 76.4667 62.7066C76.457 62.7461 76.4424 62.7808 76.423 62.8113C76.4029 62.8412 76.3779 62.8648 76.3474 62.8814C76.3161 62.8994 76.28 62.9078 76.2377 62.9078ZM74.016 63.1215H74.2922V62.6039C74.2922 62.5699 74.295 62.5317 74.3019 62.4915C74.3088 62.4519 74.3213 62.4138 74.338 62.3784C74.3567 62.3423 74.3817 62.3125 74.4129 62.2889C74.4441 62.2646 74.4844 62.2535 74.5336 62.2535C74.5781 62.2535 74.6107 62.2625 74.635 62.2819C74.6585 62.3027 74.6773 62.327 74.6884 62.3569C74.7002 62.3867 74.7078 62.4186 74.7099 62.4547C74.7113 62.4894 74.7127 62.5241 74.7127 62.5567V63.1215H74.9867V62.4547C74.9867 62.3957 74.9805 62.3402 74.9666 62.2903C74.9534 62.2389 74.9319 62.1952 74.9021 62.1584C74.8729 62.1216 74.8355 62.0925 74.7897 62.071C74.7453 62.0502 74.6912 62.0391 74.6287 62.0391C74.5559 62.0391 74.4899 62.0523 74.433 62.0779C74.3761 62.1022 74.3248 62.1459 74.2818 62.2077H74.2776V62.0641H74.016V63.1215ZM72.5569 62.8148C72.5569 62.7746 72.5673 62.7419 72.5874 62.7184C72.6082 62.6934 72.6339 62.676 72.6631 62.6635C72.6936 62.651 72.7269 62.6434 72.7623 62.6393C72.7977 62.6344 72.8317 62.6323 72.8636 62.6323H72.9808C72.9808 62.6739 72.9788 62.7128 72.9704 62.7496C72.9628 62.7863 72.9482 62.8203 72.9246 62.8502C72.9031 62.8793 72.8761 62.9015 72.8428 62.9189C72.8115 62.9362 72.7741 62.9445 72.731 62.9445C72.6825 62.9445 72.6409 62.9341 72.6069 62.914C72.5735 62.8932 72.5569 62.8606 72.5569 62.8148ZM72.4174 62.3562C72.4639 62.3201 72.5153 62.2923 72.5715 62.2715C72.6277 62.2507 72.6853 62.241 72.7435 62.241C72.8261 62.241 72.8865 62.2569 72.9246 62.2903C72.9628 62.3229 72.9808 62.3818 72.9808 62.4686H72.8303C72.7727 62.4686 72.7123 62.472 72.6485 62.4797C72.5846 62.4873 72.5271 62.5046 72.475 62.5303C72.423 62.556 72.38 62.5928 72.346 62.6406C72.3113 62.6885 72.2946 62.7523 72.2946 62.8314C72.2946 62.8821 72.3057 62.9272 72.3258 62.9661C72.3474 63.0049 72.3751 63.0382 72.4084 63.0646C72.4438 63.0916 72.4827 63.1111 72.5278 63.1256C72.5722 63.1388 72.6173 63.1458 72.6631 63.1458C72.695 63.1458 72.7269 63.1416 72.7588 63.1333C72.7914 63.1256 72.8219 63.1138 72.8504 63.0986C72.8788 63.0833 72.9059 63.0646 72.9295 63.041C72.9531 63.0174 72.9739 62.9917 72.9898 62.9633H72.994C72.9961 62.9799 72.9968 63.0028 72.9968 63.0334C72.9982 63.0646 73.0003 63.0937 73.0065 63.1215H73.2487C73.2459 63.0798 73.2438 63.0403 73.2417 63.0021C73.2396 62.9633 73.2376 62.9244 73.2369 62.8849C73.2348 62.8453 73.2341 62.8051 73.2327 62.7628C73.2327 62.7211 73.232 62.6739 73.232 62.6205V62.4852C73.232 62.3291 73.1966 62.2153 73.1251 62.1452C73.0551 62.0745 72.9378 62.0391 72.7768 62.0391C72.7179 62.0391 72.6547 62.0474 72.5888 62.0613C72.5229 62.0752 72.4632 62.0953 72.4084 62.1203L72.4174 62.3562ZM70.5947 63.1215H70.8618V62.9917H70.8653C70.9055 63.0486 70.9541 63.0875 71.0131 63.1111C71.0721 63.134 71.1311 63.1458 71.1893 63.1458C71.2705 63.1458 71.3392 63.1305 71.3961 63.0993C71.453 63.068 71.4995 63.0278 71.5335 62.9765C71.5689 62.9251 71.5938 62.8661 71.6098 62.7988C71.6251 62.7322 71.6334 62.6622 71.6334 62.5893C71.6334 62.5171 71.6251 62.4478 71.6098 62.3811C71.5938 62.3152 71.5689 62.2563 71.5335 62.2056C71.4995 62.155 71.453 62.1147 71.3961 62.0849C71.3392 62.0543 71.2705 62.0391 71.1893 62.0391C71.1172 62.0391 71.0561 62.0537 71.0062 62.0814C70.9562 62.1099 70.9118 62.1487 70.8743 62.1994H70.8695V61.5818H70.5947V63.1215ZM70.8722 62.5893C70.8722 62.5525 70.8757 62.5144 70.8854 62.4748C70.8944 62.4353 70.9083 62.3985 70.9284 62.3659C70.9479 62.3326 70.9735 62.3062 71.0048 62.2847C71.0367 62.2639 71.0742 62.2535 71.1186 62.2535C71.163 62.2535 71.1997 62.2639 71.2289 62.2861C71.2573 62.3069 71.2809 62.3347 71.2983 62.368C71.3163 62.4013 71.3281 62.4373 71.3357 62.4769C71.3427 62.5164 71.3461 62.5539 71.3461 62.5893C71.3461 62.6268 71.3427 62.6649 71.335 62.7045C71.3267 62.744 71.3149 62.7808 71.2976 62.8148C71.2802 62.8495 71.2573 62.8779 71.2275 62.8994C71.197 62.9216 71.1588 62.9321 71.1137 62.9321C71.0686 62.9321 71.0304 62.9216 70.9992 62.8994C70.968 62.8779 70.9423 62.8502 70.9236 62.8162C70.9056 62.7829 70.8924 62.7454 70.884 62.7052C70.8757 62.6649 70.8722 62.6268 70.8722 62.5893ZM68.253 63.1215H68.5278V62.608C68.5278 62.5733 68.5298 62.5359 68.534 62.4949C68.5382 62.4547 68.5472 62.4158 68.5618 62.3791C68.5763 62.343 68.5964 62.3125 68.6242 62.2889C68.6519 62.2646 68.6873 62.2535 68.7324 62.2535C68.7727 62.2535 68.8032 62.2611 68.824 62.2764C68.8455 62.2923 68.8615 62.3118 68.8712 62.3347C68.8816 62.3589 68.8879 62.3839 68.8885 62.4124C68.8906 62.4401 68.8913 62.4665 68.8913 62.4908V63.1215H69.1661V62.608C69.1661 62.5733 69.1675 62.5359 69.1723 62.4949C69.1765 62.4547 69.1855 62.4158 69.2001 62.3791C69.2147 62.343 69.2355 62.3125 69.2618 62.2889C69.2903 62.2646 69.3264 62.2535 69.3715 62.2535C69.411 62.2535 69.4415 62.2611 69.4617 62.2764C69.4839 62.2923 69.4998 62.3118 69.5095 62.3347C69.5199 62.3589 69.5262 62.3839 69.5276 62.4124C69.5283 62.4401 69.529 62.4665 69.529 62.4908V63.1215H69.8044V62.4547C69.8044 62.3957 69.7996 62.3402 69.7892 62.2903C69.7794 62.2389 69.7607 62.1952 69.735 62.1584C69.7087 62.1216 69.674 62.0925 69.6324 62.071C69.5893 62.0502 69.5359 62.0391 69.47 62.0391C69.4055 62.0391 69.3423 62.055 69.2806 62.0856C69.2174 62.1161 69.1709 62.1633 69.139 62.2264C69.1092 62.1605 69.0683 62.1133 69.0162 62.0842C68.9642 62.0543 68.901 62.0391 68.8275 62.0391C68.7755 62.0391 68.7206 62.0516 68.6637 62.0759C68.6075 62.1015 68.5569 62.1459 68.5132 62.2118H68.5097V62.0641H68.253V63.1215ZM67.4509 62.8377C67.3982 62.8668 67.3434 62.8918 67.2858 62.9126C67.2289 62.9341 67.1664 62.9445 67.0991 62.9445C67.0131 62.9445 66.943 62.9216 66.8889 62.8759C66.8348 62.8301 66.8049 62.7635 66.7973 62.6774H67.5279C67.5279 62.5858 67.5203 62.5005 67.5043 62.4221C67.4884 62.343 67.462 62.2764 67.4232 62.2209C67.385 62.164 67.3336 62.1203 67.2698 62.0876C67.2053 62.0557 67.1241 62.0391 67.0256 62.0391C66.943 62.0391 66.8716 62.0543 66.8098 62.0842C66.7481 62.1133 66.6974 62.1536 66.6572 62.2042C66.6162 62.2542 66.5864 62.3138 66.5656 62.3811C66.5454 62.4491 66.535 62.5213 66.535 62.5976C66.535 62.7725 66.5836 62.9078 66.6794 63.0028C66.7758 63.0979 66.9111 63.1458 67.0873 63.1458C67.1602 63.1458 67.2275 63.1388 67.2858 63.1236C67.3447 63.1097 67.3996 63.0889 67.4509 63.0618V62.8377ZM66.7973 62.4894C66.8049 62.4179 66.8278 62.3589 66.866 62.3118C66.9049 62.2639 66.9638 62.241 67.0415 62.241C67.0797 62.241 67.113 62.2472 67.1401 62.2611C67.1671 62.275 67.19 62.293 67.2081 62.3152C67.2261 62.3381 67.2386 62.3645 67.2476 62.3943C67.2573 62.4242 67.2629 62.4568 67.2657 62.4894H66.7973ZM64.9545 63.1215H65.2292V62.608H65.2341L65.5859 63.1215H65.9356L65.4922 62.5359L65.8863 62.0641H65.5616L65.2341 62.4866H65.2292V61.5818H64.9545V63.1215Z" fill="#1C1C1A"/>
<path d="M95.6917 62.8155C95.6917 62.7746 95.7021 62.7419 95.7222 62.7177C95.743 62.6934 95.768 62.676 95.7985 62.6635C95.8291 62.651 95.861 62.6427 95.897 62.6393C95.9324 62.6344 95.9664 62.6323 95.9977 62.6323H96.1163C96.1163 62.6739 96.1128 62.7128 96.1052 62.7496C96.0976 62.7863 96.0823 62.8203 96.0587 62.8502C96.0372 62.8786 96.0101 62.9015 95.9782 62.9189C95.9463 62.9362 95.9081 62.9452 95.8665 62.9452C95.8173 62.9452 95.7756 62.9341 95.7423 62.914C95.7083 62.8932 95.6917 62.8606 95.6917 62.8155ZM95.5522 62.3562C95.5987 62.3201 95.65 62.2923 95.7056 62.2715C95.7624 62.2507 95.8193 62.241 95.879 62.241C95.9602 62.241 96.0206 62.2576 96.0587 62.2903C96.0976 62.3229 96.1163 62.3818 96.1163 62.4686H95.9644C95.9075 62.4686 95.8464 62.472 95.7826 62.4797C95.7194 62.4873 95.6618 62.504 95.6098 62.5303C95.5578 62.556 95.5147 62.5928 95.48 62.6406C95.4467 62.6885 95.4287 62.7523 95.4287 62.8314C95.4287 62.8821 95.4398 62.9272 95.4606 62.9661C95.4821 63.0049 95.5099 63.0382 95.5439 63.0646C95.5779 63.0916 95.6167 63.1111 95.6618 63.1249C95.7062 63.1388 95.752 63.1458 95.7985 63.1458C95.8297 63.1458 95.8617 63.1416 95.8936 63.1333C95.9269 63.1249 95.9567 63.1138 95.9859 63.0986C96.0143 63.0833 96.04 63.0639 96.065 63.041C96.0879 63.0174 96.108 62.9917 96.1246 62.9633H96.1281C96.1302 62.9799 96.1316 63.0028 96.1323 63.034C96.1329 63.0646 96.1357 63.0937 96.1406 63.1215H96.3827C96.3814 63.0798 96.3779 63.041 96.3758 63.0021C96.3744 62.9633 96.373 62.9244 96.3709 62.8849C96.3702 62.8453 96.3689 62.8051 96.3682 62.7628C96.3675 62.7211 96.3675 62.6739 96.3675 62.6205V62.4852C96.3675 62.3291 96.3314 62.216 96.2599 62.1452C96.1885 62.0745 96.0726 62.0398 95.9109 62.0398C95.852 62.0398 95.7902 62.046 95.7236 62.0613C95.6563 62.0752 95.5973 62.0953 95.5439 62.1203L95.5522 62.3562ZM93.7288 63.1215H94.0049V62.6039C94.0049 62.5699 94.0077 62.5317 94.0147 62.4922C94.0216 62.4519 94.0334 62.4138 94.0514 62.3784C94.0695 62.3423 94.0945 62.3125 94.1257 62.2889C94.1569 62.2653 94.1971 62.2528 94.2464 62.2528C94.2901 62.2528 94.3241 62.2625 94.3484 62.2819C94.3727 62.3027 94.39 62.327 94.4011 62.3569C94.4129 62.386 94.4192 62.4186 94.4219 62.4547C94.424 62.4894 94.4247 62.5241 94.4247 62.5567V63.1215H94.7002V62.4547C94.7002 62.3957 94.6932 62.3402 94.6794 62.2903C94.6655 62.2389 94.644 62.1952 94.6148 62.1591C94.585 62.1216 94.5482 62.0925 94.5038 62.0717C94.458 62.0502 94.4046 62.0398 94.3415 62.0398C94.2686 62.0398 94.2041 62.0543 94.1472 62.0849C94.0903 62.1147 94.0445 62.1556 94.0091 62.2077H94.0049V61.5818H93.7288V63.1215ZM92.2703 62.8155C92.2703 62.7746 92.2801 62.7419 92.3009 62.7177C92.3217 62.6934 92.3466 62.676 92.3772 62.6635C92.407 62.651 92.4396 62.6427 92.4757 62.6393C92.5104 62.6344 92.5444 62.6323 92.5763 62.6323H92.695C92.695 62.6739 92.6915 62.7128 92.6839 62.7496C92.6755 62.7863 92.6603 62.8203 92.6374 62.8502C92.6159 62.8786 92.5881 62.9015 92.5562 62.9189C92.5243 62.9362 92.4868 62.9452 92.4445 62.9452C92.3952 62.9452 92.3536 62.9341 92.321 62.914C92.2863 62.8932 92.2703 62.8606 92.2703 62.8155ZM92.1309 62.3562C92.1767 62.3201 92.228 62.2923 92.2842 62.2715C92.3404 62.2507 92.398 62.241 92.457 62.241C92.5388 62.241 92.5992 62.2576 92.6374 62.2903C92.6755 62.3229 92.695 62.3818 92.695 62.4686H92.543C92.4854 62.4686 92.4251 62.472 92.3612 62.4797C92.2974 62.4873 92.2398 62.504 92.1878 62.5303C92.1357 62.556 92.0927 62.5928 92.058 62.6406C92.024 62.6885 92.0074 62.7523 92.0074 62.8314C92.0074 62.8821 92.0178 62.9272 92.0386 62.9661C92.0601 63.0049 92.0879 63.0382 92.1226 63.0646C92.1565 63.0916 92.1954 63.1111 92.2405 63.1249C92.2849 63.1388 92.33 63.1458 92.3772 63.1458C92.4084 63.1458 92.4403 63.1416 92.4715 63.1333C92.5042 63.1249 92.5347 63.1138 92.5631 63.0986C92.5923 63.0833 92.6186 63.0639 92.6422 63.041C92.6665 63.0174 92.6866 62.9917 92.7033 62.9633H92.7068C92.7088 62.9799 92.7095 63.0028 92.7102 63.034C92.7109 63.0646 92.7144 63.0937 92.7193 63.1215H92.9614C92.9593 63.0798 92.9566 63.041 92.9545 63.0021C92.9517 62.9633 92.9503 62.9244 92.9496 62.8849C92.9482 62.8453 92.9468 62.8051 92.9461 62.7628C92.9454 62.7211 92.9447 62.6739 92.9447 62.6205V62.4852C92.9447 62.3291 92.9094 62.216 92.8386 62.1452C92.7664 62.0745 92.6513 62.0398 92.4896 62.0398C92.4306 62.0398 92.3689 62.046 92.3023 62.0613C92.235 62.0752 92.176 62.0953 92.1226 62.1203L92.1309 62.3562ZM91.2969 62.0786C91.2532 62.0689 91.2088 62.0599 91.1637 62.0516C91.1179 62.0432 91.063 62.0398 90.9971 62.0398C90.9444 62.0398 90.8917 62.046 90.8431 62.0592C90.7924 62.0724 90.7487 62.0918 90.7099 62.1182C90.6717 62.1452 90.6405 62.1792 90.6183 62.2209C90.594 62.2611 90.5822 62.3104 90.5822 62.368C90.5822 62.4325 90.5947 62.4824 90.619 62.5199C90.6419 62.5567 90.6724 62.5858 90.7064 62.6087C90.7418 62.6295 90.7793 62.6462 90.8223 62.6573C90.8632 62.6684 90.9021 62.6802 90.9361 62.6927C90.9722 62.7045 91.0013 62.7197 91.0249 62.7371C91.0485 62.7551 91.061 62.7808 91.061 62.8155C91.061 62.8412 91.054 62.8627 91.0429 62.8786C91.0304 62.8953 91.0145 62.9078 90.9958 62.9182C90.9777 62.9272 90.9583 62.9341 90.9382 62.9383C90.9166 62.9425 90.8972 62.9452 90.8799 62.9452C90.832 62.9452 90.7862 62.9383 90.7418 62.9265C90.6974 62.914 90.653 62.8967 90.6093 62.8752L90.5926 63.1007C90.6433 63.1145 90.6953 63.1249 90.748 63.1333C90.8008 63.1416 90.8535 63.1458 90.9049 63.1458C90.9611 63.1458 91.0152 63.1395 91.0686 63.1256C91.122 63.1131 91.1692 63.093 91.2108 63.0653C91.2511 63.0382 91.2844 63.0028 91.3107 62.9591C91.335 62.9154 91.3482 62.8627 91.3482 62.8009C91.3482 62.7378 91.3364 62.6871 91.3121 62.6483C91.2886 62.6094 91.2587 62.5775 91.224 62.5532C91.1893 62.5303 91.1512 62.5116 91.1095 62.4991C91.0672 62.4866 91.0291 62.4748 90.9944 62.463C90.959 62.4519 90.9298 62.438 90.9055 62.4221C90.882 62.4068 90.8702 62.3853 90.8702 62.3576C90.8702 62.3354 90.8757 62.3173 90.8854 62.3027C90.8958 62.2875 90.9083 62.275 90.9236 62.2653C90.9382 62.2556 90.9555 62.2493 90.9749 62.2458C90.9944 62.2424 91.0131 62.241 91.0318 62.241C91.0825 62.241 91.1255 62.2445 91.1616 62.2521C91.197 62.259 91.2365 62.2708 91.2788 62.2861L91.2969 62.0786ZM89.8544 62.0641H89.5782V62.581C89.5782 62.615 89.5754 62.6524 89.5685 62.6934C89.5616 62.7336 89.5491 62.7718 89.5317 62.8065C89.5137 62.8425 89.4894 62.8724 89.4575 62.8967C89.4263 62.9203 89.386 62.9321 89.3368 62.9321C89.2931 62.9321 89.2584 62.9216 89.2341 62.9022C89.2091 62.8835 89.1918 62.8578 89.1814 62.8287C89.1702 62.7988 89.1633 62.7669 89.1605 62.7315C89.1591 62.6948 89.1578 62.6615 89.1578 62.6288V62.0641H88.883V62.7315C88.883 62.7912 88.8899 62.8474 88.9031 62.8974C88.9177 62.948 88.9392 62.9917 88.9683 63.0292C88.9975 63.0653 89.035 63.0944 89.0801 63.1152C89.1252 63.1354 89.1793 63.1458 89.2417 63.1458C89.3146 63.1458 89.3805 63.1305 89.4381 63.1007C89.4964 63.0701 89.5463 63.0299 89.5893 62.9772H89.5935V63.1215H89.8544V62.0641Z" fill="#1C1C1A"/>
<path d="M28.4278 56.2885L24.7415 52.6014V56.2885H28.4278Z" fill="#F6A500"/>
<path d="M23.9165 51.687L20.2294 47.9999V51.687H23.9165Z" fill="#F6A500"/>
<path d="M23.8402 60.965L20.1531 57.2779V60.965H23.8402Z" fill="#F6A500"/>
<path d="M21.0884 56.2885L24.7415 59.9749L28.4278 56.2885H21.0884Z" fill="#B61818"/>
<path d="M16.5763 51.687L20.2294 55.3733L23.9165 51.687L16.5763 51.687Z" fill="#B61818"/>
<path d="M16.5 60.965L20.1531 64.6521L23.8402 60.965H16.5Z" fill="#B61818"/>
</g>
<rect x="1.5" y="1" width="110" height="110" rx="9" stroke="#CCCCCC" stroke-width="2"/>
<defs>
<clipPath id="clip0_517_507">
<rect x="2.5" y="2" width="108" height="108" rx="8" fill="white"/>
</clipPath>
</defs>
</svg>
