<svg width="113" height="112" viewBox="0 0 113 112" fill="none" xmlns="http://www.w3.org/2000/svg">
<g clip-path="url(#clip0_528_602)">
<rect x="2.5" y="2" width="108" height="108" rx="8" fill="white"/>
<g clip-path="url(#clip1_528_602)">
<path d="M41.0808 46.1935C46.1296 46.0897 62.6117 40.1719 63.3705 36.5827L63.621 35.3605C57.9501 39.3081 46.168 43.6353 41.6055 43.6125H41.5979L41.0798 46.1652L41.0808 46.1935Z" fill="url(#paint0_linear_528_602)"/>
<path d="M65.5265 27.3286L65.6176 26.8579C58.5347 31.6254 47.8381 34.8215 43.6552 34.8291L43.1314 37.4102C48.324 37.3874 64.6687 31.3825 65.4278 27.7993C65.4278 27.7993 65.4734 27.5639 65.5265 27.3286Z" fill="url(#paint1_linear_528_602)"/>
<path d="M64.6838 31.0181C57.358 36.0893 47.1094 39.1563 42.6683 39.2777L42.1748 41.6539C47.1853 41.6387 63.7121 35.6262 64.4713 32.043L64.6838 31.0181Z" fill="url(#paint2_linear_528_602)"/>
<path fill-rule="evenodd" clip-rule="evenodd" d="M90.6318 64.9221C89.0908 64.9221 87.8457 63.2672 87.8457 61.225C87.8457 59.1829 89.0908 57.5203 90.6318 57.5203C92.1729 57.5203 93.4179 59.1753 93.4179 61.225C93.4179 63.2748 92.1729 64.9221 90.6318 64.9221ZM94.9666 56.8675C94.8983 56.784 94.8224 56.6929 94.7465 56.6169C94.625 56.4879 94.4808 56.3664 94.3365 56.2525C93.547 55.6073 92.5829 55.2201 91.5504 55.2201C90.4345 55.2201 89.4096 55.668 88.5821 56.412C88.5593 56.4272 88.5366 56.4423 88.5138 56.4575C88.4834 56.4727 88.4455 56.4955 88.3923 56.4803C88.2557 56.4423 88.1114 56.2981 88.1114 56.0931V51.7811C88.1114 51.5078 87.8913 51.2877 87.618 51.2877H85.5151C85.2418 51.2877 85.0217 51.5078 85.0217 51.7811V51.9329C85.0217 51.9329 85.0217 51.9405 85.0217 51.9481V66.3569C85.0217 66.6302 85.2494 66.858 85.5227 66.858H87.4206C87.5421 66.858 87.6559 66.8124 87.7394 66.7365C87.7394 66.7365 87.7394 66.7365 87.747 66.7365C87.747 66.7365 87.747 66.7365 87.747 66.7289C87.785 66.691 87.823 66.653 87.8457 66.6075C87.8761 66.5467 87.8989 66.4784 87.9065 66.4101C87.9444 66.1064 88.1494 65.9318 88.286 65.9774C88.3316 65.9925 88.3772 66.0153 88.4151 66.0457C88.4607 66.076 88.4986 66.1064 88.5442 66.1292C88.6732 66.2203 89.2426 66.615 89.6753 66.8048C89.8955 66.9035 90.6015 67.1389 91.4214 67.1389C92.2413 67.1389 92.8182 66.9567 92.9549 66.9187C93.0915 66.8808 93.2282 66.8352 93.3572 66.7745C93.9949 66.5012 94.5111 66.1216 94.9059 65.6433C95.2931 65.1726 95.6119 64.6109 95.8776 63.9732C96.2648 63.1305 96.4849 62.1664 96.4849 61.1339C96.4849 59.4562 95.8928 57.9379 94.9514 56.8599L94.9666 56.8675Z" fill="#2B5E87"/>
<path fill-rule="evenodd" clip-rule="evenodd" d="M18.4815 62.8193C18.4815 63.0622 18.5271 63.2975 18.5726 63.5177C18.9446 64.8462 20.053 65.7648 21.4498 65.7648C23.454 65.7648 24.6535 64.1326 24.6535 61.7109C24.6535 59.5928 23.5603 57.786 21.5106 57.786C20.2048 57.786 18.9826 58.6818 18.5878 60.1394C18.5423 60.3596 18.4815 60.6177 18.4815 60.929V62.8268V62.8193ZM16.5836 51.5685H18.4815V58.196H18.5271C19.2027 57.0193 20.425 56.2601 22.1255 56.2601C24.7446 56.2601 26.5969 58.4389 26.5741 61.6426C26.5741 65.4156 24.198 67.2907 21.8446 67.2907C20.3187 67.2907 19.0964 66.6986 18.3145 65.3093H18.2462L18.1627 67.0554H16.5001C16.5457 66.3342 16.5836 65.2637 16.5836 64.33V51.5685Z" fill="#2B5E87"/>
<path fill-rule="evenodd" clip-rule="evenodd" d="M34.2948 61.6653C32.1995 61.6198 29.8233 61.9918 29.8233 64.0415C29.8233 65.2865 30.6508 65.8711 31.6301 65.8711C33.0042 65.8711 33.8772 64.998 34.1809 64.1022C34.2492 63.9049 34.2948 63.6847 34.2948 63.4949V61.6653ZM36.1471 64.5198C36.1471 65.4384 36.1927 66.3266 36.3217 67.0478H34.5757L34.4238 65.7192H34.3555C33.7634 66.5467 32.6322 67.2907 31.1291 67.2907C28.9883 67.2907 27.9027 65.7876 27.9027 64.2617C27.9027 61.7109 30.165 60.314 34.2492 60.3368V60.1167C34.2492 59.2436 34.0063 57.6722 31.8503 57.6722C30.871 57.6722 29.8461 57.9758 29.1021 58.4617L28.6618 57.1939C29.5349 56.6245 30.8026 56.2601 32.1312 56.2601C35.3576 56.2601 36.1395 58.4617 36.1395 60.5797V64.5274L36.1471 64.5198Z" fill="#2B5E87"/>
<path fill-rule="evenodd" clip-rule="evenodd" d="M39.0926 59.3499C39.0926 58.2643 39.0699 57.3685 39.0091 56.4955H40.7096L40.8235 58.2415H40.8691C41.3929 57.2395 42.6151 56.2601 44.3612 56.2601C45.8188 56.2601 48.0887 57.1332 48.0887 60.7468V67.0478H46.168V60.9669C46.168 59.2664 45.5379 57.8468 43.7235 57.8468C42.4557 57.8468 41.4764 58.7426 41.15 59.813C41.0665 60.0483 41.0209 60.3824 41.0209 60.7088V67.0554H39.1002V59.3575L39.0926 59.3499Z" fill="#2B5E87"/>
<path fill-rule="evenodd" clip-rule="evenodd" d="M52.7803 61.3389H52.8258C53.0915 60.9669 53.4559 60.5114 53.7672 60.1394L56.8645 56.4955H59.1724L55.0957 60.8379L59.7417 67.0478H57.4111L53.7672 61.9918L52.7878 63.085V67.0554H50.8899V51.5761H52.7878V61.3389H52.7803Z" fill="#2B5E87"/>
<path fill-rule="evenodd" clip-rule="evenodd" d="M71.205 64.9221C69.6639 64.9221 68.4189 63.2672 68.4189 61.225C68.4189 59.1829 69.6639 57.5203 71.205 57.5203C72.7461 57.5203 73.9911 59.1753 73.9911 61.225C73.9911 63.2748 72.7461 64.9221 71.205 64.9221ZM75.5398 56.8675C75.4715 56.784 75.3956 56.6929 75.3196 56.6169C75.1982 56.4879 75.0539 56.3664 74.9097 56.2525C74.1126 55.6073 73.156 55.2201 72.1236 55.2201C71.0076 55.2201 69.9828 55.668 69.1553 56.412C69.1325 56.4272 69.1097 56.4423 69.087 56.4575C69.0566 56.4727 69.0186 56.4955 68.9655 56.4803C68.8288 56.4423 68.6846 56.2981 68.6846 56.0931V51.7811C68.6846 51.5078 68.4644 51.2877 68.1911 51.2877H66.0883C65.815 51.2877 65.5948 51.5078 65.5948 51.7811V51.9329C65.5948 51.9329 65.5948 51.9405 65.5948 51.9481V66.3569C65.5948 66.6302 65.8226 66.858 66.0959 66.858H67.9938C68.1152 66.858 68.2215 66.8124 68.3126 66.7365C68.3126 66.7365 68.3126 66.7365 68.3202 66.7365C68.3202 66.7365 68.3202 66.7365 68.3202 66.7289C68.3582 66.691 68.3961 66.653 68.4189 66.6075C68.4493 66.5467 68.472 66.4784 68.4796 66.4101C68.5176 66.1064 68.7302 65.9318 68.8592 65.9774C68.9048 65.9925 68.9503 66.0153 68.9883 66.0457C69.0338 66.076 69.0718 66.1064 69.1173 66.1292C69.2464 66.2203 69.8157 66.615 70.2485 66.8048C70.4686 66.9035 71.1746 67.1389 71.9945 67.1389C72.8144 67.1389 73.3914 66.9567 73.528 66.9187C73.6647 66.8808 73.8013 66.8352 73.9304 66.7745C74.5681 66.5012 75.0843 66.1216 75.4791 65.6433C75.8662 65.1726 76.1851 64.6109 76.4508 63.9732C76.8379 63.1305 77.0581 62.1664 77.0581 61.1339C77.0581 59.4562 76.466 57.9379 75.5246 56.8599L75.5398 56.8675Z" fill="#2B5E87"/>
<path fill-rule="evenodd" clip-rule="evenodd" d="M82.5392 56.4651C82.5392 56.4651 82.5392 56.412 82.5316 56.3816V56.0172C82.5316 55.7439 82.3115 55.5162 82.0306 55.5162H79.9125C79.6316 55.5162 79.4115 55.7439 79.4115 56.0172V67.4198C79.4039 67.7082 79.0471 68.1106 78.6371 68.2093C78.4474 68.27 78.2576 68.2928 78.0678 68.2852C77.878 68.2852 77.7489 68.3535 77.673 68.5129C77.6427 68.5813 77.6199 68.68 77.6047 68.8014C77.5895 68.9153 77.6047 70.1375 77.6199 70.2438C77.6199 70.3425 77.6427 70.4336 77.673 70.5019C77.7565 70.631 77.916 70.7221 78.1285 70.76C78.2044 70.7904 79.6089 70.7904 80.5502 70.5627C80.9222 70.4716 81.2183 70.297 81.4688 70.1072C81.7117 69.9174 81.9319 69.6744 82.1217 69.386C82.3418 69.0368 82.4557 68.5964 82.4785 68.065C82.4785 67.9056 82.5164 67.4881 82.5164 67.4349V57.08C82.5164 57.0193 82.5164 56.9662 82.524 56.9054C82.524 56.7612 82.524 56.6169 82.524 56.4651" fill="#2B5E87"/>
<path fill-rule="evenodd" clip-rule="evenodd" d="M70.1194 81.5249H71.5466V76.7953C71.5466 76.5372 71.5618 76.3247 71.6453 76.1121C71.9186 75.3529 72.6322 74.7077 73.5584 74.7077C74.9021 74.7077 75.3728 75.7629 75.3728 77.0231V81.5249H76.8V76.8637C76.8 74.1763 75.1147 73.531 74.067 73.531C73.5356 73.531 73.0346 73.6752 72.6094 73.9181C72.1691 74.1611 71.8199 74.5331 71.5922 74.9354H71.5618V70.0313H70.1346V81.5249H70.1194ZM66.4451 78.883C66.4451 79.0121 66.4299 79.1715 66.3768 79.3385C66.149 79.999 65.4885 80.6519 64.4485 80.6519C63.7349 80.6519 63.12 80.2343 63.12 79.293C63.12 77.7747 64.8888 77.4938 66.4375 77.5317V78.8906L66.4451 78.883ZM67.8192 76.7118C67.8192 75.1556 67.2346 73.5234 64.8433 73.5234C63.8564 73.5234 62.8998 73.7967 62.2545 74.2066L62.581 75.1632C63.1276 74.7912 63.8943 74.5786 64.6383 74.5786C66.2401 74.5634 66.4223 75.7477 66.4223 76.3778V76.5372C63.3933 76.5221 61.7079 77.5545 61.7079 79.4524C61.7079 80.5835 62.5202 81.6995 64.1069 81.6995C65.2228 81.6995 66.0655 81.1529 66.4982 80.538H66.5514L66.6652 81.5249H67.9406C67.8571 80.9935 67.8268 80.3254 67.8268 79.6498V76.7194L67.8192 76.7118ZM59.2407 70.6082C58.7093 70.6082 58.3525 71.0106 58.3525 71.4964C58.3525 71.9823 58.6941 72.3695 59.2103 72.3695C59.7797 72.3695 60.1213 71.9823 60.1213 71.4964C60.1213 71.0106 59.7645 70.6082 59.2483 70.6082H59.2407ZM59.9543 81.5173V73.6828H58.5271V81.5173H59.9543ZM53.175 81.5173H54.6022V77.3419C54.6022 77.1142 54.6174 76.8713 54.6478 76.6815C54.8452 75.6111 55.5512 74.8671 56.5609 74.8671C56.7582 74.8671 56.9025 74.8671 57.0467 74.8975V73.5537C56.9177 73.5386 56.8038 73.5234 56.6595 73.5234C55.703 73.5234 54.83 74.1838 54.4732 75.2391H54.4276L54.3669 73.6828H53.1219C53.1674 74.4116 53.1902 75.2087 53.1902 76.1273V81.5173H53.175ZM49.5007 78.8754C49.5007 79.0045 49.4855 79.1639 49.44 79.3309C49.2122 79.9914 48.5517 80.6443 47.5117 80.6443C46.7981 80.6443 46.1832 80.2267 46.1832 79.2854C46.1832 77.7671 47.9444 77.4862 49.5007 77.5241V78.883V78.8754ZM50.8748 76.7042C50.8748 75.148 50.2902 73.5158 47.8989 73.5158C46.912 73.5158 45.9554 73.7891 45.3101 74.199L45.6366 75.1556C46.1908 74.7836 46.9499 74.571 47.6939 74.571C49.2957 74.5558 49.4779 75.7401 49.4779 76.3702V76.5296C46.4489 76.5145 44.7711 77.5469 44.7711 79.4448C44.7711 80.576 45.5834 81.6919 47.1701 81.6919C48.286 81.6919 49.1287 81.1453 49.569 80.5304H49.6146L49.7284 81.5173H51.0038C50.9203 80.9859 50.8899 80.3178 50.8899 79.6422V76.7118L50.8748 76.7042ZM36.7772 73.6752L39.662 80.8948C39.7455 81.0694 39.7759 81.1833 39.7759 81.2668C39.7759 81.3503 39.7303 81.4642 39.662 81.6084C39.3204 82.3372 38.8497 82.8838 38.4625 83.195C38.045 83.5518 37.5743 83.7796 37.2175 83.8935L37.5743 85.0778C37.9311 85.017 38.6068 84.7665 39.3204 84.1744C40.2921 83.3165 40.9905 81.9576 42.0078 79.2702L44.1486 73.6828H42.6455L41.0892 78.2833C40.8918 78.8527 40.7324 79.4524 40.5882 79.9155H40.5578C40.4288 79.4448 40.2314 78.8299 40.0416 78.3137L38.3411 73.6828H36.7848L36.7772 73.6752ZM30.871 81.1377C31.4176 81.4642 32.2147 81.6843 33.0725 81.6843C34.9021 81.6843 35.9877 80.7126 35.9877 79.3233C35.9877 78.1542 35.2741 77.4786 33.9304 76.9775C32.9131 76.5752 32.4576 76.2791 32.4576 75.6338C32.4576 75.0493 32.9131 74.5634 33.7558 74.5634C34.4846 74.5634 35.0539 74.8367 35.3576 75.0341L35.6992 74.0016C35.2817 73.7283 34.5833 73.5158 33.7861 73.5158C32.116 73.5158 31.0835 74.5482 31.0835 75.816C31.0835 76.7574 31.7516 77.5165 33.1712 78.0328C34.2037 78.4199 34.6136 78.7767 34.6136 79.46C34.6136 80.1432 34.1278 80.6215 33.1105 80.6215C32.3969 80.6215 31.6529 80.333 31.2202 80.0749L30.8786 81.1453L30.871 81.1377Z" fill="#B53838"/>
<path fill-rule="evenodd" clip-rule="evenodd" d="M80.9905 54.3015C81.8484 54.3015 82.5468 53.6031 82.5468 52.7452C82.5468 51.8874 81.8484 51.189 80.9905 51.189C80.1327 51.189 79.4343 51.8874 79.4343 52.7452C79.4343 53.6031 80.1327 54.3015 80.9905 54.3015Z" fill="#2B5E87"/>
</g>
</g>
<rect x="1.5" y="1" width="110" height="110" rx="9" stroke="#CCCCCC" stroke-width="2"/>
<defs>
<linearGradient id="paint0_linear_528_602" x1="42.8932" y1="33.9597" x2="65.6134" y2="33.1663" gradientUnits="userSpaceOnUse">
<stop stop-color="#3CAAE0"/>
<stop offset="0.12" stop-color="#3780AC"/>
<stop offset="0.42" stop-color="#306086"/>
<stop offset="0.56" stop-color="#898870"/>
<stop offset="1" stop-color="#ECC931"/>
</linearGradient>
<linearGradient id="paint1_linear_528_602" x1="42.8932" y1="33.9597" x2="65.6134" y2="33.1663" gradientUnits="userSpaceOnUse">
<stop stop-color="#3CAAE0"/>
<stop offset="0.12" stop-color="#3780AC"/>
<stop offset="0.42" stop-color="#306086"/>
<stop offset="0.56" stop-color="#898870"/>
<stop offset="1" stop-color="#ECC931"/>
</linearGradient>
<linearGradient id="paint2_linear_528_602" x1="42.8932" y1="33.9597" x2="65.6134" y2="33.1663" gradientUnits="userSpaceOnUse">
<stop stop-color="#3CAAE0"/>
<stop offset="0.12" stop-color="#3780AC"/>
<stop offset="0.42" stop-color="#306086"/>
<stop offset="0.56" stop-color="#898870"/>
<stop offset="1" stop-color="#ECC931"/>
</linearGradient>
<clipPath id="clip0_528_602">
<rect x="2.5" y="2" width="108" height="108" rx="8" fill="white"/>
</clipPath>
<clipPath id="clip1_528_602">
<rect width="80" height="59.0852" fill="white" transform="translate(16.5 26)"/>
</clipPath>
</defs>
</svg>
