<svg width="113" height="112" viewBox="0 0 113 112" fill="none" xmlns="http://www.w3.org/2000/svg">
<g clip-path="url(#clip0_528_596)">
<rect x="2.5" y="2" width="108" height="108" rx="8" fill="white"/>
<path d="M54.1284 59.1105C54.1284 59.1105 53.7331 57.4334 54.327 55.8965C54.8546 54.5293 56.4933 54.6733 57.1332 55.4408C57.6129 56.0164 57.8767 56.9278 57.9007 58.3429C57.9007 58.3429 59.3571 57.3317 58.9081 54.7673C58.5003 52.4388 55.1904 51.6991 53.6314 53.474L53.0529 57.8632L54.1284 59.1105Z" fill="#72BB38"/>
<path d="M57.6129 51.2194C57.6129 51.2194 56.5336 49.5645 54.4229 51.5552C52.3123 53.546 53.0884 57.1811 53.8041 57.6416C53.8041 57.6416 53.4837 52.6825 57.6129 51.2194Z" fill="#9EC92A"/>
<path d="M54.3913 44C54.3913 44 55.3823 45.559 55.4303 48.1014C55.4782 50.6438 54.6148 52.3947 54.279 53.6179C53.9432 54.8412 52.9359 58.5108 55.2144 60.8613C55.2144 60.8613 54.7587 61.0053 54.1351 60.4056C53.5115 59.806 51.3692 57.1437 51.5447 54.0496C51.7366 50.6678 55.0465 47.4538 54.3913 44Z" fill="#E6E400"/>
<path d="M60.3616 48.7241C59.5614 48.1465 58.579 47.9287 57.5333 48.0275C58.3372 48.0295 59.0904 48.2444 59.7245 48.702C61.8812 50.2581 61.8381 54.0046 59.6267 57.0689C57.4153 60.1332 53.8741 61.3554 51.7174 59.7983C49.814 58.4254 49.625 55.3468 51.1264 52.5367C49.0311 55.8763 49.0599 59.6928 51.2886 61.2998C53.6544 63.0075 57.6043 61.5761 60.1102 58.1031C62.6161 54.6301 62.7293 50.4308 60.3635 48.7231L60.3616 48.7241Z" fill="#E62129"/>
<path d="M20.1073 49.3726C20.6532 49.3726 21.0926 49.4004 21.4265 49.4561C21.7604 49.5117 22.0578 49.6105 22.3206 49.7516C22.7351 49.9636 23.0555 50.2418 23.2829 50.5853C23.5103 50.9287 23.6235 51.3077 23.6235 51.7222C23.6235 52.0656 23.5429 52.387 23.3808 52.6844C23.2186 52.9828 22.9913 53.2274 22.6986 53.4193C22.6075 53.4798 22.5164 53.5354 22.4262 53.5863C22.335 53.6371 22.1988 53.7023 22.0165 53.7829C22.3082 53.8635 22.5365 53.9345 22.7025 53.995C22.8685 54.0554 23.0363 54.137 23.2071 54.2377C23.659 54.49 24.0082 54.8239 24.2548 55.2383C24.5004 55.6528 24.6241 56.1075 24.6241 56.6026C24.6241 57.2089 24.4447 57.7673 24.0869 58.2777C23.729 58.7881 23.2378 59.1901 22.6123 59.4827C22.4406 59.5633 22.264 59.6324 22.0827 59.687C21.9014 59.7427 21.7047 59.7859 21.4927 59.8156C21.2807 59.8463 21.0437 59.8713 20.7818 59.8914C20.5199 59.9115 20.2224 59.9221 19.8895 59.9221H16.5C16.6516 59.8415 16.7725 59.7532 16.8636 59.6573C16.9548 59.5614 17.0248 59.4376 17.0756 59.286C17.1265 59.1344 17.161 58.9474 17.1821 58.7248C17.2023 58.5022 17.2128 58.2192 17.2128 57.8757V51.4343C17.2128 51.0909 17.2023 50.8079 17.1821 50.5853C17.162 50.3627 17.1265 50.1756 17.0756 50.024C17.0248 49.8724 16.9548 49.7487 16.8636 49.6527C16.7725 49.5568 16.6516 49.4685 16.5 49.388H19.0539C19.2007 49.388 19.3849 49.3832 19.6075 49.3726H20.1073ZM18.7738 53.6323C18.9148 53.6525 19.029 53.663 19.1143 53.663H19.3801C20.138 53.663 20.7492 53.5095 21.2145 53.2006C21.6788 52.8926 21.9119 52.481 21.9119 51.9649C21.9119 51.49 21.7249 51.1081 21.3507 50.8203C20.9765 50.5325 20.4863 50.3886 19.8799 50.3886C19.7178 50.3886 19.5566 50.3963 19.3945 50.4116C19.2324 50.427 19.0251 50.4548 18.7728 50.4951L18.7738 53.6323ZM18.7738 58.649C19.0664 58.7094 19.312 58.7497 19.5087 58.7699C19.7053 58.79 19.9308 58.8006 20.1831 58.8006C21.0418 58.8006 21.7009 58.6288 22.1614 58.2854C22.6209 57.9419 22.8512 57.4517 22.8512 56.8146C22.8512 56.1171 22.6037 55.577 22.1086 55.1923C21.8457 54.9899 21.555 54.8459 21.2375 54.7606C20.919 54.6752 20.5026 54.632 19.9874 54.632C19.7754 54.632 19.5806 54.6368 19.4041 54.6474C19.2276 54.6579 19.0174 54.6781 18.7747 54.7078L18.7738 58.649Z" fill="#00824A"/>
<path d="M29.7473 55.9214C29.6053 55.9819 29.4873 56.0327 29.3914 56.073C29.2954 56.1133 29.1813 56.1536 29.0508 56.1939C28.9194 56.2342 28.7495 56.2802 28.5433 56.3301C28.336 56.381 28.0559 56.4462 27.7019 56.5268C26.9334 56.7091 26.5496 57.1178 26.5496 57.7548C26.5496 58.1693 26.6993 58.4897 26.9996 58.7171C27.2989 58.9445 27.7182 59.0577 28.2564 59.0577C28.4598 59.0577 28.645 59.0423 28.8119 59.0126C28.9798 58.9819 29.1957 58.9272 29.4595 58.8457L28.5193 60.043C28.3476 60.0833 28.2008 60.1082 28.0799 60.1188C27.959 60.1284 27.8122 60.1341 27.6405 60.1341C26.8317 60.1341 26.2004 59.9269 25.7457 59.5115C25.4828 59.2783 25.2804 59.0049 25.1393 58.6912C24.9973 58.3775 24.9273 58.058 24.9273 57.7337C24.9273 57.4094 25.0079 57.0852 25.1691 56.7916C25.3303 56.498 25.5471 56.2754 25.8186 56.1229C25.9299 56.0625 26.045 56.0068 26.1659 55.956C26.2868 55.9051 26.4278 55.8543 26.589 55.8044C26.7502 55.7535 26.9363 55.7056 27.1483 55.6605C27.3594 55.6154 27.6165 55.5617 27.9187 55.5012C28.2708 55.4302 28.5634 55.3621 28.7946 55.2959C29.0258 55.2297 29.21 55.1539 29.3463 55.0685C29.4825 54.9822 29.5775 54.8862 29.6331 54.7797C29.6888 54.6733 29.7166 54.5495 29.7166 54.4075C29.7166 54.1034 29.5756 53.8578 29.2926 53.6707C29.0105 53.4836 28.6421 53.3896 28.1873 53.3896C28.0156 53.3896 27.8544 53.4001 27.7028 53.4203C27.5513 53.4414 27.3949 53.475 27.2337 53.521C27.0725 53.568 26.8931 53.6352 26.6964 53.7225C26.4998 53.8108 26.2705 53.9163 26.0076 54.041L27.0706 52.434C27.3037 52.3832 27.4927 52.3534 27.6395 52.3429C27.7863 52.3333 27.9657 52.3275 28.1787 52.3275C29.5353 52.3275 30.4362 52.6864 30.8823 53.404C30.9533 53.5153 31.0089 53.6189 31.0492 53.7148C31.0895 53.8108 31.1202 53.9268 31.1403 54.0631C31.1605 54.1993 31.1758 54.3663 31.1864 54.5629C31.196 54.7596 31.2017 55.01 31.2017 55.3132V57.3749C31.2017 57.6071 31.2065 57.797 31.2171 57.9429C31.2267 58.0897 31.2449 58.2086 31.2699 58.2988C31.2948 58.3899 31.3351 58.4686 31.3907 58.5339C31.4464 58.6001 31.5193 58.6624 31.6105 58.7229C31.7217 58.814 31.8503 58.8773 31.9971 58.9119C32.1439 58.9474 32.3329 58.9704 32.565 58.98L31.8676 60.0257C31.4637 59.995 31.1538 59.9547 30.9398 59.9048C30.7259 59.854 30.5311 59.7734 30.3584 59.6621C30.2356 59.5911 30.1339 59.5105 30.0524 59.4194C29.9708 59.3282 29.9066 59.2198 29.8615 59.0932C29.8154 58.9665 29.7847 58.815 29.7694 58.6384C29.754 58.4619 29.7463 58.2422 29.7463 57.9793V55.9176L29.7473 55.9214Z" fill="#00824A"/>
<path d="M34.3706 53.5719C34.7534 53.1171 35.1238 52.7967 35.4816 52.6096C35.8395 52.4225 36.2549 52.3295 36.7288 52.3295C37.2421 52.3295 37.7208 52.4331 38.1641 52.6403C38.6073 52.8475 38.945 53.1229 39.1772 53.4663C39.2472 53.5776 39.3077 53.6966 39.3585 53.8223C39.4084 53.9489 39.4487 54.0947 39.4794 54.2617C39.5101 54.4286 39.5302 54.6234 39.5398 54.845C39.5494 55.0676 39.5552 55.3304 39.5552 55.6336V58.3468C39.5552 58.6096 39.56 58.8169 39.5705 58.9685C39.5801 59.12 39.606 59.2486 39.6463 59.3551C39.6866 59.4616 39.7471 59.5547 39.8286 59.6352C39.9092 59.7158 40.0205 59.8118 40.1625 59.9231H37.4944C37.6326 59.8118 37.7429 59.7158 37.8273 59.6352C37.9108 59.5547 37.9731 59.4606 38.0125 59.3551C38.0518 59.2486 38.0768 59.1181 38.0864 58.9608C38.096 58.8044 38.1017 58.6001 38.1017 58.3468V55.8005C38.1017 55.3765 38.0768 55.0455 38.0269 54.8076C37.977 54.5706 37.8868 54.3653 37.7563 54.1936C37.5961 53.9911 37.3706 53.8271 37.08 53.7014C36.7893 53.5747 36.4832 53.5124 36.1628 53.5124C35.8423 53.5124 35.5488 53.5757 35.283 53.7014C35.0173 53.828 34.8091 53.9969 34.6594 54.2089C34.5788 54.3202 34.5241 54.4411 34.4934 54.5725C34.4637 54.704 34.4483 54.8862 34.4483 55.1184V58.3468C34.4483 58.6096 34.4531 58.8169 34.4627 58.9685C34.4723 59.12 34.4973 59.2486 34.5366 59.3551C34.5759 59.4616 34.6354 59.5547 34.7141 59.6352C34.7928 59.7158 34.9012 59.8118 35.0393 59.9231H32.3866C32.5276 59.8118 32.6389 59.7158 32.7205 59.6352C32.8011 59.5547 32.8615 59.4606 32.9028 59.3551C32.943 59.2486 32.968 59.12 32.9785 58.9685C32.9881 58.8169 32.9939 58.6096 32.9939 58.3468V54.1178C32.9939 53.8654 32.9891 53.6611 32.9785 53.5038C32.968 53.3474 32.943 53.2159 32.9028 53.1094C32.8625 53.003 32.802 52.9099 32.7205 52.8293C32.6399 52.7487 32.5286 52.6528 32.3866 52.5415H33.4218C33.6568 52.5415 33.8458 52.5185 33.9888 52.4734C34.1317 52.4283 34.2593 52.3496 34.3716 52.2383L34.3706 53.5719Z" fill="#00824A"/>
<path d="M41.6668 49.388C41.9019 49.388 42.0909 49.3649 42.2338 49.3198C42.3768 49.2747 42.5044 49.1961 42.6166 49.0848V58.3458C42.6166 58.6087 42.6214 58.8159 42.632 58.9675C42.6416 59.1191 42.6675 59.2476 42.7078 59.3541C42.7481 59.4606 42.8085 59.5537 42.89 59.6343C42.9706 59.7149 43.0819 59.8108 43.2239 59.9221H40.5558C40.6969 59.8108 40.8082 59.7149 40.8897 59.6343C40.9703 59.5537 41.0307 59.4597 41.072 59.3541C41.1123 59.2476 41.1372 59.1191 41.1478 58.9675C41.1574 58.8159 41.1631 58.6087 41.1631 58.3458V50.9642C41.1631 50.7014 41.1583 50.4941 41.1478 50.3426C41.1372 50.191 41.1123 50.0624 41.072 49.9559C41.0317 49.8494 40.9713 49.7564 40.8897 49.6758C40.8091 49.5952 40.6978 49.4992 40.5558 49.388H41.6668ZM44.4961 55.6326C44.6572 55.8351 44.9105 56.1536 45.254 56.5872C45.5975 57.0219 46.0321 57.5821 46.5578 58.27C46.7497 58.5127 46.9118 58.7171 47.0433 58.884C47.1747 59.051 47.2985 59.192 47.4145 59.3081C47.5306 59.4242 47.6467 59.5307 47.7628 59.6266C47.8789 59.7225 48.0132 59.8214 48.1648 59.9221C47.9624 59.9422 47.7484 59.9547 47.521 59.9595C47.2937 59.9643 47.0788 59.9672 46.8773 59.9672C46.6653 59.9672 46.4906 59.9566 46.3544 59.9365C46.2182 59.9163 46.0915 59.8713 45.9755 59.8003C45.8594 59.7293 45.7481 59.6333 45.6416 59.5124C45.5351 59.3916 45.4065 59.2246 45.2549 59.0126C45.0429 58.7094 44.8328 58.4111 44.6256 58.1184C44.4184 57.8258 44.1987 57.5275 43.9665 57.2243C43.8149 57.0123 43.6662 56.805 43.5194 56.6026C43.3726 56.4002 43.2191 56.2083 43.057 56.027C43.0368 55.9867 43.0119 55.9492 42.9812 55.9138C42.9505 55.8783 42.9207 55.8408 42.89 55.7996L44.3454 54.1926C44.6083 53.9096 44.7925 53.6803 44.899 53.5028C45.0055 53.3263 45.0583 53.1718 45.0583 53.0404C45.0583 52.8888 44.9518 52.7218 44.7398 52.5405H47.1805L44.498 55.6326H44.4961Z" fill="#00824A"/>
<path d="M68.2862 59.9979C68.527 59.9269 68.8253 59.7571 68.9961 59.4165C69.1659 59.0759 69.1381 58.7919 69.0105 58.4379L68.4425 56.7206H65.2219L64.6405 58.4235C64.5272 58.7785 64.4841 59.0903 64.6261 59.4165C64.7824 59.7715 65.123 59.9279 65.3638 59.9979H61.7594C61.9292 59.8559 62.0146 59.7283 62.1566 59.5585C62.3696 59.3033 62.5394 59.1325 62.667 58.8063L65.4905 50.6332C65.5327 50.4913 65.5615 50.4059 65.5471 50.2648C65.5471 49.7823 65.2065 49.3851 64.8093 49.2575H68.9098L72.258 58.5089C72.3856 58.8495 72.5276 59.0337 72.7406 59.3177C72.9536 59.6017 73.109 59.7571 73.3796 59.9989L68.2862 59.9979ZM66.7962 52.0378L65.6613 55.1597H67.9312L66.7962 52.0378Z" fill="#00824A"/>
<path d="M79.2434 59.6151L78.5334 59.8415C77.7813 60.0833 77.0867 60.1821 76.4477 60.1821C74.3332 60.1821 72.4605 58.8485 72.4605 56.4788C72.4605 54.1091 73.936 52.4772 76.9303 52.4638C77.2143 52.4638 77.5117 52.4782 77.8101 52.506L78.8174 52.6058V54.4219L78.1084 54.0813C77.8101 53.9393 77.4273 53.8827 77.0588 53.8827C76.0227 53.8827 75.4979 54.8335 75.4979 56.096C75.4979 57.8268 76.4487 58.6356 77.6259 58.6356C78.0653 58.6356 78.5056 58.5223 78.9028 58.3094L79.7538 57.8268L79.2434 59.6151Z" fill="#00824A"/>
<path d="M86.9195 59.7293L86.1817 59.9566C85.5859 60.1408 84.947 60.255 84.2946 60.255C81.6131 60.255 79.7538 58.8927 79.7538 56.4808C79.7538 53.7283 81.7119 52.3803 83.741 52.3803C85.3873 52.3803 87.0749 53.4299 87.3311 55.317L87.4731 56.3666H82.4785L82.5351 56.8492C82.6627 58.0973 84.096 58.7507 84.8616 58.7507C85.6848 58.7363 86.4791 58.4101 86.7487 58.2825L87.5009 57.9419L86.9195 59.7293ZM83.6134 53.8405C83.032 53.8405 82.5351 54.3087 82.5063 55.0042H84.7484C84.7484 54.3087 84.2092 53.8405 83.6134 53.8405Z" fill="#00824A"/>
<path d="M92.4696 59.9979C92.7248 59.8281 92.8524 59.6861 92.9944 59.4021C93.1076 59.1469 93.1076 58.9627 93.1076 58.6787V54.9611C93.1076 54.4363 92.6538 54.0103 92.128 54.0103C91.6033 54.0247 91.1773 54.4363 91.1773 54.9467V58.5933C91.1773 58.7775 91.1629 59.2035 91.3337 59.5153C91.4613 59.7283 91.5889 59.8559 91.7875 59.9979L87.829 59.9835C88.0564 59.8271 88.1696 59.6995 88.2828 59.4443C88.4248 59.1603 88.4104 58.9617 88.4104 58.6499V50.3214C88.4104 50.0941 88.3682 49.9665 88.2684 49.7679C88.1552 49.5405 88.041 49.3995 87.8146 49.2575H90.3829C90.5815 49.2575 90.6947 49.2009 90.8799 49.1299C90.9931 49.0733 91.0641 49.0445 91.1782 48.9879V52.9751C91.774 52.5069 92.3132 52.3506 93.2496 52.3506C94.4555 52.3506 95.8745 53.1881 95.8745 54.3509V58.6499C95.8745 59.0183 95.8745 59.2601 96.0731 59.5575C96.1863 59.7705 96.3139 59.8837 96.499 59.9969L92.4696 59.9979Z" fill="#00824A"/>
<path d="M29.9363 65.6036C29.9363 65.6957 29.9392 65.7706 29.944 65.83C29.9497 65.8895 29.9584 65.9394 29.9728 65.9797C29.9862 66.02 30.0054 66.0536 30.0294 66.0785C30.0534 66.1044 30.086 66.1275 30.1263 66.1495H29.3127C29.353 66.1284 29.3856 66.1044 29.4096 66.0785C29.4336 66.0526 29.4528 66.02 29.4662 65.9797C29.4796 65.9394 29.4892 65.8895 29.494 65.83C29.4998 65.7706 29.5017 65.6948 29.5017 65.6036V63.8834C29.5017 63.7923 29.4988 63.7165 29.494 63.657C29.4883 63.5975 29.4796 63.5476 29.4662 63.5074C29.4528 63.4671 29.4336 63.4335 29.4096 63.4085C29.3856 63.3826 29.353 63.3596 29.3127 63.3375H30.1263C30.086 63.3596 30.0534 63.3826 30.0294 63.4085C30.0054 63.4344 29.9862 63.4671 29.9728 63.5074C29.9593 63.5476 29.9497 63.5975 29.944 63.657C29.9382 63.7165 29.9363 63.7923 29.9363 63.8834V65.6036ZM30.5964 63.8997C30.6607 63.8163 30.7125 63.7395 30.7499 63.6714C30.7873 63.6023 30.8065 63.5515 30.8065 63.5198C30.8065 63.4527 30.7633 63.3913 30.677 63.3375H31.4464L30.463 64.6001C30.6194 64.8102 30.7441 64.9781 30.8372 65.1038C30.9302 65.2295 31.006 65.3302 31.0636 65.407C31.1212 65.4837 31.1691 65.5451 31.2075 65.5912C31.2449 65.6372 31.2862 65.6842 31.3294 65.7331C31.3591 65.7658 31.3898 65.7974 31.4224 65.8281C31.455 65.8588 31.4915 65.8905 31.5318 65.9231C31.5721 65.9557 31.6172 65.9903 31.6671 66.0286C31.7169 66.0661 31.7745 66.1073 31.8388 66.1505C31.7851 66.1562 31.7198 66.161 31.645 66.1649C31.5692 66.1687 31.4982 66.1706 31.4301 66.1706C31.3466 66.1706 31.2756 66.163 31.2181 66.1486C31.1605 66.1342 31.0991 66.0977 31.0358 66.0411C30.9725 65.9845 30.8976 65.9001 30.8113 65.7878C30.7249 65.6756 30.6117 65.523 30.4717 65.3283C30.4122 65.2419 30.3527 65.1566 30.2913 65.0712C30.2308 64.9858 30.1694 64.9004 30.1071 64.814C30.0879 64.7929 30.0706 64.7709 30.0543 64.7498C30.038 64.7277 30.0217 64.7066 30.0054 64.6845L30.5964 63.8997Z" fill="#00824A"/>
<path d="M32.3847 65.122C32.3952 65.3743 32.4758 65.571 32.6255 65.712C32.7752 65.8531 32.9795 65.9241 33.2385 65.9241C33.3815 65.9241 33.5081 65.9058 33.6194 65.8703C33.7298 65.8348 33.842 65.7773 33.9552 65.6976L33.725 66.1063C33.6309 66.1438 33.5379 66.1706 33.4477 66.185C33.3575 66.1994 33.2529 66.2071 33.134 66.2071C32.9555 66.2071 32.7924 66.1812 32.6447 66.1303C32.496 66.0795 32.3684 66.0075 32.2619 65.9154C32.1554 65.8233 32.0719 65.714 32.0134 65.5854C31.9539 65.4568 31.9242 65.3158 31.9242 65.1623C31.9242 65.0088 31.9549 64.8697 32.0172 64.7296C32.0796 64.5896 32.164 64.4696 32.2724 64.3698C32.4586 64.2058 32.6955 64.1233 32.9843 64.1233C33.1244 64.1233 33.2539 64.1463 33.3729 64.1924C33.4918 64.2384 33.5945 64.3027 33.6808 64.3871C33.7672 64.4706 33.8343 64.5694 33.8833 64.6826C33.9322 64.7958 33.9562 64.9205 33.9562 65.0549V65.1239H32.3856L32.3847 65.122ZM33.5062 64.8553C33.4439 64.5397 33.2635 64.3814 32.9642 64.3814C32.8183 64.3814 32.6965 64.4226 32.5977 64.5051C32.4988 64.5876 32.4336 64.7037 32.401 64.8553H33.5062Z" fill="#00824A"/>
<path d="M34.9108 65.8061C35.0029 65.8492 35.0844 65.8799 35.1545 65.8972C35.2245 65.9145 35.3032 65.9231 35.3905 65.9231C35.6044 65.9231 35.7694 65.8588 35.8855 65.7303C36.0016 65.6017 36.0601 65.4175 36.0601 65.1786C36.0601 65.0644 36.0448 64.9599 36.0131 64.8659C35.9824 64.7709 35.9383 64.6893 35.8817 64.6222C35.8251 64.5541 35.757 64.5013 35.6773 64.4639C35.5977 64.4255 35.5094 64.4073 35.4125 64.4073C35.3156 64.4073 35.2226 64.4274 35.1353 64.4677C35.048 64.508 34.9741 64.5646 34.9146 64.6375C34.8772 64.6864 34.8503 64.7402 34.834 64.7997C34.8177 64.8591 34.81 64.9378 34.81 65.0347V66.612C34.81 66.6791 34.8119 66.7357 34.8158 66.7798C34.8196 66.824 34.8273 66.8614 34.8398 66.8911C34.8513 66.9209 34.8676 66.9458 34.8868 66.966C34.9069 66.9861 34.9338 67.0053 34.9674 67.0245H34.2593C34.2948 67.0053 34.3217 66.9861 34.3418 66.966C34.362 66.9458 34.3783 66.9209 34.3908 66.8911C34.4032 66.8614 34.4109 66.8249 34.4148 66.7818C34.4186 66.7386 34.4205 66.682 34.4205 66.612V64.6001C34.4205 64.5329 34.4196 64.4783 34.4167 64.436C34.4138 64.3938 34.4071 64.3593 34.3965 64.3305C34.386 64.3017 34.3697 64.2768 34.3476 64.2557C34.3255 64.2346 34.2968 64.2087 34.2584 64.1789H34.5548C34.6172 64.1789 34.668 64.1732 34.7064 64.1607C34.7448 64.1482 34.7784 64.1281 34.8091 64.0983L34.8052 64.4303C34.8839 64.3363 34.9856 64.2614 35.1113 64.2058C35.237 64.1501 35.3694 64.1223 35.5104 64.1223C35.6399 64.1223 35.7685 64.1492 35.897 64.2029C36.0256 64.2566 36.134 64.3286 36.2232 64.4178C36.3096 64.507 36.3767 64.6135 36.4237 64.7373C36.4707 64.8611 36.4947 64.9935 36.4947 65.1335C36.4947 65.287 36.4688 65.43 36.418 65.5605C36.3671 65.6909 36.2952 65.8041 36.2031 65.9001C36.111 65.996 36.0026 66.0709 35.8769 66.1246C35.7512 66.1783 35.614 66.2052 35.4663 66.2052C35.4039 66.2052 35.3502 66.2013 35.3041 66.1927C35.2581 66.185 35.2043 66.1697 35.142 66.1486L34.9117 65.8041L34.9108 65.8061Z" fill="#00824A"/>
<path d="M37.2785 65.122C37.2891 65.3743 37.3697 65.571 37.5194 65.712C37.669 65.8531 37.8734 65.9241 38.1324 65.9241C38.2754 65.9241 38.402 65.9058 38.5133 65.8703C38.6236 65.8348 38.7359 65.7773 38.8491 65.6976L38.6188 66.1063C38.5248 66.1438 38.4317 66.1706 38.3416 66.185C38.2514 66.1994 38.1468 66.2071 38.0278 66.2071C37.8494 66.2071 37.6863 66.1812 37.5385 66.1303C37.3898 66.0795 37.2622 66.0075 37.1557 65.9154C37.0493 65.8233 36.9658 65.714 36.9073 65.5854C36.8478 65.4568 36.818 65.3158 36.818 65.1623C36.818 65.0088 36.8487 64.8697 36.9111 64.7296C36.9735 64.5896 37.0579 64.4696 37.1663 64.3698C37.3524 64.2058 37.5894 64.1233 37.8782 64.1233C38.0182 64.1233 38.1478 64.1463 38.2667 64.1924C38.3857 64.2384 38.4883 64.3027 38.5747 64.3871C38.661 64.4706 38.7282 64.5694 38.7771 64.6826C38.8261 64.7958 38.85 64.9205 38.85 65.0549V65.1239H37.2795L37.2785 65.122ZM38.4001 64.8553C38.3377 64.5397 38.1574 64.3814 37.858 64.3814C37.7122 64.3814 37.5904 64.4226 37.4915 64.5051C37.3927 64.5876 37.3275 64.7037 37.2949 64.8553H38.4001Z" fill="#00824A"/>
<path d="M39.1801 66.1495C39.2175 66.1198 39.2472 66.0939 39.2693 66.0728C39.2914 66.0517 39.3067 66.0258 39.3182 65.9979C39.3288 65.9701 39.3355 65.9356 39.3384 65.8943C39.3412 65.854 39.3422 65.7984 39.3422 65.7283V64.5991C39.3422 64.532 39.3412 64.4773 39.3384 64.4351C39.3355 64.3929 39.3288 64.3583 39.3182 64.3296C39.3077 64.3008 39.2914 64.2758 39.2693 64.2547C39.2472 64.2327 39.2184 64.2077 39.1801 64.178H39.4765C39.5389 64.178 39.5897 64.1722 39.6281 64.1597C39.6665 64.1473 39.7001 64.1271 39.7308 64.0974V64.4495C39.8468 64.2307 40.0167 64.1214 40.2412 64.1214C40.2786 64.1214 40.3285 64.1271 40.3908 64.1377V64.5301C40.3419 64.484 40.2747 64.461 40.1884 64.461C40.1126 64.461 40.0416 64.4763 39.9764 64.507C39.9102 64.5377 39.8584 64.5809 39.8209 64.6346C39.7615 64.7181 39.7317 64.8476 39.7317 65.0232V65.7274C39.7317 65.7974 39.7327 65.8531 39.7356 65.8934C39.7384 65.9337 39.7452 65.9682 39.7557 65.997C39.7663 66.0248 39.7826 66.0507 39.8046 66.0718C39.8267 66.0939 39.8555 66.1188 39.8939 66.1486H39.182L39.1801 66.1495Z" fill="#00824A"/>
<path d="M42.2645 64.6155C42.1244 64.4754 41.946 64.4053 41.7301 64.4053C41.6217 64.4053 41.5248 64.4226 41.4366 64.4562C41.3493 64.4898 41.2744 64.5377 41.2121 64.5982C41.1497 64.6596 41.1017 64.7335 41.0682 64.8217C41.0346 64.91 41.0173 65.0069 41.0173 65.1124C41.0173 65.2285 41.0394 65.3369 41.0845 65.4357C41.1286 65.5346 41.19 65.6199 41.2667 65.6919C41.3435 65.7638 41.4356 65.8205 41.5421 65.8607C41.6486 65.901 41.7656 65.9221 41.8923 65.9221C42.0084 65.9221 42.1177 65.9049 42.2204 65.8703C42.323 65.8358 42.4305 65.783 42.5437 65.7111L42.2923 66.1275C42.2252 66.1543 42.1456 66.1745 42.0535 66.186C41.9614 66.1985 41.8597 66.2042 41.7455 66.2042C41.5757 66.2042 41.4193 66.1793 41.2763 66.1294C41.1334 66.0795 41.0106 66.0095 40.9089 65.9212C40.8072 65.832 40.7276 65.7264 40.67 65.6036C40.6124 65.4808 40.5837 65.3465 40.5837 65.2007C40.5837 65.0549 40.6134 64.909 40.6719 64.7776C40.7304 64.6471 40.8158 64.5291 40.9281 64.4236C41.0432 64.318 41.1708 64.2413 41.3099 64.1933C41.449 64.1444 41.6112 64.1204 41.7973 64.1204C41.8808 64.1204 41.9575 64.1242 42.0256 64.131C42.0947 64.1377 42.1734 64.1521 42.2626 64.1732V64.6145L42.2645 64.6155Z" fill="#00824A"/>
<path d="M43.9598 65.0817C43.9224 65.098 43.8907 65.1115 43.8648 65.122C43.8389 65.1326 43.8091 65.1441 43.7736 65.1546C43.7381 65.1652 43.6931 65.1777 43.6384 65.1911C43.5827 65.2045 43.5079 65.2218 43.4139 65.2439C43.2086 65.2928 43.1059 65.4012 43.1059 65.572C43.1059 65.6823 43.1462 65.7686 43.2258 65.8291C43.3055 65.8895 43.4177 65.9202 43.5616 65.9202C43.6153 65.9202 43.6652 65.9164 43.7103 65.9078C43.7554 65.9001 43.813 65.8847 43.883 65.8636L43.6317 66.1831C43.5856 66.1937 43.5463 66.2004 43.5146 66.2032C43.482 66.2061 43.4427 66.2071 43.3976 66.2071C43.1817 66.2071 43.0128 66.1514 42.892 66.0411C42.8219 65.9788 42.7682 65.9058 42.7298 65.8224C42.6924 65.7389 42.6732 65.6535 42.6732 65.5672C42.6732 65.4808 42.6943 65.3945 42.7375 65.3158C42.7807 65.2371 42.8382 65.1777 42.9112 65.1374C42.9409 65.1211 42.9716 65.1067 43.0042 65.0932C43.0368 65.0798 43.0742 65.0664 43.1174 65.0529C43.1606 65.0395 43.2105 65.0261 43.2671 65.0146C43.3237 65.0021 43.3918 64.9877 43.4724 64.9723C43.5664 64.9532 43.6441 64.9349 43.7065 64.9177C43.7679 64.9004 43.8178 64.8802 43.8542 64.8572C43.8907 64.8342 43.9156 64.8083 43.931 64.7805C43.9463 64.7526 43.9531 64.7191 43.9531 64.6807C43.9531 64.5991 43.9156 64.5339 43.8398 64.484C43.7641 64.4341 43.6662 64.4092 43.5453 64.4092C43.4993 64.4092 43.4561 64.4121 43.4158 64.4178C43.3755 64.4236 43.3333 64.4322 43.2901 64.4447C43.2469 64.4572 43.199 64.4754 43.1462 64.4984C43.0934 64.5224 43.032 64.5502 42.962 64.5828L43.246 64.154C43.3083 64.1406 43.3592 64.1329 43.3976 64.13C43.4369 64.1271 43.4849 64.1262 43.5415 64.1262C43.9041 64.1262 44.144 64.2221 44.2629 64.414C44.2821 64.4437 44.2965 64.4715 44.3071 64.4974C44.3176 64.5234 44.3263 64.5541 44.3311 64.5905C44.3368 64.627 44.3406 64.6711 44.3435 64.7239C44.3464 64.7766 44.3474 64.8428 44.3474 64.9244V65.4751C44.3474 65.5374 44.3483 65.5873 44.3512 65.6267C44.3541 65.666 44.3589 65.6976 44.3656 65.7216C44.3723 65.7456 44.3829 65.7667 44.3982 65.784C44.4126 65.8013 44.4327 65.8185 44.4567 65.8348C44.4865 65.8588 44.521 65.8761 44.5603 65.8857C44.5997 65.8953 44.6496 65.901 44.7119 65.9039L44.5258 66.1831C44.4174 66.1754 44.3349 66.1639 44.2783 66.1505C44.2207 66.1371 44.1689 66.115 44.1229 66.0862C44.0902 66.067 44.0624 66.0459 44.0413 66.021C44.0193 65.997 44.0029 65.9682 43.9905 65.9337C43.978 65.9001 43.9703 65.8598 43.9655 65.8118C43.9617 65.7648 43.9598 65.7063 43.9598 65.6362V65.0817Z" fill="#00824A"/>
<path d="M46.4494 64.6356C46.4926 64.5281 46.5137 64.4418 46.5137 64.3766C46.5137 64.3363 46.5041 64.3008 46.4858 64.271C46.4667 64.2413 46.435 64.2115 46.389 64.1818H46.9876L46.0772 66.3548C46.0234 66.4815 45.9726 66.5803 45.9256 66.6503C45.8786 66.7204 45.82 66.7837 45.75 66.8393C45.5936 66.9621 45.4008 67.0235 45.1715 67.0235C45.0851 67.0235 45.0045 67.0159 44.9307 66.9995C44.8568 66.9832 44.7637 66.9554 44.6534 66.9161L45.0381 66.6398C45.0842 66.6695 45.1245 66.6897 45.16 66.7002C45.1955 66.7108 45.2358 66.7165 45.2818 66.7165C45.3893 66.7165 45.4833 66.6772 45.5629 66.5995C45.6425 66.5208 45.7164 66.397 45.7836 66.2272L45.8239 66.114C45.7912 66.0814 45.7653 66.0545 45.7452 66.0334C45.725 66.0123 45.7078 65.9912 45.6924 65.9711C45.678 65.9509 45.6636 65.9279 45.6521 65.902C45.6397 65.8761 45.6243 65.8425 45.6061 65.7984L45.0391 64.5636C45.0122 64.5042 44.9873 64.4533 44.9643 64.4121C44.9412 64.3698 44.9172 64.3353 44.8933 64.3065C44.8693 64.2777 44.8424 64.2547 44.8146 64.2355C44.7868 64.2163 44.7541 64.1991 44.7196 64.1828L45.1321 64.1665C45.1974 64.1665 45.2396 64.1703 45.2617 64.1789C45.2751 64.1818 45.2876 64.1914 45.3 64.2096C45.3125 64.2269 45.3288 64.2586 45.3509 64.3046L46.0023 65.7734L46.4513 64.6366L46.4494 64.6356Z" fill="#00824A"/>
<path d="M48.4363 65.0817C48.3989 65.098 48.3672 65.1115 48.3413 65.122C48.3154 65.1326 48.2857 65.1441 48.2502 65.1546C48.2147 65.1652 48.1696 65.1777 48.1149 65.1911C48.0593 65.2045 47.9844 65.2218 47.8904 65.2439C47.6851 65.2928 47.5824 65.4012 47.5824 65.572C47.5824 65.6823 47.6227 65.7686 47.7024 65.8291C47.782 65.8895 47.8942 65.9202 48.0382 65.9202C48.0919 65.9202 48.1418 65.9164 48.1869 65.9078C48.2319 65.9001 48.2895 65.8847 48.3595 65.8636L48.1082 66.1831C48.0621 66.1937 48.0228 66.2004 47.9911 66.2032C47.9585 66.2061 47.9192 66.2071 47.8741 66.2071C47.6582 66.2071 47.4894 66.1514 47.3685 66.0411C47.2985 65.9788 47.2447 65.9058 47.2064 65.8224C47.1689 65.7389 47.1497 65.6535 47.1497 65.5672C47.1497 65.4808 47.1709 65.3945 47.214 65.3158C47.2572 65.2371 47.3148 65.1777 47.3877 65.1374C47.4174 65.1211 47.4481 65.1067 47.4807 65.0932C47.5134 65.0798 47.5508 65.0664 47.594 65.0529C47.6371 65.0395 47.687 65.0261 47.7436 65.0146C47.8002 65.0021 47.8683 64.9877 47.9489 64.9723C48.0429 64.9532 48.1207 64.9349 48.183 64.9177C48.2444 64.9004 48.2943 64.8802 48.3308 64.8572C48.3672 64.8342 48.3922 64.8083 48.4075 64.7805C48.4229 64.7526 48.4296 64.7191 48.4296 64.6807C48.4296 64.5991 48.3922 64.5339 48.3164 64.484C48.2406 64.4341 48.1427 64.4092 48.0218 64.4092C47.9758 64.4092 47.9326 64.4121 47.8923 64.4178C47.852 64.4236 47.8098 64.4322 47.7666 64.4447C47.7235 64.4572 47.6755 64.4754 47.6227 64.4984C47.57 64.5224 47.5086 64.5502 47.4385 64.5828L47.7225 64.154C47.7849 64.1406 47.8357 64.1329 47.8741 64.13C47.9134 64.1271 47.9614 64.1262 48.018 64.1262C48.3806 64.1262 48.6205 64.2221 48.7395 64.414C48.7587 64.4437 48.773 64.4715 48.7836 64.4974C48.7941 64.5234 48.8028 64.5541 48.8076 64.5905C48.8133 64.627 48.8172 64.6711 48.8201 64.7239C48.8229 64.7766 48.8239 64.8428 48.8239 64.9244V65.4751C48.8239 65.5374 48.8249 65.5873 48.8277 65.6267C48.8306 65.666 48.8354 65.6976 48.8421 65.7216C48.8488 65.7456 48.8594 65.7667 48.8747 65.784C48.8891 65.8013 48.9093 65.8185 48.9333 65.8348C48.963 65.8588 48.9975 65.8761 49.0369 65.8857C49.0762 65.8953 49.1261 65.901 49.1885 65.9039L49.0023 66.1831C48.8939 66.1754 48.8114 66.1639 48.7548 66.1505C48.6973 66.1371 48.6454 66.115 48.5994 66.0862C48.5668 66.067 48.539 66.0459 48.5178 66.021C48.4958 65.997 48.4795 65.9682 48.467 65.9337C48.4545 65.9001 48.4469 65.8598 48.4421 65.8118C48.4373 65.7638 48.4363 65.7063 48.4363 65.6362V65.0817Z" fill="#00824A"/>
<path d="M50.6419 65.0817C50.6045 65.098 50.5729 65.1115 50.547 65.122C50.5211 65.1326 50.4913 65.1441 50.4558 65.1546C50.4203 65.1652 50.3752 65.1777 50.3205 65.1911C50.2649 65.2045 50.1901 65.2218 50.0961 65.2439C49.8907 65.2928 49.7881 65.4012 49.7881 65.572C49.7881 65.6823 49.8284 65.7686 49.908 65.8291C49.9876 65.8895 50.0999 65.9202 50.2438 65.9202C50.2975 65.9202 50.3474 65.9164 50.3925 65.9078C50.4376 65.9001 50.4952 65.8847 50.5652 65.8636L50.3138 66.1831C50.2678 66.1937 50.2284 66.2004 50.1968 66.2032C50.1642 66.2061 50.1248 66.2071 50.0797 66.2071C49.8639 66.2071 49.695 66.1514 49.5741 66.0411C49.5041 65.9788 49.4504 65.9058 49.412 65.8224C49.3746 65.7389 49.3554 65.6535 49.3554 65.5672C49.3554 65.4808 49.3765 65.3945 49.4197 65.3158C49.4628 65.2371 49.5204 65.1777 49.5933 65.1374C49.6231 65.1211 49.6538 65.1067 49.6864 65.0932C49.719 65.0798 49.7564 65.0664 49.7996 65.0529C49.8428 65.0395 49.8927 65.0261 49.9493 65.0146C50.0059 65.0021 50.074 64.9877 50.1555 64.9723C50.2496 64.9532 50.3273 64.9349 50.3896 64.9177C50.451 64.9004 50.5009 64.8802 50.5374 64.8572C50.5738 64.8342 50.5988 64.8083 50.6141 64.7805C50.6295 64.7526 50.6362 64.7191 50.6362 64.6807C50.6362 64.5991 50.5988 64.5339 50.523 64.484C50.4472 64.4341 50.3493 64.4092 50.2284 64.4092C50.1824 64.4092 50.1392 64.4121 50.0989 64.4178C50.0586 64.4236 50.0164 64.4322 49.9732 64.4447C49.9301 64.4572 49.8821 64.4754 49.8293 64.4984C49.7766 64.5224 49.7152 64.5502 49.6451 64.5828L49.9291 64.154C49.9915 64.1406 50.0423 64.1329 50.0807 64.13C50.12 64.1271 50.168 64.1262 50.2246 64.1262C50.5873 64.1262 50.8271 64.2221 50.9461 64.414C50.9653 64.4437 50.9797 64.4715 50.9902 64.4974C51.0008 64.5234 51.0094 64.5541 51.0142 64.5905C51.0199 64.627 51.0238 64.6711 51.0267 64.7239C51.0295 64.7766 51.0305 64.8428 51.0305 64.9244V65.4751C51.0305 65.5374 51.0315 65.5873 51.0343 65.6267C51.0372 65.666 51.042 65.6976 51.0487 65.7216C51.0554 65.7456 51.066 65.7667 51.0813 65.784C51.0957 65.8013 51.1159 65.8185 51.1399 65.8348C51.1696 65.8588 51.2042 65.8761 51.2435 65.8857C51.2828 65.8953 51.3327 65.901 51.3951 65.9039L51.2089 66.1831C51.1005 66.1754 51.018 66.1639 50.9614 66.1505C50.9039 66.1371 50.8521 66.115 50.806 66.0862C50.7734 66.067 50.7456 66.0459 50.7245 66.021C50.7024 65.997 50.6861 65.9682 50.6736 65.9337C50.6611 65.9001 50.6535 65.8598 50.6487 65.8118C50.6448 65.7648 50.6429 65.7063 50.6429 65.6362V65.0856L50.6419 65.0817Z" fill="#00824A"/>
<path d="M52.1194 64.4543C52.2221 64.3324 52.3209 64.247 52.4159 64.1972C52.5118 64.1473 52.6221 64.1223 52.7488 64.1223C52.886 64.1223 53.0136 64.1501 53.1325 64.2058C53.2505 64.2614 53.3407 64.3344 53.4031 64.4265C53.4223 64.4562 53.4376 64.4879 53.451 64.5214C53.4645 64.555 53.475 64.5943 53.4837 64.6385C53.4913 64.6826 53.4971 64.7354 53.5 64.7939C53.5029 64.8534 53.5038 64.9234 53.5038 65.004V65.7283C53.5038 65.7984 53.5048 65.854 53.5077 65.8943C53.5105 65.9346 53.5173 65.9692 53.5278 65.9979C53.5384 66.0258 53.5547 66.0517 53.5767 66.0728C53.5978 66.0948 53.6276 66.1198 53.666 66.1495H52.9541C52.9905 66.1198 53.0203 66.0939 53.0433 66.0728C53.0654 66.0517 53.0817 66.0258 53.0922 65.9979C53.1028 65.9701 53.1095 65.9346 53.1124 65.8924C53.1153 65.8502 53.1162 65.7965 53.1162 65.7283V65.0481C53.1162 64.9349 53.1095 64.8467 53.0961 64.7833C53.0826 64.72 53.0587 64.6653 53.0241 64.6193C52.9809 64.5656 52.9215 64.5214 52.8438 64.4879C52.766 64.4543 52.6845 64.437 52.5991 64.437C52.5137 64.437 52.4351 64.4543 52.3641 64.4879C52.2931 64.5214 52.2374 64.5665 52.1971 64.6231C52.176 64.6529 52.1607 64.6855 52.153 64.72C52.1453 64.7555 52.1405 64.8035 52.1405 64.8659V65.7283C52.1405 65.7984 52.1415 65.854 52.1444 65.8943C52.1472 65.9346 52.1539 65.9692 52.1645 65.9979C52.1751 66.0258 52.1904 66.0517 52.2115 66.0728C52.2326 66.0948 52.2614 66.1198 52.2988 66.1495H51.5908C51.6282 66.1198 51.6579 66.0939 51.68 66.0728C51.7021 66.0517 51.7174 66.0258 51.7289 65.9979C51.7395 65.9701 51.7462 65.9356 51.7491 65.8943C51.752 65.854 51.7529 65.7984 51.7529 65.7283V64.5991C51.7529 64.532 51.752 64.4773 51.7491 64.4351C51.7462 64.3929 51.7395 64.3583 51.7289 64.3296C51.7184 64.3008 51.7021 64.2758 51.68 64.2547C51.6579 64.2327 51.6292 64.2077 51.5908 64.178H51.8671C51.9295 64.178 51.9803 64.1722 52.0187 64.1597C52.057 64.1473 52.0906 64.1271 52.1213 64.0974V64.4533L52.1194 64.4543Z" fill="#00824A"/>
<path d="M56.7044 63.7616C56.7044 63.6944 56.7034 63.6397 56.7005 63.5975C56.6976 63.5553 56.6909 63.5208 56.6804 63.492C56.6698 63.4632 56.6545 63.4383 56.6334 63.4172C56.6123 63.3951 56.5835 63.3702 56.5461 63.3404H56.8415C56.9039 63.3404 56.9538 63.3347 56.9912 63.3222C57.0286 63.3097 57.0622 63.2896 57.0919 63.2598V65.7303C57.0919 65.8003 57.0929 65.855 57.0958 65.8962C57.0987 65.9365 57.1054 65.9711 57.1159 65.9989C57.1265 66.0277 57.1428 66.0526 57.1649 66.0737C57.186 66.0948 57.2157 66.1207 57.2541 66.1505H56.7034V65.1815C56.7034 65.1009 56.7024 65.0328 56.6996 64.9771C56.6967 64.9225 56.6909 64.8745 56.6813 64.8361C56.6717 64.7968 56.6593 64.7632 56.643 64.7335C56.6266 64.7037 56.6065 64.673 56.5825 64.6404C56.5259 64.5646 56.4549 64.507 56.3705 64.4667C56.2851 64.4265 56.1949 64.4063 56.0971 64.4063C56.005 64.4063 55.9215 64.4236 55.8438 64.4591C55.767 64.4946 55.7008 64.5416 55.6452 64.602C55.5895 64.6625 55.5464 64.7354 55.5157 64.8217C55.485 64.9081 55.4687 65.0002 55.4687 65.0999C55.4687 65.216 55.4878 65.3235 55.5253 65.4233C55.5627 65.523 55.6154 65.6084 55.6816 65.6813C55.7478 65.7543 55.8265 65.8109 55.9176 65.8512C56.0088 65.8914 56.1067 65.9116 56.2122 65.9116C56.2851 65.9116 56.3494 65.9039 56.4031 65.8876C56.4568 65.8713 56.5192 65.8406 56.5902 65.7945L56.3427 66.1793C56.2966 66.1927 56.2602 66.2013 56.2333 66.2032C56.2064 66.2061 56.1709 66.2071 56.1278 66.2071C55.8678 66.2071 55.6529 66.1505 55.4821 66.0373C55.3372 65.9404 55.2278 65.8176 55.1511 65.6689C55.0753 65.5202 55.0369 65.3542 55.0369 65.1709C55.0369 65.0222 55.0628 64.885 55.1137 64.7584C55.1645 64.6318 55.2355 64.5214 55.3257 64.4265C55.4159 64.3324 55.5214 64.2576 55.6423 64.2039C55.7632 64.1501 55.8937 64.1233 56.0337 64.1233C56.1652 64.1233 56.2832 64.1434 56.3868 64.1828C56.4904 64.2221 56.5959 64.2873 56.7034 64.3775V63.7626L56.7044 63.7616Z" fill="#00824A"/>
<path d="M58.8294 65.0817C58.792 65.098 58.7603 65.1115 58.7344 65.122C58.7085 65.1326 58.6788 65.1441 58.6433 65.1546C58.6078 65.1652 58.5627 65.1777 58.508 65.1911C58.4524 65.2045 58.3775 65.2218 58.2835 65.2439C58.0782 65.2928 57.9756 65.4012 57.9756 65.572C57.9756 65.6823 58.0158 65.7686 58.0955 65.8291C58.1751 65.8895 58.2874 65.9202 58.4313 65.9202C58.485 65.9202 58.5349 65.9164 58.58 65.9078C58.6251 65.9001 58.6826 65.8847 58.7527 65.8636L58.5013 66.1831C58.4552 66.1937 58.4159 66.2004 58.3843 66.2032C58.3516 66.2061 58.3123 66.2071 58.2672 66.2071C58.0513 66.2071 57.8825 66.1514 57.7616 66.0411C57.6916 65.9788 57.6378 65.9058 57.5995 65.8224C57.5621 65.7389 57.5429 65.6535 57.5429 65.5672C57.5429 65.4808 57.564 65.3945 57.6071 65.3158C57.6503 65.2371 57.7079 65.1777 57.7808 65.1374C57.8105 65.1211 57.8412 65.1067 57.8739 65.0932C57.9065 65.0798 57.9439 65.0664 57.9871 65.0529C58.0302 65.0395 58.0801 65.0261 58.1367 65.0146C58.1933 65.0021 58.2615 64.9877 58.343 64.9723C58.437 64.9532 58.5147 64.9349 58.5771 64.9177C58.6385 64.9004 58.6884 64.8802 58.7248 64.8572C58.7613 64.8342 58.7862 64.8083 58.8016 64.7805C58.8169 64.7526 58.8237 64.7191 58.8237 64.6807C58.8237 64.5991 58.7862 64.5339 58.7104 64.484C58.6347 64.4341 58.5368 64.4092 58.4159 64.4092C58.3699 64.4092 58.3267 64.4121 58.2864 64.4178C58.2461 64.4236 58.2039 64.4322 58.1607 64.4447C58.1175 64.4572 58.0696 64.4754 58.0168 64.4984C57.964 64.5224 57.9026 64.5502 57.8326 64.5828L58.1166 64.154C58.1789 64.1406 58.2298 64.1329 58.2682 64.13C58.3075 64.1271 58.3555 64.1262 58.4121 64.1262C58.7747 64.1262 59.0146 64.2221 59.1335 64.414C59.1527 64.4437 59.1671 64.4715 59.1777 64.4974C59.1882 64.5234 59.1969 64.5541 59.2017 64.5905C59.2074 64.627 59.2113 64.6711 59.2141 64.7239C59.217 64.7766 59.218 64.8428 59.218 64.9244V65.4751C59.218 65.5374 59.2189 65.5873 59.2218 65.6267C59.2247 65.666 59.2295 65.6976 59.2362 65.7216C59.2429 65.7456 59.2535 65.7667 59.2688 65.784C59.2832 65.8013 59.3034 65.8185 59.3273 65.8348C59.3571 65.8588 59.3916 65.8761 59.431 65.8857C59.4703 65.8953 59.5202 65.901 59.5825 65.9039L59.3964 66.1831C59.288 66.1754 59.2055 66.1639 59.1489 66.1505C59.0913 66.1371 59.0395 66.115 58.9935 66.0862C58.9608 66.067 58.933 66.0459 58.9119 66.021C58.8899 65.997 58.8735 65.9682 58.8611 65.9337C58.8486 65.9001 58.8409 65.8598 58.8361 65.8118C58.8313 65.7638 58.8304 65.7063 58.8304 65.6362V65.0856L58.8294 65.0817Z" fill="#00824A"/>
<path d="M60.3069 64.4543C60.4095 64.3324 60.5084 64.247 60.6033 64.1972C60.6993 64.1473 60.8096 64.1223 60.9362 64.1223C61.0734 64.1223 61.201 64.1501 61.32 64.2058C61.438 64.2614 61.5282 64.3344 61.5905 64.4265C61.6097 64.4562 61.6251 64.4879 61.6385 64.5214C61.6519 64.555 61.6625 64.5943 61.6711 64.6385C61.6788 64.6826 61.6846 64.7354 61.6874 64.7939C61.6903 64.8534 61.6913 64.9234 61.6913 65.004V65.7283C61.6913 65.7984 61.6922 65.854 61.6951 65.8943C61.698 65.9346 61.7047 65.9692 61.7153 65.9979C61.7258 66.0258 61.7421 66.0517 61.7642 66.0728C61.7853 66.0948 61.815 66.1198 61.8534 66.1495H61.1415C61.178 66.1198 61.2077 66.0939 61.2308 66.0728C61.2528 66.0517 61.2701 66.0258 61.2797 65.9979C61.2902 65.9701 61.297 65.9346 61.2998 65.8924C61.3027 65.8502 61.3037 65.7965 61.3037 65.7283V65.0481C61.3037 64.9349 61.297 64.8467 61.2835 64.7833C61.2701 64.72 61.2461 64.6653 61.2116 64.6193C61.1684 64.5656 61.1089 64.5214 61.0312 64.4879C60.9535 64.4543 60.872 64.437 60.7866 64.437C60.7012 64.437 60.6225 64.4543 60.5515 64.4879C60.4805 64.5214 60.4249 64.5665 60.3846 64.6231C60.3635 64.6529 60.3481 64.6855 60.3405 64.72C60.3328 64.7555 60.328 64.8035 60.328 64.8659V65.7283C60.328 65.7984 60.3289 65.854 60.3318 65.8943C60.3347 65.9346 60.3414 65.9692 60.352 65.9979C60.3625 66.0258 60.3779 66.0517 60.399 66.0728C60.4201 66.0948 60.4489 66.1198 60.4863 66.1495H59.7782C59.8157 66.1198 59.8454 66.0939 59.8675 66.0728C59.8895 66.0517 59.9049 66.0258 59.9164 65.9979C59.927 65.9701 59.9337 65.9356 59.9365 65.8943C59.9394 65.854 59.9404 65.7984 59.9404 65.7283V64.5991C59.9404 64.532 59.9394 64.4773 59.9365 64.4351C59.9337 64.3929 59.927 64.3583 59.9164 64.3296C59.9058 64.3008 59.8895 64.2758 59.8675 64.2547C59.8454 64.2327 59.8166 64.2077 59.7782 64.178H60.0546C60.1169 64.178 60.1678 64.1722 60.2061 64.1597C60.2445 64.1473 60.2781 64.1271 60.3088 64.0974V64.4533L60.3069 64.4543Z" fill="#00824A"/>
<path d="M63.896 65.6036C63.896 65.6957 63.8988 65.7706 63.9036 65.83C63.9094 65.8895 63.918 65.9394 63.9315 65.9797C63.9449 66.02 63.9641 66.0536 63.9881 66.0785C64.0121 66.1044 64.0447 66.1275 64.085 66.1495H63.2714C63.3117 66.1284 63.3443 66.1044 63.3683 66.0785C63.3923 66.0526 63.4115 66.02 63.4249 65.9797C63.4383 65.9394 63.4479 65.8895 63.4527 65.83C63.4585 65.7706 63.4614 65.6948 63.4614 65.6036V63.8834C63.4614 63.7923 63.4585 63.7165 63.4527 63.657C63.447 63.5975 63.4383 63.5476 63.4249 63.5074C63.4115 63.4671 63.3923 63.4335 63.3683 63.4085C63.3443 63.3836 63.3117 63.3596 63.2714 63.3375H64.085C64.0447 63.3596 64.0121 63.3826 63.9881 63.4085C63.9641 63.4344 63.9449 63.4671 63.9315 63.5074C63.918 63.5476 63.9084 63.5975 63.9036 63.657C63.8979 63.7165 63.896 63.7923 63.896 63.8834V65.6036ZM64.556 63.8997C64.6203 63.8163 64.6721 63.7395 64.7095 63.6714C64.7469 63.6023 64.7661 63.5515 64.7661 63.5198C64.7661 63.4527 64.723 63.3913 64.6366 63.3375H65.4051L64.4217 64.6001C64.5781 64.8102 64.7028 64.9781 64.7959 65.1038C64.8889 65.2295 64.9647 65.3302 65.0223 65.407C65.0799 65.4837 65.1278 65.5451 65.1662 65.5912C65.2036 65.6372 65.2449 65.6842 65.288 65.7331C65.3178 65.7658 65.3485 65.7974 65.3811 65.8281C65.4137 65.8588 65.4502 65.8905 65.4905 65.9231C65.5308 65.9557 65.5759 65.9903 65.6258 66.0286C65.6756 66.0661 65.7332 66.1073 65.7975 66.1505C65.7438 66.1562 65.6785 66.161 65.6027 66.1649C65.5269 66.1687 65.4559 66.1706 65.3878 66.1706C65.3044 66.1706 65.2334 66.163 65.1758 66.1486C65.1173 66.1342 65.0568 66.0977 64.9935 66.0411C64.9302 65.9845 64.8554 65.9001 64.769 65.7878C64.6827 65.6756 64.5695 65.523 64.4294 65.3283C64.3699 65.2419 64.3095 65.1566 64.249 65.0712C64.1886 64.9858 64.1272 64.9004 64.0648 64.814C64.0456 64.7929 64.0284 64.7709 64.0121 64.7498C63.9958 64.7277 63.9794 64.7066 63.9631 64.6845L64.5541 63.8997H64.556Z" fill="#00824A"/>
<path d="M66.3443 65.122C66.3549 65.3743 66.4355 65.571 66.5851 65.712C66.7348 65.8531 66.9392 65.9241 67.1982 65.9241C67.3412 65.9241 67.4678 65.9058 67.5791 65.8703C67.6894 65.8348 67.8017 65.7773 67.9149 65.6976L67.6846 66.1063C67.5896 66.1438 67.4975 66.1706 67.4073 66.185C67.3172 66.1994 67.2126 66.2071 67.0936 66.2071C66.9152 66.2071 66.7521 66.1812 66.6043 66.1303C66.4556 66.0795 66.328 66.0075 66.2215 65.9154C66.115 65.8233 66.0316 65.714 65.9731 65.5854C65.9136 65.4568 65.8838 65.3158 65.8838 65.1623C65.8838 65.0088 65.9145 64.8697 65.9769 64.7296C66.0393 64.5896 66.1237 64.4696 66.2321 64.3698C66.4182 64.2058 66.6561 64.1233 66.944 64.1233C67.084 64.1233 67.2136 64.1463 67.3325 64.1924C67.4515 64.2384 67.5541 64.3027 67.6405 64.3871C67.7268 64.4706 67.794 64.5694 67.8429 64.6826C67.8918 64.7958 67.9158 64.9205 67.9158 65.0549V65.1239H66.3453L66.3443 65.122ZM67.4659 64.8553C67.4035 64.5397 67.2231 64.3814 66.9238 64.3814C66.778 64.3814 66.6561 64.4226 66.5573 64.5051C66.4585 64.5876 66.3933 64.7037 66.3607 64.8553H67.4659Z" fill="#00824A"/>
<path d="M68.7774 64.4581C68.8666 64.3372 68.9577 64.2499 69.0527 64.1991C69.1467 64.1482 69.2628 64.1223 69.401 64.1223C69.5487 64.1223 69.6744 64.1521 69.7771 64.2115C69.8797 64.271 69.9709 64.367 70.0524 64.4994C70.1551 64.3622 70.2567 64.2643 70.3584 64.2077C70.4592 64.1511 70.582 64.1223 70.7249 64.1223C70.8679 64.1223 71.0032 64.1501 71.1221 64.2077C71.2411 64.2643 71.3303 64.3401 71.3898 64.4341C71.4272 64.4984 71.4541 64.5694 71.4685 64.6442C71.4829 64.72 71.4905 64.8265 71.4905 64.9637V65.7283C71.4905 65.7984 71.4934 65.8569 71.4982 65.9049C71.504 65.9519 71.5126 65.9912 71.527 66.0219C71.5404 66.0526 71.5596 66.0776 71.5836 66.0968C71.6076 66.1159 71.6402 66.1332 71.6805 66.1495H70.9389C70.9763 66.1227 71.006 66.0987 71.0281 66.0766C71.0502 66.0555 71.0674 66.0306 71.078 66.0018C71.0885 65.974 71.0953 65.9385 71.0981 65.8962C71.101 65.854 71.102 65.7984 71.102 65.7283V65.0683C71.102 64.9493 71.0933 64.8553 71.0761 64.7853C71.0588 64.7152 71.031 64.6548 70.9936 64.603C70.9504 64.5521 70.8967 64.5109 70.8305 64.4811C70.7643 64.4514 70.6923 64.437 70.6146 64.437C70.5206 64.437 70.4352 64.4591 70.3584 64.5022C70.2817 64.5454 70.2251 64.603 70.1867 64.6759C70.1762 64.6951 70.1675 64.7133 70.1627 64.7306C70.157 64.7479 70.1531 64.768 70.1503 64.7891C70.1474 64.8102 70.1455 64.838 70.1445 64.8716C70.1435 64.9052 70.1426 64.9474 70.1426 64.9992V65.7274C70.1426 65.7974 70.1435 65.8531 70.1464 65.8934C70.1493 65.9337 70.156 65.9682 70.1666 65.997C70.1771 66.0248 70.1944 66.0507 70.2165 66.0718C70.2395 66.0939 70.2692 66.1188 70.3066 66.1486H69.5938C69.6312 66.1217 69.661 66.0977 69.6821 66.0757C69.7032 66.0545 69.7195 66.0296 69.73 66.0008C69.7406 65.973 69.7473 65.9375 69.7502 65.8953C69.7531 65.8531 69.754 65.7974 69.754 65.7274V65.0309C69.754 64.8284 69.7108 64.6826 69.6255 64.5934C69.5823 64.5473 69.5295 64.5128 69.4662 64.4879C69.4029 64.4639 69.3376 64.4514 69.2705 64.4514C69.187 64.4514 69.1093 64.4687 69.0364 64.5022C68.9635 64.5358 68.9088 64.5828 68.8714 64.6423C68.8416 64.6855 68.8225 64.7296 68.8129 64.7738C68.8033 64.8179 68.7985 64.8841 68.7985 64.9704V65.7274C68.7985 65.7974 68.7994 65.854 68.8023 65.8953C68.8052 65.9375 68.8119 65.972 68.8225 66.0008C68.833 66.0296 68.8493 66.0545 68.8704 66.0757C68.8915 66.0977 68.9203 66.1217 68.9577 66.1486H68.2487C68.2862 66.1188 68.3159 66.0929 68.338 66.0718C68.3591 66.0507 68.3754 66.0248 68.3869 65.997C68.3974 65.9692 68.4042 65.9346 68.407 65.8934C68.4099 65.8531 68.4109 65.7974 68.4109 65.7274V64.5982C68.4109 64.531 68.4099 64.4763 68.407 64.4341C68.4042 64.3919 68.3974 64.3574 68.3869 64.3286C68.3763 64.2998 68.36 64.2749 68.338 64.2538C68.3159 64.2317 68.2862 64.2068 68.2487 64.177H68.5452C68.6546 64.177 68.7323 64.1501 68.7783 64.0964V64.4562L68.7774 64.4581Z" fill="#00824A"/>
<path d="M72.5449 65.7283C72.5449 65.7984 72.5459 65.854 72.5487 65.8943C72.5516 65.9346 72.5583 65.9692 72.5689 65.9979C72.5794 66.0258 72.5958 66.0517 72.6178 66.0728C72.6389 66.0948 72.6687 66.1198 72.707 66.1495H71.9952C72.0326 66.1198 72.0623 66.0939 72.0844 66.0728C72.1055 66.0517 72.1218 66.0258 72.1333 65.9979C72.1439 65.9701 72.1506 65.9356 72.1535 65.8943C72.1563 65.854 72.1573 65.7984 72.1573 65.7283V64.5991C72.1573 64.532 72.1563 64.4773 72.1535 64.4351C72.1506 64.3929 72.1439 64.3583 72.1333 64.3296C72.1228 64.3008 72.1065 64.2758 72.0844 64.2547C72.0623 64.2327 72.0326 64.2077 71.9952 64.178H72.2916C72.354 64.178 72.4048 64.1722 72.4432 64.1597C72.4816 64.1473 72.5152 64.1271 72.5459 64.0974L72.5449 65.7283ZM72.3463 63.3893C72.4163 63.3893 72.4768 63.4153 72.5286 63.468C72.5794 63.5208 72.6053 63.5822 72.6053 63.6522C72.6053 63.728 72.5794 63.7913 72.5286 63.8422C72.4777 63.894 72.4135 63.9189 72.3386 63.9189C72.2638 63.9189 72.2034 63.893 72.1525 63.8422C72.1017 63.7913 72.0758 63.728 72.0758 63.6522C72.0758 63.5764 72.1017 63.5169 72.1525 63.4661C72.2034 63.4153 72.2686 63.3893 72.3463 63.3893Z" fill="#00824A"/>
<path d="M73.6501 65.3686C73.6501 65.4875 73.6559 65.5739 73.6664 65.6295C73.677 65.6852 73.6971 65.7312 73.7269 65.7696C73.8075 65.8665 73.9168 65.9154 74.055 65.9154C74.0876 65.9154 74.1154 65.9126 74.1404 65.9078C74.1644 65.902 74.196 65.8934 74.2334 65.8799L74.0109 66.1831C73.9811 66.1937 73.9562 66.2004 73.936 66.2032C73.9159 66.2061 73.889 66.2071 73.8574 66.2071C73.7681 66.2071 73.6885 66.1917 73.6175 66.1601C73.5465 66.1294 73.4803 66.0824 73.418 66.021C73.3853 65.9855 73.3585 65.9519 73.3383 65.9202C73.3182 65.8876 73.3019 65.8492 73.2913 65.8051C73.2808 65.761 73.2731 65.7063 73.2692 65.643C73.2654 65.5796 73.2635 65.501 73.2635 65.406V64.4629H72.9718V64.3094C73.1205 64.2854 73.2376 64.2231 73.3249 64.1233C73.4314 64.0101 73.4841 63.8345 73.4841 63.5975V63.5448H73.652V64.1799H73.984C74.054 64.1799 74.1068 64.1789 74.1413 64.1761C74.1768 64.1732 74.2075 64.1665 74.2344 64.1559V64.5406C74.1989 64.5109 74.1644 64.4907 74.1289 64.4802C74.0934 64.4696 74.0396 64.4639 73.9667 64.4639H73.6511V65.3705L73.6501 65.3686Z" fill="#00824A"/>
<path d="M74.4349 66.1495C74.4723 66.1198 74.5021 66.0939 74.5241 66.0728C74.5452 66.0517 74.5615 66.0258 74.5731 65.9979C74.5836 65.9701 74.5903 65.9356 74.5932 65.8943C74.5961 65.854 74.597 65.7984 74.597 65.7283V64.5991C74.597 64.532 74.5961 64.4773 74.5932 64.4351C74.5903 64.3929 74.5836 64.3583 74.5731 64.3296C74.5625 64.3008 74.5462 64.2758 74.5241 64.2547C74.5021 64.2327 74.4723 64.2077 74.4349 64.178H74.7314C74.7937 64.178 74.8446 64.1722 74.8829 64.1597C74.9213 64.1473 74.9549 64.1271 74.9856 64.0974V64.4495C75.1017 64.2307 75.2715 64.1214 75.496 64.1214C75.5334 64.1214 75.5833 64.1271 75.6457 64.1377V64.5301C75.5967 64.484 75.5296 64.461 75.4432 64.461C75.3674 64.461 75.2964 64.4763 75.2312 64.507C75.165 64.5377 75.1132 64.5809 75.0758 64.6346C75.0163 64.7181 74.9866 64.8476 74.9866 65.0232V65.7274C74.9866 65.7974 74.9875 65.8531 74.9904 65.8934C74.9933 65.9337 75 65.9682 75.0105 65.997C75.0211 66.0248 75.0374 66.0507 75.0595 66.0718C75.0806 66.0939 75.1103 66.1188 75.1487 66.1486H74.4368L74.4349 66.1495Z" fill="#00824A"/>
<path d="M77.1059 65.0817C77.0685 65.098 77.0368 65.1115 77.0109 65.122C76.985 65.1326 76.9552 65.1441 76.9197 65.1546C76.8842 65.1652 76.8391 65.1777 76.7845 65.1911C76.7288 65.2045 76.654 65.2218 76.56 65.2439C76.3547 65.2928 76.252 65.4012 76.252 65.572C76.252 65.6823 76.2923 65.7686 76.3719 65.8291C76.4516 65.8895 76.5638 65.9202 76.7077 65.9202C76.7614 65.9202 76.8113 65.9164 76.8564 65.9078C76.9015 65.9001 76.9591 65.8847 77.0291 65.8636L76.7777 66.1831C76.7317 66.1937 76.6924 66.2004 76.6607 66.2032C76.6281 66.2061 76.5887 66.2071 76.5437 66.2071C76.3278 66.2071 76.1589 66.1514 76.0381 66.0411C75.968 65.9788 75.9143 65.9058 75.8759 65.8224C75.8385 65.7389 75.8193 65.6535 75.8193 65.5672C75.8193 65.4808 75.8404 65.3945 75.8836 65.3158C75.9268 65.2371 75.9843 65.1777 76.0572 65.1374C76.087 65.1211 76.1177 65.1067 76.1503 65.0932C76.1829 65.0798 76.2203 65.0664 76.2635 65.0529C76.3067 65.0395 76.3566 65.0261 76.4132 65.0146C76.4698 65.0021 76.5379 64.9877 76.6185 64.9723C76.7125 64.9532 76.7902 64.9349 76.8526 64.9177C76.914 64.9004 76.9639 64.8802 77.0003 64.8572C77.0368 64.8342 77.0617 64.8083 77.0771 64.7805C77.0924 64.7526 77.0991 64.7191 77.0991 64.6807C77.0991 64.5991 77.0617 64.5339 76.9859 64.484C76.9101 64.4341 76.8123 64.4092 76.6904 64.4092C76.6444 64.4092 76.6012 64.4121 76.5609 64.4178C76.5206 64.4236 76.4784 64.4322 76.4352 64.4447C76.3921 64.4572 76.3441 64.4754 76.2913 64.4984C76.2386 64.5224 76.1772 64.5502 76.1071 64.5828L76.3911 64.154C76.4535 64.1406 76.5043 64.1329 76.5437 64.13C76.583 64.1271 76.631 64.1262 76.6876 64.1262C77.0502 64.1262 77.2901 64.2221 77.409 64.414C77.4282 64.4437 77.4426 64.4715 77.4532 64.4974C77.4637 64.5234 77.4724 64.5541 77.4771 64.5905C77.4819 64.627 77.4867 64.6711 77.4896 64.7239C77.4925 64.7766 77.4935 64.8428 77.4935 64.9244V65.4751C77.4935 65.5374 77.4944 65.5873 77.4973 65.6267C77.5002 65.666 77.505 65.6976 77.5117 65.7216C77.5184 65.7456 77.529 65.7667 77.5443 65.784C77.5587 65.8013 77.5788 65.8185 77.6028 65.8348C77.6326 65.8588 77.6671 65.8761 77.7064 65.8857C77.7458 65.8953 77.7957 65.901 77.858 65.9039L77.6719 66.1831C77.5644 66.1754 77.481 66.1639 77.4244 66.1505C77.3668 66.1371 77.315 66.115 77.269 66.0862C77.2363 66.067 77.2085 66.0459 77.1874 66.021C77.1653 65.997 77.149 65.9682 77.1366 65.9337C77.1241 65.9001 77.1164 65.8598 77.1116 65.8118C77.1078 65.7648 77.1059 65.7063 77.1059 65.6362V65.0817Z" fill="#00824A"/>
<path d="M79.3115 65.0817C79.2741 65.098 79.2424 65.1115 79.2165 65.122C79.1906 65.1326 79.1609 65.1441 79.1254 65.1546C79.0899 65.1652 79.0448 65.1777 78.9901 65.1911C78.9345 65.2045 78.8596 65.2218 78.7656 65.2439C78.5603 65.2928 78.4576 65.4012 78.4576 65.572C78.4576 65.6823 78.4979 65.7686 78.5776 65.8291C78.6572 65.8895 78.7694 65.9202 78.9134 65.9202C78.9671 65.9202 79.017 65.9164 79.0621 65.9078C79.1072 65.9001 79.1647 65.8847 79.2348 65.8636L78.9834 66.1831C78.9373 66.1937 78.898 66.2004 78.8663 66.2032C78.8337 66.2061 78.7944 66.2071 78.7493 66.2071C78.5334 66.2071 78.3646 66.1514 78.2437 66.0411C78.1737 65.9788 78.1199 65.9058 78.0816 65.8224C78.0441 65.7389 78.025 65.6535 78.025 65.5672C78.025 65.4808 78.0461 65.3945 78.0892 65.3158C78.1324 65.2371 78.19 65.1777 78.2629 65.1374C78.2926 65.1211 78.3233 65.1067 78.3559 65.0932C78.3886 65.0798 78.426 65.0664 78.4692 65.0529C78.5123 65.0395 78.5622 65.0261 78.6188 65.0146C78.6754 65.0021 78.7435 64.9877 78.8241 64.9723C78.9182 64.9532 78.9959 64.9349 79.0582 64.9177C79.1196 64.9004 79.1695 64.8802 79.206 64.8572C79.2424 64.8342 79.2674 64.8083 79.2827 64.7805C79.2981 64.7526 79.3048 64.7191 79.3048 64.6807C79.3048 64.5991 79.2674 64.5339 79.1916 64.484C79.1158 64.4341 79.0179 64.4092 78.8961 64.4092C78.85 64.4092 78.8069 64.4121 78.7666 64.4178C78.7263 64.4236 78.6841 64.4322 78.6409 64.4447C78.5977 64.4572 78.5497 64.4754 78.497 64.4984C78.4442 64.5224 78.3828 64.5502 78.3128 64.5828L78.5968 64.154C78.6591 64.1406 78.71 64.1329 78.7483 64.13C78.7877 64.1271 78.8357 64.1262 78.8923 64.1262C79.2549 64.1262 79.4947 64.2221 79.6137 64.414C79.6329 64.4437 79.6473 64.4715 79.6578 64.4974C79.6684 64.5234 79.677 64.5541 79.6818 64.5905C79.6866 64.627 79.6914 64.6711 79.6943 64.7239C79.6972 64.7766 79.6981 64.8428 79.6981 64.9244V65.4751C79.6981 65.5374 79.6991 65.5873 79.702 65.6267C79.7049 65.666 79.7097 65.6976 79.7164 65.7216C79.7231 65.7456 79.7336 65.7667 79.749 65.784C79.7634 65.8013 79.7835 65.8185 79.8075 65.8348C79.8372 65.8588 79.8718 65.8761 79.9111 65.8857C79.9505 65.8953 80.0004 65.901 80.0627 65.9039L79.8766 66.1831C79.7691 66.1754 79.6857 66.1639 79.6291 66.1505C79.5715 66.1371 79.5197 66.115 79.4736 66.0862C79.441 66.067 79.4132 66.0459 79.3921 66.021C79.37 65.997 79.3537 65.9682 79.3412 65.9337C79.3288 65.9001 79.3211 65.8598 79.3163 65.8118C79.3125 65.7648 79.3105 65.7063 79.3105 65.6362V65.0856L79.3115 65.0817Z" fill="#00824A"/>
<path d="M80.789 64.4543C80.8916 64.3324 80.9904 64.247 81.0854 64.1972C81.1814 64.1473 81.2917 64.1223 81.4183 64.1223C81.5555 64.1223 81.6831 64.1501 81.8021 64.2058C81.9201 64.2614 82.0103 64.3344 82.0726 64.4265C82.0918 64.4562 82.1072 64.4879 82.1206 64.5214C82.134 64.555 82.1446 64.5943 82.1532 64.6385C82.1609 64.6826 82.1667 64.7354 82.1695 64.7939C82.1724 64.8534 82.1734 64.9234 82.1734 65.004V65.7283C82.1734 65.7984 82.1743 65.854 82.1772 65.8943C82.1801 65.9346 82.1868 65.9692 82.1974 65.9979C82.2079 66.0258 82.2242 66.0517 82.2463 66.0728C82.2674 66.0948 82.2971 66.1198 82.3355 66.1495H81.6236C81.6601 66.1198 81.6898 66.0939 81.7129 66.0728C81.7349 66.0517 81.7522 66.0258 81.7618 65.9979C81.7723 65.9701 81.7791 65.9346 81.781 65.8924C81.7839 65.8502 81.7848 65.7965 81.7848 65.7283V65.0481C81.7848 64.9349 81.7781 64.8467 81.7647 64.7833C81.7513 64.72 81.7273 64.6653 81.6927 64.6193C81.6496 64.5656 81.5901 64.5214 81.5124 64.4879C81.4346 64.4543 81.3531 64.437 81.2677 64.437C81.1823 64.437 81.1037 64.4543 81.0327 64.4879C80.9617 64.5214 80.906 64.5665 80.8657 64.6231C80.8446 64.6529 80.8293 64.6855 80.8216 64.72C80.8139 64.7555 80.8101 64.8035 80.8101 64.8659V65.7283C80.8101 65.7984 80.811 65.854 80.8139 65.8943C80.8168 65.9346 80.8235 65.9692 80.8341 65.9979C80.8446 66.0258 80.86 66.0517 80.8811 66.0728C80.9022 66.0948 80.931 66.1198 80.9684 66.1495H80.2603C80.2978 66.1198 80.3275 66.0939 80.3496 66.0728C80.3707 66.0517 80.387 66.0258 80.3985 65.9979C80.4091 65.9701 80.4158 65.9356 80.4186 65.8943C80.4215 65.854 80.4225 65.7984 80.4225 65.7283V64.5991C80.4225 64.532 80.4215 64.4773 80.4186 64.4351C80.4158 64.3929 80.4091 64.3583 80.3985 64.3296C80.388 64.3008 80.3716 64.2758 80.3496 64.2547C80.3275 64.2327 80.2978 64.2077 80.2603 64.178H80.5367C80.599 64.178 80.6499 64.1722 80.6882 64.1597C80.7266 64.1473 80.7602 64.1271 80.7909 64.0974V64.4533L80.789 64.4543Z" fill="#00824A"/>
</g>
<rect x="1.5" y="1" width="110" height="110" rx="9" stroke="#CCCCCC" stroke-width="2"/>
<defs>
<clipPath id="clip0_528_596">
<rect x="2.5" y="2" width="108" height="108" rx="8" fill="white"/>
</clipPath>
</defs>
</svg>
