<svg width="113" height="112" viewBox="0 0 113 112" fill="none" xmlns="http://www.w3.org/2000/svg">
<g clip-path="url(#clip0_421_537)">
<rect x="2.5" y="2" width="108" height="108" rx="8" fill="white"/>
<g clip-path="url(#clip1_421_537)">
<path d="M56.5001 28.8433C41.5034 28.8433 29.3434 41.0033 29.3434 55.9999C29.3434 70.9966 41.5034 83.1566 56.5001 83.1566C71.4967 83.1566 83.6567 70.9966 83.6567 55.9999C83.6567 41.0033 71.4967 28.8433 56.5001 28.8433Z" fill="white"/>
<path d="M37.6666 75.4199C38.2633 74.9699 38.7933 74.4399 39.3633 73.9566C39.4666 73.8733 39.5633 73.7833 39.6833 73.6799C39.74 73.8566 39.7866 73.9999 39.83 74.1466C40.1133 75.0766 40.71 75.7233 41.6266 76.0766C42.0033 76.2233 42.38 76.3699 42.7666 76.4966C44.3966 77.0233 45.62 78.0366 46.45 79.5199C46.53 79.6633 46.5933 79.7266 46.78 79.6733C48.49 79.1966 50.14 79.3999 51.7366 80.1466C52.2533 80.3866 52.77 80.6266 53.3166 80.8066C54.1366 81.0833 54.8966 80.9666 55.6 80.4699C55.7433 80.3699 55.8833 80.2633 56.08 80.1199C56.0933 81.1133 56.11 82.0633 56.1233 83.0099C56.12 83.1666 56.0866 83.2566 55.8866 83.2433C54.91 83.1899 53.9366 83.1499 52.9633 83.0299C50.8866 82.7766 48.8766 82.2799 46.9266 81.5333C43.89 80.3766 41.17 78.6966 38.7066 76.6033C38.3666 76.3166 38.0366 76.0133 37.6966 75.7266C37.5766 75.6266 37.5566 75.5333 37.6666 75.4199Z" fill="black"/>
<path d="M36.9533 37.2266C37.57 37.8966 38.1867 38.5666 38.83 39.2666C38.6733 39.32 38.5433 39.3666 38.4133 39.4033C37.42 39.69 36.7533 40.32 36.3933 41.2733C36.2433 41.6666 36.0967 42.0633 35.9633 42.4633C35.4467 44.0166 34.4567 45.18 33.0333 45.9866C32.8367 46.0966 32.7867 46.1933 32.85 46.4166C33.32 48.0666 33.1267 49.6633 32.4167 51.2133C32.2133 51.6533 32.02 52.0966 31.8367 52.5433C31.4267 53.54 31.55 54.4633 32.2533 55.2933C32.3133 55.3633 32.37 55.4366 32.4667 55.56C31.41 55.58 30.3967 55.6 29.3867 55.6166C29.2667 55.55 29.31 55.4366 29.31 55.34C29.36 51.0333 30.39 46.98 32.4933 43.2C33.0233 42.25 33.6133 41.34 34.2333 40.45C34.65 39.85 35.0867 39.27 35.55 38.7066C35.9233 38.26 36.3067 37.82 36.7067 37.3966C36.7767 37.3233 36.83 37.2233 36.9533 37.2266Z" fill="black"/>
<path d="M29.3933 56.55C30.3167 56.6034 31.24 56.6567 32.1967 56.71C32.1167 56.8634 32.05 57 31.98 57.1334C31.52 57.9867 31.4767 58.8634 31.87 59.7534C32.0467 60.1467 32.2267 60.5434 32.4233 60.93C33.18 62.4167 33.31 63.9634 32.86 65.5567C32.8067 65.7367 32.8233 65.83 33 65.9267C34.5233 66.7634 35.5367 68.0301 36.14 69.6367C36.28 70.0134 36.44 70.3834 36.5767 70.76C37.0267 71.99 37.8867 72.6634 39.2867 72.6834C38.5633 73.4334 37.88 74.1434 37.1933 74.85C37.0267 74.9867 36.9533 74.83 36.87 74.7434C35.48 73.32 34.2533 71.7734 33.2167 70.0801C31.42 67.1401 30.2967 63.9634 29.7333 60.5767C29.5233 59.3134 29.42 58.0434 29.3233 56.77C29.3167 56.6867 29.3033 56.6 29.3933 56.55Z" fill="black"/>
<path d="M83.7767 55.5766C82.8433 55.5266 81.91 55.4733 80.9433 55.4199C81.0367 55.2466 81.1167 55.1033 81.19 54.9599C81.6267 54.1199 81.67 53.2633 81.2867 52.3933C81.1033 51.9766 80.9133 51.5666 80.71 51.1599C79.9767 49.6833 79.8533 48.1566 80.3033 46.5799C80.35 46.4133 80.3567 46.3066 80.1733 46.2066C78.6267 45.3566 77.61 44.0633 77.01 42.4333C76.8567 42.0166 76.6833 41.6066 76.52 41.1966C76.12 40.1699 75.3833 39.5666 74.2633 39.4533C74.16 39.4433 74.06 39.4266 73.9567 39.4133C73.9433 39.3066 74.0333 39.2699 74.0867 39.2166C74.7 38.5966 75.3233 37.9833 75.93 37.3566C76.07 37.2166 76.14 37.2066 76.2833 37.3566C77.46 38.5633 78.5167 39.8666 79.4533 41.2633C79.5067 41.3399 79.52 41.4566 79.6433 41.4766L79.6367 41.4699C79.6833 41.6899 79.8367 41.8533 79.9567 42.0333L79.9533 42.0266C80.0167 42.1333 80.08 42.2399 80.1467 42.3433L80.14 42.3366C80.15 42.3733 80.15 42.4166 80.21 42.4066L80.2033 42.3966C80.1933 42.4566 80.2033 42.5099 80.2667 42.5366C80.7 43.2166 81.0333 43.9499 81.3733 44.6699C81.8467 45.6799 82.2133 46.7333 82.5467 47.7966C82.5767 47.8899 82.6867 47.9566 82.6433 48.0733C82.5767 48.1766 82.67 48.2299 82.7167 48.2966L82.71 48.2899C82.7367 48.4166 82.7467 48.5499 82.7933 48.6733C82.93 49.0499 82.9333 49.4633 83.1333 49.8199C83.13 50.2133 83.2233 50.6033 83.3267 50.9733C83.41 51.2633 83.3933 51.5466 83.4367 51.8299C83.6133 53.0733 83.7833 54.3166 83.7767 55.5766Z" fill="black"/>
<path d="M75.9933 74.6735C75.42 74.0335 74.85 73.3968 74.2533 72.7334C74.3733 72.6934 74.4666 72.6601 74.56 72.6334C75.5966 72.3468 76.3133 71.7168 76.6766 70.7068C76.8166 70.3068 76.97 69.9134 77.1033 69.5134C77.6133 67.9834 78.5866 66.8268 79.9866 66.0301C80.2266 65.8934 80.2566 65.7701 80.1866 65.5201C79.72 63.8701 79.9333 62.2768 80.6433 60.7301C80.8733 60.2335 81.0866 59.7301 81.2766 59.2168C81.5866 58.3668 81.4433 57.5735 80.8933 56.8501C80.8 56.7301 80.7033 56.6068 80.5666 56.4335C81.6166 56.4101 82.62 56.3901 83.62 56.3701C83.7233 56.4335 83.6933 56.5335 83.6966 56.6235C83.72 58.1435 83.57 59.6501 83.2966 61.1434C82.83 63.7068 81.9733 66.1435 80.7533 68.4501C79.6533 70.5268 78.3066 72.4301 76.75 74.1968C76.6133 74.3501 76.4666 74.4968 76.3433 74.6635C76.22 74.8301 76.1133 74.7935 75.9933 74.6735Z" fill="black"/>
<path d="M56.99 31.96C56.99 30.9434 56.9934 29.9834 56.9867 29.0267C56.9867 28.8334 57.0934 28.8434 57.23 28.8467C60.5134 28.9267 63.68 29.5534 66.7167 30.8067C69.9567 32.15 72.8034 34.08 75.3667 36.44C75.45 36.5167 75.5567 36.5667 75.4067 36.6967C74.7434 37.2634 74.0867 37.84 73.43 38.41C73.4167 38.4234 73.39 38.4167 73.33 38.4267C73.0934 36.9 72.03 36.18 70.6467 35.7534C69.69 35.46 68.7834 35.0467 68.0267 34.36C67.4567 33.8467 67 33.25 66.6267 32.5867C66.55 32.45 66.48 32.39 66.3134 32.4367C64.5767 32.92 62.9134 32.6934 61.3 31.93C60.7567 31.67 60.2134 31.4134 59.6334 31.24C58.8934 31.02 58.21 31.1367 57.5734 31.55C57.3934 31.6667 57.22 31.8 56.99 31.96Z" fill="black"/>
<path d="M39.6133 38.8C38.8933 38.1167 38.1767 37.44 37.46 36.7667C37.3067 36.6234 37.47 36.57 37.5333 36.5067C38.2467 35.79 39 35.12 39.79 34.4934C43.3733 31.6534 47.4567 29.92 51.97 29.1567C53.1533 28.9534 54.3433 28.82 55.54 28.74C55.7467 28.7267 55.8033 28.7767 55.7933 28.9834C55.7533 29.77 55.73 30.5534 55.7067 31.34C55.7033 31.5334 55.6633 31.5767 55.4833 31.47C54.43 30.8534 53.3733 30.8767 52.2967 31.4234C51.52 31.82 50.7467 32.2334 49.8867 32.4334C48.8267 32.6834 47.7733 32.61 46.73 32.35C46.57 32.31 46.4967 32.3234 46.4167 32.4734C45.5767 34.03 44.2867 35.0667 42.64 35.6934C42.1433 35.8834 41.6533 36.0867 41.1733 36.31C40.26 36.7267 39.7767 37.45 39.6933 38.44C39.6833 38.5334 39.67 38.6234 39.6567 38.7167C39.6533 38.7367 39.6367 38.7534 39.6133 38.8Z" fill="black"/>
<path d="M75.47 75.22C74.7533 74.5567 74.0333 73.89 73.2933 73.2034C73.2866 73.29 73.28 73.34 73.2766 73.39C73.2066 74.5867 72.61 75.4 71.4866 75.84C71.0633 76.0067 70.64 76.1867 70.2133 76.35C68.6666 76.9467 67.4266 77.91 66.61 79.36C66.4566 79.63 66.33 79.6967 66.0166 79.6167C64.5666 79.2434 63.1466 79.35 61.7833 80C61.3166 80.2234 60.85 80.45 60.38 80.6667C59.4366 81.1034 58.5066 81.0767 57.5866 80.5867C57.4833 80.5334 57.39 80.4367 57.23 80.4434C57.1933 81.27 57.1533 82.0934 57.1133 82.9167C57.07 83.2 57.2033 83.26 57.4666 83.2434C58.56 83.1667 59.6433 83.0434 60.7233 82.8734C64.0533 82.35 67.19 81.29 70.1033 79.6C72.04 78.4767 73.7966 77.1234 75.38 75.55C75.4733 75.46 75.61 75.3767 75.47 75.22Z" fill="black"/>
<path d="M56.5 16C34.4433 16 16.5 33.9433 16.5 56C16.5 78.0567 34.4433 96 56.5 96C78.5567 96 96.5 78.0567 96.5 56C96.5 33.9433 78.5567 16 56.5 16ZM56.5 94.52C35.2267 94.52 17.98 77.2733 17.98 56C17.98 34.7267 35.2267 17.48 56.5 17.48C77.7733 17.48 95.02 34.7267 95.02 56C95.02 77.2733 77.7733 94.52 56.5 94.52Z" fill="black"/>
<path d="M56.5 17.48C35.2266 17.48 17.98 34.7266 17.98 56C17.98 77.2733 35.2266 94.52 56.5 94.52C77.7733 94.52 95.02 77.2733 95.02 56C95.02 34.7266 77.7733 17.48 56.5 17.48ZM56.5 83.1566C41.5033 83.1566 29.3433 70.9966 29.3433 56C29.3433 41.0033 41.5033 28.8433 56.5 28.8433C71.4966 28.8433 83.6566 41.0033 83.6566 56C83.6566 70.9966 71.4966 83.1566 56.5 83.1566Z" fill="#019966"/>
<path d="M86.83 54.5566C87.3866 54.5899 87.8766 54.7732 88.3833 54.8899C88.48 54.9099 88.6033 54.9966 88.66 54.8766C88.73 54.7232 88.5566 54.6932 88.47 54.6432C88.0766 54.4299 87.6933 54.1966 87.3233 53.9432C87.0966 53.7866 86.91 53.5966 86.8266 53.3199C86.77 53.1366 86.82 52.9832 86.9466 52.8666C87.0666 52.7566 87.2133 52.7199 87.3833 52.7832C87.8 52.9432 88.01 53.3099 88.2433 53.6532C88.41 53.9032 88.55 54.1732 88.7066 54.4299C88.7566 54.5132 88.7866 54.6599 88.9233 54.5999C89.05 54.5466 88.95 54.4366 88.9333 54.3532C88.8233 53.7966 88.6 53.2566 88.6133 52.6766C88.6166 52.4699 88.6566 52.2832 88.8166 52.1399C89.06 51.9199 89.33 51.9599 89.4866 52.2499C89.6233 52.4999 89.6433 52.7666 89.58 53.0399C89.4833 53.4732 89.3766 53.9099 89.2733 54.3432C89.2566 54.4199 89.19 54.5132 89.3066 54.5566C89.41 54.5899 89.45 54.4932 89.4866 54.4199C89.64 54.1232 89.7933 53.8299 89.9433 53.5299C90.08 53.2566 90.27 53.0232 90.5 52.8232C90.6966 52.6499 91.05 52.6099 91.19 52.7599C91.3733 52.9566 91.3366 53.1832 91.2266 53.3999C91.06 53.7199 90.77 53.9099 90.49 54.1099C90.2266 54.2932 89.95 54.4599 89.6833 54.6432C89.62 54.6866 89.5266 54.7399 89.57 54.8399C89.6166 54.9532 89.71 54.9299 89.8066 54.9032C90.18 54.7999 90.5533 54.7132 90.9233 54.6066C91.16 54.5399 91.4 54.5466 91.6366 54.5566C91.9233 54.5732 92.1766 54.7932 92.1866 55.0199C92.2 55.2366 91.99 55.4432 91.6933 55.4966C91.1433 55.5999 90.63 55.3966 90.1033 55.2899C89.99 55.2699 89.8833 55.2299 89.7733 55.1999C89.6933 55.1766 89.6333 55.1866 89.5933 55.2699C89.5466 55.3699 89.62 55.3966 89.6833 55.4366C90.0066 55.6432 90.33 55.8499 90.66 56.0532C90.8566 56.1766 91.0166 56.3432 91.17 56.5099C91.4033 56.7599 91.42 57.0799 91.24 57.2766C91.09 57.4366 90.74 57.4166 90.5 57.2032C90.2233 56.9599 90.0333 56.6466 89.85 56.3299C89.7333 56.1199 89.6166 55.9099 89.4966 55.7032C89.46 55.6366 89.4333 55.5299 89.32 55.5832C89.2133 55.6299 89.2666 55.7199 89.2833 55.7999C89.39 56.3366 89.5733 56.8632 89.55 57.4266C89.5433 57.5866 89.5166 57.7366 89.41 57.8599C89.3 57.9866 89.1766 58.1432 89 58.1066C88.81 58.0699 88.69 57.9066 88.6166 57.7232C88.4933 57.4132 88.58 57.1066 88.6466 56.8032C88.7233 56.4599 88.8333 56.1232 88.9233 55.7799C88.9433 55.7032 89.0333 55.5966 88.8866 55.5432C88.7666 55.4999 88.7533 55.6232 88.7133 55.6799C88.4133 56.1299 88.17 56.6166 87.77 56.9966C87.45 57.3032 87.0933 57.3832 86.89 57.1766C86.6966 56.9832 86.7833 56.5932 87.0966 56.2966C87.4766 55.9432 87.9566 55.7532 88.3933 55.4899C88.4466 55.4566 88.5033 55.4299 88.5566 55.3999C88.62 55.3632 88.7033 55.3299 88.6566 55.2399C88.6166 55.1632 88.5466 55.2199 88.49 55.2332C88.0633 55.3299 87.64 55.4266 87.2133 55.5299C87.0266 55.5732 86.84 55.5666 86.6533 55.5499C86.3566 55.5199 86.0866 55.2766 86.1 55.0466C86.1133 54.7499 86.3566 54.6632 86.5833 54.5832C86.67 54.5532 86.77 54.5632 86.83 54.5566Z" fill="black"/>
<path d="M24.0267 52.7533C24.0267 53.25 23.8401 53.71 23.7367 54.1866C23.7167 54.2833 23.6434 54.42 23.7567 54.4666C23.8867 54.5166 23.9034 54.35 23.9534 54.2733C24.2467 53.8066 24.4067 53.26 24.8101 52.8633C25.0967 52.5766 25.4467 52.4933 25.6401 52.6733C25.8567 52.8766 25.8034 53.2166 25.5101 53.5366C25.1234 53.96 24.6201 54.22 24.1634 54.5466C24.0867 54.6 23.9467 54.6166 24.0067 54.77C24.0734 54.93 24.1901 54.8266 24.2734 54.8066C24.7567 54.6833 25.2334 54.54 25.7267 54.4566C25.9234 54.4233 26.1101 54.45 26.2801 54.5166C26.4767 54.5966 26.6534 54.7533 26.6367 54.9833C26.6201 55.1933 26.4567 55.33 26.2501 55.3866C25.8634 55.4933 25.4834 55.4266 25.1067 55.34C24.8234 55.2766 24.5434 55.1966 24.2601 55.13C24.1867 55.1133 24.0867 55.08 24.0401 55.1833C23.9901 55.2933 24.1034 55.32 24.1634 55.3633C24.6067 55.6766 25.1034 55.9066 25.4967 56.2933C25.6567 56.45 25.7867 56.6166 25.7867 56.8566C25.7867 57.2266 25.5067 57.41 25.1734 57.2533C24.8667 57.11 24.6634 56.86 24.5001 56.5766C24.3201 56.27 24.1467 55.9633 23.9734 55.6533C23.9267 55.5766 23.8934 55.4566 23.7734 55.51C23.6567 55.5566 23.7067 55.6733 23.7267 55.7566C23.8301 56.16 23.9201 56.5633 23.9867 56.9766C24.0201 57.18 24.0134 57.37 23.9634 57.5633C23.8867 57.8466 23.6601 58.06 23.4434 58.0033C23.1867 57.94 23.0534 57.74 23.0234 57.48C22.9834 57.1 23.0734 56.7366 23.1801 56.3766C23.2501 56.1366 23.3234 55.8966 23.3901 55.6566C23.4101 55.5833 23.4067 55.5 23.3234 55.4633C23.2234 55.42 23.2067 55.5233 23.1734 55.5766C22.8367 56.09 22.5667 56.6466 22.0734 57.0433C21.7234 57.3233 21.2934 57.23 21.2334 56.8566C21.2001 56.6666 21.2934 56.5166 21.4101 56.3766C21.7901 55.9233 22.3334 55.7066 22.8234 55.4166C22.9301 55.3533 23.1601 55.3133 23.1067 55.1866C23.0334 55.0133 22.8434 55.17 22.7201 55.2C22.3067 55.3033 21.8934 55.4066 21.4734 55.4733C21.2134 55.5133 20.9701 55.4766 20.7567 55.32C20.6301 55.23 20.5034 55.1 20.5334 54.9366C20.5634 54.7566 20.6834 54.6166 20.8701 54.5566C21.2534 54.4266 21.6301 54.5 22.0067 54.59C22.2801 54.6566 22.5467 54.74 22.8201 54.8066C22.9201 54.8333 23.0567 54.95 23.1234 54.8066C23.1967 54.6533 23.0201 54.63 22.9334 54.5733C22.5601 54.3433 22.1834 54.1233 21.8134 53.89C21.6267 53.7733 21.4634 53.6233 21.3567 53.4233C21.2367 53.2 21.1801 52.9566 21.4001 52.77C21.6201 52.58 21.8634 52.6733 22.0601 52.8266C22.3667 53.0633 22.5934 53.38 22.7834 53.7166C22.9067 53.9366 23.0334 54.1533 23.1667 54.3633C23.2101 54.4333 23.2367 54.5766 23.3567 54.5166C23.4534 54.47 23.4067 54.3433 23.3867 54.26C23.3101 53.9233 23.2301 53.59 23.1367 53.26C23.0634 53.0033 23.0667 52.7433 23.0834 52.4833C23.1001 52.1866 23.3401 51.9166 23.5701 51.92C23.7934 51.9233 23.9967 52.1666 24.0234 52.4733C24.0334 52.5666 24.0267 52.66 24.0267 52.7533Z" fill="black"/>
<path d="M33.85 34.5401C33.5333 34.2634 33.16 34.1468 32.74 34.1834C32.5333 34.2068 32.3133 34.2834 32.0833 34.4134C32.1333 34.1868 32.14 33.9701 32.0966 33.7668C32.0333 33.4534 31.8766 33.1834 31.6333 32.9734C31.35 32.7268 31.0166 32.6001 30.6366 32.6001C30.6333 32.6001 30.63 32.6001 30.63 32.6001C30.2566 32.6001 29.8733 32.7368 29.4933 33.0068C29.2466 33.1834 28.96 33.4568 28.6433 33.8201L26.8933 35.8334L27.2133 36.1101L27.4433 35.8434C27.5633 35.7034 27.6866 35.6368 27.8166 35.6334C27.8666 35.6368 27.9966 35.6668 28.3333 35.9601L31.2 38.4534C31.51 38.7234 31.57 38.8468 31.5833 38.8868C31.62 39.0268 31.5733 39.1701 31.44 39.3201L31.21 39.5868L31.5266 39.8634L33.43 37.6734C33.88 37.1568 34.1566 36.7434 34.2833 36.4001C34.41 36.0534 34.43 35.7068 34.3433 35.3668C34.2566 35.0268 34.09 34.7468 33.85 34.5401ZM30.8433 33.8301C30.9933 33.9601 31.0966 34.1201 31.1566 34.3034C31.2166 34.4868 31.2166 34.6701 31.1533 34.8634C31.09 35.0668 30.9233 35.3234 30.66 35.6268C30.5533 35.7468 30.4533 35.8534 30.3566 35.9501C30.2966 36.0101 30.2366 36.0668 30.1766 36.1168L28.6333 34.7734C28.73 34.5968 28.8533 34.4201 29.01 34.2401C29.3366 33.8634 29.6733 33.6468 30.0066 33.6001C30.3366 33.5534 30.61 33.6301 30.8433 33.8301ZM32.3033 37.9634L30.6466 36.5268C30.68 36.4834 30.7166 36.4334 30.7566 36.3801C30.8366 36.2801 30.9333 36.1634 31.05 36.0334C31.3066 35.7368 31.5666 35.5234 31.8266 35.4001C32.0733 35.2801 32.3066 35.2401 32.52 35.2801C32.7366 35.3201 32.9233 35.4101 33.0766 35.5434C33.31 35.7468 33.4233 36.0034 33.42 36.3268C33.42 36.6534 33.2566 37.0068 32.9366 37.3768C32.75 37.5868 32.54 37.7868 32.3033 37.9634Z" fill="black"/>
<path d="M40.5333 30.97C40.3566 31.0867 40.1933 31.1367 40.0466 31.1267C39.94 31.1167 39.72 31.0534 39.2866 30.7967L34.6533 28.05L34.3933 28.2434L35.6466 33.4434C35.75 33.87 35.79 34.1767 35.7566 34.36C35.75 34.3934 35.7166 34.4934 35.51 34.71L35.4333 34.79L35.6733 35.1134L37.3666 33.8534L37.12 33.5234L37.0166 33.5867C36.7233 33.7734 36.6033 33.7867 36.57 33.79C36.48 33.7867 36.4433 33.7534 36.4266 33.73C36.3866 33.6767 36.3266 33.5567 36.26 33.28L36.0466 32.38L37.73 31.1267L38.4466 31.55C38.7433 31.7267 38.86 31.8367 38.9066 31.8967C38.94 31.94 38.9466 31.99 38.93 32.0534C38.92 32.0967 38.87 32.19 38.6633 32.3634L38.5666 32.44L38.8166 32.7734L40.8833 31.2367L40.6366 30.9034L40.5333 30.97ZM35.8966 31.7667L35.4133 29.7434L37.1966 30.7967L35.8966 31.7667Z" fill="black"/>
<path d="M45.04 27.2332L45.0467 27.3432C45.06 27.7199 45.0367 28.0132 44.9767 28.2132C44.9167 28.4066 44.8267 28.5666 44.7034 28.6866C44.58 28.8132 44.3167 28.9666 43.9234 29.1466L43.5334 29.3266C43.0667 29.5432 42.9634 29.5566 42.95 29.5566C42.9 29.5599 42.8634 29.5499 42.8367 29.5299C42.8 29.5032 42.7234 29.4166 42.6034 29.1566L41.06 25.7999C40.8767 25.3966 40.8567 25.2666 40.86 25.2266C40.86 25.1532 40.8967 25.0732 40.9667 24.9899C41.02 24.9266 41.15 24.8199 41.48 24.6732L41.6 24.6199L41.4234 24.2366L38.77 25.4532L38.9467 25.8366L39.2667 25.6899C39.4334 25.6132 39.5734 25.6032 39.6934 25.6566C39.7234 25.6666 39.8334 25.7432 40.0267 26.1666L41.6134 29.6132C41.7867 29.9932 41.7934 30.1232 41.7867 30.1599C41.7634 30.3066 41.6634 30.4199 41.48 30.5032L41.16 30.6499L41.3367 31.0332L45.67 29.0432L45.43 27.1466L45.04 27.2332Z" fill="black"/>
<path d="M49.0734 27.6066C48.9601 27.6366 48.8467 27.6399 48.7301 27.6099C48.6567 27.5933 48.6067 27.5666 48.5801 27.5299C48.5501 27.4899 48.4867 27.3733 48.3867 27.0199L47.3567 23.3633C47.2334 22.9299 47.2634 22.8033 47.2734 22.7766C47.3267 22.6466 47.4434 22.5599 47.6367 22.5066L47.9667 22.4133L47.8501 22.0066L45.1801 22.7599L45.2934 23.1633L45.6201 23.0733C45.7334 23.0399 45.8467 23.0399 45.9634 23.0666C46.0334 23.0833 46.0834 23.1133 46.1134 23.1499C46.1434 23.1899 46.2067 23.3066 46.3067 23.6599L47.3367 27.3166C47.4567 27.7499 47.4301 27.8766 47.4201 27.9033C47.3701 28.0299 47.2501 28.1199 47.0567 28.1733L46.7301 28.2633L46.8434 28.6699L49.5167 27.9166L49.4001 27.5133L49.0734 27.6066Z" fill="black"/>
<path d="M60.8433 21.5665C60.39 21.3199 59.71 21.1599 58.8233 21.0865L56.31 20.8799L56.2766 21.2999L56.6266 21.3299C56.81 21.3432 56.94 21.4032 57.0166 21.5099C57.0366 21.5332 57.0933 21.6532 57.0566 22.1165L56.7433 25.9032C56.71 26.3165 56.65 26.4332 56.6233 26.4665C56.5366 26.5799 56.3933 26.6265 56.1933 26.6099L55.8433 26.5799L55.8066 26.9999L58.55 27.2265C58.7133 27.2399 58.87 27.2466 59.0233 27.2466C59.9666 27.2466 60.72 26.9932 61.2633 26.4865C61.8233 25.9599 62.1433 25.2632 62.2133 24.4165C62.2666 23.7899 62.1666 23.2132 61.9166 22.7065C61.6666 22.1965 61.3066 21.8132 60.8433 21.5665ZM58.1833 21.7265C58.47 21.6832 58.7266 21.6732 58.9466 21.6899C59.6033 21.7432 60.11 22.0032 60.4933 22.4832C60.87 22.9565 61.03 23.5865 60.9666 24.3599C60.9033 25.1232 60.6433 25.7199 60.19 26.1299C59.7366 26.5399 59.2066 26.7132 58.57 26.6632C58.3566 26.6465 58.0966 26.5899 57.79 26.4999L58.1833 21.7265Z" fill="black"/>
<path d="M71.72 24.98C71.8333 24.88 71.9333 24.8234 72.0167 24.8067C72.1033 24.7934 72.2067 24.8067 72.33 24.85L72.4533 24.8934L72.5933 24.4934L70.6933 23.8267L70.5533 24.2234L70.6767 24.2667C70.8267 24.32 70.9433 24.38 71.02 24.4434C71.0533 24.47 71.0733 24.5034 71.0867 24.5467C71.1 24.59 71.1 24.6267 71.0867 24.6634C71.0567 24.7434 70.9633 24.9134 70.68 25.2667L68.7833 27.6567V24.6434C68.7833 24.18 68.82 23.98 68.85 23.8934C68.8767 23.8167 68.9167 23.77 68.9767 23.7434C69.0367 23.7167 69.1333 23.7234 69.25 23.7667L69.52 23.86L69.66 23.4634L67.26 22.6167L67.12 23.0134L67.2433 23.0567C67.3733 23.1034 67.4233 23.1367 67.4433 23.15C67.4933 23.1867 67.54 23.2367 67.5833 23.3C67.6133 23.3434 67.6333 23.3867 67.6467 23.4334C67.68 23.5534 67.7 23.69 67.7067 23.83V24.7234L66.12 26.72L66.1233 23.5967C66.1267 23.1134 66.1533 22.9634 66.17 22.92C66.19 22.8634 66.2267 22.8234 66.29 22.8C66.36 22.7734 66.4533 22.78 66.5667 22.82L66.7867 22.8967L66.9267 22.5L64.63 21.6934L64.49 22.09L64.6133 22.1334C64.7533 22.1834 64.8567 22.24 64.9167 22.3067C64.9733 22.3734 65.01 22.45 65.0233 22.5467C65.03 22.5934 65.04 22.75 65.04 23.22L65.0633 28.4967L65.3867 28.61L67.7133 25.72L67.7267 29.4367L68.0633 29.5534L71.24 25.5534C71.5367 25.1667 71.6633 25.0267 71.72 24.98Z" fill="black"/>
<path d="M72.9566 31.4133C72.92 31.3467 72.9066 31.29 72.9133 31.2467C72.92 31.1967 72.9633 31.07 73.15 30.7567L75.1066 27.5C75.3366 27.1133 75.45 27.0467 75.4766 27.0367C75.6066 26.9867 75.75 27.0133 75.92 27.1133L76.2166 27.29L76.4333 26.93L74.0533 25.5L73.8366 25.8633L74.1266 26.0367C74.2266 26.0967 74.3066 26.1767 74.3666 26.28C74.4 26.3467 74.4133 26.4 74.4066 26.4467C74.4 26.4967 74.3566 26.6233 74.17 26.9367L72.2133 30.1933C71.9833 30.58 71.8733 30.65 71.8466 30.66C71.7166 30.71 71.57 30.6833 71.4 30.58L71.11 30.4033L70.8933 30.7667L73.27 32.1933L73.49 31.8333L73.1933 31.6567C73.0933 31.5967 73.0166 31.5167 72.9566 31.4133Z" fill="black"/>
<path d="M79.0966 32.78C79.5666 32.7467 79.97 32.5267 80.2967 32.13C80.54 31.8334 80.6633 31.5034 80.6667 31.1434C80.67 30.79 80.5833 30.46 80.4067 30.1634C80.2333 29.8767 79.9367 29.5567 79.52 29.2167L77.7567 27.77L77.49 28.0934L77.76 28.3167C77.9033 28.4334 77.9767 28.5567 77.98 28.6867C77.98 28.7167 77.96 28.8434 77.6633 29.2067L75.25 32.1434C74.9767 32.4734 74.8667 32.53 74.8433 32.5367C74.7 32.58 74.5567 32.54 74.3967 32.41L74.1267 32.19L73.86 32.5134L76.0033 34.2767L76.27 33.95L75.9967 33.7234C75.8533 33.6067 75.7833 33.4867 75.78 33.3567C75.78 33.3267 75.7966 33.1967 76.0966 32.8334L77.08 31.6334C77.1667 31.74 77.2533 31.8367 77.3366 31.9234C77.4533 32.0467 77.57 32.1567 77.6833 32.25C78.1533 32.6367 78.63 32.8134 79.0966 32.78ZM78.8267 29.51C78.9833 29.5934 79.11 29.67 79.1967 29.7434C79.3667 29.8834 79.4867 30.0467 79.5567 30.2267C79.6267 30.4067 79.6367 30.6 79.5833 30.81C79.53 31.0234 79.4267 31.2234 79.28 31.4034C79.0633 31.6667 78.82 31.81 78.5367 31.85C78.2533 31.8867 78.02 31.82 77.8133 31.6534C77.7533 31.6034 77.6833 31.5367 77.6067 31.4567C77.5433 31.3934 77.48 31.32 77.4067 31.2367L78.8267 29.51Z" fill="black"/>
<path d="M84.43 33.8333L84.22 33.5867L79.1167 35.1933C78.6967 35.33 78.3934 35.3867 78.21 35.3667C78.1767 35.3633 78.0734 35.3367 77.8434 35.1467L77.7567 35.0767L77.4534 35.3367L78.8267 36.94L79.14 36.67L79.0667 36.5733C78.86 36.2933 78.8334 36.1767 78.8334 36.14C78.83 36.05 78.86 36.0133 78.8834 35.9933C78.9334 35.95 79.05 35.8833 79.3234 35.7967L80.2034 35.52L81.57 37.1167L81.1967 37.8567C81.0434 38.17 80.94 38.2933 80.8834 38.34C80.8434 38.3767 80.7934 38.39 80.73 38.3767C80.6867 38.3667 80.5867 38.3267 80.4034 38.13L80.3167 38.04L80 38.31L81.6767 40.2667L81.9934 39.9967L81.9167 39.9C81.7934 39.7333 81.73 39.5733 81.73 39.4267C81.73 39.3167 81.78 39.0933 82.0067 38.6433L84.43 33.8333ZM82.7934 34.71L81.86 36.56L80.8067 35.33L82.7934 34.71Z" fill="black"/>
<path d="M35.3601 77.8801L35.5734 78.1068C35.6367 78.1768 35.6801 78.2568 35.7034 78.3534C35.7167 78.4101 35.7167 78.4534 35.7034 78.4868C35.6867 78.5201 35.6234 78.6101 35.4001 78.8201L32.9134 81.1334C32.7434 81.2901 32.6534 81.3234 32.6134 81.3301C32.5634 81.3368 32.5267 81.3301 32.51 81.3168C32.4934 81.2934 32.5 81.2368 32.5334 81.1634C32.6734 80.8434 32.6867 80.7201 32.6834 80.6501C32.6767 80.5401 32.6367 80.4434 32.56 80.3634C32.4634 80.2601 32.3434 80.2034 32.1934 80.1934C32.0734 80.1934 31.9534 80.2401 31.8401 80.3434C31.7034 80.4701 31.64 80.6434 31.6467 80.8568C31.6567 81.0634 31.75 81.2634 31.9267 81.4534C32.14 81.6834 32.4001 81.8168 32.6934 81.8501C32.7567 81.8568 32.8201 81.8601 32.8834 81.8601C33.0967 81.8601 33.3001 81.8201 33.4901 81.7368C33.7301 81.6334 33.9934 81.4468 34.2767 81.1834L36.0567 79.5268C36.3367 79.2668 36.4367 79.2434 36.4534 79.2401C36.5634 79.2334 36.6701 79.2834 36.7801 79.4034L36.9901 79.6301L37.28 79.3601L35.6534 77.6101L35.3601 77.8801Z" fill="black"/>
<path d="M49.0533 90.9767C49.0066 90.9034 48.9433 90.7234 48.9 90.3034L48.4633 85.7567L48.1733 85.6667L45.24 89.1234C44.9433 89.4767 44.7666 89.6068 44.6733 89.6534C44.6566 89.6601 44.5766 89.6901 44.32 89.6567L44.2133 89.6434L44.1 90.0034L45.8466 90.5434L45.96 90.1701L45.8466 90.1267C45.57 90.0201 45.5066 89.9501 45.4933 89.9301C45.45 89.8667 45.4633 89.8334 45.4666 89.8201C45.4833 89.7701 45.5333 89.6701 45.6866 89.4901L46.1866 88.9067L47.86 89.4234L47.9266 90.1068C47.9566 90.3968 47.94 90.5301 47.9233 90.5867C47.9133 90.6134 47.8966 90.6467 47.8366 90.6701C47.8133 90.6801 47.73 90.6967 47.5066 90.6401L47.3866 90.6101L47.27 90.9834L49.3933 91.6401L49.5066 91.2667L49.3933 91.2234C49.23 91.1634 49.1166 91.0801 49.0533 90.9767ZM47.8133 88.8501L46.56 88.4634L47.65 87.1834L47.8133 88.8501Z" fill="black"/>
<path d="M63.79 86.1L63.8833 86.4834L64.01 86.4534C64.1466 86.42 64.22 86.4234 64.2533 86.43C64.3033 86.44 64.34 86.4567 64.37 86.4834C64.3966 86.51 64.4166 86.5434 64.4266 86.5834C64.4366 86.63 64.44 86.7567 64.3366 87.0634L63.8166 88.59L62.5766 87.4167C62.32 87.1734 62.29 87.0867 62.2866 87.07C62.27 87.0134 62.2833 86.97 62.33 86.93C62.3966 86.87 62.47 86.83 62.5633 86.8067L62.7966 86.75L62.7 86.3634L60.3833 86.93L60.4766 87.3134L60.6033 87.2834C60.6933 87.26 60.74 87.2634 60.76 87.27C60.9966 87.3167 61.0833 87.36 61.1133 87.38C61.1566 87.41 61.2633 87.4934 61.5233 87.7334L63.3133 89.4067L63.5833 90.5134C63.6666 90.8534 63.6433 90.9534 63.6366 90.9734C63.5966 91.0767 63.5 91.1467 63.3366 91.1867L63.04 91.2567L63.1333 91.6434L65.44 91.0834L65.3433 90.6967L65.06 90.7667C64.9033 90.8034 64.7833 90.7934 64.7 90.74C64.6866 90.73 64.6133 90.6634 64.52 90.2867L64.2333 89.11L64.94 87.0267C65.0233 86.7734 65.1 86.5834 65.1666 86.4667C65.2333 86.3567 65.31 86.2634 65.4033 86.19C65.5266 86.0934 65.5833 86.07 65.6033 86.0667L65.8233 86.0134L65.73 85.6267L63.79 86.1Z" fill="black"/>
<path d="M81.23 80.6833L81.1366 80.7633C81.0066 80.8766 80.8766 80.94 80.7566 80.9466C80.6666 80.95 80.48 80.9233 80.0933 80.76L75.8833 78.98L75.6666 79.1933L77.3133 83.42C77.48 83.8466 77.5133 84.0633 77.5066 84.1666C77.5066 84.19 77.4933 84.27 77.3433 84.48L77.28 84.57L77.5433 84.8366L78.8466 83.56L78.5766 83.2833L78.4833 83.3633C78.2566 83.5533 78.1666 83.5766 78.1433 83.58C78.0766 83.5866 78.05 83.5666 78.0333 83.55C77.9966 83.5133 77.9333 83.42 77.8466 83.1966L77.57 82.48L78.82 81.2566L79.4566 81.5233C79.7233 81.6366 79.8333 81.71 79.8766 81.7566C79.8933 81.7733 79.9166 81.8066 79.9066 81.8666C79.9033 81.8966 79.88 81.9766 79.7233 82.1466L79.64 82.2366L79.9133 82.5166L81.5 80.9633L81.23 80.6833ZM78.2966 81.0233L77.36 81.9433L76.7533 80.3733L78.2966 81.0233Z" fill="black"/>
<path d="M40.88 61.1334C40.65 61.1334 40.4566 61.11 40.27 61.1367C39.59 61.24 39.1666 61.7767 39.1166 62.55C39.05 63.6334 39.3933 64.6134 39.8833 65.5467C40.98 67.6234 42.58 69.1634 44.78 70.0367C46.14 70.5767 47.5566 70.6634 48.9966 70.5034C50.16 70.3734 51.3133 70.18 52.4033 69.7267C54.8766 68.6934 56.2533 66.8234 56.3733 64.1667C56.4633 62.2367 55.8766 60.4634 54.4 59.1034C52.4633 57.32 48.9966 57.5567 47.3866 59.5567C46.97 60.0767 46.83 60.4767 46.7466 61.4134C45.27 60.5934 44.31 58.8167 46.0033 57.2534C46.1366 57.13 46.28 57.0167 46.4266 56.91C47.49 56.1467 48.6933 55.7167 49.9566 55.4334C50.9333 55.2167 51.89 54.9534 52.73 54.3767C53.4966 53.85 54.1166 53.1967 54.4666 52.3167C55.06 50.8167 54.5033 49.4434 53.02 48.8134C52.7466 48.7 52.6833 48.5667 52.6866 48.29C52.7133 47.1667 52.7166 46.0434 52.7133 44.92C52.71 44.7067 52.77 44.65 52.9833 44.6434C55.23 44.5867 57.0833 45.4067 58.5 47.1567C59.9733 48.98 60.03 51.4934 58.69 53.6367C57.9666 54.7934 57.0133 55.73 55.9233 56.5367C55.72 56.6867 55.7033 56.7467 55.9233 56.9C57.24 57.8167 58.4233 58.8767 59.3233 60.22C61.4066 63.33 61.0733 66.86 58.44 69.5334C56.6266 71.3767 54.4066 72.4367 51.87 72.8167C47.5966 73.45 43.9533 72.1034 40.8166 69.22C39.8333 68.3134 38.89 67.3734 38.1666 66.2367C37.2866 64.85 36.71 63.3667 36.7733 61.6934C36.8033 60.9134 36.9833 60.1734 37.4533 59.53C38.13 58.6067 39.1166 58.5367 39.9033 59.36C40.3766 59.8567 40.66 60.4534 40.88 61.1334Z" fill="#8C8101"/>
<path d="M46.7466 61.4133C46.4799 61.02 44.9433 58.5 46.6266 57.2366C48.5066 55.8233 51.8033 55.7833 52.9399 54.8733C53.8666 54.13 55.5166 52.99 55.0866 50.5166C54.6599 48.04 53.3133 48.5966 53.2633 48.1666C53.2133 47.7366 53.4799 44.6466 53.4799 44.6466L52.9833 44.6433C52.7699 44.65 52.7099 44.7066 52.7133 44.92C52.7166 46.0433 52.7133 47.1666 52.6866 48.29C52.6833 48.5666 52.7466 48.7 53.0199 48.8133C54.5033 49.4433 55.0599 50.8166 54.4666 52.3166C54.1166 53.1966 53.4966 53.85 52.7299 54.3766C51.8899 54.9533 50.9333 55.2166 49.9566 55.4333C48.6933 55.7166 47.4899 56.1466 46.4266 56.91C46.2799 57.0166 46.1366 57.13 46.0033 57.2533C45.1399 58.05 44.9699 58.9 45.1999 59.6533C45.4666 60.69 46.7833 61.47 46.7466 61.4133Z" fill="url(#paint0_linear_421_537)"/>
<path d="M57.26 63.9534C57.0834 61.3001 55.5167 57.8434 53.0434 57.2368C50.5667 56.6268 47.9934 58.0434 47.9934 58.0434C47.9934 58.0434 47.1567 58.5234 46.8034 59.0534C46.45 59.5834 46.49 61.2701 46.7467 61.4134C46.83 60.4768 46.97 60.0768 47.3867 59.5568C48.9967 57.5568 52.4634 57.3201 54.4 59.1034C55.8767 60.4634 56.4634 62.2368 56.3734 64.1668C56.2534 66.8234 54.8767 68.6934 52.4034 69.7268C51.3134 70.1801 50.16 70.3734 48.9967 70.5034C47.5567 70.6634 46.14 70.5768 44.78 70.0368C42.58 69.1634 40.98 67.6234 39.8834 65.5468C39.3934 64.6134 39.05 63.6334 39.1167 62.5501C39.1667 61.7768 39.59 61.2401 40.27 61.1368C40.4567 61.1101 40.65 61.1334 40.88 61.1334C40.66 60.4534 40.3767 59.8568 39.9034 59.3601C39.1167 58.5368 38.13 58.6068 37.4534 59.5301C37.4534 59.5301 38.6367 58.7568 39.34 59.5701C40.04 60.3868 39.9634 60.6134 39.9634 60.6134C39.9634 60.6134 38.6367 60.9168 38.6 62.5268C38.5634 64.1368 39.2267 65.5201 39.47 65.9368C39.7167 66.3534 40.7234 68.3034 42.56 69.3834C44.3967 70.4634 46.07 71.2034 48.1434 71.0768C50.2134 70.9501 53.0934 70.5468 54.33 69.4334C55.5667 68.3234 57.4367 66.6068 57.26 63.9534Z" fill="url(#paint1_linear_421_537)"/>
<path d="M44.9433 41.4866C45.42 41.6499 45.88 41.8666 46.3667 42.0133C48.14 42.5399 49.89 42.3799 51.6333 41.8666C53.2 41.4066 54.6867 40.7333 56.1967 40.1299C57.88 39.4566 59.5933 38.8966 61.39 38.5799C62.89 38.3166 64.34 38.4733 65.79 38.8899C67.48 39.3766 69.0867 40.0233 70.48 41.1233C72.2034 42.4799 73.2 44.2666 73.5634 46.4133C73.8367 48.0399 73.8 49.6666 73.45 51.2733C73.2534 52.1866 72.72 52.9499 72.1867 53.6999C70.9733 55.3899 69.4867 56.7599 67.58 57.6366C66.9634 57.9199 66.3233 58.1433 65.62 58.2933C65.62 57.5533 65.62 56.8266 65.62 56.0999C65.62 56.0066 65.6834 55.9733 65.7567 55.9366C67.7667 54.9533 68.96 53.2566 69.7767 51.2466C70.0867 50.4866 70.3767 49.7199 70.4234 48.8833C70.5134 47.2999 70.09 45.8633 69.1534 44.5933C67.8634 42.8366 66.06 41.8799 63.97 41.4299C62.3367 41.0733 60.6867 41.0499 59.07 41.4966C58.0967 41.7633 57.1733 42.2133 56.2133 42.5466C54.3433 43.1966 52.44 43.7033 50.4433 43.7499C48.39 43.7999 46.5567 43.2566 45.1 41.7266C45.0333 41.6599 44.9433 41.6099 44.9333 41.5033L44.9433 41.4866Z" fill="#8C8101"/>
<path d="M60.4667 68.8701C61.0467 68.9934 61.62 69.1401 62.2067 69.2301C63.9367 69.4968 65.6133 69.3968 67.1667 68.4901C68.4333 67.7468 69.29 66.6268 69.9433 65.3401C71.1167 63.0401 71.5767 60.5868 71.4367 58.0201C71.39 57.2068 71.3433 56.5568 71.12 55.7668C71.09 55.6568 71.0467 55.5568 71.17 55.4368C72.16 54.4534 72.92 53.3134 73.4933 52.0434C73.5067 52.0101 73.5333 51.9801 73.5633 51.9368C74.2133 53.0268 74.5767 54.0301 74.8333 55.2568C75.1167 56.6001 75.1633 57.9534 75.0333 59.3201C74.9367 60.2834 74.8767 61.2501 74.73 62.2068C74.42 64.2468 73.6 66.0601 72.3433 67.6768C71 69.4034 69.1667 70.3301 67.0633 70.7301C65.2667 71.0734 63.53 70.8501 61.9067 69.9634C61.3733 69.6768 60.8867 69.3234 60.4667 68.8701Z" fill="#8C8101"/>
<path d="M41.5467 47.9534C41.9101 48.1767 42.2701 48.39 42.6567 48.56C43.1867 48.7934 43.7434 48.9467 44.3234 48.9534C44.5467 48.9567 44.5867 49.04 44.5834 49.2434C44.5767 51.3734 44.5801 53.5067 44.5801 55.6367C44.5801 58.96 44.5834 62.28 44.5734 65.6034C44.5734 65.8834 44.6534 66.09 44.8301 66.3C45.2367 66.7734 45.6067 67.2734 45.9067 67.8234C46.0267 68.0434 46.1267 68.27 46.1734 68.52C46.2401 68.8934 46.0667 69.1134 45.6867 69.13C45.2134 69.15 44.7767 68.9967 44.3567 68.81C43.1601 68.28 42.0701 67.5934 41.2467 66.5467C41.0501 66.2967 40.8934 66.0234 40.8567 65.6967C40.8201 65.32 40.9801 65.0334 41.2901 64.85C41.4834 64.7434 41.5167 64.61 41.5167 64.41C41.5134 59.0334 41.5134 53.6567 41.5134 48.2834C41.5134 48.18 41.4867 48.0734 41.5467 47.9534Z" fill="#8C8101"/>
<path d="M42.3067 48.37C41.9234 48.2034 41.9101 48.1767 41.5467 47.9534C41.4867 48.0734 41.5134 48.18 41.5134 48.2834C41.5134 53.6567 41.5134 59.0334 41.5167 64.41C41.5167 64.61 41.4834 64.7434 41.2901 64.85C40.9801 65.0334 40.8201 65.32 40.8567 65.6967C40.8934 66.0234 41.0501 66.2967 41.2467 66.5467L42.6567 67.87C42.6567 67.87 41.7501 66.5534 42.0534 65.5934C42.3567 64.6367 42.3067 48.37 42.3067 48.37Z" fill="url(#paint2_linear_421_537)"/>
<path d="M62.1534 48.8633C63.3501 49.2099 64.3734 49.8066 65.2367 50.6733C65.3267 50.7599 65.3167 50.8599 65.3167 50.9633C65.3101 52.6633 65.3034 54.3633 65.3034 56.0599C65.3034 59.2766 65.3134 62.4933 65.3134 65.7066C65.3134 65.8499 65.3567 65.9399 65.4767 66.0133C65.7067 66.1533 65.9167 66.3199 66.1067 66.5133C66.7201 67.1433 66.6367 67.7099 65.8701 68.1333C65.4867 68.3433 65.0701 68.4599 64.6434 68.5299C63.8001 68.6699 62.9634 68.6233 62.1401 68.3766C61.1567 68.08 60.9501 67.4433 61.5767 66.6199C61.6501 66.5199 61.7201 66.4066 61.8167 66.3366C62.1701 66.0766 62.2334 65.7366 62.2301 65.3133C62.2034 63.0966 62.2101 60.88 62.2001 58.66C62.1867 55.5066 62.1701 52.3499 62.1534 49.1966C62.1501 49.0933 62.1534 48.9866 62.1534 48.8633Z" fill="#8C8101"/>
<path d="M62.1534 48.8633C62.1534 48.9866 62.1501 49.0933 62.1534 49.1966C62.1701 52.3499 62.1867 55.5066 62.2001 58.6599C62.2101 60.8799 62.2034 63.0966 62.2301 65.3133C62.2334 65.7366 62.1701 66.0766 61.8167 66.3366C61.7201 66.4066 61.6501 66.5199 61.5767 66.6199C60.9501 67.4433 61.1567 68.08 62.1401 68.3766C62.5901 68.5099 63.0434 68.5866 63.4967 68.6033C63.4967 68.6033 63.1067 67.9266 62.4501 67.8499C61.7934 67.7733 62.0901 66.8999 62.6201 66.4299C63.6767 65.4933 62.9934 49.6066 62.9934 49.6066L62.9567 49.2066C62.9567 49.2066 62.9534 49.0666 62.1534 48.8633Z" fill="url(#paint3_linear_421_537)"/>
<path d="M52.3267 62.2433C52.3267 63.4033 52.33 64.5633 52.32 65.7266C52.3167 65.9466 52.3867 66.1033 52.5433 66.2533C52.84 66.5399 53.1067 66.8566 53.3 67.2233C53.6567 67.9066 53.4833 68.4099 52.78 68.7133C52.29 68.9266 51.7667 69.0066 51.24 69.0399C50.1967 69.0999 49.15 69.1466 48.1267 68.8433C46.9867 68.5033 46.7533 67.7133 47.54 66.8199C47.7467 66.5866 47.9733 66.3799 48.23 66.2099C48.4033 66.0999 48.4633 65.9666 48.4633 65.7633C48.4567 63.7199 48.4667 61.6733 48.46 59.6299C48.4567 59.4199 48.53 59.3099 48.7067 59.2066C49.7633 58.5899 50.9067 58.3466 52.1233 58.3799C52.3233 58.3866 52.3567 58.4666 52.3567 58.6433C52.35 59.8433 52.3533 61.0433 52.3533 62.2433C52.3433 62.2433 52.3333 62.2433 52.3267 62.2433Z" fill="#8C8101"/>
<path d="M48.7067 59.2067C48.53 59.3101 48.4567 59.4201 48.46 59.6301C48.4667 61.6734 48.4567 63.7201 48.4633 65.7634C48.4633 65.9667 48.4033 66.1001 48.23 66.2101C47.9733 66.3801 47.7467 66.5867 47.54 66.8201C46.7533 67.7134 46.9867 68.5034 48.1267 68.8434L49.1433 69.0834C49.1433 69.0834 49.6067 68.6634 48.9633 68.3601C48.32 68.0567 47.3633 67.8434 48.3533 67.0334C49.4133 66.1667 49.06 66.1634 49.0967 64.6101C49.1333 63.0567 49.0033 59.0601 49.0033 59.0601L48.7067 59.2067Z" fill="url(#paint4_linear_421_537)"/>
<path d="M48.3533 55.3699C48.3533 55.1032 48.3533 54.8732 48.3533 54.6432C48.3633 51.7732 48.3699 48.9032 48.3766 46.0332C48.3799 45.5266 48.3799 45.5232 48.8566 45.3499C49.8799 44.9832 50.9366 44.7766 52.0199 44.7066C52.2599 44.6899 52.3066 44.7466 52.3033 44.9732C52.2799 47.2066 52.2633 49.4432 52.2466 51.6799C52.2433 52.2366 52.2233 52.7932 52.2433 53.3499C52.2533 53.6266 52.1399 53.7966 51.9433 53.9566C51.5533 54.2766 51.1233 54.5099 50.6433 54.6699C49.8933 54.9199 49.1066 55.0432 48.3533 55.3699Z" fill="#8C8101"/>
<path d="M48.3533 55.37C48.3533 55.1033 48.3533 54.8733 48.3533 54.6433C48.3599 51.7733 48.3666 48.9033 48.3766 46.0333C48.3766 45.5266 48.3799 45.5233 48.8133 45.35L49.1433 45.23L49.0166 55.11L48.3533 55.37Z" fill="url(#paint5_linear_421_537)"/>
<path d="M58.1899 43.8201C58.7499 44.3134 59.2966 44.8067 59.8699 45.2701C60.9399 46.1301 62.1333 46.5934 63.5233 46.5834C64.6833 46.5734 65.8466 46.6267 66.9833 46.8967C68.0899 47.1601 69.0599 47.7201 70.0066 48.3267C70.1933 48.4467 70.1299 48.6134 70.1199 48.7634C70.0433 49.6801 69.7699 50.5434 69.3966 51.3767C69.2933 51.6101 69.1833 51.8367 69.0666 52.0867C67.9433 50.9001 66.6199 50.0701 65.1833 49.4134C64.2599 48.9901 63.2799 48.7034 62.3333 48.3434C61.4499 48.0067 60.5999 47.6134 59.8733 46.9967C58.8933 46.1667 58.3733 45.0834 58.1899 43.8201Z" fill="#8C8101"/>
<path d="M39.8199 43.3701C40.2566 43.9368 40.6633 44.4168 41.1466 44.8301C42.5833 46.0668 44.2433 46.4401 46.0833 46.1268C46.6433 46.0334 47.1866 45.8834 47.7166 45.6868C47.9133 45.6134 47.9866 45.6201 47.9833 45.8568C47.9766 46.7101 47.9866 47.5635 47.9933 48.4168C47.9933 48.5435 47.9933 48.6335 47.8233 48.6468C46.1899 48.7635 44.5666 48.7668 43.0033 48.1634C41.2133 47.4768 40.2633 46.1235 39.9399 44.2768C39.8899 44.0068 39.8666 43.7268 39.8199 43.3701Z" fill="#8C8101"/>
<path d="M39.8199 43.3701C41.7533 49.4168 47.9866 47.5635 47.9933 48.4168C47.9933 48.5435 47.9933 48.6335 47.8233 48.6468C46.1899 48.7635 44.5666 48.7668 43.0033 48.1634C41.2133 47.4768 40.2633 46.1235 39.9399 44.2768C39.8899 44.0068 39.8666 43.7268 39.8199 43.3701Z" fill="url(#paint6_linear_421_537)"/>
<path d="M57.6934 55.97C58.5634 56.21 59.4267 56.4266 60.31 56.5533C60.7667 56.6166 61.2234 56.6633 61.6834 56.6633C61.8734 56.6633 61.9267 56.7333 61.92 56.9166C61.9067 57.3366 61.9134 57.76 61.92 58.1833C61.92 58.3133 61.8967 58.3833 61.7434 58.3533C60.13 58.0066 58.75 57.2566 57.6934 55.97Z" fill="#8C8101"/>
<path d="M57.6934 55.97C58.5634 56.21 59.4267 56.4266 60.31 56.5533C60.7667 56.6166 61.2234 56.6633 61.6834 56.6633C61.8734 56.6633 61.9267 56.7333 61.92 56.9166C61.9167 57.0233 61.9134 57.13 61.9134 57.2333C61.9134 57.2333 59.2267 57.3166 57.6934 55.97Z" fill="url(#paint7_linear_421_537)"/>
<path d="M44.9333 41.5033C44.91 41.4899 44.8866 41.4799 44.8633 41.4699C44.8733 41.4599 44.8833 41.4499 44.8899 41.4399C44.9066 41.4566 44.9233 41.4699 44.9433 41.4866L44.9333 41.5033Z" fill="#8C8101"/>
<path d="M44.9434 41.4868C44.9434 41.4868 45.57 41.9601 46.0334 42.2568C48.1767 43.6368 52.3034 43.2034 56.6934 41.4401C59.43 40.3434 61.8467 40.0568 64.8267 40.5634C67.8067 41.0701 70.0234 43.7034 70.6867 45.0834C71.4234 46.6134 72.4667 50.8201 69.0834 54.3434C67.5 55.9901 65.62 56.7368 65.62 56.7368C65.62 56.4768 65.62 56.3601 65.62 56.1001C65.62 56.0068 65.6834 55.9734 65.7567 55.9368C67.7667 54.9534 68.96 53.2568 69.7767 51.2468C70.0867 50.4868 70.3767 49.7201 70.4234 48.8834C70.5134 47.3001 70.09 45.8634 69.1534 44.5934C67.8634 42.8368 66.06 41.8801 63.97 41.4301C62.3367 41.0734 60.6867 41.0501 59.07 41.4968C58.0967 41.7634 57.1734 42.2134 56.2134 42.5468C54.3434 43.1968 52.44 43.7034 50.4434 43.7501C48.39 43.8001 46.5567 43.2568 45.1 41.7268C45.1 41.7268 44.9534 41.5601 44.9434 41.4868Z" fill="url(#paint8_linear_421_537)"/>
<path d="M60.4667 68.8701C61.0467 68.9934 61.62 69.1401 62.2067 69.2301C63.9367 69.4968 65.6133 69.3968 67.1667 68.4901C68.4333 67.7468 69.29 66.6268 69.9433 65.3401C71.1167 63.0401 71.5767 60.5868 71.4367 58.0201C71.39 57.2068 71.3433 56.5568 71.12 55.7668C71.09 55.6568 71.0467 55.5568 71.17 55.4368C72.1133 54.5068 73.3433 52.2001 73.5633 51.9368C73.5633 51.9368 73.9467 52.2301 73.5633 53.1168C73.1767 54.0068 71.88 55.4168 71.9367 55.7701C72.1633 57.2001 72.5167 59.2034 72.2633 61.2001C71.9967 63.3201 70.5733 66.1768 69.84 67.0868C69.1067 67.9934 66.1267 70.9768 62.2633 69.6634L60.4667 68.8701Z" fill="url(#paint9_linear_421_537)"/>
<path d="M58.1899 43.8201C58.1933 43.8534 58.3333 45.4401 59.4833 46.6267C60.4666 47.6167 61.4499 48.0067 62.3333 48.3434C63.2799 48.7034 64.2599 48.9901 65.1833 49.4134C66.6199 50.0701 67.9433 50.9001 69.0666 52.0867C69.1833 51.8367 69.2933 51.6101 69.3966 51.3767C69.3966 51.3767 67.2633 49.2534 64.5866 48.3434C61.9066 47.4334 60.9733 47.5234 58.1899 43.8201Z" fill="url(#paint10_linear_421_537)"/>
</g>
</g>
<rect x="1.5" y="1" width="110" height="110" rx="9" stroke="#CCCCCC" stroke-width="2"/>
<defs>
<linearGradient id="paint0_linear_421_537" x1="50.1318" y1="44.6433" x2="50.1318" y2="61.4162" gradientUnits="userSpaceOnUse">
<stop stop-color="white"/>
<stop offset="1" stop-color="white" stop-opacity="0"/>
</linearGradient>
<linearGradient id="paint1_linear_421_537" x1="47.3625" y1="57.0842" x2="47.3625" y2="71.0908" gradientUnits="userSpaceOnUse">
<stop stop-color="white"/>
<stop offset="1" stop-color="white" stop-opacity="0"/>
</linearGradient>
<linearGradient id="paint2_linear_421_537" x1="41.7541" y1="47.9534" x2="41.7541" y2="67.87" gradientUnits="userSpaceOnUse">
<stop stop-color="white"/>
<stop offset="1" stop-color="white" stop-opacity="0"/>
</linearGradient>
<linearGradient id="paint3_linear_421_537" x1="62.3585" y1="48.8633" x2="62.3585" y2="68.6033" gradientUnits="userSpaceOnUse">
<stop stop-color="white"/>
<stop offset="1" stop-color="white" stop-opacity="0"/>
</linearGradient>
<linearGradient id="paint4_linear_421_537" x1="48.1915" y1="59.0601" x2="48.1915" y2="69.0834" gradientUnits="userSpaceOnUse">
<stop stop-color="white"/>
<stop offset="1" stop-color="white" stop-opacity="0"/>
</linearGradient>
<linearGradient id="paint5_linear_421_537" x1="48.7483" y1="45.23" x2="48.7483" y2="55.37" gradientUnits="userSpaceOnUse">
<stop stop-color="white"/>
<stop offset="1" stop-color="white" stop-opacity="0"/>
</linearGradient>
<linearGradient id="paint6_linear_421_537" x1="43.9066" y1="43.3701" x2="43.9066" y2="48.7079" gradientUnits="userSpaceOnUse">
<stop stop-color="white"/>
<stop offset="1" stop-color="white" stop-opacity="0"/>
</linearGradient>
<linearGradient id="paint7_linear_421_537" x1="57.6934" y1="56.6033" x2="61.92" y2="56.6033" gradientUnits="userSpaceOnUse">
<stop stop-color="#847424"/>
<stop offset="0.258824" stop-color="#E5D71A"/>
<stop offset="0.65098" stop-color="#E5D71A"/>
<stop offset="0.85098" stop-color="#E5D71A"/>
<stop offset="0.980392" stop-color="#847424"/>
<stop offset="1" stop-color="#847424"/>
</linearGradient>
<linearGradient id="paint8_linear_421_537" x1="58.1904" y1="40.3213" x2="58.1904" y2="56.7368" gradientUnits="userSpaceOnUse">
<stop stop-color="white"/>
<stop offset="1" stop-color="white" stop-opacity="0"/>
</linearGradient>
<linearGradient id="paint9_linear_421_537" x1="67.1002" y1="51.9368" x2="67.1002" y2="69.9923" gradientUnits="userSpaceOnUse">
<stop stop-color="white"/>
<stop offset="1" stop-color="white" stop-opacity="0"/>
</linearGradient>
<linearGradient id="paint10_linear_421_537" x1="63.7933" y1="43.8201" x2="63.7933" y2="52.0867" gradientUnits="userSpaceOnUse">
<stop stop-color="white"/>
<stop offset="1" stop-color="white" stop-opacity="0"/>
</linearGradient>
<clipPath id="clip0_421_537">
<rect x="2.5" y="2" width="108" height="108" rx="8" fill="white"/>
</clipPath>
<clipPath id="clip1_421_537">
<rect width="80" height="80" fill="white" transform="translate(16.5 16)"/>
</clipPath>
</defs>
</svg>
