<svg width="113" height="112" viewBox="0 0 113 112" fill="none" xmlns="http://www.w3.org/2000/svg">
<g clip-path="url(#clip0_421_544)">
<rect x="2.5" y="2" width="108" height="108" rx="8" fill="white"/>
<g clip-path="url(#clip1_421_544)">
<path fill-rule="evenodd" clip-rule="evenodd" d="M24.4689 48.5308C28.5941 48.5308 31.9385 51.8752 31.9385 56.0003C31.9385 60.1248 28.5941 63.4693 24.4689 63.4693C20.3438 63.4693 17 60.1248 17 56.0003C17 51.8752 20.3438 48.5308 24.4689 48.5308Z" fill="#EC2127"/>
<path fill-rule="evenodd" clip-rule="evenodd" d="M17.5877 58.9095C17.2092 58.0155 17 57.0318 17 55.9996C17 54.7576 17.3038 53.5865 17.8405 52.5555C20.5374 52.1633 23.0271 53.2752 26.8254 53.1825C27.7847 53.1594 29.0324 52.9833 29.932 53.0306C29.6917 53.5106 29.3181 53.8088 28.9141 54.1039C27.4374 55.1834 26.2364 55.7412 24.1496 55.5868C22.9138 55.4953 21.6581 55.2849 20.431 55.1274C19.7978 55.0458 19.1317 54.9618 18.5203 55.1604C18.0845 55.3023 17.4551 55.7805 17.3524 56.05C19.25 56.9067 21.8834 56.9913 23.9292 56.4385C24.8437 56.1913 25.1525 55.9591 25.8062 55.7375C25.7539 56.1696 24.9402 57.1775 24.5611 57.4689C24.2249 57.7278 24.1097 57.853 23.6976 58.117C21.9974 59.204 19.6304 59.4038 17.5927 58.9095H17.5877Z" fill="#FEFEFE"/>
<path fill-rule="evenodd" clip-rule="evenodd" d="M64.2081 57.261C62.5303 57.261 62.3915 55.0204 63.5501 54.4843C65.0841 53.7759 66.0976 55.6554 65.1762 56.8165C64.9695 57.0767 64.5145 57.261 64.2081 57.261ZM61.3829 50.955V58.4719H62.7955V57.8667C63.0807 58.0579 63.4306 58.5727 64.4099 58.5727C65.9096 58.5727 66.9829 57.3706 66.9829 56.0507C66.9829 55.1829 66.8858 54.4333 66.29 53.8169C65.3257 52.8177 63.7257 52.7181 62.846 53.7298V50.8037H61.5342C61.4178 50.8037 61.3829 50.8386 61.3829 50.955Z" fill="#221E1F"/>
<path fill-rule="evenodd" clip-rule="evenodd" d="M37.066 55.8484C37.066 55.3086 37.2372 54.9157 37.6046 54.6213C37.6979 54.5466 37.716 54.5335 37.8212 54.4849C39.4106 53.7453 40.3576 55.7867 39.4517 56.8214C38.7283 57.647 37.066 57.2641 37.066 55.8484ZM35.6541 51.0558V58.4719H37.066V57.8667C37.198 57.9551 37.2379 58.0286 37.3605 58.1276C38.8522 59.3341 41.2534 57.9856 41.2534 56.1515C41.2534 55.2868 41.2136 54.4924 40.5611 53.8169C39.8259 53.0555 38.7046 52.7922 37.772 53.2242C37.5286 53.3369 37.3406 53.5293 37.1165 53.6793V50.9045H35.8053C35.6889 50.9045 35.6541 50.9394 35.6541 51.0558Z" fill="#221E1F"/>
<path fill-rule="evenodd" clip-rule="evenodd" d="M69.3032 55.798C69.3032 55.4064 69.4801 54.9843 69.6787 54.7608C70.323 54.0374 71.9772 54.1407 71.9772 55.8989C71.9772 56.3054 71.8178 56.6304 71.6136 56.847C70.8684 57.6365 69.3032 57.2691 69.3032 55.798ZM67.8402 55.5963C67.8402 56.5028 67.9766 57.2137 68.558 57.8052C69.2173 58.4751 70.3678 58.8144 71.3222 58.3717C71.6603 58.2154 71.7244 58.0355 71.9772 57.8668V58.4719H73.3898V53.1247H71.9267V53.6794C71.8041 53.5972 71.7786 53.5425 71.6547 53.4472C70.1443 52.2911 67.8402 53.5842 67.8402 55.5963Z" fill="#221E1F"/>
<path fill-rule="evenodd" clip-rule="evenodd" d="M43.5744 55.798C43.5744 53.9377 46.2483 53.7211 46.2483 55.8988C46.2483 56.3054 46.0889 56.6304 45.8841 56.847C45.7895 56.9472 45.6432 57.0624 45.5074 57.1259C44.629 57.5393 43.5744 56.9609 43.5744 55.798ZM42.1113 55.6971C42.1113 58.2266 44.2474 58.9955 45.5927 58.3717C45.9308 58.2154 45.9955 58.0355 46.2483 57.8668V58.4719H47.6609V53.1247H46.1979V53.6794C45.7839 53.4023 45.5803 53.0232 44.5829 53.0232C43.1504 53.0232 42.1113 54.2833 42.1113 55.6971Z" fill="#221E1F"/>
<path fill-rule="evenodd" clip-rule="evenodd" d="M55.2281 51.0558V58.4719H56.6912V56.202C57.1058 56.4796 58.4935 58.4108 58.8135 58.4681C59.0831 58.5167 59.9883 58.4719 60.3232 58.4719C60.2118 58.2608 60.2018 58.2944 60.0636 58.1263L59.1914 57.0306C58.9934 56.7778 58.8285 56.5842 58.6299 56.3315C58.4319 56.0793 58.2196 55.8452 58.0534 55.5962L59.1628 54.3853C59.3769 54.1052 60.0854 53.4048 60.2728 53.1246H58.5576C58.4948 53.2429 56.9047 55.1 56.6912 55.2432V50.9045H55.3794C55.263 50.9045 55.2281 50.9394 55.2281 51.0558Z" fill="#221E1F"/>
<path fill-rule="evenodd" clip-rule="evenodd" d="M87.8184 54.3349H88.121C88.6595 54.3349 88.9758 54.7482 89.0797 55.1928H86.8092C86.9082 54.7682 87.298 54.3349 87.8184 54.3349ZM85.2958 55.5457C85.2958 56.4335 85.3854 57.1819 86.1151 57.8549C86.9854 58.6573 88.3121 58.7632 89.3979 58.2857C89.7714 58.1213 90.1257 57.8343 90.3411 57.5131L89.4327 56.6558C89.1252 56.8619 88.9185 57.2609 88.121 57.2609C87.4984 57.2609 86.8553 56.8046 86.8092 56.2524H90.5428C90.5428 55.2631 90.5733 54.544 89.7739 53.7415C88.9204 52.8855 87.354 52.7878 86.4046 53.4763C86.018 53.7565 85.7285 54.0647 85.5392 54.5285C85.4228 54.8136 85.2958 55.1286 85.2958 55.5457Z" fill="#221E1F"/>
<path fill-rule="evenodd" clip-rule="evenodd" d="M93.3088 53.7379C93.3088 53.7211 93.3455 53.7012 93.3468 53.7087L93.368 53.1247H91.8545V58.4719C93.696 58.4719 93.368 58.7726 93.368 57.261C93.368 56.8072 93.3686 56.3533 93.3673 55.8989C93.3667 55.3853 93.3879 55.0777 93.6108 54.7801C94.1157 54.1065 95.0918 54.3032 95.3365 54.6867C95.664 55.2003 95.537 57.6707 95.537 58.4719H97V55.2937C97 54.6799 96.8519 53.9982 96.5592 53.6657C95.6397 52.6198 93.8984 52.9877 93.368 53.7803L93.3088 53.7379Z" fill="#221E1F"/>
<path fill-rule="evenodd" clip-rule="evenodd" d="M76.114 53.7802V53.1247H74.651V58.4719H76.114C76.114 57.5997 75.9684 55.3516 76.3774 54.8006C76.8761 54.1276 77.9058 54.2397 78.1598 54.7614C78.4331 55.3248 78.3335 57.7086 78.3335 58.4719H79.7965V55.445C79.7965 54.0056 79.319 53.0232 77.7788 53.0232C76.7951 53.0232 76.4365 53.5642 76.114 53.7802Z" fill="#221E1F"/>
<path fill-rule="evenodd" clip-rule="evenodd" d="M50.4855 53.7802V53.1246H49.0225V58.4719H50.4855V55.6467C50.4855 54.0429 52.6551 53.8481 52.6551 55.3441V58.4719H54.1182V54.9407C54.1182 53.2012 52.4341 52.6403 51.1734 53.2572C50.7955 53.4422 50.7557 53.5997 50.4855 53.7802Z" fill="#221E1F"/>
<path fill-rule="evenodd" clip-rule="evenodd" d="M81.4613 51.6617V53.1247H80.6544V54.335H81.4613V56.9081C81.4613 58.7391 83.2082 58.9034 84.6905 58.119C84.5965 57.7174 84.4259 57.3395 84.3369 56.9585C83.9192 57.0563 82.9243 57.6458 82.9243 56.6559V54.335H84.3873V53.1247H82.9243V51.4089L81.4613 51.6617Z" fill="#221E1F"/>
<path d="M35.9541 60.8103H36.5804C36.7049 60.8103 36.7971 60.8153 36.8574 60.8252C36.9191 60.8358 36.9732 60.8576 37.0212 60.89C37.0691 60.923 37.1096 60.9659 37.1413 61.0201C37.1737 61.0749 37.1899 61.1359 37.1899 61.2031C37.1899 61.276 37.17 61.3438 37.1308 61.4042C37.0915 61.4659 37.038 61.5113 36.9701 61.5418C37.0654 61.5698 37.1382 61.6172 37.1899 61.6844C37.2409 61.7516 37.2665 61.8301 37.2665 61.921C37.2665 61.9926 37.2497 62.0617 37.2167 62.1289C37.1837 62.1968 37.1382 62.2503 37.0809 62.2908C37.0237 62.3312 36.9527 62.3555 36.8687 62.3655C36.8164 62.3705 36.6887 62.3742 36.4876 62.3761H35.9541V60.8103ZM36.271 61.0705V61.431H36.4783C36.6009 61.431 36.6775 61.4291 36.7074 61.4254C36.7616 61.4198 36.8039 61.4011 36.835 61.37C36.8662 61.3389 36.8811 61.2984 36.8811 61.248C36.8811 61.1994 36.868 61.1608 36.8413 61.1303C36.8145 61.1004 36.7746 61.0817 36.7224 61.0755C36.6912 61.0724 36.6009 61.0705 36.4528 61.0705H36.271ZM36.271 61.6912V62.1115H36.5642C36.6781 62.1115 36.7504 62.1077 36.7809 62.1015C36.8282 62.0928 36.8662 62.0722 36.896 62.0393C36.9253 62.0056 36.9402 61.9614 36.9402 61.9054C36.9402 61.8581 36.929 61.8182 36.906 61.7859C36.8836 61.7529 36.8506 61.7292 36.807 61.7136C36.7641 61.6987 36.6707 61.6912 36.5269 61.6912H36.271ZM39.6061 62.3761H39.2643L39.1292 62.0193H38.5016L38.3715 62.3761H38.036L38.6436 60.8103H38.9792L39.6061 62.3761ZM39.0265 61.7547L38.8092 61.1751L38.5975 61.7547H39.0265ZM40.4372 62.3761V60.8103H40.7441L41.3885 61.8593V60.8103H41.6811V62.3761H41.3648L40.7304 61.3463V62.3761H40.4372ZM42.6828 62.3761V60.8103H43.0003V61.5038L43.6391 60.8103H44.0637L43.4729 61.4198L44.0948 62.3761H43.6858L43.255 61.6408L43.0003 61.9023V62.3761H42.6828Z" fill="#221E1F"/>
<path d="M45.8442 62.3761V60.8104H46.3516C46.5434 60.8104 46.6685 60.8178 46.727 60.8334C46.8167 60.8571 46.8914 60.9081 46.9518 60.9872C47.0128 61.0656 47.0427 61.1671 47.0427 61.2922C47.0427 61.3881 47.0253 61.4691 46.991 61.5344C46.9555 61.5998 46.9113 61.6515 46.8578 61.6888C46.8042 61.7262 46.7501 61.7511 46.6947 61.7629C46.6187 61.7778 46.5098 61.7853 46.3672 61.7853H46.1617V62.3761H45.8442ZM46.1617 61.075V61.5207H46.3342C46.4581 61.5207 46.5409 61.5126 46.5826 61.4958C46.6249 61.4796 46.6573 61.4541 46.681 61.4186C46.7053 61.3838 46.7171 61.3433 46.7171 61.2966C46.7171 61.2393 46.7003 61.1926 46.6673 61.1553C46.6337 61.1179 46.5913 61.0949 46.5403 61.0856C46.5029 61.0781 46.427 61.075 46.3137 61.075H46.1617ZM47.9105 62.3761V60.8104H49.0698V61.075H48.2281V61.4224H49.0106V61.687H48.2281V62.1115H49.1003V62.3761H47.9105ZM49.9725 62.3761V60.8104H50.4475L50.7277 61.8781L51.0053 60.8104H51.481V62.3761H51.1884L51.1871 61.1435L50.8783 62.3761H50.5739L50.2663 61.1435L50.2657 62.3761H49.9725ZM52.4061 60.8104H53.0324C53.1563 60.8104 53.2484 60.8154 53.3095 60.8253C53.3705 60.8359 53.4252 60.8577 53.4732 60.8901C53.5211 60.9231 53.5616 60.966 53.5933 61.0202C53.6257 61.075 53.6413 61.136 53.6413 61.2032C53.6413 61.2761 53.622 61.3439 53.5828 61.4043C53.5429 61.4659 53.4894 61.5114 53.4221 61.5419C53.5174 61.5699 53.5902 61.6172 53.6413 61.6845C53.6923 61.7517 53.7179 61.8301 53.7179 61.921C53.7179 61.9926 53.7017 62.0617 53.6687 62.129C53.6351 62.1968 53.5902 62.2504 53.5323 62.2908C53.4751 62.3313 53.4047 62.3556 53.3207 62.3656C53.2677 62.3705 53.1407 62.3743 52.939 62.3761H52.4061V60.8104ZM52.723 61.0706V61.4311H52.9303C53.053 61.4311 53.1295 61.4292 53.1594 61.4255C53.213 61.4199 53.2559 61.4012 53.287 61.3701C53.3175 61.3389 53.3331 61.2985 53.3331 61.248C53.3331 61.1995 53.3194 61.1609 53.2933 61.1304C53.2665 61.1005 53.2267 61.0818 53.1744 61.0756C53.1432 61.0725 53.053 61.0706 52.9048 61.0706H52.723ZM52.723 61.6913V62.1115H53.0162C53.1295 62.1115 53.2024 62.1078 53.2329 62.1016C53.2802 62.0929 53.3182 62.0723 53.3481 62.0393C53.3773 62.0057 53.3923 61.9615 53.3923 61.9055C53.3923 61.8582 53.381 61.8183 53.358 61.7859C53.3356 61.7529 53.302 61.7293 53.259 61.7137C53.2161 61.6988 53.1227 61.6913 52.9789 61.6913H52.723ZM56.0033 62.3761H55.6615L55.5264 62.0194H54.8989L54.7688 62.3761H54.4332L55.0408 60.8104H55.3764L56.0033 62.3761ZM55.4237 61.7548L55.2064 61.1752L54.9947 61.7548H55.4237ZM56.7796 62.3761V60.8104H57.0866L57.7309 61.8594V60.8104H58.0235V62.3761H57.7073L57.0729 61.3464V62.3761H56.7796ZM59.6945 61.8009V61.5363H60.375V62.1607C60.309 62.2255 60.2131 62.2821 60.0874 62.3313C59.9616 62.3799 59.8346 62.4042 59.7057 62.4042C59.542 62.4042 59.3994 62.3699 59.2774 62.3014C59.156 62.2323 59.0651 62.1333 59.0035 62.0057C58.9424 61.8775 58.9119 61.738 58.9119 61.5873C58.9119 61.4242 58.9462 61.2792 59.014 61.1522C59.0825 61.0252 59.1828 60.9274 59.3141 60.8596C59.4144 60.8073 59.5395 60.7817 59.6889 60.7817C59.8831 60.7817 60.0351 60.8228 60.1446 60.9044C60.2536 60.9859 60.3239 61.0986 60.3551 61.2431L60.04 61.3022C60.0182 61.225 59.9765 61.1646 59.9155 61.1198C59.8551 61.075 59.7798 61.0532 59.6883 61.0532C59.5507 61.0532 59.4411 61.0968 59.3596 61.1845C59.2786 61.2723 59.2375 61.4024 59.2375 61.5749C59.2375 61.761 59.2786 61.9005 59.3614 61.9939C59.4436 62.0866 59.5519 62.1333 59.6858 62.1333C59.7512 62.1333 59.8178 62.1203 59.8844 62.0941C59.951 62.0686 60.0077 62.0368 60.0556 61.9995V61.8009H59.6945ZM61.2752 60.8104H61.5921V61.6589C61.5921 61.7934 61.5958 61.8806 61.6039 61.9204C61.617 61.9845 61.6488 62.0362 61.6992 62.0748C61.7496 62.114 61.8187 62.1333 61.9065 62.1333C61.9949 62.1333 62.0621 62.1147 62.107 62.0779C62.1524 62.0412 62.1792 61.9964 62.1885 61.9428C62.1972 61.8893 62.2022 61.8009 62.2022 61.677V60.8104H62.5191V61.6334C62.5191 61.8214 62.511 61.9547 62.4936 62.0325C62.4768 62.1097 62.445 62.1757 62.3996 62.2292C62.3535 62.2828 62.2925 62.3251 62.2159 62.3568C62.1393 62.3886 62.0391 62.4042 61.9158 62.4042C61.7664 62.4042 61.6537 62.3873 61.5765 62.3525C61.5 62.3182 61.4389 62.2734 61.3941 62.218C61.3493 62.1626 61.32 62.1047 61.3057 62.0437C61.2852 61.954 61.2752 61.8214 61.2752 61.6465V60.8104ZM63.4617 62.3761V60.8104H63.7686L64.413 61.8594V60.8104H64.7062V62.3761H64.3893L63.7549 61.3464V62.3761H63.4617ZM67.0589 62.3761H66.7177L66.5826 62.0194H65.9544L65.8243 62.3761H65.4888L66.097 60.8104H66.4319L67.0589 62.3761ZM66.4793 61.7548L66.262 61.1752L66.0503 61.7548H66.4793ZM67.8352 62.3761V60.8104H68.1421L68.7865 61.8594V60.8104H69.0797V62.3761H68.7628L68.1284 61.3464V62.3761H67.8352Z" fill="#221E1F"/>
<path d="M71.1199 60.8103H71.6964C71.8265 60.8103 71.9255 60.8196 71.9933 60.8402C72.0849 60.867 72.1639 60.9149 72.2287 60.984C72.2947 61.0531 72.3438 61.1378 72.3781 61.238C72.4123 61.3376 72.4291 61.4615 72.4291 61.6078C72.4291 61.7367 72.4136 61.8475 72.3812 61.9409C72.342 62.0548 72.2866 62.1476 72.2137 62.2179C72.1596 62.2715 72.0855 62.3126 71.9927 62.3424C71.923 62.3649 71.8296 62.3761 71.7132 62.3761H71.1199V60.8103ZM71.4368 61.0749V62.1115H71.6715C71.7592 62.1115 71.8228 62.1059 71.862 62.0965C71.913 62.0835 71.9554 62.0617 71.989 62.0312C72.0232 62.0007 72.0506 61.9502 72.0718 61.8799C72.0929 61.8101 72.1035 61.7143 72.1035 61.5935C72.1035 61.4721 72.0929 61.38 72.0718 61.3146C72.0506 61.2498 72.0207 61.1994 71.9821 61.1633C71.9442 61.1272 71.8956 61.1023 71.8364 61.0898C71.7929 61.0799 71.7063 61.0749 71.5781 61.0749H71.4368ZM74.7108 62.3761H74.3691L74.234 62.0193H73.6058L73.4757 62.3761H73.1407L73.7484 60.8103H74.0833L74.7108 62.3761ZM74.1312 61.7547L73.914 61.1751L73.7023 61.7547H74.1312ZM75.481 62.3761V60.8103H76.6402V61.0749H75.7979V61.4223H76.581V61.6869H75.7979V62.1115H76.6707V62.3761H75.481ZM77.541 62.3761V60.8103H78.2072C78.374 60.8103 78.4961 60.8246 78.572 60.8526C78.648 60.8807 78.7084 60.9305 78.7538 61.0021C78.7999 61.0743 78.8223 61.1564 78.8223 61.2492C78.8223 61.3669 78.788 61.4634 78.7196 61.54C78.6505 61.6165 78.5477 61.6645 78.4108 61.685C78.4786 61.7242 78.5347 61.7684 78.5789 61.8157C78.6237 61.8637 78.6835 61.949 78.7582 62.0704L78.9493 62.3761H78.5714L78.3448 62.0336C78.2632 61.9129 78.2078 61.8363 78.1773 61.8045C78.1474 61.7728 78.1157 61.751 78.0821 61.7398C78.0484 61.728 77.9955 61.7217 77.9221 61.7217H77.8579V62.3761H77.541ZM77.8579 61.4727H78.092C78.2439 61.4727 78.3379 61.4659 78.3759 61.4534C78.4139 61.4403 78.4438 61.4186 78.4643 61.3868C78.4861 61.3557 78.4967 61.3165 78.4967 61.2691C78.4967 61.2162 78.4824 61.1739 78.4543 61.1415C78.4263 61.1091 78.3865 61.0886 78.3354 61.0799C78.3099 61.0768 78.2327 61.0749 78.1051 61.0749H77.8579V61.4727ZM81.132 62.3761H80.7908L80.6557 62.0193H80.0276L79.8975 62.3761H79.5619L80.1701 60.8103H80.5051L81.132 62.3761ZM80.553 61.7547L80.3351 61.1751L80.1241 61.7547H80.553ZM81.9028 62.3761V60.8103H82.2196V61.4266H82.8366V60.8103H83.1535V62.3761H82.8366V61.6912H82.2196V62.3761H81.9028Z" fill="#221E1F"/>
<path d="M85.0934 60.8103H85.7197C85.8436 60.8103 85.9357 60.8153 85.9967 60.8252C86.0577 60.8358 86.1125 60.8576 86.1605 60.89C86.2084 60.923 86.2489 60.9659 86.2806 61.0201C86.313 61.0749 86.3292 61.1359 86.3292 61.2031C86.3292 61.276 86.3093 61.3438 86.27 61.4042C86.2302 61.4659 86.1766 61.5113 86.1094 61.5418C86.2047 61.5698 86.2775 61.6172 86.3292 61.6844C86.3796 61.7516 86.4051 61.8301 86.4051 61.921C86.4051 61.9926 86.3889 62.0617 86.356 62.1289C86.323 62.1968 86.2775 62.2503 86.2196 62.2908C86.163 62.3312 86.092 62.3555 86.0079 62.3655C85.955 62.3705 85.828 62.3742 85.6263 62.3761H85.0934V60.8103ZM85.4103 61.0705V61.431H85.6176C85.7402 61.431 85.8168 61.4291 85.8467 61.4254C85.9009 61.4198 85.9432 61.4011 85.9743 61.37C86.0054 61.3389 86.0204 61.2984 86.0204 61.248C86.0204 61.1994 86.0073 61.1608 85.9805 61.1303C85.9538 61.1004 85.9139 61.0817 85.8616 61.0755C85.8305 61.0724 85.7402 61.0705 85.5921 61.0705H85.4103ZM85.4103 61.6912V62.1115H85.7035C85.8174 62.1115 85.8897 62.1077 85.9202 62.1015C85.9675 62.0928 86.0054 62.0722 86.0353 62.0393C86.0646 62.0056 86.0795 61.9614 86.0795 61.9054C86.0795 61.8581 86.0683 61.8182 86.0453 61.7859C86.0229 61.7529 85.9893 61.7292 85.9463 61.7136C85.9033 61.6987 85.81 61.6912 85.6661 61.6912H85.4103ZM88.7086 62.3761H88.3675L88.2318 62.0193H87.6042L87.4741 62.3761H87.1385L87.7468 60.8103H88.0817L88.7086 62.3761ZM88.129 61.7547L87.9118 61.1751L87.7001 61.7547H88.129ZM89.5037 62.3761V60.8103H89.81L90.4543 61.8593V60.8103H90.7475V62.3761H90.4307L89.7963 61.3463V62.3761H89.5037ZM92.0605 62.3761V61.0749H91.5967V60.8103H92.8388V61.0749H92.3774V62.3761H92.0605ZM93.6699 62.3761V60.8103H94.8291V61.0749H93.9868V61.4223H94.77V61.6869H93.9868V62.1115H94.8596V62.3761H93.6699ZM95.7542 62.3761V60.8103H96.0612L96.7055 61.8593V60.8103H96.9988V62.3761H96.6819L96.0475 61.3463V62.3761H95.7542Z" fill="#221E1F"/>
</g>
</g>
<rect x="1.5" y="1" width="110" height="110" rx="9" stroke="#CCCCCC" stroke-width="2"/>
<defs>
<clipPath id="clip0_421_544">
<rect x="2.5" y="2" width="108" height="108" rx="8" fill="white"/>
</clipPath>
<clipPath id="clip1_421_544">
<rect width="80" height="14.9416" fill="white" transform="translate(17 48.5293)"/>
</clipPath>
</defs>
</svg>
