<svg width="113" height="112" viewBox="0 0 113 112" fill="none" xmlns="http://www.w3.org/2000/svg">
<g clip-path="url(#clip0_302_1292)">
<rect x="2.5" y="2" width="108" height="108" rx="8" fill="white"/>
<path fill-rule="evenodd" clip-rule="evenodd" d="M46.72 45.06C46.34 46.65 45.96 48.41 45.57 50C41.36 50.75 36.93 52.84 32.4 55.41C35.96 50.91 41.39 47.94 46.72 45.06ZM30.61 56.59C25.98 61.66 23.04 68.19 21.03 75.52C18.85 74.1 16.68 72.68 14.5 71.25C18.37 65.43 23.45 60.36 30.61 56.58V56.59Z" fill="#ED1C24"/>
<path fill-rule="evenodd" clip-rule="evenodd" d="M45.65 37C46.56 37.51 47.48 38.02 48.39 38.53C44.73 40.58 41.1 42.96 37.68 46.87C39.12 43.62 41.89 40.33 45.66 37H45.65ZM33.35 38.38C34.03 38.47 34.71 38.55 35.39 38.63C34.18 40.72 33.16 42.94 32.56 45.44C32.14 43.3 32.68 40.86 33.35 38.38ZM34.12 43.5C34.56 43.52 35 43.55 35.43 43.57C34.43 45.23 33.61 46.98 32.93 48.79C33.08 47.13 33.46 45.38 34.12 43.5ZM35 46.37C35.68 46.78 36.36 47.18 37.04 47.59C35.23 49.71 33.54 51.92 32.14 54.29C32.73 51.72 33.85 49.04 35 46.37ZM30.24 47.06C30.9 46.93 31.56 46.81 32.21 46.68C31.66 49.13 31.46 51.58 31.55 54.03C30.63 51.96 30.37 49.54 30.23 47.06H30.24ZM29.5 49.17C29.7 50.89 29.99 52.61 30.51 54.33C29.67 53.17 28.94 51.71 28.26 50.11C28.67 49.8 29.09 49.49 29.5 49.17ZM25.61 51.84C26.14 51.66 26.66 51.48 27.19 51.3C28.01 52.43 28.81 53.59 29.59 54.79C28.36 53.72 27.01 52.76 25.61 51.83V51.84ZM22.81 47.95C23.22 47.73 23.63 47.51 24.04 47.29C25.02 48.22 25.93 49.36 26.76 50.73C25.51 49.69 24.2 48.76 22.81 47.95ZM16.21 52.31C16.68 51.79 17.14 51.26 17.61 50.74C19.4 51.33 21.14 51.99 22.84 52.7C20.65 52.48 18.43 52.35 16.2 52.31H16.21ZM22.41 54.88C22.93 54.3 23.45 53.72 23.98 53.13C25.87 53.82 27.7 54.63 29.48 55.59C27.12 55.22 24.77 55.02 22.41 54.88ZM19.06 56.85C19.3 56.31 19.54 55.77 19.77 55.23C21.62 55.21 23.38 55.48 25.02 56.11C23.03 56.17 21.05 56.45 19.06 56.86V56.85ZM15.38 59.29C15.49 58.76 15.65 58.24 15.87 57.72C17.29 57.53 18.71 57.45 20.13 57.61C18.38 58.03 16.84 58.63 15.39 59.28L15.38 59.29ZM18.78 61.89C19.29 60.62 19.82 59.34 20.33 58.07C23.62 56.79 26.81 56.33 29.95 56.33C25.95 57.66 22.29 59.63 18.78 61.89ZM17.37 65.62V63.69C18.89 62.66 20.38 62.01 21.85 61.56C20.07 62.68 18.6 64.06 17.37 65.62Z" fill="#FED860"/>
<path fill-rule="evenodd" clip-rule="evenodd" d="M70.04 65.41V63.29L69.12 63.66C68.65 63.85 68.32 64.04 68.13 64.24C67.93 64.44 67.84 64.68 67.84 64.97C67.84 65.26 67.93 65.51 68.12 65.69C68.3 65.88 68.54 65.97 68.84 65.97C69.28 65.97 69.68 65.79 70.05 65.42L70.04 65.41ZM71.39 62.52V65.56C71.39 65.81 71.47 65.93 71.63 65.93C71.73 65.93 71.87 65.88 72.05 65.78C72.67 65.46 72.19 66.56 71.66 66.83C71.48 66.92 71.27 66.94 71.07 66.94C70.48 66.94 70.13 66.7 70.03 66.22C69.44 66.69 68.82 66.92 68.16 66.92C67.68 66.92 67.28 66.76 66.95 66.43C66.63 66.1 66.46 65.68 66.46 65.19C66.46 64.74 66.62 64.33 66.93 63.98C67.25 63.62 67.69 63.34 68.27 63.14L70.03 62.52V62.14C70.03 61.28 69.61 60.85 68.78 60.85C68.03 60.85 67.3 61.25 66.59 62.04V60.49C67.13 59.84 67.89 59.52 68.89 59.52C69.64 59.52 70.24 59.72 70.7 60.13C70.85 60.26 70.99 60.43 71.11 60.65C71.23 60.86 71.31 61.08 71.34 61.29C71.38 61.51 71.39 61.91 71.39 62.52ZM86.32 59.66V60.57C86.93 59.87 87.62 59.52 88.4 59.52C88.83 59.52 89.23 59.63 89.6 59.86C89.97 60.09 90.25 60.41 90.44 60.81C90.64 61.21 90.73 61.85 90.73 62.72V66.81C89.75 66.95 89.58 66.42 89.37 65.92V62.73C89.37 62 89.26 61.48 89.05 61.16C88.84 60.84 88.47 60.69 87.97 60.69C87.33 60.69 86.78 61.02 86.33 61.69V66.8H84.94V59.64H86.33L86.32 59.66ZM94.09 67.34C93.62 67.34 93.24 67.44 92.94 67.64C92.64 67.84 92.49 68.1 92.49 68.41C92.49 69.14 93.15 69.51 94.45 69.51C95.07 69.51 95.54 69.42 95.88 69.23C96.22 69.05 96.39 68.79 96.39 68.46C96.39 68.13 96.18 67.86 95.75 67.65C95.32 67.44 94.77 67.34 94.09 67.34ZM94.42 61.11C94.04 61.11 93.72 61.24 93.46 61.5C93.19 61.76 93.06 62.07 93.06 62.43C93.06 62.79 93.19 63.1 93.45 63.34C93.71 63.58 94.04 63.7 94.44 63.7C94.84 63.7 95.16 63.58 95.43 63.33C95.69 63.08 95.82 62.78 95.82 62.42C95.82 62.06 95.69 61.74 95.42 61.49C95.15 61.24 94.82 61.12 94.42 61.12V61.11ZM91.8 62.35C91.8 61.59 92.07 60.99 92.62 60.55C93.17 60.11 93.92 59.89 94.87 59.89H98.41C98.23 60.33 98.02 60.76 97.43 60.99H96.35C96.63 61.27 96.82 61.53 96.92 61.76C97.03 61.99 97.08 62.26 97.08 62.55C97.08 62.92 96.98 63.28 96.77 63.64C96.56 64 96.29 64.27 95.96 64.47C95.63 64.66 95.09 64.81 94.34 64.93C93.81 65.01 93.55 65.19 93.55 65.48C93.55 65.64 93.65 65.78 93.84 65.89C94.04 66 94.39 66.1 94.91 66.21C95.77 66.4 96.32 66.55 96.57 66.66C96.82 66.77 97.04 66.93 97.24 67.12C97.58 67.46 97.75 67.89 97.75 68.4C97.75 69.08 97.45 69.61 96.86 70.02C96.27 70.42 95.47 70.62 94.48 70.62C93.49 70.62 92.67 70.42 92.07 70.01C91.47 69.61 91.17 69.06 91.17 68.38C91.17 67.42 91.76 66.8 92.94 66.52C92.47 66.22 92.23 65.92 92.23 65.62C92.23 65.39 92.33 65.19 92.53 65C92.73 64.81 93 64.68 93.35 64.59C92.31 64.12 91.8 63.37 91.8 62.34V62.35ZM78.92 62.66H82.44C82.41 62.1 82.24 61.66 81.95 61.36C81.66 61.05 81.26 60.9 80.76 60.9C80.26 60.9 79.85 61.05 79.54 61.36C79.22 61.66 79.01 62.1 78.92 62.66ZM83.82 63.5H78.89C78.93 64.18 79.15 64.72 79.57 65.12C79.98 65.53 80.52 65.73 81.17 65.73C82.08 65.73 82.93 65.44 83.7 64.86V66.24C83.27 66.53 82.85 66.74 82.43 66.86C82.01 66.98 81.52 67.04 80.95 67.04C80.18 67.04 79.55 66.88 79.08 66.55C78.6 66.22 78.22 65.79 77.93 65.24C77.64 64.69 77.5 64.05 77.5 63.33C77.5 62.24 77.8 61.36 78.41 60.68C79.02 60 79.8 59.66 80.77 59.66C81.74 59.66 82.44 59.99 82.99 60.65C83.55 61.31 83.82 62.2 83.82 63.31V63.5ZM72.25 60.9L74.73 58.31V59.78H76.94C76.84 60.19 76.66 60.6 75.94 61.05H74.73V64.53C74.73 65.35 75.05 65.75 75.68 65.75C76.15 65.75 76.65 65.58 77.18 65.24V66.55C76.67 66.85 76.12 67.01 75.52 67.01C74.92 67.01 74.42 66.82 74.02 66.44C73.9 66.33 73.79 66.2 73.71 66.06C73.63 65.92 73.56 65.73 73.5 65.5C73.45 65.27 73.42 64.84 73.42 64.19V61.04H72.26V60.9H72.25ZM65.55 56.05V66.78C65.55 67.78 65.45 68.52 65.25 69C65.05 69.48 64.72 69.86 64.27 70.15C63.82 70.44 63.28 70.58 62.65 70.58C62.55 70.58 62.39 70.56 62.15 70.53L61.87 69.08H62.26C62.7 69.08 63.04 69.03 63.27 68.92C63.5 68.81 63.69 68.62 63.82 68.35C63.96 68.08 64.02 67.49 64.02 66.6V57.77C64.06 56.75 64.68 56.27 65.56 56.04L65.55 56.05ZM54.49 55.94V66.81H53.1V57.27C53.19 56.76 53.66 56.32 54.49 55.95V55.94ZM57.63 59.65H59.2L56.3 63.11C57.44 64.33 58.61 65.59 59.75 66.81C58.95 66.96 58.02 66.75 57.09 65.94L54.55 63.16L57.63 59.65ZM47.47 59.65V60.56C48.08 59.86 48.77 59.51 49.55 59.51C49.98 59.51 50.38 59.62 50.75 59.85C51.12 60.08 51.4 60.4 51.59 60.8C51.78 61.2 51.88 61.84 51.88 62.71V66.8C50.9 66.94 50.73 66.41 50.52 65.91V62.72C50.52 61.99 50.41 61.47 50.2 61.15C49.99 60.83 49.63 60.68 49.12 60.68C48.48 60.68 47.93 61.01 47.48 61.68V66.79H46.09V59.63H47.48L47.47 59.65ZM42.97 63.27L42.05 63.64C41.59 63.83 41.25 64.02 41.06 64.22C40.86 64.42 40.77 64.66 40.77 64.95C40.77 65.24 40.86 65.49 41.05 65.67C41.24 65.86 41.47 65.95 41.76 65.95C42.2 65.95 42.6 65.77 42.97 65.4V63.27ZM44.32 62.5V65.54C44.32 65.79 44.4 65.91 44.56 65.91C44.67 65.91 44.8 65.86 44.98 65.76C45.6 65.44 45.12 66.54 44.59 66.81C44.41 66.9 44.2 66.92 44 66.92C43.41 66.92 43.06 66.68 42.96 66.2C42.38 66.67 41.76 66.9 41.1 66.9C40.62 66.9 40.21 66.74 39.89 66.41C39.57 66.08 39.41 65.66 39.41 65.17C39.41 64.72 39.57 64.31 39.88 63.96C40.2 63.6 40.64 63.32 41.22 63.12L42.98 62.5V62.12C42.98 61.26 42.56 60.83 41.73 60.83C40.98 60.83 40.25 61.23 39.54 62.02V60.47C40.07 59.82 40.84 59.5 41.84 59.5C42.59 59.5 43.19 59.7 43.64 60.11C43.79 60.24 43.93 60.41 44.05 60.63C44.17 60.84 44.25 61.06 44.28 61.27C44.31 61.49 44.33 61.89 44.33 62.5H44.32ZM34.46 62H33.08V65.42H34.54C35.35 65.42 35.9 65.36 36.18 65.22C36.47 65.09 36.7 64.88 36.88 64.6C37.05 64.32 37.14 64.03 37.14 63.71C37.14 63.39 37.05 63.08 36.86 62.8C36.67 62.53 36.41 62.33 36.07 62.19C35.73 62.06 35.19 61.99 34.46 61.99V62ZM34.35 57.38H33.08V60.63H34.06C34.85 60.63 35.41 60.47 35.74 60.16C36.08 59.84 36.24 59.44 36.24 58.94C36.24 57.9 35.61 57.39 34.35 57.39V57.38ZM31.6 66.8V56.01H34.31C35.16 56.01 35.83 56.13 36.31 56.36C36.79 56.6 37.15 56.93 37.41 57.35C37.66 57.77 37.79 58.26 37.79 58.81C37.79 59.87 37.27 60.63 36.22 61.09C36.97 61.24 37.57 61.57 38.02 62.07C38.47 62.57 38.69 63.16 38.69 63.86C38.69 64.41 38.55 64.9 38.28 65.33C38.01 65.76 37.61 66.11 37.09 66.39C36.56 66.66 35.91 66.8 35.12 66.8H31.6Z" fill="#2E3092"/>
</g>
<rect x="1.5" y="1" width="110" height="110" rx="9" stroke="#CCCCCC" stroke-width="2"/>
<defs>
<clipPath id="clip0_302_1292">
<rect x="2.5" y="2" width="108" height="108" rx="8" fill="white"/>
</clipPath>
</defs>
</svg>
