<svg width="112" height="112" viewBox="0 0 112 112" fill="none" xmlns="http://www.w3.org/2000/svg">
<g clip-path="url(#clip0_6_7362)">
<rect x="2" y="2" width="108" height="108" rx="8" fill="white"/>
<path fill-rule="evenodd" clip-rule="evenodd" d="M16 52.1353L22.749 60.6489L16 66.2414V52.1353Z" fill="#F15A23"/>
<path fill-rule="evenodd" clip-rule="evenodd" d="M18.7163 66.2412L23.7946 61.9929L27.3046 66.2412H18.7163Z" fill="#F15A23"/>
<path fill-rule="evenodd" clip-rule="evenodd" d="M16 47.5797L17.7612 49.8076L25.0028 58.8565L27.3493 56.9879C27.3493 56.9879 25.4013 54.6945 24.0933 52.1352C21.5359 47.1316 23.3465 44.0164 23.3465 44.0164H16V47.5797Z" fill="#F15A23"/>
<path fill-rule="evenodd" clip-rule="evenodd" d="M26.0349 60.2535L28.4247 58.2795C28.4247 58.2795 30.7071 61.284 33.3536 61.9931C36.8217 62.9224 38.3572 60.6489 38.3572 60.6489V66.2414H30.7398L32.4575 64.7563C32.4575 64.7563 31.5613 65.3538 29.3695 63.8356C28.0759 62.9396 26.0349 60.2535 26.0349 60.2535Z" fill="#F15A23"/>
<path fill-rule="evenodd" clip-rule="evenodd" d="M26.2548 44C26.2548 44 25.4924 45.0385 26.0351 47.5796C26.6151 50.2957 28.9219 53.1704 28.9166 53.106C28.9166 53.106 29.0649 50.2516 30.7399 48.5765C34.3104 45.0061 38.3574 47.1316 38.3574 47.1316V44.0163L26.2548 44Z" fill="#F15A23"/>
<path fill-rule="evenodd" clip-rule="evenodd" d="M38.3573 50.8955C38.3573 50.8955 36.0993 48.9614 34.1363 48.9614C31.6251 48.9614 30.2544 51.1294 30.2544 52.7021C30.2544 54.9927 31.3539 56.2655 32.4575 57.3691C34.0434 58.955 35.9728 60.6655 38.3573 59.2888C38.3573 56.6833 38.3573 50.8955 38.3573 50.8955Z" fill="#F15A23"/>
<path fill-rule="evenodd" clip-rule="evenodd" d="M64.0718 44.2329H69.4C69.4 44.2329 74.12 51.3798 76.4397 54.3326C78.7594 57.2854 81.2563 60.6487 81.2563 60.6487C81.2563 60.6487 81.2563 50.8954 81.2563 45.8334C81.2563 45.1936 79.5763 44.2329 79.5763 44.2329H85.7205C85.7205 44.2329 83.7044 45.0612 83.7044 45.8334C83.7044 52.1351 83.7044 67.3861 83.7044 67.3861C83.7044 67.3861 81.7699 66.3134 79.5763 63.7644C77.1116 60.9003 68.3439 49.3376 68.3439 49.3376C68.3439 49.3376 68.3439 60.2533 68.3439 64.314C68.3439 65.081 70.024 66.2412 70.024 66.2412H64.0718C64.0718 66.2412 65.7038 65.0716 65.7038 64.314C65.7038 58.8563 65.7038 50.8954 65.7038 45.8334C65.7038 45.1533 64.0718 44.2329 64.0718 44.2329Z" fill="#005E6A"/>
<path fill-rule="evenodd" clip-rule="evenodd" d="M89.1616 44.2329H96C96 44.2329 94.1638 45.1027 94.1638 45.8334C94.1638 50.8954 94.1638 59.2888 94.1638 64.314C94.1638 65.1126 96 66.2412 96 66.2412H89.1616C89.1616 66.2412 90.8712 65.0869 90.8712 64.314C90.8712 58.2793 90.8712 50.8954 90.8712 45.8334C90.8712 45.1309 89.1616 44.2329 89.1616 44.2329Z" fill="#005E6A"/>
<path fill-rule="evenodd" clip-rule="evenodd" d="M43.9526 44.2329C43.9526 44.2329 45.7255 45.1169 45.7255 45.8334C45.7255 50.8954 45.7255 58.2793 45.7255 64.314C45.7255 65.0996 43.9526 66.2412 43.9526 66.2412C43.9526 66.2412 52.8096 66.2412 54.0835 66.2412C54.7167 66.2412 61.8083 65.0816 61.8083 59.6142C61.8083 54.1469 56.2996 53.635 56.2996 53.635C56.2996 53.635 59.6555 52.702 59.6555 48.9614C59.6555 44.9294 54.7167 44.2329 54.0835 44.2329C52.7677 44.2329 43.9526 44.2329 43.9526 44.2329ZM49.3347 53.2726V46.3922C49.3347 46.3922 52.2712 46.3922 53.4503 46.3922C54.0835 46.3922 56.2996 47.1315 56.2996 49.8743C56.2996 52.1351 54.0835 53.2726 53.4503 53.2726C52.0148 53.2726 49.3347 53.2726 49.3347 53.2726ZM49.3347 55.0772C49.3347 55.0772 53.4503 55.0772 54.0835 55.0772C54.7167 55.0772 58.4525 56.0476 58.4525 59.2888C58.4525 62.5933 54.7167 63.7644 54.0835 63.7644C53.4503 63.7644 49.3347 63.7644 49.3347 63.7644V55.0772Z" fill="#005E6A"/>
</g>
<rect x="1" y="1" width="110" height="110" rx="9" stroke="#CCCCCC" stroke-width="2"/>
<defs>
<clipPath id="clip0_6_7362">
<rect x="2" y="2" width="108" height="108" rx="8" fill="white"/>
</clipPath>
</defs>
</svg>
