<svg width="112" height="112" viewBox="0 0 112 112" fill="none" xmlns="http://www.w3.org/2000/svg">
<g clip-path="url(#clip0_633_898)">
<rect x="2" y="2" width="108" height="108" rx="8" fill="white"/>
<g clip-path="url(#clip1_633_898)">
<path d="M45.5312 72.0724C45.242 72.0724 44.9578 72.0921 44.6772 72.1235H46.3853C46.1047 72.0921 45.8203 72.0724 45.5312 72.0724Z" fill="#00529C"/>
<path d="M42.0267 84.3585C43.3739 84.3585 44.3726 84.7077 45.0227 85.4046C45.6335 86.0907 45.9417 86.9005 45.9417 87.8375C45.9417 88.8025 45.5922 89.6273 44.8943 90.3126C44.1956 90.9981 43.0475 91.3407 41.4483 91.3407H40.8501H36.0232V84.3585H42.0267ZM42.799 74.159C43.1591 74.2965 43.46 74.475 43.6947 74.6999C44.304 75.2844 44.6086 75.9823 44.6086 76.7944C44.6086 77.5308 44.4813 78.1401 44.2278 78.6223C43.9738 79.1047 43.72 79.4731 43.4666 79.7264H36.0232V73.8432H40.6501C41.5174 73.8432 42.2315 73.9498 42.799 74.159ZM47.5327 81.1847C47.7108 81.0067 47.9212 80.777 48.1638 80.4965C48.4056 80.2164 48.6353 79.8846 48.8521 79.5023C49.0684 79.1199 49.2535 78.6934 49.4067 78.2214C49.5594 77.7499 49.6361 77.2462 49.6361 76.7109C49.6361 75.666 49.4576 74.6908 49.1008 73.7857C48.7435 72.8812 48.1955 72.0906 47.4565 71.415C46.7168 70.7398 45.793 70.2106 44.6841 69.8279C43.5752 69.4456 42.2812 69.2544 40.803 69.2544H40.7628H36.5132H35.4064H31.0522V74.1289V91.0029V96.021H41.759C43.3136 96.021 44.6709 95.8108 45.8313 95.3902C46.9911 94.9693 47.9534 94.3899 48.7184 93.6502C49.4829 92.9113 50.0502 92.0508 50.4201 91.0692C50.7891 90.0882 50.9742 89.0368 50.9742 87.9145C50.9742 86.4107 50.6303 85.0724 49.942 83.8997C49.2535 82.7275 48.4507 81.8221 47.5327 81.1847Z" fill="#00529C"/>
<path d="M63.2957 73.843C63.6146 73.843 63.9149 73.8635 64.2013 73.9C65.1053 74.0362 65.843 74.3588 66.4118 74.8714C67.1857 75.5695 67.5734 76.4265 67.5734 77.4414C67.5734 77.9497 67.4903 78.4448 67.3257 78.9267C67.1603 79.4091 66.9003 79.8348 66.545 80.2022C66.1892 80.5704 65.7324 80.8687 65.1742 81.0971C64.6153 81.3258 63.9425 81.44 63.1559 81.44H57.7897V73.843H63.2957ZM69.1272 84.4923C69.93 83.9445 70.5993 83.3066 71.1346 82.5803C71.6699 81.8538 72.065 81.0508 72.32 80.1713C72.5745 79.2918 72.7024 78.3934 72.7024 77.4756C72.7024 76.2776 72.5046 75.1752 72.1098 74.1679C71.7143 73.1613 71.1214 72.2945 70.3316 71.5679C69.5413 70.8411 68.5536 70.2741 67.3682 69.8662C66.1829 69.459 64.8121 69.2544 63.2577 69.2544H63.118H52.8187H52.7219V96.0208H57.7897V86.079H60.6155L67.6038 96.0208H73.5436L66.3166 85.7349C67.3872 85.4548 68.324 85.0408 69.1272 84.4923Z" fill="#00529C"/>
<path d="M75.3329 69.2544V69.262C75.2818 69.2605 75.2319 69.2544 75.18 69.2544H75.1375V69.2567V79.0672V86.0975V96.0208H80.3039V69.2544H75.3329Z" fill="#00529C"/>
<path d="M40.0929 16.0348C38.3394 16.239 37.1216 16.6219 35.8527 17.375C33.13 18.9831 31.3829 21.7017 31.0705 24.816C31.0195 25.3393 31.0067 29.8383 31.0195 41.1083C31.045 55.3075 31.0514 56.7242 31.1534 57.1901C31.5296 59.028 32.1927 60.4256 33.3213 61.7849C34.8963 63.6866 37.23 64.9246 39.755 65.199C40.6413 65.2948 70.6799 65.2884 71.5725 65.1926C73.2941 65.0076 75.0157 64.3247 76.4313 63.259C77.0689 62.774 78.0763 61.7083 78.5482 61.019C79.5684 59.5257 80.104 57.9495 80.2315 56.1052C80.308 55.0203 80.308 26.2391 80.2315 25.1542C80.0594 22.6653 79.1157 20.553 77.3941 18.8363C76.0296 17.4643 74.4992 16.6347 72.4843 16.1752L71.8467 16.0348L56.0655 16.022C47.3874 16.0156 40.2013 16.022 40.0929 16.0348ZM46.4692 21.7336C48.4713 22.2888 50.1355 23.9353 50.6584 25.8689C50.8624 26.6347 50.8433 27.7132 50.6201 28.4726C50.4033 29.2001 50.0781 29.8638 49.6318 30.4765C49.1982 31.0827 49.5808 30.6743 44.2056 36.4178C41.6997 39.0981 39.6466 41.3253 39.6466 41.37C39.6466 41.4784 43.9378 45.6201 47.1387 48.6004C49.0962 50.4255 49.8359 51.4147 50.3013 52.8505C50.5436 53.5908 50.5883 54.848 50.397 55.6457C50.1292 56.7625 49.5744 57.7134 48.6881 58.5685C48.1015 59.1365 47.534 59.5194 47.1068 59.647C46.9219 59.6981 45.8953 59.7108 43.4086 59.6981L39.9654 59.6789L39.4808 59.5066C38.1163 59.0216 37.179 58.0516 36.7007 56.6476C36.5923 56.3094 36.586 55.6776 36.5668 40.885C36.5477 23.6354 36.5158 24.95 37.0132 23.9161C37.3894 23.1312 38.0844 22.4484 38.9133 22.0336C39.857 21.5677 39.9973 21.5549 43.1854 21.5741C45.8316 21.5868 45.9846 21.5932 46.4692 21.7336ZM60.9433 21.8676C62.1931 22.2952 63.4811 23.4439 64.0996 24.6819C65.3238 27.1134 64.514 29.7617 61.6256 32.7483C60.1973 34.2289 53.6744 41.2934 53.6744 41.3636C53.6744 41.4019 57.6276 45.5244 62.4545 50.5276C70.0677 58.409 71.2155 59.6215 71.0943 59.6598C71.0178 59.6789 67.3132 59.6981 62.8626 59.7044C56.4162 59.7108 54.7838 59.6917 54.8093 59.6279C55.8423 57.2475 56.0973 56.2009 56.0846 54.3183C56.0655 51.0956 54.6818 48.1345 51.9464 45.4797C51.5638 45.1096 50.3842 43.9928 49.3194 42.9973C48.2545 42.0017 47.3937 41.1657 47.4065 41.1402C47.4192 41.1147 48.7519 39.6788 50.3715 37.943C53.5596 34.5224 53.7636 34.2927 54.4204 33.2908C56.0973 30.7317 56.7158 27.777 56.1547 25.0266C55.9953 24.2288 55.6127 23.144 55.2047 22.3335L54.7336 21.5486H56.4289C57.9806 21.5448 59.5736 21.412 60.9433 21.8676ZM71.445 21.6443C72.9052 21.9506 74.1294 23.144 74.5949 24.7075C74.7097 25.0712 74.716 25.7796 74.7288 38.3004C74.7415 45.5627 74.7415 52.3528 74.7352 53.3802L74.7161 55.25L68.021 48.3196C64.3419 44.5097 61.3259 41.3508 61.3259 41.3061C61.3259 41.2615 62.3142 40.1702 63.5257 38.8811C66.395 35.8307 66.7075 35.4861 67.2749 34.733C69.0731 32.3591 70.0295 29.9659 70.1889 27.4197C70.2973 25.7541 69.8573 23.7311 69.0476 22.1548C68.9073 21.874 68.7797 21.6251 68.767 21.5932C68.7224 21.5039 70.9923 21.5486 71.445 21.6443Z" fill="#00529C"/>
</g>
</g>
<rect x="1" y="1" width="110" height="110" rx="9" stroke="#CCCCCC" stroke-width="2"/>
<defs>
<clipPath id="clip0_633_898">
<rect x="2" y="2" width="108" height="108" rx="8" fill="white"/>
</clipPath>
<clipPath id="clip1_633_898">
<rect width="49.2518" height="80" fill="white" transform="translate(31 16)"/>
</clipPath>
</defs>
</svg>
