<svg width="112" height="112" viewBox="0 0 112 112" fill="none" xmlns="http://www.w3.org/2000/svg">
<g clip-path="url(#clip0_633_899)">
<rect x="2" y="2" width="108" height="108" rx="8" fill="white"/>
<path d="M28.3865 95.9232C26.8198 95.7408 25.6024 95.3707 24.1488 94.6349C20.3699 92.722 17.536 89.4229 16.4669 85.6922C15.945 83.8713 15.9737 85.6236 15.9937 56.8912C16.0027 40.2801 16.0437 30.3533 16.096 29.608C16.2263 27.7999 16.5014 26.6218 17.2297 24.7539C18.5419 21.3901 20.689 19.03 23.8578 17.4681C25.6399 16.5897 27.3431 16.1476 29.4252 16.0231C30.145 15.9803 41.8894 15.9735 57.2209 16.0073C86.5646 16.0725 84.1401 16.0231 85.9755 16.5928C86.8199 16.8549 88.3813 17.5935 89.3355 18.1823C92.686 20.2497 95.1123 23.6134 95.8359 27.1942C95.9779 27.8976 95.9851 29.2911 95.9851 55.5101C95.9851 81.5812 95.9805 83.1377 95.8368 84.029C95.3624 87.0425 93.9581 89.6673 91.5051 92.1266C89.5841 94.0525 87.8108 95.1132 85.4566 95.7444L84.601 95.9738L56.8053 95.985C41.5177 95.9912 28.7292 95.9632 28.3865 95.9232ZM39.9859 87.7098C41.1844 87.3025 42.6662 86.3021 43.8766 85.083C44.8275 84.1253 45.5736 83.0867 46.0926 81.9984C46.6967 80.7317 46.8445 80.1205 46.8944 78.6823C46.9671 76.5875 46.6636 74.8413 45.9763 73.3969C45.1501 71.6613 44.0652 70.3828 39.1065 65.3021C33.7604 59.8244 32.2218 58.1872 31.0648 56.745C30.7176 56.3125 30.6238 56.1364 30.6613 55.9918C30.8394 55.3092 32.6666 53.4339 37.3259 49.1506C42.2299 44.6424 43.7742 43.0299 45.4622 40.6545C46.5144 39.174 47.2677 37.4449 47.5362 35.8944C47.7013 34.9423 47.7017 33.1532 47.5378 32.1924C47.1856 30.1297 46.093 28.0705 44.6535 26.7578C42.6082 24.8926 40.601 24.0326 37.7326 23.7924C36.5025 23.6894 31.4616 23.7523 30.2144 23.8864C27.4268 24.186 24.8362 26.1415 24.1781 28.4431C24.0468 28.9017 24.0342 30.3118 24.0072 47.4759C23.9891 57.6716 24.0101 69.9302 24.0523 74.7173C24.133 84.4147 24.0928 83.7938 24.7222 84.7762C25.1524 85.4459 26.0595 86.406 26.6932 86.8614C27.3266 87.3166 27.9341 87.6005 28.7302 87.8133C29.3117 87.9687 29.6068 87.9763 34.3299 87.9578L39.3157 87.9383L39.9859 87.7098ZM82.5758 87.8359C82.2611 87.2476 79.9716 84.8531 74.4333 79.3197C68.1179 73.0097 51.6982 56.1158 51.6701 55.8989C51.5957 55.3284 54.5103 52.2533 58.218 48.9896C60.3305 47.1301 63.377 44.1842 65.2309 42.2083C68.9166 38.2799 69.8541 36.9017 70.1866 34.9223C70.349 33.9583 70.3327 31.7421 70.1597 31.043C69.9671 30.268 69.645 29.4762 69.2363 28.7711C68.7885 27.9988 67.1333 26.3176 66.2377 25.7256C64.9753 24.8912 63.4326 24.2306 61.9998 23.9108C61.3038 23.7555 56.375 23.6564 54.7648 23.7654L53.7621 23.8333L53.832 24.1027C53.8725 24.2509 54.2898 24.9529 54.7642 25.6627C55.2385 26.3726 55.7753 27.2685 55.957 27.6536C56.9194 29.6938 57.3675 32.2365 57.2797 35.1597C57.2085 37.5312 56.8672 38.9258 55.8499 40.9986C54.4357 43.8808 52.5341 46.1125 48.3308 49.8229C45.8791 51.9871 43.9094 53.9569 42.9934 55.1605L42.3511 56.0046L47.1898 61.126C53.2003 67.4876 53.6153 67.9332 54.3089 68.7686C56.3016 71.1686 57.2951 73.3109 57.68 76.0379C57.8621 77.3268 57.8427 79.7861 57.6393 80.9649C57.3309 82.7738 56.6624 84.3539 55.4218 86.2071C55.0299 86.7923 54.6164 87.431 54.5025 87.6267L54.2956 87.9824H68.4743C81.9523 87.9824 82.6491 87.9755 82.5746 87.8359L82.5758 87.8359ZM88.1846 58.7742C88.1396 36.5325 88.0895 32.3869 87.8465 30.7796C87.1598 26.2384 85.3157 24.3338 81.1702 23.8842C80.193 23.7782 75.0867 23.7569 75.0867 23.8585C75.0867 24.0116 75.6553 24.8096 76.4148 25.7225C77.347 26.843 77.7781 27.4609 78.1618 28.2268C79.0163 29.9326 79.2717 31.7955 79.0854 34.9639C78.9154 37.8552 78.5762 39.1188 77.5025 40.8625C75.9816 43.3323 73.9849 45.4563 68.603 50.3294C65.4258 53.2062 63.31 55.4362 63.3873 55.8267C63.3964 55.8943 68.9833 61.6105 75.793 68.5292L88.1744 81.1086L88.2014 80.7165C88.2195 80.5008 88.2059 70.6267 88.1833 58.7739L88.1846 58.7742Z" fill="#00529C"/>
</g>
<rect x="1" y="1" width="110" height="110" rx="9" stroke="#CCCCCC" stroke-width="2"/>
<defs>
<clipPath id="clip0_633_899">
<rect x="2" y="2" width="108" height="108" rx="8" fill="white"/>
</clipPath>
</defs>
</svg>
