<svg width="112" height="112" viewBox="0 0 112 112" fill="none" xmlns="http://www.w3.org/2000/svg">
<g clip-path="url(#clip0_633_897)">
<rect x="2" y="2" width="108" height="108" rx="8" fill="white"/>
<path d="M16.0917 58.4894C16.2884 58.4481 16.4354 58.3945 16.5289 58.3291C16.7433 58.1771 16.8947 57.8885 16.9872 57.4602L18.4255 50.7682C18.4653 50.569 18.4938 50.4038 18.5096 50.2725C18.5273 50.1417 18.5341 50.0399 18.5287 49.9662C18.5135 49.6997 18.4269 49.532 18.2735 49.4631C18.2184 49.4395 18.1516 49.4164 18.066 49.3973L18.1678 48.9321H21.4447C22.5629 48.9321 23.4396 49.1081 24.0735 49.4631C24.7122 49.8137 25.055 50.3797 25.1027 51.168C25.1494 51.9302 24.8067 52.5389 24.0745 52.9943C23.6806 53.2421 23.1471 53.4486 22.4695 53.6148C23.1112 53.8391 23.5695 54.0633 23.8458 54.2841C24.3105 54.6588 24.5633 55.1726 24.6001 55.8212C24.6528 56.6429 24.3543 57.3658 23.7165 57.9848C23.0763 58.6025 21.9654 58.9108 20.3806 58.9108H15.9998L16.0917 58.4894ZM19.495 58.3856C19.6174 58.4264 19.8102 58.4456 20.0674 58.4456C21.0164 58.4456 21.6724 58.007 22.0348 57.1337C22.2482 56.6164 22.3406 56.0745 22.3082 55.5154C22.2683 54.8299 22.0008 54.3696 21.5135 54.1331C21.2244 53.9915 20.7041 53.904 19.9538 53.871L19.1886 57.5128C19.1734 57.5708 19.1577 57.6367 19.1473 57.7159C19.1419 57.7901 19.1419 57.8742 19.1488 57.9726C19.1616 58.1756 19.2757 58.3128 19.495 58.3856ZM21.5362 53.251C21.8056 53.1875 22.049 53.0538 22.2634 52.8492C22.5373 52.593 22.7217 52.235 22.8196 51.7797C22.882 51.4832 22.9086 51.1896 22.8899 50.9C22.8624 50.4609 22.7488 50.1078 22.5486 49.8349C22.3475 49.5585 21.9743 49.4194 21.4319 49.4194C21.2008 49.4194 21.0449 49.4745 20.9574 49.5787C20.8748 49.6884 20.8148 49.8526 20.7681 50.0749L20.0506 53.425C20.7754 53.3695 21.2706 53.3095 21.5362 53.251Z" fill="#0069AB"/>
<path d="M26.3029 53.7971C27.1482 52.6184 28.0378 52.0298 28.9706 52.0298C29.3526 52.0298 29.6359 52.141 29.8281 52.3618C29.9412 52.4985 30.0489 52.7266 30.1488 53.0472L30.7305 52.2231H32.0282L31.1376 55.6337C31.0127 56.1304 30.9237 56.5066 30.8745 56.7701C30.7688 57.2702 30.7197 57.6253 30.731 57.8392C30.7359 57.9282 30.758 57.9896 30.7998 58.0226C30.8406 58.0565 30.8829 58.0727 30.9311 58.0727C31.0211 58.0727 31.1022 58.0422 31.1809 57.9778C31.2615 57.9105 31.3515 57.8175 31.4445 57.6936L31.5104 57.6159C31.6126 57.6828 31.7459 57.7767 31.8595 57.8564C31.6298 58.1671 31.4071 58.4243 31.1863 58.6343C30.8406 58.9697 30.4758 59.1368 30.1045 59.1368C29.8744 59.1368 29.6482 59.0518 29.4249 58.8826C29.2017 58.712 29.0822 58.4637 29.066 58.1312C29.0606 58.0078 29.1087 57.7059 29.2076 57.2255L29.1569 57.3086C29.1087 57.3956 29.0286 57.5249 28.9219 57.6936C28.677 58.0934 28.3834 58.4307 28.0363 58.7085C27.6965 58.9839 27.307 59.1216 26.8719 59.1216C26.4731 59.1216 26.1008 58.9751 25.7448 58.6766C25.3903 58.382 25.1931 57.879 25.1567 57.1684C25.1021 56.0724 25.4847 54.9493 26.3029 53.7971ZM29.7205 52.9882C29.6187 52.765 29.4402 52.6558 29.1879 52.6558C28.6455 52.6558 28.1233 53.2926 27.6203 54.5687C27.1743 55.7031 26.9677 56.5675 26.9987 57.1684C27.0095 57.4079 27.0779 57.6135 27.2033 57.789C27.3341 57.9641 27.4964 58.0521 27.6891 58.0521C28.1882 58.0565 28.7163 57.401 29.2774 56.0847C29.6703 54.9817 29.8493 54.1074 29.8168 53.4632C29.8085 53.268 29.7765 53.1087 29.7205 52.9882Z" fill="#0069AB"/>
<path d="M32.1557 58.9109L33.3162 53.8879C33.3599 53.6956 33.3904 53.5402 33.4111 53.4291C33.4494 53.2221 33.4671 53.0755 33.4637 52.9929C33.4524 52.8134 33.3899 52.7018 33.2768 52.6571C33.2173 52.6359 33.1264 52.6163 33.0074 52.602L33.0762 52.2229H35.4837L34.7501 54.804L34.7889 54.8241C34.7658 54.8492 34.8991 54.6284 35.1936 54.1623C35.4857 53.6917 35.7684 53.3096 36.0384 53.018C36.3089 52.7215 36.5921 52.4869 36.8881 52.3114C37.193 52.1329 37.5111 52.0414 37.8549 52.0414C38.1676 52.0414 38.442 52.1329 38.6682 52.3114C38.9013 52.4914 39.0271 52.7844 39.0498 53.195C39.0694 53.5732 38.889 54.4062 38.5167 55.6979C38.1381 56.9873 37.9522 57.6752 37.9586 57.7666C37.9606 57.8556 37.9921 57.9225 38.0476 57.9727C38.1042 58.0145 38.1583 58.0376 38.2123 58.0376C38.3328 58.0376 38.4971 57.8989 38.7124 57.6211L39.0665 57.8473C38.9116 58.0764 38.7724 58.2574 38.6446 58.3936C38.2207 58.846 37.758 59.0722 37.2559 59.0722C36.9884 59.0722 36.7445 58.992 36.5223 58.8386C36.3054 58.6832 36.1884 58.4374 36.1712 58.102C36.1613 57.8886 36.1972 57.5768 36.2769 57.1687C36.3605 56.7615 36.4633 56.3436 36.5882 55.9094L37.2215 53.6799L37.2495 53.5432C37.2559 53.5043 37.2599 53.4645 37.2599 53.4251C37.253 53.315 37.2112 53.2363 37.1291 53.195C37.0553 53.1498 36.9732 53.1281 36.8842 53.1281C36.5803 53.1281 36.2499 53.3642 35.8992 53.8412C35.5482 54.3132 35.2649 54.7823 35.05 55.2554C34.8174 55.7638 34.6296 56.2811 34.4801 56.8053C34.3321 57.331 34.1566 58.0322 33.9564 58.9109H32.1557Z" fill="#0069AB"/>
<path d="M39.3572 58.9109C39.3572 58.9109 41.3074 50.161 41.3221 50.0666C41.3374 49.9761 41.3428 49.8871 41.3393 49.7976C41.3266 49.5763 41.2498 49.4396 41.1063 49.3905C41.0369 49.3678 40.9484 49.3511 40.8324 49.3398L40.9214 48.9361H43.3559L41.9579 55.3045C42.4998 54.8974 42.9739 54.5104 43.3736 54.148C43.9912 53.5795 44.2966 53.1832 44.2838 52.959C44.2769 52.7991 44.1988 52.6998 44.0522 52.6595C43.9863 52.6438 43.916 52.627 43.8349 52.6162L43.9214 52.2169L46.1136 52.241L45.9695 52.747C45.5731 52.7608 45.5987 52.7957 44.6285 53.7172C44.6285 53.7172 43.9072 54.3987 43.8123 54.4833L43.7395 54.5502C43.7523 54.5895 43.8123 54.8438 43.9214 55.3109C44.0488 55.8518 44.1466 56.2186 44.2086 56.4124C44.4284 57.062 44.5848 57.4878 44.6831 57.686C44.7839 57.8812 44.9241 57.9781 45.0967 57.9781C45.2752 57.9781 45.4335 57.8832 45.58 57.6929C45.5953 57.6737 45.6144 57.6476 45.6331 57.6196L45.9469 57.8556C45.8082 58.0857 45.6577 58.3006 45.4959 58.4949C45.1881 58.8642 44.8164 59.0491 44.3841 59.0491C44.0562 59.0491 43.7754 58.9384 43.5443 58.722C43.3146 58.5037 43.1194 58.2116 42.9611 57.8473C42.7914 57.4637 42.6439 57.0231 42.5205 56.5225C42.4054 56.022 42.343 55.75 42.341 55.7068L41.7804 56.1139L41.1766 58.9109H39.3572Z" fill="#0069AB"/>
<path d="M70.0455 51.2142H71.623C72.1693 51.2142 72.5745 51.3259 72.5745 51.9268C72.5745 52.5434 71.9593 52.7234 71.4715 52.7234H69.7367L70.0455 51.2142ZM65.4793 58.7992H71.204C73.3873 58.7992 75.3144 57.8467 75.3144 55.4417C75.3144 54.5211 74.7292 53.6385 73.8043 53.4423V53.4157H73.8181C75.0218 53.0956 75.6498 52.269 75.6498 51.0121C75.6498 49.5699 74.8394 48.8161 72.6723 48.8161H67.5485L65.4793 58.7992ZM69.3586 54.5836H71.0486C71.6928 54.5836 72.2406 54.6952 72.2406 55.4387C72.2406 56.2481 71.4863 56.4423 70.9385 56.4423H68.9661L69.3586 54.5836Z" fill="#0069AB"/>
<path d="M77.936 58.7993H81.0093L82.5485 51.3732H85.3164L85.8499 48.8162H77.2358L76.7052 51.3732H79.4732L77.936 58.7993Z" fill="#0069AB"/>
<path d="M84.868 58.7993H87.7893L88.9493 53.2069H88.9769L90.8076 58.7993H93.8278L95.9265 48.8162H93.0022L91.8845 54.269H91.8579L89.9844 48.8162H86.9347L84.868 58.7993Z" fill="#0069AB"/>
<path d="M64.3414 65.6852C64.4333 65.3454 64.3954 65.3474 64.6226 64.4308C64.7859 63.5275 65.7807 62.1437 67.5347 62.0016C68.1326 61.9303 91.0935 60.9547 96 60.611L95.853 61.4597C91.2302 62.0572 70.3149 64.8925 64.3414 65.6852Z" fill="#E31C24"/>
<path d="M54.3022 58.8007V60.6137L55.8742 59.706L57.4468 60.6137V58.8007L55.8742 57.8915L54.3022 58.8007Z" fill="#A68561"/>
<path d="M60.5898 58.8008V56.9829L55.8736 54.2602L51.1604 56.9829V58.8008L55.8736 56.0751L60.5898 58.8008Z" fill="#A68561"/>
<path d="M49.5867 50.6307L55.8745 47.0002L62.1632 50.6307V57.8916L60.5898 58.8008L60.5907 51.5399L55.8745 48.8157L51.1598 51.5399L51.1604 58.8008L49.5867 57.8916V50.6307Z" fill="#0069AB"/>
<path d="M55.8737 50.6306L59.0179 52.4466V59.7065L57.4468 60.6137L57.4468 53.3528L55.8737 52.4466L54.3026 53.3528V60.6127L52.7321 59.7065V52.4466L55.8737 50.6306Z" fill="#0069AB"/>
</g>
<rect x="1" y="1" width="110" height="110" rx="9" stroke="#CCCCCC" stroke-width="2"/>
<defs>
<clipPath id="clip0_633_897">
<rect x="2" y="2" width="108" height="108" rx="8" fill="white"/>
</clipPath>
</defs>
</svg>
