<svg width="112" height="112" viewBox="0 0 112 112" fill="none" xmlns="http://www.w3.org/2000/svg">
<g clip-path="url(#clip0_647_381)">
<rect x="2" y="3" width="108" height="108" rx="8" fill="white"/>
<path d="M31.3281 54.642H32.6376C33.1421 54.642 33.5714 54.7278 33.5714 55.2967C33.5714 55.93 32.9811 56.0803 32.5517 56.0803H31.0275L31.3281 54.642ZM28.3226 57.9051H32.7664C34.4516 57.9051 35.9544 57.1644 35.9544 55.3075C35.9544 54.5883 35.4928 53.9013 34.7736 53.751V53.7296H34.7844C35.7182 53.4827 36.212 52.8387 36.212 51.8726C36.212 50.7455 35.5787 50.1659 33.9042 50.1659H29.9326L28.3226 57.9051ZM31.8648 52.0229H33.0884C33.507 52.0229 33.8291 52.1088 33.8291 52.581C33.8291 53.0533 33.346 53.1929 32.9703 53.1929H31.6286L31.8648 52.0229Z" fill="#0069AC"/>
<path d="M37.9831 57.9051H40.366L41.5575 52.1517H43.7043L44.1122 50.1659H37.4357L37.0278 52.1517H39.1746L37.9831 57.9051Z" fill="#0069AC"/>
<path d="M43.3501 57.9051H45.6149L46.5166 53.5686H46.538L47.9549 57.9051H50.3056L51.9265 50.1659H49.6616L48.7922 54.3951H48.7707L47.3216 50.1659H44.9601L43.3501 57.9051Z" fill="#0069AC"/>
<path d="M27.4424 63.2398C27.5175 62.9822 27.4853 62.9822 27.6571 62.2738C27.7859 61.5653 28.5587 60.5027 29.9219 60.3846C30.3835 60.3309 48.1803 59.5796 51.9801 59.3112L51.8728 59.966C48.2877 60.4275 32.0687 62.628 27.4424 63.2398Z" fill="#E21C23"/>
<path d="M19.6603 57.9051V59.3112L20.8732 58.6028L22.0969 59.3112V57.9051L20.8732 57.1966L19.6603 57.9051Z" fill="#A58560"/>
<path d="M24.5335 57.9051V56.4989L20.8732 54.3843L17.2237 56.4989V57.9051L20.8732 55.7905L24.5335 57.9051Z" fill="#A58560"/>
<path d="M16 51.5721L20.8732 48.7598L25.7571 51.5721V57.1966L24.5335 57.9051V52.2805L20.8732 50.1659L17.2237 52.2805V57.9051L16 57.1966V51.5721Z" fill="#0069AC"/>
<path d="M20.8732 51.5721L23.3205 52.9782V58.6028L22.0969 59.3112V53.6866L20.8732 52.9782L19.6603 53.6866V59.3112L18.4473 58.6028V52.9782L20.8732 51.5721Z" fill="#0069AC"/>
<path fill-rule="evenodd" clip-rule="evenodd" d="M96 59.8586H94.2826V54.6205H92.4685V57.5187H84.139V55.8871C84.139 55.8871 84.9011 53.1607 89.3664 53.2358V55.9193H90.7726V50.1337H92.4471V52.8387H95.9678L96 59.8586ZM86.8762 51.9692L87.7778 51.0676L88.6795 51.9692L87.7778 52.8709L86.8762 51.9692ZM84.3537 51.9692L85.2553 51.0676L86.1462 51.9692L85.2553 52.8709L84.3537 51.9692ZM80.9725 51.9692L81.8634 51.0676L82.7651 51.9692L81.8634 52.8709L80.9725 51.9692ZM87.6919 55.9086L85.8242 55.8871C85.8242 55.8871 86.1248 54.9318 87.6812 54.642L87.6919 55.9086ZM82.7973 53.2143H81.112V55.9515H77.9026V54.6098C77.9026 54.6098 78.8579 54.5239 79.5127 54.0516V53.2143H76.2174V55.9408H74.779V53.2251C74.779 53.2251 70.6572 52.7957 69.777 55.9408V57.4972H82.7651L82.7973 53.2143ZM73.1153 55.9086L71.3227 55.8871C71.3227 55.8871 71.6554 54.7708 73.1045 54.5561L73.1153 55.9086ZM72.3853 51.9692L73.287 51.0676L74.1887 51.9692L73.287 52.8709L72.3853 51.9692ZM69.8736 51.9692L70.7753 51.0676L71.6662 51.9692L70.7753 52.8709L69.8736 51.9692ZM92.3612 58.4632H69.7663V59.8157H92.3612V58.4632ZM68.7573 53.2465H67.1365V55.8978H65.2151V53.2251H63.4977V57.465H67.2009V59.7191H68.7573V53.2465ZM66.106 58.4632H55.3506V59.8157H66.106V58.4632ZM62.5531 50.0586L62.5423 51.6687C62.5423 51.6687 59.451 51.2286 58.4098 53.0963L58.3668 53.1929H62.5101V57.422H55.3291V55.9193H60.8142V54.4702H56.1878V53.1177C56.1878 53.1177 57.1324 49.6399 62.5531 50.0586Z" fill="#B38767"/>
</g>
<rect x="1" y="1" width="110" height="110" rx="9" stroke="#CCCCCC" stroke-width="2"/>
<defs>
<clipPath id="clip0_647_381">
<rect x="2" y="2" width="108" height="108" rx="8" fill="white"/>
</clipPath>
</defs>
</svg>
