<svg width="120" height="120" viewBox="0 0 120 120" fill="none" xmlns="http://www.w3.org/2000/svg">
<g filter="url(#filter0_d_6_7357)">
<g clip-path="url(#clip0_6_7357)">
<rect x="5.99988" y="2" width="108" height="108" rx="8" fill="white"/>
<path d="M81.68 59.5726C75.0844 59.6037 70.2504 54.6955 70.2 47.9148C70.1511 41.2481 75.0474 36.1933 81.5585 36.1904C88.1911 36.1904 93.0415 41.0452 93.0756 47.7296C93.1111 54.6081 88.3704 59.5415 81.68 59.5726ZM75.5082 48.017C75.4267 48.9504 75.6341 50.0081 76.0474 51.017C76.8845 53.0555 78.3408 54.4022 80.5541 54.7681C82.8059 55.14 84.8282 54.58 86.2237 52.7207C88.2045 50.0807 88.3259 47.1178 86.9511 44.217C85.1022 40.3207 79.7452 39.7726 76.9985 43.0985C75.8682 44.4659 75.4637 46.0941 75.5082 48.0155V48.017Z" fill="#FFBC25"/>
<path d="M41.0637 56.2615C40.0548 57.6867 38.8282 58.6319 37.2859 59.1133C34.8252 59.8748 32.397 59.8274 30.1333 58.4822C27.7496 57.0615 26.6726 54.9059 26.9526 52.1341C27.2326 49.3622 28.9274 47.7059 31.4444 46.8007C33.2844 46.1385 35.2459 46.0733 37.1526 45.737C37.8682 45.6096 38.5926 45.537 39.3096 45.417C41.0711 45.1207 41.0756 43.6659 40.4519 42.2733C40.1927 41.7014 39.7255 41.2495 39.1452 41.0096C37.4578 40.2926 35.7778 40.2244 34.1274 41.1563C33.1496 41.7148 32.5882 42.5785 32.3096 43.6467C32.1037 44.4333 32.0504 44.463 31.2607 44.2807C30.1867 44.0348 29.1111 43.78 28.0385 43.5578C27.4785 43.4407 27.3363 43.1681 27.4681 42.6141C28.1126 39.9148 29.7911 38.0733 32.2948 37.0452C35.3704 35.7815 38.517 35.8407 41.5704 37.1326C44.3289 38.3 45.7393 40.54 45.923 43.4807C46.1289 46.7844 45.96 50.097 46.0015 53.4067C46.0133 54.3548 45.9348 55.303 46.0741 56.2481C46.1911 57.0452 46.5185 57.7178 47.1585 58.2215C47.317 58.3459 47.4993 58.457 47.4059 58.7C47.3126 58.943 47.0948 58.9148 46.8993 58.9163C45.9067 58.9163 44.9126 58.9474 43.9215 58.9163C42.6074 58.8748 41.6193 58.0837 41.2444 56.8422C41.2015 56.6911 41.1541 56.5489 41.0637 56.2615ZM40.8148 50.1963C40.8148 49.8763 40.797 49.6763 40.8148 49.4793C40.8756 48.937 40.7467 48.7296 40.1259 48.8778C39.3585 49.0615 38.5511 49.0659 37.7748 49.2215C36.483 49.4807 35.1333 49.46 33.8948 49.9815C32.7363 50.4704 32.0459 51.5548 32.117 52.7444C32.1483 53.3343 32.366 53.8989 32.7387 54.3571C33.1115 54.8153 33.62 55.1434 34.1911 55.2941C34.958 55.5124 35.7636 55.5592 36.5507 55.4312C37.3378 55.3032 38.087 55.0035 38.7452 54.5533C40.3378 53.5104 40.7541 51.8659 40.8148 50.1963Z" fill="#FFBC25"/>
<path d="M61.0178 40.7607C61.0178 36.1504 61.0178 31.5395 61.0178 26.9281C61.0178 26.06 61.0622 26.017 61.9067 26.0155C63.3635 26.0155 64.8198 26.0155 66.2756 26.0155C67.1156 26.0155 67.1733 26.0837 67.1733 27.0022V51.7548C67.1733 52.5933 67.16 53.4318 67.1733 54.2733C67.2059 56.0141 68.0237 57.2911 69.5215 58.1459C69.7319 58.2659 70.0178 58.3237 69.9659 58.6393C69.8948 59.0126 69.5645 58.9178 69.3171 58.9193C68.0815 58.9281 66.8459 58.9356 65.6133 58.9193C62.9067 58.8881 61.0415 57.0333 61.0326 54.3267C61.0074 49.8067 61.0178 45.2837 61.0178 40.7607Z" fill="#FFBC25"/>
<path d="M49.3096 40.7163V27.02C49.3096 26.0615 49.3541 26.017 50.3215 26.017C52.3274 26.017 54.3348 26.017 56.3422 26.017C56.6533 26.017 57.0444 25.8955 57.2133 26.3015C57.3822 26.7074 57.0415 26.9133 56.8459 27.1578C55.443 28.9118 54.0237 30.6555 52.6133 32.4037C52.477 32.5741 52.3022 32.7444 52.2444 32.943C52.1215 33.3607 52.3644 33.5696 52.763 33.5844C53.2474 33.6037 53.7333 33.5844 54.2193 33.5963C55.1763 33.6096 55.4785 33.8926 55.4874 34.8718C55.5022 36.2393 55.4874 37.6067 55.4874 38.9741C55.4874 43.936 55.4874 48.898 55.4874 53.86C55.4874 55.7578 56.2015 57.2348 57.9111 58.1563C58.1081 58.2644 58.3378 58.3578 58.2919 58.6304C58.2341 58.9622 57.9452 58.9148 57.7081 58.9148C56.363 58.9148 55.0178 58.9489 53.6726 58.9148C51.2059 58.8393 49.3319 56.9044 49.323 54.4126C49.3067 49.8467 49.323 45.2822 49.323 40.7178L49.3096 40.7163Z" fill="#FFBC25"/>
<path d="M26 85.6378V61.4896H29.197V71.8778H29.3896C29.6244 71.4618 29.8924 71.0654 30.1911 70.6926C30.5896 70.2019 31.0848 69.7985 31.6459 69.5074C32.2652 69.1696 33.0849 69.0007 34.1052 69.0007C35.3632 68.98 36.5995 69.3293 37.6607 70.0052C38.7007 70.6748 39.5185 71.6407 40.1141 72.903C40.7096 74.1652 41.0059 75.6832 41.003 77.457C41.003 79.2348 40.7067 80.7548 40.1141 82.017C39.5215 83.2793 38.7086 84.2531 37.6756 84.9385C36.624 85.624 35.3914 85.9795 34.1363 85.9592C33.1388 85.9592 32.3244 85.7918 31.6933 85.457C31.1234 85.1717 30.6189 84.7712 30.2119 84.2807C29.9052 83.9048 29.6297 83.5044 29.3881 83.0837H29.1215V85.6378H26ZM29.1333 77.4274C29.1129 78.4615 29.2831 79.4905 29.6356 80.463C29.9207 81.2641 30.4241 81.9697 31.0889 82.5C31.7608 83.0013 32.5829 83.2598 33.4207 83.2333C34.3748 83.2333 35.1728 82.978 35.8148 82.4674C36.4825 81.9232 36.9874 81.2056 37.2741 80.3933C37.9337 78.489 37.9379 76.4188 37.2859 74.5118C37.0027 73.708 36.4985 73.0004 35.8311 72.4704C35.1862 71.9706 34.3827 71.7212 33.4207 71.7222C32.4933 71.7222 31.7106 71.9607 31.0726 72.4378C30.4088 72.9524 29.9065 73.6464 29.6252 74.4378C29.2796 75.3958 29.1129 76.4091 29.1333 77.4274Z" fill="#282828"/>
<path d="M48.6667 86.0022C47.697 86.0155 46.7362 85.8163 45.8519 85.4185C45.0401 85.0545 44.3485 84.4673 43.8578 83.7252C43.3699 82.9834 43.1259 82.0743 43.1259 80.9978C43.1259 80.0723 43.3042 79.3099 43.6607 78.7104C44.0096 78.1187 44.507 77.6284 45.1037 77.2881C45.7387 76.9271 46.4229 76.6606 47.1348 76.497C47.8893 76.3178 48.6536 76.1822 49.4237 76.0911C50.4114 75.9765 51.2094 75.8817 51.8178 75.8067C52.4262 75.7316 52.8706 75.6086 53.1511 75.4378C53.2896 75.3496 53.4015 75.2254 53.4749 75.0784C53.5482 74.9315 53.5802 74.7674 53.5674 74.6037V74.5296C53.5674 73.5963 53.3057 72.8728 52.7822 72.3592C52.2588 71.8457 51.4795 71.5889 50.4444 71.5889C49.3669 71.5889 48.5205 71.8259 47.9052 72.3C47.3455 72.7021 46.904 73.2469 46.6267 73.8778L43.6296 73.1933C43.9394 72.267 44.478 71.4338 45.1956 70.7711C45.8823 70.1559 46.6939 69.6965 47.5748 69.4244C48.4925 69.1401 49.4482 68.9977 50.4089 69.0022C51.1117 69.0068 51.8122 69.0838 52.4993 69.2318C53.2354 69.3842 53.9381 69.6683 54.5733 70.0704C55.2423 70.5046 55.789 71.1029 56.1615 71.8081C56.5753 72.5607 56.7817 73.5355 56.7807 74.7326V85.6378H53.6518V83.3933H53.523C53.284 83.8495 52.9695 84.2617 52.5926 84.6126C52.1301 85.0426 51.5895 85.38 51 85.6067C50.255 85.8876 49.4627 86.0219 48.6667 86.0022ZM49.3615 83.4363C50.1499 83.4581 50.9308 83.2776 51.6296 82.9118C52.2272 82.5942 52.7267 82.1193 53.0741 81.5385C53.4006 80.9863 53.5721 80.3563 53.5704 79.7148V77.5978C53.3779 77.7516 53.153 77.8595 52.9126 77.9133C52.5491 78.0181 52.1795 78.1002 51.8059 78.1592C51.3926 78.2274 50.9911 78.2881 50.5985 78.3415L49.6148 78.4748C49.0389 78.5437 48.4725 78.6764 47.9259 78.8704C47.4582 79.0278 47.0385 79.3021 46.7067 79.6674C46.3904 80.0531 46.2289 80.5426 46.2533 81.0407C46.2533 81.8309 46.5452 82.4279 47.1289 82.8318C47.7126 83.2358 48.4578 83.4373 49.3644 83.4363H49.3615Z" fill="#282828"/>
<path d="M63.5333 75.8866V85.6378H60.3363V69.2155H63.4044V71.8822H63.6074C63.9772 71.0219 64.5965 70.2922 65.3852 69.7874C66.1941 69.26 67.2153 68.9963 68.4489 68.9963C69.4748 68.9757 70.4887 69.2201 71.3926 69.7059C72.2409 70.1814 72.9233 70.9052 73.3482 71.78C73.8114 72.7005 74.043 73.8363 74.043 75.1874V85.6333H70.8459V75.577C70.8459 74.3918 70.5363 73.46 69.917 72.7815C69.2978 72.103 68.4459 71.7662 67.3615 71.7711C66.6731 71.7576 65.993 71.9235 65.3882 72.2526C64.8083 72.5787 64.3365 73.0674 64.0311 73.6585C63.6823 74.3482 63.5112 75.1141 63.5333 75.8866Z" fill="#282828"/>
<path d="M87.9985 85.6378H91.923L84.8252 76.2644L91.4726 69.2155H87.6459L81.1022 76.1652H80.8237V61.2244H77.6282V85.6378H80.8237V79.8111L82.4119 78.2229L87.9985 85.6378Z" fill="#282828"/>
</g>
<rect x="5" y="1" width="110" height="110" rx="9" stroke="#CCCCCC" stroke-width="2" shape-rendering="crispEdges"/>
</g>
<defs>
<filter id="filter0_d_6_7357" x="0" y="0" width="120" height="120" filterUnits="userSpaceOnUse" color-interpolation-filters="sRGB">
<feFlood flood-opacity="0" result="BackgroundImageFix"/>
<feColorMatrix in="SourceAlpha" type="matrix" values="0 0 0 0 0 0 0 0 0 0 0 0 0 0 0 0 0 0 127 0" result="hardAlpha"/>
<feOffset dy="4"/>
<feGaussianBlur stdDeviation="2"/>
<feComposite in2="hardAlpha" operator="out"/>
<feColorMatrix type="matrix" values="0 0 0 0 0 0 0 0 0 0 0 0 0 0 0 0 0 0 0.25 0"/>
<feBlend mode="normal" in2="BackgroundImageFix" result="effect1_dropShadow_6_7357"/>
<feBlend mode="normal" in="SourceGraphic" in2="effect1_dropShadow_6_7357" result="shape"/>
</filter>
<clipPath id="clip0_6_7357">
<rect x="6" y="2" width="108" height="108" rx="8" fill="white"/>
</clipPath>
</defs>
</svg>
