<svg width="112" height="112" viewBox="0 0 112 112" fill="none" xmlns="http://www.w3.org/2000/svg">
<g clip-path="url(#clip0_421_555)">
<rect x="2" y="2" width="108" height="108" rx="8" fill="white"/>
<path d="M36.7204 53.4612C36.7554 54.0627 36.7904 55.5841 36.7904 56.1385C36.7904 56.6491 36.7904 58.3611 36.7012 59.099L36.6942 59.1567H39.368C40.6813 59.1567 42.0715 58.7475 42.0715 57.5812C42.0715 56.8502 41.5416 56.3098 40.5519 56.0143C41.2863 55.8185 41.776 55.3166 41.776 54.743C41.776 53.7899 40.6813 53.4315 39.653 53.407H36.7047L36.7204 53.4612ZM38.7857 54.0435C39.9014 54.0523 40.3088 54.2796 40.3088 54.8864C40.3088 55.0543 40.2581 55.2029 40.1584 55.3166C39.9451 55.5736 39.5289 55.7065 38.999 55.6733H38.9728L38.6615 56.4847H38.9728C39.5883 56.4672 40.1234 56.6613 40.398 56.9971C40.5256 57.151 40.5886 57.3328 40.5886 57.5217C40.5886 58.1565 40.029 58.4835 38.9273 58.4835C38.7402 58.4835 38.4394 58.4835 38.2523 58.4765C38.2208 57.6301 38.2069 56.483 38.2069 56.1385C38.2069 55.738 38.2331 54.8479 38.2523 54.0872C38.38 54.061 38.5898 54.0453 38.7874 54.0453" fill="#231F20"/>
<path d="M48.2445 53.407H46.9434L46.9959 54.8567C47.0221 55.5737 47.0466 56.3099 47.0956 57.0268C47.0116 56.803 46.9329 56.6876 46.5377 56.1105C46.536 56.0913 45.1842 54.0103 44.7138 53.4193L44.6998 53.4053H43.1907V53.4595C43.2379 54.061 43.2572 55.5824 43.2572 56.1368C43.2572 56.6474 43.2572 58.3594 43.1855 59.0973L43.1732 59.155H44.518V59.0973C44.441 57.6949 44.441 56.2784 44.441 54.9039C44.4882 55.07 44.5477 55.2134 44.7593 55.5282C44.7768 55.5649 47.0938 58.9382 47.2057 59.1323L47.218 59.1568H48.2952V59.0991C48.2113 58.3611 48.2043 56.6491 48.2043 56.1385C48.2043 55.5842 48.241 54.0628 48.276 53.4612L48.2934 53.407H48.241H48.2445Z" fill="#231F20"/>
<path d="M49.8008 53.4614C49.8532 54.063 49.8742 55.5843 49.8742 56.1387C49.8742 56.6493 49.8742 58.3613 49.7955 59.0992V59.1587H51.3956L51.3886 59.0992C51.3344 58.5676 51.3064 57.5569 51.3012 56.7822C51.3764 56.7857 51.6037 56.7979 51.6037 56.7979L51.831 56.8032C53.9365 56.8032 54.9612 56.2471 54.9612 55.0737C54.9612 53.7394 53.5238 53.4334 52.3259 53.4089H49.8025V53.4631L49.8008 53.4614ZM51.7733 54.1014C52.5235 54.0874 53.0464 54.2396 53.2947 54.5543C53.4084 54.6907 53.4713 54.8691 53.4713 55.072C53.4713 55.9043 52.534 56.0845 51.7523 56.0845L51.4358 56.0652C51.4358 56.0652 51.3606 56.0582 51.3047 56.053C51.2994 55.8606 51.2994 55.6071 51.2994 55.322C51.2994 54.96 51.2994 54.5316 51.3169 54.1329C51.4271 54.1189 51.5932 54.0997 51.7733 54.0997" fill="#231F20"/>
<path d="M58.0127 53.4614C58.0634 54.063 58.0932 55.5843 58.0932 56.1387C58.0932 56.6493 58.0879 58.3613 58.0057 59.0992V59.1587H59.6076L59.5988 59.0992C59.5481 58.5676 59.5184 57.5569 59.5184 56.7822C59.5936 56.7857 59.8069 56.7979 59.8069 56.7979L60.0395 56.8032C62.1449 56.8032 63.1767 56.2471 63.1767 55.0737C63.1767 53.7394 61.7322 53.4334 60.5291 53.4089H58.0145V53.4631L58.0127 53.4614ZM59.9835 54.1014C60.7355 54.0874 61.2583 54.2396 61.5101 54.5543C61.6256 54.6907 61.685 54.8691 61.685 55.072C61.685 55.9043 60.7495 56.0845 59.9765 56.0845L59.66 56.0652C59.66 56.0652 59.5761 56.0582 59.5271 56.053C59.5184 55.8606 59.5184 55.6053 59.5184 55.322C59.5184 54.9565 59.5184 54.5316 59.5341 54.1329C59.6338 54.1189 59.8069 54.0997 59.9853 54.0997" fill="#231F20"/>
<path d="M65.3154 53.407H65.2944L65.2839 53.4367C64.9849 54.2551 63.0665 58.445 62.7623 59.0868L62.736 59.1585H64.1L64.1105 59.127C64.2312 58.7336 64.3921 58.2894 64.5669 57.8137C64.6211 57.8137 65.7053 57.7962 65.7053 57.7962L66.6461 57.8032C66.6461 57.8032 66.7983 57.8137 66.8437 57.8137C67.0868 58.431 67.2722 58.8979 67.3526 59.134L67.3684 59.1585H68.9474L66.3961 53.4087H65.3154V53.407ZM65.7053 55.0997C65.833 55.3743 66.1617 56.1385 66.5342 57.0513C66.4765 57.0548 66.4048 57.0548 66.4048 57.0548L65.7053 57.0635C65.7053 57.0635 64.9796 57.0548 64.859 57.0513C65.1615 56.3221 65.4605 55.6628 65.7053 55.0997Z" fill="#231F20"/>
<path d="M69.591 53.4612C69.6364 54.0627 69.6592 55.5841 69.6592 56.1385C69.6592 56.6491 69.6592 58.3611 69.5717 59.099V59.1585H71.1823L71.1753 59.099C71.0896 58.3558 71.0844 56.6508 71.0844 56.1385C71.0844 55.738 71.0966 54.8479 71.1368 54.1274C71.2592 54.1205 71.4446 54.1012 71.5722 54.1012C72.3172 54.0872 72.8436 54.2411 73.0901 54.5541C73.2073 54.6888 73.2615 54.8724 73.2615 55.0718C73.2615 55.7363 72.6407 56.072 72.0636 56.1017C71.8695 56.1105 71.7261 56.0843 71.7261 56.0843L71.6125 56.065L71.6737 56.1699C72.2455 57.0041 73.1006 58.4485 73.4539 59.1305L73.4643 59.155H75.1833L75.1414 59.078C75.0714 58.9801 73.9505 57.3311 73.4748 56.6281C73.4748 56.6281 73.4539 56.6071 73.4329 56.5861C74.3142 56.3221 74.7409 55.8289 74.7409 55.0718C74.7409 53.748 73.3052 53.4315 72.0916 53.407H69.584L69.5892 53.4612H69.591Z" fill="#231F20"/>
<path d="M77.4602 53.407H75.9265L75.9353 53.4612C75.9755 54.0627 76.007 55.5841 76.007 56.1385C76.007 56.6473 76 58.3558 75.9283 59.099L75.923 59.1567H77.5126L77.5039 59.099C77.4427 58.3558 77.4234 56.6473 77.4234 56.1385C77.4234 55.5841 77.4619 54.0627 77.5039 53.4612V53.407H77.4619H77.4602Z" fill="#231F20"/>
<path d="M78.9606 53.4612C79.006 54.0627 79.034 55.5841 79.034 56.1385C79.034 56.6491 79.034 58.3611 78.9536 59.099L78.9413 59.1567H81.6186C82.9284 59.1567 84.3221 58.7475 84.3221 57.5812C84.3221 56.8502 83.7923 56.3098 82.7938 56.0143C83.5282 55.8185 84.0231 55.3166 84.0231 54.743C84.0231 53.7899 82.9267 53.4315 81.9072 53.407H78.9518L78.9588 53.4612H78.9606ZM81.0241 54.0435C82.1467 54.0523 82.5559 54.2796 82.5559 54.8864C82.5559 55.0543 82.5052 55.2029 82.402 55.3166C82.1992 55.5736 81.7673 55.7065 81.2409 55.6733H81.2147L80.9051 56.4847H81.2147C81.832 56.4672 82.3618 56.6613 82.6364 56.9971C82.771 57.151 82.834 57.3328 82.834 57.5217C82.834 58.1565 82.2726 58.4835 81.1657 58.4835C80.9873 58.4835 80.6883 58.4835 80.4994 58.4765C80.454 57.6301 80.454 56.483 80.454 56.1385C80.454 55.738 80.4697 54.8479 80.4994 54.0872C80.6201 54.061 80.83 54.0453 81.0241 54.0453" fill="#231F20"/>
<path d="M88.2602 53.407H87.183L87.176 53.4333C86.8542 54.3041 84.8257 58.7144 84.6561 59.0798L84.6263 59.1585H85.9956L86.0043 59.1235C86.118 58.7283 86.2771 58.2877 86.4555 57.8033C86.4992 57.8033 87.5869 57.7858 87.5869 57.7858L88.5295 57.7998C88.5295 57.7998 88.6938 57.8015 88.7288 57.8015C88.9771 58.4188 89.1608 58.8892 89.2412 59.1218L89.2569 59.1568H90.843L88.2916 53.4053H88.2567L88.2602 53.407ZM87.5992 55.098C87.7286 55.3656 88.0556 56.1315 88.428 57.0461C88.3703 57.0461 88.3021 57.0513 88.3021 57.0513L87.5992 57.0601C87.5992 57.0601 86.8647 57.0443 86.7563 57.0443C87.0536 56.3099 87.3473 55.6559 87.5992 55.0963" fill="#231F20"/>
<path d="M91.2942 54.8935C91.2942 55.9042 92.3049 56.3099 93.202 56.6824C93.8998 56.9604 94.629 57.2525 94.629 57.7351C94.629 57.8803 94.5993 58.0027 94.5188 58.0901C94.3509 58.2877 94.0117 58.3699 93.4731 58.3402C92.938 58.3192 92.3364 58.1496 91.6597 57.8383L91.3939 57.7106V58.9645L91.5757 59.0099L91.6807 59.0274C92.0147 59.1096 92.6617 59.2617 93.3035 59.2617C94.9927 59.2617 96 58.5885 96 57.4746C96 56.4288 94.9595 56.0214 94.0397 55.6559C93.3612 55.3814 92.6617 55.1103 92.6617 54.6609C92.6617 54.5315 92.6617 54.1555 93.536 54.1555C94.1813 54.1555 94.8074 54.4178 95.1641 54.5542L95.4876 54.6889V54.4738L95.4858 53.4316L95.1641 53.3738C94.8353 53.3074 94.288 53.199 93.7249 53.199C92.2682 53.199 91.2959 53.888 91.2959 54.8952" fill="#231F20"/>
<mask id="mask0_421_555" style="mask-type:luminance" maskUnits="userSpaceOnUse" x="16" y="48" width="17" height="17">
<path d="M32.5568 48H16V64.5568H32.5568V48Z" fill="white"/>
</mask>
<g mask="url(#mask0_421_555)">
<path d="M32.5568 48H16V64.5568H32.5568V48Z" fill="url(#paint0_linear_421_555)"/>
</g>
<mask id="mask1_421_555" style="mask-type:luminance" maskUnits="userSpaceOnUse" x="16" y="48" width="17" height="17">
<path d="M17.2923 48.2957C16.9705 48.2957 16.7624 48.5667 16.7117 48.9462C16.7117 48.9462 16.299 51.1198 16.299 55.7329C16.299 60.346 16.7117 63.3695 16.7117 63.3695C16.7502 63.735 16.9723 64.02 17.2923 64.02H31.623C31.943 64.02 32.1983 63.7665 32.2035 63.3695C32.2035 63.3695 32.0444 59.8336 32.0444 56.3782C32.0444 52.9227 32.2035 48.9462 32.2035 48.9462C32.2123 48.5929 31.943 48.2957 31.623 48.2957H17.2923Z" fill="white"/>
</mask>
<g mask="url(#mask1_421_555)">
<path d="M32.2123 48.2957H16.299V64.0218H32.2123V48.2957Z" fill="url(#paint1_linear_421_555)"/>
</g>
<g style="mix-blend-mode:multiply">
<mask id="mask2_421_555" style="mask-type:luminance" maskUnits="userSpaceOnUse" x="16" y="48" width="17" height="17">
<path d="M32.2123 48.2957H16.299V64.02H32.2123V48.2957Z" fill="white"/>
</mask>
<g mask="url(#mask2_421_555)">
<mask id="mask3_421_555" style="mask-type:luminance" maskUnits="userSpaceOnUse" x="16" y="48" width="17" height="17">
<path d="M17.2766 48.2957C16.9653 48.3044 16.7624 48.5737 16.7135 48.9462C16.7135 48.9462 16.3008 51.1198 16.3008 55.7329C16.3008 60.346 16.7135 63.3695 16.7135 63.3695C16.7519 63.735 16.974 64.02 17.294 64.02H31.623C31.943 64.02 32.1983 63.7665 32.2036 63.3695C32.2036 63.3695 32.0444 59.8336 32.0444 56.3782C32.0444 52.9227 32.2036 48.9462 32.2036 48.9462C32.2106 48.5982 31.9517 48.3061 31.6387 48.2957H17.2766Z" fill="white"/>
</mask>
<g mask="url(#mask3_421_555)">
<path d="M32.2123 48.2957H16.299V64.02H32.2123V48.2957Z" fill="url(#paint2_linear_421_555)"/>
</g>
</g>
</g>
<path d="M28.8565 52.4734C27.8318 53.0732 27.5205 53.1204 26.4083 53.7884L26.4625 53.6643C27.0466 53.0277 27.2984 52.7619 27.6831 52.1989C26.6584 52.2548 25.1685 52.3772 24.1035 52.6115L24.1595 52.4979C25.1248 52.0275 26.9172 51.5606 27.8318 51.4399C27.6079 51.1251 25.7928 50.1441 25.3416 49.9553L25.3941 49.8398C26.7703 49.9955 28.5942 50.639 29.3899 51.1251C29.7256 51.0202 30.0701 51.0097 30.6927 50.9555C30.6927 50.9555 30.6 51.3297 29.9215 51.7966C30.0894 52.2478 29.6854 54.745 29.3514 55.4077C29.3357 54.362 29.2447 53.0435 28.8565 52.4717" fill="#009A7B"/>
<path d="M21.3755 61.4248L21.428 61.3059C20.8841 61.0978 20.3403 60.93 19.8996 60.5173C20.0378 60.1308 20.1969 59.8283 20.454 59.4471L20.5082 59.3299C20.0413 59.3998 19.6181 59.573 19.2124 59.6517C18.8941 59.0921 18.7717 58.3261 18.6108 57.5969L18.5583 57.7106C18.4674 58.5447 18.4324 59.141 18.5496 59.8038C18.2121 59.8982 17.9183 59.9122 17.6473 60.0276L17.5966 60.1395C18.0267 60.4036 18.38 60.6082 18.8679 60.8373C19.1284 61.3951 19.3977 61.7763 19.8367 62.2065L19.8891 62.0894C19.8104 61.7746 19.709 61.5105 19.7475 61.1608C20.2896 61.3182 20.7547 61.4004 21.3738 61.4231" fill="#009A7B"/>
<path d="M22.8847 53.1099C22.8847 53.1099 22.6661 53.4963 22.4912 54.0104H22.4493C23.7258 54.1836 24.9289 54.6994 25.2315 54.8778L25.1772 54.9932C23.8552 54.7589 23.1575 54.7869 22.6643 54.8306C22.1712 54.8796 22.0715 54.939 22.0715 54.939C21.7882 55.5598 21.6221 56.5723 21.5539 56.9465L21.4997 57.0619C21.2584 56.4796 20.9086 55.3185 20.9086 55.3185C20.2424 55.6752 18.7053 57.1179 18.7053 57.1179C19.5516 55.4286 20.4103 54.6575 20.4103 54.6575C20.1147 54.3602 19.3418 54.2081 18.777 54.1853L18.8312 54.0699C19.1844 53.9667 19.9154 53.923 20.4033 53.9003C20.9821 53.8828 21.3318 53.916 21.3318 53.916C21.8477 53.5051 22.6154 53.1466 22.8864 53.1099" fill="#009A7B"/>
<path d="M24.5074 60.374C24.2399 60.7342 24.0125 61.0227 23.717 61.3532C23.2798 61.4739 22.7587 61.4197 22.3548 61.4319L22.3023 61.5456C22.6048 61.703 22.9021 61.7957 23.2186 61.8621C22.9616 62.0964 22.6171 62.2748 22.3775 62.4374L22.3233 62.5511C22.8409 62.4269 23.5212 62.2084 24.0283 61.9111C24.2923 61.9216 24.5407 61.9023 24.719 61.8674C24.719 61.8674 24.7732 61.7502 24.7732 61.7537C24.7418 61.6383 24.6386 61.5666 24.6071 61.4022C25.081 61.0332 25.4255 60.6975 25.8242 60.297L25.8784 60.1833C25.485 60.4544 25.0093 60.8251 24.5494 61.042C24.5302 60.8199 24.5162 60.6258 24.5039 60.374" fill="#009A7B"/>
<path d="M28.9089 52.3579C27.8877 52.9595 27.5729 53.0084 26.4642 53.6747C27.1113 52.9735 27.3351 52.6727 27.7373 52.0869C26.7126 52.1411 25.2244 52.2635 24.1612 52.4996C25.0863 52.0047 26.9207 51.4556 27.8877 51.3262C27.6639 51.0166 25.847 50.0321 25.394 49.8433C26.8332 49.9569 28.5907 50.492 29.4423 51.0131C29.7781 50.9082 30.126 50.903 30.7521 50.8488C30.5912 51.1216 30.586 51.279 29.9739 51.6847C30.1435 52.1376 29.7378 54.6347 29.4038 55.294C29.3916 54.25 29.3007 52.9315 28.9089 52.3597" fill="white"/>
<path d="M21.428 61.306C20.8404 61.0909 20.4172 60.8373 19.952 60.4001C20.0919 60.0172 20.2493 59.7164 20.5099 59.3299C20.0325 59.4016 19.681 59.4558 19.27 59.5345C18.9343 58.947 18.7839 58.3839 18.6125 57.5952C18.5216 58.4293 18.4866 59.0257 18.6038 59.6884C18.2261 59.7933 17.9585 59.8843 17.649 60.0277C18.0844 60.2917 18.4359 60.4981 18.922 60.7237C19.1826 61.2832 19.4537 61.6592 19.8908 62.0894C19.7894 61.7239 19.7614 61.4319 19.8034 61.0437C20.3472 61.2046 20.8107 61.2885 21.428 61.3042" fill="white"/>
<path d="M22.9564 53.0103C22.7745 53.2481 22.5612 53.6905 22.5035 53.8969C24.0161 54.1014 25.2297 54.8796 25.2297 54.8796C23.9077 54.6453 23.2099 54.675 22.715 54.7187C22.2237 54.7642 22.124 54.8237 22.124 54.8237C21.7672 55.6053 21.5522 56.9483 21.5522 56.9483C21.3108 56.3678 20.9628 55.2049 20.9628 55.2049C20.2948 55.5616 18.7595 57.0043 18.7595 57.0043C19.6041 55.3133 20.461 54.5456 20.461 54.5456C20.1672 54.2466 19.3925 54.098 18.8277 54.0717C19.1197 53.9528 19.8734 53.8129 20.4522 53.7867C21.0328 53.7692 21.3808 53.8024 21.3808 53.8024C21.8966 53.395 22.6818 53.0505 22.9529 53.012" fill="white"/>
<path d="M24.5599 60.262C24.2941 60.6222 24.0633 60.9073 23.7678 61.2378C23.2589 61.3812 22.8515 61.4336 22.3566 61.4336C22.6608 61.5893 22.9564 61.6837 23.2746 61.7502C22.9581 62.0404 22.6888 62.2433 22.381 62.4409C22.8987 62.3167 23.5772 62.0981 24.0843 61.7991C24.3483 61.8096 24.5967 61.7939 24.7768 61.7571C24.7296 61.6033 24.6998 61.4896 24.6631 61.292C25.1388 60.9195 25.4868 60.589 25.8837 60.1851C25.4623 60.4788 25.0968 60.6992 24.6089 60.93C24.5862 60.7062 24.5739 60.5173 24.5634 60.262" fill="white"/>
</g>
<rect x="1" y="1" width="110" height="110" rx="9" stroke="#CCCCCC" stroke-width="2"/>
<defs>
<linearGradient id="paint0_linear_421_555" x1="24.0056" y1="47.5926" x2="24.0056" y2="65.0709" gradientUnits="userSpaceOnUse">
<stop stop-color="#009A7B"/>
<stop offset="0.6" stop-color="#77C1B1"/>
<stop offset="1" stop-color="#009A7B"/>
</linearGradient>
<linearGradient id="paint1_linear_421_555" x1="24.1402" y1="43.8924" x2="24.1402" y2="63.5287" gradientUnits="userSpaceOnUse">
<stop stop-color="#009A7B"/>
<stop offset="0.3" stop-color="#77C1B1"/>
<stop offset="0.55" stop-color="#009A7B"/>
<stop offset="0.84" stop-color="#009A7B"/>
<stop offset="1" stop-color="#00A184"/>
</linearGradient>
<linearGradient id="paint2_linear_421_555" x1="24.1385" y1="43.8924" x2="24.1385" y2="63.5287" gradientUnits="userSpaceOnUse">
<stop stop-color="white"/>
<stop offset="0.3" stop-color="white"/>
<stop offset="0.55" stop-color="white"/>
<stop offset="0.84" stop-color="#B1B3B5"/>
<stop offset="0.87" stop-color="#B9BBBD"/>
<stop offset="0.92" stop-color="#D2D3D4"/>
<stop offset="0.99" stop-color="#F9F9F9"/>
<stop offset="1" stop-color="white"/>
</linearGradient>
<clipPath id="clip0_421_555">
<rect x="2" y="2" width="108" height="108" rx="8" fill="white"/>
</clipPath>
</defs>
</svg>
