<svg width="112" height="112" viewBox="0 0 112 112" fill="none" xmlns="http://www.w3.org/2000/svg">
<g clip-path="url(#clip0_518_550)">
<rect x="2" y="2" width="108" height="108" rx="8" fill="white"/>
<path d="M26.5293 54.8975L22.9314 51.2996C22.1843 50.5524 21.2877 50.5984 20.9773 50.6559C18.1495 51.1272 16 53.5756 16 56.5413C16 59.8403 18.6668 62.5071 21.9544 62.5071C25.1614 62.5071 27.7823 59.9438 27.8972 56.7597C27.8972 56.7252 27.8857 56.6102 27.8053 56.5643C27.7133 56.5068 27.5179 56.5298 27.5179 56.5298H25.2189C25.2189 56.5298 25.0005 56.5298 24.9316 56.5643C24.8856 56.5872 24.8281 56.6332 24.8281 56.6332L22.0233 59.4265C21.9774 59.4725 21.9084 59.4725 21.8624 59.4265L19.0347 56.5987C18.9887 56.5528 18.9887 56.4838 19.0347 56.4378L21.8624 53.6101C21.9084 53.5641 21.9774 53.5641 22.0233 53.6101L24.6097 56.2079C24.6097 56.2079 24.7476 56.3344 24.8741 56.3573C24.989 56.3918 25.1614 56.2654 25.1614 56.2654L26.5293 54.8975Z" fill="#2D64AA"/>
<path fill-rule="evenodd" clip-rule="evenodd" d="M27.8398 53.0468L25.9086 51.1272C23.7591 49.0466 21.2762 50.4834 21.2762 50.4834C21.2762 50.4834 22.3337 49.9202 23.6786 51.3456L26.8627 54.5526L27.8053 53.6215C27.8053 53.6215 27.9202 53.4836 27.9432 53.3457C27.9662 53.2192 27.8398 53.0468 27.8398 53.0468Z" fill="#2D64AA"/>
<path fill-rule="evenodd" clip-rule="evenodd" d="M35.5643 55.9205H37.3805V52.8169H35.5643V55.9205ZM38.553 52.8054V56.4608H35.5758V57.139H34.3919V56.4608H31.4147V52.8054C31.4147 52.518 31.6446 52.2766 31.9434 52.2766H34.3919V51.7019H35.5529V52.2766H38.0243C38.3231 52.2766 38.553 52.518 38.553 52.8054ZM32.5872 55.9205H34.3919V52.8169H32.5872V55.9205Z" fill="#221F20"/>
<path d="M46.1857 55.6791H44.6453V54.4032H46.0937V53.8629H44.6453V53.1733H46.1857V52.6445H41.944V53.1733H43.4499V53.8629H42.036V54.4032H43.4499V55.6791H41.944V56.2079H46.1857V55.6791ZM47.0938 51.6559H41.0359C40.7486 51.6559 40.5187 51.8858 40.5187 52.1847V57.1275H47.611V52.1732C47.611 51.8858 47.3811 51.6559 47.0938 51.6559ZM41.6911 52.1732H46.4385V56.6217H41.6911V52.1732ZM45.6684 54.5986H44.8522L45.1511 55.1389C45.1511 55.1389 45.2431 55.3458 45.4155 55.4377C45.5649 55.5182 45.7948 55.4952 45.7948 55.4952H46.1627V55.0009H45.8983L45.6684 54.5986Z" fill="#221F20"/>
<path d="M56.8874 52.8514H56.4621V52.4491C56.4621 52.1502 56.2207 51.9088 55.9218 51.9088H54.462V51.5984H53.3585V51.9088H51.8986V52.4606H53.3585V52.8629H51.7147V53.4146H53.3585V53.794H51.8986V54.3457H53.3585V54.7481H51.7722V55.2998H53.3585V55.6791H51.6342V56.2424H53.3585V56.6332H52.2205C51.7722 56.6332 51.3699 56.5068 51.0135 56.2769C51.2319 55.955 51.3699 55.5642 51.3699 55.1389L51.3814 53.656H50.7032C51.2894 53.2767 51.5883 52.5985 51.5883 51.8513C51.5883 51.8398 49.3468 51.8513 49.3468 51.8513L49.3353 52.4146H50.6342C50.5307 53.0468 50.0479 53.5411 49.4272 53.6675V54.2193H50.5652V55.0239C50.5652 55.2653 50.4963 55.4837 50.3928 55.6906C50.2204 55.4377 50.0824 55.1504 50.025 54.8285L49.4157 54.84C49.4617 55.3458 49.6571 55.8056 49.956 56.1849C49.7721 56.3114 49.5652 56.3918 49.3353 56.4148V57.162C49.7951 57.162 50.2204 57.0011 50.5652 56.7482C50.9905 57.0355 51.4963 57.1965 52.0481 57.1965H56.807V56.6332H54.4505V56.2424H56.4621V55.6791H54.4505V55.2998H56.4621V54.7481H54.4505V54.3457H56.4736V53.4146H56.8874V52.8514ZM54.462 53.4146H55.3126V53.794H54.462V53.4146ZM54.462 52.4606H55.3126V52.8629H54.462V52.4606Z" fill="#221F20"/>
<path d="M79.7393 51.7594H84.2683V52.3226H79.7393V51.7594Z" fill="#221F20"/>
<path d="M78.7967 54.0813V57.1965H77.6932V54.932C77.4863 55.0584 77.2679 55.1619 77.0495 55.2653L76.5897 54.5411C77.5898 54.0584 78.5438 53.2422 78.9921 52.3571L79.6703 52.9434C79.4175 53.3457 79.1186 53.748 78.7967 54.0813Z" fill="#221F20"/>
<path d="M82.6245 57.1965C83.1648 57.1965 83.5901 56.7597 83.5901 56.2194V54.0469H84.4407V53.4836H79.4634V54.0469H82.3946V56.3229C82.3946 56.4953 82.2452 56.6447 82.0728 56.6447H80.7739V57.208L82.6245 57.1965Z" fill="#221F20"/>
<path d="M78.7278 51.9203C78.291 52.7824 77.6013 53.4951 76.7736 53.9664L76.3483 53.2192C77.061 52.7364 77.6357 52.1962 78.0955 51.3456L78.7278 51.9203Z" fill="#221F20"/>
<path fill-rule="evenodd" clip-rule="evenodd" d="M60.9911 55.1044C60.9911 55.1044 60.5313 55.5527 60.037 55.8975V53.0238L58.0254 53.0353V53.5871H58.9105V56.4148C58.6002 56.5183 58.3473 56.5757 58.3473 56.5757L58.9105 57.2769C58.9105 57.2769 59.4623 57.139 60.06 56.8401C60.6233 56.5528 61.0026 56.1734 61.0026 56.1734L60.9911 55.1044ZM62.6579 52.8744V52.1962H64.2327V52.8859C64.2442 53.1388 64.1637 53.7825 65.2557 53.7825H65.9454V53.2652H65.7615C65.3247 53.2882 65.3592 53.1043 65.3592 52.9778V52.1617C65.3592 51.8743 65.1293 51.6444 64.8304 51.6444H61.5314V52.9778C61.5314 53.0813 61.5658 53.2882 61.129 53.2652L60.9336 53.2537V53.7825H61.6003C62.7728 53.84 62.6464 53.1273 62.6579 52.8744ZM64.566 56.001C65.0833 55.6447 65.5431 55.2193 65.9339 54.7251V54.0239H60.8991V54.6561H64.6695C64.3246 55.0009 63.9338 55.3113 63.5085 55.5642C63.1062 55.3573 62.7268 55.1274 62.3705 54.84H61.0141C61.4394 55.2998 61.9337 55.7021 62.4739 56.047C61.9682 56.2194 61.4164 56.3229 60.8532 56.3458V57.162C61.8072 57.162 62.7153 56.9551 63.5315 56.5872C64.3706 56.9436 65.2787 57.139 66.2443 57.1505V56.3229C65.6465 56.2769 65.0948 56.1734 64.566 56.001ZM58.4047 52.3686H60.6348V51.7709H58.4047V52.3686Z" fill="#221F20"/>
<path fill-rule="evenodd" clip-rule="evenodd" d="M73.0263 56.0815C72.8194 56.2424 72.3366 56.3688 72.1412 56.3803V54.3802H75.0264V52.1502C75.0264 51.8513 74.785 51.6099 74.4976 51.6099H71.0951V56.4263H70.8767V57.185H71.417C71.9573 57.185 72.532 57.0815 73.0263 56.8861V56.0815ZM74.3367 56.07C74.7275 55.6906 75.0494 55.2308 75.2678 54.7251H74.4517C74.2792 55.0469 74.0608 55.3343 73.785 55.5872C73.762 55.5642 73.67 55.4377 73.647 55.4148C73.4976 55.2193 73.3941 55.0124 73.3137 54.7366H72.4745C72.5665 55.0239 72.7389 55.4377 72.8654 55.6561C73.4631 56.6217 74.3712 57.185 75.3023 57.1965V56.4148C74.9804 56.4148 74.6356 56.2769 74.3367 56.07ZM72.1297 53.84H73.9689V53.2882H72.1297V53.84ZM72.1297 52.7364H73.9689V52.1732H72.1297V52.7364Z" fill="#221F20"/>
<path d="M69.4629 56.2654V54.9665H70.7388V54.4147H69.4629V53.794H70.6353V53.2422H68.4973C68.6467 53.0813 68.7962 52.8859 68.9226 52.702L70.7273 52.6905V52.1617H69.2674C69.3594 51.9893 69.4514 51.8169 69.5203 51.6329L68.7042 51.3456C68.4053 52.1732 67.7961 52.8974 67.1409 53.2997L67.6812 53.9434C67.7616 53.8859 67.8421 53.84 67.9225 53.7825H68.5318V54.4147H67.7271V54.9665H68.5433V56.5183C68.3594 56.5528 68.1754 56.5642 67.9915 56.5757L68.5318 57.2539C69.3479 57.1735 70.1066 56.8746 70.7273 56.4033V55.4952C70.348 55.8171 69.9227 56.0815 69.4629 56.2654Z" fill="#221F20"/>
<path d="M34.413 59.237H33.9987C33.9648 59.0285 33.871 58.8604 33.7172 58.7327C33.5479 58.592 33.3238 58.5217 33.0449 58.5217C32.7062 58.5217 32.4443 58.6168 32.2592 58.807C32.0638 59.0051 31.9661 59.2904 31.9661 59.663C31.9661 59.9601 32.0456 60.2051 32.2045 60.3979C32.3921 60.622 32.6645 60.7341 33.0215 60.7341C33.5609 60.7341 33.8866 60.4748 33.9987 59.9562H34.413C34.3791 60.2767 34.2384 60.5438 33.9909 60.7575C33.7277 60.9816 33.4032 61.0937 33.0176 61.0937C32.6162 61.0937 32.284 60.9842 32.0208 60.7653C31.7081 60.5048 31.5517 60.123 31.5517 59.62C31.5517 59.1953 31.6768 58.85 31.927 58.5842C32.1902 58.3028 32.5524 58.162 33.0136 58.162C33.355 58.162 33.6495 58.2363 33.8971 58.3848C34.2098 58.5751 34.3818 58.8591 34.413 59.237Z" fill="black"/>
<path d="M34.5945 61.0233V58.2089H34.9854V59.2839H34.9932C35.1548 59.0311 35.4219 58.9047 35.7945 58.9047C36.0551 58.9047 36.2597 58.9608 36.4082 59.0728C36.5724 59.1979 36.6545 59.3829 36.6545 59.6279V61.0233H36.2636V59.706C36.2636 59.3907 36.0616 59.2331 35.6577 59.2331C35.4701 59.2331 35.3137 59.2839 35.1887 59.3855C35.0532 59.4976 34.9854 59.65 34.9854 59.8429V61.0233H34.5945Z" fill="black"/>
<path d="M36.8985 61.0233V58.9751H37.2893V61.0233H36.8985ZM36.8985 58.6389V58.2089H37.2893V58.6389H36.8985Z" fill="black"/>
<path d="M37.5304 61.0233V58.9751H37.9213V59.2839H37.9291C38.0907 59.0311 38.3578 58.9047 38.7305 58.9047C38.9911 58.9047 39.1956 58.9608 39.3442 59.0728C39.5083 59.1979 39.5904 59.3829 39.5904 59.6279V61.0233H39.1995V59.706C39.1995 59.3907 38.9976 59.2331 38.5937 59.2331C38.406 59.2331 38.2497 59.2839 38.1246 59.3855C37.9891 59.4976 37.9213 59.65 37.9213 59.8429V61.0233H37.5304Z" fill="black"/>
<path d="M40.1979 59.6161H39.8305C39.8774 59.1419 40.2162 58.9047 40.8468 58.9047C41.1048 58.9047 41.3145 58.9425 41.4761 59.0181C41.6846 59.1145 41.7888 59.2709 41.7888 59.4871V60.5894C41.7888 60.7067 41.8475 60.7653 41.9647 60.7653C42.0038 60.7653 42.0494 60.7601 42.1015 60.7497V61.0233C42.0077 61.039 41.9061 61.0468 41.7966 61.0468C41.5856 61.0468 41.4683 60.9517 41.4448 60.7614C41.3693 60.8631 41.2455 60.9452 41.0735 61.0077C40.9145 61.065 40.7478 61.0937 40.5732 61.0937C40.2683 61.0937 40.0442 61.0233 39.9008 60.8826C39.794 60.7784 39.7406 60.6429 39.7406 60.4761C39.7406 60.2833 39.8057 60.1373 39.936 60.0383C40.0689 59.9393 40.2969 59.8728 40.6201 59.8389L41.0657 59.792C41.1882 59.779 41.2755 59.7582 41.3276 59.7295C41.3901 59.693 41.4214 59.6318 41.4214 59.5458C41.4214 59.3217 41.2246 59.2096 40.8312 59.2096C40.4194 59.2096 40.2083 59.3451 40.1979 59.6161ZM41.4214 60.2142V59.9523C41.3719 60.007 41.2442 60.0474 41.0383 60.0735L40.5966 60.1282C40.4377 60.1491 40.3204 60.1842 40.2448 60.2337C40.1692 60.2833 40.1315 60.3601 40.1315 60.4644C40.1315 60.5608 40.1745 60.639 40.2605 60.6989C40.3491 60.7588 40.465 60.7888 40.6083 60.7888C40.8351 60.7888 41.0266 60.7354 41.1829 60.6285C41.3419 60.5191 41.4214 60.381 41.4214 60.2142Z" fill="black"/>
<path d="M45.9769 59.237H45.5625C45.5287 59.0285 45.4348 58.8604 45.2811 58.7327C45.1117 58.592 44.8876 58.5217 44.6088 58.5217C44.27 58.5217 44.0081 58.6168 43.8231 58.807C43.6276 59.0051 43.5299 59.2904 43.5299 59.663C43.5299 59.9601 43.6094 60.2051 43.7684 60.3979C43.956 60.622 44.2283 60.7341 44.5853 60.7341C45.1247 60.7341 45.4505 60.4748 45.5625 59.9562H45.9769C45.943 60.2767 45.8023 60.5438 45.5547 60.7575C45.2915 60.9816 44.9671 61.0937 44.5814 61.0937C44.1801 61.0937 43.8478 60.9842 43.5846 60.7653C43.2719 60.5048 43.1156 60.123 43.1156 59.62C43.1156 59.1953 43.2407 58.85 43.4908 58.5842C43.754 58.3028 44.1163 58.162 44.5775 58.162C44.9189 58.162 45.2133 58.2363 45.4609 58.3848C45.7736 58.5751 45.9456 58.8591 45.9769 59.237Z" fill="black"/>
<path d="M46.0685 59.9992C46.0685 59.6865 46.1675 59.4298 46.3655 59.2292C46.5792 59.0129 46.8763 58.9047 47.2568 58.9047C47.6372 58.9047 47.9356 59.0129 48.1519 59.2292C48.3473 59.4298 48.445 59.6865 48.445 59.9992C48.445 60.3119 48.3473 60.5686 48.1519 60.7693C47.9356 60.9855 47.6372 61.0937 47.2568 61.0937C46.8763 61.0937 46.5792 60.9855 46.3655 60.7693C46.1675 60.5686 46.0685 60.3119 46.0685 59.9992ZM48.0307 59.9992C48.0307 59.7881 47.9721 59.6135 47.8548 59.4754C47.7193 59.3139 47.52 59.2331 47.2568 59.2331C46.9936 59.2331 46.7942 59.3139 46.6587 59.4754C46.5414 59.6135 46.4828 59.7881 46.4828 59.9992C46.4828 60.2103 46.5414 60.3849 46.6587 60.523C46.7942 60.6846 46.9936 60.7653 47.2568 60.7653C47.52 60.7653 47.7193 60.6846 47.8548 60.523C47.9721 60.3849 48.0307 60.2103 48.0307 59.9992Z" fill="black"/>
<path d="M48.5959 61.0233V58.9751H48.9868V59.2839H48.9946C49.1562 59.0311 49.4233 58.9047 49.7959 58.9047C50.0565 58.9047 50.2611 58.9608 50.4096 59.0728C50.5738 59.1979 50.6559 59.3829 50.6559 59.6279V61.0233H50.265V59.706C50.265 59.3907 50.063 59.2331 49.6591 59.2331C49.4715 59.2331 49.3151 59.2839 49.1901 59.3855C49.0546 59.4976 48.9868 59.65 48.9868 59.8429V61.0233H48.5959Z" fill="black"/>
<path d="M50.7826 60.3784H51.1735C51.1735 60.4878 51.2191 60.579 51.3103 60.652C51.4223 60.7432 51.5917 60.7888 51.8184 60.7888C52.2354 60.7888 52.4439 60.682 52.4439 60.4683C52.4439 60.3901 52.4191 60.3315 52.3696 60.2924C52.3097 60.2481 52.2054 60.2155 52.0569 60.1947L51.4119 60.1087C51.2556 60.0878 51.1266 60.0318 51.0249 59.9406C50.9129 59.8416 50.8569 59.7165 50.8569 59.5653C50.8569 59.3595 50.9402 59.1979 51.107 59.0806C51.2738 58.9634 51.5018 58.9047 51.7911 58.9047C52.4165 58.9047 52.7501 59.134 52.7917 59.5927H52.4009C52.3956 59.4832 52.3422 59.3933 52.2406 59.323C52.1311 59.2474 51.98 59.2096 51.7872 59.2096C51.4276 59.2096 51.2477 59.3139 51.2477 59.5223C51.2477 59.5953 51.2712 59.6513 51.3181 59.6904C51.365 59.7295 51.4549 59.7582 51.5878 59.7764L52.1429 59.8507C52.6198 59.9132 52.8582 60.0943 52.8582 60.394C52.8582 60.6259 52.767 60.8005 52.5846 60.9178C52.4048 61.0351 52.1533 61.0937 51.8302 61.0937C51.1657 61.0937 50.8165 60.8553 50.7826 60.3784Z" fill="black"/>
<path d="M53.1544 58.9751V58.3458H53.5453V58.9751H54.1316V59.28H53.5453V60.5425C53.5453 60.6911 53.6508 60.7653 53.8619 60.7653C53.9375 60.7653 54.0274 60.7562 54.1316 60.738V61.0663C54.0274 61.0846 53.8814 61.0937 53.6938 61.0937C53.3342 61.0937 53.1544 60.9321 53.1544 60.609V59.28H52.7322V58.9751H53.1544Z" fill="black"/>
<path d="M54.1946 61.0233V58.9751H54.5855V59.3503H54.5933C54.7627 59.0533 54.9972 58.9047 55.2969 58.9047C55.3855 58.9047 55.4598 58.9125 55.5197 58.9282V59.3503C55.4103 59.3243 55.3178 59.3112 55.2422 59.3112C55.0415 59.3112 54.8839 59.3673 54.7692 59.4793C54.6467 59.5992 54.5855 59.7673 54.5855 59.9836V61.0233H54.1946Z" fill="black"/>
<path d="M57.6118 58.9751V61.0233H57.221V60.7145H57.2131C57.0516 60.9673 56.7845 61.0937 56.4118 61.0937C56.1512 61.0937 55.9467 61.0377 55.7981 60.9256C55.634 60.8005 55.5519 60.6155 55.5519 60.3706V58.9751H55.9428V60.2924C55.9428 60.6077 56.1447 60.7653 56.5486 60.7653C56.7363 60.7653 56.8926 60.7145 57.0177 60.6129C57.1532 60.5008 57.221 60.3484 57.221 60.1556V58.9751H57.6118Z" fill="black"/>
<path d="M59.5327 60.2728H59.9471C59.8689 60.5673 59.7373 60.781 59.5523 60.9139C59.3829 61.0338 59.1588 61.0937 58.8799 61.0937C58.5021 61.0937 58.2154 60.979 58.02 60.7497C57.8506 60.5569 57.7659 60.3106 57.7659 60.0109C57.7659 59.693 57.8584 59.4324 58.0434 59.2292C58.2441 59.0129 58.5216 58.9047 58.876 58.9047C59.1601 58.9047 59.3959 58.9673 59.5835 59.0924C59.7816 59.2253 59.9002 59.4142 59.9392 59.6591H59.5249C59.4754 59.3751 59.2682 59.2331 58.9034 59.2331C58.6636 59.2331 58.4812 59.306 58.3562 59.452C58.2389 59.5849 58.1802 59.7673 58.1802 59.9992C58.1802 60.2311 58.2389 60.4136 58.3562 60.5465C58.4812 60.6924 58.6636 60.7653 58.9034 60.7653C59.2396 60.7653 59.4493 60.6012 59.5327 60.2728Z" fill="black"/>
<path d="M60.2554 58.9751V58.3458H60.6463V58.9751H61.2326V59.28H60.6463V60.5425C60.6463 60.6911 60.7518 60.7653 60.9629 60.7653C61.0385 60.7653 61.1284 60.7562 61.2326 60.738V61.0663C61.1284 61.0846 60.9825 61.0937 60.7948 61.0937C60.4352 61.0937 60.2554 60.9321 60.2554 60.609V59.28H59.8332V58.9751H60.2554Z" fill="black"/>
<path d="M61.2956 61.0233V58.9751H61.6865V61.0233H61.2956ZM61.2956 58.6389V58.2089H61.6865V58.6389H61.2956Z" fill="black"/>
<path d="M61.8377 59.9992C61.8377 59.6865 61.9367 59.4298 62.1348 59.2292C62.3485 59.0129 62.6455 58.9047 63.026 58.9047C63.4065 58.9047 63.7048 59.0129 63.9211 59.2292C64.1166 59.4298 64.2143 59.6865 64.2143 59.9992C64.2143 60.3119 64.1166 60.5686 63.9211 60.7693C63.7048 60.9855 63.4065 61.0937 63.026 61.0937C62.6455 61.0937 62.3485 60.9855 62.1348 60.7693C61.9367 60.5686 61.8377 60.3119 61.8377 59.9992ZM63.8 59.9992C63.8 59.7881 63.7413 59.6135 63.6241 59.4754C63.4885 59.3139 63.2892 59.2331 63.026 59.2331C62.7628 59.2331 62.5634 59.3139 62.4279 59.4754C62.3107 59.6135 62.252 59.7881 62.252 59.9992C62.252 60.2103 62.3107 60.3849 62.4279 60.523C62.5634 60.6846 62.7628 60.7653 63.026 60.7653C63.2892 60.7653 63.4885 60.6846 63.6241 60.523C63.7413 60.3849 63.8 60.2103 63.8 59.9992Z" fill="black"/>
<path d="M64.3652 61.0233V58.9751H64.756V59.2839H64.7639C64.9254 59.0311 65.1925 58.9047 65.5652 58.9047C65.8258 58.9047 66.0303 58.9608 66.1789 59.0728C66.343 59.1979 66.4251 59.3829 66.4251 59.6279V61.0233H66.0342V59.706C66.0342 59.3907 65.8323 59.2331 65.4284 59.2331C65.2407 59.2331 65.0844 59.2839 64.9593 59.3855C64.8238 59.4976 64.756 59.65 64.756 59.8429V61.0233H64.3652Z" fill="black"/>
<path d="M67.8026 61.0233V58.2324H69.3544C69.9277 58.2324 70.2144 58.4656 70.2144 58.9321C70.2144 59.2266 70.0789 59.4233 69.8079 59.5223V59.5301C70.1597 59.6109 70.3356 59.8402 70.3356 60.2181C70.3356 60.437 70.2639 60.6207 70.1206 60.7693C69.959 60.9386 69.7362 61.0233 69.4522 61.0233H67.8026ZM68.217 59.3855H69.3466C69.4925 59.3855 69.6059 59.3477 69.6867 59.2722C69.7623 59.2044 69.8 59.1119 69.8 58.9946C69.8 58.7262 69.6411 58.592 69.3232 58.592H68.217V59.3855ZM68.217 60.6637H69.3388C69.7271 60.6637 69.9212 60.5061 69.9212 60.1907C69.9212 59.8937 69.7388 59.7451 69.374 59.7451H68.217V60.6637Z" fill="black"/>
<path d="M70.9114 59.6161H70.544C70.5909 59.1419 70.9297 58.9047 71.5603 58.9047C71.8183 58.9047 72.028 58.9425 72.1896 59.0181C72.3981 59.1145 72.5023 59.2709 72.5023 59.4871V60.5894C72.5023 60.7067 72.561 60.7653 72.6782 60.7653C72.7173 60.7653 72.7629 60.7601 72.815 60.7497V61.0233C72.7212 61.039 72.6196 61.0468 72.5101 61.0468C72.2991 61.0468 72.1818 60.9517 72.1583 60.7614C72.0828 60.8631 71.959 60.9452 71.787 61.0077C71.628 61.065 71.4613 61.0937 71.2867 61.0937C70.9818 61.0937 70.7577 61.0233 70.6143 60.8826C70.5075 60.7784 70.4541 60.6429 70.4541 60.4761C70.4541 60.2833 70.5192 60.1373 70.6495 60.0383C70.7824 59.9393 71.0104 59.8728 71.3336 59.8389L71.7792 59.792C71.9017 59.779 71.989 59.7582 72.0411 59.7295C72.1036 59.693 72.1349 59.6318 72.1349 59.5458C72.1349 59.3217 71.9381 59.2096 71.5447 59.2096C71.1329 59.2096 70.9218 59.3451 70.9114 59.6161ZM72.1349 60.2142V59.9523C72.0854 60.007 71.9577 60.0474 71.7518 60.0735L71.3101 60.1282C71.1512 60.1491 71.0339 60.1842 70.9583 60.2337C70.8828 60.2833 70.845 60.3601 70.845 60.4644C70.845 60.5608 70.888 60.639 70.974 60.6989C71.0626 60.7588 71.1785 60.7888 71.3218 60.7888C71.5486 60.7888 71.7401 60.7354 71.8965 60.6285C72.0554 60.5191 72.1349 60.381 72.1349 60.2142Z" fill="black"/>
<path d="M72.848 61.0233V58.9751H73.2389V59.2839H73.2467C73.4083 59.0311 73.6754 58.9047 74.048 58.9047C74.3086 58.9047 74.5132 58.9608 74.6617 59.0728C74.8259 59.1979 74.908 59.3829 74.908 59.6279V61.0233H74.5171V59.706C74.5171 59.3907 74.3151 59.2331 73.9112 59.2331C73.7236 59.2331 73.5672 59.2839 73.4422 59.3855C73.3067 59.4976 73.2389 59.65 73.2389 59.8429V61.0233H72.848Z" fill="black"/>
<path d="M75.5741 59.8507L76.6139 58.9751H77.208L76.2464 59.7451L77.2823 61.0233H76.7507L75.9337 59.9992L75.5741 60.2846V61.0233H75.1832V58.2089H75.5741V59.8507Z" fill="black"/>
<path d="M78.4032 61.0233V58.2324H78.8175V61.0233H78.4032Z" fill="black"/>
<path d="M79.1589 61.0233V58.9751H79.5497V59.2839H79.5576C79.7191 59.0311 79.9862 58.9047 80.3589 58.9047C80.6195 58.9047 80.824 58.9608 80.9726 59.0728C81.1367 59.1979 81.2188 59.3829 81.2188 59.6279V61.0233H80.8279V59.706C80.8279 59.3907 80.626 59.2331 80.2221 59.2331C80.0344 59.2331 79.8781 59.2839 79.753 59.3855C79.6175 59.4976 79.5497 59.65 79.5497 59.8429V61.0233H79.1589Z" fill="black"/>
<path d="M83.2726 61.0233V60.7614H83.2648C83.1918 60.8657 83.0824 60.9478 82.9365 61.0077C82.7931 61.065 82.6433 61.0937 82.4869 61.0937C82.1664 61.0937 81.9032 60.9986 81.6973 60.8083C81.481 60.6103 81.3729 60.3445 81.3729 60.0109C81.3729 59.6774 81.481 59.4103 81.6973 59.2096C81.9032 59.022 82.1664 58.9282 82.4869 58.9282C82.6459 58.9282 82.7957 58.9568 82.9365 59.0142C83.0798 59.0715 83.1892 59.1536 83.2648 59.2604H83.2726V58.2089H83.6635V61.0233H83.2726ZM81.7872 60.0109C81.7872 60.222 81.8459 60.3966 81.9631 60.5347C82.0987 60.6885 82.2902 60.7653 82.5377 60.7653C82.7879 60.7653 82.9808 60.6885 83.1163 60.5347C83.2361 60.3966 83.2961 60.222 83.2961 60.0109C83.2961 59.779 83.227 59.5953 83.0889 59.4598C82.9508 59.3243 82.7671 59.2565 82.5377 59.2565C82.3084 59.2565 82.126 59.3243 81.9905 59.4598C81.855 59.5953 81.7872 59.779 81.7872 60.0109Z" fill="black"/>
<path d="M83.8143 59.9992C83.8143 59.6865 83.9133 59.4298 84.1113 59.2292C84.325 59.0129 84.6221 58.9047 85.0026 58.9047C85.383 58.9047 85.6814 59.0129 85.8977 59.2292C86.0931 59.4298 86.1909 59.6865 86.1909 59.9992C86.1909 60.3119 86.0931 60.5686 85.8977 60.7693C85.6814 60.9855 85.383 61.0937 85.0026 61.0937C84.6221 61.0937 84.325 60.9855 84.1113 60.7693C83.9133 60.5686 83.8143 60.3119 83.8143 59.9992ZM85.7765 59.9992C85.7765 59.7881 85.7179 59.6135 85.6006 59.4754C85.4651 59.3139 85.2658 59.2331 85.0026 59.2331C84.7394 59.2331 84.54 59.3139 84.4045 59.4754C84.2872 59.6135 84.2286 59.7881 84.2286 59.9992C84.2286 60.2103 84.2872 60.3849 84.4045 60.523C84.54 60.6846 84.7394 60.7653 85.0026 60.7653C85.2658 60.7653 85.4651 60.6846 85.6006 60.523C85.7179 60.3849 85.7765 60.2103 85.7765 59.9992Z" fill="black"/>
<path d="M86.3417 61.0233V58.9751H86.7326V59.2839H86.7404C86.902 59.0311 87.1691 58.9047 87.5417 58.9047C87.8023 58.9047 88.0069 58.9608 88.1554 59.0728C88.3196 59.1979 88.4017 59.3829 88.4017 59.6279V61.0233H88.0108V59.706C88.0108 59.3907 87.8089 59.2331 87.4049 59.2331C87.2173 59.2331 87.061 59.2839 86.9359 59.3855C86.8004 59.4976 86.7326 59.65 86.7326 59.8429V61.0233H86.3417Z" fill="black"/>
<path d="M90.8542 60.1165H88.9701C88.9857 60.3171 89.0717 60.4774 89.2281 60.5973C89.3714 60.7093 89.5369 60.7653 89.7245 60.7653C90.0529 60.7653 90.2731 60.6442 90.3851 60.4018H90.7995C90.7083 60.6337 90.5584 60.811 90.3499 60.9334C90.1675 61.0403 89.9656 61.0937 89.7441 61.0937C89.3636 61.0937 89.0665 60.9855 88.8528 60.7693C88.6548 60.5686 88.5558 60.3119 88.5558 59.9992C88.5558 59.6865 88.6548 59.4298 88.8528 59.2292C89.0665 59.0129 89.3636 58.9047 89.7441 58.9047C90.049 58.9047 90.3017 58.992 90.5024 59.1666C90.7369 59.3725 90.8542 59.6722 90.8542 60.0657V60.1165ZM88.9818 59.8116H90.4398C90.4112 59.6292 90.3317 59.4871 90.2014 59.3855C90.0711 59.2839 89.9121 59.2331 89.7245 59.2331C89.5369 59.2331 89.3753 59.2839 89.2398 59.3855C89.0965 59.4924 89.0105 59.6344 88.9818 59.8116Z" fill="black"/>
<path d="M90.9011 60.3784H91.2919C91.2919 60.4878 91.3376 60.579 91.4288 60.652C91.5408 60.7432 91.7102 60.7888 91.9369 60.7888C92.3539 60.7888 92.5623 60.682 92.5623 60.4683C92.5623 60.3901 92.5376 60.3315 92.4881 60.2924C92.4281 60.2481 92.3239 60.2155 92.1754 60.1947L91.5304 60.1087C91.374 60.0878 91.245 60.0318 91.1434 59.9406C91.0313 59.8416 90.9753 59.7165 90.9753 59.5653C90.9753 59.3595 91.0587 59.1979 91.2255 59.0806C91.3923 58.9634 91.6203 58.9047 91.9095 58.9047C92.535 58.9047 92.8685 59.134 92.9102 59.5927H92.5193C92.5141 59.4832 92.4607 59.3933 92.3591 59.323C92.2496 59.2474 92.0985 59.2096 91.9056 59.2096C91.546 59.2096 91.3662 59.3139 91.3662 59.5223C91.3662 59.5953 91.3897 59.6513 91.4366 59.6904C91.4835 59.7295 91.5734 59.7582 91.7063 59.7764L92.2613 59.8507C92.7382 59.9132 92.9767 60.0943 92.9767 60.394C92.9767 60.6259 92.8855 60.8005 92.703 60.9178C92.5232 61.0351 92.2718 61.0937 91.9486 61.0937C91.2841 61.0937 90.9349 60.8553 90.9011 60.3784Z" fill="black"/>
<path d="M93.1009 61.0233V58.9751H93.4918V61.0233H93.1009ZM93.1009 58.6389V58.2089H93.4918V58.6389H93.1009Z" fill="black"/>
<path d="M94.0964 59.6161H93.7289C93.7758 59.1419 94.1146 58.9047 94.7452 58.9047C95.0032 58.9047 95.213 58.9425 95.3746 59.0181C95.5831 59.1145 95.6873 59.2709 95.6873 59.4871V60.5894C95.6873 60.7067 95.7459 60.7653 95.8632 60.7653C95.9023 60.7653 95.9479 60.7601 96 60.7497V61.0233C95.9062 61.039 95.8046 61.0468 95.6951 61.0468C95.484 61.0468 95.3668 60.9517 95.3433 60.7614C95.2677 60.8631 95.144 60.9452 94.972 61.0077C94.813 61.065 94.6462 61.0937 94.4716 61.0937C94.1667 61.0937 93.9426 61.0233 93.7993 60.8826C93.6925 60.7784 93.639 60.6429 93.639 60.4761C93.639 60.2833 93.7042 60.1373 93.8345 60.0383C93.9674 59.9393 94.1954 59.8728 94.5185 59.8389L94.9641 59.792C95.0866 59.779 95.1739 59.7582 95.226 59.7295C95.2886 59.693 95.3199 59.6318 95.3199 59.5458C95.3199 59.3217 95.1231 59.2096 94.7296 59.2096C94.3179 59.2096 94.1068 59.3451 94.0964 59.6161ZM95.3199 60.2142V59.9523C95.2703 60.007 95.1427 60.0474 94.9368 60.0735L94.4951 60.1282C94.3361 60.1491 94.2189 60.1842 94.1433 60.2337C94.0677 60.2833 94.0299 60.3601 94.0299 60.4644C94.0299 60.5608 94.0729 60.639 94.1589 60.6989C94.2475 60.7588 94.3635 60.7888 94.5068 60.7888C94.7335 60.7888 94.9251 60.7354 95.0814 60.6285C95.2404 60.5191 95.3199 60.381 95.3199 60.2142Z" fill="black"/>
</g>
<rect x="1" y="1" width="110" height="110" rx="9" stroke="#CCCCCC" stroke-width="2"/>
<defs>
<clipPath id="clip0_518_550">
<rect x="2" y="2" width="108" height="108" rx="8" fill="white"/>
</clipPath>
</defs>
</svg>
