<svg width="112" height="112" viewBox="0 0 112 112" fill="none" xmlns="http://www.w3.org/2000/svg">
<g clip-path="url(#clip0_642_1031)">
<rect x="2" y="2" width="108" height="108" rx="8" fill="white"/>
<path d="M16 39.9999V45.7366H29.0382V42.6638L16 39.9999Z" fill="#F05A22"/>
<path d="M43.8728 45.7366L29.0367 39.9999L29.038 42.6746L43.8728 45.7366Z" fill="#FDBC38"/>
<path d="M29.0382 45.7366L43.8677 45.7366L29.0381 42.6634L29.0382 45.7366Z" fill="#F79433"/>
<path d="M77.937 52.9509L43.9003 45.7394L77.937 57.0705V52.9509Z" fill="#FDBC38"/>
<path d="M42.2231 54.0498H43.8651V54.7237C44.1817 54.445 44.7358 53.935 45.723 53.935C46.8475 53.935 47.1641 54.6094 47.24 54.8272C47.9102 54.1818 48.3537 53.935 48.9981 53.935C49.3101 53.935 49.5269 53.9828 49.7377 54.0624C50.6191 54.4024 50.6416 55.1874 50.6547 55.6946V59.8356H48.9883V56.065C48.9757 55.6576 48.9654 55.4276 48.8586 55.2431C48.8361 55.1958 48.6745 54.9082 48.26 54.9082C48.1205 54.9082 47.8512 54.942 47.7233 55.0122C47.2676 55.2342 47.2503 55.6075 47.24 55.9222V59.8356H45.6125V56.0889C45.6125 55.6459 45.62 54.9082 44.8749 54.9082C44.71 54.9082 44.4192 54.9565 44.2735 55.0361C43.8651 55.2904 43.8548 55.6576 43.8651 56.1709V59.8356H42.2231V54.0498ZM34.828 55.7826C34.8158 55.3621 34.8158 54.8314 34.4486 54.4235C34.2871 54.2423 33.9091 53.942 33.1307 53.942C32.209 53.942 31.8386 54.3439 31.4204 54.7148V54.0558H29.7802V59.8394H31.4204V55.9311C31.4339 55.6178 31.4475 55.2258 31.9327 55.0024C32.0329 54.9616 32.1945 54.912 32.3776 54.912C33.098 54.912 33.1556 55.5138 33.1668 55.7007C33.1921 55.8894 33.1921 56.0777 33.1921 56.3072V59.8394H34.828V55.7826ZM63.1917 55.7826C63.1744 55.3621 63.1744 54.8314 62.8123 54.4235C62.6536 54.2423 62.2667 53.942 61.4958 53.942C60.5765 53.942 60.2032 54.3439 59.7864 54.7148V54.0558H58.1434V59.8394H59.7864V55.9311C59.8018 55.6178 59.8126 55.2258 60.2941 55.0024C60.3985 54.9616 60.5563 54.912 60.7455 54.912C61.4607 54.912 61.5164 55.5138 61.5314 55.7007C61.5506 55.8894 61.5506 56.0777 61.5506 56.3072V59.8394H63.1917V55.7826ZM56.6092 54.7237C57.1796 55.3813 57.1796 56.3414 57.1796 56.85C57.1796 57.3848 57.1796 58.4592 56.5328 59.1748C55.8055 59.9846 54.8257 59.9846 54.4328 59.9846C54.0145 59.9846 53.7902 59.9616 53.3757 59.8356C51.9449 59.4188 51.6874 58.2208 51.6874 57.0907C51.6874 56.4968 51.6874 55.3222 52.5182 54.5818C53.2474 53.9219 54.1794 53.9036 54.5831 53.9036C54.9306 53.9036 55.9174 53.9036 56.6092 54.7237ZM55.4584 57.7848C55.4922 57.4644 55.5067 57.153 55.5067 56.8205C55.5067 56.5727 55.4922 56.3193 55.4716 56.065C55.4481 55.7082 55.3671 54.7813 54.482 54.7813C54.3012 54.7813 54.1466 54.8174 53.9832 54.8975C53.5106 55.1757 53.4418 55.7615 53.4123 56.065C53.3757 56.4453 53.3589 56.7661 53.3589 56.998C53.3589 57.2556 53.3757 57.5202 53.3973 57.7848C53.4151 58.1388 53.5003 59.1172 54.4328 59.1172C54.5831 59.1172 54.7353 59.0802 54.8763 59.0146C55.3671 58.743 55.4214 58.1033 55.4584 57.7848ZM40.5244 54.3799C41.0284 54.8216 41.0195 55.4431 41.0195 55.8932V59.8394H39.4538L39.444 59.4643C39.444 59.4643 38.8899 59.9907 37.7224 59.9907C37.2493 59.9907 36.7543 59.8591 36.4377 59.4975C36.2059 59.2488 36.033 58.8208 36.033 58.2517C36.033 58.0222 36.0485 57.3277 36.7393 56.85C37.1795 56.5633 37.558 56.472 38.5761 56.3517L39.5138 56.2613V55.8018C39.5138 55.5255 39.5063 55.2815 39.4009 55.0946C39.2042 54.7771 38.8234 54.7771 38.6914 54.7771C38.2834 54.7771 38.0666 54.9616 37.9781 55.0857C37.7898 55.3148 37.7786 55.6351 37.7683 55.8721H36.33C36.33 55.6028 36.3159 55.2501 36.514 54.9021C36.9697 54.0863 37.7683 53.9036 38.8295 53.9036C39.1798 53.9036 39.3039 53.9294 39.6613 53.994C40.02 54.0465 40.2566 54.1476 40.5244 54.3799ZM39.5138 57.013C38.9485 57.0612 38.7939 57.0715 38.5546 57.1291C38.1012 57.2349 37.7017 57.4939 37.7017 58.1033C37.7017 58.2255 37.7121 58.3533 37.7448 58.4859C37.868 58.8868 38.1603 59.0057 38.4834 59.0057C38.6248 59.0057 38.9719 58.9884 39.2098 58.7706C39.5063 58.5084 39.5138 58.1337 39.5138 57.8611V57.013ZM28.1677 54.3799C28.6777 54.8216 28.6665 55.4431 28.6665 55.8932V59.8394H27.0976L27.0854 59.4643C27.0854 59.4643 26.5351 59.9907 25.3661 59.9907C24.8917 59.9907 24.399 59.8591 24.0875 59.4975C23.852 59.2488 23.6801 58.8208 23.6801 58.2517C23.6801 58.0222 23.6866 57.3277 24.3873 56.85C24.8224 56.5633 25.2078 56.472 26.2213 56.3517L27.1599 56.2613V55.8018C27.1599 55.5255 27.1477 55.2815 27.0423 55.0946C26.8507 54.7771 26.4658 54.7771 26.3337 54.7771C25.9305 54.7771 25.7146 54.9616 25.6223 55.0857C25.4368 55.3148 25.4279 55.6351 25.4115 55.8721H23.9747C23.9747 55.6028 23.963 55.2501 24.1578 54.9021C24.6135 54.0863 25.4115 53.9036 26.4733 53.9036C26.8217 53.9036 26.9491 53.9294 27.3097 53.994C27.6666 54.0465 27.9031 54.1476 28.1677 54.3799ZM27.1599 57.013C26.5922 57.0612 26.4363 57.0715 26.1993 57.1291C25.7515 57.2349 25.3446 57.4939 25.3446 58.1033C25.3446 58.2255 25.3558 58.3533 25.3895 58.4859C25.516 58.8868 25.8068 59.0057 26.1337 59.0057C26.2658 59.0057 26.6124 58.9884 26.8582 58.7706C27.1477 58.5084 27.1599 58.1337 27.1599 57.8611V57.013ZM21.5768 52.6532C22.3547 53.5046 22.5973 54.8975 22.5973 55.7283C22.5973 58.8709 21.4428 60.0192 18.8679 60.0192H16.0002V51.6743H18.8679C19.7455 51.6743 20.7787 51.7872 21.5768 52.6532ZM20.6607 57.0565C20.7436 56.5957 20.7403 56.1493 20.7403 55.6946C20.7403 54.439 20.3965 53.6582 20.0879 53.306C19.6467 52.796 19.2454 52.7576 18.7456 52.7576H17.8787V58.9327C17.8787 58.9327 17.7593 58.9449 18.2721 58.9449C20.1877 58.9449 20.5216 57.7848 20.6607 57.0565Z" fill="#004E39"/>
<path d="M43.8795 45.7394L77.9223 45.7591V52.9509L43.8795 45.7394Z" fill="#F05A22"/>
<path d="M77.9223 45.7591V52.9509L95.9995 57.071L95.9916 45.7592L77.9223 45.7591Z" fill="#F79433"/>
<path d="M46.9052 71.6266V69.9124L46.1755 71.0229H46.1605L45.4243 69.9237V71.6266H44.8758V68.995H45.4894L46.1755 70.0979L46.8621 68.995H47.4536V71.6266H46.9052ZM49.0099 71.6561C48.3083 71.6561 47.892 71.2655 47.892 70.4988V68.995H48.4413V70.4834C48.4413 70.9086 48.668 71.1273 49.0174 71.1273C49.3663 71.1273 49.593 70.9166 49.593 70.5016V68.995H50.1414V70.4791C50.1414 71.2692 49.711 71.6561 49.0099 71.6561ZM51.1291 69.5429V70.0914H52.2808V70.6398H51.1291V71.6266H50.5802V68.995H52.6096V69.5429H51.1291ZM54.0825 71.6598C53.2699 71.6598 52.7201 71.0889 52.7201 70.3185V70.311C52.7201 69.571 53.2887 68.9622 54.0797 68.9622C54.5494 68.9622 54.8286 69.0886 55.1002 69.3223L54.7363 69.756C54.5358 69.5898 54.3654 69.4909 54.0638 69.4909C53.6451 69.4909 53.3228 69.8605 53.3228 70.3035V70.311C53.3228 70.7896 53.6432 71.1386 54.1059 71.1386C54.3157 71.1386 54.4745 71.0861 54.6403 70.9821V70.6398H54.0357V70.0914H55.1882V71.2467C54.9138 71.4744 54.5602 71.6598 54.0825 71.6598Z" fill="#393C3E"/>
<path d="M41.9377 68.3378C41.6506 68.3378 41.378 68.3987 41.1321 68.5097C40.8858 68.3987 40.6132 68.3378 40.3261 68.3378C39.2358 68.3378 38.3516 69.2211 38.3516 70.3114C38.3516 71.4008 39.2358 72.2855 40.3261 72.2855C40.6132 72.2855 40.8858 72.2232 41.1321 72.1131C41.378 72.2232 41.6506 72.2855 41.9377 72.2855C43.028 72.2855 43.9122 71.4008 43.9122 70.3114C43.9122 69.2211 43.028 68.3378 41.9377 68.3378ZM41.1321 72.0954C40.1463 72.0954 39.3468 71.2959 39.3468 70.3114C39.3468 69.3251 40.1463 68.5275 41.1321 68.5275C42.118 68.5275 42.917 69.3251 42.917 70.3114C42.917 71.2959 42.118 72.0954 41.1321 72.0954ZM41.9536 70.3114C41.9536 70.7648 41.5855 71.1324 41.1321 71.1324C40.6783 71.1324 40.3102 70.7648 40.3102 70.3114C40.3102 69.8576 40.6783 69.4904 41.1321 69.4904C41.5855 69.4904 41.9536 69.8576 41.9536 70.3114Z" fill="#DE2D36"/>
<path d="M16.8233 69.0844H17.4237L18.2368 71.547H17.7609L17.5642 70.9372H16.6238L16.4304 71.547H16L16.8233 69.0844ZM16.7311 70.6028H17.4575L17.0964 69.4595L16.7311 70.6028Z" fill="#393C3E"/>
<path d="M19.3976 69.7447H19.8149V70.0206C19.9006 69.852 20.0973 69.7068 20.3628 69.7068C20.597 69.7068 20.7829 69.8075 20.8724 70.0309C21.0105 69.8075 21.2583 69.7068 21.4826 69.7068C21.8128 69.7068 22.0816 69.9105 22.0816 70.4065V71.5465H21.6648V70.4337C21.6648 70.1686 21.551 70.0548 21.3445 70.0548C21.1379 70.0548 20.9482 70.1934 20.9482 70.4683V71.5465H20.5314V70.4337C20.5314 70.1686 20.4139 70.0548 20.2111 70.0548C20.0041 70.0548 19.8149 70.1934 19.8149 70.4683V71.5465H19.3976V69.7447Z" fill="#393C3E"/>
<path d="M22.4399 70.6651V70.6375C22.4399 70.0797 22.8226 69.7069 23.3363 69.7069C23.7841 69.7069 24.1873 69.9724 24.1873 70.6169V70.7372H22.8675C22.8811 71.0787 23.0534 71.2711 23.364 71.2711C23.615 71.2711 23.7461 71.1714 23.777 70.9953H24.1803C24.1217 71.3746 23.815 71.5812 23.3532 71.5812C22.8226 71.5812 22.4399 71.2327 22.4399 70.6651ZM23.7738 70.4581C23.7527 70.1485 23.5939 70.0108 23.3363 70.0108C23.0844 70.0108 22.9158 70.1794 22.8745 70.4581H23.7738Z" fill="#393C3E"/>
<path d="M24.5596 69.7447H24.9759V70.0206C25.0626 69.852 25.2588 69.7068 25.5239 69.7068C25.7585 69.7068 25.9445 69.8075 26.0339 70.0309C26.1721 69.8075 26.4203 69.7068 26.6442 69.7068C26.9748 69.7068 27.2437 69.9105 27.2437 70.4065V71.5465H26.8268V70.4337C26.8268 70.1686 26.7126 70.0548 26.5065 70.0548C26.2995 70.0548 26.1103 70.1934 26.1103 70.4683V71.5465H25.693V70.4337C25.693 70.1686 25.5759 70.0548 25.3726 70.0548C25.1656 70.0548 24.9759 70.1934 24.9759 70.4683V71.5465H24.5596V69.7447Z" fill="#393C3E"/>
<path d="M28.1397 71.2571V71.547H27.7224V68.9121H28.1397V70.0347C28.239 69.8628 28.4634 69.7074 28.7289 69.7074C29.1799 69.7074 29.5284 70.0417 29.5284 70.6239V70.652C29.5284 71.2299 29.1935 71.5812 28.7289 71.5812C28.4432 71.5812 28.2357 71.4402 28.1397 71.2571ZM29.1012 70.6581V70.6305C29.1012 70.231 28.8942 70.0347 28.6217 70.0347C28.3322 70.0347 28.1257 70.231 28.1257 70.6305V70.6581C28.1257 71.0613 28.3219 71.2505 28.6254 71.2505C28.9322 71.2505 29.1012 71.044 29.1012 70.6581Z" fill="#393C3E"/>
<path d="M29.7826 70.6651V70.6375C29.7826 70.0797 30.1657 69.7069 30.679 69.7069C31.1267 69.7069 31.53 69.9724 31.53 70.6169V70.7372H30.2102C30.2242 71.0787 30.3966 71.2711 30.7062 71.2711C30.9581 71.2711 31.0893 71.1714 31.1197 70.9953H31.5234C31.4649 71.3746 31.1581 71.5812 30.6959 71.5812C30.1657 71.5812 29.7826 71.2327 29.7826 70.6651ZM31.1164 70.4581C31.0958 70.1485 30.9371 70.0108 30.679 70.0108C30.427 70.0108 30.2584 70.1794 30.2172 70.4581H31.1164Z" fill="#393C3E"/>
<path d="M31.9018 69.7447H32.3187V70.0824C32.4325 69.8553 32.6015 69.7209 32.905 69.7176V70.1063C32.5392 70.1096 32.3187 70.2271 32.3187 70.6098V71.5465H31.9018V69.7447Z" fill="#393C3E"/>
<path d="M33.9695 70.6651V70.6375C33.9695 70.0797 34.3653 69.7069 34.8964 69.7069C35.4237 69.7069 35.82 70.0764 35.82 70.6267V70.6548C35.82 71.2159 35.4237 71.5812 34.8931 71.5812C34.362 71.5812 33.9695 71.2121 33.9695 70.6651ZM35.3928 70.6581V70.6342C35.3928 70.2619 35.206 70.0347 34.8964 70.0347C34.5863 70.0347 34.3967 70.2586 34.3967 70.6305V70.6581C34.3967 71.0262 34.5793 71.2571 34.8964 71.2571C35.206 71.2571 35.3928 71.0262 35.3928 70.6581Z" fill="#393C3E"/>
<path d="M36.2677 70.0581H36.0228V69.7447H36.2677V69.5035C36.2677 69.1073 36.4883 68.8942 36.8742 68.8942C36.9745 68.8942 37.0363 68.9045 37.1117 68.9289V69.2525C37.0634 69.2352 36.9983 69.2216 36.9225 69.2216C36.7534 69.2216 36.6846 69.3317 36.6846 69.4867V69.7447H37.0948V70.0581H36.6846V71.5465H36.2677V70.0581Z" fill="#393C3E"/>
<path d="M55.8917 71.8565L56.2045 71.0407L56.6017 71.198L56.1498 71.9703L55.8917 71.8565Z" fill="#393C3E"/>
<path d="M57.7384 71.0468C57.7384 70.6267 58.1444 70.4759 58.6619 70.4759H58.8858V70.3827C58.8858 70.141 58.8034 70.0211 58.5584 70.0211C58.3411 70.0211 58.2334 70.1242 58.2147 70.304H57.8105C57.8447 69.883 58.1791 69.7074 58.5823 69.7074C58.986 69.7074 59.3026 69.8736 59.3026 70.3654V71.547H58.8919V71.3264C58.7762 71.4814 58.617 71.5812 58.3411 71.5812C58.0109 71.5812 57.7384 71.4229 57.7384 71.0468ZM58.8858 70.9166V70.7377H58.6722C58.3556 70.7377 58.1519 70.8103 58.1519 71.0299C58.1519 71.1822 58.2334 71.2814 58.4409 71.2814C58.6966 71.2814 58.8858 71.1475 58.8858 70.9166Z" fill="#393C3E"/>
<path d="M60.5011 71.6088H60.9221C60.9563 71.7877 61.0945 71.8907 61.3666 71.8907C61.6902 71.8907 61.8691 71.7287 61.8691 71.4051V71.1405C61.7703 71.3128 61.5455 71.4739 61.2804 71.4739C60.8294 71.4739 60.481 71.1367 60.481 70.6168V70.592C60.481 70.0858 60.8252 69.7069 61.2912 69.7069C61.5877 69.7069 61.7661 69.8422 61.8691 70.0207V69.7448H62.2869V71.4126C62.2822 71.9432 61.9281 72.2078 61.3703 72.2078C60.8046 72.2078 60.5489 71.9526 60.5011 71.6088ZM61.8836 70.6023V70.5784C61.8836 70.238 61.6972 70.0342 61.397 70.0342C61.0875 70.0342 60.9086 70.2581 60.9086 70.5859V70.6131C60.9086 70.947 61.1151 71.1536 61.3835 71.1536C61.6729 71.1536 61.8836 70.947 61.8836 70.6023Z" fill="#393C3E"/>
<path d="M62.7927 71.5469H63.2091V68.912H62.7927V71.5469Z" fill="#393C3E"/>
<path d="M63.5954 70.6651V70.6375C63.5954 70.0797 63.9926 69.7069 64.5228 69.7069C65.0501 69.7069 65.4454 70.0764 65.4454 70.6267V70.6548C65.4454 71.2159 65.0501 71.5812 64.519 71.5812C63.9884 71.5812 63.5954 71.2121 63.5954 70.6651ZM65.0183 70.6581V70.6342C65.0183 70.2619 64.8328 70.0347 64.5228 70.0347C64.2122 70.0347 64.0226 70.2586 64.0226 70.6305V70.6581C64.0226 71.0262 64.2057 71.2571 64.5228 71.2571C64.8328 71.2571 65.0183 71.0262 65.0183 70.6581Z" fill="#393C3E"/>
<path d="M66.2387 71.2571V71.547H65.8219V68.9121H66.2387V70.0347C66.3385 69.8628 66.5624 69.7074 66.8275 69.7074C67.2794 69.7074 67.6274 70.0417 67.6274 70.6239V70.652C67.6274 71.2299 67.293 71.5812 66.8275 71.5812C66.5427 71.5812 66.3357 71.4402 66.2387 71.2571ZM67.2002 70.6581V70.6305C67.2002 70.231 66.9937 70.0347 66.7216 70.0347C66.4317 70.0347 66.2252 70.231 66.2252 70.6305V70.6581C66.2252 71.0613 66.4205 71.2505 66.7239 71.2505C67.0312 71.2505 67.2002 71.044 67.2002 70.6581Z" fill="#393C3E"/>
<path d="M67.8714 71.0468C67.8714 70.6267 68.2789 70.4759 68.795 70.4759H69.0193V70.3827C69.0193 70.141 68.9369 70.0211 68.6924 70.0211C68.4751 70.0211 68.3678 70.1242 68.3472 70.304H67.9435C67.9787 69.883 68.3126 69.7074 68.7158 69.7074C69.1195 69.7074 69.4366 69.8736 69.4366 70.3654V71.547H69.0259V71.3264C68.9083 71.4814 68.7495 71.5812 68.4751 71.5812C68.144 71.5812 67.8714 71.4229 67.8714 71.0468ZM69.0193 70.9166V70.7377H68.8048C68.4882 70.7377 68.2859 70.8103 68.2859 71.0299C68.2859 71.1822 68.3678 71.2814 68.5739 71.2814C68.8296 71.2814 69.0193 71.1475 69.0193 70.9166Z" fill="#393C3E"/>
<path d="M69.926 71.5469H70.3428V68.912H69.926V71.5469Z" fill="#393C3E"/>
<path d="M71.7413 70.0581H71.4968V69.7447H71.7413V69.5035C71.7413 69.1073 71.9586 68.8942 72.3412 68.8942C72.4447 68.8942 72.5023 68.9045 72.5684 68.9256V69.2497C72.5201 69.2282 72.4682 69.2216 72.3928 69.2216C72.227 69.2216 72.1576 69.3317 72.1576 69.4867V69.7447H72.5684V70.0581H72.1576V71.5465H71.7413V70.0581Z" fill="#393C3E"/>
<path d="M72.8372 69.2119C72.8372 69.0737 72.9473 68.9702 73.0854 68.9702C73.2236 68.9702 73.3337 69.0737 73.3337 69.2119C73.3337 69.3458 73.2236 69.4498 73.0854 69.4498C72.9473 69.4498 72.8372 69.3458 72.8372 69.2119ZM72.8817 69.7448H73.2995V71.5465H72.8817V69.7448Z" fill="#393C3E"/>
<path d="M73.8053 69.7447H74.2226V70.0309C74.3087 69.8553 74.5083 69.7068 74.8047 69.7068C75.1672 69.7068 75.422 69.9176 75.422 70.4126V71.5465H75.0052V70.4515C75.0052 70.1789 74.8937 70.0548 74.6459 70.0548C74.4118 70.0548 74.2226 70.1995 74.2226 70.4861V71.5465H73.8053V69.7447Z" fill="#393C3E"/>
<path d="M75.7686 71.0468C75.7686 70.6267 76.1751 70.4759 76.6931 70.4759H76.9169V70.3827C76.9169 70.141 76.834 70.0211 76.59 70.0211C76.3713 70.0211 76.2659 70.1242 76.2453 70.304H75.8416C75.8763 69.883 76.2107 69.7074 76.6139 69.7074C77.0172 69.7074 77.3338 69.8736 77.3338 70.3654V71.547H76.9235V71.3264C76.8069 71.4814 76.6477 71.5812 76.3713 71.5812C76.0411 71.5812 75.7686 71.4229 75.7686 71.0468ZM76.9169 70.9166V70.7377H76.7024C76.3863 70.7377 76.1826 70.8103 76.1826 71.0299C76.1826 71.1822 76.2659 71.2814 76.4715 71.2814C76.7273 71.2814 76.9169 71.1475 76.9169 70.9166Z" fill="#393C3E"/>
<path d="M77.8124 69.7447H78.2292V70.0309C78.3154 69.8553 78.5154 69.7068 78.8123 69.7068C79.1734 69.7068 79.4286 69.9176 79.4286 70.4126V71.5465H79.0113V70.4515C79.0113 70.1789 78.9013 70.0548 78.654 70.0548C78.4194 70.0548 78.2292 70.1995 78.2292 70.4861V71.5465H77.8124V69.7447Z" fill="#393C3E"/>
<path d="M79.7879 70.6684V70.6403C79.7879 70.0694 80.193 69.7069 80.6969 69.7069C81.0964 69.7069 81.4725 69.8867 81.5193 70.3827H81.117C81.0828 70.141 80.9241 70.0417 80.7039 70.0417C80.4173 70.0417 80.215 70.2619 80.215 70.6342V70.6618C80.215 71.0538 80.4075 71.2604 80.7142 71.2604C80.9344 71.2604 81.124 71.1302 81.1484 70.8754H81.5306C81.5001 71.288 81.1859 71.5812 80.6969 71.5812C80.1803 71.5812 79.7879 71.2435 79.7879 70.6684Z" fill="#393C3E"/>
<path d="M81.8547 69.2119C81.8547 69.0737 81.9647 68.9702 82.1034 68.9702C82.2406 68.9702 82.3502 69.0737 82.3502 69.2119C82.3502 69.3458 82.2406 69.4498 82.1034 69.4498C81.9647 69.4498 81.8547 69.3458 81.8547 69.2119ZM81.8992 69.7448H82.3165V71.5465H81.8992V69.7448Z" fill="#393C3E"/>
<path d="M82.6912 71.0468C82.6912 70.6267 83.0986 70.4759 83.6157 70.4759H83.8395V70.3827C83.8395 70.141 83.7566 70.0211 83.5122 70.0211C83.2953 70.0211 83.1885 70.1242 83.1679 70.304H82.7642C82.7984 69.883 83.1328 69.7074 83.5356 69.7074C83.9393 69.7074 84.2554 69.8736 84.2554 70.3654V71.547H83.8461V71.3264C83.7299 71.4814 83.5703 71.5812 83.2953 71.5812C82.9642 71.5812 82.6912 71.4229 82.6912 71.0468ZM83.8395 70.9166V70.7377H83.625C83.3084 70.7377 83.1052 70.8103 83.1052 71.0299C83.1052 71.1822 83.1885 71.2814 83.3951 71.2814C83.6499 71.2814 83.8395 71.1475 83.8395 70.9166Z" fill="#393C3E"/>
<path d="M84.7448 71.5469H85.1621V68.912H84.7448V71.5469Z" fill="#393C3E"/>
<path d="M86.3892 71.6088H86.8093C86.8444 71.7877 86.9816 71.8907 87.2537 71.8907C87.5778 71.8907 87.7572 71.7287 87.7572 71.4051V71.1405C87.6579 71.3128 87.4331 71.4739 87.1675 71.4739C86.7161 71.4739 86.3686 71.1367 86.3686 70.6168V70.592C86.3686 70.0858 86.7128 69.7069 87.1783 69.7069C87.4748 69.7069 87.6537 69.8422 87.7572 70.0207V69.7448H88.174V71.4126C88.1712 71.9432 87.8157 72.2078 87.2575 72.2078C86.6922 72.2078 86.4374 71.9526 86.3892 71.6088ZM87.7712 70.6023V70.5784C87.7712 70.238 87.5848 70.0342 87.2846 70.0342C86.9751 70.0342 86.7952 70.2581 86.7952 70.5859V70.6131C86.7952 70.947 87.0027 71.1536 87.2715 71.1536C87.561 71.1536 87.7712 70.947 87.7712 70.6023Z" fill="#393C3E"/>
<path d="M88.6695 69.7447H89.0873V70.0824C89.2006 69.8553 89.3701 69.7209 89.6722 69.7176V70.1063C89.3069 70.1096 89.0873 70.2271 89.0873 70.6098V71.5465H88.6695V69.7447Z" fill="#393C3E"/>
<path d="M89.8825 70.6651V70.6375C89.8825 70.0797 90.2792 69.7069 90.8098 69.7069C91.3372 69.7069 91.7334 70.0764 91.7334 70.6267V70.6548C91.7334 71.2159 91.3372 71.5812 90.807 71.5812C90.2755 71.5812 89.8825 71.2121 89.8825 70.6651ZM91.3063 70.6581V70.6342C91.3063 70.2619 91.1199 70.0347 90.8098 70.0347C90.4993 70.0347 90.3097 70.2586 90.3097 70.6305V70.6581C90.3097 71.0262 90.4928 71.2571 90.8098 71.2571C91.1199 71.2571 91.3063 71.0262 91.3063 70.6581Z" fill="#393C3E"/>
<path d="M92.0912 70.8988V69.7448H92.509V70.851C92.509 71.1231 92.6228 71.2468 92.863 71.2468C93.0869 71.2468 93.2831 71.1025 93.2831 70.8164V69.7448H93.7009V71.547H93.2831V71.2641C93.1937 71.4402 93.0049 71.5812 92.7118 71.5812C92.3568 71.5812 92.0912 71.3775 92.0912 70.8988Z" fill="#393C3E"/>
<path d="M94.1941 69.7448H94.61V70.0342C94.7102 69.8623 94.9341 69.7068 95.2005 69.7068C95.6511 69.7068 96 70.0412 96 70.6234V70.6515C96 71.2294 95.6647 71.5812 95.2005 71.5812C94.9134 71.5812 94.7074 71.4397 94.61 71.2641V72.1633H94.1941V69.7448ZM95.5729 70.6576V70.6304C95.5729 70.2305 95.3654 70.0342 95.0933 70.0342C94.8039 70.0342 94.5959 70.2305 94.5959 70.6304V70.6576C94.5959 71.0608 94.7926 71.25 95.0961 71.25C95.4019 71.25 95.5729 71.0435 95.5729 70.6576Z" fill="#393C3E"/>
</g>
<rect x="1" y="1" width="110" height="110" rx="9" stroke="#CCCCCC" stroke-width="2"/>
<defs>
<clipPath id="clip0_642_1031">
<rect x="2" y="2" width="108" height="108" rx="8" fill="white"/>
</clipPath>
</defs>
</svg>
