<svg width="112" height="112" viewBox="0 0 112 112" fill="none" xmlns="http://www.w3.org/2000/svg">
<g clip-path="url(#clip0_528_50)">
<rect x="2" y="2" width="108" height="108" rx="8" fill="white"/>
<path d="M35.4656 17.9675C33.31 19.04 31.6872 20.9069 30.9273 23.1943L16.4688 66.6689C15.7026 68.9473 15.8812 71.4145 16.9627 73.5765C18.0427 75.723 19.9133 77.3389 22.1858 78.0977L69.6116 94.0222C71.9267 94.782 74.3689 94.6177 76.5277 93.5298C78.6966 92.4382 80.3066 90.5921 81.0627 88.2988L95.5362 44.8306C97.1143 40.1057 94.5323 34.9682 89.8021 33.3906L42.3715 17.4619C40.0655 16.709 37.6228 16.8759 35.4656 17.9675Z" fill="#0055A2"/>
<path d="M58.6469 59.7172C56.0681 62.6007 52.8496 64.9105 49.1393 66.3482L46.9821 67.1793V47.0367L49.1052 47.8566C52.8342 49.2805 56.0537 51.601 58.6469 54.4638C60.4867 51.4914 61.6363 48.0544 61.8639 44.3212C62.4503 34.6513 56.3978 25.7998 48.0918 22.7195L41.2469 20.4257C38.1518 19.3989 34.87 21.1105 33.8411 24.1881L19.3299 67.6892C18.3111 70.7791 20.0376 74.1401 23.136 75.1599L56.0537 86.1532C59.4206 82.5822 61.5916 77.8557 61.9037 72.5763C62.1972 67.8743 60.9727 63.4413 58.6469 59.7172ZM39.6023 68.4214H36.3418V45.8398H39.6023V68.4214Z" fill="#0099DA"/>
<path d="M56.7434 57.0857C54.91 54.9264 52.6922 53.1275 50.1203 51.8057V62.4162C52.6922 61.0858 54.9185 59.2572 56.7434 57.0857Z" fill="#F15C21"/>
<path d="M88.7524 36.2975L58.5395 26.2017C62.5998 30.6411 65.0866 36.5352 65.0866 43.0052C65.101 48.107 63.5085 53.0068 60.7297 57.0857C63.5143 61.1613 65.1292 66.0553 65.1292 71.1646C65.1403 77.2709 62.9512 82.8869 59.2935 87.2321L70.6442 91.0211C73.7441 92.0511 77.019 90.356 78.0377 87.2603L92.5574 43.7725C93.5826 40.6789 91.8492 37.3275 88.7524 36.2975ZM80.7447 68.3459L76.6712 68.3608L68.2791 57.0639L76.7983 45.7765L80.9202 45.7616L72.3707 57.0857L80.7447 68.3459Z" fill="#0055A2"/>
</g>
<rect x="1" y="1" width="110" height="110" rx="9" stroke="#CCCCCC" stroke-width="2"/>
<defs>
<clipPath id="clip0_528_50">
<rect x="2" y="2" width="108" height="108" rx="8" fill="white"/>
</clipPath>
</defs>
</svg>
