<svg width="112" height="112" viewBox="0 0 112 112" fill="none" xmlns="http://www.w3.org/2000/svg">
<g clip-path="url(#clip0_642_1033)">
<rect x="2" y="2" width="108" height="108" rx="8" fill="white"/>
<path fill-rule="evenodd" clip-rule="evenodd" d="M83.3108 61.3126V63.3464H89.9066V57.2449H85.8511V55.2111H89.9066V49.1055H83.3108V51.1394H87.8728V53.1772H83.8051V59.2787H87.8728V61.3126H83.3108ZM71.5819 56.232C71.5819 50.0576 76.5895 45.0419 82.768 45.0419C88.9464 45.0419 93.954 50.0536 93.954 56.232C93.954 62.4105 88.9464 67.4181 82.768 67.4181C76.5895 67.4181 71.5819 62.4065 71.5819 56.232ZM69.5319 56.232C69.5319 48.9192 75.4551 43 82.7639 43C90.0727 43 96 48.9232 96 56.232C96 63.5409 90.0768 69.4681 82.7639 69.4681C75.451 69.4681 69.5319 63.5449 69.5319 56.232ZM82.2818 49.1015H75.6779V55.207H79.7253V57.2449H75.6779V63.3464H82.2818V61.3126H77.7077V59.2787H81.7713V53.1732H77.7077V51.1394H82.2818V49.1015Z" fill="#CB0202"/>
<path fill-rule="evenodd" clip-rule="evenodd" d="M38.2344 57.3624V57.33H43.1447C43.5944 57.33 44.2386 57.4029 44.7572 57.7432C45.2393 58.0633 45.4865 58.5333 45.4865 59.145C45.4865 59.6312 45.3528 60.0121 45.0975 60.2754C44.6154 60.7575 43.7849 60.7575 43.1772 60.7575H38.2222V60.7292L38.2384 57.3705L38.2344 57.3624ZM38.2344 51.7187H42.7274C43.5175 51.7187 44.8423 51.7187 44.8423 53.2907C44.8423 53.866 44.5952 54.2752 44.1049 54.5061C43.6633 54.7128 43.1123 54.7371 42.7396 54.7371H38.2344V51.7187ZM43.3271 63.391C45.0287 63.391 46.317 62.9737 47.1476 62.1553C47.9984 61.3126 48.1807 60.2308 48.1807 59.4692C48.1807 57.804 47.4879 56.6453 46.1185 56.0254L46.0577 56.0011L46.1145 55.9728C46.7303 55.6486 47.5487 54.9842 47.5487 53.0071C47.5487 51.9213 47.1395 50.9449 46.3981 50.2521C45.5837 49.4945 44.3926 49.0934 42.9624 49.0934H35.5442V63.3869H43.3311L43.3271 63.391Z" fill="black"/>
<path d="M18.8279 49.0893H16V63.3869H18.8279V49.0893Z" fill="black"/>
<path fill-rule="evenodd" clip-rule="evenodd" d="M21.121 56.1186C21.121 57.5002 21.352 58.6427 21.83 59.6069C22.2311 60.4091 22.7902 61.0897 23.6046 61.738C24.8686 62.7508 26.6472 63.2654 28.8917 63.2654H32.7609V60.5671H29.1065C27.0726 60.5671 25.5979 60.0607 24.7268 59.0559C24.107 58.3469 23.7869 57.3867 23.7788 56.2037C23.7666 54.9396 24.1232 53.9308 24.8281 53.2137C25.7113 52.3183 27.1496 51.8605 29.1065 51.8605H32.7609V49.1825H29.0254C27.7695 49.1825 26.7161 49.3081 25.8005 49.5674C24.8889 49.8267 24.1394 50.2116 23.5114 50.7464C22.6201 51.5081 21.117 53.2137 21.117 56.1105L21.121 56.1186Z" fill="black"/>
<path fill-rule="evenodd" clip-rule="evenodd" d="M49.8823 56.1186C49.8823 57.4961 50.1213 58.7156 50.5913 59.7325C51.0005 60.6157 51.5961 61.3733 52.3658 61.9892C53.5529 62.9453 55.2343 63.3869 57.653 63.3869H61.7328V60.6886H57.8718C55.842 60.6886 54.3673 60.1579 53.4881 59.1167C52.8682 58.3834 52.5482 57.4029 52.5401 56.2077C52.5279 54.9072 52.8925 53.87 53.6258 53.1286C54.5131 52.2252 55.9392 51.7673 57.8677 51.7673H61.7288V49.0934H57.7826C56.5267 49.0934 55.4733 49.219 54.5577 49.4783C53.6461 49.7376 52.8966 50.1225 52.2727 50.6532C51.5515 51.265 49.8783 53.0233 49.8783 56.1186H49.8823Z" fill="black"/>
</g>
<rect x="1" y="1" width="110" height="110" rx="9" stroke="#CCCCCC" stroke-width="2"/>
<defs>
<clipPath id="clip0_642_1033">
<rect x="2" y="2" width="108" height="108" rx="8" fill="white"/>
</clipPath>
</defs>
</svg>
