<svg width="112" height="112" viewBox="0 0 112 112" fill="none" xmlns="http://www.w3.org/2000/svg">
<g clip-path="url(#clip0_421_541)">
<rect x="2" y="2" width="108" height="108" rx="8" fill="white"/>
<path d="M68.365 63.089C68.1839 61.9872 67.882 60.9006 67.4292 59.9195C66.0256 56.8859 64.0636 54.3353 61.1356 52.6298C56.5776 49.9585 51.0688 49.9886 46.5561 52.7204C44.5035 53.958 42.8282 55.7389 41.7567 57.867C41.3793 58.5914 41.0926 59.346 40.8511 60.1157C39.6588 63.8889 39.7041 68.9751 41.8472 72.4162C42.5415 73.5481 43.5527 74.499 44.7903 74.9819C46.0279 75.4649 47.4919 75.4045 48.6087 74.6801C50.0425 73.7594 50.2991 71.9936 50.0274 70.424C49.6803 68.4167 49.4388 66.4395 50.1783 64.4624C50.4047 63.8285 50.7368 63.2399 51.2348 62.772C51.5367 62.5004 51.8838 62.2589 52.246 62.0929C53.0309 61.7005 53.9062 61.5495 54.7665 61.6703C56.2607 61.9118 57.4832 63.0739 58.1473 64.4322C58.8113 65.7905 58.9925 67.33 59.0528 68.8392C59.3698 75.4347 57.8001 82.2414 56.1098 88.5652C55.9437 89.2142 55.7626 89.8632 55.5815 90.5122C55.4306 91.0102 55.1891 91.6592 55.506 92.1422C55.6419 92.3535 55.8683 92.5044 56.0947 92.5949C57.0606 92.9873 57.8756 92.3836 58.5246 91.7347C62.3732 87.8559 64.8635 82.8451 66.5539 77.6986C67.1878 75.7667 67.716 73.8198 68.0933 71.8125C68.5914 69.0958 68.8781 65.9717 68.3801 63.089" fill="#008A8B"/>
<path d="M95.9999 32.6623C95.9999 31.6662 95.1246 31.0172 94.1888 31.0474C93.2229 31.0927 92.3475 31.5756 91.4721 31.9077C74.4929 38.3673 55.3404 39.5898 37.4405 37.009C34.3767 36.5713 31.2827 35.9525 28.1887 35.4695C26.2719 35.1677 24.3552 34.73 22.4233 34.5941C20.7631 34.4583 18.7105 34.413 17.3673 35.5601C15.6014 37.0844 15.7222 39.9671 16.7334 41.8839C17.9408 44.1779 20.0387 45.8985 22.2271 47.1964C24.3552 48.4642 26.8907 49.8225 29.4414 49.6565C36.2783 49.2188 43.1002 48.5699 49.8919 47.6794C61.4831 46.1701 73.6477 44.7514 84.5295 40.2539C88.0914 38.7899 91.608 36.9486 94.6567 34.5791C95.2151 34.1565 95.9999 33.4773 95.9999 32.6623Z" fill="#008A8B"/>
<path d="M47.296 26.8369C47.296 30.5195 50.2843 33.5229 53.982 33.5229C57.6797 33.5229 60.6529 30.5346 60.6529 26.8369C60.6529 26.2785 60.5322 25.7352 60.3058 25.2371C59.7323 24.0146 59.0984 23.4411 59.1437 21.9771C59.2342 20.0151 56.7138 20 55.3554 20C53.8764 20 52.3067 20.1962 50.9786 20.8754C49.9221 21.4036 49.0014 22.2337 48.3524 23.2298C47.6884 24.2561 47.3261 25.4635 47.296 26.686V26.8369Z" fill="#E50045"/>
</g>
<rect x="1" y="1" width="110" height="110" rx="9" stroke="#CCCCCC" stroke-width="2"/>
<defs>
<clipPath id="clip0_421_541">
<rect x="2" y="2" width="108" height="108" rx="8" fill="white"/>
</clipPath>
</defs>
</svg>
