<svg width="112" height="112" viewBox="0 0 112 112" fill="none" xmlns="http://www.w3.org/2000/svg">
<g clip-path="url(#clip0_528_37)">
<rect x="2" y="2" width="108" height="108" rx="8" fill="white"/>
<path d="M70.0339 52.6903C68.7806 52.6903 67.7558 51.6655 67.7558 50.4047C67.7558 49.144 68.7732 48.1192 70.0339 48.1192C71.2947 48.1192 72.3121 49.144 72.3121 50.4047C72.3121 51.6655 71.2947 52.6903 70.0339 52.6903ZM75.0104 45.7969H72.3194V46.4014C71.5896 45.937 70.727 45.6715 69.798 45.6715C67.1955 45.6715 65.0796 47.7949 65.0796 50.4047C65.0796 53.0146 67.1881 55.1379 69.798 55.1379C70.727 55.1379 71.5896 54.8725 72.3194 54.4081V55.0126H75.0104V45.7969Z" fill="#333333"/>
<path d="M81.4025 45.6642C80.4735 45.6642 79.6183 45.9812 78.94 46.512V45.7895H76.249V55.0126H78.94V49.955C78.9695 48.9302 79.8026 48.1119 80.8274 48.1119C81.8522 48.1119 82.6853 48.9302 82.7148 49.9476V55.0052H85.4058V49.6822C85.4058 47.4631 83.6143 45.6642 81.4025 45.6642Z" fill="#333333"/>
<path d="M92.8005 55.0126H96.0002L91.7831 49.7486L95.3662 45.7895H92.2181L89.3575 49.0703V42H86.6665V55.0126H89.3575V52.4248L90.1169 51.5917L92.8005 55.0126Z" fill="#3C3836"/>
<path d="M27.7816 43.0469H26.0196C25.7468 43.0469 25.533 43.2681 25.533 43.5409V54.5334C25.533 54.8062 25.7541 55.02 26.0196 55.02H27.7816C28.0544 55.02 28.2682 54.7988 28.2682 54.5334V43.5335C28.2682 43.2607 28.047 43.0395 27.7816 43.0395" fill="#05C754"/>
<path d="M39.9095 43.0469H38.1475C37.8747 43.0469 37.6609 43.2681 37.6609 43.5409V50.0656L32.6401 43.2607C32.6401 43.2607 32.618 43.2238 32.6033 43.2091C32.5959 43.2017 32.5812 43.187 32.5738 43.1796C32.5738 43.1796 32.5738 43.1796 32.5664 43.1722C32.5591 43.1649 32.5517 43.1575 32.5369 43.1501C32.5369 43.1501 32.5296 43.1501 32.5222 43.1428C32.5148 43.1428 32.5074 43.128 32.4927 43.128C32.4927 43.128 32.4853 43.128 32.478 43.1206C32.4706 43.1206 32.4632 43.1133 32.4485 43.1059C32.4485 43.1059 32.4411 43.1059 32.4337 43.0985C32.4263 43.0985 32.4116 43.0911 32.4042 43.0838C32.4042 43.0838 32.3969 43.0838 32.3895 43.0838C32.3821 43.0838 32.3674 43.0764 32.36 43.0764H32.3452C32.3379 43.0764 32.3231 43.0764 32.3158 43.0764C32.3158 43.0764 32.301 43.0764 32.2936 43.0764C32.2863 43.0764 32.2789 43.0764 32.2641 43.0764C32.2568 43.0764 32.2494 43.0764 32.242 43.0764H30.4652C30.1924 43.0764 29.9786 43.2976 29.9786 43.5704V54.5629C29.9786 54.8357 30.1998 55.0495 30.4652 55.0495H32.2273C32.5001 55.0495 32.7139 54.8283 32.7139 54.5629V47.9939L37.7346 54.8062C37.7715 54.8578 37.8083 54.8947 37.8599 54.9241C37.8673 54.9241 37.8821 54.9389 37.8894 54.9463C37.8894 54.9463 37.8968 54.9463 37.9042 54.9463C37.9116 54.9463 37.9189 54.9536 37.9263 54.961C37.9337 54.961 37.941 54.961 37.9484 54.9684C37.9484 54.9684 37.9558 54.9684 37.9632 54.9684C37.9705 54.9684 37.9853 54.9684 37.9927 54.9758C37.9927 54.9758 37.9927 54.9758 38 54.9758C38.0369 54.9831 38.0811 54.9905 38.1254 54.9905H39.8874C40.1602 54.9905 40.374 54.7693 40.374 54.5039V43.5335C40.374 43.2607 40.1528 43.0395 39.8874 43.0395" fill="#05C754"/>
<path d="M23.5276 52.2626H18.7428V43.5335C18.7428 43.2607 18.5216 43.0395 18.2562 43.0395H16.4868C16.214 43.0395 16.0002 43.2607 16.0002 43.5335V54.5187C16.0002 54.6514 16.0518 54.7693 16.1329 54.8578C16.1329 54.8578 16.1329 54.8578 16.1329 54.8652C16.2214 54.9463 16.3393 54.9979 16.4721 54.9979H23.5276C23.8004 54.9979 24.0142 54.7767 24.0142 54.5039V52.7345C24.0142 52.4617 23.793 52.2405 23.5276 52.2405" fill="#05C754"/>
<path d="M49.6413 43.0469C49.9141 43.0469 50.1279 43.2681 50.1279 43.5409V45.3103C50.1279 45.5831 49.9068 45.8043 49.6413 45.8043H44.8565V47.6621H49.6413C49.9141 47.6621 50.1279 47.8833 50.1279 48.1561V49.9255C50.1279 50.1983 49.9068 50.4195 49.6413 50.4195H44.8565V52.2774H49.6413C49.9141 52.2774 50.1279 52.4986 50.1279 52.7713V54.5408C50.1279 54.8136 49.9068 55.0347 49.6413 55.0347H42.6005C42.4678 55.0347 42.3499 54.9831 42.2614 54.8947C42.2614 54.8947 42.2614 54.8947 42.2614 54.8873C42.1729 54.7988 42.1213 54.6809 42.1213 54.5481V43.5409C42.1213 43.4082 42.1729 43.2902 42.254 43.2017C42.254 43.2017 42.254 43.2017 42.2614 43.1944C42.3499 43.1059 42.4678 43.0543 42.6005 43.0543H49.6413V43.0469Z" fill="#05C754"/>
<path d="M60.4348 52.5281H57.965V50.2131H60.4348C61.0615 50.2278 61.5702 50.7365 61.5702 51.3706C61.5702 52.0046 61.0689 52.5133 60.4348 52.5281ZM57.965 45.5315H59.9114C60.538 45.5462 61.0467 46.0549 61.0467 46.689C61.0467 47.323 60.5454 47.8317 59.9114 47.8465H57.965V45.5315ZM61.1352 55.0126C62.9268 54.9168 64.3497 53.4349 64.3497 51.6139C64.3497 50.449 63.7672 49.4242 62.8825 48.8049C63.465 48.193 63.8188 47.3672 63.8188 46.453C63.8188 44.6025 62.3517 43.1059 60.5307 43.0469H55.274V55.0126H61.1426H61.1352Z" fill="#333333"/>
<path d="M17.0029 65.2458C17.0029 65.3047 17.0029 65.3711 17.0176 65.4301C17.0987 65.7471 17.3715 65.9683 17.6959 65.9683C18.1751 65.9683 18.47 65.5849 18.47 64.9656C18.47 64.4274 18.212 63.9851 17.7033 63.9851C17.3936 63.9851 17.1061 64.2136 17.025 64.5527C17.0103 64.6117 17.0029 64.6781 17.0029 64.7518V65.2458ZM16.2361 62.0461H17.0029V63.8745H17.0176C17.2019 63.5796 17.5337 63.3879 17.9908 63.3879C18.7354 63.3879 19.2663 64.0072 19.2589 64.9361C19.2589 66.0346 18.5659 66.5802 17.8802 66.5802C17.4895 66.5802 17.1356 66.4328 16.9144 66.0568H16.8997L16.8628 66.5139H16.2066C16.2214 66.3074 16.2288 65.9683 16.2288 65.6586V62.0534L16.2361 62.0461Z" fill="#808282"/>
<path d="M20.3279 63.4542L20.8735 65.0909C20.9325 65.2826 21.0062 65.5112 21.0504 65.6807H21.0726C21.1168 65.5112 21.1684 65.2826 21.2347 65.0836L21.7066 63.4542H22.525L21.7656 65.5407C21.3453 66.6834 21.0652 67.1921 20.7113 67.5018C20.4016 67.7672 20.092 67.863 19.9077 67.8925L19.7307 67.2437C19.8634 67.2143 20.0183 67.1405 20.1731 67.0299C20.3205 66.9341 20.4901 66.7571 20.6007 66.5433C20.6228 66.4844 20.6449 66.4401 20.6449 66.4033C20.6449 66.3738 20.6449 66.3295 20.6081 66.2558L19.4874 63.4542H20.3353H20.3279Z" fill="#808282"/>
<path d="M39.1207 62.5474V67.3764H38.177V65.0541H36.2232V67.3764H35.2869V62.5474H36.2232V64.4274H38.177V62.5474H39.1207Z" fill="#241F21"/>
<path d="M41.937 67.3764C41.937 67.3764 41.878 67.3175 41.8485 67.2511C41.8117 67.1848 41.7969 67.1258 41.7969 67.0594C41.6568 67.2142 41.4946 67.3175 41.3103 67.3691C41.126 67.4281 40.9491 67.4502 40.7647 67.4502C40.4404 67.4502 40.1676 67.3543 39.9538 67.1479C39.74 66.9488 39.6294 66.6761 39.6294 66.3295C39.6294 66.0125 39.74 65.7324 39.9685 65.4964C40.1971 65.2605 40.5214 65.1204 40.9564 65.0762L41.7232 64.9877C41.7232 64.6928 41.6568 64.4938 41.5241 64.3832C41.3914 64.2726 41.244 64.221 41.0818 64.221C40.8827 64.221 40.691 64.2652 40.5067 64.3537C40.3298 64.4422 40.1602 64.5601 40.0127 64.6928L39.8505 63.9924C40.0349 63.8671 40.2265 63.7639 40.433 63.7049C40.6394 63.6385 40.868 63.6091 41.1407 63.6091C41.3029 63.6091 41.4725 63.6312 41.6568 63.6754C41.8338 63.7196 41.9886 63.8007 42.136 63.904C42.2835 64.0072 42.4015 64.1473 42.4899 64.3242C42.5784 64.4938 42.63 64.7076 42.63 64.9582V66.4622C42.63 66.6023 42.6448 66.7571 42.6669 66.9193C42.689 67.0815 42.7406 67.229 42.807 67.3691H41.9517L41.937 67.3764ZM41.7306 65.5702L41.2661 65.6291C41.0523 65.6586 40.8753 65.7324 40.7426 65.8503C40.6099 65.9683 40.5436 66.1157 40.5436 66.3C40.5436 66.4622 40.5878 66.5876 40.6763 66.6834C40.7647 66.7793 40.868 66.8309 40.9933 66.8309C41.0891 66.8309 41.185 66.8161 41.2735 66.794C41.3619 66.7645 41.4357 66.7129 41.502 66.6392C41.5684 66.5655 41.6273 66.4696 41.6642 66.3443C41.7011 66.2263 41.7232 66.0641 41.7232 65.8724V65.5702H41.7306Z" fill="#241F21"/>
<path d="M44.1856 63.6828V63.9998C44.311 63.8745 44.451 63.7786 44.6206 63.7123C44.7902 63.6459 44.9598 63.6091 45.1367 63.6091C45.5791 63.6091 45.9256 63.7344 46.1762 63.9924C46.4343 64.2505 46.5596 64.6044 46.5596 65.0467V67.3617H45.6601V65.172C45.6601 64.8919 45.5938 64.6633 45.4685 64.4864C45.3431 64.3094 45.1662 64.2283 44.9376 64.2283C44.7238 64.2283 44.5469 64.3168 44.4068 64.4864C44.2594 64.656 44.1856 64.8993 44.1856 65.2015V67.3617H43.2935V63.6754H44.1783L44.1856 63.6828Z" fill="#241F21"/>
<path d="M49.3538 67.3764C49.3538 67.3764 49.2948 67.3175 49.2653 67.2511C49.2285 67.1848 49.2137 67.1258 49.2137 67.0594C49.0737 67.2142 48.9115 67.3175 48.7271 67.3691C48.5428 67.4281 48.3659 67.4502 48.1816 67.4502C47.8572 67.4502 47.5844 67.3543 47.3706 67.1479C47.1568 66.9488 47.0536 66.6761 47.0536 66.3295C47.0536 66.0125 47.1642 65.7324 47.3927 65.4964C47.6213 65.2605 47.9457 65.1204 48.3806 65.0762L49.1474 64.9877C49.1474 64.6928 49.081 64.4938 48.9557 64.3832C48.823 64.2726 48.6755 64.221 48.5133 64.221C48.3143 64.221 48.1226 64.2652 47.9383 64.3537C47.7613 64.4422 47.5918 64.5601 47.4443 64.6928L47.2895 63.9924C47.4738 63.8671 47.6655 63.7639 47.8719 63.7049C48.0784 63.6385 48.3143 63.6091 48.5797 63.6091C48.7419 63.6091 48.9115 63.6312 49.0884 63.6754C49.2653 63.7196 49.4275 63.8007 49.5676 63.904C49.7151 64.0072 49.833 64.1473 49.9289 64.3242C50.0173 64.4938 50.069 64.7076 50.069 64.9582V66.4622C50.069 66.6023 50.0837 66.7571 50.1058 66.9193C50.1279 67.0815 50.1722 67.229 50.2459 67.3691H49.3833L49.3538 67.3764ZM49.1474 65.5702L48.6903 65.6291C48.4765 65.6586 48.2995 65.7324 48.1668 65.8503C48.0341 65.9683 47.9678 66.1157 47.9678 66.3C47.9678 66.4622 48.012 66.5876 48.1005 66.6834C48.1889 66.7793 48.2995 66.8309 48.4175 66.8309C48.5133 66.8309 48.6092 66.8161 48.6977 66.794C48.7861 66.7645 48.8599 66.7129 48.9262 66.6392C48.9926 66.5655 49.0442 66.4696 49.0884 66.3443C49.1253 66.2263 49.1474 66.0641 49.1474 65.8724V65.5702Z" fill="#241F21"/>
<path d="M53.2465 67.3764H51.713V62.5474H53.3498C53.7479 62.5474 54.087 62.6506 54.3524 62.857C54.6178 63.0635 54.7432 63.3289 54.7432 63.6607C54.7432 63.9924 54.6621 64.2431 54.5073 64.4348C54.3451 64.6265 54.1681 64.7518 53.9764 64.8182C54.2566 64.8845 54.4925 65.0098 54.6842 65.1942C54.8759 65.3785 54.9717 65.6365 54.9717 65.9609C54.9717 66.3885 54.8243 66.7277 54.5294 66.9857C54.2345 67.2437 53.8069 67.3691 53.2465 67.3691M52.6641 63.1446V64.5601H53.018C53.276 64.5601 53.4751 64.4864 53.6078 64.3463C53.7405 64.2062 53.8069 64.0145 53.8069 63.786C53.8069 63.5943 53.7479 63.4395 53.6373 63.3215C53.5267 63.2036 53.3645 63.1446 53.1581 63.1446H52.6641ZM52.6641 65.1573V66.7719H53.1581C53.394 66.7719 53.5931 66.7055 53.7479 66.5655C53.9027 66.4254 53.9838 66.2263 53.9838 65.9609C53.9838 65.6734 53.888 65.4669 53.7036 65.3416C53.512 65.2163 53.3055 65.1573 53.0696 65.1573H52.6567H52.6641Z" fill="#241F21"/>
<path d="M57.7143 67.3764C57.7143 67.3764 57.6554 67.3175 57.6185 67.2511C57.5816 67.1848 57.5669 67.1258 57.5669 67.0594C57.4268 67.2142 57.2646 67.3175 57.0803 67.3691C56.896 67.4281 56.719 67.4502 56.5347 67.4502C56.2103 67.4502 55.9375 67.3543 55.7237 67.1479C55.5099 66.9488 55.3993 66.6761 55.3993 66.3295C55.3993 66.0125 55.5173 65.7324 55.7385 65.4964C55.967 65.2605 56.2914 65.1204 56.7264 65.0762L57.4932 64.9877C57.4932 64.6928 57.4268 64.4938 57.2941 64.3832C57.1688 64.2726 57.0139 64.221 56.8517 64.221C56.6527 64.221 56.461 64.2652 56.2767 64.3537C56.0924 64.4422 55.9302 64.5601 55.7827 64.6928L55.6279 63.9924C55.8122 63.8671 56.0039 63.7639 56.2103 63.7049C56.4168 63.6385 56.6527 63.6091 56.9181 63.6091C57.0803 63.6091 57.2499 63.6312 57.4268 63.6754C57.6037 63.7196 57.7586 63.8007 57.906 63.904C58.0535 64.0072 58.1714 64.1473 58.2599 64.3242C58.3484 64.4938 58.3926 64.7076 58.3926 64.9582V66.4622C58.3926 66.6023 58.4074 66.7571 58.4295 66.9193C58.4516 67.0815 58.4958 67.229 58.5622 67.3691H57.707L57.7143 67.3764ZM57.5079 65.5702L57.0508 65.6291C56.837 65.6586 56.6601 65.7324 56.5274 65.8503C56.3946 65.9683 56.3283 66.1157 56.3283 66.3C56.3283 66.4622 56.3725 66.5876 56.461 66.6834C56.5495 66.7793 56.6601 66.8309 56.778 66.8309C56.8739 66.8309 56.9697 66.8161 57.0582 66.794C57.1466 66.7645 57.2277 66.7129 57.2867 66.6392C57.3531 66.5655 57.4121 66.4696 57.4489 66.3443C57.4858 66.2263 57.5079 66.0641 57.5079 65.8724V65.5702Z" fill="#241F21"/>
<path d="M59.963 63.6828V63.9998C60.0883 63.8745 60.2284 63.7786 60.398 63.7123C60.5675 63.6459 60.7371 63.6091 60.9214 63.6091C61.3638 63.6091 61.7103 63.7344 61.9609 63.9924C62.219 64.2505 62.3443 64.6044 62.3443 65.0467V67.3617H61.4449V65.172C61.4449 64.8919 61.3785 64.6633 61.2532 64.4864C61.1278 64.3094 60.9509 64.2283 60.7224 64.2283C60.5085 64.2283 60.339 64.3168 60.1915 64.4864C60.0441 64.656 59.9777 64.8993 59.9777 65.2015V67.3617H59.0856V63.6754H59.9703L59.963 63.6828Z" fill="#241F21"/>
<path d="M62.971 67.3764V62.341H63.8704V64.9804L65.0353 63.6828H65.9938L64.5708 65.2679L66.1707 67.3764H65.1459L63.8704 65.7029V67.3764H62.971Z" fill="#241F21"/>
<path d="M31.4384 65.4743C31.4163 65.3342 31.3794 65.2015 31.3205 65.0762C31.1435 64.7002 30.9076 64.3832 30.539 64.1694C29.9713 63.8376 29.2856 63.8376 28.7253 64.1841C28.4746 64.3389 28.2608 64.5601 28.1281 64.8255C28.0839 64.914 28.047 65.0098 28.0175 65.1057C27.8701 65.5775 27.8775 66.2116 28.1429 66.6392C28.2313 66.7793 28.3567 66.8972 28.5041 66.9562C28.6589 67.0152 28.8433 67.0078 28.976 66.9193C29.1529 66.8014 29.1824 66.5876 29.1529 66.3885C29.1087 66.1379 29.0792 65.8946 29.1677 65.6439C29.1972 65.5628 29.2414 65.4891 29.3004 65.4301C29.3372 65.3932 29.3815 65.3637 29.4257 65.3416C29.5215 65.29 29.6321 65.2753 29.7353 65.29C29.9197 65.3195 30.0745 65.4669 30.1556 65.6365C30.2367 65.8061 30.2588 65.9978 30.2662 66.1821C30.303 67.0004 30.1114 67.8483 29.8975 68.6372C29.8754 68.7183 29.8533 68.7994 29.8312 68.8805C29.8164 68.9394 29.7796 69.0205 29.8238 69.0795C29.8386 69.109 29.8681 69.1237 29.8975 69.1385C30.0155 69.1901 30.1187 69.1164 30.1998 69.0279C30.679 68.5413 30.9887 67.922 31.1951 67.2806C31.2762 67.0373 31.3426 66.8014 31.3868 66.5507C31.4458 66.2116 31.4827 65.8208 31.4237 65.4669" fill="#008375"/>
<path d="M34.874 61.6848C34.874 61.5595 34.7635 61.4784 34.6529 61.4857C34.5349 61.4857 34.4243 61.5521 34.3137 61.589C32.2052 62.3926 29.8312 62.5474 27.6047 62.223C27.2287 62.164 26.8379 62.0903 26.4545 62.0313C26.2186 61.9945 25.9827 61.9428 25.7394 61.9207C25.533 61.906 25.2749 61.8986 25.1127 62.0387C24.8916 62.2304 24.9063 62.5843 25.0316 62.8276C25.1791 63.1151 25.4445 63.3289 25.7099 63.4911C25.9753 63.6533 26.2923 63.8229 26.602 63.8007C27.4498 63.7418 28.2977 63.6607 29.1382 63.5501C30.5758 63.3658 32.0872 63.1888 33.4364 62.6211C33.8787 62.4368 34.3137 62.2083 34.6897 61.9134C34.7635 61.8617 34.8593 61.7733 34.8593 61.6774" fill="#008375"/>
<path d="M28.8285 60.9623C28.8285 61.4194 29.1971 61.7954 29.6542 61.7954C30.1113 61.7954 30.48 61.4194 30.48 60.9623C30.48 60.8959 30.4652 60.8222 30.4357 60.7632C30.362 60.6084 30.2883 60.5421 30.2883 60.3577C30.2957 60.1144 29.986 60.1071 29.8164 60.1071C29.6321 60.1071 29.4404 60.1292 29.2709 60.2177C29.1382 60.284 29.0276 60.3872 28.9465 60.5126C28.8654 60.6379 28.8211 60.7927 28.8138 60.9402V60.9623" fill="#D50037"/>
</g>
<rect x="1" y="1" width="110" height="110" rx="9" stroke="#CCCCCC" stroke-width="2"/>
<defs>
<clipPath id="clip0_528_37">
<rect x="2" y="2" width="108" height="108" rx="8" fill="white"/>
</clipPath>
</defs>
</svg>
