<svg width="112" height="112" viewBox="0 0 112 112" fill="none" xmlns="http://www.w3.org/2000/svg">
<g clip-path="url(#clip0_642_1030)">
<rect x="2" y="2" width="108" height="108" rx="8" fill="white"/>
<g clip-path="url(#clip1_642_1030)">
<path fill-rule="evenodd" clip-rule="evenodd" d="M35.6827 52.0064V57.5031C35.6827 57.5031 33.569 54.3061 33.2537 53.7686C32.7081 53.033 32.0412 52.0064 30.8974 52.0064H28.529V59.8027H30.8974V54.3102C30.8974 54.3102 33.0112 57.5071 33.3265 58.0446C33.868 58.7802 34.4783 59.8068 35.6787 59.8068H38.0309V52.0105H35.6787L35.6827 52.0064ZM23.3436 53.1987C22.8304 54.4072 21.9169 56.9696 21.9169 56.9696L20.8015 53.7201C20.8015 53.7201 20.2195 52.0024 18.3644 52.0024H16V59.7987H18.3644V54.387C18.3644 54.387 18.6473 54.4435 19.1929 55.9874C19.7385 57.5314 20.5468 59.8149 20.5468 59.8149H22.1392C22.1392 59.8149 23.283 59.7421 23.9499 57.9234L24.8067 55.5833C24.8067 55.5833 25.2351 54.3102 25.6312 54.1525V59.7947H27.9753V51.9984H25.6312C25.6312 51.9984 23.8488 51.9862 23.3356 53.1906L23.3436 53.1987ZM46.676 57.7981L46.6598 57.7819H43.0142C41.9836 57.7819 41.147 56.9494 41.147 55.9228C41.147 54.8962 41.9836 54.0636 43.0142 54.0636H46.5143C46.8093 53.7363 47.1246 53.4816 47.3428 53.2593L48.6119 52.0064H42.5171C40.3427 52.0064 38.5846 53.7605 38.5846 55.9228C38.5846 58.0851 40.3468 59.8391 42.5171 59.8391H48.6887L46.6719 57.7981H46.676ZM72.2999 54.3789C72.4939 54.1606 72.7202 53.9828 72.9829 53.8454C73.3426 53.6635 73.7347 53.5827 74.1348 53.5827C74.9269 53.5827 75.6059 53.8535 76.1273 54.4557C76.6851 55.1023 76.875 55.9309 76.875 56.7675C76.875 57.6041 76.6891 58.4084 76.1354 59.047C75.614 59.6492 74.935 59.9078 74.1469 59.9078C73.7549 59.9078 73.3588 59.8432 72.9991 59.6775C72.7364 59.5562 72.502 59.3824 72.2999 59.1763V59.73H71.1036V51.6063H72.2999V54.3708V54.3789ZM81.6158 59.0955C81.3572 59.3299 81.0662 59.5239 80.7469 59.6694C80.3751 59.8351 79.9871 59.9159 79.5789 59.9159C79.0373 59.9159 78.4917 59.7987 78.0754 59.4309C77.6793 59.0793 77.5257 58.6064 77.5257 58.0851C77.5257 57.5637 77.6793 57.1151 78.0673 56.7756C78.4957 56.3997 79.1181 56.2461 79.6678 56.1774C79.9062 56.1532 80.1447 56.1249 80.3831 56.1006C80.5933 56.0804 81.1026 56.04 81.2966 55.9632C81.3572 55.943 81.438 55.9026 81.4703 55.8419C81.5108 55.7652 81.5148 55.5227 81.5148 55.4378C81.5148 55.1953 81.4299 54.9972 81.2238 54.8639C80.9651 54.6941 80.5691 54.6618 80.2659 54.6618C79.9386 54.6618 79.5425 54.7063 79.2717 54.9083C79.0413 55.0862 78.9565 55.3367 78.9565 55.6237V55.7288H77.7965V55.5792C77.7965 54.9892 78.0067 54.488 78.4755 54.1202C78.9888 53.712 79.6557 53.5908 80.2983 53.5908C80.9005 53.5908 81.6401 53.6676 82.1332 54.0434C82.5939 54.391 82.7435 54.9245 82.7435 55.4822V58.3599C82.7435 58.4488 82.7475 58.6994 82.8041 58.7721C82.8526 58.8328 82.9577 58.8408 83.0264 58.8408C83.0587 58.8408 83.091 58.8408 83.1234 58.8328C83.1719 58.8247 83.2244 58.8166 83.2729 58.8085L83.3982 58.7843V59.7381L83.3214 59.7583C83.2123 59.7866 83.0991 59.8108 82.986 59.827C82.897 59.8391 82.8041 59.8472 82.7111 59.8472C82.4282 59.8472 82.113 59.7987 81.8907 59.6128C81.729 59.4754 81.6441 59.2935 81.6158 59.0955ZM85.2937 54.4112C85.4837 54.197 85.7019 54.0151 85.9646 53.8818C86.3243 53.6999 86.7164 53.6271 87.1165 53.6271C87.5166 53.6271 87.9289 53.6756 88.2967 53.8333C88.6119 53.9666 88.8746 54.1728 89.0605 54.4597C89.1656 54.6214 89.2384 54.7992 89.2788 54.9851C89.3394 55.264 89.3434 55.6156 89.3434 55.9026V59.7381H88.1148V56.0925C88.1148 55.7692 88.0865 55.2478 87.8682 54.9851C87.6662 54.7467 87.3105 54.6982 87.0195 54.6982C86.5668 54.6982 86.1142 54.7992 85.7787 55.1266C85.4473 55.454 85.3422 55.9026 85.3422 56.3552V59.7381H84.1257V53.7726H85.3018V54.4112H85.2937ZM91.8614 56.2178L94.4238 53.7726H96L93.6235 55.9996L95.8828 59.7381H94.5006L92.7829 56.816L91.8533 57.6728V59.7381H90.6368V51.6144H91.8533V56.2178H91.8614ZM72.2635 56.7149C72.2635 57.2606 72.3524 57.8668 72.7 58.3073C73.0072 58.6994 73.4396 58.8489 73.9287 58.8489C74.4177 58.8489 74.838 58.6953 75.1573 58.3195C75.5049 57.9072 75.61 57.3656 75.61 56.8402C75.61 56.2865 75.517 55.6722 75.1694 55.2195C74.8623 54.8235 74.4379 54.6658 73.9408 54.6658C73.4437 54.6658 72.9991 54.7871 72.6838 55.167C72.3403 55.5833 72.2635 56.1936 72.2635 56.7149ZM81.5067 56.8685C81.1268 57.0181 80.6135 57.0908 80.2417 57.1353C80.0679 57.1555 79.8941 57.1797 79.7244 57.204C79.4859 57.2404 79.1747 57.3171 78.9888 57.4869C78.8271 57.6364 78.7827 57.8547 78.7827 58.0689C78.7827 58.2952 78.8473 58.5013 79.0252 58.6468C79.2232 58.8125 79.5102 58.853 79.7607 58.853C80.2134 58.853 80.662 58.76 81.0298 58.4811C81.337 58.2467 81.5108 57.9476 81.5108 57.5596V56.8645L81.5067 56.8685Z" fill="url(#paint0_linear_642_1030)"/>
<path fill-rule="evenodd" clip-rule="evenodd" d="M61.4644 45.7985C61.0077 45.459 60.656 45.0185 60.2357 44.6628C59.2738 43.7656 57.7784 43.7818 56.8529 44.7073L56.8125 44.7477C56.6953 44.8447 56.578 44.9498 56.4608 45.0589L53.0012 48.4903L52.981 48.5751C52.7142 49.8765 53.567 50.8304 53.567 50.8304L55.4949 52.8067L58.5746 55.9107L59.6254 54.8558L61.8766 52.6249L63.5781 50.9637L63.6913 50.8708C63.7317 50.8385 63.7883 50.79 63.8691 50.7374C64.3299 50.4222 64.7947 50.305 65.1786 50.2726C65.4818 50.2484 65.7283 50.2767 65.8859 50.309C65.9546 50.3211 66.0072 50.3373 66.0355 50.3454H66.0516L66.0597 50.3535L61.4644 45.7985Z" fill="url(#paint1_linear_642_1030)"/>
<path fill-rule="evenodd" clip-rule="evenodd" d="M61.4644 45.7985C61.0077 45.459 60.656 45.0185 60.2357 44.6628C59.2738 43.7656 57.7784 43.7818 56.8529 44.7073L56.8125 44.7477C56.6953 44.8447 56.578 44.9498 56.4608 45.0589L53.0012 48.4903L52.981 48.5751C52.7142 49.8765 53.567 50.8304 53.567 50.8304L55.4949 52.8067L58.5746 55.9107L59.6254 54.8558L61.8766 52.6249L63.5781 50.9637L63.6913 50.8708C63.7317 50.8385 63.7883 50.79 63.8691 50.7374C64.3299 50.4222 64.7947 50.305 65.1786 50.2726C65.4818 50.2484 65.7283 50.2767 65.8859 50.309C65.9546 50.3211 66.0072 50.3373 66.0355 50.3454H66.0516L66.0597 50.3535L61.4644 45.7985Z" fill="url(#paint2_linear_642_1030)"/>
<path fill-rule="evenodd" clip-rule="evenodd" d="M55.6888 66.0228C56.1455 66.3623 56.4972 66.8028 56.9175 67.1585C57.8794 68.0557 59.3748 68.0396 60.3003 67.114L60.3408 67.0736C60.458 66.9766 60.5752 66.8715 60.6924 66.7624L64.152 63.3311L64.1722 63.2462C64.439 61.9448 63.5862 60.991 63.5862 60.991L61.6583 59.0146L58.5786 55.9106L57.5278 56.9655L55.2766 59.1965L53.5751 60.8576L53.4619 60.9506C53.4215 60.9829 53.3649 61.0314 53.2841 61.0839C52.8233 61.3992 52.3585 61.5164 51.9746 61.5487C51.6715 61.573 51.4249 61.5447 51.2673 61.5123C51.1986 61.5002 51.146 61.4841 51.1178 61.476H51.1016L51.0935 61.4679L55.6888 66.0228Z" fill="url(#paint3_linear_642_1030)"/>
<path fill-rule="evenodd" clip-rule="evenodd" d="M55.6888 66.0228C56.1455 66.3623 56.4972 66.8028 56.9175 67.1585C57.8794 68.0557 59.3748 68.0396 60.3003 67.114L60.3408 67.0736C60.458 66.9766 60.5752 66.8715 60.6924 66.7624L64.152 63.3311L64.1722 63.2462C64.439 61.9448 63.5862 60.991 63.5862 60.991L61.6583 59.0146L58.5786 55.9106L57.5278 56.9655L55.2766 59.1965L53.5751 60.8576L53.4619 60.9506C53.4215 60.9829 53.3649 61.0314 53.2841 61.0839C52.8233 61.3992 52.3585 61.5164 51.9746 61.5487C51.6715 61.573 51.4249 61.5447 51.2673 61.5123C51.1986 61.5002 51.146 61.4841 51.1178 61.476H51.1016L51.0935 61.4679L55.6888 66.0228Z" fill="url(#paint4_linear_642_1030)"/>
<path fill-rule="evenodd" clip-rule="evenodd" d="M48.4624 53.0209C48.1229 53.4776 47.6823 53.8292 47.3267 54.2495C46.4294 55.2114 46.4456 56.7068 47.3711 57.6324L47.4115 57.6728C47.5085 57.79 47.6136 57.9072 47.7227 58.0244L51.1541 61.484L51.239 61.5042C52.5404 61.771 53.4942 60.9182 53.4942 60.9182L55.4705 58.9904L58.5745 55.9106L57.5196 54.8598L55.2887 52.6086L53.6276 50.9071L53.5346 50.7939C53.5023 50.7535 53.4538 50.6969 53.4012 50.6161C53.086 50.1554 52.9688 49.6906 52.9364 49.3066C52.9122 49.0035 52.9405 48.757 52.9728 48.5993C52.9849 48.5306 53.0011 48.4781 53.0092 48.4498V48.4336L53.0173 48.4255L48.4624 53.0209Z" fill="url(#paint5_linear_642_1030)"/>
<path fill-rule="evenodd" clip-rule="evenodd" d="M48.4624 53.0209C48.1229 53.4776 47.6823 53.8292 47.3267 54.2495C46.4294 55.2114 46.4456 56.7068 47.3711 57.6324L47.4115 57.6728C47.5085 57.79 47.6136 57.9072 47.7227 58.0244L51.1541 61.484L51.239 61.5042C52.5404 61.771 53.4942 60.9182 53.4942 60.9182L55.4705 58.9904L58.5745 55.9106L57.5196 54.8598L55.2887 52.6086L53.6276 50.9071L53.5346 50.7939C53.5023 50.7535 53.4538 50.6969 53.4012 50.6161C53.086 50.1554 52.9688 49.6906 52.9364 49.3066C52.9122 49.0035 52.9405 48.757 52.9728 48.5993C52.9849 48.5306 53.0011 48.4781 53.0092 48.4498V48.4336L53.0173 48.4255L48.4624 53.0209Z" fill="url(#paint6_linear_642_1030)"/>
<path fill-rule="evenodd" clip-rule="evenodd" d="M68.6908 58.7964C69.0303 58.3397 69.4708 57.9881 69.8265 57.5678C70.7237 56.6058 70.7075 55.1104 69.782 54.1849L69.7416 54.1445C69.6446 54.0273 69.5395 53.9101 69.4304 53.7929L65.999 50.3332L65.9142 50.313C64.6128 50.0463 63.6589 50.8991 63.6589 50.8991L61.6826 52.8269L58.5786 55.9066L59.6335 56.9575L61.8645 59.2087L63.5256 60.9102L63.6185 61.0233C63.6509 61.0638 63.6994 61.1203 63.7519 61.2012C64.0671 61.6619 64.1844 62.1267 64.2167 62.5107C64.2409 62.8138 64.2126 63.0603 64.1803 63.2179C64.1682 63.2867 64.152 63.3392 64.1439 63.3675V63.3837L64.1359 63.3917L68.6908 58.7964Z" fill="url(#paint7_linear_642_1030)"/>
<path fill-rule="evenodd" clip-rule="evenodd" d="M68.6908 58.7964C69.0303 58.3397 69.4708 57.9881 69.8265 57.5678C70.7237 56.6058 70.7075 55.1104 69.782 54.1849L69.7416 54.1445C69.6446 54.0273 69.5395 53.9101 69.4304 53.7929L65.999 50.3332L65.9142 50.313C64.6128 50.0463 63.6589 50.8991 63.6589 50.8991L61.6826 52.8269L58.5786 55.9066L59.6335 56.9575L61.8645 59.2087L63.5256 60.9102L63.6185 61.0233C63.6509 61.0638 63.6994 61.1203 63.7519 61.2012C64.0671 61.6619 64.1844 62.1267 64.2167 62.5107C64.2409 62.8138 64.2126 63.0603 64.1803 63.2179C64.1682 63.2867 64.152 63.3392 64.1439 63.3675V63.3837L64.1359 63.3917L68.6908 58.7964Z" fill="url(#paint8_linear_642_1030)"/>
<path fill-rule="evenodd" clip-rule="evenodd" d="M52.6132 56.0076C52.6132 57.6404 53.28 59.1156 54.3592 60.1867C55.4383 61.2577 56.9256 61.9205 58.5746 61.9205C60.2236 61.9205 61.7109 61.2577 62.79 60.1867C63.8691 59.1156 64.536 57.6445 64.536 56.0076C64.536 54.3708 63.8691 52.8996 62.79 51.8245C61.7109 50.7535 60.2195 50.0947 58.5746 50.0947C56.9296 50.0947 55.4423 50.7576 54.3592 51.8245C53.28 52.8956 52.6132 54.3708 52.6132 56.0076ZM52.1646 56.0076C52.1646 52.4955 55.0341 49.6501 58.5746 49.6501C62.115 49.6501 64.9886 52.4955 64.9886 56.0076C64.9886 59.5198 62.1191 62.3651 58.5746 62.3651C55.0301 62.3651 52.1646 59.5198 52.1646 56.0076Z" fill="white"/>
<path fill-rule="evenodd" clip-rule="evenodd" d="M58.5382 57.2686C59.1808 57.2686 59.7062 56.7432 59.7062 56.1006C59.7062 55.458 59.1808 54.9326 58.5382 54.9326C57.8956 54.9326 57.3702 55.458 57.3702 56.1006C57.3702 56.7432 57.8956 57.2686 58.5382 57.2686Z" fill="white"/>
</g>
</g>
<rect x="1" y="1" width="110" height="110" rx="9" stroke="#CCCCCC" stroke-width="2"/>
<defs>
<linearGradient id="paint0_linear_642_1030" x1="56.1051" y1="59.2773" x2="55.7575" y2="50.9799" gradientUnits="userSpaceOnUse">
<stop stop-color="#B08C35"/>
<stop offset="1" stop-color="#71522C"/>
</linearGradient>
<linearGradient id="paint1_linear_642_1030" x1="57.8997" y1="50.1514" x2="55.9435" y2="51.1941" gradientUnits="userSpaceOnUse">
<stop stop-color="#B08C35"/>
<stop offset="1" stop-color="#78572D"/>
</linearGradient>
<linearGradient id="paint2_linear_642_1030" x1="62.0504" y1="49.9574" x2="56.0728" y2="49.9533" gradientUnits="userSpaceOnUse">
<stop stop-color="#B08C35"/>
<stop offset="0.58" stop-color="#FDDB8F" stop-opacity="0.61"/>
<stop offset="1" stop-color="#B08C35" stop-opacity="0"/>
</linearGradient>
<linearGradient id="paint3_linear_642_1030" x1="59.2536" y1="61.67" x2="61.2097" y2="60.6272" gradientUnits="userSpaceOnUse">
<stop stop-color="#B08C35"/>
<stop offset="1" stop-color="#78572D"/>
</linearGradient>
<linearGradient id="paint4_linear_642_1030" x1="55.0988" y1="61.864" x2="61.0804" y2="61.864" gradientUnits="userSpaceOnUse">
<stop stop-color="#B08C35"/>
<stop offset="0.58" stop-color="#FDDB8F" stop-opacity="0.61"/>
<stop offset="1" stop-color="#B08C35" stop-opacity="0"/>
</linearGradient>
<linearGradient id="paint5_linear_642_1030" x1="52.8152" y1="56.5856" x2="53.8579" y2="58.5458" gradientUnits="userSpaceOnUse">
<stop stop-color="#B08C35"/>
<stop offset="1" stop-color="#78572D"/>
</linearGradient>
<linearGradient id="paint6_linear_642_1030" x1="52.6212" y1="52.4348" x2="52.6212" y2="58.4164" gradientUnits="userSpaceOnUse">
<stop stop-color="#B08C35"/>
<stop offset="0.58" stop-color="#FDDB8F" stop-opacity="0.61"/>
<stop offset="1" stop-color="#B08C35" stop-opacity="0"/>
</linearGradient>
<linearGradient id="paint7_linear_642_1030" x1="64.3379" y1="55.2357" x2="63.2952" y2="53.2755" gradientUnits="userSpaceOnUse">
<stop stop-color="#B08C35"/>
<stop offset="1" stop-color="#78572D"/>
</linearGradient>
<linearGradient id="paint8_linear_642_1030" x1="64.5319" y1="59.3865" x2="64.5319" y2="53.4049" gradientUnits="userSpaceOnUse">
<stop stop-color="#B08C35"/>
<stop offset="0.58" stop-color="#FDDB8F" stop-opacity="0.61"/>
<stop offset="1" stop-color="#B08C35" stop-opacity="0"/>
</linearGradient>
<clipPath id="clip0_642_1030">
<rect x="2" y="2" width="108" height="108" rx="8" fill="white"/>
</clipPath>
<clipPath id="clip1_642_1030">
<rect width="80" height="23.8214" fill="white" transform="translate(16 44)"/>
</clipPath>
</defs>
</svg>
