<svg width="112" height="112" viewBox="0 0 112 112" fill="none" xmlns="http://www.w3.org/2000/svg">
<g clip-path="url(#clip0_421_554)">
<rect x="2" y="2" width="108" height="108" rx="8" fill="white"/>
<path d="M54.1854 55.3568C54.2724 55.4003 54.3484 55.4546 54.4245 55.4981C54.4462 55.5089 54.468 55.5307 54.4897 55.5415C54.5332 55.5633 54.5658 55.5958 54.5984 55.6176L55.6633 56.2913V54.9113C55.6633 53.1617 54.2506 52.5858 52.5011 52.5858H51.9469V58.2256H54.1637C54.2072 58.2473 54.1528 55.3351 54.1854 55.3568Z" fill="#122448"/>
<path d="M54.1854 50.771C54.2724 50.8144 54.3484 50.8688 54.4245 50.9122C54.4462 50.9231 54.468 50.9448 54.4897 50.9557C54.5332 50.9883 54.5658 51.01 54.5984 51.0318L55.6633 51.7055V50.3254C55.6633 48.5759 54.2506 48 52.5011 48H51.9469V49.3474L54.0768 50.6949C54.1094 50.7275 54.1528 50.7492 54.1854 50.771Z" fill="#122448"/>
<path d="M60.1186 61.0184C59.7709 61.1488 59.3797 61.2574 58.9559 61.3335C58.5321 61.4096 58.1192 61.4422 57.728 61.4422C56.9021 61.4422 56.3479 61.214 56.0762 60.7467C55.9024 60.4533 55.7937 60.0838 55.7285 59.66L55.685 59.6926L55.6633 59.7035L52.4902 62.1485C52.6315 62.4636 52.8054 62.757 53.0227 63.0178C53.4248 63.5068 53.9572 63.8871 54.6201 64.1697C55.283 64.4413 56.1197 64.5826 57.1303 64.5826C57.9236 64.5826 58.5973 64.5174 59.1515 64.387C59.1623 64.387 59.1623 64.387 59.1623 64.3761C59.76 64.2349 60.1838 63.6915 60.1729 63.0721L60.1186 61.0184Z" fill="#122448"/>
<path d="M84.6876 51.7599C85.3179 51.5752 86.1329 51.4122 87.1326 51.2492C88.1323 51.0862 89.1755 51.0101 90.2731 51.0101C91.3815 51.0101 92.316 51.1514 93.0441 51.4448C93.783 51.7382 94.3698 52.1403 94.8045 52.6727C95.2391 53.2052 95.5434 53.8354 95.7281 54.5635C95.9129 55.2916 95.9998 56.1065 95.9998 56.9976V64.3977H92.2834V57.454C92.2834 56.2587 92.1204 55.4111 91.8161 54.9112C91.501 54.4114 90.9142 54.1614 90.0449 54.1614C89.7732 54.1614 89.5015 54.1723 89.1973 54.194C88.893 54.2158 88.6322 54.2484 88.404 54.281V64.3977H84.6985V51.7599H84.6876Z" fill="#122448"/>
<path d="M82.0796 57.8345C82.0796 58.8668 81.9275 59.8013 81.6341 60.6598C81.3298 61.5182 80.906 62.2463 80.3409 62.8548C79.7759 63.4633 79.1021 63.9306 78.3089 64.2566C77.5265 64.5826 76.6354 64.7565 75.6574 64.7565C74.6903 64.7565 73.821 64.5935 73.0277 64.2566C72.2344 63.9197 71.5607 63.4525 70.9956 62.8548C70.4306 62.2463 69.9959 61.5182 69.6808 60.6598C69.3656 59.8013 69.2135 58.8559 69.2135 57.8345C69.2135 56.8021 69.3765 55.8676 69.7025 55.02C70.0285 54.1724 70.474 53.4552 71.05 52.8576C71.6259 52.2599 72.2996 51.7927 73.0929 51.4667C73.8753 51.1298 74.7446 50.9668 75.6683 50.9668C76.6137 50.9668 77.483 51.1298 78.2763 51.4667C79.0695 51.7927 79.7433 52.2599 80.3083 52.8576C80.8734 53.4552 81.3081 54.1833 81.6232 55.02C81.9166 55.8676 82.0796 56.8021 82.0796 57.8345ZM78.2871 57.8345C78.2871 56.6935 78.0589 55.7915 77.6025 55.1287C77.1461 54.4767 76.4941 54.1507 75.6466 54.1507C74.799 54.1507 74.147 54.4767 73.6797 55.1287C73.2124 55.7807 72.9842 56.6826 72.9842 57.8345C72.9842 58.9754 73.2124 59.8882 73.6797 60.562C74.147 61.2357 74.799 61.5726 75.6466 61.5726C76.4941 61.5726 77.1461 61.2357 77.6025 60.562C78.0589 59.8882 78.2871 58.9754 78.2871 57.8345Z" fill="#122448"/>
<path d="M66.5838 64.4087H65.3776C63.9976 64.4087 62.8674 63.2894 62.8674 61.9093V51.3145H64.4214C65.6167 51.3145 66.5838 52.2816 66.5838 53.4769V64.4087Z" fill="#122448"/>
<path d="M49.4578 57.8345C49.4578 58.8668 49.3056 59.8013 49.0122 60.6598C48.708 61.5182 48.2842 62.2463 47.7191 62.8548C47.154 63.4633 46.4803 63.9306 45.6871 64.2566C44.9047 64.5826 44.0136 64.7565 43.0356 64.7565C42.0685 64.7565 41.1991 64.5935 40.4059 64.2566C39.6126 63.9197 38.9389 63.4525 38.3738 62.8548C37.8087 62.2463 37.3632 61.5182 37.0589 60.6598C36.7438 59.8013 36.5808 58.8559 36.5808 57.8345C36.5808 56.8021 36.7438 55.8676 37.0698 55.02C37.3958 54.1724 37.8413 53.4552 38.4173 52.8576C38.9932 52.2599 39.6669 51.7927 40.4602 51.4667C41.2535 51.1298 42.1119 50.9668 43.0356 50.9668C43.981 50.9668 44.8503 51.1298 45.6436 51.4667C46.4368 51.7927 47.1106 52.2599 47.6757 52.8576C48.2407 53.4552 48.6754 54.1833 48.9905 55.02C49.2948 55.8676 49.4578 56.8021 49.4578 57.8345ZM45.6653 57.8345C45.6653 56.6935 45.4371 55.7915 44.9807 55.1287C44.5243 54.4767 43.8723 54.1507 43.0247 54.1507C42.1771 54.1507 41.5251 54.4767 41.0579 55.1287C40.5906 55.7807 40.3624 56.6826 40.3624 57.8345C40.3624 58.9754 40.5906 59.8882 41.0579 60.562C41.5251 61.2357 42.1771 61.5726 43.0247 61.5726C43.8723 61.5726 44.5243 61.2357 44.9807 60.562C45.448 59.8882 45.6653 58.9754 45.6653 57.8345Z" fill="#122448"/>
<path d="M23.1827 57.4541C23.1827 56.2588 23.0306 55.4112 22.7263 54.9113C22.4221 54.4115 21.8896 54.1616 21.1507 54.1616C20.9225 54.1616 20.6834 54.1724 20.4335 54.205C20.1835 54.2268 19.9445 54.2594 19.7054 54.292V64.3979H15.9999V51.7601C16.315 51.6731 16.6845 51.5862 17.1083 51.4993C17.5321 51.4123 17.9776 51.3254 18.4557 51.2493C18.9339 51.1733 19.412 51.1189 19.9119 51.0755C20.4117 51.032 20.9007 51.0103 21.3789 51.0103C22.3243 51.0103 23.0958 51.1298 23.6826 51.3689C24.2694 51.6079 24.7584 51.9013 25.1387 52.2273C25.6712 51.847 26.2797 51.5427 26.9752 51.3254C27.6598 51.1081 28.3009 50.9994 28.8768 50.9994C29.92 50.9994 30.7785 51.1407 31.4522 51.4341C32.126 51.7274 32.6584 52.1404 33.0605 52.662C33.4626 53.1944 33.7342 53.8247 33.8755 54.5528C34.0276 55.2808 34.1037 56.0958 34.1037 56.9977V64.3979H30.3982V57.4541C30.3982 56.2588 30.246 55.4112 29.9418 54.9113C29.6375 54.4115 29.105 54.1616 28.3552 54.1616C28.1596 54.1616 27.8771 54.2159 27.5185 54.3137C27.1599 54.4115 26.8665 54.5419 26.6383 54.6832C26.7578 55.0635 26.823 55.4655 26.8556 55.8893C26.8882 56.3131 26.91 56.7695 26.91 57.2477V64.3979H23.1936V57.4541H23.1827Z" fill="#122448"/>
<path d="M58.7277 53.7268L55.6524 51.7164L54.5984 51.0427C54.5658 51.0101 54.5223 50.9884 54.4897 50.9667C54.468 50.9558 54.4462 50.934 54.4245 50.9232C54.3484 50.8688 54.2724 50.8254 54.1963 50.7819H54.1854C54.142 50.7602 54.1094 50.7385 54.0768 50.7167L51.9469 49.3693V53.466L52.4902 53.7811C54.0007 54.6721 54.055 56.8237 52.6098 57.8017L51.9578 58.2364V58.9318C51.9578 59.7794 52.0338 60.551 52.1968 61.2464C52.2729 61.5724 52.3707 61.8767 52.5011 62.1592L55.6742 59.7142L55.6959 59.7034L55.7394 59.6708L55.8806 59.5621L58.8255 57.4214C60.0751 56.4869 60.0317 54.5852 58.7277 53.7268Z" fill="#DCA32D"/>
</g>
<rect x="1" y="1" width="110" height="110" rx="9" stroke="#CCCCCC" stroke-width="2"/>
<defs>
<clipPath id="clip0_421_554">
<rect x="2" y="2" width="108" height="108" rx="8" fill="white"/>
</clipPath>
</defs>
</svg>
