<svg width="112" height="112" viewBox="0 0 112 112" fill="none" xmlns="http://www.w3.org/2000/svg">
<g clip-path="url(#clip0_421_562)">
<rect x="2" y="2" width="108" height="108" rx="8" fill="white"/>
<g clip-path="url(#clip1_421_562)">
<path d="M31.1663 55.4628C31.2008 55.48 31.2311 55.5016 31.2613 55.5189C31.2699 55.5232 31.2785 55.5318 31.2872 55.5361C31.3044 55.5448 31.3174 55.5577 31.3303 55.5663L31.7533 55.8339V55.2858C31.7533 54.5909 31.1922 54.3622 30.4973 54.3622H30.2772V56.6022H31.1577C31.1749 56.6108 31.1534 55.4541 31.1663 55.4628Z" fill="#122448"/>
<path d="M31.1663 53.6413C31.2008 53.6586 31.2311 53.6802 31.2613 53.6975C31.2699 53.7018 31.2785 53.7104 31.2872 53.7147C31.3044 53.7277 31.3174 53.7363 31.3303 53.7449L31.7533 54.0125V53.4644C31.7533 52.7695 31.1922 52.5408 30.4973 52.5408H30.2772V53.076L31.1232 53.6111C31.1361 53.6241 31.1534 53.6327 31.1663 53.6413Z" fill="#122448"/>
<path d="M33.5229 57.7114C33.3848 57.7632 33.2294 57.8063 33.0611 57.8365C32.8927 57.8667 32.7287 57.8797 32.5733 57.8797C32.2453 57.8797 32.0252 57.7891 31.9173 57.6035C31.8483 57.4869 31.8051 57.3402 31.7792 57.1719L31.7619 57.1848L31.7533 57.1891L30.493 58.1602C30.5491 58.2854 30.6182 58.4019 30.7045 58.5055C30.8642 58.6997 31.0757 58.8508 31.339 58.963C31.6022 59.0709 31.9346 59.127 32.336 59.127C32.651 59.127 32.9186 59.1011 33.1387 59.0493C33.1431 59.0493 33.1431 59.0493 33.1431 59.045C33.3804 58.9889 33.5488 58.7731 33.5444 58.5271L33.5229 57.7114Z" fill="#122448"/>
<path d="M43.2814 54.0341C43.5317 53.9608 43.8554 53.896 44.2525 53.8313C44.6495 53.7665 45.0639 53.7363 45.4998 53.7363C45.94 53.7363 46.3112 53.7924 46.6004 53.909C46.8938 54.0255 47.1269 54.1852 47.2996 54.3967C47.4722 54.6082 47.593 54.8585 47.6664 55.1477C47.7398 55.4368 47.7743 55.7605 47.7743 56.1144V59.0536H46.2982V56.2957C46.2982 55.8209 46.2335 55.4843 46.1127 55.2858C45.9875 55.0872 45.7544 54.988 45.4092 54.988C45.3013 54.988 45.1934 54.9923 45.0725 55.0009C44.9517 55.0095 44.8481 55.0225 44.7574 55.0354V59.0536H43.2857V54.0341H43.2814Z" fill="#122448"/>
<path d="M42.2455 56.4468C42.2455 56.8568 42.1851 57.228 42.0685 57.569C41.9477 57.9099 41.7794 58.1991 41.5549 58.4408C41.3305 58.6825 41.0629 58.8681 40.7479 58.9976C40.4371 59.127 40.0832 59.1961 39.6948 59.1961C39.3106 59.1961 38.9654 59.1314 38.6503 58.9976C38.3352 58.8638 38.0676 58.6782 37.8432 58.4408C37.6188 58.1991 37.4461 57.9099 37.321 57.569C37.1958 57.228 37.1354 56.8525 37.1354 56.4468C37.1354 56.0368 37.2001 55.6656 37.3296 55.329C37.4591 54.9923 37.636 54.7075 37.8648 54.4701C38.0935 54.2327 38.3611 54.0471 38.6762 53.9177C38.9869 53.7839 39.3322 53.7191 39.6991 53.7191C40.0746 53.7191 40.4198 53.7839 40.7349 53.9177C41.05 54.0471 41.3176 54.2327 41.542 54.4701C41.7664 54.7075 41.9391 54.9966 42.0642 55.329C42.1808 55.6656 42.2455 56.0368 42.2455 56.4468ZM40.7392 56.4468C40.7392 55.9936 40.6486 55.6354 40.4673 55.3721C40.286 55.1132 40.0271 54.9837 39.6904 54.9837C39.3538 54.9837 39.0948 55.1132 38.9092 55.3721C38.7237 55.6311 38.633 55.9893 38.633 56.4468C38.633 56.9 38.7237 57.2625 38.9092 57.5301C39.0948 57.7977 39.3538 57.9315 39.6904 57.9315C40.0271 57.9315 40.286 57.7977 40.4673 57.5301C40.6486 57.2625 40.7392 56.9 40.7392 56.4468Z" fill="#122448"/>
<path d="M36.0909 59.0579H35.6119C35.0637 59.0579 34.6149 58.6134 34.6149 58.0653V53.8572H35.2321C35.7068 53.8572 36.0909 54.2413 36.0909 54.7161V59.0579Z" fill="#122448"/>
<path d="M29.2889 56.4468C29.2889 56.8568 29.2285 57.228 29.1119 57.569C28.9911 57.9099 28.8228 58.1991 28.5983 58.4408C28.3739 58.6825 28.1063 58.8681 27.7912 58.9976C27.4805 59.127 27.1266 59.1961 26.7381 59.1961C26.354 59.1961 26.0087 59.1314 25.6937 58.9976C25.3786 58.8638 25.111 58.6782 24.8866 58.4408C24.6621 58.1991 24.4852 57.9099 24.3643 57.569C24.2392 57.228 24.1744 56.8525 24.1744 56.4468C24.1744 56.0368 24.2392 55.6656 24.3687 55.329C24.4981 54.9923 24.6751 54.7075 24.9038 54.4701C25.1326 54.2327 25.4002 54.0471 25.7152 53.9177C26.0303 53.7839 26.3713 53.7191 26.7381 53.7191C27.1136 53.7191 27.4589 53.7839 27.774 53.9177C28.089 54.0471 28.3566 54.2327 28.5811 54.4701C28.8055 54.7075 28.9781 54.9966 29.1033 55.329C29.2241 55.6656 29.2889 56.0368 29.2889 56.4468ZM27.7826 56.4468C27.7826 55.9936 27.692 55.6354 27.5107 55.3721C27.3294 55.1132 27.0705 54.9837 26.7338 54.9837C26.3972 54.9837 26.1382 55.1132 25.9526 55.3721C25.767 55.6311 25.6764 55.9893 25.6764 56.4468C25.6764 56.9 25.767 57.2625 25.9526 57.5301C26.1382 57.7977 26.3972 57.9315 26.7338 57.9315C27.0705 57.9315 27.3294 57.7977 27.5107 57.5301C27.6963 57.2625 27.7826 56.9 27.7826 56.4468Z" fill="#122448"/>
<path d="M18.8529 56.2957C18.8529 55.821 18.7924 55.4843 18.6716 55.2858C18.5507 55.0873 18.3393 54.988 18.0458 54.988C17.9551 54.988 17.8602 54.9923 17.7609 55.0053C17.6616 55.0139 17.5667 55.0268 17.4717 55.0398V59.0537H16V54.0342C16.1252 53.9996 16.2719 53.9651 16.4402 53.9306C16.6086 53.8961 16.7855 53.8615 16.9754 53.8313C17.1653 53.8011 17.3552 53.7795 17.5538 53.7623C17.7523 53.745 17.9465 53.7364 18.1364 53.7364C18.5119 53.7364 18.8183 53.7838 19.0514 53.8788C19.2845 53.9738 19.4787 54.0903 19.6297 54.2198C19.8412 54.0687 20.0829 53.9479 20.3591 53.8615C20.631 53.7752 20.8857 53.7321 21.1144 53.7321C21.5288 53.7321 21.8697 53.7882 22.1373 53.9047C22.4049 54.0212 22.6164 54.1852 22.7761 54.3924C22.9358 54.6039 23.0437 54.8542 23.0998 55.1434C23.1602 55.4326 23.1904 55.7563 23.1904 56.1145V59.0537H21.7187V56.2957C21.7187 55.821 21.6582 55.4843 21.5374 55.2858C21.4166 55.0873 21.2051 54.988 20.9073 54.988C20.8296 54.988 20.7174 55.0096 20.5749 55.0484C20.4325 55.0873 20.316 55.1391 20.2253 55.1952C20.2728 55.3462 20.2987 55.5059 20.3117 55.6742C20.3246 55.8426 20.3332 56.0238 20.3332 56.2137V59.0537H18.8572V56.2957H18.8529Z" fill="#122448"/>
<path d="M32.9704 54.8153L31.749 54.0169L31.3303 53.7493C31.3174 53.7363 31.3001 53.7277 31.2872 53.7191C31.2785 53.7148 31.2699 53.7061 31.2613 53.7018C31.2311 53.6802 31.2008 53.663 31.1706 53.6457H31.1663C31.149 53.6371 31.1361 53.6284 31.1232 53.6198L30.2772 53.0846V54.7117L30.493 54.8369C31.0929 55.1908 31.1145 56.0454 30.5405 56.4338L30.2815 56.6065V56.8827C30.2815 57.2193 30.3117 57.5258 30.3765 57.802C30.4067 57.9315 30.4455 58.0523 30.4973 58.1645L31.7576 57.1934L31.7662 57.1891L31.7835 57.1762L31.8396 57.133L33.0092 56.2828C33.5056 55.9116 33.4883 55.1563 32.9704 54.8153ZM58.0204 55.0441L56.5961 53.6371H56.5831C56.5745 53.6371 56.5659 53.6327 56.5572 53.6327C56.5054 53.6241 56.4062 53.6069 56.2896 53.6198C56.1084 53.6327 55.94 53.6932 55.789 53.7968C55.7631 53.814 55.7415 53.827 55.7242 53.8442C55.707 53.8572 55.694 53.8701 55.6811 53.8831L55.4696 54.0902C55.9228 54.565 56.2033 55.2038 56.2033 55.9116C56.2033 56.5978 55.94 57.2236 55.5041 57.6941L55.694 57.884L55.7242 57.9056V57.9185L55.7286 57.9228L55.7415 57.9358C55.7458 57.9401 55.7501 57.9487 55.7545 57.953C55.7588 57.9574 55.7631 57.966 55.7674 57.9703C55.7717 57.9789 55.776 57.9833 55.7847 57.9919C55.789 58.0005 55.7933 58.0048 55.7976 58.0135C55.8019 58.0221 55.8106 58.0307 55.8149 58.0394C55.8192 58.048 55.8235 58.0566 55.8278 58.0609C55.8321 58.0696 55.8408 58.0825 55.8451 58.0955L55.858 58.1214C55.8667 58.1343 55.871 58.1473 55.8753 58.1602L55.8883 58.1861C55.8969 58.2034 55.9012 58.2206 55.9098 58.2379L55.9228 58.2638C55.9314 58.2897 55.94 58.3199 55.9487 58.3501C55.9573 58.3846 55.9659 58.4192 55.9746 58.4494C55.9789 58.4623 55.9789 58.471 55.9789 58.4839C55.9832 58.5055 55.9875 58.5271 55.9875 58.5443C55.9875 58.5573 55.9918 58.5702 55.9918 58.5832C55.9918 58.6004 55.9962 58.6177 55.9962 58.635V58.7083L57.1874 57.5042L58.1498 56.5417C58.2923 56.3993 58.3829 56.218 58.4088 56.0195C58.4174 55.9634 58.4217 55.9159 58.4217 55.8684C58.4304 55.5059 58.2362 55.2728 58.0204 55.0441ZM51.7535 53.9349C52.224 53.5162 52.8498 53.2616 53.5317 53.2616C54.2266 53.2616 54.8611 53.5248 55.3358 53.9564L55.5516 53.745C55.5646 53.732 55.5732 53.7234 55.5861 53.7148C55.5905 53.7104 55.5991 53.7061 55.6034 53.6975C55.6163 53.6889 55.6293 53.6759 55.6422 53.6673C55.6552 53.6586 55.6681 53.6457 55.6854 53.6371C55.7933 53.5637 55.9142 53.5076 56.0393 53.4687C56.1127 53.4472 56.1947 53.4342 56.2724 53.4256C56.3112 53.4213 56.3458 53.4213 56.3803 53.4213H56.3846L54.6711 51.7251C54.5589 51.6388 54.4597 51.5438 54.3647 51.4489C54.2957 51.3798 54.2309 51.3151 54.1575 51.2546C53.9806 51.0906 53.7562 51 53.5188 51C53.2728 51 53.044 51.095 52.8714 51.2676L52.8498 51.2892C52.8023 51.328 52.7592 51.3669 52.716 51.41L52.7074 51.4187L51.2917 52.8257V52.83C51.1925 53.3263 51.5119 53.6889 51.5119 53.6932L51.7535 53.9349ZM55.8149 58.6522C55.8149 58.6393 55.8106 58.622 55.8106 58.6048C55.8106 58.5961 55.8106 58.5832 55.8063 58.5702C55.8063 58.553 55.8019 58.5357 55.7976 58.5141C55.7976 58.5055 55.7933 58.4925 55.7933 58.4839C55.789 58.4537 55.7804 58.4278 55.7717 58.3976C55.7631 58.3674 55.7545 58.3415 55.7458 58.3156C55.7415 58.307 55.7372 58.2983 55.7372 58.2897C55.7329 58.2724 55.7242 58.2552 55.7199 58.2422L55.707 58.2163C55.7027 58.2034 55.694 58.1904 55.6897 58.1818L55.6768 58.1559L55.6638 58.13C55.6595 58.1214 55.6552 58.1127 55.6509 58.1084C55.6466 58.0998 55.6422 58.0955 55.6379 58.0868C55.6336 58.0782 55.6293 58.0739 55.625 58.0696C55.6207 58.0653 55.6163 58.0566 55.612 58.0523C55.6077 58.048 55.6034 58.0437 55.6034 58.0394C55.5991 58.035 55.5948 58.0307 55.5948 58.0264L55.5861 58.0178L55.5775 58.0092L55.5646 57.9962L55.3833 57.8149C54.9042 58.2681 54.2568 58.5486 53.5404 58.5486C52.8369 58.5486 52.1981 58.2767 51.719 57.8365L51.5248 58.0307C51.5205 58.035 51.4644 58.0912 51.3651 58.1516C51.3608 58.1559 51.3565 58.1559 51.3522 58.1602C51.3435 58.1645 51.3306 58.1732 51.3219 58.1775C51.3176 58.1818 51.3133 58.1861 51.3047 58.1861C51.2961 58.1904 51.2831 58.1991 51.2702 58.2034C51.2615 58.2077 51.2572 58.212 51.2486 58.2163C51.2356 58.2206 51.227 58.2249 51.214 58.2293L51.1882 58.2422C51.1752 58.2465 51.1666 58.2508 51.1536 58.2552C51.145 58.2595 51.132 58.2638 51.1234 58.2681C51.1148 58.2724 51.1018 58.2767 51.0889 58.2767C51.0759 58.2811 51.063 58.2854 51.0544 58.2897C51.0414 58.294 51.0328 58.294 51.0198 58.2983C51.0069 58.3026 50.9939 58.307 50.9767 58.307C50.9637 58.3113 50.9551 58.3113 50.9421 58.3113C50.9292 58.3156 50.9119 58.3156 50.8947 58.3199C50.8817 58.3199 50.8688 58.3242 50.8601 58.3242C50.8429 58.3242 50.8299 58.3285 50.8127 58.3285H50.722L52.3923 60.0118C52.4312 60.0506 52.47 60.0938 52.5132 60.1369C52.7246 60.3657 53.0095 60.6807 53.4454 60.7153C53.4972 60.7239 53.5447 60.7282 53.5878 60.7282C53.8295 60.7282 54.0626 60.6333 54.2352 60.4606L55.3574 59.3385L55.8019 58.9069V58.8939C55.8019 58.8896 55.8019 58.8853 55.8063 58.8767C55.8063 58.868 55.8106 58.8594 55.8106 58.8551C55.8106 58.8465 55.8106 58.8421 55.8149 58.8335C55.8149 58.8249 55.8149 58.8162 55.8192 58.8033V58.7774V58.7429V58.7127V58.6738C55.8149 58.6738 55.8149 58.6652 55.8149 58.6522ZM51.5809 57.7113C51.1364 57.2409 50.8645 56.6065 50.8645 55.9073C50.8645 55.1908 51.1536 54.5391 51.6198 54.0643L51.3824 53.8227C51.3824 53.8227 51.3781 53.8183 51.3781 53.814L51.3737 53.8097C51.3694 53.8054 51.3694 53.8011 51.3651 53.7968C51.3651 53.7924 51.3608 53.7924 51.3608 53.7881C51.3565 53.7838 51.3522 53.7795 51.3478 53.7709C51.3435 53.7665 51.3435 53.7622 51.3392 53.7579C51.3349 53.7536 51.3306 53.745 51.3263 53.7363C51.3219 53.732 51.3176 53.7277 51.3176 53.7234C51.3133 53.7148 51.3047 53.7061 51.3004 53.6975C51.2961 53.6932 51.2917 53.6889 51.2917 53.6802C51.2831 53.6673 51.2788 53.6586 51.2702 53.6457C51.2702 53.6414 51.2658 53.6371 51.2658 53.6327C51.2572 53.6155 51.2486 53.5982 51.2356 53.581C51.2313 53.5766 51.2313 53.568 51.227 53.5637C51.2184 53.5507 51.214 53.5378 51.2054 53.5205C51.2011 53.5119 51.1968 53.5033 51.1968 53.4946C51.1925 53.4817 51.1838 53.4687 51.1795 53.4515C51.1752 53.4428 51.1709 53.4342 51.1709 53.4256C51.1666 53.4126 51.1623 53.3954 51.1579 53.3824C51.1536 53.3738 51.1493 53.3608 51.1493 53.3522C51.145 53.3349 51.1407 53.322 51.1364 53.3047C51.132 53.2961 51.132 53.2832 51.1277 53.2745L51.1148 53.2098C51.1148 53.2012 51.1105 53.1968 51.1105 53.1882C51.1061 53.158 51.1018 53.1321 51.1018 53.1019V53.0803V53.0199L49.3884 54.7117C49.3495 54.7506 49.3064 54.7894 49.2632 54.8326C49.0215 55.0527 48.6892 55.3591 48.6806 55.8339C48.6763 56.2008 48.8662 56.4381 49.0863 56.6712L50.5278 58.13C50.5494 58.1343 50.571 58.1386 50.5925 58.1386C50.6357 58.1429 50.6832 58.1473 50.7263 58.1473C51.1407 58.1473 51.3953 57.8969 51.3953 57.8969L51.5809 57.7113Z" fill="#DCA32D"/>
<path d="M53.3117 55.5447C53.3678 55.5102 53.4369 55.4886 53.5146 55.4886C53.5879 55.4886 53.6527 55.5102 53.7131 55.5447L53.8728 55.385L54.7791 54.4873L55.1244 54.1506C54.6971 53.7665 54.1361 53.5334 53.5146 53.5334C52.9017 53.5334 52.3449 53.7622 51.922 54.1334L52.3406 54.5607L53.3117 55.5447ZM53.8383 55.6699C53.8728 55.726 53.8944 55.795 53.8944 55.8684C53.8944 55.9418 53.8728 56.0065 53.8383 56.0669L54.7273 56.9344L55.2884 57.4998C55.6725 57.0812 55.9099 56.5201 55.9099 55.9072C55.9099 55.2728 55.6596 54.6988 55.2539 54.2758L54.9043 54.6168L53.8383 55.6699ZM53.7131 56.1921C53.657 56.2266 53.5879 56.2482 53.5146 56.2482C53.4412 56.2482 53.3764 56.2266 53.316 56.1921L52.4442 57.0855L51.8831 57.6466C52.3104 58.0393 52.8844 58.281 53.5146 58.281C54.1576 58.281 54.736 58.0307 55.1676 57.625L54.6065 57.0596L53.7131 56.1921ZM53.1909 56.0669C53.1563 56.0065 53.1347 55.9418 53.1347 55.8684C53.1347 55.795 53.1563 55.7303 53.1909 55.6699L52.2111 54.6815L51.7925 54.2499C51.3738 54.6772 51.1149 55.2598 51.1149 55.9029C51.1149 56.5287 51.3566 57.0941 51.7536 57.5171L52.3147 56.956L53.1909 56.0669Z" fill="#DCA32D"/>
<path d="M65.8046 53.9735C66.4497 53.8035 67.0988 53.7373 67.7361 53.7357C68.4426 53.7357 68.9579 53.9917 69.2862 54.295C69.6145 54.5984 69.7808 55.0431 69.7808 55.6332V58.9064C69.206 59.0604 68.3165 59.186 67.456 59.1456C66.6615 59.0413 65.6488 59.0003 65.359 58.2098C65.2884 58.0103 65.251 57.7984 65.251 57.5698C65.251 57.3163 65.2925 57.0836 65.3757 56.8758C65.4588 56.6638 65.5876 56.481 65.7538 56.3272C65.9201 56.1734 66.1362 56.0488 66.3897 55.9615C66.6473 55.8742 66.9507 55.8285 67.2998 55.8285H68.2615V55.6706C68.2615 55.5792 68.2532 55.4919 68.2324 55.4088C68.2116 55.3257 68.1742 55.2509 68.1119 55.1885C68.0495 55.1262 67.9664 55.0763 67.8542 55.0389C67.742 55.0015 67.7029 54.9807 67.52 54.9807C67.4245 54.9807 67.3122 54.9849 67.1876 54.9974C65.7309 55.2396 65.9426 54.4885 65.8046 53.9735ZM68.3188 56.8209H67.7095C67.6181 56.8209 67.5225 56.8292 67.4186 56.8417C67.3147 56.8541 67.2191 56.8832 67.1318 56.9331C67.0446 56.983 66.9739 57.0536 66.9116 57.145C66.8534 57.2365 66.8243 57.3038 66.8243 57.4617C66.8243 57.6903 66.8991 57.8482 67.0529 57.9396C67.2066 58.0311 67.4103 58.0236 67.6721 58.0236C67.7095 58.0236 68.2565 58.0486 68.3188 58.0236V56.8209Z" fill="#142B4B"/>
<path d="M71.1321 54.0018C71.3839 53.9279 71.7096 53.8628 72.1091 53.7977C72.5086 53.7325 72.9254 53.7021 73.364 53.7021C73.8069 53.7021 74.1803 53.7586 74.4712 53.8758C74.7665 53.9931 75.001 54.1537 75.1747 54.3665C75.3484 54.5793 75.47 54.8311 75.5438 55.1221C75.6176 55.413 75.6523 55.7386 75.6523 56.0947V59.0518H74.1673V56.2771C74.1673 55.7994 74.1022 55.4607 73.9806 55.261C73.8547 55.0613 73.6202 54.9614 73.2728 54.9614C73.1642 54.9614 73.0557 54.9657 72.9341 54.9744C72.8125 54.9831 72.7083 54.9961 72.6171 55.0092V59.0518H71.1364V54.0018H71.1321Z" fill="#142B4B"/>
<path d="M84.2489 59.0819H83.7672C83.2162 59.0819 82.7649 58.6349 82.7649 58.0839V53.8531H83.3854C83.8627 53.8531 84.2489 54.2393 84.2489 54.7166V59.0819Z" fill="#142B4B"/>
<path d="M85.6105 54.0018C85.8623 53.9279 86.188 53.8628 86.5875 53.7977C86.987 53.7325 87.4038 53.7021 87.8424 53.7021C88.2853 53.7021 88.6587 53.7586 88.9496 53.8758C89.2449 53.9931 89.4794 54.1537 89.6531 54.3665C89.8268 54.5793 89.9483 54.8311 90.0222 55.1221C90.096 55.413 90.1307 55.7386 90.1307 56.0947V59.0518H88.6457V56.2771C88.6457 55.7994 88.5806 55.4607 88.459 55.261C88.333 55.0613 88.0986 54.9614 87.7512 54.9614C87.6426 54.9614 87.5341 54.9657 87.4125 54.9744C87.2909 54.9831 87.1867 54.9961 87.0955 55.0092V59.0518H85.6148V54.0018H85.6105Z" fill="#142B4B"/>
<path d="M76.9832 55.2069V51.3621H77.4755C77.8537 51.3621 78.0293 51.4236 78.2336 51.6279C78.4951 51.8894 78.4995 51.9241 78.5019 53.7669L78.5045 55.6401L78.9622 55.1525C79.214 54.8843 79.5787 54.4803 79.7725 54.2546L80.1251 53.8443C80.7131 53.8653 81.3012 53.8368 81.8892 53.8578L80.8332 55.0173L79.7772 56.1273L80.3329 56.7354C80.8784 57.3322 81.25 57.8375 81.7377 58.6456L81.9829 59.0517H81.1159H80.249L79.7614 58.3207C79.4933 57.9186 79.0997 57.4217 78.8867 57.2164L78.4994 56.8431V57.9474V59.0517H77.7413H76.9832V55.2069Z" fill="#142B4B"/>
<path d="M60.0614 59.0338L59.6543 58.9307V55.1464V51.3621H60.3423C61.1349 51.3621 61.1719 52.0744 61.1719 52.7594L61.1706 53.968L61.5111 53.8314C62.6371 53.5297 63.3587 53.8647 63.8877 54.3968C64.3426 54.8667 64.5283 55.5948 64.5438 56.3473C64.596 57.7849 63.9565 58.6004 62.935 59.045C62.4801 59.235 60.8303 59.2059 60.0614 59.0338ZM62.9224 56.8398C63.0089 56.0065 63.0228 55.2621 62.1649 55.0323C61.752 54.9647 61.6006 55.0239 61.1786 55.1629V57.7538C62.2422 58.143 62.8306 57.7231 62.9224 56.8398Z" fill="#142B4B"/>
<path d="M91.3757 60.4837L91.7611 59.3294C92.6853 59.6262 94.1387 60.216 94.4342 58.8525C94.4342 58.8525 94.4671 58.6768 94.4552 58.5651C92.3775 59.1218 91.2498 58.1233 91.2288 56.3118C91.2288 54.4305 92.19 53.7266 94.0394 53.7266C94.5587 53.7645 95.4873 53.852 95.9999 53.9894V56.8337V59.1811C96.0067 59.8451 95.5279 60.2735 94.9499 60.5933C94.0519 61.1117 92.4972 61.1313 91.3757 60.4837ZM94.4636 57.3349C94.4636 56.8335 94.4755 56.8348 94.4755 56.1303V54.9362C93.1576 54.7904 92.81 55.5567 92.7505 56.0492C92.6916 56.4919 92.751 56.9359 93.0649 57.2245C93.3794 57.5053 93.884 57.6027 94.4636 57.3349Z" fill="#142B4B"/>
</g>
</g>
<rect x="1" y="1" width="110" height="110" rx="9" stroke="#CCCCCC" stroke-width="2"/>
<defs>
<clipPath id="clip0_421_562">
<rect x="2" y="2" width="108" height="108" rx="8" fill="white"/>
</clipPath>
<clipPath id="clip1_421_562">
<rect width="80" height="9.97631" fill="white" transform="translate(16 51)"/>
</clipPath>
</defs>
</svg>
