<svg width="112" height="112" viewBox="0 0 112 112" fill="none" xmlns="http://www.w3.org/2000/svg">
<g clip-path="url(#clip0_742_118)">
<rect x="2" y="2" width="108" height="108" rx="8" fill="white"/>
<path d="M67.1335 90.4771V90.4214L67.1327 89.9416C67.1319 89.9011 67.1447 89.8875 67.1852 89.8883L67.7143 89.8891C67.7772 89.8891 67.7772 89.8891 67.7772 89.9536V93.887C67.7772 93.9491 67.7772 93.9491 67.7159 93.9491C67.5385 93.9491 67.3603 93.9483 67.1829 93.9499C67.1439 93.9499 67.1319 93.9379 67.1319 93.899L67.1327 93.4232V93.3572L67.0818 93.4033C66.8961 93.6014 66.6734 93.7611 66.4262 93.8735C66.0746 94.0334 65.707 94.0939 65.3227 94.0541C64.8955 94.0104 64.5152 93.8528 64.1858 93.5791C63.8775 93.3257 63.6474 92.9899 63.5223 92.6109C63.4133 92.2831 63.3831 91.9482 63.4316 91.6076C63.4814 91.2374 63.6298 90.8873 63.8612 90.594C64.1238 90.2599 64.4539 90.0196 64.8581 89.8836C65.2098 89.765 65.5678 89.7388 65.9314 89.8072C66.3524 89.8828 66.7396 90.0871 67.0396 90.392L67.112 90.4636C67.1152 90.466 67.12 90.4683 67.1335 90.4771ZM64.1118 91.8439C64.1126 92.1065 64.1365 92.2584 64.1994 92.4414C64.2872 92.7059 64.4504 92.939 64.6688 93.1121C65.0077 93.3818 65.3951 93.4845 65.8248 93.428C66.1112 93.3906 66.3698 93.2816 66.583 93.089C67.0794 92.6411 67.2218 92.0842 67.0452 91.4477C66.9569 91.1279 66.7652 90.8701 66.497 90.6712C66.3204 90.5407 66.1239 90.454 65.9099 90.4118C65.7285 90.376 65.5455 90.3745 65.3625 90.4047C65.144 90.4384 64.9363 90.5229 64.7563 90.6513C64.3259 90.964 64.123 91.3936 64.1118 91.8439ZM76.3991 90.4691V90.4222L76.3983 89.9377C76.3983 89.9019 76.4079 89.8883 76.446 89.8883H76.9974C77.0324 89.8883 77.0459 89.9011 77.0435 89.9353C77.0427 89.9472 77.0435 89.9592 77.0435 89.9711V93.9045C77.0459 93.9364 77.034 93.9491 77.0006 93.9491C76.8155 93.9475 76.6304 93.9475 76.4452 93.9491C76.4094 93.9491 76.3999 93.9372 76.3999 93.9029L76.4007 93.4144L76.3983 93.3587C75.8772 93.9045 75.2495 94.1424 74.508 94.0446C73.9638 93.973 73.5158 93.7128 73.1666 93.2911C72.8283 92.8779 72.6547 92.3543 72.6793 91.8209C72.7038 91.2874 72.9247 90.7819 73.2994 90.4015C73.5005 90.1925 73.7436 90.0286 74.0127 89.9204C74.2817 89.8122 74.5706 89.7622 74.8604 89.7738C75.4682 89.7881 75.9766 90.03 76.3911 90.4747L76.3991 90.4691ZM73.3782 91.828C73.3782 92.1073 73.4029 92.2592 73.4649 92.4414C73.5572 92.7095 73.7124 92.9363 73.9335 93.1129C74.2725 93.3834 74.6599 93.4853 75.0895 93.4296C75.3203 93.3993 75.5343 93.323 75.7212 93.1885C76.2479 92.8074 76.4508 92.2855 76.3577 91.649C76.3132 91.3411 76.1739 91.0738 75.9591 90.847C75.7443 90.6203 75.481 90.4763 75.1755 90.4142C74.9933 90.3768 74.8087 90.3768 74.6233 90.4079C74.4049 90.4422 74.1975 90.5272 74.0179 90.6561C73.5906 90.9664 73.3885 91.3944 73.3782 91.828ZM78.657 90.2853C78.7565 90.17 78.8718 90.0737 79.0023 89.9957C79.1739 89.8928 79.3625 89.8214 79.5592 89.7849C79.786 89.7419 80.0135 89.7443 80.2395 89.7873C80.5119 89.8362 80.7656 89.9589 80.973 90.1421C81.2109 90.3522 81.3621 90.6163 81.4456 90.9194C81.4949 91.0969 81.5156 91.2791 81.5156 91.4636L81.5164 93.9029C81.5164 93.9435 81.5037 93.9523 81.4655 93.9515C81.2804 93.9495 81.0953 93.9495 80.9102 93.9515C80.8672 93.9523 80.8561 93.9395 80.8561 93.8974L80.8569 91.5997C80.8569 91.392 80.8322 91.1892 80.7487 90.9966C80.6174 90.6927 80.4002 90.4835 80.0748 90.4063C79.6682 90.3092 79.2983 90.3872 78.984 90.6712C78.8249 90.8144 78.7215 90.9958 78.6785 91.2059C78.657 91.3093 78.6459 91.4167 78.6451 91.5225L78.6435 93.9475L78.5958 93.9507C78.408 93.9507 78.2194 93.9499 78.0317 93.9515C77.9911 93.9523 77.9823 93.9371 77.9831 93.8998L77.9839 88.2391C77.9839 88.2239 77.9855 88.2096 77.9839 88.1945C77.98 88.1587 77.9935 88.1452 78.0309 88.146L78.4486 88.1468L78.6037 88.146C78.6347 88.1452 78.6443 88.1563 78.6443 88.1873L78.6435 88.5294V90.283L78.657 90.2853ZM59.0661 89.9281L59.456 90.8128L60.7934 93.8377C60.8008 93.8526 60.8045 93.869 60.8043 93.8856C60.804 93.9023 60.7997 93.9186 60.7918 93.9332L59.9978 95.627C59.9866 95.6501 59.9779 95.6748 59.966 95.7058H60.0272L60.6271 95.7074C60.674 95.7082 60.6939 95.6907 60.7122 95.6509L61.5556 93.7939L63.2518 90.0697L63.3242 89.9066C63.3099 89.9043 63.3027 89.9019 63.2956 89.9019C63.0736 89.9019 62.8508 89.9019 62.6288 89.9011C62.6026 89.9011 62.5906 89.9122 62.5803 89.9361L61.3368 92.7986L61.1816 93.1535L61.1586 93.1145L59.8068 89.9464C59.7925 89.913 59.775 89.9003 59.7376 89.9011L59.1067 89.9019L59.0582 89.9043L59.0661 89.9281ZM56.1328 93.0039L55.8074 93.4367C55.7891 93.4606 55.801 93.4733 55.8153 93.4892C55.937 93.6197 56.0802 93.7208 56.237 93.8027C56.5386 93.9596 56.8711 94.0485 57.2108 94.0629C57.4537 94.0784 57.6974 94.0456 57.9276 93.9666C58.128 93.9 58.3078 93.7827 58.4495 93.6261C58.65 93.3985 58.7336 93.1296 58.7312 92.8297C58.7296 92.5472 58.627 92.3117 58.4169 92.1224C58.2666 91.9879 58.0955 91.8845 57.9125 91.8034L57.2736 91.5384C57.1162 91.4774 56.9687 91.3932 56.8361 91.2886C56.5695 91.0666 56.587 90.6983 56.8743 90.5033C56.988 90.4262 57.1161 90.388 57.2514 90.3697C57.4739 90.3384 57.7007 90.3658 57.9093 90.4492C58.0517 90.5057 58.1814 90.5853 58.3063 90.6736C58.3278 90.6887 58.3453 90.6991 58.3636 90.6688L58.6429 90.2209C58.6564 90.1994 58.654 90.1835 58.6325 90.1684L58.5092 90.0817C58.2992 89.9488 58.0716 89.8621 57.8282 89.8136C57.4646 89.742 57.1066 89.7491 56.7581 89.8828C56.3444 90.0411 56.0643 90.3212 55.9816 90.7699C55.9519 90.9233 55.9581 91.0815 55.9999 91.2321C56.054 91.4254 56.167 91.5798 56.3173 91.7087C56.5369 91.8956 56.7971 92.0078 57.0612 92.1152L57.6667 92.3786C57.7945 92.4335 57.9017 92.5273 57.973 92.6467C58.0385 92.7731 58.0515 92.9203 58.0092 93.0563C57.9669 93.1923 57.8727 93.3061 57.747 93.3731C57.4996 93.5083 57.2355 93.5075 56.9689 93.4495C56.7287 93.3969 56.5138 93.2856 56.3205 93.1328L56.1479 92.9888C56.1415 92.996 56.1359 92.9999 56.1328 93.0039ZM69.3461 90.2973L69.3469 89.9416C69.3477 89.8979 69.3326 89.8867 69.2912 89.8876H68.7757C68.7303 89.8867 68.7176 89.9019 68.7176 89.9456L68.7184 90.7006V93.8862C68.7184 93.9507 68.7184 93.9507 68.7836 93.9507H69.2856C69.3771 93.9507 69.3771 93.9507 69.3779 93.86L69.3811 91.4962C69.3827 91.26 69.4368 91.0324 69.5593 90.8263C69.6667 90.6458 69.8163 90.5137 70.0208 90.4532C70.2045 90.3983 70.3883 90.3967 70.5689 90.4699C70.6 90.4827 70.6159 90.4771 70.631 90.4453L70.8951 89.9035C70.9087 89.8756 70.9071 89.8605 70.8752 89.851L70.7018 89.7961C70.4957 89.7396 70.2889 89.7396 70.0828 89.7945C69.8362 89.8597 69.6341 89.995 69.471 90.1899L69.3501 90.3458L69.3461 90.2973ZM71.9915 89.9528C71.9915 89.9114 71.9795 89.9003 71.939 89.9003H71.3789C71.3383 89.8995 71.3295 89.9138 71.3295 89.9512V93.9022C71.3295 93.9419 71.3415 93.9523 71.3804 93.9515H71.9358C71.9827 93.9523 71.9915 93.9371 71.9915 93.8934V89.9528ZM72.1243 88.5549C72.1248 88.4941 72.113 88.4338 72.0896 88.3776C72.0663 88.3214 72.0319 88.2705 71.9885 88.2279C71.945 88.1853 71.8935 88.1518 71.8369 88.1296C71.7803 88.1073 71.7197 88.0966 71.6589 88.0982C71.3964 88.0974 71.1951 88.294 71.1943 88.5509C71.1935 88.8039 71.3956 89.0028 71.6541 89.0036C71.9127 89.0044 72.1227 88.8071 72.1243 88.5549ZM55.9911 85.9605V78.1015H57.8099V80.7914L57.8878 80.7509C58.9428 80.0285 60.433 80.174 61.3726 81.2481C62.4737 82.5075 62.309 84.4743 61.0162 85.5269C60.0646 86.3018 58.7288 86.3272 57.7486 85.5905L57.6651 85.53V85.9605H55.9911ZM60.2158 83.2172L60.1879 82.9682C60.0606 82.2331 59.2953 81.7939 58.5959 82.0533C58.0223 82.2657 57.7049 82.8855 57.8481 83.5124C57.9114 83.8173 58.0922 84.0851 58.3514 84.2578C58.6106 84.4305 58.9274 84.4943 59.2332 84.4353C59.7941 84.3382 60.2102 83.8203 60.2158 83.2172ZM68.7438 85.9605H67.0452V85.5475L66.9458 85.6215C65.9107 86.3797 64.4985 86.2771 63.5454 85.3725C63.227 85.0632 62.9813 84.6871 62.8259 84.2713C62.6705 83.8556 62.6094 83.4105 62.6468 82.9682C62.6842 82.526 62.8194 82.0975 63.0425 81.7138C63.2655 81.3301 63.571 81.0006 63.9368 80.7493C64.8589 80.1343 66.0523 80.1605 66.9505 80.8161L67.0412 80.8821V80.4732H68.743L68.7438 85.9605ZM65.7325 84.4552C66.4056 84.4584 66.9211 83.9269 66.9259 83.2252C66.9306 82.5235 66.4167 81.9801 65.7404 81.9769C65.0602 81.9737 64.5431 82.5036 64.5383 83.2085C64.5335 83.9134 65.0467 84.452 65.7325 84.4552ZM41.3871 81.2322V80.4334L41.4857 80.4286L42.1532 80.4263C42.24 80.4239 42.2654 80.4461 42.2646 80.536L42.2622 85.9223H41.3903V85.1243C40.6297 85.904 39.7306 86.2222 38.6725 86.0329C37.9899 85.9103 37.4282 85.5666 36.9882 85.0328C36.0788 83.9285 36.1083 82.3079 37.0654 81.233C37.3322 80.9245 37.6635 80.6783 38.036 80.512C38.4084 80.3456 38.8128 80.2631 39.2207 80.2703C40.0751 80.2687 40.7888 80.6021 41.3871 81.2322ZM41.3759 83.1767L41.3218 82.7486C41.0625 81.4072 39.5739 80.6928 38.371 81.3301C37.569 81.7549 37.1537 82.6444 37.3176 83.584C37.4124 84.0964 37.7 84.5529 38.1212 84.8597C38.5424 85.1665 39.0651 85.3002 39.5819 85.2333C40.0803 85.1683 40.5378 84.9233 40.8682 84.5446C41.1986 84.1658 41.3792 83.6793 41.3759 83.1767ZM52.1675 86.0893C51.1547 86.0488 50.2342 85.5722 49.6645 84.5387C48.9445 83.2323 49.3558 81.6356 50.6017 80.7859C51.9296 79.8797 53.8231 80.1947 54.7643 81.4788C55.7564 82.8322 55.3976 84.7122 53.9775 85.6104C53.4707 85.9302 52.9169 86.0854 52.1675 86.0893ZM52.321 85.2492C53.4667 85.25 54.3609 84.3438 54.3625 83.1798C54.3641 82.0159 53.4683 81.0985 52.3226 81.0977C51.177 81.0969 50.2676 82.0167 50.2676 83.1782C50.2676 84.3398 51.1714 85.2484 52.321 85.2492ZM81.475 85.966H81.3676C80.6946 85.966 80.0215 85.9652 79.3492 85.9676C79.2824 85.9676 79.2458 85.9445 79.2108 85.8912L77.6967 83.6134C77.6784 83.5856 77.6585 83.5585 77.6211 83.5379V85.9597H75.7976V78.0999H77.6196V82.3707L77.6394 82.3771L77.6967 82.3063L79.062 80.5384C79.0784 80.5138 79.101 80.494 79.1276 80.481C79.1541 80.468 79.1837 80.4623 79.2131 80.4644L81.3724 80.466L81.3103 80.5512L79.4216 82.8767C79.3731 82.9364 79.3691 82.9738 79.4144 83.0382L81.409 85.869L81.475 85.966ZM71.4473 82.9125L71.4513 82.7311C71.4751 82.3564 71.744 82.0556 72.1204 81.9817C72.2985 81.943 72.4845 81.9655 72.6483 82.0455C72.8121 82.1254 72.9442 82.2582 73.0234 82.4224C73.0913 82.5727 73.1242 82.7365 73.1196 82.9014L73.1188 85.9581H74.9424L74.9463 85.8825V85.0431L74.9416 82.3166C74.9336 81.6897 74.7116 81.1479 74.216 80.7429C73.7704 80.3793 73.2461 80.2616 72.6828 80.287C72.1617 80.3109 71.6971 80.47 71.3375 80.8686C71.3327 80.8742 71.3232 80.8758 71.3041 80.8845V80.4724H69.6246V85.9589H71.4473V82.9125ZM44.4255 85.8109V82.6094C44.4255 82.3301 44.4812 82.0636 44.626 81.8233C44.9458 81.2935 45.4311 81.0619 46.0374 81.081C46.5975 81.0985 47.0088 81.3635 47.2586 81.8671C47.3947 82.1416 47.4321 82.4383 47.4321 82.7415V85.9239H48.3207L48.3263 85.861L48.3223 82.4519C48.3192 82.0055 48.2054 81.5823 47.9595 81.2052C47.5729 80.6108 47.012 80.3029 46.3127 80.2568C45.5696 80.2075 44.9196 80.4183 44.4175 80.9967C44.412 81.0039 44.4 81.0054 44.3777 81.015V80.4286C44.1224 80.4286 43.8773 80.4318 43.6323 80.4271C43.5487 80.4255 43.5265 80.4501 43.5265 80.5329L43.528 85.8284C43.528 85.8594 43.5312 85.8897 43.5328 85.9239H44.4239L44.4255 85.8109ZM31.4397 85.8141L31.4389 82.6301C31.4381 82.3413 31.4914 82.0668 31.641 81.8186C31.9616 81.2887 32.4485 81.0603 33.054 81.0802C33.3119 81.0785 33.5647 81.1523 33.7811 81.2925C33.9976 81.4328 34.1682 81.6334 34.272 81.8695C34.4041 82.1392 34.4423 82.4296 34.4423 82.7271V85.8157L34.4471 85.9223H35.3349L35.3397 85.8674L35.3357 82.4503C35.3326 82.0047 35.218 81.5807 34.9722 81.2044C34.5553 80.5663 33.9474 80.2655 33.1964 80.2504C32.5002 80.2361 31.8964 80.4541 31.4325 80.9959C31.4246 81.0047 31.4118 81.0094 31.388 81.0253V80.4278C31.1334 80.4278 30.8883 80.4318 30.6433 80.4263C30.5582 80.4247 30.5391 80.4517 30.5391 80.5329L30.5407 85.8276C30.5407 85.8586 30.543 85.8888 30.5454 85.9231H31.4389L31.4397 85.8141Z" fill="#002657"/>
<path d="M80.4646 39.5579C80.4646 20.851 59.5228 10.6569 45.7191 18.4896C44.2695 16.7878 42.1127 15.7074 39.702 15.7074C35.3373 15.7074 31.7993 19.2454 31.7993 23.6101V64.6719C31.7993 69.0365 35.3373 72.5746 39.702 72.5746C44.0667 72.5746 47.6047 69.0365 47.6047 64.6719V40.5922C47.6047 28.7664 64.6664 29.3416 64.6664 40.5922V64.6711C64.6664 69.0357 68.2044 72.5738 72.5691 72.5738C76.9337 72.5738 80.4718 69.0357 80.4718 64.6711C80.4718 64.6711 80.4646 48.7964 80.4646 39.5579Z" fill="#31F100"/>
</g>
<rect x="1" y="1" width="110" height="110" rx="9" stroke="#CCCCCC" stroke-width="2"/>
<defs>
<clipPath id="clip0_742_118">
<rect x="2" y="2" width="108" height="108" rx="8" fill="white"/>
</clipPath>
</defs>
</svg>
