<svg width="112" height="112" viewBox="0 0 112 112" fill="none" xmlns="http://www.w3.org/2000/svg">
<g clip-path="url(#clip0_727_38)">
<rect x="2.00003" y="2" width="108" height="108" rx="8" fill="white"/>
<path d="M35.0248 52.8548H37.7337C39.2265 52.8548 40.184 53.7705 40.184 55.0085C40.184 56.2466 39.2386 57.1821 37.7337 57.1821H36.36V59.678H35.0248V52.8548ZM37.5741 56.1596C38.2912 56.1596 38.8487 55.7996 38.8487 55.0184C38.8487 54.2293 38.2912 53.8773 37.5741 53.8773H36.36V56.1576H37.5741V56.1596Z" fill="#030303"/>
<path d="M40.3515 57.2116C40.3515 55.7679 41.2969 54.599 42.8301 54.599C44.6118 54.599 45.4683 56.023 45.2703 57.5538H41.5757C41.6645 58.3725 42.0928 58.8788 42.9008 58.8788C43.4684 58.8788 43.826 58.6158 44.0159 58.2064H45.2198C44.931 59.2585 44.0846 59.8242 42.8705 59.8242C41.208 59.8242 40.3515 58.6751 40.3515 57.2116ZM44.0846 56.646C43.9755 55.9735 43.5674 55.5444 42.82 55.5444C42.1231 55.5444 41.7352 55.9834 41.606 56.646H44.0846Z" fill="#030303"/>
<path d="M45.9412 54.7454H47.1653V55.6433C47.3936 55.137 47.9431 54.7079 48.749 54.7079H48.8198V55.8292H48.749C47.5047 55.8292 47.1956 56.6777 47.1956 57.6131V59.6799H45.9412V54.7454Z" fill="#030303"/>
<path d="M49.3166 54.7458H50.5407V55.5171C50.8195 54.9416 51.3972 54.6192 52.0335 54.6192C52.8093 54.6192 53.3486 54.9515 53.6173 55.5349C53.9566 54.9693 54.5728 54.6192 55.2414 54.6192C56.407 54.6192 57.013 55.3213 57.013 56.5198V59.6782H55.7585V56.7354C55.7585 56.0333 55.4697 55.6239 54.8515 55.6239C54.1849 55.6239 53.797 56.15 53.797 57.0479V59.6802H52.5325V56.7354C52.5325 56.0333 52.2538 55.6239 51.6356 55.6239C50.9589 55.6239 50.5711 56.15 50.5711 57.0479V59.6802H49.3166V54.7458Z" fill="#030303"/>
<path d="M57.6595 57.2114C57.6595 55.7004 58.4857 54.6087 59.8896 54.6087C60.6067 54.6087 61.1443 54.9311 61.4836 55.4868V54.7451H62.7074V59.6776H61.4836V58.9379C61.1443 59.4838 60.6067 59.816 59.8896 59.816C58.4857 59.816 57.6595 58.7223 57.6595 57.2114ZM60.1886 58.8113C61.0148 58.8113 61.4634 58.1587 61.4634 57.2133C61.4634 56.268 61.0148 55.6153 60.1886 55.6153C59.3624 55.6153 58.9139 56.268 58.9139 57.2133C58.9139 58.1587 59.3725 58.8113 60.1886 58.8113Z" fill="#030303"/>
<path d="M64.0005 55.7202H63.2328V54.7452H64.0005V53.4201H65.2647V54.7452H66.271V55.7202H65.2647V59.6777H64.0005V55.7202Z" fill="#030303"/>
<path d="M66.489 57.2114C66.489 55.7004 67.3151 54.6087 68.7191 54.6087C69.4364 54.6087 69.9735 54.9311 70.3128 55.4868V54.7451H71.5371V59.6776H70.3128V58.9379C69.9735 59.4838 69.4364 59.816 68.7191 59.816C67.3151 59.816 66.489 58.7223 66.489 57.2114ZM69.018 58.8113C69.844 58.8113 70.2926 58.1587 70.2926 57.2133C70.2926 56.268 69.844 55.6153 69.018 55.6153C68.1919 55.6153 67.7434 56.268 67.7434 57.2133C67.7434 58.1587 68.2018 58.8113 69.018 58.8113Z" fill="#030303"/>
<path d="M76.8319 52.8548C78.1065 52.8548 78.9326 53.5866 78.9326 54.5813C78.9326 55.2835 78.5447 55.7898 77.9366 56.0429C78.7326 56.2664 79.3002 56.9013 79.3002 57.7299C79.3002 58.8711 78.4742 59.68 77.04 59.68H74.022V52.8548H76.8319ZM76.6135 55.681C77.2117 55.681 77.6499 55.3685 77.6499 54.7455C77.6499 54.1225 77.1811 53.8397 76.6036 53.8397H75.329V55.683H76.6135V55.681ZM76.8319 58.6951C77.4598 58.6951 77.9874 58.3826 77.9874 57.6607C77.9874 56.9487 77.4598 56.6184 76.7834 56.6184H75.329V58.6951H76.8319Z" fill="#030303"/>
<path d="M79.7205 57.2114C79.7205 55.7004 80.5465 54.6087 81.9506 54.6087C82.6674 54.6087 83.2049 54.9311 83.5443 55.4868V54.7451H84.7685V59.6776H83.5443V58.9379C83.2049 59.4838 82.6674 59.816 81.9506 59.816C80.5465 59.816 79.7205 58.7223 79.7205 57.2114ZM82.2494 58.8113C83.0755 58.8113 83.524 58.1587 83.524 57.2133C83.524 56.268 83.0755 55.6153 82.2494 55.6153C81.4234 55.6153 80.9748 56.268 80.9748 57.2133C80.9748 58.1587 81.4333 58.8113 82.2494 58.8113Z" fill="#030303"/>
<path d="M85.6876 54.7458H86.9115V55.525C87.2004 54.9396 87.8184 54.6192 88.4652 54.6192C89.6508 54.6192 90.267 55.3213 90.267 56.5198V59.6782H89.0126V56.7354C89.0126 56.0333 88.7137 55.6239 88.0571 55.6239C87.3501 55.6239 86.942 56.15 86.942 57.0479V59.6802H85.6876V54.7458Z" fill="#030303"/>
<path d="M92.4247 57.2809V59.68H91.1699V52.8548H92.4247V56.7747L94.2265 54.7475H95.7294L93.6791 56.9804L96 59.68H94.4566L92.4247 57.2809Z" fill="#030303"/>
<path d="M29.7121 53.8852L23.5752 46L17.4403 53.8852C16.404 55.2202 16 56.3811 16 57.6429C16 59.5711 16.9858 61.3017 18.7513 62.512L23.5732 65.7753L28.397 62.512C30.1646 61.3017 31.1484 59.5692 31.1484 57.6429C31.1504 56.3831 30.7463 55.2202 29.7121 53.8852ZM22.5914 62.1916V63.3546L19.6381 61.3768C18.2503 60.4631 17.4666 59.1024 17.4666 57.718C17.4666 57.0021 17.6686 56.3099 18.0221 55.6652C18.1736 56.0844 18.4261 56.5057 18.9816 57.1247L22.1127 60.5363C22.6156 61.1039 22.5914 61.45 22.5914 62.1916ZM20.2684 56.3831C19.4846 55.5425 19.3351 55.0738 19.3351 54.5794C19.3351 54.1087 19.4361 53.6894 20.0421 52.922L23.5772 48.4227L27.1123 52.922C27.6941 53.6894 27.8193 54.1087 27.8193 54.5794C27.8193 55.0738 27.6678 55.5445 26.8861 56.3831L23.5752 59.9924L20.2684 56.3831ZM27.5143 61.3768L24.561 63.3546V62.1916C24.561 61.45 24.5367 61.1039 25.0418 60.5343L28.1728 57.1227C28.7283 56.5057 28.9809 56.0844 29.1324 55.6632C29.4858 56.3059 29.6879 56.9981 29.6879 57.716C29.6858 59.1024 28.9041 60.4611 27.5143 61.3768Z" fill="#0064FF"/>
</g>
<rect x="1" y="1" width="110" height="110" rx="9" stroke="#CCCCCC" stroke-width="2"/>
<defs>
<clipPath id="clip0_727_38">
<rect x="2" y="2" width="108" height="108" rx="8" fill="white"/>
</clipPath>
</defs>
</svg>
