<svg width="112" height="112" viewBox="0 0 112 112" fill="none" xmlns="http://www.w3.org/2000/svg">
<g clip-path="url(#clip0_528_30)">
<rect x="2.00003" y="2" width="108" height="108" rx="8" fill="white"/>
<path d="M62.2027 63.5831C62.1952 62.812 61.9169 62.2704 61.3602 61.9657C61.1909 61.8792 60.9765 61.8115 60.7207 61.7663C60.4649 61.7212 60.179 61.6949 59.8706 61.6949H58.7572V65.5504H59.8706C60.6793 65.5542 61.2699 65.4037 61.6348 65.0877C61.8191 64.9373 61.9582 64.7304 62.056 64.4709C62.1538 64.2113 62.2027 63.9179 62.2027 63.5831ZM58.7572 58.1139V61.4165H59.9157C61.2624 61.409 61.962 60.8485 61.9695 59.7276C61.9808 58.6367 61.2436 58.1064 59.8142 58.1139H58.7534H58.7572ZM57.8431 65.0276C57.8507 64.9034 57.8582 64.7078 57.862 64.4332V59.2273L57.8469 58.7233C57.8431 58.6179 57.8394 58.5427 57.8319 58.5051C57.8243 58.4637 57.8168 58.4299 57.8055 58.3998C57.7679 58.2719 57.6814 58.1816 57.5497 58.1252C57.4294 58.0763 57.2526 58.0499 57.0231 58.0499V57.8731H59.9947C60.4273 57.8731 60.8185 57.9032 61.1646 57.9597C61.5144 58.0161 61.7927 58.0913 62.0071 58.1891C62.6278 58.4825 62.9362 58.979 62.9325 59.6862C62.94 60.6943 62.278 61.3375 60.905 61.5068L60.6756 61.5444C60.984 61.5557 61.4015 61.6572 61.5971 61.7024C61.789 61.7475 61.9808 61.819 62.1651 61.913C62.8949 62.2779 63.2522 62.8647 63.2447 63.6734C63.2484 64.6552 62.7707 65.2946 61.7965 65.5993C61.5821 65.6595 61.315 65.7084 60.9953 65.7422C60.6718 65.7761 60.322 65.7949 59.9421 65.7949H57.0269V65.6181C57.3692 65.6144 57.6062 65.5617 57.7115 65.4376C57.7566 65.3962 57.7867 65.351 57.8055 65.2984C57.8281 65.2457 57.8394 65.1517 57.8469 65.0313" fill="#231F20"/>
<path d="M64.6891 64.3505C64.6929 64.7116 64.7794 65.005 64.9562 65.2232C65.133 65.4451 65.3699 65.5579 65.6633 65.5655C65.9605 65.5617 66.2389 65.4827 66.4984 65.336C66.7579 65.1855 66.9648 64.9862 67.1153 64.7379C67.2056 64.5799 67.2733 64.3768 67.3147 64.1286C67.356 63.8841 67.3748 63.5756 67.3748 63.2145V62.6465C66.8445 62.6917 66.4645 62.7406 66.19 62.8007C65.9116 62.8609 65.6671 62.9437 65.4527 63.0528C64.9449 63.3048 64.6929 63.7411 64.6891 64.3505ZM67.4952 65.5692C67.435 65.4488 67.3936 65.3097 67.3748 64.9448V64.8357L67.2996 64.9185C67.2131 65.0163 67.1303 65.099 67.0513 65.1667C66.9686 65.2382 66.8746 65.3097 66.7655 65.3849C66.5323 65.5579 66.3066 65.6783 66.0884 65.7498C65.8702 65.8212 65.6257 65.8551 65.3549 65.8513C64.8809 65.8513 64.5161 65.7422 64.2565 65.5203C64.1098 65.3887 63.997 65.2269 63.9142 65.0238C63.8315 64.8244 63.7901 64.61 63.7863 64.3806C63.7901 63.5342 64.313 62.9851 65.3775 62.7443C65.6596 62.6804 65.9567 62.6239 66.2689 62.5826C66.5812 62.5412 66.9385 62.5073 67.3372 62.4772L67.3786 61.7362C67.3786 61.4842 67.3673 61.2773 67.341 61.1231C67.3147 60.9651 67.277 60.8259 67.2169 60.7093C67.0589 60.4009 66.7391 60.2542 66.2727 60.2542C65.5279 60.2504 65.1217 60.604 65.0803 61.3112C65.0765 61.424 65.0653 61.503 65.0502 61.5519C65.0352 61.5971 65.0126 61.6309 64.9788 61.6535C64.9035 61.7024 64.7869 61.7325 64.6176 61.7325C64.2528 61.74 64.1136 61.6309 64.1211 61.4466C64.1211 61.2548 64.1851 61.0704 64.313 60.8899C64.4409 60.7093 64.6176 60.5551 64.8471 60.4235C65.2609 60.194 65.7912 60.0774 66.4382 60.0774C67.1491 60.0774 67.6231 60.2391 67.8864 60.5476C67.9917 60.6755 68.0707 60.8372 68.1196 61.0291C68.1723 61.2209 68.1948 61.4692 68.1948 61.7663V61.8303L68.1873 62.1199L68.1723 62.8835L68.161 63.933L68.1497 64.4408C68.1497 64.6777 68.161 64.862 68.176 65.0652C68.1911 65.2645 68.2626 65.4865 68.4205 65.5429C68.586 65.6031 68.744 65.6294 69.0487 65.6294C69.2706 65.6256 69.4437 65.5993 69.5603 65.5504C69.6919 65.494 69.7747 65.3736 69.8085 65.2043C69.8424 65.0388 69.8574 64.7868 69.8537 64.4483V61.4842C69.8612 61.0817 69.8123 60.7958 69.6995 60.6491C69.5866 60.5062 69.3797 60.4423 69.0901 60.446V60.288L70.6699 60.1714V61.4315L70.7527 61.2848C70.9859 60.8673 71.253 60.5739 71.5464 60.3971C71.8435 60.2203 72.2121 60.1338 72.656 60.1376C73.3256 60.1301 73.792 60.352 74.0666 60.8034C74.1681 60.9538 74.2396 61.1344 74.2847 61.3488C74.3261 61.5594 74.3487 61.8303 74.3487 62.1613V64.4483C74.3449 64.7906 74.36 65.0426 74.3901 65.2081C74.4239 65.3774 74.5029 65.4977 74.6383 65.5504C74.7474 65.5955 75.007 65.6219 75.2251 65.6256C75.432 65.6181 75.59 65.5955 75.6991 65.5466C75.827 65.4902 75.906 65.3699 75.9398 65.2006C75.9699 65.0351 75.985 64.7831 75.9812 64.4445V59.0618C75.985 58.7533 75.9737 58.5239 75.9398 58.3772C75.906 58.223 75.827 58.1176 75.6991 58.0725C75.5862 58.0349 75.417 58.0161 75.195 58.0123V57.8543L76.8388 57.7716C76.82 58.1365 76.8012 58.5088 76.7937 58.8925C76.7824 59.2912 76.7749 59.6373 76.7749 59.9382V63.553L78.5842 61.567C78.8399 61.2848 78.9791 61.0441 78.9829 60.8523C78.9942 60.5852 78.7271 60.4648 78.287 60.446V60.288H80.6417V60.446C80.4988 60.4611 80.3784 60.4874 80.2731 60.525C80.1602 60.5626 80.0436 60.6191 79.9233 60.6905C79.8029 60.762 79.7013 60.8297 79.6186 60.8899C79.5358 60.9538 79.438 61.0403 79.3214 61.157C79.2086 61.2698 79.0431 61.4466 78.8287 61.6798L78.2306 62.323L79.7954 64.7831C79.9759 65.0765 80.1377 65.2796 80.2881 65.3999C80.4311 65.5128 80.6154 65.5843 80.8373 65.6181V65.7799H79.4079C79.3703 65.7009 79.3139 65.5955 79.2462 65.4677L79.0205 65.0539L78.8475 64.7417L77.6889 62.8534L76.7786 63.8728V64.4445C76.7711 64.7831 76.7862 65.0351 76.82 65.2006C76.8539 65.3699 76.9329 65.4902 77.0645 65.5466C77.1811 65.5955 77.3504 65.6219 77.5723 65.6256V65.7799H72.735V65.6256C73.0623 65.6181 73.2879 65.5617 73.3782 65.4451C73.4158 65.3999 73.4422 65.3473 73.461 65.2871C73.4798 65.2269 73.4911 65.1517 73.4986 65.0576C73.5061 64.9824 73.5099 64.8771 73.5174 64.7379C73.5249 64.5987 73.5287 64.5009 73.5287 64.4483V62.2252C73.5287 61.676 73.4723 61.2698 73.3481 61.014C73.1601 60.6078 72.8178 60.4046 72.3363 60.4046C71.7984 60.4046 71.3696 60.6604 71.0498 61.1645C70.9295 61.3563 70.8354 61.5745 70.7715 61.8152C70.7038 62.0597 70.6699 62.2967 70.6699 62.5337V64.4483C70.6699 64.7906 70.6812 65.0426 70.7113 65.2081C70.7452 65.3774 70.8242 65.4977 70.9596 65.5504C71.0762 65.5993 71.2492 65.6219 71.4749 65.6256V65.7799H69.0976C68.887 65.7874 68.4845 65.7987 68.2851 65.7949C68.0782 65.7949 67.9767 65.7686 67.7848 65.7573C67.6156 65.7084 67.5441 65.6633 67.4877 65.5542" fill="#231F20"/>
<path d="M18.6632 62.15C19.2763 62.15 19.7239 62.0033 20.0135 61.7174C20.1715 61.5519 20.2881 61.3337 20.3709 61.0629C20.4536 60.7921 20.4913 60.4836 20.495 60.1376C20.495 58.8323 19.9195 58.1816 18.7798 58.1778H18.1516V62.15H18.6632ZM18.1554 62.4584V64.4295C18.1516 64.7454 18.1704 64.9824 18.208 65.1329C18.2494 65.2871 18.3359 65.3887 18.4713 65.4376C18.6067 65.4865 18.8136 65.5166 19.092 65.5203V65.7949H16V65.5203C16.2633 65.5166 16.4589 65.4865 16.5868 65.4376C16.7147 65.3887 16.7937 65.2871 16.8313 65.1329C16.8689 64.9787 16.884 64.7454 16.8802 64.4295V59.2499C16.884 58.9339 16.8689 58.6969 16.8313 58.5465C16.7937 58.3922 16.7185 58.2907 16.5943 58.238C16.474 58.1854 16.2859 58.1553 16.0376 58.1477V57.8731H18.9866C19.9797 57.8694 20.7094 58.0462 21.1721 58.3998C21.6348 58.7533 21.8642 59.3138 21.8567 60.0774C21.8567 61.1494 21.4429 61.8528 20.6041 62.1838C20.3859 62.2704 20.1076 62.3343 19.7653 62.3832C19.4267 62.4321 19.0506 62.4547 18.6331 62.4584H18.1516H18.1554Z" fill="#231F20"/>
<path d="M23.2484 62.4848H25.5016C25.4941 62.1575 25.4753 61.898 25.4489 61.6986C25.4226 61.4993 25.3812 61.3225 25.3286 61.1645C25.1367 60.6115 24.8471 60.3369 24.4521 60.3407C24.012 60.3407 23.681 60.6529 23.4629 61.2698C23.4064 61.4278 23.3613 61.6046 23.3274 61.7926C23.2936 61.9845 23.2673 62.2139 23.2484 62.4848ZM26.8407 62.7895H23.2409C23.2409 63.1731 23.2673 63.4966 23.3086 63.7562C23.35 64.0157 23.414 64.2527 23.5042 64.4708C23.8052 65.1667 24.2641 65.5166 24.8885 65.5166C25.2421 65.5166 25.5655 65.4112 25.8514 65.2043C26.1411 64.9975 26.378 64.7003 26.5699 64.3129L26.8257 64.4821C26.5736 64.9824 26.2689 65.3473 25.9078 65.5805C25.5467 65.8137 25.1066 65.9303 24.5838 65.9266C23.7638 65.9153 23.0115 65.6557 22.5375 65.1404C22.0636 64.6251 21.8228 63.9254 21.8153 63.034C21.8228 62.1349 22.056 61.424 22.515 60.9012C22.9701 60.3783 23.6998 60.1112 24.4822 60.1C25.0051 60.1 25.5091 60.2203 25.8665 60.4573C26.2238 60.6943 26.4871 61.0403 26.6564 61.4955C26.7128 61.646 26.7542 61.819 26.7805 62.0146C26.8106 62.2102 26.8294 62.4697 26.8369 62.7932" fill="#231F20"/>
<path d="M27.0702 60.2504L29.0675 60.1112C29.0788 60.3106 29.0863 60.4761 29.0901 60.6115C29.0938 60.7469 29.0976 60.8673 29.0976 60.9689V61.2886C29.5302 60.4949 30.0568 60.0962 30.6699 60.0887C30.937 60.0924 31.1514 60.1714 31.3169 60.3219C31.4824 60.4724 31.5689 60.6642 31.5727 60.8974C31.5689 61.093 31.4975 61.2472 31.3583 61.3638C31.2191 61.4804 31.0348 61.5406 30.8091 61.5444C30.5383 61.5519 30.369 61.4391 30.3088 61.2059C30.2712 61.0592 30.2298 60.9614 30.1847 60.9087C30.1433 60.856 30.0794 60.8297 30.0004 60.8335H29.9778C29.7672 60.8523 29.5716 61.0178 29.3835 61.3337C29.297 61.4917 29.233 61.6648 29.1916 61.8566C29.1503 62.0484 29.1277 62.2666 29.1277 62.5149V64.4821C29.1239 64.7943 29.139 65.0276 29.1728 65.1743C29.2067 65.321 29.2857 65.4188 29.4061 65.4677C29.5264 65.5128 29.7183 65.5391 29.9778 65.5429V65.7987H27.025V65.5429C27.2658 65.5429 27.4425 65.5203 27.5591 65.4752C27.6758 65.4263 27.751 65.3285 27.7848 65.178C27.8187 65.0276 27.8337 64.7943 27.83 64.4859V61.5444C27.8413 61.1081 27.7961 60.8222 27.6983 60.6905C27.6005 60.5589 27.3899 60.4987 27.0664 60.5137V60.258L27.0702 60.2504Z" fill="#231F20"/>
<path d="M33.9462 60.1112L33.9575 61.1645C34.3863 60.4573 35.0032 60.1 35.8044 60.0924C36.6207 60.0887 37.1247 60.4611 37.3128 61.2096C37.5422 60.8222 37.8055 60.5401 38.1027 60.3595C38.3998 60.179 38.7459 60.0924 39.1409 60.0924C39.7653 60.0962 40.2242 60.3031 40.5213 60.7093C40.638 60.8636 40.7207 61.0516 40.7696 61.2736C40.8185 61.4955 40.8411 61.7851 40.8411 62.1425V64.4784C40.8411 64.7906 40.8524 65.02 40.8862 65.1705C40.9201 65.321 40.9953 65.4225 41.1119 65.4677C41.2285 65.5166 41.4053 65.5391 41.646 65.5391V65.7949H38.7685V65.5391C38.9979 65.5391 39.171 65.5166 39.28 65.4677C39.3929 65.4188 39.4644 65.321 39.4982 65.1705C39.5321 65.02 39.5471 64.7868 39.5434 64.4784V62.1538C39.5434 61.597 39.4756 61.1946 39.3365 60.9463C39.1973 60.698 38.9716 60.5777 38.6594 60.5814C38.287 60.5739 37.971 60.7695 37.7153 61.1645C37.4933 61.4955 37.3842 61.8528 37.3842 62.2365V64.4784C37.3805 64.7906 37.3955 65.02 37.4294 65.1705C37.4632 65.321 37.5385 65.4225 37.6513 65.4677C37.7642 65.5166 37.9372 65.5391 38.1704 65.5391V65.7949H35.3229V65.5391C35.5524 65.5391 35.7254 65.5166 35.8345 65.4677C35.9473 65.4188 36.0188 65.321 36.0527 65.1705C36.0865 65.02 36.1016 64.7868 36.0978 64.4784V62.1425C36.1016 61.0892 35.8157 60.5702 35.2364 60.5814C34.8753 60.5927 34.5744 60.7658 34.3299 61.093C34.0854 61.4203 33.9613 61.8303 33.95 62.323V64.4784C33.95 64.7943 33.9613 65.0238 33.9951 65.178C34.029 65.3285 34.1004 65.43 34.2133 65.4752C34.3261 65.5203 34.4954 65.5429 34.7248 65.5429V65.7987H31.8473V65.5429C32.088 65.5429 32.2648 65.5203 32.3814 65.4752C32.498 65.43 32.5733 65.3285 32.6071 65.178C32.641 65.0276 32.656 64.7943 32.6522 64.4784V61.5256C32.6635 61.093 32.6184 60.8147 32.5206 60.683C32.4228 60.5551 32.2046 60.4949 31.8661 60.5024V60.2467L33.9387 60.1075L33.9462 60.1112Z" fill="#231F20"/>
<path d="M49.1992 60.5965V64.1436C49.1992 64.3731 49.2067 64.5649 49.2255 64.7191C49.2443 64.8696 49.2706 64.9975 49.3083 65.1028C49.3534 65.2232 49.4211 65.3172 49.5151 65.3887C49.6092 65.4601 49.7145 65.4977 49.8273 65.4977C50.053 65.494 50.3013 65.3849 50.5721 65.1667L50.7188 65.4338C50.2938 65.7911 49.8085 65.9679 49.2631 65.9642C48.6763 65.9567 48.2776 65.7611 48.0632 65.3811C48.0218 65.2984 47.988 65.2006 47.9654 65.0915C47.9428 64.9824 47.9278 64.8395 47.9165 64.6552C47.909 64.4709 47.9014 64.2264 47.9014 63.9141V60.6002H47.2958V60.2805C47.5253 60.273 47.7247 60.2241 47.8826 60.1338C48.0444 60.0473 48.1836 59.9081 48.3039 59.7163C48.398 59.5734 48.477 59.4116 48.5371 59.2348C48.5973 59.058 48.65 58.8399 48.6989 58.5803L49.2293 58.5276C49.2217 58.6668 49.2142 58.8098 49.2105 58.9565C49.2067 59.0994 49.2029 59.2762 49.1992 59.4793C49.1992 59.6824 49.1954 59.942 49.1954 60.2617H50.4818V60.6002H49.1954L49.1992 60.5965Z" fill="#231F20"/>
<path d="M45.3098 63.5455V62.7293C44.5499 62.7819 44.0083 62.9211 43.6923 63.1506C43.3726 63.38 43.2184 63.7374 43.2296 64.2264C43.2296 64.61 43.3124 64.9109 43.4629 65.1366C43.6171 65.3623 43.824 65.4752 44.0873 65.4789C44.3017 65.4789 44.5048 65.415 44.6854 65.2909C44.8697 65.1667 45.0126 64.9975 45.1179 64.7755C45.1856 64.6401 45.2345 64.4784 45.2646 64.2828C45.2947 64.0872 45.3098 63.8427 45.3098 63.5418M47.2921 65.5655V65.7911C46.9799 65.81 46.8557 65.81 46.5285 65.81C46.269 65.81 46.0019 65.8062 45.7762 65.7234C45.637 65.6708 45.5618 65.6256 45.4602 65.5203C45.3888 65.4075 45.3436 65.3999 45.321 65.084C45.0465 65.3811 44.7606 65.5993 44.4634 65.7385C44.1663 65.8777 43.8465 65.9454 43.5042 65.9454C42.9964 65.9416 42.5977 65.7987 42.3081 65.5241C42.0184 65.2495 41.8755 64.8696 41.868 64.3843C41.868 63.474 42.4322 62.9061 43.5682 62.6841C44.0797 62.5863 44.659 62.5186 45.3098 62.481V61.7889C45.3135 61.2359 45.2571 60.8523 45.133 60.6379C45.0088 60.4235 44.7944 60.3219 44.4785 60.3332C44.1437 60.3257 43.9067 60.446 43.7675 60.6943C43.7149 60.7808 43.6773 60.8786 43.6547 60.9877C43.6321 61.0968 43.6133 61.251 43.5983 61.4466C43.5907 61.6347 43.5343 61.7701 43.4328 61.8491C43.3312 61.9281 43.1695 61.9694 42.9475 61.9657C42.4548 61.9619 42.2065 61.8002 42.2027 61.4767C42.2027 61.2886 42.2629 61.1081 42.3758 60.9388C42.4886 60.7695 42.6504 60.6191 42.861 60.4874C43.3049 60.2128 43.8841 60.0812 44.6026 60.0849C45.3323 60.0849 45.8589 60.2279 46.1749 60.5213C46.3178 60.6567 46.4232 60.8297 46.4909 61.0366C46.5586 61.2472 46.5924 61.5143 46.5924 61.8378L46.5699 63.6885C46.5623 63.9894 46.5586 64.1812 46.5586 64.264C46.5586 64.6476 46.5661 64.926 46.5962 65.1028C46.6263 65.2796 46.6526 65.3548 46.7692 65.4526C46.9724 65.5692 47.1454 65.5655 47.2883 65.5655" fill="#231F20"/>
<path d="M54.4578 63.5455V62.7293C53.698 62.7819 53.1563 62.9211 52.8403 63.1506C52.5206 63.38 52.3664 63.7374 52.3777 64.2264C52.3777 64.61 52.4604 64.9109 52.6109 65.1366C52.7651 65.3623 52.972 65.4752 53.2353 65.4827C53.4535 65.4827 53.6528 65.4188 53.8334 65.2946C54.0177 65.1705 54.1606 65.0012 54.2659 64.7793C54.3336 64.6439 54.3826 64.4821 54.4126 64.2865C54.4427 64.0909 54.4578 63.8464 54.4578 63.5455ZM56.4401 65.5692V65.7949C56.1279 65.8137 56.0038 65.8175 55.6765 65.8175C55.417 65.8175 55.1499 65.8137 54.9242 65.731C54.785 65.6783 54.7098 65.6332 54.6082 65.5278C54.5368 65.415 54.4916 65.4075 54.4691 65.0915C54.1945 65.3887 53.9086 65.6068 53.6114 65.746C53.3143 65.8852 52.9945 65.9529 52.6523 65.9529C52.1444 65.9454 51.7457 65.8062 51.4561 65.5316C51.1665 65.257 51.0235 64.8771 51.016 64.3919C51.016 63.4816 51.5802 62.9136 52.7162 62.6917C53.2278 62.5939 53.807 62.5261 54.4578 62.4885V61.7964C54.4615 61.2435 54.4051 60.8598 54.281 60.6454C54.1569 60.431 53.9425 60.3294 53.6265 60.3407C53.2917 60.3332 53.0547 60.4535 52.9156 60.7018C52.8629 60.7883 52.8253 60.8861 52.8027 60.9952C52.7801 61.1043 52.7613 61.2585 52.7463 61.4541C52.7388 61.6422 52.6823 61.7776 52.5808 61.8566C52.4792 61.9356 52.3175 61.977 52.0955 61.9732C51.6028 61.9732 51.3545 61.8077 51.3508 61.4842C51.3508 61.2961 51.4109 61.1156 51.5238 60.9463C51.6366 60.777 51.7984 60.6266 52.009 60.4949C52.4529 60.2241 53.0322 60.0887 53.7506 60.0924C54.4804 60.0887 55.007 60.2354 55.3229 60.5288C55.4659 60.6642 55.5712 60.8335 55.6389 61.0441C55.7066 61.2548 55.7405 61.5218 55.7405 61.8453L55.7179 63.696C55.7104 63.9969 55.7066 64.1887 55.7066 64.2677C55.7066 64.6514 55.7141 64.9298 55.7442 65.1065C55.7705 65.2833 55.8044 65.3623 55.9173 65.4564C56.1204 65.573 56.2934 65.5692 56.4363 65.5692" fill="#231F20"/>
<path d="M78.3171 52.5055L78.2945 52.9155L86.1448 62.1237L86.4269 62.1688L86.4608 62.15L86.6 61.8942L83.2522 50.6886L82.6842 50.305L78.3171 52.5055Z" fill="#00A0BB"/>
<path d="M78.2945 52.9155L86.1448 62.1237L86.4269 62.1688L80.638 53.3631L78.2945 52.9155Z" fill="#005975"/>
<path d="M80.6831 52.6634L81.4993 53.0208L83.2522 50.6924L83.2522 50.6886L82.6842 50.3087L80.6831 52.6634Z" fill="#00C0F3"/>
<path d="M78.2945 52.9155L80.638 53.3631L80.6831 52.6634L78.3171 52.5055L78.2945 52.9155Z" fill="#00748F"/>
<path d="M81.4993 53.0208L86.4608 62.15L86.6 61.8942L83.2522 50.6924L81.4993 53.0208Z" fill="#00748F"/>
<path d="M90.9144 50.0868L95.9887 52.4189L96 53.0772L87.6682 65.6971L87.2883 65.7949L87.2319 65.7686L87.1153 65.4865L90.4706 50.3313L90.9144 50.0868Z" fill="#77B94E"/>
<path d="M92.6184 53.3668L87.2883 65.7949L87.6682 65.6971L96 53.0772L92.6184 53.3668Z" fill="#5C9330"/>
<path d="M90.4706 50.3313L87.1153 65.4865L87.2319 65.7686L91.6592 52.8365L90.4706 50.3313Z" fill="#167B3A"/>
<path d="M92.4266 52.4641L92.6184 53.3668L96 53.0772L95.9887 52.4189L92.4266 52.4641Z" fill="#A3CF62"/>
<path d="M90.4706 50.3313L91.6592 52.8365L92.4266 52.4641L90.9144 50.0868L90.4706 50.3313Z" fill="#5C9330"/>
<path d="M83.1619 46.4945L83.3613 46.1071L89.8612 46.0356L90.2825 46.472L87.168 56.8726L86.9686 56.9892H86.9648L86.7504 56.8425L83.1619 46.4945Z" fill="#ED1A3B"/>
<path d="M83.1619 46.4945L85.6784 47.7471L86.1448 47.1942L83.3613 46.1071L83.1619 46.4945Z" fill="#B41730"/>
<path d="M83.1582 46.4945L86.7504 56.8425L86.9611 56.9854L85.6784 47.7471L83.1582 46.4945Z" fill="#75191B"/>
<path d="M86.9009 47.7509L86.9686 56.9892L87.168 56.8726L90.2787 46.472L86.9009 47.7509Z" fill="#B41730"/>
<path d="M89.8612 46.0356L86.1448 47.1942L86.9009 47.7509L90.2825 46.472L89.8612 46.0356Z" fill="#F15B67"/>
</g>
<rect x="1" y="1" width="110" height="110" rx="9" stroke="#CCCCCC" stroke-width="2"/>
<defs>
<clipPath id="clip0_528_30">
<rect x="2" y="2" width="108" height="108" rx="8" fill="white"/>
</clipPath>
</defs>
</svg>
