<svg width="112" height="112" viewBox="0 0 112 112" fill="none" xmlns="http://www.w3.org/2000/svg">
<g clip-path="url(#clip0_6_7386)">
<rect x="1.99988" y="2" width="108" height="108" rx="8" fill="white"/>
<path fill-rule="evenodd" clip-rule="evenodd" d="M27.76 43C21.2816 43 16.0296 48.2521 16.0296 54.7175C16.0255 57.189 16.8073 59.5978 18.2619 61.5959C18.7666 61.355 19.2886 61.1522 19.8235 60.9892C18.4556 59.273 17.6426 57.0921 17.6426 54.7305C17.6426 49.1686 22.1721 44.639 27.734 44.639C33.2959 44.639 37.8254 49.1683 37.8254 54.7302C37.8254 58.2921 35.9673 61.4406 33.154 63.2343C33.4251 63.2343 33.6962 63.2343 33.98 63.2216C34.8962 63.1698 35.761 62.7568 36.4965 62.4216C38.3546 60.3435 39.4902 57.7368 39.4902 54.7171C39.4902 48.2524 34.2381 43 27.76 43Z" fill="#EA5F00"/>
<path fill-rule="evenodd" clip-rule="evenodd" d="M35.1928 66.3841C34.5347 66.6034 33.8896 66.7323 33.2703 66.7453C30.6506 66.8485 28.7665 66.0615 26.9598 65.2872C25.3465 64.6031 23.8366 63.958 21.9785 64.0612C20.2233 64.2031 18.9976 65.1841 18.9458 65.2225C18.5846 65.5066 18.5331 66.0355 18.8169 66.3971C19.1008 66.7584 19.6427 66.8228 20.0042 66.539C20.0169 66.539 20.8944 65.8422 22.1074 65.7517C23.5271 65.6872 24.8306 66.2161 26.3144 66.8615C28.0049 67.5841 29.889 68.3844 32.4055 68.4615C32.7154 68.4745 33.0249 68.4615 33.3477 68.4488C34.135 68.4231 34.9477 68.2679 35.7608 67.9971C35.971 67.9225 36.1439 67.7689 36.2427 67.5689C36.3415 67.3689 36.3585 67.1383 36.29 66.926C36.122 66.4615 35.6319 66.2291 35.1928 66.3841Z" fill="#2673DD"/>
<path fill-rule="evenodd" clip-rule="evenodd" d="M37.8899 62.6016C37.0899 63.1565 35.4769 64.0984 33.6315 64.1632C31.2829 64.2663 29.7471 63.5822 28.1083 62.8854C26.3918 62.1371 24.6112 61.3629 21.9398 61.479C19.462 61.5692 17.3588 62.9889 16.3261 63.8146C16.2364 63.8861 16.1618 63.9748 16.1067 64.0754C16.0515 64.176 16.017 64.2865 16.005 64.4006C15.993 64.5147 16.0038 64.6301 16.0368 64.7399C16.0698 64.8498 16.1243 64.952 16.1972 65.0406C16.2687 65.1303 16.3574 65.2049 16.458 65.2601C16.5586 65.3152 16.6692 65.3498 16.7833 65.3618C16.8974 65.3738 17.0127 65.3629 17.1226 65.3299C17.2324 65.2969 17.3347 65.2424 17.4233 65.1695C18.2877 64.4727 20.0296 63.2857 22.0042 63.2083C24.2883 63.1178 25.7982 63.7759 27.3985 64.4727C28.9731 65.1568 30.5858 65.8664 32.909 65.9051C33.1671 65.9051 33.4252 65.9051 33.6963 65.8924C35.9801 65.8019 37.916 64.6794 38.8836 64.021C39.2836 63.7502 39.3741 63.2083 39.1029 62.8083C38.8322 62.421 38.2772 62.3178 37.8902 62.6019L37.8899 62.6016Z" fill="#2673DD"/>
<path fill-rule="evenodd" clip-rule="evenodd" d="M28.4179 62.022L28.4436 62.0347C29.4633 62.4477 30.4439 62.8477 31.5925 63.0671C34.7798 61.609 36.9995 58.3956 36.9995 54.6661C37.0122 49.5817 32.8572 45.4395 27.7728 45.4395C22.688 45.4395 18.5198 49.5817 18.5198 54.6661C18.5169 56.8987 19.3292 59.0556 20.8042 60.7315C21.088 60.6798 21.3718 60.6541 21.6687 60.6283C24.6109 60.4604 26.6369 61.2864 28.4179 62.022ZM29.076 55.802C28.9085 55.6341 28.7116 55.4985 28.495 55.402C28.2633 55.2855 28.0049 55.1953 27.7341 55.1048C27.4706 55.0203 27.212 54.9212 26.9595 54.808C26.4176 54.6017 25.9658 54.2918 25.5918 53.8531C25.2172 53.4274 25.0496 52.8855 25.0496 52.2274C25.0626 51.8014 25.1531 51.4274 25.3077 51.1045C25.4757 50.782 25.695 50.5109 25.9788 50.3045C26.263 50.0982 26.5725 49.9299 26.9211 49.8271C27.2815 49.7224 27.6552 49.6703 28.0306 49.6722H28.0566C28.6503 49.6848 29.1791 49.801 29.6179 50.0077C30.0546 50.2258 30.4695 50.485 30.8569 50.782L29.9407 52.0982C29.6826 51.9045 29.3985 51.7496 29.1147 51.6207C28.8179 51.4915 28.4566 51.4144 28.0309 51.3883C27.708 51.3626 27.4112 51.4271 27.1661 51.582C26.908 51.7239 26.7788 51.9433 26.7788 52.2271C26.7788 52.395 26.8176 52.5499 26.908 52.6788C26.9985 52.808 27.1274 52.9242 27.2823 53.0144C27.4372 53.1175 27.6049 53.1823 27.7725 53.2598C27.9404 53.3242 28.1211 53.3887 28.276 53.4534C28.6115 53.5693 28.9471 53.7112 29.2823 53.8788C29.6073 54.0431 29.9108 54.2468 30.1858 54.4855C30.4569 54.7179 30.6633 55.0017 30.8309 55.3242C30.9858 55.6471 31.0633 56.0214 31.0506 56.4601C31.0376 56.8858 30.9471 57.2728 30.7925 57.5956C30.6245 57.9312 30.3925 58.202 30.1084 58.4344C29.8115 58.6668 29.476 58.8344 29.089 58.9506C28.7017 59.0668 28.276 59.1185 27.8242 59.1055C27.3985 59.0928 27.0115 59.041 26.663 58.9245C26.3144 58.8087 25.9918 58.6795 25.7077 58.5245C25.4526 58.3882 25.2108 58.2284 24.9852 58.0474C24.7788 57.9052 24.6369 57.7763 24.5464 57.6728L25.4887 56.3439C25.8097 56.6498 26.1807 56.8985 26.5855 57.0795C27.0112 57.2858 27.4499 57.389 27.9017 57.389C28.289 57.402 28.6115 57.3115 28.8953 57.1439C29.1791 56.9763 29.308 56.7182 29.3214 56.3953C29.3214 56.1502 29.2439 55.9566 29.076 55.8017V55.802ZM48.4976 54.6264C48.2264 54.3814 47.9296 54.1877 47.5941 54.0071C47.2588 53.8395 46.9233 53.6845 46.575 53.5683C46.4068 53.5039 46.2391 53.4391 46.0585 53.3747C45.8813 53.314 45.7123 53.2317 45.5553 53.1296C45.4004 53.0391 45.2842 52.9233 45.1807 52.7941C45.088 52.6617 45.0385 52.5039 45.0391 52.3423C45.0518 52.0585 45.1811 51.8391 45.4264 51.6972C45.6842 51.5553 45.9684 51.4909 46.3036 51.5163C46.7296 51.5423 47.1036 51.6198 47.4007 51.7487C47.6976 51.8909 47.9814 52.0455 48.2395 52.2391L49.1687 50.9229C48.7814 50.6131 48.3557 50.355 47.9169 50.1356C47.4782 49.9163 46.9487 49.8131 46.3553 49.8001H46.3296C45.9423 49.7874 45.568 49.8388 45.2068 49.955C44.8455 50.0712 44.5357 50.2261 44.2518 50.4325C43.968 50.6388 43.7487 50.9099 43.5807 51.2325C43.4131 51.5553 43.3226 51.9423 43.3099 52.3683C43.2969 53.0264 43.4776 53.5683 43.8518 53.9941C44.2218 54.4206 44.6919 54.7487 45.2198 54.949C45.4649 55.0525 45.723 55.1553 46.0071 55.2331C46.2779 55.3233 46.536 55.4268 46.7684 55.5426C47.0004 55.6588 47.1941 55.788 47.3493 55.9556C47.5039 56.1236 47.5941 56.3169 47.5811 56.562C47.5684 56.8849 47.4264 57.1429 47.1557 57.3106C46.8845 57.4785 46.549 57.5687 46.162 57.556C45.7026 57.5423 45.2506 57.4369 44.8325 57.2461C44.4068 57.0398 44.0325 56.7944 43.7226 56.5106L42.7677 57.8398C42.8582 57.9302 43.0131 58.0722 43.2068 58.2398C43.4323 58.4209 43.6742 58.5808 43.9293 58.7172C44.2131 58.8721 44.5357 59.0014 44.8842 59.1172C45.2455 59.2334 45.6328 59.2852 46.0588 59.2982C46.5103 59.3109 46.936 59.2595 47.3233 59.1433C47.7106 59.0271 48.0588 58.8591 48.3557 58.6271C48.6489 58.399 48.8871 58.1079 49.0525 57.7753C49.2201 57.4398 49.3106 57.0525 49.3236 56.6268C49.3363 56.188 49.2588 55.8007 49.0912 55.4782C48.975 55.1426 48.7687 54.8588 48.4976 54.6264ZM71.8937 54.2791C71.9712 54.2017 72.0617 54.0982 72.1391 54.008C72.2293 53.9048 72.3068 53.789 72.3712 53.6337C72.4487 53.4791 72.5004 53.3112 72.5522 53.1048C72.5909 52.8985 72.6166 52.6531 72.6166 52.3563C72.6164 52.0696 72.5639 51.7854 72.4617 51.5175C72.3614 51.2477 72.2127 50.9985 72.023 50.782C71.8293 50.5626 71.6099 50.369 71.3388 50.2141C71.0575 50.0522 70.7454 49.9511 70.4226 49.9172C70.2033 49.8915 69.9582 49.8658 69.7001 49.8658C69.429 49.8528 69.1582 49.8528 68.8484 49.8528L66.3449 49.8655V59.3118H69.8033C70.1258 59.3118 70.3712 59.3118 70.5776 59.2991C70.9261 59.2604 71.2487 59.1829 71.5585 59.0537C71.855 58.9248 72.1391 58.7442 72.3585 58.5118C72.5909 58.2795 72.7715 57.9956 72.9134 57.6858C73.0509 57.3411 73.121 56.9731 73.1198 56.602C73.1198 55.9696 72.9909 55.4664 72.7455 55.0922C72.5004 54.7048 72.2166 54.4341 71.8937 54.2791ZM67.9191 51.4788H68.7322C69.0033 51.4788 69.2483 51.4788 69.455 51.4915C69.6614 51.5045 69.855 51.5175 69.9969 51.5302C70.3195 51.569 70.5776 51.6725 70.7712 51.8401C70.9776 51.995 71.0807 52.2274 71.068 52.5112C71.0807 52.8725 70.9649 53.1436 70.7712 53.2985C70.5645 53.4531 70.3064 53.5566 69.9839 53.595C69.829 53.621 69.6483 53.6337 69.442 53.6337H67.9064V51.4788H67.9191ZM71.1712 57.2344C70.9388 57.4534 70.5645 57.5826 70.0483 57.6087C69.8937 57.6214 69.7001 57.6341 69.442 57.6214H67.9064V55.1823H68.6934C68.9388 55.1823 69.1709 55.1823 69.3903 55.1696C69.6096 55.1569 69.8033 55.1569 69.9582 55.1696C70.4614 55.1953 70.8357 55.3115 71.1068 55.5179C71.3776 55.7242 71.5198 56.0083 71.5198 56.3826C71.5325 56.7309 71.4163 57.015 71.1712 57.2344ZM57.0795 54.2274C56.8988 53.7372 56.6407 53.3112 56.3052 52.9756C55.9826 52.6274 55.5953 52.3693 55.1566 52.1883C54.7189 52.0071 54.2494 51.915 53.7757 51.9175C53.1823 51.9175 52.6531 52.0207 52.2014 52.2014C51.7369 52.395 51.3496 52.6658 51.0401 53.0014C50.7303 53.3369 50.4979 53.7242 50.3303 54.1629C50.1753 54.6017 50.0979 55.0791 50.0979 55.5823C50.0979 56.1372 50.2011 56.6407 50.3947 57.1052C50.5835 57.5444 50.8551 57.9432 51.1947 58.2798C51.5304 58.6045 51.9245 58.8628 52.3563 59.041C52.795 59.2087 53.2595 59.2991 53.7499 59.2991C54.2017 59.2991 54.6017 59.2604 54.9372 59.1829C55.2457 59.1253 55.5481 59.0389 55.8404 58.9248C56.0883 58.8127 56.3259 58.6788 56.5503 58.5248C56.7569 58.3829 56.9503 58.2407 57.1439 58.0988L56.3052 56.9245C56.189 57.015 56.0728 57.1055 55.9309 57.2083C55.776 57.3115 55.5823 57.402 55.376 57.4925C55.1696 57.5696 54.9372 57.6344 54.6661 57.6861C54.408 57.7245 54.1112 57.7506 53.7887 57.7375C53.6066 57.7226 53.4257 57.6967 53.2468 57.6601C53.0557 57.6095 52.873 57.5312 52.7045 57.4277C52.5349 57.3078 52.3792 57.1693 52.2401 57.015C52.0982 56.8471 51.995 56.6404 51.9303 56.3953L51.9176 56.3309H57.2988L57.3118 55.9182C57.3376 55.2728 57.2601 54.7179 57.0795 54.2274ZM51.8658 54.9115L51.8788 54.8598C51.9045 54.6534 51.969 54.5499 52.0337 54.408L52.0725 54.3306C52.1826 54.1457 52.3271 53.9836 52.4982 53.8531C52.6669 53.7247 52.8602 53.6326 53.0661 53.5823C53.2855 53.5175 53.5049 53.4788 53.7242 53.4788C54.2404 53.4918 54.6661 53.6337 54.976 53.9179C55.1309 54.0468 55.2598 54.176 55.363 54.3179C55.4664 54.4598 55.5309 54.6274 55.5566 54.8468L55.5696 54.9115H51.8658ZM63.4414 52.6401L63.3382 52.5499C63.1188 52.3563 62.8347 52.2014 62.5122 52.0982C62.2023 51.982 61.8284 51.9172 61.4023 51.9172C60.9249 51.9172 60.4731 52.0077 60.0604 52.1887C59.6524 52.3557 59.2865 52.6113 58.9893 52.9369C58.6795 53.2595 58.4471 53.6598 58.2664 54.1242C58.0988 54.576 58.0084 55.0922 58.0084 55.6598C58.0084 56.1633 58.0988 56.6407 58.2664 57.0795C58.4471 57.5182 58.6795 57.8921 58.9893 58.228C59.2977 58.5509 59.6602 58.8173 60.0604 59.0153C60.4731 59.1956 60.9118 59.2861 61.4023 59.2861C61.8284 59.2861 62.2023 59.2344 62.5122 59.1182C62.8347 59.0023 63.1188 58.8344 63.3382 58.628L63.4414 58.5248V59.2731H65.1061V52.1239H63.4414V52.6401ZM63.2864 56.5115C63.1833 56.7569 63.0414 56.9763 62.8734 57.1439C62.7058 57.3118 62.5122 57.4277 62.2928 57.5182C62.0731 57.5953 61.8419 57.6346 61.609 57.6344C61.0798 57.6344 60.641 57.4534 60.2798 57.1052C59.9182 56.7309 59.7506 56.2407 59.7506 55.6341C59.7506 55.0404 59.9312 54.5499 60.2798 54.1629C60.641 53.7756 61.0798 53.582 61.609 53.582C61.8541 53.582 62.0864 53.6337 62.2928 53.7242C62.5252 53.8144 62.7185 53.9433 62.8734 54.1242C63.0414 54.2918 63.1833 54.5115 63.2864 54.7823C63.3896 55.0404 63.4414 55.3242 63.4414 55.6598C63.4414 55.9696 63.3896 56.2534 63.2864 56.5115ZM79.0433 52.6401L78.9401 52.5499C78.7207 52.3563 78.4369 52.2014 78.1141 52.0982C77.8045 51.982 77.4303 51.9172 77.0045 51.9172C76.5271 51.9172 76.0753 52.0077 75.6623 52.1887C75.2543 52.3557 74.8884 52.6113 74.5912 52.9369C74.2814 53.2595 74.0493 53.6598 73.8687 54.1242C73.7007 54.576 73.6106 55.0922 73.6106 55.6598C73.6106 56.1633 73.7007 56.6407 73.8687 57.0795C74.0493 57.5182 74.2814 57.8921 74.5912 58.228C74.8997 58.5508 75.2622 58.8172 75.6623 59.0153C76.0753 59.1956 76.5141 59.2861 77.0045 59.2861C77.4303 59.2861 77.8045 59.2344 78.1141 59.1182C78.4369 59.0023 78.7207 58.8344 78.9401 58.628L79.0433 58.5248V59.2731H80.708V52.1626H79.0433V52.6401ZM78.8884 56.5115C78.7852 56.7569 78.6433 56.9763 78.4757 57.1439C78.3077 57.3118 78.1141 57.4277 77.8947 57.5182C77.675 57.5953 77.4438 57.6346 77.2109 57.6344C76.6817 57.6344 76.243 57.4534 75.8817 57.1052C75.5204 56.7309 75.3525 56.2407 75.3525 55.6341C75.3525 55.0404 75.5331 54.5499 75.8817 54.1629C76.243 53.7756 76.6817 53.582 77.2109 53.582C77.456 53.582 77.6753 53.6337 77.8947 53.7242C78.1271 53.8144 78.3207 53.9433 78.4757 54.1242C78.6433 54.2918 78.7852 54.5115 78.8884 54.7823C78.9918 55.0404 79.0433 55.3242 79.0433 55.6598C79.0433 55.9696 78.9918 56.2534 78.8884 56.5115ZM92.8642 55.2474L95.8969 51.9309H93.703L91.1995 54.6537V49.7499H89.522V59.2991H91.1995V57.1315L91.7544 56.5118L93.9223 59.2991H96.0001L92.8642 55.2474ZM88.0249 53.5823C87.8699 53.1436 87.5734 52.7566 87.1474 52.4341C86.7217 52.1112 86.1795 51.9436 85.5344 51.9436C85.1988 51.9436 84.8503 51.995 84.502 52.0985C84.197 52.1898 83.9123 52.3388 83.6633 52.5372V52.1626H81.9725V59.2991H83.6633V55.4795C83.676 55.2214 83.702 54.9763 83.7277 54.7439C83.7664 54.4988 83.8309 54.2922 83.9341 54.1115C84.0372 53.9309 84.1922 53.789 84.3858 53.6728C84.5795 53.5566 84.8245 53.4918 85.1214 53.4791C85.4957 53.4664 85.7925 53.5696 86.0249 53.7633C86.2569 53.9696 86.4118 54.2277 86.4893 54.5633C86.528 54.7182 86.5537 54.9245 86.5798 55.1826C86.5925 55.4277 86.6055 55.789 86.6055 56.2668V59.2991H88.2703V55.8541C88.2723 55.4494 88.2594 55.0448 88.2315 54.641C88.2076 54.2809 88.1381 53.9253 88.0249 53.5826V53.5823Z" fill="#EA5F00"/>
</g>
<rect x="1" y="1" width="110" height="110" rx="9" stroke="#CCCCCC" stroke-width="2"/>
<defs>
<clipPath id="clip0_6_7386">
<rect x="2" y="2" width="108" height="108" rx="8" fill="white"/>
</clipPath>
</defs>
</svg>
