<svg width="112" height="112" viewBox="0 0 112 112" fill="none" xmlns="http://www.w3.org/2000/svg">
<g clip-path="url(#clip0_528_33)">
<rect x="2" y="2" width="108" height="108" rx="8" fill="white"/>
<path d="M27.1452 44.1666C20.7934 44.4537 15.8773 49.8345 16.1666 56.1841C16.4537 62.5359 21.8345 67.4499 28.1841 67.1627C34.5359 66.8778 39.4477 61.4948 39.1605 55.1452C38.8844 48.971 33.7929 44.1556 27.6756 44.1556C27.5003 44.1556 27.3227 44.16 27.1452 44.1666Z" fill="url(#paint0_radial_528_33)"/>
<path d="M27.4542 44C27.349 44.0022 27.246 44.0066 27.1408 44.011C20.7014 44.3025 15.7216 49.7556 16.0131 56.1929C16.2937 62.4175 21.4049 67.2811 27.5638 67.3337H27.7567C27.9036 67.3337 28.0482 67.3293 28.1951 67.3227C34.3956 67.0422 39.246 61.9682 39.3315 55.84V55.5068C39.3315 55.3841 39.3271 55.2614 39.3205 55.1386C39.0422 48.96 34.0011 44.1205 27.9058 44H27.4542ZM28.5282 65.9266C28.5173 65.6636 28.903 65.5956 28.903 65.5956C32.3529 64.9162 31.3447 62.6542 30.1238 61.4992C29.611 61.0126 24.8066 56.8701 24.8066 56.8701C20.2258 52.9271 20.5918 49.8477 20.5918 49.8477C20.8131 46.0581 24.1315 45.12 26.6389 45.337C26.9326 45.3611 27.0948 45.5408 27.0422 45.7863C26.9874 46.0515 26.5995 46.0712 26.5995 46.0712C25.8016 46.1195 25.0871 46.2005 24.5436 46.5644C22.5205 47.9255 23.1189 50.2378 25.8148 52.8131C26.1545 53.1397 26.514 53.4794 26.8844 53.8257C26.8844 53.8257 27.4258 54.3036 28.5041 55.3293C30.5775 57.2405 31.7129 58.2707 31.7129 58.2707C35.3666 61.3151 34.1195 64.0964 32.7233 65.0652C31.6581 65.8038 30.4767 66.1501 28.9315 66.2312L28.8899 66.2356C28.7452 66.2356 28.537 66.1479 28.526 65.9244M29.383 54.6871C28.1973 54.4373 27.9562 53.3633 27.9562 53.3633C27.8575 52.9841 27.8356 52.5085 27.9145 51.8992C28.0767 50.6258 28.4186 50.0274 28.8088 49.0411C29.337 47.7151 28.0548 46.9392 28.2674 46.4526C28.5567 45.7929 29.4729 46.6323 30.4921 46.6937C31.371 46.7419 31.8992 46.6981 32.583 46.7901C33.4904 46.9107 34.5753 47.2175 35.0575 47.7874C35.5003 48.3068 34.823 48.9403 34.0099 48.5414C33.4159 48.2521 32.6663 48.4296 33.1047 49.0499C33.6351 49.6395 33.8871 49.657 34.4263 49.7973C35.9123 50.1874 35.9408 51.6099 34.9392 52.3485C33.7929 53.1858 32.6378 52.8416 32.171 51.1978C31.9364 50.3781 31.3578 49.9616 30.7638 50.194C30.1742 50.4263 30.5227 51.5047 30.9721 52.5041C31.7501 54.4942 30.1721 54.6981 29.5737 54.6981C29.4816 54.6981 29.4137 54.6937 29.3808 54.6893M25.0345 65.554C23.7458 65.4268 22.2049 65.0214 20.8658 63.8619C19.634 62.7967 18.869 61.3282 18.4986 60.0438C18.1195 58.7244 17.9595 57.1836 18.5863 57.3063C18.7792 57.3436 19.1123 58.1918 19.474 58.8077C19.8488 59.4433 20.1534 59.7962 20.4384 60.011C20.5677 60.1074 21.0082 59.1299 21.646 58.5731C22.0186 58.2663 22.4263 58.1611 22.4921 59.0773C22.571 60.2016 22.3693 61.5364 22.6959 61.5364C23.0027 61.5364 23.6953 61.3041 25.2142 61.177C25.7841 61.1288 26.1085 61.2362 25.5649 62.0055C25.2931 62.3868 24.9293 62.9282 24.0679 63.5463C25.3589 64.7562 26.9085 64.6093 26.9348 65.1244C26.9501 65.4203 26.3715 65.5847 25.6131 65.5847C25.429 65.5847 25.234 65.5737 25.0323 65.5562" fill="url(#paint1_radial_528_33)"/>
<path d="M46.091 51.0816C47.2526 52.5107 48.8285 53.337 50.2553 53.2449L50.411 53.2362V52.3726L50.2663 52.3551C48.2827 52.1118 47.1299 50.4921 47.1057 47.9101V47.7414H44.4493C44.331 47.7414 44.0197 47.7348 44.0197 47.9868C44.0197 48.0701 44.0526 48.2608 44.3594 48.2608C44.4975 48.2608 44.6203 48.274 44.7123 48.2981C44.8197 48.3222 44.9293 48.3748 44.96 48.7123C44.949 50.72 43.7063 52.2214 41.9419 52.3507L41.7907 52.3616V53.2427H41.9551C43.2285 53.2427 44.8416 52.9907 46.0931 51.0773" fill="#7E8082"/>
<path d="M46.869 58.0515C46.0997 58.0515 45.7425 57.6482 45.7425 56.7847V54.4197H43.2679C43.1518 54.4197 42.8405 54.4153 42.8405 54.6674C42.8405 54.7485 42.8756 54.9414 43.1803 54.9414C43.3184 54.9414 43.4389 54.9545 43.5331 54.9786C43.6471 55.0049 43.7611 55.0619 43.7852 55.4389V56.2674C43.7852 56.5545 43.851 59.0751 46.0997 59.0751H53.4181V58.0537H46.8712L46.869 58.0515Z" fill="#7E8082"/>
<path d="M50.8975 47.6449C50.7792 47.6449 50.4679 47.6405 50.4679 47.8926C50.4679 47.9737 50.5008 48.1666 50.8077 48.1666C50.9479 48.1666 51.0685 48.1797 51.1605 48.2038C51.2658 48.2279 51.3731 48.2762 51.406 48.5852V55.0948H53.3611V47.6449H50.8975Z" fill="#7E8082"/>
<path d="M60.103 52.8088C59.086 52.8088 58.2553 52.0307 58.2553 51.0751C58.2553 50.1194 59.0838 49.3392 60.103 49.3392C61.1222 49.3392 61.9529 50.1173 61.9529 51.0751C61.9529 52.0329 61.1244 52.8088 60.103 52.8088ZM56.3353 51.1562C56.3353 52.651 58.0208 53.8674 60.0964 53.8674C62.1721 53.8674 63.8575 52.651 63.8575 51.1562C63.8575 50.3671 63.3863 49.657 62.6411 49.1616H64.2564V48.1512H61.1857V47.04H58.709C58.5929 47.04 58.2794 47.0356 58.2794 47.2877C58.2794 47.371 58.3123 47.5616 58.6214 47.5616C58.7594 47.5616 58.88 47.5748 58.9742 47.5989C59.0838 47.6252 59.1956 47.68 59.2241 48.0351C59.2241 48.0285 59.2241 48.0855 59.2241 48.1512H55.5923L56.1929 49.1616H57.5583C56.811 49.6592 56.3419 50.3671 56.3419 51.1562" fill="#7E8082"/>
<path d="M60.914 58.0559C59.8992 58.0559 59.7874 57.6504 59.7874 56.7868V54.4263H57.3129C57.1967 54.4263 56.8855 54.4241 56.8855 54.674C56.8855 54.7573 56.9184 54.9479 57.2252 54.9479C57.3633 54.9479 57.486 54.9611 57.5781 54.9852C57.6877 55.0115 57.8038 55.0663 57.8301 55.4323V56.2652C57.8301 58.0997 58.6279 59.0707 60.1447 59.0707H67.474V58.0537H60.914V58.0559Z" fill="#7E8082"/>
<path d="M69.1616 50.6542V49.6351H67.52V47.6449H65.0564C64.9403 47.6449 64.629 47.6405 64.629 47.8926C64.629 47.9737 64.6619 48.1666 64.9688 48.1666C65.1068 48.1666 65.2296 48.1797 65.3195 48.2038C65.4137 48.2236 65.5079 48.2674 65.5518 48.4953V55.097H67.52V50.6542H69.1616Z" fill="#7E8082"/>
<path d="M86.2531 50.9721C86.2531 50.1129 86.8471 49.4159 87.5748 49.4159C88.3025 49.4159 88.8964 50.1129 88.8964 50.9721C88.8964 51.8312 88.3025 52.5282 87.5748 52.5282C86.8471 52.5282 86.2531 51.8312 86.2531 50.9721ZM90.6477 51.0597C90.6477 50.3452 90.2751 49.703 89.6833 49.2493H91.0575V48.2433H88.6247V47.097H86.2948C86.1545 47.097 85.8652 47.097 85.8652 47.3425C85.8652 47.4258 85.8981 47.6164 86.2071 47.6164C86.3474 47.6164 86.3518 47.6296 86.446 47.6559C86.5578 47.6822 86.6783 47.7414 86.6981 48.1249L86.7047 48.2411H83.6647L84.2674 49.2471H85.5364C84.9447 49.7008 84.572 50.343 84.572 51.0575C84.572 52.4252 85.9353 53.5386 87.6099 53.5386C89.2844 53.5386 90.6455 52.4252 90.6455 51.0575" fill="#7E8082"/>
<path d="M90.926 58.3627C89.3874 58.3627 88.1359 57.5649 88.1359 56.5874C88.1359 55.6099 89.3874 54.8099 90.926 54.8099C92.4647 54.8099 93.7162 55.6077 93.7162 56.5874C93.7162 57.5671 92.4647 58.3627 90.926 58.3627ZM90.9304 53.8236C88.2389 53.8236 86.0493 55.0597 86.0493 56.5808C86.0493 58.1019 88.2389 59.3381 90.9304 59.3381C93.6219 59.3381 95.8093 58.0997 95.8093 56.5808C95.8093 55.0619 93.6219 53.8236 90.9304 53.8236Z" fill="#7E8082"/>
<path d="M76.6268 51.6011C75.04 51.6011 73.7468 50.7792 73.7468 49.7688C73.7468 48.7584 75.0378 47.9364 76.6268 47.9364C78.2159 47.9364 79.5068 48.7584 79.5068 49.7688C79.5068 50.7792 78.2159 51.6011 76.6268 51.6011ZM76.6312 46.9151C73.8521 46.9151 71.5945 48.1929 71.5945 49.7622C71.5945 51.3315 73.8542 52.6093 76.6312 52.6093C79.4082 52.6093 81.6658 51.3337 81.6658 49.7622C81.6658 48.1907 79.406 46.9151 76.6312 46.9151Z" fill="#7E8082"/>
<path d="M96 47.4915H94.2641V49.5956H93.5474V47.4915H91.3666C91.2285 47.4915 90.937 47.4871 90.937 47.7348C90.937 47.8181 90.9698 48.011 91.2789 48.011C91.4192 48.011 91.4652 48.0241 91.5573 48.0504C91.6712 48.0767 91.8115 48.1315 91.8115 48.5173V53.4619H93.5474V50.5534H94.2641V53.4619H96V47.4915Z" fill="#7E8082"/>
<path d="M71.8488 54.7222C71.8488 54.7222 71.8707 55.7896 71.8773 56.3551C71.9101 58.2422 72.743 59.1079 74.3036 59.0663H81.6636V58.0493H74.8866C73.8718 58.0493 73.76 57.6416 73.76 56.7803V54.2597H82.4899V53.1989H69.8236L70.4394 54.2597H71.4455C71.4455 54.2597 71.8181 54.2203 71.8466 54.7047V54.7222H71.8488Z" fill="#7E8082"/>
<path d="M46.7353 60.3244V62.0625H46.5973C46.5534 61.7293 46.4723 61.4641 46.3584 61.2647C46.2444 61.0674 46.08 60.9096 45.8674 60.7934C45.6548 60.6773 45.4356 60.6203 45.2077 60.6203C44.9512 60.6203 44.7386 60.6992 44.5699 60.8548C44.4011 61.0126 44.3178 61.1901 44.3178 61.3896C44.3178 61.543 44.3704 61.6833 44.4778 61.8082C44.6312 61.9945 44.9951 62.24 45.5715 62.549C46.0405 62.8011 46.3605 62.994 46.5337 63.1299C46.7047 63.2636 46.8384 63.4236 46.9304 63.6055C47.0225 63.7874 47.0685 63.9803 47.0685 64.1797C47.0685 64.5589 46.9216 64.8877 46.6257 65.1638C46.3299 65.44 45.9507 65.5781 45.486 65.5781C45.3392 65.5781 45.2033 65.5671 45.074 65.5452C44.9973 65.532 44.8394 65.4882 44.5984 65.4093C44.3573 65.3326 44.206 65.2931 44.1403 65.2931C44.0745 65.2931 44.0307 65.3107 43.9934 65.3479C43.9584 65.3852 43.9321 65.4619 43.9145 65.5781H43.7764V63.8553H43.9145C43.9781 64.217 44.0657 64.4866 44.1731 64.6641C44.2827 64.8438 44.4471 64.9929 44.6707 65.1112C44.8942 65.2296 45.1397 65.2888 45.4071 65.2888C45.7162 65.2888 45.9594 65.2077 46.1392 65.0433C46.3189 64.8811 46.4088 64.6882 46.4088 64.4646C46.4088 64.3419 46.3759 64.217 46.3057 64.0899C46.2378 63.9627 46.1326 63.8466 45.9901 63.737C45.8937 63.6625 45.6307 63.5047 45.2011 63.2636C44.7715 63.0225 44.4647 62.8296 44.2849 62.6871C44.103 62.5447 43.9649 62.3847 43.8707 62.2137C43.7764 62.0427 43.7304 61.8499 43.7304 61.6438C43.7304 61.2822 43.8685 60.9731 44.1447 60.7123C44.4208 60.4515 44.7737 60.3222 45.2011 60.3222C45.4685 60.3222 45.7512 60.3879 46.0493 60.5194C46.1874 60.5808 46.286 60.6115 46.343 60.6115C46.4066 60.6115 46.4592 60.5918 46.5008 60.5545C46.5425 60.5173 46.5753 60.4384 46.5994 60.3222H46.7375L46.7353 60.3244Z" fill="#7D7E81"/>
<path d="M48.8942 63.0225H51.0093V61.7183C51.0093 61.486 50.994 61.3326 50.9655 61.2581C50.9436 61.2011 50.8953 61.1529 50.8252 61.1134C50.7288 61.0586 50.6279 61.0323 50.5205 61.0323H50.3584V60.9074H52.3068V61.0323H52.1447C52.0373 61.0323 51.9342 61.0586 51.84 61.109C51.7677 61.1441 51.7195 61.1989 51.6931 61.2712C51.6668 61.3436 51.6537 61.4926 51.6537 61.7162V64.6553C51.6537 64.8855 51.669 65.0389 51.6975 65.1112C51.7194 65.1682 51.7655 65.2164 51.8356 65.2559C51.9342 65.3085 52.0373 65.337 52.1447 65.337H52.3068V65.4619H50.3584V65.337H50.5205C50.7068 65.337 50.8427 65.2822 50.926 65.1726C50.983 65.1003 51.0093 64.9293 51.0093 64.6553V63.2679H48.8942V64.6553C48.8942 64.8855 48.9096 65.0389 48.9381 65.1112C48.96 65.1682 49.0082 65.2164 49.0784 65.2559C49.1748 65.3085 49.2756 65.337 49.383 65.337H49.5474V65.4619H47.5967V65.337H47.7589C47.9474 65.337 48.0833 65.2822 48.1688 65.1726C48.2236 65.1003 48.2499 64.9293 48.2499 64.6553V61.7162C48.2499 61.4838 48.2345 61.3304 48.206 61.2559C48.1841 61.1989 48.1381 61.1507 48.0679 61.1112C47.9693 61.0564 47.8663 61.0301 47.7589 61.0301H47.5967V60.9052H49.5474V61.0301H49.383C49.2756 61.0301 49.1726 61.0564 49.0784 61.1068C49.0082 61.1419 48.96 61.1967 48.9337 61.269C48.9074 61.3414 48.8942 61.4904 48.8942 61.714V63.0225Z" fill="#7D7E81"/>
<path d="M54.5753 65.3414V65.4663H52.6247V65.3414H52.7868C52.9753 65.3414 53.1112 65.2866 53.1967 65.177C53.2515 65.1046 53.2778 64.9337 53.2778 64.6597V61.7183C53.2778 61.4882 53.2625 61.3348 53.234 61.2625C53.2121 61.2055 53.166 61.1573 53.0959 61.1178C52.9973 61.063 52.8942 61.0367 52.7868 61.0367H52.6247V60.9118H54.5753V61.0367H54.411C54.2247 61.0367 54.0888 61.0915 54.0055 61.2011C53.9485 61.2734 53.9222 61.4444 53.9222 61.7183V64.6597C53.9222 64.8899 53.9375 65.0433 53.966 65.1156C53.9879 65.1726 54.0362 65.2208 54.1063 65.2603C54.2027 65.3129 54.3036 65.3414 54.411 65.3414H54.5753Z" fill="#7D7E81"/>
<path d="M54.6586 60.9096H55.8948L58.6784 64.3244V61.6986C58.6784 61.4181 58.6477 61.2449 58.5841 61.1748C58.5008 61.0805 58.3693 61.0345 58.1918 61.0345H58.034V60.9096H59.6186V61.0345H59.4564C59.2636 61.0345 59.1277 61.0937 59.0466 61.2099C58.9962 61.2822 58.972 61.4444 58.972 61.7008V65.5408H58.8515L55.8488 61.874V64.6794C55.8488 64.96 55.8794 65.1331 55.9386 65.2033C56.0241 65.2975 56.1556 65.3436 56.331 65.3436H56.4931V65.4685H54.9085V65.3436H55.0663C55.2614 65.3436 55.3994 65.2844 55.4805 65.1682C55.5288 65.0959 55.5551 64.9337 55.5551 64.6772V61.5101C55.4236 61.3545 55.3227 61.2537 55.2548 61.2055C55.1868 61.1551 55.086 61.1112 54.9545 61.0674C54.8888 61.0477 54.7901 61.0367 54.6586 61.0367V60.9096Z" fill="#7D7E81"/>
<path d="M61.1331 63.0225H63.2482V61.7183C63.2482 61.486 63.2329 61.3326 63.2044 61.2581C63.1825 61.2011 63.1342 61.1529 63.0641 61.1134C62.9677 61.0586 62.8668 61.0323 62.7594 61.0323H62.5973V60.9074H64.5458V61.0323H64.3836C64.2762 61.0323 64.1731 61.0586 64.0789 61.109C64.0066 61.1441 63.9584 61.1989 63.9321 61.2712C63.9058 61.3436 63.8926 61.4926 63.8926 61.7162V64.6553C63.8926 64.8855 63.9079 65.0389 63.9364 65.1112C63.9584 65.1682 64.0044 65.2164 64.0745 65.2559C64.1731 65.3085 64.2762 65.337 64.3836 65.337H64.5458V65.4619H62.5973V65.337H62.7594C62.9458 65.337 63.0816 65.2822 63.1649 65.1726C63.2219 65.1003 63.2482 64.9293 63.2482 64.6553V63.2679H61.1331V64.6553C61.1331 64.8855 61.1485 65.0389 61.177 65.1112C61.1989 65.1682 61.2471 65.2164 61.3173 65.2559C61.4137 65.3085 61.5145 65.337 61.6219 65.337H61.7863V65.4619H59.8356V65.337H59.9978C60.1863 65.337 60.3222 65.2822 60.4077 65.1726C60.4625 65.1003 60.4888 64.9293 60.4888 64.6553V61.7162C60.4888 61.4838 60.4734 61.3304 60.4449 61.2559C60.423 61.1989 60.377 61.1507 60.3068 61.1112C60.2082 61.0564 60.1052 61.0301 59.9978 61.0301H59.8356V60.9052H61.7863V61.0301H61.6219C61.5145 61.0301 61.4115 61.0564 61.3173 61.1068C61.2471 61.1419 61.1989 61.1967 61.1726 61.269C61.1463 61.3414 61.1331 61.4904 61.1331 61.714V63.0225Z" fill="#7D7E81"/>
<path d="M67.8378 63.9408H66.0734L65.7644 64.6597C65.6877 64.8373 65.6504 64.9688 65.6504 65.0564C65.6504 65.1266 65.6833 65.1857 65.749 65.2405C65.8148 65.2931 65.9573 65.3282 66.1764 65.3436V65.4685H64.743V65.3436C64.9337 65.3107 65.0564 65.2668 65.1134 65.212C65.2274 65.1046 65.3545 64.8855 65.4926 64.5567L67.0948 60.8088H67.2132L68.7978 64.5983C68.9249 64.903 69.0411 65.1003 69.1463 65.1923C69.2515 65.2822 69.3962 65.3348 69.5803 65.3457V65.4707H67.783V65.3457C67.9649 65.337 68.0877 65.3063 68.1512 65.2559C68.2148 65.2055 68.2477 65.1419 68.2477 65.0674C68.2477 64.9688 68.2038 64.8131 68.114 64.6005L67.8378 63.9452V63.9408ZM67.7436 63.6931L66.9721 61.852L66.1786 63.6931H67.7436Z" fill="#7D7E81"/>
<path d="M69.5715 60.9096H70.8077L73.5912 64.3244V61.6986C73.5912 61.4181 73.5605 61.2449 73.497 61.1748C73.4137 61.0805 73.2844 61.0345 73.1047 61.0345H72.9468V60.9096H74.5315V61.0345H74.3693C74.1764 61.0345 74.0405 61.0937 73.9594 61.2099C73.9112 61.2822 73.8849 61.4444 73.8849 61.7008V65.5408H73.7644L70.7616 61.874V64.6794C70.7616 64.96 70.7923 65.1331 70.8515 65.2033C70.937 65.2975 71.0685 65.3436 71.2438 65.3436H71.406V65.4685H69.8214V65.3436H69.9792C70.1742 65.3436 70.3123 65.2844 70.3934 65.1682C70.4416 65.0959 70.4679 64.9337 70.4679 64.6772V61.5101C70.3364 61.3545 70.2356 61.2537 70.1677 61.2055C70.0997 61.1551 69.9989 61.1112 69.8674 61.0674C69.8016 61.0477 69.703 61.0367 69.5715 61.0367V60.9096Z" fill="#7D7E81"/>
<path d="M79.531 63.1408C79.8466 63.2088 80.0833 63.3162 80.2389 63.463C80.4559 63.669 80.5655 63.9211 80.5655 64.2192C80.5655 64.4449 80.4931 64.6619 80.3507 64.8701C80.2082 65.0783 80.011 65.2296 79.7611 65.3238C79.5112 65.4181 79.1299 65.4663 78.617 65.4663H76.4668V65.3414H76.6378C76.8285 65.3414 76.9644 65.28 77.0477 65.1594C77.1003 65.0805 77.1244 64.914 77.1244 64.6597V61.7183C77.1244 61.4356 77.0915 61.2581 77.0279 61.1836C76.9403 61.0849 76.811 61.0367 76.6378 61.0367H76.4668V60.9118H78.4351C78.8033 60.9118 79.097 60.9381 79.3184 60.9929C79.6537 61.074 79.9101 61.2164 80.0877 61.4203C80.2652 61.6241 80.3529 61.8608 80.3529 62.1282C80.3529 62.3562 80.2827 62.56 80.1447 62.7419C80.0066 62.9216 79.8005 63.0553 79.531 63.143V63.1408ZM77.771 62.9589C77.8542 62.9742 77.9485 62.9874 78.0537 62.994C78.1611 63.0027 78.2773 63.0049 78.4044 63.0049C78.731 63.0049 78.9764 62.9699 79.1408 62.8997C79.3052 62.8296 79.4323 62.7222 79.5178 62.5753C79.6055 62.4285 79.6493 62.2707 79.6493 62.0975C79.6493 61.8301 79.5419 61.6044 79.3227 61.4159C79.1058 61.2274 78.7879 61.1331 78.3715 61.1331C78.1479 61.1331 77.9463 61.1573 77.7666 61.2077V62.9567L77.771 62.9589ZM77.771 65.1353C78.0296 65.1967 78.286 65.2252 78.5403 65.2252C78.9457 65.2252 79.2548 65.1331 79.4674 64.9512C79.68 64.7693 79.7874 64.5436 79.7874 64.274C79.7874 64.0964 79.7392 63.9277 79.6427 63.7633C79.5463 63.5989 79.3907 63.4718 79.1715 63.3775C78.9545 63.2833 78.6849 63.2373 78.3649 63.2373C78.2268 63.2373 78.1085 63.2373 78.0099 63.2438C77.9112 63.2482 77.8323 63.257 77.771 63.2679V65.1353Z" fill="#7D7E81"/>
<path d="M84.0942 63.9408H82.3321L82.023 64.6597C81.9463 64.8373 81.909 64.9688 81.909 65.0564C81.909 65.1266 81.9419 65.1857 82.0077 65.2405C82.0734 65.2931 82.2159 65.3282 82.4351 65.3436V65.4685H81.0016V65.3436C81.1923 65.3107 81.3151 65.2668 81.3721 65.212C81.486 65.1046 81.6131 64.8855 81.7512 64.5567L83.3534 60.8088H83.4718L85.0564 64.5983C85.1836 64.903 85.2997 65.1003 85.4049 65.1923C85.5101 65.2822 85.6548 65.3348 85.8389 65.3457V65.4707H84.0416V65.3457C84.2236 65.337 84.3463 65.3063 84.4099 65.2559C84.4734 65.2055 84.5063 65.1419 84.5063 65.0674C84.5063 64.9688 84.4625 64.8131 84.3726 64.6005L84.0964 63.9452L84.0942 63.9408ZM84 63.6931L83.2285 61.852L82.4351 63.6931H84Z" fill="#7D7E81"/>
<path d="M85.8279 60.9096H87.0641L89.8477 64.3244V61.6986C89.8477 61.4181 89.817 61.2449 89.7534 61.1748C89.6701 61.0805 89.5386 61.0345 89.3611 61.0345H89.2033V60.9096H90.7879V61.0345H90.6257C90.4329 61.0345 90.297 61.0937 90.2159 61.2099C90.1655 61.2822 90.1414 61.4444 90.1414 61.7008V65.5408H90.0208L87.0181 61.874V64.6794C87.0181 64.96 87.0488 65.1331 87.1079 65.2033C87.1934 65.2975 87.3249 65.3436 87.5003 65.3436H87.6625V65.4685H86.0778V65.3436H86.2356C86.4307 65.3436 86.5688 65.2844 86.6499 65.1682C86.6981 65.0959 86.7244 64.9337 86.7244 64.6772V61.5101C86.5929 61.3545 86.4921 61.2537 86.4241 61.2055C86.3562 61.1551 86.2553 61.1112 86.1238 61.0674C86.0581 61.0477 85.9594 61.0367 85.8279 61.0367V60.9096Z" fill="#7D7E81"/>
<path d="M92.9447 62.9392L94.6236 64.6093C94.8997 64.8855 95.1342 65.0718 95.3293 65.1726C95.5244 65.2712 95.7194 65.3282 95.9145 65.3414V65.4663H93.749V65.3414C93.8784 65.3414 93.9726 65.3194 94.0296 65.2756C94.0866 65.2318 94.1151 65.1836 94.1151 65.1288C94.1151 65.074 94.1041 65.0279 94.0822 64.9841C94.0603 64.9425 93.9901 64.8614 93.8718 64.7452L92.3003 63.189V64.6575C92.3003 64.8877 92.3156 65.0411 92.3441 65.1134C92.366 65.1704 92.4142 65.2186 92.4844 65.2581C92.5808 65.3107 92.6816 65.3392 92.789 65.3392H92.9425V65.4641H91.0005V65.3392H91.1627C91.3512 65.3392 91.4871 65.2844 91.5726 65.1748C91.6274 65.1025 91.6537 64.9315 91.6537 64.6575V61.7162C91.6537 61.486 91.6384 61.3326 91.6099 61.2559C91.5879 61.2033 91.5419 61.1551 91.4718 61.1156C91.3731 61.0608 91.2701 61.0345 91.1627 61.0345H91.0005V60.9096H92.9425V61.0345H92.789C92.6838 61.0345 92.5808 61.0608 92.4844 61.1112C92.4142 61.1463 92.366 61.2011 92.3397 61.2734C92.3134 61.3457 92.3003 61.4926 92.3003 61.7162V63.1101C92.3441 63.0685 92.4975 62.926 92.7605 62.6827C93.4247 62.0734 93.8279 61.6679 93.966 61.4641C94.0274 61.3742 94.0559 61.2953 94.0559 61.2296C94.0559 61.1792 94.0318 61.1331 93.9857 61.0937C93.9397 61.0542 93.8586 61.0345 93.7468 61.0345H93.6416V60.9096H95.314V61.0345C95.2153 61.0345 95.1255 61.0499 95.0444 61.074C94.9633 61.0981 94.8647 61.1463 94.7485 61.2164C94.6323 61.2866 94.4899 61.4005 94.3189 61.5562C94.2707 61.6 94.0427 61.8301 93.6373 62.2444L92.9425 62.937L92.9447 62.9392Z" fill="#7D7E81"/>
</g>
<rect x="1" y="1" width="110" height="110" rx="9" stroke="#CCCCCC" stroke-width="2"/>
<defs>
<radialGradient id="paint0_radial_528_33" cx="0" cy="0" r="1" gradientUnits="userSpaceOnUse" gradientTransform="translate(63.5793 52.4726) scale(37.8739 11.0464)">
<stop stop-color="white"/>
<stop offset="1" stop-color="#CF9C51"/>
</radialGradient>
<radialGradient id="paint1_radial_528_33" cx="0" cy="0" r="1" gradientUnits="userSpaceOnUse" gradientTransform="translate(62.5939 52.9033) scale(83.5495 24.366)">
<stop stop-color="#00C0F3"/>
<stop offset="0.22" stop-color="#0097D6"/>
<stop offset="0.57" stop-color="#0066B3"/>
<stop offset="1" stop-color="#0066B3"/>
</radialGradient>
<clipPath id="clip0_528_33">
<rect x="2" y="2" width="108" height="108" rx="8" fill="white"/>
</clipPath>
</defs>
</svg>
