<svg width="112" height="112" viewBox="0 0 112 112" fill="none" xmlns="http://www.w3.org/2000/svg">
<g clip-path="url(#clip0_421_551)">
<rect x="2" y="2" width="108" height="108" rx="8" fill="white"/>
<path d="M23.3441 57.9677H22.2366C19.9677 57.9677 18.1398 56.129 18.1398 53.871C18.1398 51.6129 19.9677 49.7634 22.2366 49.7634C18.7957 49.7634 16 52.5591 16 56C16 59.4408 18.7957 62.2365 22.2366 62.2365C22.7634 62.2365 23.2688 62.172 23.7527 62.0538C24.6989 61.8602 25.4086 61.0322 25.4086 60.0322C25.4086 58.8925 24.4839 57.9677 23.3441 57.9677Z" fill="#012A31"/>
<path d="M22.5054 54.9462H24.3011C26.5484 54.9462 28.3763 56.7742 28.3763 59.0215C28.3763 59.0645 28.3763 59.1183 28.3763 59.1613L32.7419 54.7957L27.7097 49.7634V52.5054H22.5054C21.828 52.5054 21.2903 53.0538 21.2903 53.7204C21.2903 54.3871 21.828 54.9462 22.5054 54.9462Z" fill="#012A31"/>
<path d="M40.9892 52.8495C40.5269 52.6559 39.871 52.4946 39.086 52.4946C38.086 52.4946 36.3656 52.6989 36.3656 54.3871C36.3656 55.5484 37.3011 56.0538 37.7849 56.1613L39.3548 56.5591C39.6774 56.6452 39.7634 56.7634 39.7634 57.0215C39.7634 57.3441 39.4624 57.5699 38.6452 57.5699C37.871 57.5699 37.0753 57.2688 36.5591 57.0215V58.5484C37.1935 58.8602 37.871 58.9677 38.6452 58.9677C39.4301 58.9677 41.4086 58.7097 41.4086 56.9677C41.4086 55.8065 40.5376 55.3226 40.0645 55.2043L38.4946 54.7849C38.2366 54.7204 38.0108 54.5484 38.0108 54.3656C38.0108 54.043 38.3333 53.8925 38.9785 53.8925C39.6237 53.8925 40.6237 54.0538 40.9892 54.2366V52.8495Z" fill="#012A31"/>
<path d="M48 52.7097H46.3656V56.3011L48 54.6667V52.7097Z" fill="#012A31"/>
<path d="M52.2473 52.4946C51.1183 52.4946 50.2473 52.9785 49.871 53.4086L46.2796 57C46.0538 57.2258 45.7634 57.4409 45.2151 57.4409C44.4946 57.4409 43.9247 56.9247 43.9247 56.2366V52.7097H42.2796V56.2903C42.2796 57.5161 42.871 58.957 45.1613 58.957C46.4624 58.957 47.172 58.4731 47.5376 58.043L51.129 54.4516C51.4086 54.1935 51.8064 53.9462 52.3226 53.9462C53 53.9462 53.8602 54.4409 53.8602 55.7204C53.8602 57 53.0538 57.4301 52.3011 57.4301C51.5484 57.4301 50.7312 57.0323 50.7312 55.7204V55.4409L49.086 57.086V61.2258H50.7312V58.0323C50.9892 58.4194 51.5376 58.957 52.6129 58.957C53.957 58.957 55.4946 58.129 55.4946 55.828C55.5054 52.8817 53.3763 52.4946 52.2473 52.4946Z" fill="#012A31"/>
<path d="M62.3979 55.5269C62.3979 53.0753 60.6237 52.4839 59.4409 52.4839C58.2581 52.4839 56.3763 53.0323 56.3763 55.7204C56.3763 58.5699 58.6774 58.957 59.8172 58.957C60.957 58.957 61.6344 58.7204 62.0753 58.4301V56.9785C61.5484 57.4409 60.7849 57.5591 59.8172 57.5591C59.2473 57.5591 58.2366 57.2688 57.957 56.2796H62.3011C62.3548 56.0323 62.3979 55.7419 62.3979 55.5269ZM57.957 55.0645C58.1613 54.1398 58.8065 53.8065 59.4409 53.8065C60.2151 53.8065 60.7742 54.4086 60.8172 55.0645H57.957Z" fill="#012A31"/>
<path d="M66.086 52.4946C64.4194 52.4946 63.3763 53.3548 63.3763 55.0753V58.7419H65.0215V55.2043C65.0215 54.4839 65.5161 53.9462 66.2796 53.9462C66.7204 53.9462 67.0215 54.0323 67.2366 54.1398V52.6774C66.9785 52.5699 66.6021 52.4946 66.086 52.4946Z" fill="#012A31"/>
<path d="M71.8064 52.4946C70.8495 52.4946 70.2473 52.9247 69.871 53.4409V50.0753H68.2258V55.7312C68.2258 57.2796 69.2258 58.9677 71.4301 58.9677C73.1613 58.9677 74.6667 57.871 74.6667 55.6559C74.6667 54.7312 74.1075 52.4946 71.8064 52.4946ZM71.4409 57.4624C70.6452 57.4624 69.8602 56.7634 69.8602 55.6129C69.8602 54.6344 70.4731 53.9247 71.4409 53.9247C72.2903 53.9247 73.0215 54.5699 73.0215 55.6129C73.0215 56.6559 72.2366 57.4624 71.4409 57.4624Z" fill="#012A31"/>
<path d="M78.3333 58.957C79.2903 58.957 79.9355 58.3656 80.3118 57.8602V58.7419H81.957V55.7312C81.957 54.1828 80.957 52.4946 78.7527 52.4946C77.0215 52.4946 75.5161 53.5914 75.5161 55.8065C75.5054 56.7204 76.0323 58.957 78.3333 58.957ZM78.7312 53.9247C79.5269 53.9247 80.3118 54.6237 80.3118 55.7742C80.3118 56.7527 79.5484 57.4624 78.7312 57.4624C77.7634 57.4624 77.1505 56.8172 77.1505 55.7742C77.1505 54.7312 77.7419 53.9247 78.7312 53.9247Z" fill="#012A31"/>
<path d="M86.0215 52.4946C83.8495 52.4946 83.1505 53.9355 83.1505 55.1613V58.7419H84.7957V55.2151C84.7957 54.5376 85.3118 53.9677 86.0323 53.9677C86.7527 53.9677 87.2688 54.5376 87.2688 55.2151V58.7419H88.914V55.1613C88.8925 53.9355 88.1828 52.4946 86.0215 52.4946Z" fill="#012A31"/>
<path d="M94.3333 56.0108C94.1828 55.7634 93.9355 55.5806 93.6559 55.5269C93.9785 55.4409 94.2581 55.2473 94.4409 54.957L95.8495 52.7204H94.0538L92.9032 54.4409C92.7634 54.6559 92.5161 54.7849 92.2581 54.7849H91.7849V50.1613H90.1398V58.7527H91.7849V56.2903H92.2473C92.4946 56.2903 92.7204 56.4194 92.8387 56.6237L94.1075 58.7312H96L94.3333 56.0108Z" fill="#012A31"/>
</g>
<rect x="1" y="1" width="110" height="110" rx="9" stroke="#CCCCCC" stroke-width="2"/>
<defs>
<clipPath id="clip0_421_551">
<rect x="2" y="2" width="108" height="108" rx="8" fill="white"/>
</clipPath>
</defs>
</svg>
