<svg width="113" height="112" viewBox="0 0 113 112" fill="none" xmlns="http://www.w3.org/2000/svg">
<g clip-path="url(#clip0_642_1148)">
<rect x="2.5" y="2" width="108" height="108" rx="8" fill="white"/>
<path fill-rule="evenodd" clip-rule="evenodd" d="M76.4145 64.4681L80.5641 64.4764V50.0349C81.194 50.0061 83.557 50.002 84.1004 50.0926C86.7804 50.5331 86.3934 53.6824 85.2078 54.4728C84.1375 55.1891 82.993 54.8309 82.0791 54.9668V58.9229C82.6101 58.9888 83.6682 58.9435 84.2404 58.927C86.1546 58.8776 87.7066 58.4618 88.9993 57.0951C90.3907 55.6213 90.7571 52.3856 90.082 50.0226C88.814 45.593 84.3886 46.1447 80.8317 46.1447C79.4074 46.1447 77.8389 46.0829 76.431 46.1447L76.4186 64.464L76.4145 64.4681ZM44.0736 64.4475H48.2068C48.318 64.4228 48.3056 64.3652 48.3797 64.1594C48.4209 64.0441 48.4621 63.9453 48.5032 63.8342L51.7842 55.2467C51.9448 54.8186 52.1095 54.3246 52.2947 53.9211L56.4155 64.4599H60.6105C60.5816 64.2335 60.277 63.5213 60.1741 63.2537L54.209 47.5402C53.999 46.9886 53.929 46.8404 53.5791 46.5234C52.9287 45.9265 51.776 45.8977 51.105 46.4452C50.7633 46.7251 50.6274 46.9433 50.4298 47.4538C49.5036 49.8538 48.6226 52.3074 47.7046 54.728C47.5564 55.1191 44.2013 63.9577 44.0736 64.4475ZM62.5865 64.4434H66.8267V57.8032L73.1623 57.7908L73.1705 53.9047L66.8308 53.8923V50.1049L74.4632 50.0967V46.1652C73.9074 46.12 71.4786 46.157 70.7211 46.157H66.9378C65.744 46.157 64.6284 46.1364 63.7639 46.7375C63.0187 47.2521 62.6153 48.1042 62.5947 49.3516C62.5494 51.8463 62.5947 54.3781 62.5947 56.8769V64.4475L62.5865 64.4434ZM92.3503 64.5258H96.4999V46.1447H92.3503V64.5258Z" fill="#333333"/>
<path fill-rule="evenodd" clip-rule="evenodd" d="M40.4098 56.387C40.7144 58.4865 37.9397 58.7459 37.7257 56.7863L34.7617 56.774C34.7081 57.5356 35.2145 58.573 35.5521 59.0341C35.8114 59.3963 35.9802 59.5816 36.2848 59.8368C36.4248 59.9562 37.0217 60.4873 37.2481 60.3308C37.3799 60.5573 37.384 60.5449 37.6557 60.6396C39.7882 61.3724 42.0523 60.4708 43.0651 58.4824C43.345 57.9308 43.7443 56.4282 43.4973 56.1194L43.4767 56.42C42.958 56.42 40.7268 56.4817 40.4015 56.387H40.4098Z" fill="#6CC5C4"/>
<path fill-rule="evenodd" clip-rule="evenodd" d="M35.0375 47.4538C35.128 47.5773 35.198 47.5896 35.2968 47.7625C35.3586 47.8696 35.4286 48.0136 35.4656 48.1618C35.5891 48.6805 35.3915 48.7917 35.3709 49.1252C35.3709 49.2857 35.6262 49.6933 35.7167 49.8538C35.8485 50.0885 35.972 50.3313 36.0996 50.5537C36.3589 51.0024 36.6059 51.5211 36.8735 51.9451H37.1493C37.2234 51.9327 37.1699 51.9533 37.2481 51.9122C37.6516 51.6857 38.2609 50.883 38.4873 50.4549C39.2489 49.0346 39.1459 47.322 38.2732 45.98C37.9439 45.4736 37.3634 44.8726 36.7747 44.5844C36.75 44.7779 36.4701 45.1566 36.363 45.3378L35.2927 47.1121C35.1075 47.4167 35.2145 47.3632 35.0334 47.4455L35.0375 47.4538Z" fill="#DBC27E"/>
<path fill-rule="evenodd" clip-rule="evenodd" d="M35.3421 63.5295C35.585 63.686 35.8114 64.1141 35.8073 64.5505C35.8073 65.1186 35.5356 65.3285 35.3174 65.5961C35.4615 65.7196 35.9349 66.5635 36.0708 66.7941C36.2025 67.0164 36.7459 67.8521 36.7871 68.0373C37.3511 67.7533 37.9397 67.1522 38.2609 66.6664C38.6355 66.0983 38.9278 65.382 38.9854 64.5505C39.0965 63.0108 38.335 61.4135 37.1576 60.6519L36.8735 60.6437C36.8159 60.8372 36.6018 61.1583 36.4865 61.3765C36.3589 61.6194 36.2272 61.8334 36.0996 62.0722C35.9555 62.3439 35.3833 63.2866 35.3421 63.5295Z" fill="#9090D5"/>
<path fill-rule="evenodd" clip-rule="evenodd" d="M22.8808 51.9698C23.206 52.011 23.1608 51.9945 23.5025 51.3523C23.7124 50.9571 24.6057 49.4257 24.6428 49.2281C24.4164 49.0181 24.1735 48.6517 24.2023 48.1577C24.2352 47.6596 24.511 47.4126 24.7498 47.1821C24.7086 46.9927 23.8153 45.5971 23.6013 45.2266C23.4983 45.0496 23.3172 44.6709 23.1978 44.6544C23.0496 44.675 22.9014 44.8067 22.7779 44.9014C21.0818 46.2023 20.5384 48.5159 21.5552 50.4549C21.8599 51.0353 22.3992 51.6816 22.8808 51.9698Z" fill="#8ACD80"/>
<path fill-rule="evenodd" clip-rule="evenodd" d="M37.3018 52.4885C37.31 52.7149 38.6974 54.9791 38.9114 55.3661C39.0802 55.3414 39.1584 55.3331 39.2819 55.4114C39.5989 55.469 39.8089 55.5719 39.9982 55.7572C40.1135 55.8683 40.1505 55.8807 40.2452 56.0371C40.2987 56.1235 40.3687 56.3211 40.414 56.3911C40.7392 56.4858 42.9705 56.4241 43.4892 56.4241L43.5098 56.1235C43.5674 55.506 43.1228 54.518 42.847 54.1146C42.4641 53.5547 42.1019 53.1595 41.5132 52.789C40.2123 51.9657 38.8332 51.8916 37.3059 52.4967L37.3018 52.4885Z" fill="#81E6EA"/>
<path fill-rule="evenodd" clip-rule="evenodd" d="M23.1937 67.9961C23.3296 67.9509 23.5025 67.5721 23.5766 67.4527L24.3052 66.2342C24.4081 66.0613 24.5563 65.7814 24.6798 65.629C24.4164 65.3779 24.0294 65.1844 23.9965 64.5134C23.9635 63.8794 24.3011 63.546 24.5975 63.2949C24.4246 62.8997 23.7206 61.6729 23.4407 61.1789C23.1608 60.6849 23.2143 60.5943 22.8726 60.6561C22.4733 60.8701 21.8064 61.6441 21.5594 62.1463C21.2012 62.8626 20.9995 63.546 21.0448 64.4764C21.0859 65.2915 21.3618 66.0366 21.7282 66.5965C22.0451 67.074 22.6585 67.7738 23.1896 68.0003L23.1937 67.9961Z" fill="#FC8080"/>
<path fill-rule="evenodd" clip-rule="evenodd" d="M22.7573 60.3473C22.7656 60.1868 21.8352 58.6595 21.687 58.4042C21.5264 58.1325 21.4276 57.8402 21.2712 57.8526C20.7401 57.902 20.5096 57.9967 20.0485 57.6838C19.7645 57.4903 19.5463 57.1939 19.4598 56.7411L19.4351 56.4323H16.4999C16.4588 59.5404 19.4681 61.6276 22.3498 60.6478C22.5844 60.5696 22.6956 60.5655 22.7573 60.3514V60.3473Z" fill="#FD81F8"/>
<path fill-rule="evenodd" clip-rule="evenodd" d="M16.4999 56.4282H19.4351L19.4598 56.7369C19.4187 56.1771 19.608 55.8313 19.9003 55.5431C20.2009 55.2426 20.6125 55.1849 21.1477 55.2261C21.2959 55.152 21.4935 54.728 21.5882 54.5674L22.7656 52.5091C22.3004 52.1962 21.1889 52.0439 20.5096 52.1015C19.6821 52.1756 19.0441 52.4432 18.4595 52.822C17.5168 53.4395 16.5123 54.7198 16.4999 56.4282Z" fill="#D9B1D9"/>
<path fill-rule="evenodd" clip-rule="evenodd" d="M23.1978 44.6544C23.3172 44.675 23.4983 45.0496 23.6013 45.2266C23.8153 45.5971 24.7086 46.9927 24.7498 47.1821C25.1821 47.0174 25.4867 46.8198 26.0383 47.0956C26.3677 47.2603 26.6517 47.5567 26.7423 47.9931C26.9893 48.0466 27.9361 47.9931 28.2408 47.9889C28.7595 47.9766 29.307 47.9601 29.8257 47.9601C29.6405 46.3093 28.6689 45.1525 27.5986 44.5638C26.9605 44.2139 26.2154 43.9834 25.355 43.9999C24.7704 44.0122 23.4654 44.2963 23.1978 44.6503L23.1978 44.6544Z" fill="#8BB184"/>
<path fill-rule="evenodd" clip-rule="evenodd" d="M30.2786 47.6843L30.2456 47.9519L32.8638 48.0013C33.0532 47.5979 33.2714 47.3344 33.716 47.1862C34.2224 47.0174 34.7369 47.1821 35.0375 47.4497C35.2186 47.3673 35.1075 47.4167 35.2968 47.1162L36.3672 45.3419C36.4742 45.1608 36.7541 44.782 36.7788 44.5885C36.3219 44.2551 35.3668 44.0122 34.6834 43.9999C33.2261 43.9752 31.8676 44.6709 31.0648 45.7742C30.7931 46.1447 30.2456 47.0791 30.2786 47.6843Z" fill="#F9DF8E"/>
<path fill-rule="evenodd" clip-rule="evenodd" d="M24.6839 65.629C24.5563 65.7814 24.4122 66.0613 24.3093 66.2342L23.5807 67.4527C23.5066 67.5721 23.3337 67.955 23.1978 67.9961C23.6383 68.3461 24.6592 68.6137 25.3591 68.626C26.2318 68.6384 26.9564 68.4243 27.6027 68.0661C28.6772 67.4774 29.661 66.2877 29.8257 64.6698L26.7011 64.6287C26.627 65.1021 26.3594 65.4273 26.0425 65.6126C25.5196 65.9172 25.1985 65.8019 24.6839 65.6332V65.629Z" fill="#CB9999"/>
<path fill-rule="evenodd" clip-rule="evenodd" d="M30.2168 64.674C30.4062 66.3124 31.3571 67.4527 32.3904 68.0332C33.6666 68.7495 35.5315 68.8565 36.7871 68.0332C36.7418 67.8479 36.2025 67.0081 36.0708 66.79C35.9349 66.5594 35.4615 65.7155 35.3174 65.592C35.128 65.6867 34.9469 65.8308 34.667 65.876C34.3706 65.9213 34.0989 65.876 33.8519 65.7525C33.5061 65.5838 33.0903 65.1515 33.0985 64.6204L30.2209 64.674H30.2168Z" fill="#8380FC"/>
<path fill-rule="evenodd" clip-rule="evenodd" d="M22.8808 51.9698C22.959 52.0274 23.0084 52.0192 23.1196 52.0233C23.1237 52.2744 23.7947 52.4885 24.0129 52.5667C25.2891 53.0154 26.52 52.8137 27.6315 52.2292L26.1001 49.3969C25.3138 49.6315 25.3056 49.6027 24.6428 49.2322C24.6057 49.4298 23.7124 50.9612 23.5025 51.3564C23.1608 51.9986 23.206 52.0151 22.8808 51.9739V51.9698Z" fill="#549149"/>
<path fill-rule="evenodd" clip-rule="evenodd" d="M39.2819 55.4114C39.1584 55.329 39.0802 55.3373 38.9114 55.3661C38.7015 54.9791 37.31 52.7149 37.3018 52.4885C36.5567 52.8219 35.9514 53.3818 35.5603 53.9335C35.2351 54.3904 34.6587 55.5349 34.7616 56.3006H37.7874C38.0056 56.0412 38.1374 55.362 39.2777 55.4114L39.2819 55.4114Z" fill="#66BEBE"/>
<path fill-rule="evenodd" clip-rule="evenodd" d="M37.1493 51.9533H36.8735C36.6059 51.5211 36.3589 51.0024 36.0996 50.5537C35.972 50.3313 35.8443 50.0885 35.7167 49.8538C35.6262 49.6933 35.3709 49.2857 35.3709 49.1252C35.2268 49.2404 35.1651 49.4915 34.7616 49.6933C34.3706 49.8909 34.1894 49.825 33.7489 49.8003L32.4234 52.2333C33.0491 52.5997 33.9177 52.8343 34.7946 52.7973C35.231 52.7767 35.6426 52.6943 36.0255 52.5626C36.2025 52.5009 36.3589 52.4391 36.5277 52.3568C36.6142 52.3156 36.6965 52.2703 36.7747 52.2292C36.8859 52.1674 36.9188 52.1633 36.9188 52.011C36.9435 52.011 37.0135 52.011 37.0382 52.011L37.1493 51.9616V51.9533Z" fill="#C1B080"/>
<path fill-rule="evenodd" clip-rule="evenodd" d="M21.1518 55.2261C21.5347 55.4278 21.7981 55.4937 22.0246 55.9342C22.074 56.033 22.1151 56.2018 22.1728 56.2923H25.2768C25.392 55.5843 24.7951 54.3657 24.4987 53.9499C24.1941 53.5177 23.4037 52.719 22.7697 52.5132L21.5923 54.5716C21.5017 54.7321 21.3 55.1561 21.1518 55.2302V55.2261Z" fill="#A050A0"/>
<path fill-rule="evenodd" clip-rule="evenodd" d="M26.7011 64.6246L29.8257 64.6657C29.9945 62.9244 29.2123 61.4917 27.8826 60.5573C27.7385 60.7425 26.3841 63.2496 26.3018 63.4225C26.3841 63.5789 26.5159 63.6613 26.6106 63.8918C26.7052 64.1223 26.7382 64.3529 26.7052 64.6204L26.7011 64.6246Z" fill="#A84242"/>
<path fill-rule="evenodd" clip-rule="evenodd" d="M30.2168 64.674L33.0944 64.6204C33.0614 64.2252 33.2344 63.8095 33.4731 63.5666C33.5719 63.4678 33.6501 63.4595 33.7366 63.3484L32.2093 60.5408C31.6988 60.7425 30.9949 61.6276 30.7232 62.1257C30.328 62.8585 30.1262 63.7107 30.2168 64.674Z" fill="#4B4BA0"/>
<path fill-rule="evenodd" clip-rule="evenodd" d="M35.3421 63.5295C35.3833 63.2866 35.9555 62.3398 36.0996 62.0722C36.2313 61.8293 36.3589 61.6152 36.4865 61.3765C36.6018 61.1583 36.8159 60.8372 36.8735 60.6437L37.1576 60.6519C37.0835 60.6025 37.0176 60.6108 36.9147 60.6108C36.9229 60.3597 36.2972 60.162 36.079 60.0838C35.7167 59.9562 35.3503 59.8739 34.9469 59.8409C34.0083 59.7668 33.362 59.9686 32.6251 60.2856L34.1894 63.1755C34.564 63.2125 34.7081 63.122 35.128 63.3566L35.3421 63.5295Z" fill="#4B4BA0"/>
<path fill-rule="evenodd" clip-rule="evenodd" d="M22.8808 60.6561C23.2225 60.5902 23.1649 60.6849 23.4489 61.1789C23.7289 61.6729 24.4328 62.8997 24.6057 63.2949C25.1697 63.0149 25.2397 63.0437 25.8819 63.1672L27.4586 60.3267C26.6559 59.7504 25.0792 59.7051 23.9923 60.0756C23.7742 60.1497 23.1237 60.3679 23.1278 60.6108C23.1155 60.6108 23.0167 60.6108 23.0043 60.6108C22.992 60.6108 22.9796 60.6108 22.9673 60.619L22.9096 60.6437C22.9096 60.6437 22.8932 60.6519 22.8849 60.6602L22.8808 60.6561Z" fill="#A84242"/>
<path fill-rule="evenodd" clip-rule="evenodd" d="M21.2753 57.8526C21.4276 57.8402 21.5305 58.1325 21.6911 58.4042C21.8393 58.6595 22.7656 60.1868 22.7614 60.3473C23.2966 60.442 24.2146 59.4293 24.474 59.0588C24.791 58.6101 25.355 57.5438 25.2768 56.774H22.1728C22.0328 57.0786 22.0822 57.1527 21.8599 57.4203C21.7775 57.5191 21.7158 57.5768 21.6088 57.655C21.5182 57.7208 21.3659 57.7702 21.2753 57.8526Z" fill="#A050A0"/>
<path fill-rule="evenodd" clip-rule="evenodd" d="M26.7424 47.989C26.8371 48.5941 26.6683 48.6806 26.4789 49.084C26.5613 49.2981 27.9815 51.8669 28.0556 51.9328C28.4879 51.694 29.1095 50.9324 29.3853 50.3766C29.7311 49.6768 29.9123 48.8452 29.8299 47.956C29.3112 47.956 28.7678 47.9684 28.245 47.9848C27.9363 47.9931 26.9894 48.0466 26.7465 47.989H26.7424Z" fill="#549149"/>
<path fill-rule="evenodd" clip-rule="evenodd" d="M32.8638 48.0013L30.2456 47.9519L30.2786 47.6843C30.1304 47.8531 30.2045 48.8082 30.2456 49.0634C30.3156 49.5121 30.4391 49.8991 30.612 50.2737C30.8714 50.8254 31.5465 51.7393 32.024 51.9574L33.3496 49.5698C32.9009 49.2198 32.6621 48.7794 32.8638 48.0054V48.0013Z" fill="#C1B080"/>
<path fill-rule="evenodd" clip-rule="evenodd" d="M45.1563 67.9756H44.7982L44.6541 67.5268H43.9954L43.8596 67.9756H43.5055L44.1436 66.0037H44.4977L45.1563 67.9756ZM44.5471 67.1934L44.3165 66.4647L44.0942 67.1934H44.5471ZM45.2181 67.5721L45.5351 67.5145C45.5474 67.5886 45.5762 67.6421 45.6174 67.6792C45.6586 67.7162 45.7162 67.7368 45.7903 67.7368C45.8726 67.7368 45.9344 67.7203 45.9756 67.6833C46.0044 67.6586 46.0167 67.6256 46.0167 67.5804C46.0167 67.5515 46.0085 67.5268 45.9961 67.5104C45.9797 67.4939 45.9467 67.4774 45.8891 67.461C45.6339 67.3951 45.4733 67.3334 45.4033 67.2757C45.3087 67.1975 45.2634 67.0905 45.2634 66.9546C45.2634 66.8311 45.3045 66.7282 45.3869 66.6418C45.4692 66.5553 45.5968 66.5141 45.7656 66.5141C45.9344 66.5141 46.0497 66.5471 46.1279 66.6088C46.2061 66.6747 46.2637 66.7694 46.2925 66.8929L45.9961 66.9587C45.9838 66.9011 45.9591 66.8599 45.922 66.8311C45.885 66.8023 45.8356 66.7858 45.7697 66.7858C45.6874 66.7858 45.6256 66.7982 45.5886 66.827C45.5639 66.8476 45.5515 66.8723 45.5515 66.9052C45.5515 66.934 45.5598 66.9546 45.5845 66.9752C45.6133 66.9999 45.7121 67.037 45.8809 67.0822C46.0497 67.1275 46.1649 67.1852 46.2349 67.251C46.3008 67.3169 46.3337 67.4116 46.3337 67.531C46.3337 67.6627 46.2884 67.7738 46.1979 67.8685C46.1073 67.9632 45.9714 68.0085 45.7903 68.0085C45.6298 68.0085 45.498 67.9673 45.4033 67.8891C45.3087 67.8109 45.2469 67.7039 45.2181 67.568V67.5721ZM46.5354 67.2428C46.5354 67.1152 46.5601 66.9958 46.6137 66.8764C46.6672 66.757 46.7372 66.6706 46.8318 66.6088C46.9265 66.5471 47.0336 66.5141 47.1488 66.5141C47.33 66.5141 47.4782 66.5841 47.5934 66.7241C47.7087 66.8641 47.7663 67.0411 47.7663 67.2551C47.7663 67.4692 47.7087 67.6503 47.5934 67.7944C47.4782 67.9385 47.33 68.0085 47.1529 68.0085C47.0418 68.0085 46.9389 67.9797 46.8401 67.9179C46.7413 67.8603 46.6672 67.7738 46.6137 67.6586C46.5601 67.5433 46.5354 67.4033 46.5354 67.2387V67.2428ZM46.8607 67.2634C46.8607 67.4033 46.8895 67.5145 46.943 67.5886C47.0006 67.6627 47.0665 67.7039 47.1488 67.7039C47.2312 67.7039 47.3011 67.6668 47.3547 67.5886C47.4082 67.5145 47.437 67.4033 47.437 67.2593C47.437 67.1152 47.4082 67.0123 47.3547 66.9382C47.3011 66.8641 47.2312 66.8229 47.1488 66.8229C47.0665 66.8229 46.9965 66.8599 46.943 66.9382C46.8854 67.0123 46.8607 67.1234 46.8607 67.2634ZM47.9022 67.5721L48.2192 67.5145C48.2315 67.5886 48.2603 67.6421 48.3015 67.6792C48.3427 67.7162 48.4003 67.7368 48.4744 67.7368C48.5567 67.7368 48.6185 67.7203 48.6597 67.6833C48.6885 67.6586 48.7008 67.6256 48.7008 67.5804C48.7008 67.5515 48.6926 67.5268 48.6802 67.5104C48.6638 67.4939 48.6308 67.4774 48.5732 67.461C48.318 67.3951 48.1574 67.3334 48.0874 67.2757C47.9928 67.1975 47.9475 67.0905 47.9475 66.9546C47.9475 66.8311 47.9886 66.7282 48.071 66.6418C48.1533 66.5553 48.2809 66.5141 48.4497 66.5141C48.6185 66.5141 48.7338 66.5471 48.812 66.6088C48.8902 66.6747 48.9478 66.7694 48.9766 66.8929L48.6802 66.9587C48.6679 66.9011 48.6432 66.8599 48.6061 66.8311C48.5691 66.8023 48.5197 66.7858 48.4538 66.7858C48.3715 66.7858 48.3097 66.7982 48.2727 66.827C48.248 66.8476 48.2356 66.8723 48.2356 66.9052C48.2356 66.934 48.248 66.9546 48.2686 66.9752C48.2974 66.9999 48.3962 67.037 48.565 67.0822C48.7338 67.1275 48.8531 67.1852 48.919 67.251C48.9849 67.3169 49.0178 67.4116 49.0178 67.531C49.0178 67.6627 48.9725 67.7738 48.882 67.8685C48.7914 67.9632 48.6555 68.0085 48.4744 68.0085C48.3139 68.0085 48.1821 67.9673 48.0874 67.8891C47.9928 67.8109 47.931 67.7039 47.9022 67.568V67.5721ZM49.2936 66.3536V66.0037H49.6106V66.3536H49.2936ZM49.2936 67.9756V66.5471H49.6106V67.9756H49.2936ZM50.1664 66.9876L49.8823 66.9258C49.9152 66.7858 49.9688 66.6829 50.047 66.617C50.1252 66.5512 50.2405 66.5182 50.3969 66.5182C50.5369 66.5182 50.6439 66.5388 50.7098 66.5759C50.7798 66.617 50.825 66.6665 50.8539 66.7282C50.8827 66.79 50.895 66.9011 50.895 67.0658V67.5063C50.8909 67.6298 50.895 67.7244 50.9074 67.7821C50.9156 67.8438 50.9362 67.9056 50.965 67.9714H50.6521C50.6439 67.9467 50.6357 67.9097 50.6233 67.8603C50.6192 67.8397 50.6151 67.8232 50.611 67.815C50.5575 67.8768 50.4998 67.9262 50.4381 67.9591C50.3763 67.992 50.3105 68.0085 50.2405 68.0085C50.117 68.0085 50.0223 67.9673 49.9523 67.8891C49.8823 67.8109 49.8453 67.708 49.8453 67.5886C49.8453 67.5063 49.8617 67.4363 49.8947 67.3745C49.9276 67.3128 49.9729 67.2634 50.0305 67.2304C50.0882 67.1975 50.1705 67.1687 50.2816 67.144C50.4298 67.1111 50.5328 67.0781 50.5863 67.0534V67.0164C50.5863 66.9423 50.5698 66.8888 50.541 66.8599C50.5122 66.827 50.4545 66.8147 50.3722 66.8147C50.3146 66.8147 50.2734 66.827 50.2405 66.8558C50.2075 66.8805 50.1828 66.9299 50.1623 66.9958L50.1664 66.9876ZM50.5904 67.2922C50.5492 67.3087 50.4875 67.3292 50.3969 67.3498C50.3105 67.3704 50.2528 67.3951 50.224 67.4157C50.1828 67.4527 50.1623 67.4939 50.1623 67.5474C50.1623 67.6009 50.1787 67.6462 50.2117 67.6833C50.2446 67.7203 50.2858 67.7409 50.3352 67.7409C50.3928 67.7409 50.4463 67.7203 50.4998 67.675C50.5369 67.6421 50.5616 67.6009 50.5739 67.5515C50.5822 67.5186 50.5863 67.4569 50.5863 67.3663V67.2922H50.5904ZM51.0967 67.5721L51.4137 67.5145C51.4261 67.5886 51.4549 67.6421 51.4961 67.6792C51.5372 67.7162 51.5949 67.7368 51.669 67.7368C51.7513 67.7368 51.8131 67.7203 51.8542 67.6833C51.883 67.6586 51.8954 67.6256 51.8954 67.5804C51.8954 67.5515 51.8872 67.5268 51.8748 67.5104C51.8583 67.4939 51.8254 67.4774 51.7678 67.461C51.5125 67.3951 51.352 67.3334 51.282 67.2757C51.1873 67.1975 51.142 67.0905 51.142 66.9546C51.142 66.8311 51.1832 66.7282 51.2655 66.6418C51.3479 66.5553 51.4755 66.5141 51.6443 66.5141C51.8131 66.5141 51.9283 66.5471 52.0065 66.6088C52.0848 66.6747 52.1424 66.7694 52.1712 66.8929L51.8748 66.9587C51.8625 66.9011 51.8378 66.8599 51.8007 66.8311C51.7637 66.8023 51.7143 66.7858 51.6484 66.7858C51.5661 66.7858 51.5043 66.7982 51.4673 66.827C51.4426 66.8476 51.4302 66.8723 51.4302 66.9052C51.4302 66.934 51.4426 66.9546 51.4631 66.9752C51.492 66.9999 51.5908 67.037 51.7595 67.0822C51.9283 67.1275 52.0436 67.1852 52.1136 67.251C52.1794 67.3169 52.2124 67.4116 52.2124 67.531C52.2124 67.6627 52.1671 67.7738 52.0765 67.8685C51.986 67.9632 51.8501 68.0085 51.669 68.0085C51.5084 68.0085 51.3767 67.9673 51.282 67.8891C51.1873 67.8109 51.1256 67.7039 51.0967 67.568V67.5721ZM52.4882 66.3536V66.0037H52.8011V66.3536H52.4882ZM52.4882 67.9756V66.5471H52.8011V67.9756H52.4882ZM53.7685 67.9756V66.0037H54.9006V66.3371H54.1019V66.8064H54.7894V67.1399H54.1019V67.9756H53.7685ZM55.1682 66.3536V66.0037H55.481V66.3536H55.1682ZM55.1682 67.9756V66.5471H55.481V67.9756H55.1682ZM56.8931 67.9756H56.5802V67.2469C56.5802 67.0946 56.572 66.9917 56.5596 66.9464C56.5473 66.9011 56.5226 66.8641 56.4938 66.8394C56.4649 66.8147 56.4279 66.8023 56.3826 66.8023C56.3291 66.8023 56.2797 66.8188 56.2344 66.8558C56.1891 66.8929 56.1603 66.9382 56.1438 66.9999C56.1274 67.0575 56.1191 67.1687 56.1191 67.3292V67.9756H55.8063V66.5471H56.0985V66.757C56.2015 66.5965 56.3332 66.5182 56.4938 66.5182C56.5637 66.5182 56.6255 66.5347 56.6872 66.5635C56.7449 66.5924 56.7902 66.6335 56.819 66.6788C56.8478 66.7241 56.8684 66.7776 56.8807 66.8394C56.8931 66.897 56.8972 66.9834 56.8972 67.0946V67.9797L56.8931 67.9756ZM57.7576 66.5471V66.8476H57.5435V67.428C57.5435 67.5474 57.5435 67.6133 57.5476 67.6339C57.5517 67.6545 57.56 67.6709 57.5764 67.6833C57.5929 67.6956 57.6094 67.7039 57.63 67.7039C57.6588 67.7039 57.7 67.6915 57.7576 67.6668L57.7823 67.9591C57.7082 67.9961 57.6258 68.0167 57.5353 68.0167C57.4776 68.0167 57.4282 68.0044 57.383 67.9838C57.3377 67.9591 57.3047 67.9303 57.2842 67.8932C57.2636 67.8562 57.2471 67.8068 57.2389 67.745C57.2306 67.6997 57.2306 67.6133 57.2306 67.4774V66.8517H57.0866V66.5512H57.2306V66.2671L57.5435 66.0448V66.5512H57.7576V66.5471ZM58.6674 67.5227L58.9802 67.5845C58.9391 67.7244 58.8773 67.8274 58.7909 67.9015C58.7044 67.9714 58.5933 68.0085 58.4657 68.0085C58.2598 68.0085 58.1034 67.9262 58.0046 67.7656C57.9264 67.6339 57.8852 67.4692 57.8852 67.2716C57.8852 67.0328 57.9387 66.8476 58.0416 66.7159C58.1446 66.58 58.2763 66.5141 58.4327 66.5141C58.6097 66.5141 58.7497 66.5841 58.8526 66.7241C58.9555 66.8641 59.0049 67.0781 59.0008 67.3704H58.2145C58.2145 67.4816 58.2434 67.568 58.2928 67.6339C58.3422 67.6956 58.3998 67.7286 58.4739 67.7286C58.5233 67.7286 58.5645 67.7121 58.5974 67.6792C58.6303 67.6462 58.655 67.5968 58.6756 67.5227H58.6674ZM58.6838 67.1399C58.6838 67.0287 58.6591 66.9464 58.6139 66.8888C58.5686 66.8311 58.5151 66.8023 58.4492 66.8023C58.3792 66.8023 58.3257 66.8311 58.2804 66.8929C58.2351 66.9546 58.2145 67.037 58.2145 67.1399H58.6838ZM60.2935 66.9711L59.9847 67.037C59.9765 66.9629 59.9518 66.9093 59.9147 66.8682C59.8777 66.8311 59.8283 66.8105 59.7707 66.8105C59.6924 66.8105 59.6307 66.8435 59.5813 66.9093C59.536 66.9752 59.5113 67.0822 59.5113 67.2346C59.5113 67.4033 59.536 67.5227 59.5813 67.5927C59.6307 67.6627 59.6924 67.6997 59.7707 67.6997C59.8283 67.6997 59.8777 67.6792 59.9189 67.638C59.9559 67.5968 59.9847 67.5268 60.0012 67.428L60.3099 67.4898C60.277 67.6586 60.2153 67.7903 60.1247 67.8768C60.0341 67.9632 59.9106 68.0085 59.7583 68.0085C59.5854 68.0085 59.4454 67.9426 59.3425 67.8109C59.2396 67.6792 59.1861 67.498 59.1861 67.2634C59.1861 67.0287 59.2396 66.8435 59.3425 66.7117C59.4454 66.58 59.5854 66.5141 59.7624 66.5141C59.9065 66.5141 60.0218 66.5512 60.1082 66.6253C60.1947 66.6994 60.2564 66.8147 60.2935 66.967V66.9711ZM60.8451 66.0037V66.7323C60.948 66.5882 61.0715 66.5141 61.2115 66.5141C61.2856 66.5141 61.3515 66.5306 61.4091 66.5635C61.4667 66.5965 61.512 66.6376 61.5408 66.687C61.5697 66.7364 61.5902 66.7941 61.6026 66.8517C61.6149 66.9135 61.6191 67.0081 61.6191 67.1358V67.9714H61.3062V67.2181C61.3062 67.0699 61.3021 66.9752 61.2897 66.934C61.2774 66.8929 61.2568 66.8599 61.2239 66.8394C61.195 66.8147 61.1539 66.8023 61.1086 66.8023C61.0551 66.8023 61.0098 66.8188 60.9686 66.8476C60.9274 66.8764 60.8986 66.9258 60.878 66.9834C60.8575 67.0452 60.8492 67.1358 60.8492 67.2551V67.9714H60.5364V65.9995H60.8492L60.8451 66.0037ZM62.5782 67.9756V66.0037H63.1093C63.311 66.0037 63.4428 66.0119 63.5045 66.0325C63.5992 66.0613 63.6774 66.1272 63.7392 66.226C63.8009 66.3248 63.8338 66.4524 63.8338 66.6088C63.8338 66.7282 63.8174 66.8311 63.7803 66.9135C63.7433 66.9958 63.698 67.0617 63.6404 67.1069C63.5827 67.1522 63.5251 67.1852 63.4675 67.2016C63.3892 67.2222 63.274 67.2304 63.1217 67.2304H62.9076V67.9756H62.5741H62.5782ZM62.9117 66.3371V66.897H63.0928C63.2246 66.897 63.311 66.8846 63.3563 66.8641C63.4016 66.8435 63.4345 66.8105 63.4592 66.7653C63.4839 66.72 63.4963 66.6706 63.4963 66.6129C63.4963 66.5429 63.4798 66.4812 63.4428 66.4359C63.4057 66.3906 63.3645 66.3618 63.311 66.3495C63.2699 66.3412 63.1916 66.3371 63.0723 66.3371H62.9117ZM64.7972 67.5227L65.11 67.5845C65.0689 67.7244 65.0071 67.8274 64.9207 67.9015C64.8342 67.9714 64.7231 68.0085 64.5954 68.0085C64.3896 68.0085 64.2332 67.9262 64.1344 67.7656C64.0561 67.6339 64.015 67.4692 64.015 67.2716C64.015 67.0328 64.0685 66.8476 64.1714 66.7159C64.2743 66.58 64.4061 66.5141 64.5625 66.5141C64.7395 66.5141 64.8795 66.5841 64.9824 66.7241C65.0853 66.8641 65.1347 67.0781 65.1306 67.3704H64.3443C64.3443 67.4816 64.3731 67.568 64.4225 67.6339C64.4719 67.6956 64.5296 67.7286 64.6037 67.7286C64.6531 67.7286 64.6942 67.7121 64.7272 67.6792C64.7601 67.6462 64.7848 67.5968 64.8054 67.5227H64.7972ZM64.8136 67.1399C64.8136 67.0287 64.7889 66.9464 64.7436 66.8888C64.6984 66.8311 64.6448 66.8023 64.579 66.8023C64.509 66.8023 64.4555 66.8311 64.4102 66.8929C64.3649 66.9546 64.3443 67.037 64.3443 67.1399H64.8136ZM66.4685 67.9756H66.1557V67.2469C66.1557 67.0946 66.1474 66.9917 66.1351 66.9464C66.1227 66.9011 66.098 66.8641 66.0692 66.8394C66.0404 66.8147 66.0033 66.8023 65.9581 66.8023C65.9045 66.8023 65.8551 66.8188 65.8099 66.8558C65.7646 66.8929 65.7358 66.9382 65.7193 66.9999C65.7028 67.0575 65.6946 67.1687 65.6946 67.3292V67.9756H65.3817V66.5471H65.674V66.757C65.7769 66.5965 65.9087 66.5182 66.0692 66.5182C66.1392 66.5182 66.2009 66.5347 66.2627 66.5635C66.3203 66.5924 66.3656 66.6335 66.3944 66.6788C66.4233 66.7241 66.4438 66.7776 66.4562 66.8394C66.4685 66.897 66.4727 66.9834 66.4727 67.0946V67.9797L66.4685 67.9756ZM67.8806 67.9756H67.5883V67.7656C67.5389 67.8479 67.4813 67.9097 67.4154 67.9509C67.3495 67.992 67.2836 68.0126 67.2137 68.0126C67.0778 68.0126 66.9584 67.9467 66.8596 67.815C66.7608 67.6833 66.7114 67.498 66.7114 67.2593C66.7114 67.0205 66.7608 66.8311 66.8555 66.7076C66.9502 66.58 67.0696 66.5182 67.2178 66.5182C67.3495 66.5182 67.4648 66.5841 67.5636 66.7159V66.0037H67.8765V67.9756H67.8806ZM67.0408 67.2346C67.0408 67.3869 67.0572 67.498 67.0943 67.568C67.1437 67.6668 67.2178 67.7162 67.3083 67.7162C67.3824 67.7162 67.4442 67.6792 67.4936 67.6051C67.543 67.531 67.5718 67.4198 67.5718 67.2716C67.5718 67.1069 67.5471 66.9876 67.4977 66.9176C67.4483 66.8435 67.3866 66.8105 67.3083 66.8105C67.2301 66.8105 67.1725 66.8476 67.119 66.9176C67.0696 66.9876 67.0449 67.0946 67.0449 67.2387L67.0408 67.2346ZM68.4281 66.9876L68.144 66.9258C68.177 66.7858 68.2305 66.6829 68.3087 66.617C68.3869 66.5512 68.5022 66.5182 68.6586 66.5182C68.7986 66.5182 68.9056 66.5388 68.9715 66.5759C69.0415 66.617 69.0868 66.6665 69.1156 66.7282C69.1444 66.79 69.1567 66.9011 69.1567 67.0658V67.5063C69.1526 67.6298 69.1567 67.7244 69.1691 67.7821C69.1773 67.8438 69.1979 67.9056 69.2267 67.9714H68.9139C68.9056 67.9467 68.8974 67.9097 68.885 67.8603C68.8809 67.8397 68.8768 67.8232 68.8727 67.815C68.8192 67.8768 68.7615 67.9262 68.6998 67.9591C68.638 67.992 68.5722 68.0085 68.5022 68.0085C68.3787 68.0085 68.284 67.9673 68.214 67.8891C68.144 67.8109 68.107 67.708 68.107 67.5886C68.107 67.5063 68.1235 67.4363 68.1564 67.3745C68.1893 67.3128 68.2346 67.2634 68.2922 67.2304C68.3499 67.1975 68.4322 67.1687 68.5434 67.144C68.6916 67.1111 68.7945 67.0781 68.848 67.0534V67.0164C68.848 66.9423 68.8315 66.8888 68.8027 66.8599C68.7739 66.827 68.7163 66.8147 68.6339 66.8147C68.5763 66.8147 68.5351 66.827 68.5022 66.8558C68.4693 66.8805 68.4446 66.9299 68.424 66.9958L68.4281 66.9876ZM68.8521 67.2922C68.8109 67.3087 68.7492 67.3292 68.6586 67.3498C68.5722 67.3704 68.5145 67.3951 68.4857 67.4157C68.4446 67.4527 68.424 67.4939 68.424 67.5474C68.424 67.6009 68.4404 67.6462 68.4734 67.6833C68.5063 67.7203 68.5475 67.7409 68.601 67.7409C68.6586 67.7409 68.7121 67.7203 68.7657 67.675C68.8027 67.6421 68.8274 67.6009 68.8398 67.5515C68.848 67.5186 68.8521 67.4569 68.8521 67.3663V67.2922ZM70.5564 67.9756H70.2436V67.2469C70.2436 67.0946 70.2353 66.9917 70.223 66.9464C70.2106 66.9011 70.1859 66.8641 70.1571 66.8394C70.1283 66.8147 70.0912 66.8023 70.046 66.8023C69.9924 66.8023 69.943 66.8188 69.8978 66.8558C69.8525 66.8929 69.8237 66.9382 69.8072 66.9999C69.7907 67.0575 69.7825 67.1687 69.7825 67.3292V67.9756H69.4696V66.5471H69.7619V66.757C69.8648 66.5965 69.9966 66.5182 70.1571 66.5182C70.2271 66.5182 70.2888 66.5347 70.3506 66.5635C70.4082 66.5924 70.4535 66.6335 70.4823 66.6788C70.5111 66.7241 70.5317 66.7776 70.5441 66.8394C70.5564 66.897 70.5606 66.9834 70.5606 67.0946V67.9797L70.5564 67.9756ZM71.1081 66.9876L70.824 66.9258C70.8569 66.7858 70.9105 66.6829 70.9887 66.617C71.0669 66.5512 71.1822 66.5182 71.3386 66.5182C71.4786 66.5182 71.5856 66.5388 71.6515 66.5759C71.7215 66.617 71.7667 66.6665 71.7956 66.7282C71.8244 66.79 71.8367 66.9011 71.8367 67.0658V67.5063C71.8326 67.6298 71.8367 67.7244 71.8491 67.7821C71.8573 67.8438 71.8779 67.9056 71.9067 67.9714H71.5938C71.5856 67.9467 71.5774 67.9097 71.565 67.8603C71.5609 67.8397 71.5568 67.8232 71.5527 67.815C71.4992 67.8768 71.4415 67.9262 71.3798 67.9591C71.318 67.992 71.2522 68.0085 71.1822 68.0085C71.0587 68.0085 70.964 67.9673 70.894 67.8891C70.824 67.8109 70.787 67.708 70.787 67.5886C70.787 67.5063 70.8034 67.4363 70.8364 67.3745C70.8693 67.3128 70.9146 67.2634 70.9722 67.2304C71.0299 67.1975 71.1122 67.1687 71.2233 67.144C71.3715 67.1111 71.4745 67.0781 71.528 67.0534V67.0164C71.528 66.9423 71.5115 66.8888 71.4827 66.8599C71.4539 66.827 71.3962 66.8147 71.3139 66.8147C71.2563 66.8147 71.2151 66.827 71.1822 66.8558C71.1492 66.8805 71.1245 66.9299 71.104 66.9958L71.1081 66.9876ZM71.5321 67.2922C71.4909 67.3087 71.4292 67.3292 71.3386 67.3498C71.2522 67.3704 71.1945 67.3951 71.1657 67.4157C71.1245 67.4527 71.104 67.4939 71.104 67.5474C71.104 67.6009 71.1204 67.6462 71.1534 67.6833C71.1863 67.7203 71.2275 67.7409 71.281 67.7409C71.3386 67.7409 71.3921 67.7203 71.4456 67.675C71.4827 67.6421 71.5074 67.6009 71.5197 67.5515C71.528 67.5186 71.5321 67.4569 71.5321 67.3663V67.2922ZM72.3884 66.9876L72.1043 66.9258C72.1372 66.7858 72.1908 66.6829 72.269 66.617C72.3472 66.5512 72.4625 66.5182 72.6189 66.5182C72.7589 66.5182 72.8659 66.5388 72.9318 66.5759C73.0018 66.617 73.047 66.6665 73.0759 66.7282C73.1047 66.79 73.117 66.9011 73.117 67.0658V67.5063C73.1129 67.6298 73.117 67.7244 73.1294 67.7821C73.1376 67.8438 73.1582 67.9056 73.187 67.9714H72.8741C72.8659 67.9467 72.8577 67.9097 72.8453 67.8603C72.8412 67.8397 72.8371 67.8232 72.833 67.815C72.7794 67.8768 72.7218 67.9262 72.6601 67.9591C72.5983 67.992 72.5325 68.0085 72.4625 68.0085C72.339 68.0085 72.2443 67.9673 72.1743 67.8891C72.1043 67.8109 72.0673 67.708 72.0673 67.5886C72.0673 67.5063 72.0837 67.4363 72.1167 67.3745C72.1496 67.3128 72.1949 67.2634 72.2525 67.2304C72.3101 67.1975 72.3925 67.1687 72.5036 67.144C72.6518 67.1111 72.7548 67.0781 72.8083 67.0534V67.0164C72.8083 66.9423 72.7918 66.8888 72.763 66.8599C72.7342 66.827 72.6765 66.8147 72.5942 66.8147C72.5366 66.8147 72.4954 66.827 72.4625 66.8558C72.4295 66.8805 72.4048 66.9299 72.3842 66.9958L72.3884 66.9876ZM72.8124 67.2922C72.7712 67.3087 72.7095 67.3292 72.6189 67.3498C72.5325 67.3704 72.4748 67.3951 72.446 67.4157C72.4048 67.4527 72.3842 67.4939 72.3842 67.5474C72.3842 67.6009 72.4007 67.6462 72.4336 67.6833C72.4666 67.7203 72.5077 67.7409 72.5571 67.7409C72.6148 67.7409 72.6683 67.7203 72.7218 67.675C72.7589 67.6421 72.7836 67.6009 72.7959 67.5515C72.8041 67.5186 72.8083 67.4569 72.8083 67.3663V67.2922H72.8124ZM74.5167 67.9756H74.2038V67.2469C74.2038 67.0946 74.1956 66.9917 74.1832 66.9464C74.1709 66.9011 74.1462 66.8641 74.1174 66.8394C74.0886 66.8147 74.0515 66.8023 74.0062 66.8023C73.9527 66.8023 73.9033 66.8188 73.858 66.8558C73.8127 66.8929 73.7839 66.9382 73.7675 66.9999C73.751 67.0575 73.7428 67.1687 73.7428 67.3292V67.9756H73.4299V66.5471H73.7222V66.757C73.8251 66.5965 73.9568 66.5182 74.1174 66.5182C74.1874 66.5182 74.2491 66.5347 74.3109 66.5635C74.3685 66.5924 74.4138 66.6335 74.4426 66.6788C74.4714 66.7241 74.492 66.7776 74.5043 66.8394C74.5167 66.897 74.5208 66.9834 74.5208 67.0946V67.9797L74.5167 67.9756ZM75.4759 66.0037H76.1346C76.2663 66.0037 76.361 66.0119 76.4269 66.0242C76.4927 66.0366 76.5504 66.0654 76.5998 66.1066C76.6492 66.1477 76.6903 66.2013 76.7274 66.2712C76.7603 66.3412 76.7768 66.4153 76.7768 66.5018C76.7768 66.5924 76.7562 66.6788 76.715 66.757C76.6739 66.8352 76.6162 66.8929 76.5462 66.9299C76.645 66.967 76.7233 67.0246 76.7768 67.1111C76.8303 67.1975 76.8591 67.2963 76.8591 67.4075C76.8591 67.498 76.8426 67.5845 76.8056 67.6709C76.7727 67.7574 76.7233 67.8232 76.6615 67.8726C76.5998 67.922 76.5257 67.955 76.4392 67.9673C76.3857 67.9756 76.2498 67.9797 76.0399 67.9797H75.48V66.0078L75.4759 66.0037ZM75.8094 66.333V66.7858H76.0275C76.1552 66.7858 76.2375 66.7858 76.2704 66.7776C76.3281 66.7694 76.3733 66.7447 76.4063 66.7076C76.4392 66.6706 76.4557 66.6171 76.4557 66.5553C76.4557 66.4935 76.4433 66.4441 76.4145 66.4071C76.3857 66.37 76.3445 66.3453 76.291 66.3371C76.2581 66.333 76.1634 66.3289 76.007 66.3289H75.8176L75.8094 66.333ZM75.8094 67.1152V67.6421H76.1181C76.2375 67.6421 76.3157 67.6421 76.3445 67.6298C76.3939 67.6174 76.4351 67.5927 76.4639 67.5515C76.4968 67.5104 76.5092 67.4527 76.5092 67.3828C76.5092 67.3251 76.4968 67.2716 76.4721 67.2304C76.4474 67.1893 76.4145 67.1605 76.3692 67.1399C76.3239 67.1193 76.2251 67.1111 76.0728 67.1111H75.8052L75.8094 67.1152ZM77.8224 67.5268L78.1353 67.5886C78.0941 67.7286 78.0324 67.8315 77.9459 67.9056C77.8595 67.9756 77.7483 68.0126 77.6207 68.0126C77.4149 68.0126 77.2584 67.9303 77.1596 67.7697C77.0814 67.638 77.0402 67.4733 77.0402 67.2757C77.0402 67.037 77.0938 66.8517 77.1967 66.72C77.2996 66.5841 77.4313 66.5182 77.5878 66.5182C77.7648 66.5182 77.9048 66.5882 78.0077 66.7282C78.1106 66.8682 78.16 67.0822 78.1559 67.3745H77.3655C77.3655 67.4857 77.3943 67.5721 77.4437 67.638C77.4931 67.6997 77.5507 67.7327 77.6248 67.7327C77.6742 67.7327 77.7154 67.7162 77.7483 67.6833C77.7812 67.6503 77.806 67.6009 77.8265 67.5268H77.8224ZM77.8389 67.144C77.8389 67.0328 77.8142 66.9505 77.7689 66.8929C77.7236 66.8352 77.6701 66.8064 77.6042 66.8064C77.5342 66.8064 77.4807 66.8352 77.4355 66.897C77.3902 66.9587 77.3696 67.0411 77.3696 67.144H77.8389ZM78.7116 67.9797H78.3988V66.5512H78.691V66.7529C78.7404 66.6582 78.7857 66.5924 78.8269 66.5635C78.8681 66.5347 78.9133 66.5182 78.9627 66.5182C79.0327 66.5182 79.1027 66.5429 79.1727 66.5882L79.0739 66.9176C79.0204 66.8764 78.971 66.8558 78.9257 66.8558C78.8804 66.8558 78.8434 66.8723 78.8145 66.9011C78.7857 66.9299 78.761 66.9834 78.7404 67.0575C78.724 67.1316 78.7157 67.2922 78.7157 67.5351V67.9756L78.7116 67.9797ZM79.1933 67.5762L79.5103 67.5186C79.5226 67.5927 79.5514 67.6462 79.5926 67.6833C79.6338 67.7203 79.6914 67.7409 79.7655 67.7409C79.8478 67.7409 79.9096 67.7244 79.9508 67.6874C79.9796 67.6627 79.9919 67.6298 79.9919 67.5845C79.9919 67.5557 79.9837 67.531 79.9713 67.5145C79.9549 67.498 79.9219 67.4816 79.8643 67.4651C79.6091 67.3992 79.4485 67.3375 79.3785 67.2798C79.2839 67.2016 79.2386 67.0946 79.2386 66.9587C79.2386 66.8352 79.2797 66.7323 79.3621 66.6459C79.4444 66.5594 79.572 66.5182 79.7408 66.5182C79.9096 66.5182 80.0249 66.5512 80.1031 66.6129C80.1813 66.6788 80.2389 66.7735 80.2677 66.897L79.9713 66.9629C79.959 66.9052 79.9343 66.8641 79.8972 66.8352C79.8602 66.8064 79.8108 66.79 79.7449 66.79C79.6626 66.79 79.6008 66.8023 79.5638 66.8311C79.5391 66.8517 79.5267 66.8764 79.5267 66.9093C79.5267 66.9382 79.535 66.9587 79.5597 66.9793C79.5885 67.004 79.6873 67.0411 79.8561 67.0864C80.0249 67.1316 80.1442 67.1893 80.2101 67.2551C80.276 67.321 80.3089 67.4157 80.3089 67.5351C80.3089 67.6668 80.2636 67.778 80.1731 67.8726C80.0825 67.9673 79.9466 68.0126 79.7655 68.0126C79.6049 68.0126 79.4732 67.9714 79.3785 67.8932C79.2839 67.815 79.2221 67.708 79.1933 67.5721V67.5762ZM80.8194 66.9917L80.5353 66.9299C80.5683 66.79 80.6218 66.687 80.7 66.6212C80.7782 66.5553 80.8935 66.5224 81.0499 66.5224C81.1899 66.5224 81.2969 66.5429 81.3628 66.58C81.4328 66.6212 81.4781 66.6706 81.5069 66.7323C81.5357 66.7941 81.548 66.9052 81.548 67.0699V67.5104C81.5439 67.6339 81.548 67.7286 81.5604 67.7862C81.5686 67.8479 81.5892 67.9097 81.618 67.9756H81.3052C81.2969 67.9509 81.2887 67.9138 81.2763 67.8644C81.2722 67.8438 81.2681 67.8274 81.264 67.8191C81.2105 67.8809 81.1528 67.9303 81.0911 67.9632C81.0293 67.9961 80.9635 68.0126 80.8935 68.0126C80.77 68.0126 80.6753 67.9714 80.6053 67.8932C80.5353 67.815 80.4983 67.7121 80.4983 67.5927C80.4983 67.5104 80.5147 67.4404 80.5477 67.3786C80.5806 67.3169 80.6259 67.2675 80.6835 67.2346C80.7412 67.2016 80.8235 67.1728 80.9347 67.1481C81.0829 67.1152 81.1858 67.0822 81.2393 67.0575V67.0205C81.2393 66.9464 81.2228 66.8929 81.194 66.8641C81.1652 66.8311 81.1076 66.8188 81.0252 66.8188C80.9676 66.8188 80.9264 66.8311 80.8935 66.8599C80.8605 66.8846 80.8358 66.934 80.8153 66.9999L80.8194 66.9917ZM81.2434 67.2963C81.2022 67.3128 81.1405 67.3334 81.0499 67.3539C80.9635 67.3745 80.9058 67.3992 80.877 67.4198C80.8359 67.4569 80.8153 67.498 80.8153 67.5515C80.8153 67.6051 80.8317 67.6503 80.8647 67.6874C80.8976 67.7244 80.9388 67.745 80.9923 67.745C81.0499 67.745 81.1034 67.7244 81.157 67.6792C81.194 67.6462 81.2187 67.6051 81.2311 67.5557C81.2393 67.5227 81.2434 67.461 81.2434 67.3704V67.2963ZM81.8403 66.5512H82.1285V66.7447C82.2314 66.5965 82.3549 66.5182 82.499 66.5182C82.5772 66.5182 82.6431 66.5388 82.6966 66.5759C82.7542 66.6129 82.7995 66.6706 82.8325 66.7447C82.886 66.6665 82.9436 66.6129 83.0012 66.5759C83.063 66.5388 83.1247 66.5182 83.1947 66.5182C83.2812 66.5182 83.3553 66.5388 83.417 66.58C83.4788 66.6212 83.5241 66.687 83.5529 66.7694C83.5735 66.8311 83.5858 66.9299 83.5858 67.0658V67.9797H83.2729V67.1646C83.2729 67.0246 83.2606 66.9299 83.24 66.8888C83.2112 66.8352 83.1659 66.8064 83.1042 66.8064C83.0589 66.8064 83.0177 66.8229 82.9807 66.8558C82.9436 66.8888 82.9148 66.934 82.8983 66.9958C82.8819 67.0575 82.8736 67.1563 82.8736 67.2922V67.9756H82.5608V67.1934C82.5608 67.0534 82.5566 66.967 82.5443 66.9258C82.5319 66.8846 82.5155 66.8558 82.4908 66.8352C82.4661 66.8147 82.4373 66.8064 82.3961 66.8064C82.3467 66.8064 82.3055 66.8229 82.2644 66.8517C82.2273 66.8846 82.1985 66.9299 82.182 66.9876C82.1656 67.0452 82.1573 67.144 82.1573 67.2798V67.9714H81.8444V66.5429L81.8403 66.5512ZM84.1416 66.9917L83.8575 66.9299C83.8904 66.79 83.944 66.687 84.0222 66.6212C84.1004 66.5553 84.2157 66.5224 84.3721 66.5224C84.5121 66.5224 84.6191 66.5429 84.685 66.58C84.755 66.6212 84.8002 66.6706 84.8291 66.7323C84.8579 66.7941 84.8702 66.9052 84.8702 67.0699V67.5104C84.8661 67.6339 84.8702 67.7286 84.8826 67.7862C84.8908 67.8479 84.9114 67.9097 84.9402 67.9756H84.6273C84.6191 67.9509 84.6109 67.9138 84.5985 67.8644C84.5944 67.8438 84.5903 67.8274 84.5862 67.8191C84.5327 67.8809 84.475 67.9303 84.4133 67.9632C84.3515 67.9961 84.2857 68.0126 84.2157 68.0126C84.0922 68.0126 83.9975 67.9714 83.9275 67.8932C83.8575 67.815 83.8205 67.7121 83.8205 67.5927C83.8205 67.5104 83.8369 67.4404 83.8699 67.3786C83.9028 67.3169 83.9481 67.2675 84.0057 67.2346C84.0633 67.2016 84.1457 67.1728 84.2568 67.1481C84.405 67.1152 84.5079 67.0822 84.5615 67.0575V67.0205C84.5615 66.9464 84.545 66.8929 84.5162 66.8641C84.4874 66.8311 84.4297 66.8188 84.3474 66.8188C84.2898 66.8188 84.2486 66.8311 84.2157 66.8599C84.1827 66.8846 84.158 66.934 84.1375 66.9999L84.1416 66.9917ZM84.5656 67.2963C84.5244 67.3128 84.4627 67.3334 84.3721 67.3539C84.2857 67.3745 84.228 67.3992 84.1992 67.4198C84.158 67.4569 84.1375 67.498 84.1375 67.5515C84.1375 67.6051 84.1539 67.6503 84.1869 67.6874C84.2198 67.7244 84.2609 67.745 84.3145 67.745C84.3721 67.745 84.4256 67.7244 84.4791 67.6792C84.5162 67.6462 84.5409 67.6051 84.5532 67.5557C84.5615 67.5227 84.5656 67.461 84.5656 67.3704V67.2963ZM85.8171 67.9797V66.0078H86.1505V67.9797H85.8171Z" fill="#333333"/>
<path fill-rule="evenodd" clip-rule="evenodd" d="M87.542 67.9756H87.2291V67.2469C87.2291 67.0946 87.2209 66.9917 87.2085 66.9464C87.1962 66.9011 87.1715 66.8641 87.1427 66.8394C87.1138 66.8147 87.0768 66.8023 87.0315 66.8023C86.978 66.8023 86.9286 66.8188 86.8833 66.8558C86.838 66.8929 86.8092 66.9382 86.7927 66.9999C86.7763 67.0575 86.768 67.1687 86.768 67.3292V67.9756H86.4552V66.5471H86.7474V66.757C86.8504 66.5965 86.9821 66.5182 87.1427 66.5182C87.2126 66.5182 87.2744 66.5347 87.3361 66.5635C87.3938 66.5923 87.439 66.6335 87.4679 66.6788C87.4967 66.7241 87.5173 66.7776 87.5296 66.8394C87.542 66.897 87.5461 66.9834 87.5461 67.0946V67.9797L87.542 67.9756ZM88.954 67.9756H88.6617V67.7656C88.6123 67.8479 88.5547 67.9097 88.4888 67.9509C88.4229 67.992 88.3571 68.0126 88.2871 68.0126C88.1512 68.0126 88.0319 67.9467 87.9331 67.815C87.8343 67.6833 87.7849 67.498 87.7849 67.2593C87.7849 67.0205 87.8343 66.8311 87.9289 66.7076C88.0236 66.58 88.143 66.5182 88.2912 66.5182C88.4229 66.5182 88.5382 66.5841 88.637 66.7159V66.0037H88.9499V67.9756H88.954ZM88.1142 67.2346C88.1142 67.3869 88.1307 67.498 88.1677 67.568C88.2171 67.6668 88.2912 67.7162 88.3818 67.7162C88.4559 67.7162 88.5176 67.6792 88.567 67.6051C88.6164 67.531 88.6452 67.4198 88.6452 67.2716C88.6452 67.1069 88.6206 66.9876 88.5712 66.9176C88.5218 66.8435 88.46 66.8105 88.3818 66.8105C88.3036 66.8105 88.2459 66.8476 88.1924 66.9176C88.143 66.9876 88.1183 67.0946 88.1183 67.2387L88.1142 67.2346ZM89.1928 67.2428C89.1928 67.1152 89.2175 66.9958 89.271 66.8764C89.3245 66.757 89.3945 66.6706 89.4892 66.6088C89.5839 66.5471 89.6909 66.5141 89.8062 66.5141C89.9873 66.5141 90.1355 66.5841 90.2508 66.7241C90.366 66.8641 90.4237 67.0411 90.4237 67.2551C90.4237 67.4692 90.366 67.6503 90.2508 67.7944C90.1355 67.9385 89.9873 68.0085 89.8103 68.0085C89.6991 68.0085 89.5962 67.9797 89.4974 67.9179C89.3986 67.8603 89.3245 67.7738 89.271 67.6586C89.2175 67.5433 89.1928 67.4033 89.1928 67.2387V67.2428ZM89.518 67.2634C89.518 67.4033 89.5468 67.5145 89.6003 67.5886C89.658 67.6627 89.7238 67.7039 89.8062 67.7039C89.8885 67.7039 89.9585 67.6668 90.012 67.5886C90.0655 67.5145 90.0943 67.4033 90.0943 67.2593C90.0943 67.1152 90.0655 67.0123 90.012 66.9382C89.9585 66.8641 89.8885 66.8229 89.8062 66.8229C89.7238 66.8229 89.6538 66.8599 89.6003 66.9382C89.5427 67.0123 89.518 67.1234 89.518 67.2634ZM91.7575 67.9756H91.4446V67.2469C91.4446 67.0946 91.4364 66.9917 91.424 66.9464C91.4117 66.9011 91.387 66.8641 91.3582 66.8394C91.3293 66.8147 91.2923 66.8023 91.247 66.8023C91.1935 66.8023 91.1441 66.8188 91.0988 66.8558C91.0535 66.8929 91.0247 66.9382 91.0082 66.9999C90.9918 67.0575 90.9835 67.1687 90.9835 67.3292V67.9756H90.6707V66.5471H90.963V66.757C91.0659 66.5965 91.1976 66.5182 91.3582 66.5182C91.4281 66.5182 91.4899 66.5347 91.5516 66.5635C91.6093 66.5923 91.6546 66.6335 91.6834 66.6788C91.7122 66.7241 91.7328 66.7776 91.7451 66.8394C91.7575 66.897 91.7616 66.9834 91.7616 67.0946V67.9797L91.7575 67.9756ZM92.7661 67.5227L93.0789 67.5845C93.0378 67.7244 92.976 67.8274 92.8896 67.9015C92.8031 67.9714 92.692 68.0085 92.5644 68.0085C92.3585 68.0085 92.2021 67.9262 92.1033 67.7656C92.0251 67.6339 91.9839 67.4692 91.9839 67.2716C91.9839 67.0328 92.0374 66.8476 92.1403 66.7159C92.2433 66.58 92.375 66.5141 92.5314 66.5141C92.7084 66.5141 92.8484 66.5841 92.9513 66.7241C93.0542 66.8641 93.1036 67.0781 93.0995 67.3704H92.3091C92.3091 67.4816 92.3379 67.568 92.3873 67.6339C92.4367 67.6956 92.4944 67.7286 92.5685 67.7286C92.6179 67.7286 92.659 67.7121 92.692 67.6792C92.7249 67.6462 92.7496 67.5968 92.7702 67.5227H92.7661ZM92.7825 67.1399C92.7825 67.0287 92.7578 66.9464 92.7126 66.8888C92.6673 66.8311 92.6137 66.8023 92.5479 66.8023C92.4779 66.8023 92.4244 66.8311 92.3791 66.8929C92.3338 66.9546 92.3132 67.037 92.3132 67.1399H92.7825ZM93.2395 67.5721L93.5565 67.5145C93.5688 67.5886 93.5976 67.6421 93.6388 67.6792C93.68 67.7162 93.7376 67.7368 93.8117 67.7368C93.8941 67.7368 93.9558 67.7203 93.997 67.6833C94.0258 67.6586 94.0381 67.6256 94.0381 67.5804C94.0381 67.5515 94.0299 67.5268 94.0176 67.5104C94.0011 67.4939 93.9681 67.4774 93.9105 67.461C93.6553 67.3951 93.4947 67.3334 93.4247 67.2757C93.3301 67.1975 93.2848 67.0905 93.2848 66.9546C93.2848 66.8311 93.3259 66.7282 93.4083 66.6418C93.4906 66.5553 93.6182 66.5141 93.787 66.5141C93.9558 66.5141 94.0711 66.5471 94.1493 66.6088C94.2275 66.6747 94.2851 66.7694 94.314 66.8929L94.0176 66.9587C94.0052 66.9011 93.9805 66.8599 93.9435 66.8311C93.9064 66.8023 93.857 66.7858 93.7911 66.7858C93.7088 66.7858 93.647 66.7982 93.61 66.827C93.5853 66.8476 93.5729 66.8723 93.5729 66.9052C93.5729 66.934 93.5853 66.9546 93.6059 66.9752C93.6347 66.9999 93.7335 67.037 93.9023 67.0822C94.0711 67.1275 94.1905 67.1852 94.2563 67.251C94.3222 67.3169 94.3551 67.4116 94.3551 67.531C94.3551 67.6627 94.3098 67.7738 94.2193 67.8685C94.1287 67.9632 93.9929 68.0085 93.8117 68.0085C93.6512 68.0085 93.5194 67.9673 93.4247 67.8891C93.3301 67.8109 93.2683 67.7039 93.2395 67.568V67.5721ZM94.6309 66.3536V66.0037H94.9438V66.3536H94.6309ZM94.6309 67.9756V66.5471H94.9438V67.9756H94.6309ZM95.5037 66.9876L95.2196 66.9258C95.2526 66.7858 95.3061 66.6829 95.3843 66.617C95.4625 66.5512 95.5778 66.5182 95.7342 66.5182C95.8742 66.5182 95.9812 66.5388 96.0471 66.5759C96.1171 66.617 96.1624 66.6665 96.1912 66.7282C96.22 66.79 96.2323 66.9011 96.2323 67.0658V67.5063C96.2282 67.6298 96.2323 67.7244 96.2447 67.7821C96.2529 67.8438 96.2735 67.9056 96.3023 67.9714H95.9895C95.9812 67.9467 95.973 67.9097 95.9606 67.8603C95.9565 67.8397 95.9524 67.8232 95.9483 67.815C95.8948 67.8768 95.8371 67.9262 95.7754 67.9591C95.7136 67.992 95.6478 68.0085 95.5778 68.0085C95.4543 68.0085 95.3596 67.9673 95.2896 67.8891C95.2196 67.8109 95.1826 67.708 95.1826 67.5886C95.1826 67.5063 95.199 67.4363 95.232 67.3745C95.2649 67.3128 95.3102 67.2634 95.3678 67.2304C95.4255 67.1975 95.5078 67.1687 95.6189 67.144C95.7672 67.1111 95.8701 67.0781 95.9236 67.0534V67.0164C95.9236 66.9423 95.9071 66.8888 95.8783 66.8599C95.8495 66.827 95.7919 66.8147 95.7095 66.8147C95.6519 66.8147 95.6107 66.827 95.5778 66.8558C95.5448 66.8805 95.5201 66.9299 95.4996 66.9958L95.5037 66.9876ZM95.9277 67.2922C95.8865 67.3087 95.8248 67.3292 95.7342 67.3498C95.6478 67.3704 95.5901 67.3951 95.5613 67.4157C95.5201 67.4527 95.4996 67.4939 95.4996 67.5474C95.4996 67.6009 95.516 67.6462 95.549 67.6833C95.5819 67.7203 95.6231 67.7409 95.6766 67.7409C95.7342 67.7409 95.7877 67.7203 95.8413 67.675C95.8783 67.6421 95.903 67.6009 95.9154 67.5515C95.9236 67.5186 95.9277 67.4569 95.9277 67.3663V67.2922Z" fill="#333333"/>
</g>
<rect x="1.5" y="1" width="110" height="110" rx="9" stroke="#CCCCCC" stroke-width="2"/>
<defs>
<clipPath id="clip0_642_1148">
<rect x="2.5" y="2" width="108" height="108" rx="8" fill="white"/>
</clipPath>
</defs>
</svg>
