<svg width="113" height="112" viewBox="0 0 113 112" fill="none" xmlns="http://www.w3.org/2000/svg">
<g clip-path="url(#clip0_428_507)">
<rect x="2.5" y="2" width="108" height="108" rx="8" fill="white"/>
<path fill-rule="evenodd" clip-rule="evenodd" d="M92.9099 62.54H95.8008V49.419H92.9099V62.54ZM81.5981 55.9002V51.3901C81.5981 51.3901 86.9087 50.3529 86.9087 53.5327C86.9087 56.7125 81.5981 55.9002 81.5981 55.9002ZM78.6236 49.6622L78.6106 62.54H81.5981V57.7768C81.5981 57.7768 90.0439 58.6782 90.0439 53.4046C90.0439 48.5252 81.7306 49.52 78.6236 49.6622ZM67.971 52.8605C67.9504 51.6963 69.4132 51.1696 70.913 51.2043C72.5518 51.2424 74.2405 51.9005 74.2405 51.9005L74.9442 50.0456C74.9442 50.0456 73.0112 49.0128 70.1496 49.3343C67.3498 49.6492 64.8336 51.0393 64.8358 52.8605C64.8358 53.6055 65.1713 55.0368 66.7232 55.8676C68.1155 56.6126 70.168 56.9601 71.4289 57.6324C72.201 58.045 72.6169 58.6988 72.5768 59.2896C72.4844 60.6558 70.5177 61.0826 68.6498 60.9305C66.9241 60.7904 65.2832 60.1215 65.2832 60.1215L64.6435 62.073C64.6435 62.073 67.1435 62.9907 69.8574 62.8723C72.6148 62.7528 75.5871 61.58 75.6794 59.2255C75.863 54.5536 68.0134 55.2964 67.97 52.8594L67.971 52.8605ZM53.0961 57.0828L55.2714 51.5486L57.4151 57.0828H53.0961ZM53.4893 49.419L48.0734 62.54H51.2619L52.6758 58.9605H57.9332L59.4156 62.54L62.8223 62.5541L57.2566 49.419H53.4893Z" fill="#EC202B"/>
<path fill-rule="evenodd" clip-rule="evenodd" d="M96.0549 66.3388C96.0549 66.4843 96.0452 66.5842 96.0256 66.6396C96.0071 66.695 95.9724 66.7428 95.9224 66.783C95.8725 66.8232 95.8225 66.8438 95.7715 66.8438C95.715 66.8438 95.6672 66.8188 95.6292 66.7699C95.5912 66.72 95.5727 66.6581 95.5727 66.5853C95.5727 66.5202 95.5901 66.468 95.6238 66.4268C95.6585 66.3855 95.7313 66.3486 95.841 66.3149C95.9377 66.2867 96.0082 66.2606 96.0538 66.2389V66.3399L96.0549 66.3388ZM96.4198 66.8948C96.409 66.8134 96.4025 66.6907 96.4025 66.5256L96.4057 65.937C96.4057 65.7144 96.3883 65.5612 96.3547 65.4765C96.321 65.3918 96.2634 65.3256 96.1842 65.2767C96.1038 65.2278 95.9887 65.2029 95.8377 65.2029C95.6683 65.2029 95.538 65.2452 95.4468 65.3288C95.3566 65.4135 95.2915 65.5515 95.2524 65.7437L95.5771 65.8262C95.5999 65.7339 95.6292 65.6709 95.6661 65.6383C95.7031 65.6047 95.7541 65.5884 95.8182 65.5884C95.8823 65.5884 95.93 65.5992 95.9648 65.6199C95.9995 65.6405 96.0234 65.6687 96.0365 65.7013C96.0495 65.7339 96.056 65.8034 96.056 65.9098C95.9909 65.9478 95.8757 65.9891 95.7096 66.0336C95.5728 66.0706 95.4739 66.114 95.4109 66.1607C95.349 66.2085 95.3002 66.2726 95.2665 66.3529C95.2328 66.4333 95.2155 66.5267 95.2155 66.6342C95.2155 66.8047 95.2578 66.9404 95.3414 67.0436C95.425 67.1457 95.5337 67.1967 95.6651 67.1967C95.7443 67.1967 95.8182 67.1761 95.8877 67.1327C95.9572 67.0903 96.0234 67.0273 96.0843 66.9426L96.131 67.1511H96.485C96.4535 67.0599 96.4329 66.9741 96.4209 66.8937L96.4198 66.8948ZM94.5834 67.1522H94.9429V65.2474H94.5834V67.1522ZM94.5834 64.9889H94.9429V64.5219H94.5834V64.9889ZM93.758 65.9576C93.5799 65.899 93.4735 65.8555 93.4398 65.8273C93.4051 65.8001 93.3888 65.7654 93.3888 65.723C93.3888 65.6763 93.4073 65.6383 93.4453 65.609C93.4822 65.5797 93.5452 65.5645 93.6332 65.5645C93.7732 65.5645 93.858 65.6405 93.8873 65.7936L94.225 65.7057C94.1881 65.5287 94.1229 65.4005 94.0306 65.3212C93.9383 65.2419 93.8047 65.2018 93.6266 65.2018C93.4485 65.2018 93.2998 65.255 93.2031 65.3614C93.1054 65.4678 93.0565 65.6101 93.0565 65.7871C93.0565 65.9641 93.1065 66.1042 93.2053 66.2063C93.2846 66.2878 93.4713 66.3736 93.7656 66.4637C93.8232 66.4822 93.8623 66.5028 93.8819 66.5267C93.9003 66.5506 93.9101 66.5832 93.9101 66.6255C93.9101 66.6863 93.8884 66.7363 93.846 66.7743C93.8037 66.8123 93.7396 66.8318 93.6538 66.8318C93.492 66.8318 93.3964 66.7319 93.3649 66.5321L93.0065 66.6092C93.0413 66.8004 93.1151 66.9459 93.2259 67.0458C93.3367 67.1457 93.48 67.1957 93.6549 67.1957C93.8471 67.1957 93.998 67.1359 94.1077 67.0165C94.2163 66.897 94.2717 66.745 94.2717 66.5603C94.2717 66.4072 94.237 66.2845 94.1664 66.1922C94.0947 66.0999 93.959 66.0217 93.7591 65.9554L93.758 65.9576ZM91.9499 66.0369C91.9499 65.8957 91.9748 65.7849 92.0281 65.7057C92.0802 65.6275 92.1432 65.5884 92.2192 65.5884C92.2909 65.5884 92.3528 65.6264 92.4038 65.7002C92.4559 65.7752 92.4831 65.887 92.4863 66.0358H91.9499V66.0369ZM92.1975 65.2029C92.0237 65.2029 91.8814 65.2843 91.7718 65.445C91.6425 65.6362 91.5774 65.8914 91.5774 66.2107C91.5774 66.5299 91.6414 66.7862 91.7707 66.9654C91.8793 67.1207 92.0346 67.1978 92.2344 67.1978C92.3777 67.1978 92.5005 67.1511 92.6015 67.0588C92.7025 66.9665 92.7763 66.8242 92.8241 66.6331L92.469 66.5484C92.4299 66.7308 92.3538 66.821 92.2387 66.821C92.1584 66.821 92.09 66.7797 92.0335 66.6972C91.977 66.6146 91.9477 66.4974 91.9455 66.3464H92.8415V66.2888C92.8426 65.9196 92.7796 65.6405 92.6536 65.4515C92.5439 65.2865 92.3919 65.2039 92.1986 65.2039L92.1975 65.2029ZM91.1278 65.2973C91.0561 65.2343 90.967 65.2029 90.8628 65.2029C90.7726 65.2029 90.6901 65.23 90.6163 65.2832C90.5424 65.3375 90.4751 65.4179 90.4164 65.5254V65.2474H90.0841V67.1522H90.4425V66.2888C90.4425 66.0695 90.4523 65.9207 90.4718 65.8414C90.4914 65.7621 90.5261 65.7002 90.5739 65.6557C90.6228 65.6112 90.6771 65.5884 90.7368 65.5884C90.7835 65.5884 90.8248 65.6058 90.8617 65.6405C90.8986 65.6753 90.9236 65.7252 90.9377 65.7893C90.9507 65.8534 90.9573 65.9837 90.9573 66.1792V67.1533H91.3167V65.9685C91.3167 65.7817 91.3026 65.6383 91.2755 65.5395C91.2483 65.4407 91.1983 65.3603 91.1267 65.2973H91.1278ZM89.3435 66.6375C89.2794 66.7363 89.2023 66.7862 89.1111 66.7862C89.0198 66.7862 88.9406 66.7374 88.8743 66.6385C88.8092 66.5397 88.7766 66.3931 88.7766 66.1998C88.7766 66.0065 88.8092 65.8621 88.8743 65.7621C88.9395 65.6633 89.0166 65.6123 89.1067 65.6123C89.1969 65.6123 89.2772 65.6622 89.3413 65.7621C89.4075 65.8621 89.4401 66.0065 89.4401 66.1955C89.4401 66.3844 89.4075 66.5375 89.3435 66.6364V66.6375ZM89.1078 65.2029C88.9786 65.2029 88.8624 65.2409 88.7581 65.318C88.6549 65.3951 88.5713 65.5102 88.5062 65.6633C88.4421 65.8164 88.4095 65.9869 88.4095 66.1737C88.4095 66.5017 88.4758 66.7547 88.6082 66.9318C88.7407 67.1088 88.9069 67.1978 89.1089 67.1978C89.2338 67.1978 89.3489 67.1576 89.4542 67.0784C89.5596 66.9991 89.6443 66.8796 89.7084 66.7211C89.7735 66.5625 89.8061 66.3855 89.8061 66.1889C89.8061 65.925 89.7442 65.6948 89.6193 65.4982C89.4955 65.3006 89.3239 65.2029 89.1067 65.2029H89.1078ZM87.696 66.6516C87.6374 66.7504 87.57 66.7993 87.4908 66.7993C87.4321 66.7993 87.3789 66.7775 87.3322 66.7352C87.2855 66.6928 87.2486 66.6288 87.2236 66.5451C87.1986 66.4604 87.1856 66.3323 87.1856 66.1596C87.1856 65.9696 87.2149 65.8262 87.2725 65.7317C87.3311 65.6372 87.4006 65.5895 87.4832 65.5895C87.5657 65.5895 87.6417 65.6373 87.6982 65.7339C87.7547 65.8306 87.7829 65.988 87.7829 66.2085C87.7829 66.4061 87.7536 66.5549 87.696 66.6527V66.6516ZM87.7807 65.4678C87.7264 65.3788 87.6656 65.3125 87.6004 65.268C87.5353 65.2235 87.4647 65.2018 87.3887 65.2018C87.2279 65.2018 87.0933 65.2843 86.9836 65.4505C86.8739 65.6166 86.8185 65.862 86.8185 66.1878C86.8185 66.5136 86.875 66.7602 86.9879 66.935C87.0998 67.1088 87.2323 67.1967 87.3832 67.1967C87.4614 67.1967 87.5385 67.1696 87.6124 67.1153C87.6873 67.061 87.7514 66.9795 87.8068 66.872V67.1522H88.1391V64.5219H87.7807V65.4678ZM86.3461 65.2962C86.2744 65.2333 86.1865 65.2018 86.0811 65.2018C85.991 65.2018 85.9085 65.2289 85.8346 65.2821C85.7608 65.3364 85.6934 65.4168 85.6348 65.5243V65.2463H85.3025V67.1511H85.6619V66.2878C85.6619 66.0684 85.6717 65.9196 85.6913 65.8403C85.7108 65.7611 85.7456 65.6992 85.7944 65.6546C85.8422 65.6101 85.8976 65.5873 85.9573 65.5873C86.004 65.5873 86.0453 65.6047 86.0822 65.6394C86.1191 65.6742 86.1441 65.7241 86.1572 65.7882C86.1713 65.8523 86.1778 65.9826 86.1778 66.1781V67.1522H86.5362V65.9674C86.5362 65.7806 86.5231 65.6372 86.4949 65.5384C86.4677 65.4396 86.4178 65.3592 86.345 65.2962H86.3461ZM84.5716 67.1522H84.9473V64.523H84.5716V67.1522ZM83.301 65.2962C83.2293 65.2333 83.1403 65.2018 83.036 65.2018C82.9459 65.2018 82.8633 65.2289 82.7895 65.2821C82.7156 65.3364 82.6483 65.4168 82.5897 65.5243V65.2463H82.2573V67.1511H82.6157V66.2878C82.6157 66.0684 82.6255 65.9196 82.645 65.8403C82.6646 65.7611 82.6993 65.6992 82.7471 65.6546C82.796 65.6101 82.8503 65.5873 82.91 65.5873C82.9567 65.5873 82.998 65.6047 83.0349 65.6394C83.0718 65.6742 83.0968 65.7241 83.1098 65.7882C83.1229 65.8523 83.1305 65.9826 83.1305 66.1781V67.1522H83.4889V65.9674C83.4889 65.7806 83.4747 65.6372 83.4476 65.5384C83.4204 65.4396 83.3705 65.3592 83.2977 65.2962H83.301ZM81.5558 66.3377C81.5558 66.4832 81.546 66.5832 81.5265 66.6385C81.508 66.6939 81.4733 66.7417 81.4233 66.7819C81.3733 66.8221 81.3234 66.8427 81.2723 66.8427C81.2159 66.8427 81.1681 66.8177 81.1301 66.7689C81.0921 66.7189 81.0736 66.657 81.0736 66.5842C81.0736 66.5191 81.091 66.467 81.1246 66.4257C81.1594 66.3844 81.2311 66.3475 81.3418 66.3138C81.4385 66.2856 81.5091 66.2595 81.5547 66.2378V66.3388L81.5558 66.3377ZM81.9044 66.5256L81.9076 65.937C81.9076 65.7144 81.8903 65.5612 81.8566 65.4765C81.8219 65.3918 81.7654 65.3256 81.6861 65.2767C81.6068 65.2278 81.4906 65.2029 81.3397 65.2029C81.1692 65.2029 81.0388 65.2452 80.9487 65.3288C80.8575 65.4135 80.7934 65.5515 80.7532 65.7437L81.0779 65.8262C81.1007 65.7339 81.1301 65.6709 81.167 65.6383C81.2039 65.6047 81.2539 65.5884 81.3179 65.5884C81.382 65.5884 81.4298 65.5992 81.4646 65.6199C81.4993 65.6405 81.5232 65.6687 81.5362 65.7013C81.5493 65.7339 81.5558 65.8034 81.5558 65.9098C81.4906 65.9478 81.3755 65.9891 81.2093 66.0336C81.0725 66.0706 80.9726 66.114 80.9107 66.1607C80.8488 66.2085 80.7999 66.2726 80.7663 66.3529C80.7326 66.4333 80.7152 66.5267 80.7152 66.6342C80.7152 66.8047 80.7576 66.9404 80.8412 67.0436C80.9248 67.1457 81.0323 67.1967 81.1637 67.1967C81.243 67.1967 81.3169 67.1761 81.3864 67.1327C81.4559 67.0903 81.5221 67.0273 81.5829 66.9426L81.6296 67.1511H81.9837C81.9522 67.0599 81.9315 66.9741 81.9196 66.8937C81.9087 66.8123 81.9022 66.6896 81.9022 66.5245L81.9044 66.5256ZM80.2656 65.2658C80.2211 65.3071 80.17 65.3918 80.1125 65.5189V65.2485H79.7802V67.1533H80.1386V66.5636C80.1386 66.266 80.1462 66.0608 80.1635 65.95C80.1798 65.8382 80.207 65.7611 80.245 65.7198C80.283 65.6774 80.3264 65.6557 80.3764 65.6557C80.4296 65.6557 80.485 65.6829 80.5447 65.7382L80.6566 65.2984C80.5816 65.2343 80.5034 65.2039 80.422 65.2039C80.3634 65.2039 80.3112 65.2246 80.2656 65.2669V65.2658ZM79.0906 66.3388C79.0906 66.4843 79.0808 66.5842 79.0612 66.6396C79.0417 66.695 79.008 66.7428 78.9581 66.783C78.9081 66.8232 78.8582 66.8438 78.8071 66.8438C78.7496 66.8438 78.7029 66.8188 78.6649 66.7699C78.6268 66.72 78.6084 66.6581 78.6084 66.5853C78.6084 66.5202 78.6258 66.468 78.6594 66.4268C78.6931 66.3855 78.7659 66.3486 78.8766 66.3149C78.9733 66.2867 79.0439 66.2606 79.0895 66.2389V66.3399L79.0906 66.3388ZM79.4381 66.5267L79.4413 65.9381C79.4413 65.7154 79.424 65.5623 79.3903 65.4776C79.3555 65.3929 79.2991 65.3267 79.2187 65.2778C79.1394 65.2289 79.0232 65.2039 78.8723 65.2039C78.7029 65.2039 78.5725 65.2463 78.4813 65.3299C78.3912 65.4146 78.326 65.5525 78.2869 65.7448L78.6116 65.8273C78.6344 65.735 78.6638 65.672 78.7007 65.6394C78.7376 65.6058 78.7876 65.5895 78.8517 65.5895C78.9157 65.5895 78.9635 65.6003 78.9983 65.621C79.033 65.6416 79.0569 65.6698 79.0699 65.7024C79.083 65.735 79.0895 65.8045 79.0895 65.9109C79.0243 65.9489 78.9092 65.9902 78.743 66.0347C78.6062 66.0716 78.5074 66.1151 78.4444 66.1618C78.3825 66.2096 78.3336 66.2736 78.3 66.354C78.2652 66.4344 78.2489 66.5278 78.2489 66.6353C78.2489 66.8058 78.2913 66.9415 78.3749 67.0447C78.4585 67.1468 78.566 67.1978 78.6974 67.1978C78.7767 67.1978 78.8506 67.1772 78.9201 67.1338C78.9907 67.0914 79.0558 67.0284 79.1166 66.9437L79.1633 67.1522H79.5174C79.4859 67.061 79.4652 66.9752 79.4533 66.8948C79.4424 66.8134 79.4359 66.6907 79.4359 66.5256L79.4381 66.5267ZM77.4268 66.6016L77.1043 65.2485H76.722L77.2368 67.1598C77.2085 67.2977 77.1727 67.3933 77.1282 67.4465C77.0836 67.4986 77.0272 67.5247 76.9598 67.5247C76.9153 67.5247 76.8643 67.5171 76.8089 67.5008L76.8393 67.895C76.9055 67.9157 76.974 67.9254 77.0435 67.9254C77.1336 67.9254 77.2096 67.9081 77.2715 67.8755C77.3334 67.8418 77.3845 67.794 77.4236 67.7321C77.4637 67.6702 77.5039 67.5714 77.5441 67.4378L77.6364 67.0805L78.1132 65.2474H77.7418L77.4257 66.6005L77.4268 66.6016ZM76.1877 66.3399C76.1877 66.4854 76.1779 66.5853 76.1584 66.6407C76.1388 66.6961 76.1052 66.7439 76.0552 66.7841C76.0052 66.8242 75.9553 66.8449 75.9043 66.8449C75.8467 66.8449 75.8 66.8199 75.762 66.771C75.724 66.7211 75.7055 66.6592 75.7055 66.5864C75.7055 66.5212 75.7229 66.4691 75.7566 66.4279C75.7902 66.3866 75.863 66.3497 75.9738 66.316C76.0704 66.2878 76.141 66.2617 76.1866 66.24V66.341L76.1877 66.3399ZM76.5352 66.5278L76.5385 65.9392C76.5385 65.7165 76.5211 65.5634 76.4874 65.4787C76.4527 65.394 76.3962 65.3277 76.3169 65.2789C76.2366 65.23 76.1214 65.205 75.9705 65.205C75.8011 65.205 75.6708 65.2474 75.5795 65.331C75.4894 65.4157 75.4242 65.5536 75.3851 65.7458L75.7099 65.8284C75.7327 65.7361 75.762 65.6731 75.7989 65.6405C75.8358 65.6068 75.8858 65.5906 75.9509 65.5906C76.0161 65.5906 76.0628 65.6014 76.0976 65.622C76.1323 65.6427 76.1562 65.6709 76.1692 65.7035C76.1823 65.7361 76.1888 65.8056 76.1888 65.912C76.1236 65.95 76.0085 65.9913 75.8424 66.0358C75.7055 66.0727 75.6067 66.1162 75.5437 66.1629C75.4818 66.2107 75.4329 66.2747 75.3993 66.3551C75.3645 66.4355 75.3482 66.5289 75.3482 66.6364C75.3482 66.8069 75.3906 66.9426 75.4742 67.0458C75.5578 67.1479 75.6664 67.1989 75.7978 67.1989C75.8771 67.1989 75.951 67.1783 76.0205 67.1348C76.09 67.0925 76.1562 67.0295 76.217 66.9448L76.2637 67.1533H76.6178C76.5863 67.0621 76.5656 66.9763 76.5537 66.8959C76.5428 66.8145 76.5363 66.6918 76.5363 66.5267L76.5352 66.5278ZM74.701 66.6581C74.6445 66.7537 74.5772 66.8014 74.499 66.8014C74.4436 66.8014 74.3915 66.7786 74.3426 66.7341C74.2926 66.6896 74.2546 66.6233 74.2275 66.5375C74.2003 66.4507 74.1862 66.3258 74.1862 66.1618C74.1862 65.9685 74.2155 65.8251 74.2742 65.7317C74.3317 65.6383 74.4023 65.5916 74.4849 65.5916C74.5717 65.5916 74.6445 65.6394 74.701 65.7361C74.7574 65.8327 74.7857 65.9902 74.7857 66.2063C74.7857 66.4224 74.7574 66.5636 74.702 66.6592L74.701 66.6581ZM74.5826 65.205C74.5066 65.205 74.436 65.2267 74.3708 65.2713C74.3046 65.3158 74.2448 65.382 74.1905 65.4711V64.5252H73.8322V67.1555H74.1645V66.8753C74.2177 66.9806 74.2818 67.061 74.3567 67.1164C74.4327 67.1718 74.5087 67.2 74.5858 67.2C74.7379 67.2 74.8704 67.112 74.9833 66.9383C75.0963 66.7645 75.1527 66.5147 75.1527 66.1911C75.1527 65.8675 75.0974 65.621 74.9877 65.4548C74.8769 65.2876 74.7433 65.205 74.5837 65.205H74.5826ZM73.287 65.281C73.2197 65.23 73.1404 65.205 73.0481 65.205C72.9699 65.205 72.8971 65.23 72.8287 65.28C72.7603 65.3299 72.6951 65.4059 72.6354 65.508C72.5952 65.407 72.5431 65.331 72.479 65.28C72.4149 65.23 72.34 65.205 72.2531 65.205C72.1717 65.205 72.0957 65.23 72.0251 65.281C71.9545 65.331 71.8904 65.4081 71.8307 65.5091V65.2495H71.5016V67.1544H71.86V66.228C71.86 66.0412 71.8698 65.9087 71.8893 65.8306C71.9089 65.7524 71.9414 65.6926 71.986 65.6525C72.0305 65.6112 72.0783 65.5916 72.1315 65.5916C72.2097 65.5916 72.2629 65.6307 72.289 65.71C72.3085 65.7697 72.3183 65.9033 72.3183 66.1107V67.1555H72.6767V66.24C72.6767 65.9837 72.7016 65.8121 72.7494 65.7241C72.7983 65.6362 72.8624 65.5927 72.9416 65.5927C73.0101 65.5927 73.0589 65.6242 73.0883 65.6872C73.1176 65.7502 73.1317 65.8773 73.1317 66.0673V67.1576H73.4901V65.9381C73.4901 65.7426 73.4727 65.5971 73.438 65.5015C73.4032 65.407 73.3522 65.3343 73.2859 65.2832L73.287 65.281ZM70.3472 66.0391C70.3472 65.8979 70.3722 65.7871 70.4254 65.7078C70.4775 65.6296 70.5405 65.5906 70.6165 65.5906C70.6882 65.5906 70.7501 65.6286 70.8012 65.7024C70.8533 65.7773 70.8804 65.8892 70.8837 66.038H70.3472V66.0391ZM70.5948 65.205C70.421 65.205 70.2788 65.2865 70.1691 65.4472C70.0399 65.6383 69.9758 65.8935 69.9758 66.2128C69.9758 66.5321 70.0399 66.7884 70.168 66.9676C70.2766 67.1229 70.4319 67.2 70.6317 67.2C70.7762 67.2 70.8978 67.1533 70.9988 67.061C71.0998 66.9687 71.1736 66.8264 71.2214 66.6353L70.8663 66.5506C70.8272 66.733 70.7512 66.8232 70.6361 66.8232C70.5568 66.8232 70.4884 66.7819 70.4308 66.6994C70.3744 66.6168 70.345 66.4995 70.3429 66.3486H71.2388L71.241 66.291C71.241 65.9218 71.178 65.6427 71.0509 65.4537C70.9412 65.2886 70.7892 65.2061 70.5959 65.2061L70.5948 65.205ZM69.3351 65.5601C69.3025 65.6199 69.2612 65.6611 69.2113 65.6839C69.1613 65.7068 69.0657 65.7176 68.9256 65.7176H68.7171V64.9694H68.9007C69.0581 64.9694 69.1613 64.9791 69.2102 64.9998C69.259 65.0204 69.3003 65.0606 69.3329 65.1203C69.3665 65.18 69.3828 65.2539 69.3828 65.3419C69.3828 65.4298 69.3665 65.5004 69.334 65.5601H69.3351ZM69.3894 64.5621C69.3199 64.5371 69.1722 64.5241 68.9474 64.5241H68.3414V67.1544H68.7171V66.1629H68.9636C69.1917 66.1629 69.3513 66.1368 69.4447 66.0847C69.5381 66.0326 69.6163 65.9424 69.6782 65.8132C69.7401 65.685 69.7716 65.5254 69.7716 65.3353C69.7716 65.1257 69.7358 64.9552 69.6641 64.8228C69.5924 64.6903 69.5001 64.6034 69.3894 64.5632V64.5621ZM67.0523 65.281C66.986 65.23 66.9057 65.205 66.8134 65.205C66.7352 65.205 66.6624 65.23 66.594 65.28C66.5256 65.3299 66.4604 65.4059 66.4007 65.508C66.3605 65.407 66.3084 65.331 66.2443 65.28C66.1802 65.23 66.1053 65.205 66.0184 65.205C65.937 65.205 65.8609 65.23 65.7904 65.281C65.7198 65.331 65.6546 65.4081 65.596 65.5091V65.2495H65.2669V67.1544H65.6253V66.228C65.6253 66.0412 65.6351 65.9087 65.6546 65.8306C65.6742 65.7524 65.7067 65.6926 65.7513 65.6525C65.7958 65.6112 65.8447 65.5916 65.8979 65.5916C65.9761 65.5916 66.0282 65.6307 66.0543 65.71C66.0738 65.7697 66.0836 65.9033 66.0836 66.1107V67.1555H66.442V66.24C66.442 65.9837 66.4658 65.8121 66.5147 65.7241C66.5636 65.6362 66.6277 65.5927 66.7069 65.5927C66.7754 65.5927 66.8242 65.6242 66.8525 65.6872C66.8818 65.7502 66.8959 65.8773 66.8959 66.0673V67.1576H67.2543V65.9381C67.2543 65.7426 67.2369 65.5971 67.2022 65.5015C67.1674 65.407 67.1164 65.3343 67.0501 65.2832L67.0523 65.281ZM64.1125 66.0391C64.1125 65.8979 64.1375 65.7871 64.1896 65.7078C64.2417 65.6296 64.3058 65.5906 64.3807 65.5906C64.4524 65.5906 64.5132 65.6286 64.5654 65.7024C64.6164 65.7773 64.6446 65.8892 64.6468 66.038H64.1114L64.1125 66.0391ZM64.359 65.205C64.1853 65.205 64.043 65.2865 63.9333 65.4472C63.8041 65.6383 63.7389 65.8935 63.7389 66.2128C63.7389 66.5321 63.803 66.7884 63.9322 66.9676C64.0408 67.1229 64.1961 67.2 64.3959 67.2C64.5393 67.2 64.662 67.1533 64.763 67.061C64.864 66.9687 64.9379 66.8264 64.9856 66.6353L64.6305 66.5506C64.5914 66.733 64.5154 66.8232 64.4003 66.8232C64.3199 66.8232 64.2515 66.7819 64.195 66.6994C64.1386 66.6168 64.1092 66.4995 64.1071 66.3486H65.003L65.0052 66.291C65.0052 65.9218 64.9422 65.6427 64.8151 65.4537C64.7054 65.2886 64.5534 65.2061 64.3601 65.2061L64.359 65.205ZM63.4489 66.7819C63.4044 66.7819 63.3751 66.758 63.3599 66.7102C63.3523 66.6842 63.349 66.5875 63.349 66.4213V65.6525H63.5934V65.2506H63.349V64.5784L62.9907 64.8727V65.2517H62.8256V65.6535H62.9907V66.4854C62.9907 66.6983 62.9983 66.8394 63.0124 66.909C63.0308 67.0034 63.0678 67.0751 63.1231 67.1262C63.1774 67.1772 63.2513 67.2022 63.3414 67.2022C63.4457 67.2022 63.5391 67.1772 63.6227 67.1262L63.5923 66.7352C63.5304 66.7678 63.4826 66.7841 63.4489 66.7841V66.7819ZM62.1501 65.9598C61.972 65.9011 61.8656 65.8577 61.8319 65.8295C61.7971 65.8023 61.7809 65.7676 61.7809 65.7252C61.7809 65.6785 61.7993 65.6405 61.8373 65.6112C61.8742 65.5819 61.9372 65.5667 62.0252 65.5667C62.1653 65.5667 62.25 65.6427 62.2793 65.7958L62.6171 65.7078C62.5802 65.5308 62.515 65.4027 62.4227 65.3234C62.3304 65.2441 62.1957 65.2039 62.0187 65.2039C61.8417 65.2039 61.6918 65.2572 61.5941 65.3636C61.4974 65.47 61.4485 65.6123 61.4485 65.7893C61.4485 65.9663 61.4985 66.1064 61.5984 66.2085C61.6777 66.2899 61.8645 66.3757 62.1588 66.4659C62.2163 66.4843 62.2554 66.505 62.275 66.5289C62.2934 66.5527 62.3032 66.5853 62.3032 66.6277C62.3032 66.6885 62.2826 66.7385 62.2391 66.7765C62.1968 66.8145 62.1327 66.834 62.0469 66.834C61.8851 66.834 61.7885 66.7341 61.758 66.5343L61.3997 66.6114C61.4344 66.8025 61.5083 66.948 61.618 67.048C61.7287 67.1479 61.8721 67.1978 62.0469 67.1978C62.2391 67.1978 62.3912 67.1381 62.4998 67.0186C62.6095 66.8992 62.6638 66.7471 62.6638 66.5625C62.6638 66.4094 62.629 66.2867 62.5573 66.1944C62.4857 66.1021 62.3499 66.0239 62.1501 65.9576V65.9598ZM60.7991 64.9911H61.1575V64.5241H60.7991V64.9911ZM60.7991 67.1544H61.1575V65.2495H60.7991V67.1544ZM60.2235 65.7176C60.1388 65.647 60.002 65.5808 59.813 65.5178C59.6338 65.4591 59.5198 65.4048 59.4699 65.356C59.4199 65.3071 59.3949 65.2474 59.3949 65.1757C59.3949 65.104 59.4221 65.0421 59.4775 64.9933C59.5328 64.9444 59.611 64.9194 59.712 64.9194C59.813 64.9194 59.8923 64.9476 59.9466 65.0041C60.002 65.0606 60.0378 65.1594 60.0541 65.3006L60.432 65.2767C60.4244 65.0215 60.3593 64.8238 60.2366 64.687C60.1138 64.5491 59.9423 64.4807 59.7229 64.4807C59.5774 64.4807 59.4546 64.51 59.3547 64.5686C59.2559 64.6273 59.1777 64.7131 59.1212 64.8282C59.0648 64.9433 59.0365 65.0725 59.0365 65.2159C59.0365 65.3386 59.0583 65.4537 59.1028 65.5601C59.1473 65.6677 59.206 65.7535 59.2809 65.8197C59.3547 65.8859 59.4731 65.9457 59.6338 66.0021C59.813 66.0651 59.926 66.1107 59.9727 66.1379C60.0194 66.165 60.0541 66.1987 60.0769 66.2411C60.0997 66.2834 60.1106 66.3334 60.1106 66.3931C60.1106 66.4952 60.078 66.5799 60.0129 66.6494C59.9477 66.7178 59.8576 66.7526 59.7446 66.7526C59.5144 66.7526 59.3786 66.5842 59.3374 66.2487L58.9692 66.2986C59.0213 66.9003 59.2755 67.2011 59.7337 67.2011C59.9933 67.2011 60.1833 67.1229 60.305 66.9676C60.4266 66.8123 60.4874 66.6201 60.4874 66.392C60.4874 66.2345 60.4657 66.0999 60.4212 65.9891C60.3767 65.8783 60.3126 65.7882 60.2279 65.7187L60.2235 65.7176ZM57.6085 64.9922H57.9679V64.5252H57.6085V64.9922ZM57.6085 67.1555H57.9679V65.2506H57.6085V67.1555ZM56.7831 65.9609C56.605 65.9022 56.4996 65.8588 56.4649 65.8306C56.4312 65.8034 56.4139 65.7687 56.4139 65.7263C56.4139 65.6796 56.4323 65.6416 56.4703 65.6123C56.5072 65.583 56.5702 65.5677 56.6582 65.5677C56.7983 65.5677 56.883 65.6438 56.9134 65.7969L57.2501 65.7089C57.2132 65.5319 57.148 65.4038 57.0557 65.3245C56.9634 65.2452 56.8287 65.205 56.6517 65.205C56.4747 65.205 56.3248 65.2582 56.2271 65.3647C56.1304 65.4711 56.0815 65.6134 56.0815 65.7904C56.0815 65.9674 56.1315 66.1075 56.2303 66.2096C56.3096 66.291 56.4964 66.3768 56.7907 66.467C56.8493 66.4854 56.8873 66.506 56.908 66.5299C56.9264 66.5538 56.9362 66.5864 56.9362 66.6288C56.9362 66.6896 56.9145 66.7395 56.8721 66.7775C56.8298 66.8156 56.7657 66.8351 56.6799 66.8351C56.5181 66.8351 56.4215 66.7352 56.39 66.5354L56.0316 66.6125C56.0663 66.8036 56.1402 66.9491 56.2499 67.049C56.3606 67.149 56.504 67.1989 56.6788 67.1989C56.8711 67.1989 57.022 67.1392 57.1317 67.0197C57.2414 66.9003 57.2957 66.7482 57.2957 66.5636C57.2957 66.4105 57.2609 66.2878 57.1903 66.1955C57.1187 66.1031 56.9829 66.025 56.7831 65.9587V65.9609ZM55.4527 66.341C55.4527 66.4865 55.443 66.5864 55.4234 66.6418C55.4039 66.6972 55.3702 66.745 55.3203 66.7851C55.2703 66.8253 55.2203 66.846 55.1693 66.846C55.1128 66.846 55.065 66.821 55.027 66.7721C54.989 66.7222 54.9706 66.6603 54.9706 66.5875C54.9706 66.5223 54.9879 66.4702 55.0216 66.4289C55.0564 66.3877 55.128 66.3507 55.2388 66.3171C55.3355 66.2888 55.4061 66.2628 55.4517 66.2411V66.3421L55.4527 66.341ZM55.8003 66.5289L55.8035 65.9402C55.8035 65.7176 55.7861 65.5645 55.7525 65.4798C55.7177 65.3951 55.6613 65.3288 55.582 65.28C55.5027 65.2311 55.3865 65.2061 55.2355 65.2061C55.0661 65.2061 54.9358 65.2485 54.8446 65.3321C54.7545 65.4168 54.6893 65.5547 54.6502 65.7469L54.9749 65.8295C54.9977 65.7372 55.027 65.6742 55.065 65.6416C55.102 65.6079 55.1519 65.5916 55.216 65.5916C55.2801 65.5916 55.3279 65.6025 55.3626 65.6231C55.3974 65.6438 55.4213 65.672 55.4343 65.7046C55.4473 65.7372 55.4538 65.8067 55.4538 65.9131C55.3887 65.9511 55.2736 65.9924 55.1074 66.0369C54.9706 66.0738 54.8717 66.1173 54.8088 66.164C54.7468 66.2117 54.698 66.2758 54.6643 66.3562C54.6306 66.4365 54.6133 66.5299 54.6133 66.6375C54.6133 66.808 54.6556 66.9437 54.7392 67.0469C54.8229 67.149 54.9304 67.2 55.0629 67.2C55.1422 67.2 55.216 67.1794 55.2855 67.1359C55.3561 67.0936 55.4213 67.0306 55.4821 66.9459L55.5288 67.1544H55.8828C55.8513 67.0632 55.8307 66.9774 55.8187 66.897C55.8079 66.8156 55.8014 66.6928 55.8014 66.5278L55.8003 66.5289ZM53.9812 64.9922H54.3407V64.5252H53.9812V64.9922ZM53.9812 67.1555H54.3407V65.2506H53.9812V67.1555ZM53.1559 65.9609C52.9778 65.9022 52.8713 65.8588 52.8377 65.8306C52.8029 65.8034 52.7866 65.7687 52.7866 65.7263C52.7866 65.6796 52.8051 65.6416 52.8431 65.6123C52.88 65.583 52.943 65.5677 53.031 65.5677C53.1711 65.5677 53.2558 65.6438 53.2851 65.7969L53.6228 65.7089C53.5859 65.5319 53.5208 65.4038 53.4285 65.3245C53.3361 65.2452 53.2015 65.205 53.0255 65.205C52.8398 65.205 52.6987 65.2582 52.6009 65.3647C52.5032 65.4711 52.4543 65.6134 52.4543 65.7904C52.4543 65.9674 52.5043 66.1075 52.6042 66.2096C52.6835 66.291 52.8702 66.3768 53.1646 66.467C53.2232 66.4854 53.2612 66.506 53.2818 66.5299C53.3003 66.5538 53.309 66.5864 53.309 66.6288C53.309 66.6896 53.2884 66.7395 53.2449 66.7775C53.2026 66.8156 53.1385 66.8351 53.0527 66.8351C52.892 66.8351 52.7953 66.7352 52.7638 66.5354L52.4044 66.6125C52.4402 66.8036 52.513 66.9491 52.6237 67.049C52.7345 67.149 52.8778 67.1989 53.0527 67.1989C53.2449 67.1989 53.3959 67.1392 53.5056 67.0197C53.6142 66.9003 53.6695 66.7482 53.6695 66.5636C53.6695 66.4105 53.6348 66.2878 53.5642 66.1955C53.4925 66.1031 53.3568 66.025 53.157 65.9587L53.1559 65.9609ZM51.7853 66.6407C51.7213 66.7395 51.6431 66.7895 51.554 66.7895C51.465 66.7895 51.3824 66.7406 51.3173 66.6418C51.251 66.543 51.2184 66.3964 51.2184 66.2031C51.2184 66.0108 51.251 65.8653 51.3162 65.7654C51.3813 65.6666 51.4585 65.6155 51.5486 65.6155C51.6387 65.6155 51.718 65.6655 51.7832 65.7654C51.8483 65.8653 51.8809 66.0097 51.8809 66.1987C51.8809 66.3877 51.8483 66.5408 51.7842 66.6396L51.7853 66.6407ZM51.5497 65.2061C51.4204 65.2061 51.3042 65.2441 51.2 65.3212C51.0968 65.3983 51.0132 65.5134 50.948 65.6666C50.884 65.8197 50.8514 65.9902 50.8514 66.177C50.8514 66.505 50.9176 66.758 51.0501 66.935C51.1826 67.112 51.3498 67.2011 51.5508 67.2011C51.6767 67.2011 51.7919 67.1609 51.8961 67.0816C52.0004 67.0023 52.0862 66.8829 52.1502 66.7243C52.2154 66.5658 52.248 66.3888 52.248 66.1922C52.248 65.9283 52.1861 65.6981 52.0623 65.5015C51.9385 65.3039 51.7669 65.2061 51.5497 65.2061ZM50.1107 65.9609C49.9326 65.9022 49.8262 65.8588 49.7925 65.8306C49.7578 65.8034 49.7415 65.7687 49.7415 65.7263C49.7415 65.6796 49.76 65.6416 49.7969 65.6123C49.8338 65.583 49.8968 65.5677 49.9847 65.5677C50.1248 65.5677 50.2096 65.6438 50.24 65.7969L50.5766 65.7089C50.5397 65.5319 50.4745 65.4038 50.3822 65.3245C50.2899 65.2452 50.1553 65.205 49.9782 65.205C49.8012 65.205 49.6513 65.2582 49.5547 65.3647C49.457 65.4711 49.4081 65.6134 49.4081 65.7904C49.4081 65.9674 49.458 66.1075 49.558 66.2096C49.6383 66.291 49.824 66.3768 50.1183 66.467C50.177 66.4854 50.215 66.506 50.2356 66.5299C50.2541 66.5538 50.2628 66.5864 50.2628 66.6288C50.2628 66.6896 50.241 66.7395 50.1987 66.7775C50.1563 66.8156 50.0923 66.8351 50.0065 66.8351C49.8447 66.8351 49.748 66.7352 49.7176 66.5354L49.3592 66.6125C49.394 66.8036 49.4678 66.9491 49.5786 67.049C49.6894 67.149 49.8327 67.1989 50.0076 67.1989C50.1998 67.1989 50.3507 67.1392 50.4604 67.0197C50.569 66.9003 50.6244 66.7482 50.6244 66.5636C50.6244 66.4105 50.5896 66.2878 50.518 66.1955C50.4463 66.1031 50.3106 66.025 50.1107 65.9587V65.9609ZM48.0843 66.1151L48.3373 65.1388L48.5947 66.1151H48.0843ZM48.1407 64.5252L47.4131 67.1555H47.8138L47.9681 66.5603H48.7163L48.8792 67.1555H49.2886L48.5404 64.5252H48.1407Z" fill="#234497"/>
<path fill-rule="evenodd" clip-rule="evenodd" d="M25.2284 51.4617C30.0339 51.4617 33.9294 55.3583 33.9294 60.1627C33.9294 64.9672 30.0339 68.8637 25.2284 68.8637C20.4228 68.8637 16.5273 64.9683 16.5273 60.1627C16.5273 55.3572 20.4228 51.4617 25.2284 51.4617Z" fill="#204195"/>
<path fill-rule="evenodd" clip-rule="evenodd" d="M33.1496 43.1365C37.1689 43.1365 40.4269 46.3945 40.4269 50.4137C40.4269 54.433 37.1689 57.691 33.1496 57.691C29.1303 57.691 25.8723 54.433 25.8723 50.4137C25.8723 46.3945 29.1303 43.1365 33.1496 43.1365Z" fill="#0673BA"/>
<path fill-rule="evenodd" clip-rule="evenodd" d="M41.2653 50.8644C44.6221 50.8644 47.3425 53.5849 47.3425 56.9417C47.3425 60.2985 44.6221 63.0189 41.2653 63.0189C37.9085 63.0189 35.188 60.2974 35.188 56.9417C35.188 53.5859 37.9095 50.8644 41.2653 50.8644Z" fill="#21ADE3"/>
</g>
<rect x="1.5" y="1" width="110" height="110" rx="9" stroke="#CCCCCC" stroke-width="2"/>
<defs>
<clipPath id="clip0_428_507">
<rect x="2.5" y="2" width="108" height="108" rx="8" fill="white"/>
</clipPath>
</defs>
</svg>
