<svg width="113" height="112" viewBox="0 0 113 112" fill="none" xmlns="http://www.w3.org/2000/svg">
<g clip-path="url(#clip0_324_36)">
<rect x="2.5" y="2" width="108" height="108" rx="8" fill="white"/>
<path fill-rule="evenodd" clip-rule="evenodd" d="M96.5 55.9971C96.5 33.9061 78.5887 15.9995 56.5024 15.9995C34.4085 15.9995 16.5 33.9061 16.5 55.9971C16.5 78.0854 34.4085 95.9976 56.5024 95.9976C78.5887 95.9976 96.5 78.0854 96.5 55.9971ZM46.5259 88.6816C49.6991 88.6816 52.0667 88.3708 52.2373 84.0555H60.0471C60.2177 88.3708 62.6156 88.511 65.7092 88.511V90.6995H46.5259V88.6816ZM66.7878 52.5102C70.9694 53.8343 80.7838 58.3097 80.7838 67.5687C80.7838 76.7006 72.176 82.14 61.9588 82.14H32.2162L32.2466 79.7705C37.6423 79.7705 39.2403 79.0597 39.2403 73.5502V38.7019C39.2403 32.5687 36.8196 32.1849 32.2361 32.1849V29.9803C33.0948 29.9604 43.8996 29.9746 52.2373 29.9803C52.0667 25.6603 49.6992 25.3466 46.526 25.3466V23.3325H65.7092V25.52C62.6156 25.52 60.2177 25.6603 60.0471 29.9803H61.9588C66.2731 29.9803 76.8675 31.4655 76.8874 40.188C76.9026 46.3088 72.7683 50.2024 66.7878 52.5102ZM72.5569 69.034C72.5569 61.79 67.583 56.9677 61.5323 54.0456C57.5857 54.9034 52.9529 55.4057 48.6196 55.4427L49.7086 52.7405C50.6924 52.7083 51.4374 52.6477 52.2373 52.6003V34.4804H60.0471V51.4288C66.5916 49.4972 69.3316 45.6132 69.3316 41.1036C69.3316 35.324 64.9491 32.564 60.0272 32.564L47.0652 32.5687V73.7104C47.0652 78.0654 49.684 78.9782 52.2373 79.0237V57.6245C55.165 57.5221 58.3107 57.1061 60.0471 56.7023V79.0237C66.2883 79.018 72.5569 75.2154 72.5569 69.034Z" fill="#004F91"/>
</g>
<rect x="1.5" y="1" width="110" height="110" rx="9" stroke="#CCCCCC" stroke-width="2"/>
<defs>
<clipPath id="clip0_324_36">
<rect x="2.5" y="2" width="108" height="108" rx="8" fill="white"/>
</clipPath>
</defs>
</svg>
