<svg width="113" height="112" viewBox="0 0 113 112" fill="none" xmlns="http://www.w3.org/2000/svg">
<g clip-path="url(#clip0_324_35)">
<rect x="2.5" y="2" width="108" height="108" rx="8" fill="white"/>
<path d="M86.7009 51.1863C89.7075 47.6739 91.7118 43.4154 92.5027 38.8592C92.5027 38.7888 92.397 38.6735 92.3137 38.6095C92.2305 38.5455 92.1857 38.5519 92.1601 38.6095C88.0745 49.7295 81.3731 55.259 71.9501 59.1012C71.5627 57.5547 71.2265 55.9922 70.9672 54.4169C74.5852 53.4244 78.1072 51.9803 80.9633 49.8959C84.0658 47.6194 86.6497 44.7058 88.542 41.3535C90.3062 38.2669 91.5933 34.9338 92.3618 31.463C92.5379 30.6402 92.4546 30.3456 92.1761 30.1311L92.048 30.035C91.9327 29.9486 91.8463 30.035 91.8143 30.1919C91.6093 31.0372 91.35 31.8665 91.0362 32.6765C87.2997 42.711 81.3443 48.7465 70.5445 51.2471C70.378 49.4797 70.3364 47.7027 70.4165 45.9289C78.0016 44.328 84.418 39.0546 87.9112 32.1834C89.4961 28.9752 90.6872 25.5845 91.4557 22.0881C91.5517 21.7519 91.4236 21.3933 91.1355 21.198C91.0618 21.1435 90.9786 21.1115 90.8889 21.0987C90.7096 21.0091 90.5047 20.9867 90.3126 21.0379C86.8162 21.8063 83.4223 22.9974 80.2141 24.5855C73.3717 28.0595 68.1304 34.4343 66.491 41.9714C64.7172 42.0483 62.9434 42.0034 61.176 41.8337C63.6798 31.1172 69.7089 25.1842 79.705 21.4701C80.515 21.1563 81.3475 20.8938 82.1928 20.6889C82.3337 20.6569 82.4329 20.5736 82.3465 20.4551L82.2504 20.3303C82.0359 20.0517 81.7413 19.9653 80.9184 20.1446C77.4477 20.9098 74.1146 22.1969 71.0312 23.9644C67.6757 25.8534 64.762 28.4373 62.4855 31.5431C60.4236 34.3639 58.9892 37.8411 58.003 41.4143C56.4309 41.155 54.878 40.8188 53.3347 40.4281C57.1769 31.0724 62.7161 24.419 73.7848 20.3431C73.8584 20.3175 73.8456 20.2534 73.7848 20.1894C73.7239 20.1254 73.6055 19.9909 73.535 20.0005C68.9724 20.7881 64.7108 22.7957 61.1952 25.8054C56.8663 29.4491 53.3315 34.0565 50.5556 39.6661C49.1788 39.2595 47.8084 38.8176 46.4508 38.3502C42.3461 36.9382 31.7833 32.0906 27.7041 28.591C26.4234 27.4896 25.8055 27.3423 25.1235 27.8226C24.7585 28.1299 24.4287 28.4757 24.1405 28.8567C22.5268 31.146 21.3005 33.6819 20.5064 36.3682C20.4456 36.5988 20.8266 36.8197 21.2108 36.65C23.1159 35.8015 31.335 39.3811 33.7172 40.3193C35.2572 40.9244 36.8229 41.4783 38.3918 42.0002C41.6673 43.0953 44.9684 44.091 48.3175 44.8819C48.119 45.4102 47.9269 45.9417 47.7411 46.4828C47.1776 48.1349 46.7038 49.8127 46.3099 51.4905C38.411 50.3218 31.6968 48.2886 27.3359 46.4604C24.2654 45.2021 22.3443 44.8915 21.0187 45.5831C20.7978 45.7016 20.5673 46.0858 20.6761 46.6877C21.0219 48.6152 21.6367 50.4819 22.5076 52.2333C23.2408 53.7157 23.6506 53.2355 24.3518 53.0722C25.338 52.848 26.5131 53.1522 27.4704 53.3411C29.3307 53.7029 31.1717 54.1704 33.0256 54.5738C37.0951 55.4351 41.2254 55.989 45.3782 56.2324C45.0292 58.4736 44.7987 60.6541 44.6578 62.7417C44.1263 62.7193 43.6012 62.6936 43.0889 62.6616C37.0343 62.3158 30.1984 60.6317 27.9667 60.0489C27.7458 59.9913 27.7586 60.6253 27.9123 60.795C28.8984 61.9092 30.8227 63.9103 31.2582 64.3938C32.3244 65.6265 33.714 66.5422 35.2668 67.0353C37.2392 67.6757 39.33 67.7942 41.3823 67.8678C42.3429 67.903 43.3931 67.919 44.4817 67.9158C44.4817 69.0461 44.4817 70.1251 44.5297 71.1177C44.6034 73.1732 44.725 75.28 45.3622 77.2331C45.8521 78.786 46.7614 80.1724 47.9909 81.2418C48.4744 81.6773 50.4755 83.6016 51.5897 84.5877C51.7594 84.7414 52.3966 84.7574 52.3358 84.5333C51.753 82.292 50.0689 75.4657 49.7231 69.4143C49.6911 68.8668 49.6622 68.3064 49.6398 67.7397C51.7242 67.6053 53.9143 67.3779 56.1459 67.0321C56.3861 71.2169 56.9464 75.3761 57.8141 79.4744C58.2143 81.3283 58.6818 83.1693 59.0436 85.0328C59.2325 85.9933 59.5399 87.162 59.3125 88.1514C59.1493 88.8526 58.6722 89.2592 60.1514 89.9956C61.9028 90.8633 63.7727 91.4813 65.697 91.8271C66.2989 91.9327 66.6831 91.7054 66.8016 91.4813C67.5028 90.1461 67.1922 88.2314 65.9275 85.1737C64.0993 80.7968 62.0533 74.0537 60.8846 66.1196C62.6168 65.7194 64.3266 65.2327 66.0076 64.6596C66.507 64.4867 67.0001 64.3106 67.49 64.1281C68.2808 67.49 69.283 70.8135 70.3716 74.1082C70.8935 75.6803 71.4475 77.2427 72.0558 78.7828C72.9907 81.165 76.5704 89.3873 75.7251 91.2892C75.5522 91.6734 75.7731 92.0544 76.0069 91.9936C78.6932 91.2027 81.229 89.9732 83.5151 88.3595C83.8961 88.0713 84.2419 87.7447 84.5493 87.3797C85.0296 86.6945 84.8695 86.083 83.7809 84.7991C80.2813 80.7167 75.4305 70.1539 74.0217 66.0492C73.5479 64.6756 73.106 63.286 72.693 61.8868C78.3922 59.1172 83.0285 55.56 86.7009 51.1863ZM79.0742 27.5376C81.9558 25.2963 85.3049 23.6954 88.7597 22.5619L90.4471 22.0304C90.2806 22.5652 90.1109 23.0967 89.9412 23.6314C88.7981 27.0861 87.2164 30.4384 84.9656 33.3169C81.3475 37.9467 76.3591 40.4602 70.948 41.4623C71.9726 36.0897 74.4764 31.1364 79.0742 27.5376ZM65.8571 46.5436C65.7418 48.1445 65.7194 49.7455 65.7578 51.3688C65.7578 51.5865 65.7578 51.801 65.7834 52.0092C63.8847 52.2141 61.9412 52.3293 59.9945 52.3902C60.0458 50.4339 60.1738 48.4935 60.3852 46.5949L61.1344 46.6237C62.7065 46.6749 64.2882 46.6557 65.8571 46.5436ZM51.5705 45.5831C53.3315 45.9033 55.0925 46.1882 56.892 46.3707C56.527 48.4743 56.29 50.5331 56.1491 52.3966C54.449 52.3485 52.752 52.2493 51.0839 52.0764C50.8053 52.0508 50.5331 52.0188 50.261 51.9899C50.5652 49.8287 51.0006 47.6899 51.5705 45.5831ZM49.5342 62.8729C49.5342 60.7886 49.6142 58.6273 49.7807 56.4437C51.8459 56.4949 53.9079 56.4885 55.9634 56.4437C55.9186 58.5025 55.9122 60.5676 55.9634 62.6328C53.7766 62.7865 51.6186 62.8729 49.5342 62.8729ZM60.3884 62.1653C60.3627 61.922 60.3371 61.6819 60.3115 61.4353C60.1482 59.732 60.049 58.003 59.9913 56.2676C61.8644 56.1299 63.9072 55.8962 66.0108 55.5376C66.1933 57.3274 66.4622 59.1044 66.7952 60.8686C64.6884 61.4289 62.5496 61.858 60.3884 62.1525V62.1653Z" fill="url(#paint0_linear_324_35)"/>
</g>
<rect x="1.5" y="1" width="110" height="110" rx="9" stroke="#CCCCCC" stroke-width="2"/>
<defs>
<linearGradient id="paint0_linear_324_35" x1="39.5765" y1="72.8595" x2="91.1964" y2="21.2396" gradientUnits="userSpaceOnUse">
<stop stop-color="#1751A4"/>
<stop offset="0.52" stop-color="#307F75"/>
<stop offset="1" stop-color="#49AB48"/>
</linearGradient>
<clipPath id="clip0_324_35">
<rect x="2.5" y="2" width="108" height="108" rx="8" fill="white"/>
</clipPath>
</defs>
</svg>
