<svg width="113" height="112" viewBox="0 0 113 112" fill="none" xmlns="http://www.w3.org/2000/svg">
<g clip-path="url(#clip0_528_620)">
<rect x="2.5" y="2" width="108" height="108" rx="8" fill="white"/>
<path d="M42.4815 38.784C39.7112 38.784 37.1562 39.6581 35.0449 41.1374V30.339C35.0449 28.8732 33.8615 27.6898 32.3957 27.6898H32.2613C30.7955 27.6898 29.5986 28.8866 29.5986 30.3524V51.2365C29.5986 51.3844 29.5986 51.5323 29.5986 51.6803C29.5986 51.8282 29.5986 51.9761 29.5986 52.124V52.2719C29.5986 52.393 29.5986 52.5274 29.6255 52.6485C30.1231 59.3185 35.677 64.563 42.468 64.563C49.2591 64.563 55.3508 58.794 55.3508 51.6803C55.3508 44.5665 49.5818 38.7975 42.468 38.7975M42.468 59.5605C38.1782 59.5605 34.6953 56.0776 34.6953 51.8013C34.6953 47.525 38.1782 44.0286 42.468 44.0286C46.7578 44.0286 50.2273 47.5115 50.2273 51.8013C50.2273 56.0911 46.7578 59.5605 42.468 59.5605Z" fill="#27C4EE"/>
<path d="M70.3584 51.8416C70.3584 44.7682 64.6297 39.0395 57.5563 39.0395C50.4828 39.0395 45.292 44.2572 44.7945 50.8734C44.781 50.9944 44.7676 51.1155 44.7676 51.2365V51.3844C44.7676 51.5323 44.7676 51.6803 44.7676 51.8282C44.7676 51.9761 44.7676 52.124 44.7676 52.2719V73.0081C44.7676 74.4604 45.9509 75.6438 47.4033 75.6438H47.5378C48.9901 75.6438 50.1735 74.4604 50.1735 73.0081V62.2769C52.2579 63.7562 54.7995 64.6168 57.5563 64.6168C64.6297 64.6168 70.3584 58.8882 70.3584 51.8147M65.2752 51.6937C65.2752 55.9566 61.8192 59.4126 57.5563 59.4126C53.2934 59.4126 49.8373 55.9566 49.8373 51.6937C49.8373 47.4308 53.2934 43.9748 57.5563 43.9748C61.8192 43.9748 65.2752 47.4308 65.2752 51.6937Z" fill="#1079BF"/>
<path d="M50.039 49.9993C53.6968 49.9052 51.8141 46.1802 53.5758 45.1178C52.7151 43.652 51.5586 42.3745 50.2004 41.366C47.3764 40.5053 45.682 42.5359 46.5964 45.212C48.3043 46.2878 49.5549 47.9822 50.0256 49.9993" fill="#27C4EE"/>
<path d="M59.923 51.6265C59.923 58.7402 65.6921 64.5092 72.8059 64.5092C79.9197 64.5092 85.1508 59.2512 85.6484 52.5947C85.6618 52.4737 85.6753 52.3526 85.6753 52.2182V52.0702C85.6753 51.9223 85.6753 51.7744 85.6753 51.613C85.6753 51.4516 85.6753 51.3172 85.6753 51.1692V30.2986C85.6753 28.8328 84.4784 27.636 83.0126 27.636H82.8782C81.4124 27.636 80.2155 28.8328 80.2155 30.2986V41.097C78.1177 39.6178 75.5492 38.7302 72.779 38.7302C65.6652 38.7302 59.8961 44.4992 59.8961 51.613M65.0197 51.734C65.0197 47.4443 68.5026 43.9748 72.7924 43.9748C77.0822 43.9748 80.5652 47.4443 80.5652 51.734C80.5652 56.0238 77.0822 59.5067 72.7924 59.5067C68.5026 59.5067 65.0197 56.0238 65.0197 51.734Z" fill="#21376C"/>
<path d="M65.1542 53.0788C64.7776 55.2439 63.5001 57.0727 61.725 58.2158C61.994 60.986 62.9219 62.3442 65.2483 62.0752C66.6065 61.0532 67.7496 59.7622 68.6102 58.283C68.4623 54.5849 67.3596 53.5898 65.1407 53.0788" fill="#1079BF"/>
<path d="M16.541 84.062H16.2451V80.216H16.8906V81.6011C17.0116 81.3859 17.1327 81.2515 17.2537 81.1842C17.3747 81.117 17.5226 81.0767 17.684 81.0767C17.9933 81.0767 18.2488 81.2111 18.464 81.4801C18.6657 81.749 18.7733 82.1121 18.7733 82.5828C18.7733 83.0131 18.6657 83.3762 18.4774 83.672C18.2757 83.9679 17.9799 84.1292 17.6033 84.1292C17.2268 84.1292 16.9309 83.9544 16.7158 83.6048L16.541 84.0755V84.062ZM16.8906 82.8517C16.8906 83.1072 16.9444 83.2955 17.052 83.4165C17.1596 83.5376 17.3075 83.6048 17.4823 83.6048C17.6571 83.6048 17.7916 83.5376 17.9126 83.3896C18.0337 83.2552 18.0874 82.9728 18.1009 82.5693C18.1009 82.2735 18.0471 82.0449 17.9395 81.8835C17.8319 81.7221 17.6975 81.6415 17.5092 81.6415C17.3344 81.6415 17.1865 81.7087 17.0654 81.8432C16.9578 81.9776 16.8906 82.1794 16.8906 82.4214V82.8517Z" fill="#ED1C24"/>
<path d="M21.167 83.161L21.7452 83.2417C21.6645 83.4972 21.5166 83.7124 21.3014 83.8737C21.0863 84.0351 20.8173 84.1292 20.4811 84.1292C20.0911 84.1292 19.7684 83.9948 19.5263 83.7258C19.2843 83.4569 19.1633 83.1072 19.1633 82.65C19.1633 82.1928 19.2843 81.8701 19.5263 81.5877C19.7684 81.3053 20.0911 81.1573 20.508 81.1573C20.9249 81.1573 21.2342 81.2918 21.4494 81.5742C21.678 81.8566 21.7855 82.2062 21.7855 82.65V82.7173H19.8222C19.8222 82.9055 19.8356 83.0669 19.876 83.1879C19.9163 83.309 19.9836 83.4031 20.0911 83.4972C20.1987 83.5913 20.3332 83.6317 20.4946 83.6317C20.8173 83.6317 21.0325 83.4838 21.1401 83.1745M21.0997 82.3273C21.0997 82.1256 21.0325 81.9507 20.9114 81.8297C20.7904 81.6952 20.6425 81.628 20.4542 81.628C20.266 81.628 20.1315 81.6952 20.0105 81.8163C19.8894 81.9373 19.8222 82.1121 19.7953 82.3273H21.0997Z" fill="#ED1C24"/>
<path d="M23.0362 84.062H22.3907V81.2111H22.9689V81.897C23.0496 81.628 23.1707 81.4397 23.3051 81.3187C23.4531 81.1977 23.601 81.1304 23.7489 81.1304C23.7758 81.1304 23.8027 81.1304 23.8296 81.1304V81.8163C23.5068 81.8163 23.2917 81.9239 23.1841 82.1256C23.0765 82.3407 23.0227 82.5424 23.0227 82.7307V84.0486L23.0362 84.062Z" fill="#ED1C24"/>
<path d="M23.9506 83.4165L24.5558 83.2955C24.6499 83.5241 24.8516 83.6451 25.1609 83.6451C25.5643 83.6451 25.7526 83.5241 25.7526 83.2955C25.7526 83.2148 25.7257 83.161 25.6585 83.1072C25.5912 83.0534 25.524 83.0266 25.4433 83.0131L24.9188 82.919C24.3406 82.8114 24.0582 82.529 24.0582 82.0718C24.0582 81.8163 24.1523 81.6011 24.3271 81.4263C24.5154 81.2515 24.7844 81.1573 25.1475 81.1573C25.7526 81.1573 26.1157 81.3725 26.2502 81.8163L25.6719 81.9373C25.6181 81.7221 25.4433 81.6146 25.1609 81.6146C24.8247 81.6146 24.6499 81.7221 24.6499 81.9373C24.6499 82.0852 24.7844 82.1928 25.0668 82.2466L25.6719 82.3676C26.1426 82.4618 26.3846 82.7442 26.3846 83.1879C26.3846 83.4972 26.2636 83.7393 26.0215 83.8872C25.7795 84.0351 25.4836 84.1158 25.1475 84.1158C24.8516 84.1158 24.5961 84.062 24.3809 83.941C24.1523 83.82 24.0044 83.6451 23.9506 83.4031" fill="#ED1C24"/>
<path d="M29.37 84.062H28.7514C28.6976 83.8872 28.6707 83.6989 28.6573 83.4838C28.4825 83.9141 28.1597 84.1158 27.6891 84.1158C27.4067 84.1158 27.178 84.0351 27.0032 83.8737C26.8284 83.7124 26.7477 83.4972 26.7477 83.2417C26.7477 82.5828 27.326 82.26 28.469 82.26C28.5094 82.26 28.5766 82.26 28.6573 82.26V82.0449C28.6573 81.749 28.4556 81.6011 28.0521 81.6011C27.6487 81.6011 27.4336 81.749 27.3932 82.0449L26.8419 81.9642C26.8688 81.7221 26.9898 81.5339 27.2049 81.3725C27.4201 81.2246 27.7294 81.1439 28.1328 81.1439C28.348 81.1439 28.5363 81.1573 28.6707 81.1977C28.8052 81.238 28.9262 81.2918 29.0204 81.3859C29.1145 81.4801 29.1817 81.5742 29.2221 81.6683C29.2624 81.7759 29.2759 81.9507 29.2759 82.1928V83.4838C29.2759 83.672 29.3028 83.8603 29.3566 84.062M28.6438 82.6097C27.8101 82.6097 27.3932 82.8114 27.3932 83.2014C27.3932 83.3224 27.4336 83.4165 27.5142 83.4972C27.5949 83.5779 27.7294 83.6182 27.8908 83.6182C28.1328 83.6182 28.3211 83.5376 28.4421 83.3896C28.5632 83.2417 28.6304 83.0534 28.6304 82.8652V82.6097H28.6438Z" fill="#ED1C24"/>
<path d="M34.3053 84.062H33.6329V82.2869C33.6329 81.9238 33.4715 81.7356 33.1488 81.7356C32.9605 81.7356 32.7992 81.8028 32.6916 81.9373C32.5705 82.0718 32.5168 82.2869 32.5168 82.5559V84.0486H31.8309V82.2735C31.8309 81.897 31.683 81.7087 31.3737 81.7087C31.1854 81.7087 31.0241 81.7894 30.903 81.9373C30.782 82.0852 30.7148 82.2869 30.7148 82.5559V84.0486H30.0558V81.1977H30.6744V81.8028C30.8761 81.359 31.1989 81.1439 31.6292 81.1439C32.0595 81.1439 32.3285 81.359 32.4495 81.8028C32.6781 81.359 33.0009 81.1439 33.4043 81.1439C33.6867 81.1439 33.9019 81.2246 34.0632 81.3994C34.2246 81.5742 34.3187 81.7894 34.3187 82.0314V84.0486L34.3053 84.062Z" fill="#ED1C24"/>
<path d="M37.5058 84.062H36.8872C36.8335 83.8872 36.7931 83.6989 36.7931 83.4838C36.6183 83.9141 36.2955 84.1158 35.8249 84.1158C35.5425 84.1158 35.3139 84.0351 35.139 83.8737C34.9642 83.7124 34.8835 83.4972 34.8835 83.2417C34.8835 82.5828 35.4618 82.26 36.6048 82.26C36.6452 82.26 36.7124 82.26 36.7931 82.26V82.0449C36.7931 81.749 36.5914 81.6011 36.188 81.6011C35.7845 81.6011 35.5694 81.749 35.529 82.0449L34.9777 81.9642C35.0046 81.7221 35.1256 81.5339 35.3408 81.3725C35.5559 81.2246 35.8652 81.1439 36.2687 81.1439C36.4838 81.1439 36.6721 81.1573 36.8066 81.1977C36.941 81.238 37.0621 81.2918 37.1562 81.3859C37.2503 81.4801 37.3176 81.5742 37.3579 81.6683C37.3983 81.7759 37.4117 81.9507 37.4117 82.1928V83.4838C37.4117 83.672 37.4386 83.8603 37.4924 84.062M36.7797 82.6097C35.9459 82.6097 35.529 82.8114 35.529 83.2014C35.529 83.3224 35.5694 83.4165 35.6501 83.4972C35.7307 83.5779 35.8652 83.6182 36.0266 83.6182C36.2687 83.6182 36.4569 83.5376 36.5779 83.3896C36.699 83.2417 36.7662 83.0534 36.7662 82.8652V82.6097H36.7797Z" fill="#ED1C24"/>
<path d="M43.8935 84.062H43.2211V82.2869C43.2211 81.9238 43.0597 81.7356 42.737 81.7356C42.5487 81.7356 42.3873 81.8028 42.2797 81.9373C42.1587 82.0718 42.1049 82.2869 42.1049 82.5559V84.0486H41.4191V82.2735C41.4191 81.897 41.2712 81.7087 40.9619 81.7087C40.7736 81.7087 40.6122 81.7894 40.4912 81.9373C40.3702 82.0852 40.3029 82.2869 40.3029 82.5559V84.0486H39.644V81.1977H40.2626V81.8028C40.4643 81.359 40.7871 81.1439 41.2174 81.1439C41.6477 81.1439 41.9167 81.359 42.0377 81.8028C42.2663 81.359 42.589 81.1439 42.9925 81.1439C43.2749 81.1439 43.49 81.2246 43.6514 81.3994C43.8128 81.5742 43.9069 81.7894 43.9069 82.0314V84.0486L43.8935 84.062Z" fill="#ED1C24"/>
<path d="M46.4754 83.161L47.0537 83.2417C46.973 83.4972 46.825 83.7124 46.6099 83.8737C46.3947 84.0351 46.1123 84.1292 45.7896 84.1292C45.3996 84.1292 45.0769 83.9948 44.8348 83.7258C44.5927 83.4569 44.4717 83.1072 44.4717 82.65C44.4717 82.1928 44.5927 81.8701 44.8348 81.5877C45.0769 81.3053 45.413 81.1573 45.8165 81.1573C46.2199 81.1573 46.5426 81.2918 46.7578 81.5742C46.973 81.8566 47.094 82.2062 47.094 82.65V82.7173H45.1306C45.1306 82.9055 45.1441 83.0669 45.1844 83.1879C45.2248 83.309 45.292 83.4031 45.3996 83.4972C45.5072 83.5913 45.6417 83.6317 45.803 83.6317C46.1258 83.6317 46.3409 83.4838 46.4485 83.1745M46.4082 82.3273C46.4082 82.1256 46.3409 81.9507 46.2199 81.8297C46.0989 81.6952 45.9509 81.628 45.7761 81.628C45.6013 81.628 45.4534 81.6952 45.3324 81.8163C45.2113 81.9373 45.1441 82.1121 45.1172 82.3273H46.4082Z" fill="#ED1C24"/>
<path d="M51.9486 84.062H51.2762V82.2869C51.2762 81.9238 51.1148 81.7356 50.7787 81.7356C50.5904 81.7356 50.4425 81.8028 50.3214 81.9373C50.2138 82.0718 50.1466 82.2869 50.1466 82.5559V84.0486H49.4608V82.2735C49.4608 81.897 49.3129 81.7087 49.0036 81.7087C48.8153 81.7087 48.6539 81.7894 48.5329 81.9373C48.4119 82.0852 48.3446 82.2869 48.3446 82.5559V84.0486H47.6857V81.1977H48.3043V81.8028C48.506 81.359 48.8287 81.1439 49.2591 81.1439C49.6894 81.1439 49.9583 81.359 50.0794 81.8028C50.308 81.359 50.6307 81.1439 51.0342 81.1439C51.3031 81.1439 51.5317 81.2246 51.6931 81.3994C51.8545 81.5742 51.9486 81.7894 51.9486 82.0314V84.062Z" fill="#ED1C24"/>
<path d="M53.011 84.062H52.7151V80.216H53.3606V81.6011C53.4816 81.3859 53.6027 81.2515 53.7237 81.1842C53.8447 81.117 53.9926 81.0767 54.154 81.0767C54.4633 81.0767 54.7188 81.2111 54.934 81.4801C55.1357 81.749 55.2433 82.1121 55.2433 82.5828C55.2433 83.0131 55.1357 83.3762 54.934 83.672C54.7323 83.9679 54.4364 84.1292 54.0599 84.1292C53.6833 84.1292 53.3875 83.9544 53.1723 83.6048L52.9975 84.0755L53.011 84.062ZM53.3606 82.8517C53.3606 83.1072 53.4144 83.2955 53.522 83.4165C53.6296 83.5376 53.7775 83.6048 53.9523 83.6048C54.1271 83.6048 54.2616 83.5376 54.3826 83.3896C54.5036 83.2552 54.5574 82.9728 54.5709 82.5693C54.5709 82.2735 54.5171 82.0449 54.4095 81.8835C54.3019 81.7221 54.154 81.6415 53.9657 81.6415C53.7909 81.6415 53.643 81.7087 53.5354 81.8432C53.4278 81.9776 53.3606 82.1794 53.3606 82.4214V82.8517Z" fill="#ED1C24"/>
<path d="M58.2824 84.062H57.6638C57.6101 83.8872 57.5832 83.6989 57.5697 83.4838C57.3949 83.9141 57.0722 84.1158 56.6015 84.1158C56.3191 84.1158 56.0905 84.0351 55.9156 83.8737C55.7408 83.7124 55.6601 83.4972 55.6601 83.2417C55.6601 82.5828 56.2384 82.26 57.3814 82.26C57.4218 82.26 57.489 82.26 57.5697 82.26V82.0449C57.5697 81.749 57.368 81.6011 56.9646 81.6011C56.5611 81.6011 56.346 81.749 56.3056 82.0449L55.7543 81.9642C55.7812 81.7221 55.9022 81.5339 56.1174 81.3725C56.3325 81.2246 56.6418 81.1439 57.0453 81.1439C57.2604 81.1439 57.4487 81.1573 57.5832 81.1977C57.7176 81.238 57.8387 81.2918 57.9328 81.3859C58.0269 81.4801 58.0942 81.5742 58.1345 81.6683C58.1749 81.7759 58.1883 81.9507 58.1883 82.1928V83.4838C58.1883 83.672 58.2152 83.8603 58.269 84.062M57.5563 82.6097C56.7225 82.6097 56.3056 82.8114 56.3056 83.2014C56.3056 83.3224 56.346 83.4165 56.4267 83.4972C56.5073 83.5779 56.6418 83.6182 56.8032 83.6182C57.0453 83.6182 57.2335 83.5376 57.3545 83.3896C57.4756 83.2417 57.5428 83.0534 57.5428 82.8652V82.6097H57.5563Z" fill="#ED1C24"/>
<path d="M61.3216 84.062H60.6761V82.2869C60.6761 82.0987 60.6358 81.9642 60.5416 81.8566C60.4609 81.7625 60.3534 81.7087 60.2323 81.7087C60.071 81.7087 59.923 81.7759 59.7886 81.9238C59.6541 82.0718 59.6003 82.2869 59.6003 82.5828V84.0486H58.9548V81.1977H59.5465V81.8566C59.7482 81.3725 60.0441 81.1439 60.4072 81.1439C60.6627 81.1439 60.8778 81.2246 61.0526 81.3859C61.2275 81.5473 61.3216 81.8163 61.3216 82.2197V84.062Z" fill="#ED1C24"/>
<path d="M64.6835 80.6732V81.1708H64.4818C64.4011 81.1708 64.3204 81.1708 64.2532 81.1977C64.1859 81.2246 64.1322 81.2918 64.0649 81.3994C64.2935 81.5877 64.4011 81.7894 64.4011 82.018C64.4011 82.2735 64.2935 82.4752 64.0784 82.65C63.8632 82.8114 63.5943 82.8921 63.2446 82.8921C63.0967 82.8921 62.9219 82.8652 62.7202 82.8248C62.5857 82.8786 62.5184 82.9728 62.5184 83.1072C62.5184 83.1745 62.5453 83.2417 62.6126 83.2955C62.6798 83.3493 62.7739 83.3896 62.9084 83.3896H63.7556C64.0515 83.3896 64.2666 83.4703 64.4415 83.6182C64.6028 83.7662 64.6835 83.9544 64.6835 84.1696C64.6835 84.4385 64.5625 84.6672 64.307 84.842C64.0515 85.0168 63.6884 85.1109 63.2043 85.1109C62.2898 85.1109 61.8192 84.8554 61.8192 84.3444C61.8192 84.0889 61.9536 83.9006 62.236 83.7662C62.0612 83.6182 61.9671 83.4569 61.9671 83.2955C61.9671 83.0534 62.115 82.8517 62.4243 82.7038C62.1554 82.5424 62.0343 82.3273 62.0343 82.0449C62.0343 81.8028 62.1285 81.6011 62.3302 81.4397C62.5184 81.2784 62.8143 81.1842 63.2177 81.1842C63.3925 81.1842 63.5808 81.1977 63.7691 81.238C63.8498 80.8749 64.0784 80.7001 64.4549 80.7001H64.697L64.6835 80.6732ZM62.5184 83.9141C62.4243 83.9948 62.384 84.0755 62.384 84.1561C62.384 84.2906 62.4646 84.3982 62.6126 84.5058C62.7605 84.5999 63.016 84.6537 63.3522 84.6537C63.8498 84.6537 64.0918 84.5327 64.0918 84.2772C64.0918 84.183 64.0515 84.1158 63.9573 84.062C63.8767 84.0082 63.7691 83.9948 63.6615 83.9948H62.9757C62.8412 83.9948 62.6933 83.9679 62.5184 83.9275M63.2177 82.529C63.5674 82.529 63.7422 82.3676 63.7422 82.0314C63.7422 81.9104 63.7018 81.8028 63.6077 81.7087C63.527 81.628 63.3925 81.5742 63.2177 81.5742C63.0429 81.5742 62.9219 81.6146 62.8277 81.7087C62.7336 81.8028 62.6933 81.9104 62.6933 82.0449C62.6933 82.1794 62.7336 82.3004 62.8277 82.3811C62.9219 82.4752 63.0429 82.5155 63.2177 82.5155" fill="#ED1C24"/>
<path d="M67.4268 84.062H66.8217V83.4434C66.6603 83.8872 66.3645 84.1158 65.9207 84.1158C65.6652 84.1158 65.45 84.0351 65.3021 83.8737C65.1542 83.7124 65.0735 83.4838 65.0735 83.2014V81.2111H65.7324V83.0669C65.7324 83.2686 65.7728 83.4031 65.8669 83.4703C65.961 83.5376 66.0417 83.5645 66.1359 83.5645C66.2703 83.5645 66.4183 83.4972 66.5662 83.3762C66.7141 83.2552 66.7813 82.9862 66.7813 82.5828V81.2111H67.4268V84.062Z" fill="#ED1C24"/>
<path d="M70.5601 84.062H69.9146V82.2869C69.9146 82.0987 69.8743 81.9642 69.7802 81.8566C69.6995 81.7625 69.5919 81.7087 69.4709 81.7087C69.3095 81.7087 69.1616 81.7759 69.0271 81.9238C68.8926 82.0718 68.8388 82.2869 68.8388 82.5828V84.0486H68.1933V81.1977H68.785V81.8566C68.9868 81.3725 69.2826 81.1439 69.6457 81.1439C69.9012 81.1439 70.1029 81.2246 70.2912 81.3859C70.466 81.5473 70.5601 81.8163 70.5601 82.2197V84.062Z" fill="#ED1C24"/>
<path d="M73.5052 80.216H72.8059V84.062H73.5052V80.216Z" fill="#ED1C24"/>
<path d="M76.6788 84.062H76.0333V82.2869C76.0333 82.0987 75.993 81.9642 75.8988 81.8566C75.8182 81.7625 75.7106 81.7087 75.5895 81.7087C75.4282 81.7087 75.2802 81.7759 75.1458 81.9238C75.0113 82.0718 74.9575 82.2869 74.9575 82.5828V84.0486H74.312V81.1977H74.9037V81.8566C75.1054 81.3725 75.4013 81.1439 75.7644 81.1439C76.0199 81.1439 76.235 81.2246 76.4099 81.3859C76.5847 81.5473 76.6788 81.8163 76.6788 82.2197V84.062Z" fill="#ED1C24"/>
<path d="M79.7852 84.062H79.1801V83.4838C79.0187 83.9141 78.7363 84.1158 78.3463 84.1158C77.9967 84.1158 77.7277 83.9679 77.5395 83.672C77.3512 83.3762 77.257 83.0131 77.257 82.5828C77.257 82.1794 77.3512 81.8297 77.5529 81.5339C77.7412 81.238 78.0236 81.0901 78.3732 81.0901C78.7228 81.0901 78.9918 81.2515 79.1397 81.5877V80.2026H79.7852V84.062ZM79.1397 82.3811C79.1397 82.1525 79.0859 81.9642 78.9784 81.8432C78.8708 81.7087 78.7228 81.6549 78.548 81.6549C78.3598 81.6549 78.2118 81.7356 78.1043 81.897C77.9967 82.0583 77.9429 82.3138 77.9429 82.6366C77.9429 83.2686 78.1446 83.5914 78.5346 83.5914C78.6959 83.5914 78.8304 83.5241 78.9515 83.3896C79.0725 83.2552 79.1397 83.0803 79.1397 82.8652V82.3811Z" fill="#ED1C24"/>
<path d="M81.6679 84.1292C81.251 84.1292 80.9283 83.9813 80.6996 83.672C80.4845 83.3627 80.3635 83.0266 80.3635 82.6366C80.3635 82.2197 80.4845 81.8701 80.7265 81.5877C80.9686 81.3053 81.2913 81.1708 81.6948 81.1708C82.0713 81.1708 82.394 81.3053 82.6361 81.5742C82.8782 81.8432 82.9992 82.2063 82.9992 82.6366C82.9992 83.0669 82.8782 83.4434 82.6227 83.7258C82.3671 83.9948 82.0444 84.1292 81.6544 84.1292M81.6813 83.6048C82.1116 83.6048 82.3268 83.2821 82.3268 82.6366C82.3268 82.3407 82.273 82.1121 82.1789 81.9507C82.0713 81.7759 81.9099 81.6952 81.6948 81.6952C81.4796 81.6952 81.3048 81.7894 81.1972 81.9507C81.0896 82.1256 81.0358 82.3542 81.0358 82.6366C81.0358 82.9459 81.0896 83.1879 81.2107 83.3493C81.3182 83.5107 81.4796 83.5914 81.6813 83.5914" fill="#ED1C24"/>
<path d="M85.9716 84.0619H85.3261V82.2868C85.3261 82.0986 85.2857 81.9641 85.1916 81.8565C85.1109 81.7624 85.0033 81.7086 84.8823 81.7086C84.7209 81.7086 84.573 81.7758 84.4385 81.9237C84.3041 82.0717 84.2503 82.2868 84.2503 82.5827V84.0485H83.6048V81.1976H84.1965V81.8565C84.3982 81.3724 84.694 81.1438 85.0571 81.1438C85.3126 81.1438 85.5278 81.2245 85.7026 81.3858C85.8774 81.5472 85.9716 81.8162 85.9716 82.2196V84.0619Z" fill="#ED1C24"/>
<path d="M88.5534 83.1609L89.1317 83.2416C89.0644 83.4971 88.9165 83.7123 88.6879 83.8736C88.4727 84.035 88.2038 84.1292 87.8676 84.1292C87.4776 84.1292 87.1549 83.9947 86.9128 83.7257C86.6708 83.4568 86.5497 83.1071 86.5497 82.6499C86.5497 82.1927 86.6708 81.87 86.9128 81.5876C87.1549 81.3052 87.4776 81.1572 87.8945 81.1572C88.3114 81.1572 88.6207 81.2917 88.8358 81.5741C89.0644 81.8565 89.172 82.2062 89.172 82.6499V82.7172H87.2087C87.2087 82.9054 87.2356 83.0668 87.2625 83.1878C87.3028 83.3089 87.37 83.403 87.4776 83.4971C87.5852 83.5913 87.7197 83.6316 87.8811 83.6316C88.2038 83.6316 88.4055 83.4837 88.5265 83.1744M88.4862 82.3272C88.4862 82.1255 88.419 81.9506 88.2979 81.8296C88.1769 81.6951 88.029 81.6279 87.8542 81.6279C87.6793 81.6279 87.5314 81.6951 87.4104 81.8162C87.2894 81.9372 87.2221 82.112 87.1952 82.3272H88.4862Z" fill="#ED1C24"/>
<path d="M89.4272 83.4165L90.0323 83.2955C90.1264 83.5241 90.3282 83.6451 90.6375 83.6451C91.0409 83.6451 91.2291 83.5241 91.2291 83.2955C91.2291 83.2148 91.2022 83.161 91.135 83.1072C91.0678 83.0534 91.0005 83.0266 90.9198 83.0131L90.3954 82.919C89.8171 82.8114 89.5347 82.529 89.5347 82.0718C89.5347 81.8163 89.6289 81.6011 89.8037 81.4263C89.992 81.2515 90.2609 81.1573 90.624 81.1573C91.2291 81.1573 91.5922 81.3725 91.7267 81.8163L91.1485 81.9373C91.0947 81.7221 90.9199 81.6146 90.6375 81.6146C90.3013 81.6146 90.1264 81.7221 90.1264 81.9373C90.1264 82.0852 90.2609 82.1928 90.5433 82.2466L91.1485 82.3676C91.6191 82.4618 91.8612 82.7442 91.8612 83.1879C91.8612 83.4972 91.7402 83.7393 91.4981 83.8872C91.256 84.0351 90.9602 84.1158 90.624 84.1158C90.3282 84.1158 90.0726 84.062 89.844 83.941C89.6154 83.82 89.4675 83.6451 89.4137 83.4031" fill="#ED1C24"/>
<path d="M92.3856 84.062H93.0311V81.2111H92.3856V84.062ZM92.3856 80.8749H93.0311V80.2026H92.3856V80.8749Z" fill="#ED1C24"/>
<path d="M96.2451 84.062H95.6265C95.5727 83.8872 95.5458 83.6989 95.5324 83.4838C95.3576 83.9141 95.0348 84.1158 94.5642 84.1158C94.2818 84.1158 94.0532 84.0351 93.8783 83.8737C93.7035 83.7124 93.6228 83.4972 93.6228 83.2417C93.6228 82.5828 94.2011 82.26 95.3441 82.26C95.3845 82.26 95.4517 82.26 95.5324 82.26V82.0449C95.5324 81.749 95.3307 81.6011 94.9272 81.6011C94.5238 81.6011 94.3087 81.749 94.2683 82.0449L93.717 81.9642C93.7439 81.7221 93.8649 81.5339 94.08 81.3725C94.2952 81.2246 94.6045 81.1439 95.0079 81.1439C95.2231 81.1439 95.4114 81.1573 95.5458 81.1977C95.6803 81.238 95.8013 81.2918 95.8955 81.3859C95.9896 81.4801 96.0569 81.5742 96.0972 81.6683C96.1375 81.7759 96.151 81.9507 96.151 82.1928V83.4838C96.151 83.672 96.1779 83.8603 96.2317 84.062M95.5189 82.6097C94.6852 82.6097 94.2683 82.8114 94.2683 83.2014C94.2683 83.3224 94.3087 83.4165 94.3893 83.4972C94.47 83.5779 94.6045 83.6182 94.7659 83.6182C95.0079 83.6182 95.1962 83.5376 95.3172 83.3896C95.4383 83.2417 95.5055 83.0534 95.5055 82.8652V82.6097H95.5189Z" fill="#ED1C24"/>
</g>
<rect x="1.5" y="1" width="110" height="110" rx="9" stroke="#CCCCCC" stroke-width="2"/>
<defs>
<clipPath id="clip0_528_620">
<rect x="2.5" y="2" width="108" height="108" rx="8" fill="white"/>
</clipPath>
</defs>
</svg>
