<svg width="113" height="112" viewBox="0 0 113 112" fill="none" xmlns="http://www.w3.org/2000/svg">
<g clip-path="url(#clip0_528_616)">
<rect x="2.5" y="2" width="108" height="108" rx="8" fill="white"/>
<path d="M56.5014 61.9727C56.3769 61.9555 56.3211 61.8461 56.246 61.7689C55.0423 60.5695 53.8365 59.3679 52.6414 58.1599C52.4697 57.9861 52.2981 57.9089 52.0492 57.911C50.3606 57.9217 48.6698 57.9046 46.9812 57.926C46.6207 57.9303 46.5606 57.8187 46.5649 57.4905C46.5821 55.7911 46.5692 54.0896 46.5778 52.3881C46.5799 52.1757 46.5156 52.0319 46.3675 51.8839C45.1359 50.663 43.915 49.4293 42.6792 48.2127C42.5011 48.0368 42.4925 47.9509 42.677 47.7686C43.9065 46.5606 45.1166 45.3333 46.3418 44.1231C46.507 43.96 46.5799 43.7991 46.5778 43.5631C46.5671 41.8402 46.5756 40.1172 46.5671 38.3943C46.5649 38.1303 46.5992 38.0638 46.8975 38.1175C49.6654 38.6217 52.1522 39.7439 54.3686 41.4733C54.4845 41.5634 54.6025 41.6513 54.7205 41.7393C54.8256 41.8166 54.9308 41.8938 55.1131 42.029C54.8342 42.029 54.6454 42.029 54.4587 42.029C53.2679 42.029 52.0771 42.0376 50.8862 42.0225C50.6094 42.0182 50.5451 42.1084 50.5494 42.368C50.5644 43.3206 50.5494 44.2733 50.5579 45.2238C50.5601 45.432 50.5 45.5843 50.3498 45.7323C49.6611 46.4061 48.9916 47.0991 48.2986 47.7686C48.1076 47.9531 48.1312 48.0475 48.3072 48.2191C48.9916 48.8822 49.6546 49.5666 50.3348 50.2318C50.4914 50.3862 50.5644 50.5407 50.5622 50.766C50.5494 51.6844 50.5708 52.6027 50.5494 53.521C50.5429 53.8364 50.6073 53.948 50.9506 53.9394C51.8797 53.9137 52.8109 53.9373 53.7399 53.9244C53.9524 53.9223 54.0961 53.9909 54.242 54.1368C54.993 54.8921 55.7525 55.6366 56.51 56.3855C56.5057 58.2479 56.5035 60.1103 56.5014 61.9727Z" fill="#509C85"/>
<path d="M56.5079 34C56.7353 34.133 56.892 34.3454 57.0743 34.5257C58.1836 35.6285 59.2929 36.7335 60.3915 37.8471C60.5567 38.0145 60.7219 38.0746 60.9537 38.0746C62.6766 38.066 64.4017 38.0746 66.1246 38.0638C66.3735 38.0617 66.4486 38.1153 66.4465 38.3771C66.4336 40.1129 66.4443 41.8466 66.4358 43.5824C66.4336 43.8056 66.5023 43.9579 66.6589 44.1124C67.8841 45.3247 69.0942 46.552 70.3237 47.76C70.5211 47.9531 70.4953 48.0475 70.3151 48.2256C69.1049 49.4207 67.9077 50.6309 66.6997 51.826C66.5173 52.0062 66.4336 52.1822 66.4358 52.4439C66.4486 54.1454 66.4293 55.8469 66.4529 57.5463C66.4572 57.9067 66.3135 57.9132 66.0538 57.8638C63.9812 57.4626 62.0372 56.7309 60.2349 55.6259C59.4345 55.1367 58.6986 54.5595 57.9498 53.9888C58.0334 53.8708 58.1429 53.9266 58.233 53.9266C59.5375 53.9223 60.8421 53.9158 62.1466 53.9287C62.3912 53.9309 62.4449 53.8579 62.4427 53.624C62.4299 52.6606 62.4427 51.6972 62.4341 50.7317C62.432 50.5472 62.4856 50.4184 62.6187 50.2876C63.2988 49.6203 63.9554 48.9294 64.6484 48.2771C64.8995 48.0411 64.863 47.9231 64.6356 47.7063C63.9554 47.0562 63.3031 46.3761 62.6315 45.7173C62.4899 45.5779 62.4341 45.4406 62.4363 45.2432C62.4449 44.2798 62.4299 43.3142 62.447 42.3508C62.4535 42.0698 62.3612 42.0161 62.1037 42.0204C61.1618 42.0354 60.222 42.0204 59.2801 42.0311C59.0483 42.0333 58.881 41.9732 58.7158 41.8037C57.9884 41.057 57.2438 40.3232 56.5079 39.5872C56.5014 37.7291 56.5036 35.8646 56.5079 34Z" fill="#A4C616"/>
<path d="M56.5014 61.9727C56.5035 60.1103 56.5057 58.2479 56.5079 56.3854C56.7095 56.188 56.9241 56.0014 57.1108 55.789C57.2352 55.6473 57.3189 55.6774 57.4434 55.7804C59.9194 57.8316 62.7581 59.1104 65.91 59.6919C66.9314 59.8807 67.9699 59.9472 69.1028 59.988C68.3046 60.2326 67.5751 60.3527 66.8434 60.4493C66.1031 60.548 65.3543 60.5394 64.6076 60.5287C62.8203 60.5051 61.106 60.1231 59.4495 59.4623C59.2414 59.3786 59.1191 59.3893 58.9582 59.5567C58.2244 60.312 57.4734 61.0522 56.7267 61.7946C56.6623 61.8633 56.6172 61.9663 56.5014 61.9727Z" fill="#A4C616"/>
<path d="M56.5079 34C56.5036 35.8646 56.5014 37.727 56.4971 39.5915C56.2246 39.8125 56.0272 40.2588 55.729 40.261C55.4629 40.2631 55.1947 39.8876 54.9244 39.6838C52.4118 37.8021 49.5967 36.6456 46.4984 36.1843C45.6724 36.062 44.8399 35.9954 43.9988 35.9976C44.5137 35.7959 45.0523 35.7036 45.593 35.6178C48.363 35.1844 51.0493 35.5019 53.6456 36.5576C53.8279 36.6327 53.9095 36.549 54.0146 36.4417C54.757 35.6951 55.5037 34.9484 56.2504 34.206C56.3276 34.1309 56.3856 34.0236 56.5079 34Z" fill="#509C85"/>
<path d="M56.4971 51.665C55.493 51.0879 54.4931 50.5064 53.4825 49.9378C53.3387 49.8563 53.3023 49.7662 53.3044 49.616C53.3087 48.5281 53.3109 47.4424 53.3044 46.3546C53.3044 46.2001 53.3516 46.11 53.4846 46.0327C54.4523 45.4813 55.4157 44.9234 56.3834 44.3677C56.4199 44.3463 56.4671 44.3484 56.51 44.3377C56.5014 46.7816 56.4993 49.2233 56.4971 51.665Z" fill="#F7A500"/>
<path d="M56.4971 51.665C56.4993 49.2233 56.5036 46.7837 56.5057 44.342C57.2932 44.7046 57.9841 45.2496 58.7736 45.5929C59.722 46.0521 59.722 46.125 59.722 47.2193C59.722 48.1719 59.7027 48.8028 59.7049 49.5967C59.7049 49.7383 59.6941 49.8413 59.5418 49.9271C58.5205 50.4978 57.5099 51.0836 56.4971 51.665Z" fill="#FDD000"/>
<path d="M52.6499 66.3176C51.8668 66.2039 51.0922 66.2747 50.3498 66.5794C50.2361 66.6266 50.1481 66.6738 50.0043 66.6094C48.7277 66.028 47.5004 66.2146 46.3053 66.8712C46.1465 66.957 46.1207 67.0686 46.1207 67.2295C46.1272 68.0449 46.1229 68.8624 46.1229 69.6777C46.1229 70.2892 46.1164 70.9029 46.125 71.5144C46.1293 71.8062 45.9963 72.186 46.1872 72.3641C46.3739 72.5379 46.7515 72.3855 47.0412 72.4198C47.3201 72.452 47.4038 72.3619 47.4017 72.0744C47.3867 70.7934 47.3952 69.5125 47.3952 68.2316C47.3952 67.7445 47.4382 67.6823 47.8995 67.5471C48.0282 67.5106 48.1634 67.4806 48.2986 67.472C49.4164 67.4055 49.7919 67.7488 49.8155 68.8924C49.8327 69.7421 49.8134 70.5939 49.822 71.4436C49.8263 71.7568 49.6825 72.1688 49.882 72.3576C50.0794 72.5443 50.4871 72.3855 50.8004 72.4177C51.0557 72.4434 51.0986 72.3297 51.0922 72.1066C51.0772 71.6088 51.1008 71.1089 51.0857 70.6111C51.0578 69.697 51.193 68.7744 50.9398 67.8732C50.8991 67.7295 51.0085 67.7059 51.0986 67.6608C51.5213 67.4484 51.9697 67.4269 52.4225 67.4956C52.8323 67.5578 53.0855 67.8024 53.182 68.2122C53.2507 68.5019 53.2743 68.7937 53.2764 69.0877C53.2786 70.109 53.2829 71.1282 53.2743 72.1495C53.2722 72.349 53.3151 72.437 53.5361 72.422C53.7957 72.4027 54.0575 72.407 54.3171 72.4198C54.4995 72.4284 54.5488 72.3598 54.5467 72.186C54.5359 70.9608 54.5574 69.7356 54.5252 68.5126C54.4952 67.3261 53.7592 66.4786 52.6499 66.3176Z" fill="#5D5C60"/>
<path d="M20.5747 71.1325C19.7358 71.1432 18.8969 71.1325 18.0579 71.141C17.8798 71.1432 17.7961 71.1153 17.8004 70.905C17.8154 70.3042 17.8133 69.7035 17.8004 69.1027C17.7961 68.886 17.882 68.8345 18.0815 68.8388C18.6029 68.8495 19.1243 68.8495 19.6457 68.8388C19.9611 68.8323 20.3731 68.9761 20.5619 68.7808C20.7485 68.5877 20.5898 68.1758 20.6198 67.8625C20.6434 67.6265 20.5468 67.5814 20.3323 67.5857C19.5727 67.5986 18.8132 67.5857 18.0536 67.5943C17.8648 67.5964 17.7961 67.5471 17.7983 67.3475C17.809 66.7575 17.8133 66.1674 17.7983 65.5795C17.7918 65.3542 17.8863 65.3178 18.0794 65.3199C18.6458 65.3285 19.2144 65.3328 19.7809 65.3199C20.0941 65.3135 20.519 65.468 20.6863 65.2513C20.8429 65.0517 20.7228 64.644 20.7464 64.3308C20.7657 64.1012 20.6777 64.0497 20.461 64.054C19.6221 64.0669 18.7831 64.0583 17.9442 64.0583C16.9829 64.0583 16.5045 64.5325 16.5023 65.4937C16.5002 66.4013 16.5023 67.3068 16.5023 68.2144C16.5023 69.1671 16.4959 70.1197 16.5045 71.0702C16.513 71.8555 16.9636 72.3791 17.7017 72.4027C18.6866 72.4327 19.6736 72.4091 20.6606 72.4134C20.8065 72.4134 20.8623 72.3662 20.858 72.2182C20.8494 71.9457 20.8387 71.6732 20.8601 71.4028C20.8816 71.1689 20.785 71.1303 20.5747 71.1325Z" fill="#5D5C60"/>
<path d="M64.5132 68.3367C63.9424 67.8732 63.2558 67.6351 62.6014 67.3411C62.2924 67.2016 61.9792 67.0665 61.7367 66.8219C61.2175 66.3026 61.4149 65.5259 62.1229 65.3414C62.5885 65.2191 63.0584 65.2641 63.5347 65.3457C63.8351 65.3993 64.1205 65.7448 64.3844 65.5645C64.6226 65.4015 64.717 65.0388 64.9015 64.7835C65.0388 64.5947 65.0045 64.511 64.8028 64.4123C63.8995 63.9682 62.9554 63.8094 61.9684 64.0111C61.078 64.1935 60.3957 64.6612 60.1833 65.601C59.9365 66.691 60.3184 67.5514 61.2732 68.1522C61.7238 68.4375 62.2216 68.6199 62.7065 68.8366C63.0348 68.9847 63.3674 69.1327 63.6528 69.3559C64.0626 69.6799 64.1656 70.1176 64.0518 70.6046C63.9531 71.0273 63.5948 71.1475 63.2279 71.1925C62.7537 71.2483 62.2109 71.2955 61.8461 70.9951C61.226 70.4823 60.8999 70.86 60.533 71.2741C60.5115 71.2998 60.4879 71.3256 60.4579 71.3449C60.239 71.4865 60.297 71.6066 60.4729 71.7461C61.1681 72.2911 61.962 72.5336 62.8374 72.5443C62.9726 72.5357 63.1078 72.5271 63.2451 72.5164C64.3007 72.437 65.0882 71.877 65.3435 71.0252C65.6418 70.0189 65.3178 68.9911 64.5132 68.3367Z" fill="#5D5C60"/>
<path d="M70.7076 66.4399C70.4459 66.4185 70.3364 66.5279 70.2442 66.7575C69.7464 68.0084 69.2336 69.2529 68.71 70.5403C68.6457 70.3987 68.5963 70.2999 68.5555 70.197C68.0792 69.0297 67.605 67.8604 67.1244 66.6931C67.0815 66.588 67.0836 66.4421 66.9013 66.4464C66.5 66.4528 66.0988 66.4485 65.6611 66.4485C65.7169 66.5901 65.7533 66.6824 65.7898 66.7747C66.4936 68.5062 67.1974 70.2399 67.9076 71.9693C67.9805 72.1495 67.9805 72.2975 67.9011 72.4756C67.59 73.188 67.2961 73.9068 66.9978 74.6256C66.6524 75.4538 66.3112 76.2841 65.9572 77.1402C66.3327 77.1402 66.6738 77.1231 67.0128 77.1467C67.2574 77.1639 67.3647 77.0737 67.457 76.8506C68.7208 73.7759 69.9953 70.7076 71.2655 67.6351C71.4243 67.2488 71.5766 66.8583 71.7418 66.4485C71.3642 66.4464 71.0359 66.4678 70.7076 66.4399Z" fill="#5D5C60"/>
<path d="M96.4446 68.3903C96.3673 67.4849 95.906 66.8154 95.0285 66.4979C94.1723 66.1868 93.3119 66.1632 92.4365 66.5901C92.4365 65.8048 92.4258 65.0496 92.443 64.2964C92.4473 64.0561 92.355 64.039 92.164 64.0797C91.5182 64.2214 91.1491 64.6784 91.1491 65.3714C91.147 67.3883 91.1448 69.4052 91.1513 71.4221C91.1534 71.744 91.0011 72.1752 91.2221 72.3598C91.4109 72.5185 91.8272 72.3941 92.1426 72.4198C92.3829 72.4392 92.443 72.3576 92.4408 72.1194C92.4301 70.817 92.4408 69.5146 92.4301 68.2101C92.4279 67.9934 92.5052 67.8861 92.6918 67.8003C93.0824 67.62 93.4879 67.56 93.9127 67.5857C94.8461 67.6415 95.1744 67.9762 95.2108 68.9139C95.2151 69.0147 95.213 69.1177 95.213 69.2207C95.213 70.1948 95.2173 71.1689 95.2087 72.1431C95.2065 72.3383 95.2387 72.437 95.464 72.4198C95.7236 72.4005 95.9854 72.407 96.245 72.4177C96.4102 72.4241 96.4939 72.3877 96.4896 72.1967C96.466 70.9286 96.5519 69.6563 96.4446 68.3903Z" fill="#5D5C60"/>
<path d="M88.51 66.4356C87.7912 66.1975 87.051 66.2511 86.3214 66.3327C85.461 66.4292 85.4653 66.4571 85.4675 67.339C85.4675 67.3733 85.4718 67.4076 85.4675 67.4398C85.4374 67.6715 85.5276 67.6973 85.74 67.6394C86.3772 67.4634 87.0317 67.4141 87.6904 67.4699C88.1195 67.5063 88.4971 67.6501 88.7074 68.1414C88.2225 68.1414 87.7912 68.1307 87.3621 68.1436C86.8085 68.1607 86.3086 68.341 85.8301 68.6242C84.665 69.313 84.7079 71.2934 85.7636 71.9972C86.8493 72.7202 88.9177 72.7052 89.9369 71.8942C90.0334 71.8169 90.0828 71.7375 90.0806 71.6088C90.0699 70.5553 90.087 69.5018 90.0527 68.4483C90.0248 67.4784 89.4283 66.7403 88.51 66.4356ZM88.8104 70.4995C88.8104 71.1861 88.8125 71.2011 88.1431 71.3191C87.7419 71.3899 87.3299 71.3921 86.9308 71.2698C86.4416 71.1196 86.2163 70.7634 86.2485 70.197C86.2785 69.6927 86.4824 69.4567 87.0081 69.3559C87.5573 69.2507 88.1152 69.3258 88.6688 69.3044C88.7997 69.3001 88.8125 69.3795 88.8104 69.4803C88.8082 69.7292 88.8104 69.9781 88.8104 70.2291C88.8104 70.3171 88.8104 70.4072 88.8104 70.4995Z" fill="#5D5C60"/>
<path d="M75.3379 66.3756C74.5269 66.1932 73.718 66.2983 72.9048 66.3863C72.555 66.4249 72.4477 66.5794 72.4907 66.9098C72.5143 67.0879 72.51 67.2746 72.4907 67.4527C72.4649 67.6951 72.5615 67.7016 72.7589 67.6458C73.4068 67.4634 74.0741 67.4141 74.7436 67.4699C75.1663 67.5042 75.5289 67.6587 75.752 68.1393C75.2693 68.1393 74.8401 68.1307 74.411 68.1414C73.8682 68.1565 73.3789 68.3367 72.9048 68.6006C71.6882 69.2829 71.7375 71.3384 72.8533 72.0315C73.9626 72.7202 75.9923 72.6838 77.0008 71.877C77.1081 71.7912 77.1209 71.7032 77.1209 71.5873C77.1188 70.5789 77.1317 69.5683 77.1166 68.5598C77.1081 67.4741 76.4 66.6137 75.3379 66.3756ZM75.4473 71.2612C74.9538 71.3749 74.4603 71.405 73.9711 71.2655C73.4691 71.1217 73.2802 70.787 73.3103 70.1562C73.3317 69.6842 73.542 69.4503 74.0613 69.3537C74.5998 69.2529 75.147 69.328 75.6898 69.3044C75.8507 69.2979 75.8357 69.4052 75.8357 69.5082C75.8357 69.7464 75.8357 69.9845 75.8357 70.2227C75.8357 70.3922 75.8121 70.5682 75.84 70.7312C75.9001 71.0595 75.7434 71.1925 75.4473 71.2612Z" fill="#5D5C60"/>
<path d="M24.5678 69.5103C24.4026 69.3215 24.3983 69.2078 24.5785 69.0211C25.308 68.2766 26.0182 67.5128 26.7349 66.7553C26.8164 66.6695 26.8872 66.5751 26.9945 66.4485C26.4989 66.4485 26.059 66.4657 25.6213 66.4421C25.366 66.4271 25.2072 66.5258 25.0441 66.7081C24.4626 67.3647 23.8662 68.0105 23.2268 68.7122C23.2268 68.5813 23.2268 68.5191 23.2268 68.4568C23.2268 67.0858 23.2182 65.7147 23.2332 64.3437C23.2353 64.0561 23.1474 64.0261 22.9006 64.0948C22.2591 64.2728 21.9329 64.702 21.9308 65.4251C21.9286 67.5664 21.9308 69.7078 21.9308 71.8491C21.9308 72.4156 21.9308 72.4156 22.4994 72.4156C23.2268 72.4156 23.2268 72.4156 23.2268 71.7011C23.2268 71.0981 23.2268 70.4952 23.2268 69.8236C23.9005 70.6368 24.527 71.3814 25.1407 72.1345C25.3016 72.3319 25.4689 72.4392 25.7414 72.4198C26.147 72.3919 26.5568 72.4134 26.9752 72.4134C26.9966 72.3168 26.943 72.2847 26.9087 72.2439C26.132 71.332 25.3574 70.4137 24.5678 69.5103Z" fill="#5D5C60"/>
<path d="M40.4777 66.9806C39.746 67.6415 39.5701 68.4826 39.5894 69.1134C39.5937 71.332 40.6172 72.4713 42.3895 72.525C43.6897 72.5636 44.814 71.8513 45.1552 70.7141C45.417 69.8429 45.4234 68.9418 45.1509 68.0728C44.5759 66.2511 41.9453 65.6546 40.4777 66.9806ZM44.0266 70.1262C43.8592 70.9394 43.2563 71.3663 42.3573 71.3406C41.5741 71.3191 40.9862 70.8106 40.8682 70.0296C40.8296 69.7721 40.8296 69.5104 40.8103 69.2507C40.8575 68.6349 40.9519 68.0492 41.5484 67.6951C42.368 67.2081 43.9322 67.4012 44.0652 68.9074C44.1017 69.3215 44.1081 69.7271 44.0266 70.1262Z" fill="#5D5C60"/>
<path d="M29.0929 66.3327C27.9536 66.5837 27.0052 67.5514 26.943 68.7615C26.9044 69.5254 26.855 70.2871 27.1855 70.993C28.033 72.7953 30.8052 73.0786 32.0518 71.5165C32.5496 70.8921 32.6611 70.1755 32.6375 69.4117C32.6289 68.9954 32.6354 68.577 32.5152 68.1693C32.1204 66.8111 30.5927 66.0022 29.0929 66.3327ZM30.8888 70.9565C30.3653 71.3899 29.7624 71.4457 29.1337 71.2226C28.5308 71.008 28.2754 70.5446 28.1832 69.9373C28.1167 69.5018 28.1295 69.0769 28.2197 68.6542C28.3935 67.8346 29.0286 67.4162 29.9769 67.4677C30.7301 67.5085 31.3072 68.0749 31.3888 68.8624C31.4081 69.0426 31.4102 69.225 31.4188 69.3773C31.4016 69.9781 31.3737 70.5553 30.8888 70.9565Z" fill="#5D5C60"/>
<path d="M38.7397 68.3882C38.6582 67.4355 38.1518 66.7403 37.2292 66.4593C35.9676 66.0752 34.751 66.264 33.5988 66.8991C33.4851 66.9613 33.4421 67.0364 33.4421 67.1652C33.4464 68.8431 33.4464 70.5188 33.4421 72.1967C33.4421 72.3619 33.5001 72.4156 33.6589 72.4113C33.9979 72.4027 34.339 72.4048 34.678 72.4027L34.6995 72.4091L34.7081 72.3855C34.7167 72.2632 34.7295 72.1388 34.7295 72.0143C34.7317 70.7119 34.7381 69.4074 34.7231 68.105C34.7209 67.8453 34.8046 67.7338 35.0428 67.6436C35.5685 67.4462 36.0942 67.4248 36.6413 67.5213C37.109 67.6029 37.3472 67.8968 37.4373 68.3281C37.4824 68.547 37.4996 68.7765 37.5017 69.0018C37.5081 69.8064 37.5017 70.6111 37.506 71.4157C37.506 71.7311 37.3944 72.1688 37.5553 72.334C37.7613 72.5443 38.1969 72.3834 38.5338 72.4048C38.5445 72.4048 38.5574 72.4027 38.5681 72.4048C38.7333 72.4263 38.7848 72.349 38.7826 72.1903C38.7612 70.9265 38.847 69.6541 38.7397 68.3882Z" fill="#5D5C60"/>
<path d="M81.7555 66.4142C80.6162 66.161 79.5176 66.2168 78.462 66.7661C78.2646 66.8691 78.1981 66.9914 78.2002 67.2145C78.2109 68.6414 78.2023 70.0682 78.2088 71.4951C78.2109 71.7955 78.0736 72.2074 78.2689 72.3683C78.4534 72.5207 78.8503 72.4005 79.1529 72.4284C79.4146 72.452 79.4983 72.3748 79.4962 72.098C79.4811 70.7741 79.4897 69.4481 79.4897 68.1243C79.4897 67.6329 79.4919 67.6436 79.9682 67.5342C80.6312 67.3819 81.2685 67.5192 81.9508 67.7102C81.9508 67.3347 81.9401 66.9957 81.9551 66.6567C81.9615 66.4957 81.9014 66.4464 81.7555 66.4142Z" fill="#5D5C60"/>
<path d="M56.9197 66.7081C56.9219 66.4957 56.8618 66.4292 56.6537 66.4464C56.4177 66.4657 56.1773 66.4678 55.9413 66.4464C55.6903 66.4228 55.6173 66.5 55.6195 66.7618C55.6324 68.3131 55.6238 69.8665 55.6281 71.4178C55.6281 71.744 55.5186 72.1838 55.6838 72.3662C55.877 72.5786 56.3232 72.4027 56.658 72.437C56.864 72.4585 56.9262 72.3962 56.924 72.1795C56.9112 71.2741 56.9176 70.3665 56.9176 69.461C56.9154 68.5427 56.909 67.6243 56.9197 66.7081Z" fill="#5D5C60"/>
<path d="M84.1608 66.7553C84.1629 66.5301 84.12 66.4228 83.8668 66.4464C83.6415 66.4678 83.412 66.4678 83.1867 66.4464C82.9485 66.4249 82.8841 66.5065 82.8863 66.7446C82.897 68.3324 82.8884 69.918 82.8949 71.5058C82.897 71.8062 82.7597 72.2203 82.9549 72.3791C83.1416 72.5314 83.5386 72.4113 83.8411 72.437C84.0878 72.4585 84.1694 72.3898 84.1629 72.128C84.1436 71.2333 84.1565 70.3364 84.1565 69.4417C84.1565 68.5448 84.1479 67.6501 84.1608 66.7553Z" fill="#5D5C60"/>
<path d="M56.452 65.4251C56.9154 65.4251 56.9154 65.4251 56.9154 64.9702C56.9154 64.3329 56.9154 64.3329 56.2954 64.3329C56.1709 64.3329 56.0465 64.3458 55.9242 64.3308C55.6967 64.3029 55.6152 64.3715 55.6173 64.6183C55.6259 65.4229 55.6152 65.4251 56.452 65.4251Z" fill="#5D5C60"/>
<path d="M83.4592 64.3329C82.8906 64.3329 82.8906 64.3329 82.8906 64.8221C82.8906 65.4251 82.8906 65.4251 83.5171 65.4251C83.5858 65.4251 83.6544 65.4165 83.7209 65.4272C84.0621 65.483 84.1844 65.3693 84.1651 65.0024C84.1308 64.3351 84.1565 64.3329 83.4592 64.3329Z" fill="#5D5C60"/>
</g>
<rect x="1.5" y="1" width="110" height="110" rx="9" stroke="#CCCCCC" stroke-width="2"/>
<defs>
<clipPath id="clip0_528_616">
<rect x="2.5" y="2" width="108" height="108" rx="8" fill="white"/>
</clipPath>
</defs>
</svg>
