<svg width="113" height="112" viewBox="0 0 113 112" fill="none" xmlns="http://www.w3.org/2000/svg">
<g clip-path="url(#clip0_528_618)">
<rect x="2.5" y="2" width="108" height="108" rx="8" fill="white"/>
<path d="M33.6793 38.7978C33.7619 38.8184 33.8721 38.8115 33.9203 38.8597C34.5952 39.5415 35.2494 40.237 35.9243 40.9119C36.6404 41.6212 37.4255 42.2685 38.0866 43.026C38.6169 43.6389 39.1953 43.7904 39.9666 43.7698C41.8122 43.7216 43.6646 43.756 45.5102 43.756H46.0473V44.3276C46.0473 46.3866 46.0473 48.4457 46.0473 50.5116C46.0473 50.9179 46.192 51.2003 46.5363 51.4688C47.0597 51.882 47.5004 52.3985 47.9756 52.8737C48.3681 53.2662 48.7675 53.6587 49.1531 54.0582C49.6559 54.5815 50.1517 55.1049 50.6544 55.6283C50.7164 55.6971 50.7852 55.7591 50.861 55.8073C51.0745 55.945 51.0951 56.0415 50.8816 56.2412C50.4616 56.6337 50.1035 57.0951 49.6834 57.5014C49.1807 57.9903 48.6435 58.4517 48.1339 58.9338C47.7896 59.2574 47.4728 59.6018 47.1492 59.9461C46.9701 60.132 46.8462 60.3937 46.6327 60.5245C46.1093 60.8344 46.0473 61.2889 46.0542 61.833C46.0749 63.7956 46.0611 65.7583 46.0611 67.7209V68.2994C42.0601 67.714 38.6926 65.9511 35.635 63.527L35.6557 63.3893C35.821 63.3755 35.9862 63.3549 36.1515 63.3549C37.639 63.3549 39.1265 63.348 40.6139 63.3549C40.9514 63.3549 41.0753 63.2654 41.0684 62.9073C41.0478 61.7641 41.0684 60.6141 41.0616 59.4709C41.0616 59.1955 41.1442 59.0233 41.3508 58.8236C41.8604 58.3347 42.3149 57.7768 42.8038 57.2741C43.155 56.916 43.5269 56.5717 43.9125 56.2481C44.1191 56.069 44.1054 55.9726 43.9125 55.7935C43.4787 55.3804 43.0793 54.9258 42.6592 54.4989C42.2391 54.0788 41.7915 53.6863 41.3921 53.2387C41.2268 53.0527 41.0822 52.7842 41.0753 52.55C41.0409 51.4551 41.0616 50.3601 41.0616 49.2652V48.7211H39.6085C39.0714 48.7211 38.5136 48.6454 37.9902 48.7349C36.9297 48.914 36.3443 48.3011 35.7383 47.5987C35.2907 47.0822 34.7467 46.6483 34.244 46.18C34.0649 46.0079 33.8859 45.8288 33.7068 45.6567C33.7068 43.3704 33.693 41.0841 33.693 38.8046" fill="#A2C33D"/>
<path d="M33.6655 73.2163C33.5622 73.175 33.4245 73.1543 33.3556 73.0786C32.2056 71.8803 31.0693 70.6821 29.9261 69.4838C29.6231 69.1602 29.327 68.8227 28.9827 68.5542C28.7692 68.3958 28.4593 68.2925 28.1908 68.2856C26.1592 68.2649 24.1346 68.2718 22.1031 68.2718H21.5178C21.5109 68.0652 21.4902 67.8931 21.4902 67.714C21.4902 65.9166 21.442 64.1124 21.5109 62.315C21.5453 61.406 21.2561 60.7931 20.5881 60.194C19.5965 59.2988 18.7081 58.2864 17.7715 57.3292C17.4134 56.9642 17.0347 56.6268 16.6559 56.2825C16.4631 56.1103 16.4287 55.9657 16.6353 55.7591C17.9919 54.4163 19.3348 53.0596 20.6845 51.703C20.7878 51.5997 20.8842 51.4964 21.0013 51.4069C21.3181 51.159 21.4971 50.8628 21.4902 50.429C21.4696 48.4181 21.4833 46.4073 21.4833 44.3965V43.7836C21.9516 43.8524 22.3924 43.8731 22.7987 43.9833C23.7628 44.2381 24.7613 44.4309 25.6497 44.851C26.9925 45.4776 28.4042 45.9872 29.5956 46.9307C30.2774 47.4678 31.0349 47.9154 31.7579 48.4044C31.8268 48.4526 31.8544 48.549 31.9508 48.7074H26.3176C26.3176 50.0227 26.3039 51.276 26.3245 52.5294C26.3245 52.8806 26.2419 53.1216 25.9733 53.3695C25.0781 54.2097 24.2173 55.0842 23.2394 56.0483C23.9487 56.7232 24.6098 57.3361 25.264 57.9628C25.5808 58.2658 25.9045 58.5688 26.1868 58.8993C26.2832 59.0164 26.3108 59.223 26.3108 59.3883C26.3176 60.6829 26.3108 61.9707 26.3108 63.3204C26.4967 63.3273 26.6688 63.348 26.841 63.348C27.9842 63.348 29.1342 63.3342 30.2774 63.3618C30.4977 63.3618 30.7663 63.4995 30.9316 63.6579C31.8612 64.56 32.7703 65.4897 33.6793 66.4125C33.6724 68.685 33.6655 70.9506 33.6586 73.2232" fill="#689584"/>
<path d="M33.6655 73.2163C33.6724 70.9438 33.6793 68.6781 33.6862 66.4056C34.0098 66.1164 34.3335 65.8202 34.6709 65.5103C38.851 68.9329 43.6164 70.7165 49.0636 70.8611C48.8708 70.9506 48.7262 71.0471 48.5678 71.0815C46.5638 71.5222 44.5323 71.7495 42.5008 71.4602C40.9858 71.2468 39.4914 70.8336 37.9902 70.4893C37.7974 70.4411 37.6045 70.3446 37.4324 70.2345C37.0881 70.021 36.8746 70.2069 36.6404 70.4342C36.1308 70.9438 35.6006 71.4396 35.091 71.9492C34.7054 72.3348 34.3473 72.7411 33.9685 73.1268C33.8996 73.1956 33.7619 73.1887 33.6517 73.2094" fill="#A3C340"/>
<path d="M33.6793 38.7978C33.6793 41.0841 33.693 43.3704 33.693 45.6498C33.5691 45.7737 33.4382 45.8977 33.3143 46.0285C32.8185 46.5381 32.7083 46.5313 32.1642 46.0836C30.9453 45.092 29.6645 44.1899 28.1976 43.5838C27.1991 43.1707 26.2212 42.6955 25.2089 42.3099C24.6373 42.0895 24.0176 41.9862 23.4184 41.8485C22.6472 41.6694 21.8759 41.4697 21.0977 41.3664C20.1956 41.2562 19.2866 41.2493 18.2329 41.1805C18.474 41.1047 18.5841 41.0703 18.7012 41.0427C20.9462 40.4781 23.2187 40.237 25.5119 40.6571C26.8272 40.8981 28.1219 41.2425 29.4303 41.5386C29.4441 41.5386 29.4648 41.5386 29.4785 41.5386C30.1901 41.8048 30.7984 41.6648 31.3034 41.1185C31.9783 40.3954 32.6601 39.6723 33.3487 38.9561C33.4314 38.8666 33.5691 38.8391 33.6862 38.7771" fill="#699685"/>
<path d="M94.0253 55.3115H92.7789C92.7789 54.065 92.7444 52.8461 92.7926 51.6272C92.8202 51.0075 92.5172 50.5667 92.0833 50.3326C91.6288 50.0847 91.0366 50.0571 90.5958 50.4979C90.4857 50.608 90.4444 50.8353 90.4444 51.0075C90.4306 52.4261 90.4444 53.8447 90.4444 55.2977H89.1566V54.7881C89.1566 53.6587 89.1566 52.5294 89.1566 51.4C89.1566 50.8904 88.95 50.4841 88.4886 50.2775C88.0065 50.0571 87.132 50.2224 86.8634 50.5736C86.7808 50.6838 86.7876 50.8766 86.7808 51.035C86.7808 52.4398 86.7808 53.8447 86.7808 55.2908H85.4517C85.4517 55.1324 85.431 54.9603 85.431 54.7881C85.431 53.3626 85.431 51.944 85.431 50.5185C85.431 50.2499 85.3897 49.8712 85.5343 49.7335C85.8098 49.4787 86.2023 49.3203 86.5742 49.2032C87.5383 48.9002 88.4955 48.9759 89.4596 49.2996C89.7488 49.396 90.1413 49.2101 90.4788 49.1206C91.2845 48.9002 92.1109 48.9346 92.8271 49.2721C93.5433 49.6095 94.0253 50.2706 94.0322 51.1452C94.0391 52.5156 94.0322 53.886 94.0322 55.3115" fill="#5D5C60"/>
<path d="M33.6724 51.765C33.9134 51.8476 34.182 51.8958 34.4023 52.0267C35.3114 52.5431 36.1928 53.1147 37.1156 53.5968C37.4462 53.7689 37.5426 53.9686 37.5426 54.2716C37.5495 55.4492 37.5632 56.6268 37.5288 57.8044C37.5219 58.0316 37.336 58.3347 37.1432 58.4586C36.124 59.0784 35.0772 59.6569 34.0305 60.2353C33.9341 60.2904 33.7894 60.2766 33.6655 60.2904C33.6655 59.9874 33.6724 59.6844 33.6724 59.3814C33.6724 56.8472 33.6724 54.313 33.6724 51.7787" fill="#F4C81E"/>
<path d="M33.6724 51.765C33.6724 54.2992 33.6724 56.8334 33.6724 59.3676C33.6724 59.6706 33.6724 59.9736 33.6655 60.2766C33.2385 60.0563 32.8116 59.8497 32.3984 59.6155C31.7373 59.2505 31.0831 58.858 30.4151 58.493C30.0983 58.3209 29.9743 58.0661 29.9743 57.7149C29.9812 56.6544 30.0226 55.587 29.9606 54.5264C29.9261 53.8998 30.2223 53.6381 30.6974 53.3833C31.5169 52.9288 32.3157 52.433 33.1283 51.9647C33.2936 51.8683 33.4933 51.8338 33.6724 51.765Z" fill="#EBA227"/>
<path d="M59.1936 48.0463H56.3701V50.3808C57.0588 50.3808 57.7337 50.3808 58.4154 50.3808C58.9113 50.3808 59.1592 50.631 59.1592 51.1314C59.1592 51.2898 59.1592 51.4482 59.1592 51.641H56.3839V54.0237H59.352V55.3046C58.2157 55.3046 57.0795 55.3046 55.9432 55.2977C55.8261 55.2977 55.709 55.1875 55.592 55.1393C55.0755 54.9465 54.9171 54.5196 54.9171 54.0375C54.9033 52.0404 54.8964 50.0502 54.9171 48.0532C54.924 47.2888 55.5093 46.7378 56.2806 46.731C57.2447 46.7172 58.2088 46.731 59.2005 46.731V48.0532L59.1936 48.0463Z" fill="#5E5D61"/>
<path d="M56.0878 63.4513C56.7214 64.0917 57.8989 64.2777 58.6565 63.8369C59.0559 63.6028 59.2074 62.6318 58.8286 62.377C58.2639 61.9982 57.6648 61.6539 57.045 61.3991C55.7504 60.862 54.5659 59.8772 54.9929 58.2933C55.2545 57.3292 55.8743 56.8127 56.8522 56.6888C57.7956 56.5648 58.7322 56.6199 59.6343 56.9849C59.9442 57.1089 60.0062 57.3223 59.7789 57.6322C59.5999 57.8733 59.4071 58.0936 59.2143 58.3278C58.4499 57.8251 57.5959 57.8388 56.742 58.0799C56.5699 58.1281 56.4252 58.4793 56.3701 58.7203C56.26 59.1748 56.4321 59.5604 56.8591 59.7739C57.4995 60.0838 58.1813 60.318 58.8011 60.6692C60.0131 61.3578 60.8463 62.5216 60.1508 64.1124C59.7583 65.0145 58.5738 65.6068 57.4789 65.4759C56.6318 65.3795 55.895 65.0076 55.1994 64.5531C55.1512 64.5187 55.1444 64.2983 55.1994 64.2432C55.4818 63.9678 55.7917 63.713 56.0878 63.4513Z" fill="#5D5C60"/>
<path d="M92.2968 65.2693C92.2968 65.2693 92.2555 65.29 92.2348 65.2969C91.3763 65.3703 90.9471 64.987 90.9471 64.1468C90.9471 63.3755 90.9471 62.6111 90.9471 61.8399C90.9333 60.5245 90.2377 60.0287 88.95 60.4006C88.8398 60.435 88.7296 60.497 88.6263 60.497C88.1994 60.5108 88.1443 60.7656 88.1443 61.1237C88.158 62.315 88.1443 63.5133 88.1443 64.7046V65.2762H86.9116C86.9047 65.1591 86.884 65.0214 86.884 64.8768C86.884 62.5905 86.884 60.2973 86.884 58.011C86.884 57.1984 87.2628 56.8196 88.1374 56.7439V59.3056C88.282 59.2781 88.3922 59.2919 88.4679 59.2437C89.2599 58.7341 89.9898 58.8993 90.83 59.2368C91.8905 59.6637 92.2899 60.435 92.3312 61.4611C92.3794 62.6662 92.345 63.8783 92.345 65.0903C92.345 65.1522 92.3175 65.2142 92.3037 65.2693" fill="#605F62"/>
<path d="M81.0099 60.435C81.0099 60.318 80.9961 60.2353 80.9961 60.1527C80.9824 59.1404 81.0925 59.0095 82.1324 58.9475C82.5594 58.92 82.9863 58.8925 83.4064 58.9475C84.3016 59.0577 85.6032 59.7395 85.6238 60.9171C85.6445 62.0465 85.7478 63.1758 85.7753 64.3052C85.7753 64.4843 85.6238 64.7528 85.4654 64.8355C84.5427 65.3313 83.5717 65.6894 82.5112 65.3864C81.5608 65.1109 80.7551 64.622 80.4865 63.5752C80.335 63.0037 80.5554 62.4734 80.8309 62.0051C81.3542 61.0961 82.2977 61.0135 83.2136 60.924C83.5648 60.8895 83.9229 60.924 84.2879 60.924C84.1226 60.1664 83.2756 60.0494 81.0237 60.4488M84.4738 62.1084C83.9711 62.1084 83.5097 62.0533 83.069 62.1153C81.8225 62.2875 81.8225 62.2668 81.912 63.5408C81.9258 63.7199 82.1117 63.9609 82.2839 64.0298C82.9381 64.3052 83.6199 64.2226 84.2879 64.0298C84.3636 64.0091 84.4669 63.8783 84.4669 63.7956C84.4807 63.2447 84.4738 62.6938 84.4738 62.0947" fill="#5F5E61"/>
<path d="M71.0727 60.7449C70.0673 59.8497 68.9035 60.2491 67.7328 60.3937C67.7328 60.1114 67.7535 59.8359 67.7328 59.5604C67.7053 59.223 67.905 59.0577 68.1735 59.0302C68.8691 58.9751 69.5853 58.8856 70.2739 58.9544C71.4377 59.0715 72.3881 60.1458 72.4294 61.3165C72.4638 62.3288 72.45 63.3411 72.4294 64.3603C72.4294 64.5118 72.3192 64.7253 72.1952 64.7942C71.2036 65.3451 70.1431 65.7169 69.0137 65.3244C68.3319 65.0903 67.6708 64.7666 67.299 64.0573C67.051 63.589 67.1819 62.4803 67.4642 62.0327C68.084 61.0479 69.0619 60.979 70.0535 60.9033C70.3841 60.8758 70.7215 60.9033 71.059 60.9033C71.059 60.8482 71.0727 60.7931 71.0796 60.738M71.1072 64.078V62.0465C70.4805 62.0809 69.8952 62.0809 69.3167 62.1566C68.6556 62.2462 68.5041 62.4596 68.5247 63.1345C68.5385 63.7543 68.6625 63.9815 69.2754 64.0642C69.8676 64.1468 70.4805 64.0848 71.1141 64.0848" fill="#5D5C60"/>
<path d="M61.9688 51.4138C62.5335 50.7733 63.0982 50.1329 63.6767 49.5062C63.7938 49.3754 63.9797 49.2376 64.1381 49.2239C64.6201 49.1894 65.1091 49.2101 65.722 49.2101C64.93 50.0502 64.2276 50.8215 63.4976 51.5653C63.0294 52.0404 63.0087 52.0886 63.4219 52.5845C64.0761 53.3695 64.7303 54.1546 65.3845 54.9327C65.4878 55.0498 65.6187 55.1324 65.7426 55.2357C64.7992 55.5663 64.0348 55.3322 63.4357 54.554C63.2015 54.2441 62.9467 53.948 62.6919 53.6519C62.444 53.3626 62.1823 53.0872 61.8655 52.736V55.2839H60.5915C60.5778 55.1807 60.5571 55.0774 60.5571 54.9672C60.5571 52.7084 60.5571 50.4565 60.5571 48.1978C60.5571 47.3025 60.8877 46.91 61.8105 46.7447V51.3587C61.8655 51.3793 61.9137 51.3931 61.9688 51.4138Z" fill="#5D5C60"/>
<path d="M68.6281 55.3941C67.6571 55.4217 66.8031 55.1738 66.2178 54.3336C65.6669 53.5417 65.5498 52.6464 65.6806 51.7305C65.7564 51.1865 65.9079 50.5943 66.1971 50.1398C66.7963 49.2101 68.2355 48.7969 69.3511 49.0999C70.6114 49.4442 71.3344 50.2362 71.5066 51.5515C71.6237 52.3985 71.5686 53.2524 71.2174 53.9893C70.8317 54.795 70.0811 55.2633 69.1652 55.3872C68.9861 55.4079 68.8071 55.3872 68.6281 55.3872M68.6143 54.2097C69.3993 54.2097 70.0398 53.9204 70.1431 53.3144C70.267 52.6051 70.2601 51.8476 70.1431 51.1452C70.088 50.8422 69.6128 50.5943 69.3029 50.3601C68.7451 49.9469 67.3678 50.3326 67.1475 50.9937C66.9891 51.4757 66.8858 52.006 66.8927 52.5087C66.8995 53.5279 67.6295 54.3474 68.6212 54.2097" fill="#5D5C60"/>
<path d="M84.6184 52.2264C84.522 52.7291 84.4945 53.2593 84.3223 53.7414C84.0055 54.6435 83.3031 55.2013 82.3941 55.3597C81.492 55.525 80.5347 55.4905 79.7841 54.8708C79.4191 54.5746 79.2057 54.0926 78.9371 53.6863C78.5446 53.0941 78.5514 52.3916 78.6754 51.765C78.7925 51.1383 79.0128 50.4428 79.4122 49.9745C80.1835 49.0861 81.2578 48.8313 82.4147 49.1206C83.6405 49.4305 84.7355 50.4979 84.6253 52.2332M83.3513 52.2539C83.4133 51.462 83.124 50.8284 82.3734 50.4083C81.6641 50.0089 80.4452 50.2637 80.1904 50.9937C80.0045 51.5239 79.9563 52.1437 79.9976 52.7153C80.094 54.1339 81.0099 54.368 82.1255 54.1959C82.8692 54.0788 83.3513 53.2938 83.3513 52.2539Z" fill="#5C5C5F"/>
<path d="M63.0362 65.0765C62.2581 63.1552 61.4868 61.2407 60.6811 59.2299C61.1494 59.2299 61.5212 59.2023 61.8793 59.2437C62.017 59.2574 62.1823 59.4296 62.2374 59.5673C62.4578 60.1182 62.6231 60.6967 62.8503 61.2476C63.1189 61.9087 63.4219 62.5561 63.7455 63.2929C63.8488 63.1276 63.9659 62.9761 64.0348 62.8109C64.4893 61.6815 64.93 60.5452 65.3914 59.4227C65.4327 59.3263 65.6049 59.2437 65.7151 59.2299C66.0732 59.2092 66.4313 59.223 66.8445 59.223C66.7618 59.5122 66.7067 59.7739 66.6034 60.0149C66.3486 60.621 66.0732 61.2201 65.8046 61.8192C65.4396 62.6456 65.054 63.4582 64.7028 64.2914C64.448 64.8974 64.2483 65.531 64.0003 66.1439C63.8213 66.5777 63.6147 66.9978 63.4012 67.4179C63.3599 67.5005 63.1946 67.5625 63.0844 67.5694C62.7264 67.5901 62.3683 67.5694 61.9826 67.5694C62.3476 66.6948 62.6988 65.8547 63.0294 65.0696" fill="#5D5C60"/>
<path d="M77.7526 55.3046H76.5612V53.1836C76.5612 52.7084 76.5612 52.2332 76.5612 51.7581C76.5475 50.4359 75.3492 49.823 74.1441 50.4083C73.662 50.6425 73.6552 50.9042 73.6552 51.2967C73.662 52.6189 73.6552 53.9411 73.6552 55.2977H72.3605V50.5392C72.3605 49.8505 72.7186 49.3754 73.3866 49.2445C74.2818 49.0655 75.1702 48.914 76.093 49.1894C76.9125 49.4305 77.6837 50.064 77.7251 50.8973C77.7939 52.3641 77.7457 53.8309 77.7457 55.3184" fill="#5C5C5F"/>
<path d="M74.8121 65.2969H73.6414C73.6276 65.1454 73.6001 65.0076 73.6001 64.863C73.6001 63.2447 73.5863 61.6333 73.6138 60.0149C73.6138 59.829 73.7447 59.5673 73.8962 59.4778C74.8672 58.9131 75.9277 58.7685 77.0226 59.0302C77.1741 59.0646 77.3463 59.2988 77.3807 59.464C77.4358 59.7601 77.3945 60.0769 77.3945 60.373C76.8505 60.318 76.3409 60.256 75.8313 60.2078C75.7073 60.194 75.5696 60.2078 75.4388 60.2353C75.0187 60.3111 74.7639 60.4419 74.7914 60.9859C74.8465 62.4046 74.8121 63.8232 74.8121 65.29" fill="#5B5A5E"/>
<path d="M96.5044 49.2445H95.1753V55.339H96.5044V49.2445Z" fill="#5D5C60"/>
<path d="M79.6808 59.2643H78.3655V65.3106H79.6808V59.2643Z" fill="#605F62"/>
<path d="M96.5044 47.0891H95.1753V48.1151H96.5044V47.0891Z" fill="#616063"/>
<path d="M79.6808 56.9987H78.3655V58.011H79.6808V56.9987Z" fill="#616064"/>
</g>
<rect x="1.5" y="1" width="110" height="110" rx="9" stroke="#CCCCCC" stroke-width="2"/>
<defs>
<clipPath id="clip0_528_618">
<rect x="2.5" y="2" width="108" height="108" rx="8" fill="white"/>
</clipPath>
</defs>
</svg>
