<svg width="113" height="112" viewBox="0 0 113 112" fill="none" xmlns="http://www.w3.org/2000/svg">
<g clip-path="url(#clip0_642_1149)">
<rect x="2.5" y="2" width="108" height="108" rx="8" fill="white"/>
<path fill-rule="evenodd" clip-rule="evenodd" d="M58.0341 64.2636C58.0341 64.5422 58.0462 64.8167 58.0543 65.0589H57.4407L57.4043 64.7804H57.3922C57.2671 64.958 57.049 65.0993 56.7786 65.0993C56.2739 65.0993 56.068 64.7319 56.068 64.0254V62.4429H56.7826V63.9528C56.7826 64.2959 56.8472 64.5139 57.0491 64.5139C57.1702 64.5139 57.2428 64.4251 57.2751 64.3363C57.3034 64.2838 57.3195 64.2031 57.3195 64.1102V62.4429H58.0301V64.2596L58.0341 64.2636Z" fill="#767775"/>
<path fill-rule="evenodd" clip-rule="evenodd" d="M60.1698 63.2342C60.1698 62.9475 60.1536 62.6932 60.1496 62.4469H60.7592L60.7915 62.7457H60.8036C60.9449 62.5357 61.171 62.4025 61.4495 62.4025C61.9542 62.4025 62.152 62.7981 62.152 63.3795V65.0589H61.4415V63.4239C61.4415 63.1978 61.3849 62.9919 61.1831 62.9919C61.062 62.9919 60.9651 63.0727 60.9166 63.2261C60.8924 63.2786 60.8803 63.3674 60.8803 63.4683V65.063H60.1698V63.2342Z" fill="#767775"/>
<path fill-rule="evenodd" clip-rule="evenodd" d="M65.1112 61.7404V62.4469H65.632V62.9435H65.1112V64.1344C65.1112 64.4372 65.2404 64.5139 65.3817 64.5139L65.5674 64.4978V65.0428C65.4746 65.0711 65.3292 65.0912 65.1395 65.0912C64.9336 65.0912 64.756 65.0428 64.6308 64.9257C64.4855 64.7885 64.4047 64.5906 64.4047 64.1788V62.9435H64.0898V62.4469H64.4047V61.9059L65.1153 61.7404H65.1112Z" fill="#767775"/>
<path fill-rule="evenodd" clip-rule="evenodd" d="M69.528 64.2636C69.528 64.5421 69.5401 64.8167 69.5482 65.0589H68.9386L68.9022 64.7803H68.8901C68.765 64.958 68.547 65.0993 68.2765 65.0993C67.7718 65.0993 67.5659 64.7319 67.5659 64.0254V62.4428H68.2805V63.9527C68.2805 64.2959 68.3451 64.5139 68.5429 64.5139C68.664 64.5139 68.7367 64.4251 68.769 64.3363C68.7973 64.2838 68.8134 64.203 68.8134 64.1102V62.4428H69.5239V64.2595L69.528 64.2636Z" fill="#767775"/>
<path fill-rule="evenodd" clip-rule="evenodd" d="M72.366 63.5894H72.3781C72.4265 63.44 72.4629 63.331 72.5153 63.2261L72.8585 62.4469H73.6215L72.9837 63.545L73.6619 65.063H72.8706L72.4911 63.9891L72.37 64.2152V65.067H71.6595V61.365H72.37V63.5935L72.366 63.5894Z" fill="#767775"/>
<path fill-rule="evenodd" clip-rule="evenodd" d="M77.9897 64.4291C78.0906 64.4937 78.2885 64.5704 78.4661 64.5704C78.6437 64.5704 78.7527 64.4897 78.7527 64.3363C78.7527 64.2031 78.676 64.1183 78.4419 63.981C78.0099 63.7388 77.9049 63.4683 77.9049 63.2261C77.9049 62.7537 78.2481 62.4025 78.7769 62.4025C78.999 62.4025 79.1726 62.455 79.3139 62.5196L79.1887 63.0323C79.0838 62.9717 78.9627 62.9233 78.8214 62.9233C78.6437 62.9233 78.5549 63.0323 78.5549 63.1453C78.5549 63.2584 78.6155 63.327 78.8617 63.4723C79.2533 63.6904 79.3987 63.9649 79.3987 64.2636C79.3987 64.7965 79.0071 65.0872 78.462 65.0872C78.24 65.0872 77.9776 65.0266 77.8565 64.9378L77.9857 64.4251L77.9897 64.4291Z" fill="#767775"/>
<path fill-rule="evenodd" clip-rule="evenodd" d="M82.6203 63.5087C82.6203 63.1736 82.5355 62.9112 82.3215 62.9112C82.0874 62.9112 81.9945 63.2503 81.9905 63.5087H82.6203ZM81.9865 64.0012C81.9945 64.409 82.2368 64.5583 82.5476 64.5583C82.7495 64.5583 82.9271 64.5139 83.0523 64.4736L83.1492 64.9742C82.9635 65.0428 82.6889 65.0912 82.4184 65.0912C81.6958 65.0912 81.3002 64.6189 81.3002 63.8034C81.3002 62.9273 81.7604 62.4025 82.3619 62.4025C82.9312 62.4025 83.2622 62.8466 83.2622 63.6379C83.2622 63.8236 83.2582 63.9285 83.242 64.0012H81.9865Z" fill="#767775"/>
<path fill-rule="evenodd" clip-rule="evenodd" d="M85.2889 63.2342C85.2889 62.9475 85.2727 62.6932 85.2687 62.4469H85.8864L85.9186 62.7497H85.9308C86.068 62.5519 86.2901 62.4025 86.5646 62.4025C86.8633 62.4025 87.0531 62.5357 87.1459 62.7537H87.1581C87.2227 62.6528 87.3195 62.5559 87.4245 62.4913C87.5335 62.4308 87.6627 62.3985 87.8 62.3985C88.2723 62.3985 88.4822 62.7658 88.4822 63.3997V65.0589H87.7798V63.5208C87.7798 63.222 87.7475 62.9798 87.5295 62.9798C87.4043 62.9798 87.3115 63.0646 87.263 63.222L87.2428 63.4037V65.063H86.5363V63.4199C86.5363 63.2342 86.5162 62.9798 86.2941 62.9798C86.1851 62.9798 86.0761 63.0606 86.0277 63.214L85.9994 63.4118V65.0589H85.2969V63.2301L85.2889 63.2342Z" fill="#767775"/>
<path fill-rule="evenodd" clip-rule="evenodd" d="M92.5396 64.2636C92.5396 64.5422 92.5517 64.8167 92.5597 65.0589H91.9461L91.9098 64.7804H91.8977C91.7725 64.958 91.5545 65.0993 91.284 65.0993C90.7794 65.0993 90.5735 64.7319 90.5735 64.0254V62.4429H91.288V63.9528C91.288 64.2959 91.3526 64.5139 91.5545 64.5139C91.6756 64.5139 91.7483 64.4251 91.7806 64.3363C91.8088 64.2838 91.825 64.2031 91.825 64.1102V62.4429H92.5355V64.2596L92.5396 64.2636Z" fill="#767775"/>
<path fill-rule="evenodd" clip-rule="evenodd" d="M95.7652 63.7872C95.527 63.7913 95.2 63.868 95.2 64.2313C95.2 64.4937 95.3454 64.5906 95.4544 64.5906C95.5674 64.5906 95.6966 64.522 95.745 64.3646L95.7612 64.2434V63.7872H95.7652ZM95.8621 65.0589L95.8258 64.8006H95.8177C95.6724 65.0024 95.4665 65.0993 95.2323 65.0993C94.8327 65.0993 94.5339 64.7683 94.5339 64.3C94.5339 63.6177 95.1476 63.331 95.7491 63.327V63.2665C95.7491 63.0646 95.6239 62.9152 95.3736 62.9152C95.1637 62.9152 94.9901 62.9677 94.8327 63.0646L94.6994 62.5963C94.8448 62.5115 95.1556 62.3985 95.523 62.3985C96.3304 62.3985 96.4596 62.9556 96.4596 63.4845V64.4574C96.4596 64.6673 96.4717 64.8813 96.504 65.0549H95.8662L95.8621 65.0589Z" fill="#767775"/>
<path fill-rule="evenodd" clip-rule="evenodd" d="M56.2497 53.2301H57.6788V56.4962H57.699C57.8201 56.1934 57.9372 55.8704 58.0583 55.5595L59.0394 53.2301H60.6138L58.9667 56.3872L60.6381 60.4929H59.0757L58.0059 57.4853L57.6788 58.0787V60.4929H56.2497V53.2301Z" fill="#242222"/>
<path fill-rule="evenodd" clip-rule="evenodd" d="M64.3765 57.3036H62.693V59.2656H64.5945V60.4929H61.2638V53.2301H64.4612V54.4614H62.693V56.1288H64.3765V57.3036Z" fill="#242222"/>
<path fill-rule="evenodd" clip-rule="evenodd" d="M66.9523 53.2301V57.9496C66.9523 59.0154 67.2793 59.3383 67.6507 59.3383C68.0665 59.3383 68.3612 59.0477 68.3612 57.9496V53.2301H69.7904V57.7033C69.7904 59.5685 69.0798 60.5777 67.6628 60.5777C66.1246 60.5777 65.5231 59.5321 65.5231 57.7114V53.2301H66.9523Z" fill="#242222"/>
<path fill-rule="evenodd" clip-rule="evenodd" d="M73.3066 57.7356L73.0684 56.2176C72.9917 55.7776 72.8948 55.0509 72.8262 54.5704H72.7939C72.7172 55.0549 72.6082 55.8099 72.5315 56.2297L72.257 57.7356H73.3066ZM72.1157 58.8337L71.7887 60.4929H70.3999L71.9946 53.2301H73.7103L75.1435 60.4929H73.7547L73.4398 58.8337H72.1157Z" fill="#242222"/>
<path fill-rule="evenodd" clip-rule="evenodd" d="M75.947 60.493V53.2301H77.2591L78.3935 56.0763C78.6115 56.6375 78.9749 57.5741 79.1808 58.1999H79.201C79.1566 57.4328 79.0597 56.1732 79.0597 54.8369V53.2301H80.3152V60.493H79.0032L77.8768 57.7356C77.6386 57.1219 77.2995 56.2055 77.134 55.5475H77.1138C77.1461 56.2782 77.1985 57.4005 77.1985 58.8539V60.493H75.943H75.947Z" fill="#242222"/>
<path fill-rule="evenodd" clip-rule="evenodd" d="M85.6684 60.2992C85.3535 60.4283 84.6752 60.5575 84.1383 60.5575C83.2985 60.5575 82.6647 60.3193 82.1722 59.8349C81.5383 59.2333 81.1992 58.1554 81.2235 56.9039C81.2558 54.2636 82.7858 53.1655 84.3482 53.1655C84.9053 53.1655 85.3212 53.2745 85.5472 53.3795L85.2969 54.5987C85.087 54.4897 84.8165 54.4372 84.4572 54.4372C83.4843 54.4372 82.7091 55.0953 82.7091 56.9887C82.7091 58.7327 83.3995 59.3585 84.0656 59.3585C84.1948 59.3585 84.2957 59.3464 84.3482 59.3262V57.57H83.6901V56.4154H85.6684V60.2992Z" fill="#242222"/>
<path fill-rule="evenodd" clip-rule="evenodd" d="M89.0959 57.7356L88.8537 56.2176C88.7769 55.7776 88.6801 55.0509 88.6155 54.5704H88.5832C88.5065 55.0549 88.3975 55.8099 88.3207 56.2297L88.0462 57.7356H89.0959ZM87.9049 58.8337L87.5779 60.4929H86.1932L87.7878 53.2301H89.5036L90.9368 60.4929H89.548L89.2291 58.8337H87.9049Z" fill="#242222"/>
<path fill-rule="evenodd" clip-rule="evenodd" d="M91.7402 60.4929V53.2301H93.0482L94.1827 56.0763C94.4007 56.6375 94.76 57.5741 94.9699 58.1998H94.9901C94.9457 57.4328 94.8488 56.1732 94.8488 54.8369V53.2301H96.1044V60.4929H94.7923L93.67 57.7356C93.4277 57.1219 93.0926 56.2055 92.9271 55.5474H92.9069C92.9392 56.2782 92.9917 57.4005 92.9917 58.8539V60.4929H91.7362H91.7402Z" fill="#242222"/>
<path d="M57.9736 43.9931H56.3103V52.4469H57.9736V43.9931Z" fill="#242222"/>
<path fill-rule="evenodd" clip-rule="evenodd" d="M59.4633 52.4429V43.9891H60.9893L62.3094 47.2996C62.5638 47.9536 62.9836 49.0436 63.2259 49.7703H63.2501C63.1976 48.8821 63.0846 47.4126 63.0846 45.8583V43.9891H64.546V52.4429H63.02L61.7119 49.2333C61.4334 48.5188 61.0377 47.453 60.848 46.6859H60.8238C60.8601 47.5377 60.9247 48.8417 60.9247 50.5373V52.4429H59.4633Z" fill="#242222"/>
<path fill-rule="evenodd" clip-rule="evenodd" d="M66.0196 43.9931H67.6869V47.7921H67.7111C67.8524 47.4409 67.9897 47.0654 68.131 46.7021L69.2735 43.9931H71.1023L69.1847 47.6669L71.1266 52.4469H69.3098L68.0664 48.9467L67.6869 49.6371V52.4469H66.0196V43.9931Z" fill="#242222"/>
<path fill-rule="evenodd" clip-rule="evenodd" d="M71.8532 43.9931H73.5165V51.0541H75.7168V52.4429H71.8532V43.9931Z" fill="#242222"/>
<path fill-rule="evenodd" clip-rule="evenodd" d="M78.0422 43.9931V49.4837C78.0422 50.7271 78.4217 51.1025 78.8577 51.1025C79.3421 51.1025 79.6813 50.7634 79.6813 49.4837V43.9931H81.3486V49.197C81.3486 51.369 80.521 52.5438 78.8698 52.5438C77.0773 52.5438 76.3789 51.3286 76.3789 49.2091V43.9931H78.0422Z" fill="#242222"/>
<path fill-rule="evenodd" clip-rule="evenodd" d="M82.592 50.7634C82.9352 50.9532 83.5206 51.0904 84.001 51.0904C84.7882 51.0904 85.1718 50.6908 85.1718 50.1377C85.1718 49.524 84.7923 49.2212 84.0656 48.757C82.8948 48.0545 82.4507 47.1623 82.4507 46.3993C82.4507 45.0468 83.3672 43.9164 85.1597 43.9164C85.7168 43.9164 86.2537 44.0658 86.5081 44.2192L86.2416 45.6363C85.9994 45.4869 85.632 45.3496 85.1476 45.3496C84.437 45.3496 84.0939 45.7776 84.0939 46.2257C84.0939 46.7263 84.3482 46.9887 85.2767 47.5418C86.4071 48.22 86.827 49.0719 86.827 49.96C86.827 51.5022 85.6724 52.5196 83.9929 52.5196C83.3066 52.5196 82.6324 52.346 82.3539 52.1805L82.5961 50.7634H82.592Z" fill="#242222"/>
<path d="M89.4552 43.9931H87.7878V52.4469H89.4552V43.9931Z" fill="#242222"/>
<path fill-rule="evenodd" clip-rule="evenodd" d="M39.4713 41.2196C37.6143 36.0077 35.8339 35.3254 35.9146 33C35.9146 33 30.844 36.1126 30.8319 41.3407C30.8561 42.2652 31.0499 43.331 31.5505 44.4857C31.9057 45.0791 33.8314 48.1514 34.7923 46.7142C35.3535 45.5797 35.7572 43.2059 34.6631 38.2967C34.6631 38.2967 38.1956 43.9851 35.3696 47.5741C33.4883 49.956 30.9893 44.3605 30.9893 44.3605C30.9207 44.4816 31.1508 45.3496 31.5262 46.3105L31.4859 46.262C31.4859 46.262 31.6998 46.8353 32.0834 47.5539C32.2166 47.8123 32.3579 48.0585 32.4992 48.2765C33.1936 49.3827 34.1948 50.5131 35.3696 50.4122C37.6223 50.2224 41.3405 46.4477 39.4754 41.2196H39.4713Z" fill="#B1B2B2"/>
<path fill-rule="evenodd" clip-rule="evenodd" d="M39.4713 69.9641C37.6143 75.176 35.8339 75.8583 35.9146 78.1837C35.9146 78.1837 30.844 75.0711 30.8319 69.843C30.8561 68.9184 31.0499 67.8526 31.5505 66.7021C31.9057 66.1086 33.8314 63.0363 34.7923 64.4736C35.3535 65.608 35.7572 67.9818 34.6631 72.891C34.6631 72.891 38.1956 67.2027 35.3696 63.6136C33.4883 61.2317 30.9893 66.8272 30.9893 66.8272C30.9207 66.7061 31.1508 65.8381 31.5262 64.8773L31.4859 64.9257C31.4859 64.9257 31.6998 64.3524 32.0834 63.6338C32.2166 63.3755 32.3579 63.1292 32.4992 62.9112C33.1936 61.805 34.1948 60.6746 35.3696 60.7755C37.6223 60.9653 41.3405 64.74 39.4754 69.9681L39.4713 69.9641Z" fill="#056F3F"/>
<path fill-rule="evenodd" clip-rule="evenodd" d="M48.4622 51.7283C51.6192 47.0856 50.291 45.3375 54.0374 43.6823C54.0374 43.6823 47.4771 41.5991 43.1896 44.7239C42.4468 45.2971 41.6878 46.0925 41.0459 47.1946C40.7714 47.8405 39.4109 51.26 41.163 51.1833C42.4307 50.9612 44.6148 49.8712 47.9777 46.0359C47.9777 46.0359 45.4343 52.3379 40.7997 52.1764C37.7234 52.0593 40.8077 46.6617 40.8077 46.6617C40.6664 46.6778 40.0972 47.3843 39.532 48.2685L39.5481 48.2079C39.5481 48.2079 39.209 48.7287 38.8457 49.4715C38.7125 49.738 38.5954 49.9964 38.5025 50.2426C38.01 51.474 37.687 52.9758 38.4702 53.8761C39.9761 55.604 45.293 56.3912 48.4622 51.7323V51.7283Z" fill="#DC2835"/>
<path fill-rule="evenodd" clip-rule="evenodd" d="M26.2618 65.3537C20.6704 65.8704 19.7862 63.8599 16.5242 66.3387C16.5242 66.3387 17.8767 59.5886 22.6849 57.348C23.5448 56.9725 24.6106 56.698 25.8864 56.6657C26.5848 56.7424 30.2344 57.2027 29.322 58.6964C28.5186 59.6976 26.5081 61.0824 21.5182 62.1683C21.5182 62.1683 28.2642 62.9919 30.3635 58.8579C31.7564 56.1086 25.5351 56.1934 25.5351 56.1934C25.6159 56.0763 26.5121 55.9189 27.5618 55.8583L27.5012 55.8421C27.5012 55.8421 28.1189 55.7977 28.9465 55.8421C29.2453 55.8543 29.5279 55.8785 29.7903 55.9148C31.1064 56.0803 32.5759 56.5204 32.9836 57.6467C33.7669 59.8026 31.8855 64.8369 26.2739 65.3537H26.2618Z" fill="#672F8A"/>
<path fill-rule="evenodd" clip-rule="evenodd" d="M44.8286 65.3819C50.4201 65.8987 51.3042 63.8882 54.5702 66.367C54.5702 66.367 53.2178 59.6169 48.4096 57.3763C47.5497 57.0008 46.4838 56.7263 45.2081 56.694C44.5097 56.7667 40.8601 57.2309 41.7725 58.7247C42.5759 59.7259 44.5864 61.1106 49.5763 62.1966C49.5763 62.1966 42.8302 63.0202 40.7309 58.8862C39.3381 56.1369 45.5593 56.2216 45.5593 56.2216C45.4786 56.1046 44.5824 55.9471 43.5327 55.8866L43.5933 55.8704C43.5933 55.8704 42.9756 55.826 42.148 55.8704C41.8492 55.8825 41.5666 55.9067 41.3042 55.9431C39.9881 56.1086 38.5186 56.5486 38.1108 57.675C37.3276 59.8308 39.2089 64.8652 44.8205 65.3819H44.8286Z" fill="#F8B83C"/>
<path fill-rule="evenodd" clip-rule="evenodd" d="M22.701 51.7485C19.548 47.1058 20.2465 45.281 16.5 43.6258C16.5 43.6258 23.6861 41.6193 27.9776 44.744C28.7204 45.3173 29.4794 46.1126 30.1213 47.2148C30.3958 47.8607 31.7564 51.2802 30.0042 51.2035C28.7366 50.9814 26.5525 49.8914 23.1895 46.0561C23.1895 46.0561 25.7329 52.3581 30.3676 52.1966C33.4439 52.0795 30.3595 46.6819 30.3595 46.6819C30.5008 46.694 31.07 47.4045 31.6352 48.2887L31.6191 48.2281C31.6191 48.2281 31.9582 48.7489 32.3216 49.4917C32.4548 49.7582 32.5719 50.0206 32.6647 50.2628C33.1572 51.4941 33.4802 52.996 32.697 53.8962C31.1912 55.6241 25.8742 56.4114 22.7051 51.7525L22.701 51.7485Z" fill="#37A9E1"/>
</g>
<rect x="1.5" y="1" width="110" height="110" rx="9" stroke="#CCCCCC" stroke-width="2"/>
<defs>
<clipPath id="clip0_642_1149">
<rect x="2.5" y="2" width="108" height="108" rx="8" fill="white"/>
</clipPath>
</defs>
</svg>
