<svg width="113" height="112" viewBox="0 0 113 112" fill="none" xmlns="http://www.w3.org/2000/svg">
<g clip-path="url(#clip0_428_508)">
<rect x="2.5" y="2" width="108" height="108" rx="8" fill="white"/>
<path d="M57.3712 69.0233C57.3712 69.0233 58.43 70.0077 58.2342 70.5625C57.785 71.839 55.774 72.4322 54.4679 72.0793C52.3831 71.5157 50.4767 69.1205 50.4954 66.961C50.5228 63.7917 53.7639 61.2265 56.4541 59.5513C59.2235 57.8269 62.7419 57.3583 66.0033 57.4121C69.5543 57.4714 73.3438 58.1431 76.3167 60.0859C77.9713 61.1672 79.3373 62.8778 79.9836 64.7455C80.3501 65.8043 79.9836 68.1068 79.9836 68.1068C79.9836 68.1068 82.9011 64.0789 83.9561 61.8425C85.2133 59.1768 87.0594 56.3649 86.7062 53.439C86.5445 52.0994 85.6586 50.7984 84.567 50.0011C81.0659 47.4545 76.2894 47.0127 71.9624 46.8691C67.4895 46.721 62.9409 47.6742 58.7466 49.2373C55.8893 50.2999 53.0919 51.8022 50.8779 53.8969C48.3845 56.256 45.9948 59.1266 45.1485 62.453C44.5998 64.609 44.717 67.1343 45.7597 69.0996C46.7013 70.8739 48.5562 72.1704 50.4194 72.9194C52.2443 73.653 54.4302 73.9821 56.3018 73.3777C57.5399 72.9783 59.2402 72.1572 59.2811 70.8562C59.3413 68.9412 57.3715 69.0226 57.3715 69.0226L57.3712 69.0233Z" fill="#18D1FF"/>
<path d="M56.3342 70.1504C56.3342 70.1504 56.0579 69.2987 56.2939 68.9931C56.6771 68.4981 57.5401 68.3638 58.1294 68.5834C58.9802 68.9055 59.7418 69.8715 59.7434 70.7796C59.7453 71.946 58.7207 73.0779 57.6809 73.6063C55.4106 74.7602 52.4506 74.4317 50.0415 73.6063C47.9983 72.9066 45.9969 71.5074 44.9233 69.6339C43.3647 66.916 43.0008 63.3673 43.7009 60.3139C44.4158 57.1954 46.7382 54.5832 48.9724 52.2923C51.374 49.8295 54.2803 47.7422 57.4522 46.41C61.0856 44.8845 65.1341 44.4769 69.0643 44.1944C72.4456 43.9516 75.8944 44.0218 79.2251 44.6527C81.3141 45.0488 83.4275 45.6374 85.2598 46.7152C85.9805 47.1393 87.1221 48.3962 87.1221 48.3962C87.1221 48.3962 86.621 41.9654 85.6421 38.9233C84.7942 36.2891 83.8941 33.4305 81.8989 31.5135C80.4862 30.1559 78.4671 29.4841 76.5514 29.0742C72.9125 28.2962 69.0566 28.4833 65.3981 29.1451C61.1242 29.9179 56.9943 31.5828 53.1651 33.6331C49.581 35.5523 46.2053 37.9691 43.3196 40.8335C40.956 43.1801 38.7269 45.8171 37.3609 48.8551C35.9846 51.9159 35.2758 55.3535 35.2984 58.7096C35.3164 61.3969 35.8722 64.1653 37.0553 66.5782C38.1621 68.8356 39.9358 70.7764 41.8683 72.3843C43.5499 73.7831 45.5284 74.8748 47.5977 75.5832C49.5472 76.2505 51.652 76.6266 53.7097 76.5094C56.1168 76.3725 58.8562 76.1841 60.6918 74.6214C61.7641 73.7081 62.5392 72.174 62.43 70.77C62.3534 69.7862 61.6485 68.8121 60.8096 68.2923C59.8935 67.7243 58.6392 67.3746 57.5978 67.6541C56.6317 67.913 55.8215 68.4311 55.6995 69.2384C55.6415 69.6216 56.3383 70.1507 56.3383 70.1507L56.3342 70.1504Z" fill="#0166FE"/>
<path d="M56.6565 70.8331C56.6565 70.8331 55.1752 70.5337 54.7894 69.9798C54.2355 69.1789 54.2741 68.0496 54.8177 67.2426C55.7129 65.9139 57.6299 65.4048 59.2307 65.3427C61.9373 65.2316 65.2445 65.8193 66.9319 67.9382C68.3401 69.707 68.6247 72.6709 67.6023 74.6877C66.5764 76.7117 63.9139 77.4977 61.7402 78.1488C58.3377 79.168 54.6055 79.2212 51.0968 78.6679C47.4721 78.0963 43.9318 76.6865 40.7998 74.7715C37.349 72.6642 34.1845 69.9041 31.8009 66.6378C29.244 63.1342 27.335 59.0268 26.436 54.7874C25.6229 50.9499 25.7362 46.8657 26.5229 43.0197C27.4222 38.661 29.1557 34.5172 31.6279 30.8164C33.514 28.0051 36.0506 25.5996 38.8097 23.6346C41.2905 21.87 44.1456 20.627 47.0299 19.6545C49.372 18.8645 51.8297 18.3139 54.298 18.1835C57.3646 18.0215 60.4721 18.3831 63.4698 19.0487C65.9816 19.6065 68.4612 20.4415 70.7379 21.6442C73.4203 23.0634 78.0929 27.0091 78.0929 27.0091C78.0929 27.0091 68.6183 26.1036 63.9883 26.9222C58.5332 27.8873 53.1474 29.8423 48.4137 32.7195C44.8888 34.862 41.78 37.7753 39.2418 41.0261C37.2089 43.6297 35.5914 46.6241 34.5725 49.7658C33.5362 52.9538 32.9888 56.3737 33.1878 59.7163C33.3231 61.9788 33.9156 64.2594 34.9184 66.292C35.9186 68.3207 37.3731 70.1637 39.0718 71.6569C41.2789 73.5915 43.8335 75.0891 46.5997 76.0699C48.8275 76.8543 51.2465 77.1377 53.6085 77.1081C55.6283 77.0823 57.7806 76.9896 59.5788 76.0699C61.0859 75.2989 62.6979 74.1377 63.2128 72.5221C63.6321 71.2099 63.378 69.4974 62.4767 68.455C61.5873 67.4265 59.9694 67.1573 58.6099 67.1573C57.6116 67.1569 56.4935 67.4203 55.7712 68.1091C55.3681 68.4936 55.1604 68.9873 55.3075 69.5244C55.475 70.1337 56.6581 70.8351 56.6581 70.8351L56.659 70.8341L56.6565 70.8331ZM29.5319 82.9669L26.1378 86.2264L24.8667 87.5123C26.0728 88.888 27.284 90.2587 28.5001 91.6245L29.7109 93.1197V93.1944L28.8885 93.1493L28.0512 93.1944C27.8917 92.9651 27.7221 92.7358 27.5424 92.5065C27.3707 92.2674 27.1963 92.042 27.0191 91.8303L23.7596 88.0175C23.7098 87.9778 23.645 87.9529 23.5651 87.9428C23.5252 87.9523 23.5052 87.9623 23.5052 87.9728V93.1908L22.8473 93.1457L22.1895 93.1908V82.9634L22.8473 83.0085L23.5052 82.9634V87.5835C23.5151 87.6232 23.56 87.6331 23.6398 87.6134C23.7296 87.5934 23.8155 87.5535 23.8975 87.4936C23.9769 87.4238 24.1413 87.2693 24.3908 87.0299C24.4805 86.9402 24.5752 86.8504 24.6748 86.7607L28.3539 82.964L28.9519 83.0091L29.5319 82.9669Z" fill="#0100CC"/>
<path d="M40.3282 87.9573C40.3282 87.2795 40.2633 86.6814 40.1337 86.163C40.004 85.6349 39.7548 85.1365 39.3859 84.6678C39.0171 84.1994 38.5586 83.8406 38.0103 83.5913C37.472 83.3423 36.8939 83.2178 36.2758 83.2178C34.9699 83.2178 33.9384 83.6763 33.1812 84.5934C32.4337 85.5005 32.0599 86.7167 32.0599 88.242C32.0599 89.7072 32.4587 90.8585 33.2562 91.696C34.0038 92.4735 34.9655 92.8623 36.1416 92.8623C37.5471 92.8623 38.6385 92.2543 39.4159 91.0381C40.0239 90.0913 40.3278 89.0646 40.3278 87.9579L40.3282 87.9573ZM36.0968 93.3544C34.4322 93.3544 33.0965 92.876 32.0899 91.9191C31.0931 90.9522 30.5947 89.6663 30.5947 88.0613C30.5947 86.4566 31.128 85.1556 32.1945 84.1584C33.2211 83.2016 34.532 82.7231 36.1271 82.7231C37.682 82.7231 38.9778 83.1267 40.0145 83.934C41.2006 84.8609 41.7937 86.1619 41.7937 87.8369C41.7937 89.4916 41.2654 90.8273 40.2087 91.8438C39.152 92.8528 37.7813 93.3573 36.0965 93.3573L36.0968 93.3544Z" fill="#0100CC"/>
<path d="M53.4399 82.967H53.7539C53.9632 84.9507 54.0928 86.1668 54.1426 86.6155C54.3021 88.0807 54.4316 89.2221 54.5313 90.0396C54.6386 90.8468 54.7832 91.8984 54.965 93.1944L54.2624 93.1493L53.5597 93.1944C53.47 92.1977 53.3841 91.2455 53.3021 90.3381C53.2323 89.4311 53.1464 88.5339 53.0445 87.6466C52.9547 86.7596 52.8689 86.0368 52.7869 85.4784C52.1789 86.5748 51.6505 87.5318 51.2019 88.3493C50.6836 89.3061 50.25 90.1335 49.9009 90.8314C49.5222 91.5989 49.1783 92.3315 48.8691 93.0292H48.7081L47.8857 91.3396C47.5267 90.5921 47.2077 89.948 46.9286 89.4074C46.6495 88.8591 46.3056 88.1963 45.8969 87.419C45.548 86.771 45.2041 86.1231 44.8651 85.4752C44.6934 86.9007 44.5289 88.341 44.3718 89.7961C44.2123 91.2517 44.1325 92.383 44.1325 93.1902L43.6092 93.1452L43.0708 93.1902C43.2801 91.8944 43.5543 90.0554 43.8932 87.673C44.2324 85.2806 44.4368 83.7107 44.5064 82.9631H44.8928C45.411 83.9799 45.8347 84.8122 46.1638 85.4601C46.5625 86.2276 47.0348 87.1097 47.5807 88.1065C48.1788 89.1928 48.6921 90.0899 49.1206 90.7979C50.556 88.1863 51.9914 85.5747 53.4267 82.9631L53.4399 82.967ZM57.1348 93.1999V82.9725L57.7927 83.0176L58.4506 82.9725V93.1999L57.7927 93.1548L57.1348 93.1999ZM70.0363 82.967V93.1944H69.5877L68.8104 92.2825L62.3512 85.1355H62.2018V93.1947L61.7832 93.1497L61.3646 93.1947V82.9673H61.9442L69.0464 90.6675H69.1958V82.9673L69.6145 83.0124L70.0363 82.967ZM72.8379 93.1999V82.9725H78.1458L78.1007 83.421L78.1458 83.8696C77.8467 83.8095 77.6025 83.7696 77.4132 83.7498C77.2238 83.7198 77.0195 83.7048 76.8001 83.7048L75.3049 83.6748H74.1537V87.4248H76.4713C76.6606 87.4248 76.9099 87.4148 77.219 87.3948C77.538 87.3647 77.7312 87.3497 77.7986 87.3497L77.7536 87.7384L77.7986 88.157C77.6192 88.157 77.3699 88.147 77.0509 88.1271C76.7319 88.097 76.5387 88.082 76.4713 88.082H74.1537V93.1957L73.4958 93.1506L72.8379 93.1999Z" fill="#0100CC"/>
<path d="M89.3418 87.9573C89.3418 87.2795 89.277 86.6814 89.1473 86.163C89.0177 85.6349 88.7684 85.1365 88.3996 84.6678C88.0308 84.1994 87.5722 83.8406 87.0239 83.5913C86.4857 83.3423 85.9076 83.2178 85.2895 83.2178C83.9836 83.2178 82.9521 83.6763 82.1949 84.5934C81.4474 85.5005 81.0736 86.7167 81.0736 88.242C81.0736 89.7072 81.4724 90.8585 82.2699 91.696C83.0174 92.4735 83.9792 92.8623 85.1552 92.8623C86.5608 92.8623 87.6522 92.2543 88.4296 91.0381C89.0375 90.0913 89.3415 89.0646 89.3415 87.9579L89.3418 87.9573ZM85.1105 93.3544C83.4458 93.3544 82.1102 92.876 81.1035 91.9191C80.1068 90.9522 79.6084 89.6663 79.6084 88.0613C79.6084 86.4566 80.1417 85.1556 81.2082 84.1584C82.2348 83.2016 83.5457 82.7231 85.1407 82.7231C86.6957 82.7231 87.9915 83.1267 89.0282 83.934C90.2143 84.8609 90.8074 86.1619 90.8074 87.8369C90.8074 89.4916 90.279 90.8273 89.2224 91.8438C88.1657 92.8528 86.795 93.3573 85.1101 93.3573L85.1105 93.3544Z" fill="#0100CC"/>
</g>
<rect x="1.5" y="1" width="110" height="110" rx="9" stroke="#CCCCCC" stroke-width="2"/>
<defs>
<clipPath id="clip0_428_508">
<rect x="2.5" y="2" width="108" height="108" rx="8" fill="white"/>
</clipPath>
</defs>
</svg>
