<svg width="113" height="112" viewBox="0 0 113 112" fill="none" xmlns="http://www.w3.org/2000/svg">
<g clip-path="url(#clip0_324_33)">
<rect x="2.5" y="2" width="108" height="108" rx="8" fill="white"/>
<path fill-rule="evenodd" clip-rule="evenodd" d="M52.0675 56.43C50.6388 58.8303 49.4672 60.9162 48.0385 63.3164C46.6384 65.7166 45.3526 67.8311 43.9525 70.2313C43.581 70.8599 43.2095 71.0885 42.4666 71.0885C39.6378 71.0885 37.2376 71.0885 34.4087 71.0885C31.6085 71.0885 29.1226 71.0599 26.2937 71.0599C25.5794 71.0599 25.1793 70.8313 24.8079 70.2027C23.4078 67.7739 22.2077 65.7452 20.779 63.3164C19.3788 60.9162 18.1787 58.7731 16.7786 56.3729C16.4071 55.7157 16.4071 55.2871 16.7786 54.6585C18.1787 52.2582 19.3788 50.1723 20.779 47.7721C22.1791 45.3719 23.4649 43.2574 24.865 40.8572C25.2365 40.2286 25.6365 40 26.3795 40C29.1797 40 31.5799 40 34.4087 40C37.2376 40 39.6949 40.0286 42.5238 40.0286C43.2667 40.0286 43.6381 40.2572 44.0096 40.8858C45.4383 43.3146 46.6384 45.3433 48.0385 47.7721C49.4672 50.1723 50.6673 52.3154 52.0675 54.7156C52.4389 55.3728 52.4389 55.8014 52.0675 56.43Z" fill="white"/>
<path fill-rule="evenodd" clip-rule="evenodd" d="M32.9515 50.7724H32.3228V55.3442H33.1515C34.2944 55.3442 35.1517 55.1442 35.7803 54.7442C36.3803 54.3441 36.6661 53.7727 36.6661 53.0297C36.6661 52.2582 36.3803 51.6868 35.7803 51.3153C35.1802 50.9724 34.2373 50.7724 32.9515 50.7724ZM52.0675 56.43C51.5531 57.3158 51.0674 58.1445 50.5816 58.9445C50.5245 58.0302 50.2102 57.2301 49.6101 56.5443C48.9529 55.8014 47.6671 54.9728 45.7812 54.087L43.4953 53.0297C42.7523 52.6868 42.7238 52.1439 42.7523 51.7439C42.8095 51.2296 43.6381 50.7152 44.3239 50.7438C46.0669 50.8295 46.6384 51.3153 48.0957 52.0868L49.3244 49.9723C50.2387 51.5439 51.0959 53.0583 52.0675 54.7156C52.4389 55.3728 52.4389 55.8014 52.0675 56.43ZM47.9242 63.5164C46.5813 65.8309 45.324 67.8882 43.9525 70.2313C43.581 70.8599 43.2095 71.0885 42.4666 71.0885C39.6378 71.0885 37.2376 71.0885 34.4087 71.0885C31.6085 71.0885 29.1226 71.0599 26.2937 71.0599C25.5794 71.0599 25.1793 70.8313 24.8079 70.2027C23.6078 68.1454 22.5505 66.3452 21.4076 64.3736H27.0652L28.0367 62.602V64.3736H32.2085V58.9445C32.3228 58.9445 32.4371 58.9731 32.5514 58.9731C32.6657 58.9731 33.2086 58.9731 33.4658 58.9731C34.4945 58.9731 35.8089 58.9731 36.6375 58.7731C38.4091 58.3731 39.7235 57.2015 40.4379 55.63C42.2094 57.6016 45.0668 58.2016 45.7526 58.6017C46.4384 59.0303 46.3812 59.6303 46.2098 59.8875C46.0098 60.2018 45.3526 60.3447 45.0954 60.3447C43.5524 60.4875 41.4379 59.4875 40.5807 58.6302C39.6949 59.9446 38.6948 61.3733 38.352 62.0877C39.2377 62.9163 40.5236 63.8307 43.5524 64.1736C45.2954 64.3736 46.7527 64.145 47.9242 63.5164ZM18.2359 58.916C17.7501 58.0873 17.2644 57.2301 16.7786 56.3729C16.4071 55.7157 16.4071 55.2871 16.7786 54.6585C18.1787 52.2582 19.3788 50.1723 20.779 47.7721C22.1791 45.3719 23.4649 43.2574 24.865 40.8572C25.2365 40.2286 25.6365 40 26.3795 40C29.1797 40 31.5799 40 34.4087 40C37.2376 40 39.6949 40.0286 42.5238 40.0286C43.2667 40.0286 43.6381 40.2572 44.0096 40.8858C45.4383 43.3146 46.6384 45.3433 48.0385 47.7721L48.0957 47.8293C47.4099 47.6293 46.7527 47.4292 46.3812 47.3721C45.5812 47.2292 44.8382 47.1721 44.1525 47.1721C43.5524 47.1721 42.9809 47.2006 42.438 47.2864L40.6664 50.5152C40.3236 49.7723 39.7235 49.0294 38.752 48.315C36.7232 46.9149 35.0088 47.1149 32.0657 47.2578L28.0367 54.5727V60.5447H22.4934V46.7149L18.2359 54.4584V58.916Z" fill="#DC7902"/>
<path d="M86.3277 63.6021L88.385 59.116H89.2708L91.3281 63.5735H90.328L89.9566 62.6592H87.7278L87.2992 63.6021H86.3277ZM89.6422 61.8591L88.8708 60.1161L88.1278 61.8591H89.6422Z" fill="#333333"/>
<path d="M75.7553 63.6021L77.784 59.116H78.6698L80.7272 63.5735H79.7271L79.3842 62.6592H77.1268L76.7268 63.6021H75.7553ZM79.0699 61.8591L78.2984 60.1161L77.5554 61.8591H79.0699Z" fill="#333333"/>
<path d="M75.1552 60.5733C75.1552 60.7733 75.1267 60.9733 75.0695 61.1733C75.0124 61.3448 74.9266 61.5162 74.8123 61.6305C74.7552 61.7162 74.6695 61.7734 74.6123 61.8591C74.5266 61.9162 74.4409 61.9734 74.3552 62.0305C74.2409 62.0591 74.1551 62.1163 74.0409 62.1163C73.9266 62.1448 73.8123 62.1734 73.6694 62.1734H72.4407V63.5735H71.4692V59.116L73.6694 59.1731C73.898 59.1731 74.098 59.2017 74.2694 59.2303C74.4123 59.2874 74.5552 59.3732 74.6981 59.4589C74.8409 59.5732 74.9552 59.716 75.0409 59.9161C75.0981 60.0875 75.1552 60.3161 75.1552 60.5733ZM74.298 60.459C74.298 60.3447 74.2694 60.2304 74.2409 60.1447C74.1837 60.0589 74.1266 60.0018 74.0409 59.9732C73.9551 59.9161 73.8694 59.8875 73.7837 59.8875C73.698 59.8589 72.6979 59.8589 72.555 59.8589H72.4407V61.4019H72.4979C72.5836 61.4019 72.6693 61.4019 72.755 61.4019C72.8407 61.4019 73.7837 61.4019 73.8408 61.4019C73.898 61.3733 73.9551 61.3733 74.0123 61.3448C74.0694 61.2876 74.098 61.259 74.1551 61.2305C74.2123 61.1733 74.2409 61.0876 74.2694 61.0019C74.298 60.9162 74.298 60.6018 74.298 60.459Z" fill="#333333"/>
<path d="M77.4983 57.5444L79.5556 53.0583H80.4414L82.4987 57.5159H81.4987L81.1272 56.6301H78.8984L78.4698 57.5444H77.4983ZM80.8129 55.83L80.0414 54.087L79.2985 55.83H80.8129Z" fill="#333333"/>
<path d="M61.8398 54.4299C61.8398 54.6299 61.8112 54.8299 61.754 55.0013C61.6969 55.2014 61.6112 55.3442 61.4969 55.4871C61.4397 55.5728 61.3826 55.63 61.2969 55.6871C61.2111 55.7728 61.1254 55.83 61.0397 55.8586C60.954 55.9157 60.8397 55.9443 60.7254 55.9729C60.6111 56.0014 60.4968 56.0014 60.3539 56.0014L59.1252 55.9729V57.4301H58.1537V52.9726L60.3825 53.0012C60.5825 53.0297 60.7825 53.0297 60.954 53.0869C61.0968 53.1155 61.2683 53.2012 61.3826 53.3155C61.5254 53.4298 61.6397 53.5726 61.7255 53.7441C61.8112 53.9441 61.8398 54.1727 61.8398 54.4299ZM61.0111 54.3441C61.0111 54.2013 60.9825 54.087 60.9254 54.0013C60.8682 53.9155 60.8111 53.8584 60.7254 53.8298C60.6397 53.7727 60.5539 53.7441 60.4682 53.7441C60.3825 53.7441 59.411 53.7441 59.2681 53.7441H59.1252V55.2871H59.1824C59.2681 55.2871 59.3538 55.2585 59.4395 55.2585C59.5253 55.2585 60.4682 55.2585 60.5254 55.2585C60.5825 55.2299 60.6397 55.2299 60.6968 55.2014C60.7539 55.1728 60.8111 55.1156 60.8397 55.0871C60.8968 55.0299 60.954 54.9442 60.954 54.8585C60.9825 54.7727 61.0111 54.4584 61.0111 54.3441Z" fill="#333333"/>
<path d="M88.2993 51.4582L90.3566 46.9721H91.2424L93.2997 51.4296H92.2996L91.9567 50.5152H89.6994L89.2708 51.4582H88.2993ZM91.6138 49.7152L90.8424 48.0007L90.0994 49.7152H91.6138Z" fill="#333333"/>
<path d="M77.7269 51.4582L79.7842 46.9721H80.6414L82.6988 51.4296H81.7272L81.3558 50.5152H79.0984L78.6984 51.4582H77.7269ZM81.0415 49.7152L80.27 48.0007L79.5271 49.7152H81.0415Z" fill="#333333"/>
<path d="M77.0697 50.058C77.0697 50.2866 77.0411 50.4867 76.9554 50.6581C76.8983 50.801 76.8125 50.9438 76.6697 51.0581C76.5268 51.201 76.3839 51.2867 76.2125 51.3439C76.041 51.401 75.441 51.4296 75.1838 51.4296H73.2408V46.9721H74.9838C75.2695 46.9721 75.8696 46.9721 76.0125 47.0006C76.1553 47.0292 76.2982 47.0863 76.4125 47.1721C76.5554 47.2578 76.6411 47.3721 76.7268 47.515C76.784 47.6578 76.8125 47.8293 76.8125 48.0007C76.8125 48.2293 76.784 48.4293 76.6697 48.6008C76.5839 48.7436 76.4696 48.8865 76.2982 48.9722C76.5268 49.0294 76.7268 49.1722 76.8697 49.3437C77.0125 49.5151 77.0697 49.7723 77.0697 50.058ZM75.9267 48.2293C75.9267 48.1436 75.8982 48.0864 75.8696 48.0007C75.841 47.9436 75.7839 47.8864 75.7267 47.8293C75.6696 47.8007 75.5838 47.8007 75.4981 47.8007C75.4124 47.7721 74.4123 47.7721 74.2409 47.7721H74.1551V48.7436H74.2694C74.4409 48.7436 75.441 48.7151 75.4981 48.7151C75.5838 48.7151 75.641 48.6865 75.6981 48.6579C75.7839 48.6293 75.841 48.5722 75.8696 48.4865C75.8982 48.4008 75.9267 48.315 75.9267 48.2293ZM76.1553 50.058C76.1553 49.9152 76.1267 49.8009 76.0982 49.7152C76.041 49.6294 75.9553 49.5723 75.8696 49.5437C75.8124 49.5151 75.7267 49.5151 75.641 49.4866C75.5267 49.4866 74.498 49.4866 74.3266 49.4866H74.1551V50.6009H74.2123C74.4695 50.6009 75.5267 50.6009 75.6124 50.6009C75.6981 50.6009 75.8124 50.5724 75.8982 50.5152C75.9839 50.4867 76.0696 50.4295 76.0982 50.3438C76.1267 50.2581 76.1553 50.1438 76.1553 50.058Z" fill="#333333"/>
<path d="M59.7253 63.8021C58.9824 63.8021 58.3537 63.4592 57.8108 62.9163L58.6109 62.3449C59.2681 63.1164 60.8111 63.0878 60.8111 62.4592C60.8111 61.8019 59.6681 61.8591 59.0681 61.6305C58.6966 61.5162 58.3823 61.4305 58.2109 61.2019C58.068 60.9733 57.9823 60.7161 57.9823 60.3732C57.9823 59.9446 58.1823 59.5732 58.5538 59.316C58.9538 59.0303 59.3824 58.9445 59.9539 58.9445C60.6682 58.9445 61.4112 59.316 61.7826 59.7446L61.1254 60.2875C61.0683 60.2875 60.7539 59.8018 60.0682 59.7732C59.6967 59.716 59.0109 59.8303 59.0109 60.2304C59.0109 61.0019 60.8682 60.6876 61.5826 61.5448C61.7255 61.7448 61.8398 61.9162 61.8398 62.2306C61.8398 62.6877 61.6683 63.0878 61.2683 63.3735C60.8968 63.6593 60.3825 63.7736 59.7253 63.8021Z" fill="#333333"/>
<path d="M90.2994 57.5444H89.4422V53.0869H90.2709L90.2994 57.5444Z" fill="#333333"/>
<path d="M76.5268 56.1157C76.5268 56.3157 76.4982 56.4872 76.4411 56.6586C76.3839 56.8301 76.2982 56.9729 76.1839 57.1158C76.041 57.2301 75.9267 57.373 75.7267 57.4301C75.4981 57.573 74.9552 57.6301 74.7266 57.6587C73.9266 57.6873 73.0408 57.373 72.6979 56.5158V55.63C72.8407 55.63 73.3836 55.6014 73.4122 55.6014C73.4122 56.4015 73.6694 56.8301 74.7552 56.8015C75.1267 56.7729 75.6981 56.5729 75.7267 56.0014C75.7267 55.8586 75.7267 55.7157 75.7267 55.5728V53.8012L74.5266 53.7727V52.9726H76.5268V56.1157Z" fill="#333333"/>
<path d="M71.4978 57.4301H70.812L68.6118 54.3156V57.4301H67.6974V52.9726H68.6118L70.6691 55.7443V52.9726H71.4978V57.4301Z" fill="#333333"/>
<path d="M87.5278 50.9724C86.9563 51.3724 86.2991 51.5153 85.6419 51.5153C84.3561 51.5153 83.5274 50.4295 83.5274 49.2294C83.5274 48.0007 84.3561 46.8863 85.6705 46.8863C86.642 46.8863 87.042 47.0863 87.5563 47.6578L87.1277 48.3436C86.9563 48.1436 86.7563 48.0293 86.5848 47.915C85.5276 47.2006 84.156 48.0864 84.2703 49.258C84.3846 50.2866 84.9561 50.7152 85.899 50.7152C86.2134 50.7152 86.4991 50.6581 86.7563 50.4295V49.8009H85.7276V48.9722L87.6135 48.9437L87.5278 50.9724Z" fill="#333333"/>
<path d="M71.8692 51.4296H70.9834V48.4008L69.6119 50.0866H69.3261L67.9546 48.2007V51.4296H67.2117V46.9721H68.0975L69.4404 48.8579L71.0406 46.9721H71.8692V51.4296Z" fill="#333333"/>
<path d="M62.5541 51.4296V46.9721H65.8115V47.8293H63.3828V48.6008H65.6972V49.458H63.3828V50.5724H65.8115V51.4296H62.5541Z" fill="#333333"/>
<path d="M61.4111 51.4582L58.1537 51.4296V46.9721H59.0109V50.6867L61.4111 50.7152V51.4582Z" fill="#333333"/>
<path d="M63.097 57.5444V53.0869H66.3544V53.9441H63.9257V54.7156H66.2402V55.5728H63.9257V56.6872H66.3544V57.5444H63.097Z" fill="#333333"/>
<path d="M88.2707 57.5444H87.3849V54.5156L86.0133 56.2015H85.7276L84.356 54.287V57.5159L83.6131 57.5444V53.0869H84.4989L85.8133 54.9728L87.442 53.0869H88.2707V57.5444Z" fill="#333333"/>
<path d="M95.5285 57.5444H94.8427L92.6139 54.4299V57.5444H91.6996V53.0869H92.6139L94.6713 55.8586V53.0869H95.5285V57.5444Z" fill="#333333"/>
<path d="M63.8114 63.5164H62.9541V59.0588H63.7828L63.8114 63.5164Z" fill="#333333"/>
<path d="M70.0119 63.5735H69.1261L69.0975 60.5447L67.7546 62.2591H67.4403L66.0687 60.3447V63.5735H65.3258V59.116H66.2116L67.5546 61.0305L69.1547 59.116H70.0119V63.5735Z" fill="#333333"/>
<path d="M85.4704 63.6593H84.7847L82.5845 60.5447V63.6593H81.6701V59.2017H82.5845L84.6418 61.9734V59.2017H85.4704V63.6593Z" fill="#333333"/>
<path d="M96.1857 63.5735H95.4999L93.2711 60.459V63.5735H92.3568V59.116H93.2711L95.357 61.8877V59.116H96.1857V63.5735Z" fill="#333333"/>
<path fill-rule="evenodd" clip-rule="evenodd" d="M58.0966 44.1718H96.5V44.6576H58.0966V44.1718Z" fill="#333333"/>
<path fill-rule="evenodd" clip-rule="evenodd" d="M58.0966 66.4309H96.5V66.9167H58.0966V66.4309Z" fill="#333333"/>
</g>
<rect x="1.5" y="1" width="110" height="110" rx="9" stroke="#CCCCCC" stroke-width="2"/>
<defs>
<clipPath id="clip0_324_33">
<rect x="2.5" y="2" width="108" height="108" rx="8" fill="white"/>
</clipPath>
</defs>
</svg>
