<svg width="113" height="112" viewBox="0 0 113 112" fill="none" xmlns="http://www.w3.org/2000/svg">
<g clip-path="url(#clip0_324_34)">
<rect x="2.5" y="2" width="108" height="108" rx="8" fill="white"/>
<g clip-path="url(#clip1_324_34)">
<path d="M35.6599 50.9602V65.8002C35.5799 67.0302 35.2299 68.3902 33.7999 68.3902C33.1499 68.3902 32.8599 68.2402 32.7199 67.9802C33.8999 66.2202 34.5999 64.0602 34.5999 61.7102C34.5999 60.3202 34.3499 58.9902 33.8999 57.7702C33.8199 57.5602 33.7399 57.3602 33.6499 57.1602C32.0899 53.5702 28.7599 51.0802 24.8799 51.0802C19.5199 51.0802 15.1699 55.8302 15.1699 61.7002C15.1699 67.5702 19.5199 72.3202 24.8799 72.3202C26.5399 72.3202 28.1099 71.8602 29.4799 71.0602C30.6099 71.8702 31.9699 72.3502 33.4399 72.3502C36.7099 72.3502 39.4499 70.0002 40.2099 66.8402V50.9602H35.6299H35.6599ZM27.1199 68.1202C26.4399 68.5102 25.6899 68.7402 24.8999 68.7402C21.8799 68.7402 19.4399 65.5702 19.4399 61.6602C19.4399 57.7502 21.8899 54.5802 24.8999 54.5802C27.1299 54.5802 29.0399 56.3102 29.8899 58.7802C30.1899 59.6602 30.3599 60.6302 30.3599 61.6602C30.3599 64.5402 29.0299 67.0202 27.1199 68.1202Z" fill="url(#paint0_radial_324_34)"/>
<path d="M41.5601 59.0802V65.5302L44.3601 62.9302L50.7301 72.4002H57.0401L48.0701 58.8802L55.7901 50.6602H48.7701L41.5601 59.0802Z" fill="url(#paint1_radial_324_34)"/>
<path d="M56.03 50.8601C54.81 50.9801 53.36 51.0001 51.65 50.8201C51.55 50.8201 51.46 50.8201 51.37 50.8001C44.39 48.7501 42.22 45.8101 37.79 42.4101C33.06 38.7701 21.72 36.3101 11.5 44.3801C11.5 44.3801 15 46.4001 16.6 49.8201C16.63 49.8801 16.66 49.9401 16.69 50.0001C18.27 53.5301 18.52 56.5701 18.52 56.5701C18.52 56.5701 24.32 49.9401 31.49 49.6801C37.54 49.4601 44.56 51.8101 50.13 52.4301C51.16 52.5401 52.14 52.6001 53.06 52.5701C58.91 52.3601 61.15 49.0001 61.15 49.0001C61.15 49.0001 59.71 50.4901 56.05 50.8601H56.03Z" fill="#313132"/>
<path d="M33.5698 45.1501C42.1398 47.4301 44.3898 50.4101 51.3598 50.3601C51.4798 50.3601 51.5798 50.3501 51.6898 50.3501C51.5898 50.3501 51.4998 50.3501 51.4098 50.3301C44.4598 48.3901 42.3098 45.6101 37.8998 42.3901C33.1998 38.9501 22.4198 36.5201 12.2598 44.1601C12.2598 44.1601 15.2398 46.1701 16.8298 49.4001C17.1198 49.0701 17.3998 48.7701 17.6898 48.4801C23.2498 42.7301 28.5698 43.8201 33.5798 45.1501H33.5698Z" fill="url(#paint2_linear_324_34)"/>
<path d="M56.0396 50.3901C54.8296 50.5101 53.3796 50.5201 51.6796 50.3501C51.5596 50.3501 51.4596 50.3601 51.3496 50.3601C44.3896 50.4101 40.5796 46.5601 34.0996 44.4701C29.1696 42.8801 23.2296 42.7201 17.6696 48.4701C17.3796 48.7601 17.0996 49.0601 16.8096 49.3901C16.8396 49.4501 16.8696 49.5001 16.8996 49.5601C18.4696 52.9001 18.7196 55.7801 18.7196 55.7801C18.7196 55.7801 24.4896 49.5101 31.6196 49.2501C37.6396 49.0401 44.6196 51.2701 50.1596 51.8501C51.1796 51.9601 52.1596 52.0201 53.0696 51.9801C58.8896 51.7801 61.2096 48.7401 61.2096 48.7401C61.2096 48.7401 59.6796 50.0101 56.0396 50.3701V50.3901Z" fill="url(#paint3_linear_324_34)"/>
<path d="M62.3699 50.6802H61.4199V72.1302H62.3699V50.6802Z" fill="#660812"/>
<path d="M70.63 53.8402C70.63 54.1602 70.57 54.4702 70.45 54.7502C70.33 55.0402 70.15 55.2902 69.92 55.5202C69.69 55.7502 69.42 55.9202 69.13 56.0402C68.84 56.1602 68.53 56.2202 68.2 56.2202C67.87 56.2202 67.56 56.1602 67.27 56.0402C66.97 55.9202 66.71 55.7502 66.48 55.5202C66.25 55.2902 66.07 55.0402 65.95 54.7502C65.83 54.4602 65.77 54.1602 65.77 53.8302C65.77 53.5002 65.83 53.2002 65.95 52.9102C66.07 52.6202 66.24 52.3702 66.48 52.1402C66.71 51.9102 66.97 51.7402 67.27 51.6202C67.56 51.5002 67.88 51.4402 68.2 51.4402C68.52 51.4402 68.84 51.5002 69.13 51.6202C69.42 51.7402 69.68 51.9102 69.92 52.1402C70.15 52.3702 70.33 52.6302 70.45 52.9202C70.57 53.2102 70.63 53.5102 70.63 53.8302V53.8402ZM69.86 53.8402C69.86 53.6102 69.82 53.3902 69.74 53.1802C69.66 52.9702 69.54 52.7902 69.38 52.6302C69.23 52.4702 69.05 52.3502 68.85 52.2602C68.65 52.1702 68.44 52.1302 68.21 52.1302C67.98 52.1302 67.77 52.1702 67.57 52.2602C67.37 52.3502 67.19 52.4702 67.03 52.6302C66.87 52.7902 66.75 52.9702 66.67 53.1802C66.59 53.3902 66.55 53.6102 66.55 53.8402C66.55 54.0702 66.59 54.2902 66.67 54.4902C66.75 54.7002 66.87 54.8802 67.03 55.0402C67.19 55.2002 67.37 55.3202 67.57 55.4102C67.77 55.4902 67.98 55.5402 68.21 55.5402C68.44 55.5402 68.64 55.5002 68.84 55.4102C69.04 55.3202 69.22 55.2002 69.38 55.0402C69.54 54.8802 69.66 54.6902 69.74 54.4902C69.82 54.2802 69.86 54.0702 69.86 53.8402Z" fill="#313132"/>
<path d="M72.72 52.18V56.09H71.98V52.18H70.77V51.55H73.92V52.18H72.72Z" fill="#313132"/>
<path d="M78.9201 53.8402C78.9201 54.1602 78.8601 54.4702 78.7401 54.7502C78.6201 55.0402 78.4401 55.2902 78.2101 55.5202C77.9801 55.7502 77.7101 55.9202 77.4201 56.0402C77.1301 56.1602 76.8201 56.2202 76.4901 56.2202C76.1601 56.2202 75.8501 56.1602 75.5601 56.0402C75.2601 55.9202 75.0001 55.7502 74.7701 55.5202C74.5401 55.2902 74.3601 55.0402 74.2401 54.7502C74.1201 54.4602 74.0601 54.1602 74.0601 53.8302C74.0601 53.5002 74.1201 53.2002 74.2401 52.9102C74.3601 52.6202 74.5401 52.3702 74.7701 52.1402C75.0001 51.9102 75.2601 51.7402 75.5601 51.6202C75.8501 51.5002 76.1701 51.4402 76.4901 51.4402C76.8101 51.4402 77.1301 51.5002 77.4201 51.6202C77.7101 51.7402 77.9701 51.9102 78.2101 52.1402C78.4401 52.3702 78.6201 52.6302 78.7401 52.9202C78.8601 53.2102 78.9201 53.5102 78.9201 53.8302V53.8402ZM78.1501 53.8402C78.1501 53.6102 78.1101 53.3902 78.0301 53.1802C77.9501 52.9702 77.8301 52.7902 77.6701 52.6302C77.5201 52.4702 77.3401 52.3502 77.1401 52.2602C76.9401 52.1702 76.7301 52.1302 76.5001 52.1302C76.2701 52.1302 76.0601 52.1702 75.8601 52.2602C75.6601 52.3502 75.4801 52.4702 75.3201 52.6302C75.1601 52.7902 75.0401 52.9702 74.9601 53.1802C74.8801 53.3902 74.8401 53.6102 74.8401 53.8402C74.8401 54.0702 74.8801 54.2902 74.9601 54.4902C75.0401 54.7002 75.1601 54.8802 75.3201 55.0402C75.4801 55.2002 75.6601 55.3202 75.8601 55.4102C76.0601 55.4902 76.2701 55.5402 76.5001 55.5402C76.7301 55.5402 76.9301 55.5002 77.1301 55.4102C77.3301 55.3202 77.5101 55.2002 77.6701 55.0402C77.8301 54.8802 77.9501 54.6902 78.0301 54.4902C78.1101 54.2802 78.1501 54.0702 78.1501 53.8402Z" fill="#313132"/>
<path d="M80.46 54.06V56.09H79.77V51.55H80.8C81.1 51.55 81.34 51.57 81.5 51.61C81.67 51.65 81.81 51.71 81.93 51.8C82.07 51.91 82.18 52.05 82.26 52.23C82.34 52.4 82.38 52.59 82.38 52.8C82.38 53.16 82.29 53.45 82.12 53.65C81.94 53.86 81.68 53.98 81.34 54.02L82.9 56.09H82.06L80.55 54.06H80.47H80.46ZM80.51 53.49H80.64C81.03 53.49 81.29 53.44 81.42 53.35C81.55 53.26 81.61 53.1 81.61 52.87C81.61 52.62 81.54 52.44 81.41 52.34C81.27 52.24 81.02 52.19 80.64 52.19H80.51V53.49Z" fill="#313132"/>
<path d="M83.3301 56.1001V51.5601H84.0701V56.1001H83.3301Z" fill="#313132"/>
<path d="M86.5999 52.18V56.09H85.8599V52.18H84.6499V51.55H87.7899V52.18H86.5899H86.5999Z" fill="#313132"/>
<path d="M90.9 56.1001L90.38 54.9301H88.58L88.05 56.1001H87.27L89.47 51.3801L91.67 56.1001H90.89H90.9ZM88.86 54.3201H90.13L89.67 53.2801C89.64 53.2101 89.62 53.1401 89.59 53.0501C89.56 52.9601 89.53 52.8701 89.5 52.7601C89.48 52.8601 89.45 52.9501 89.42 53.0401C89.39 53.1301 89.36 53.2001 89.33 53.2801L88.87 54.3201H88.86Z" fill="#313132"/>
<path d="M91.8498 55.1902L92.4398 54.9202C92.4998 55.1202 92.5998 55.2802 92.7498 55.3802C92.8998 55.4902 93.0898 55.5402 93.3198 55.5402C93.5498 55.5402 93.7098 55.4802 93.8398 55.3602C93.9698 55.2402 94.0298 55.0702 94.0298 54.8702C94.0298 54.6002 93.8099 54.3702 93.3699 54.1602C93.3099 54.1302 93.2599 54.1102 93.2299 54.0902C92.7299 53.8502 92.3999 53.6302 92.2299 53.4302C92.0599 53.2302 91.9799 52.9902 91.9799 52.7102C91.9799 52.3402 92.0998 52.0402 92.3498 51.8102C92.5998 51.5802 92.9298 51.4702 93.3398 51.4702C93.6798 51.4702 93.9598 51.5302 94.1798 51.6602C94.4098 51.7902 94.5598 51.9702 94.6498 52.2202L94.0698 52.5202C93.9798 52.3802 93.8798 52.2702 93.7698 52.2102C93.6598 52.1402 93.5398 52.1102 93.3998 52.1102C93.1998 52.1102 93.0398 52.1602 92.9298 52.2702C92.8098 52.3702 92.7598 52.5102 92.7598 52.6802C92.7598 52.9502 93.0198 53.2102 93.5298 53.4402C93.5698 53.4602 93.5999 53.4702 93.6199 53.4802C94.0699 53.6902 94.3798 53.8902 94.5398 54.0902C94.7098 54.2902 94.7898 54.5302 94.7898 54.8302C94.7898 55.2602 94.6498 55.6002 94.3798 55.8502C94.1098 56.1002 93.7398 56.2302 93.2798 56.2302C92.8898 56.2302 92.5798 56.1402 92.3298 55.9602C92.0798 55.7802 91.9198 55.5302 91.8398 55.2002L91.8498 55.1902Z" fill="#313132"/>
<path d="M65.94 62.8902C66.02 62.9802 66.09 63.0502 66.16 63.0902C66.23 63.1302 66.3 63.1502 66.38 63.1502C66.52 63.1502 66.63 63.1002 66.68 63.0102C66.74 62.9102 66.77 62.7402 66.77 62.4802V59.1802H67.5V62.7202C67.5 63.1002 67.42 63.3902 67.25 63.5702C67.08 63.7502 66.82 63.8402 66.46 63.8402C66.26 63.8402 66.08 63.8002 65.92 63.7202C65.76 63.6402 65.61 63.5202 65.46 63.3602L65.93 62.8902H65.94Z" fill="#313132"/>
<path d="M71.4801 63.7202L70.9601 62.5502H69.1601L68.6301 63.7202H67.8501L70.0501 59.0002L72.2501 63.7202H71.4701H71.4801ZM69.4401 61.9402H70.7101L70.2501 60.9002C70.2201 60.8302 70.1901 60.7602 70.1701 60.6702C70.1401 60.5802 70.1101 60.4902 70.0801 60.3802C70.0601 60.4802 70.0301 60.5702 70.0001 60.6602C69.9701 60.7502 69.9401 60.8302 69.9101 60.9002L69.4501 61.9402H69.4401Z" fill="#313132"/>
<path d="M72.4302 62.8101L73.0202 62.5401C73.0802 62.7401 73.1802 62.9001 73.3302 63.0001C73.4802 63.1101 73.6702 63.1601 73.9002 63.1601C74.1202 63.1601 74.2902 63.1001 74.4202 62.9801C74.5502 62.8601 74.6202 62.6901 74.6202 62.4901C74.6202 62.2201 74.4002 61.9901 73.9602 61.7801C73.9002 61.7501 73.8502 61.7301 73.8202 61.7101C73.3202 61.4701 72.9902 61.2501 72.8202 61.0501C72.6502 60.8501 72.5702 60.6101 72.5702 60.3201C72.5702 59.9501 72.6902 59.6501 72.9502 59.4201C73.2002 59.1901 73.5302 59.0801 73.9402 59.0801C74.2702 59.0801 74.5502 59.1401 74.7802 59.2701C75.0002 59.4001 75.1602 59.5801 75.2502 59.8301L74.6702 60.1301C74.5802 59.9901 74.4802 59.8801 74.3702 59.8201C74.2602 59.7501 74.1402 59.7201 74.0002 59.7201C73.8002 59.7201 73.6402 59.7701 73.5302 59.8801C73.4102 59.9801 73.3602 60.1201 73.3602 60.3001C73.3602 60.5701 73.6202 60.8301 74.1302 61.0601C74.1702 61.0801 74.2002 61.0901 74.2202 61.1001C74.6702 61.3101 74.9802 61.5101 75.1502 61.7101C75.3202 61.9101 75.4002 62.1501 75.4002 62.4501C75.4002 62.8801 75.2702 63.2201 74.9902 63.4701C74.7202 63.7201 74.3502 63.8501 73.8902 63.8501C73.5002 63.8501 73.1902 63.7601 72.9402 63.5801C72.6902 63.4001 72.5302 63.1501 72.4602 62.8201L72.4302 62.8101Z" fill="#313132"/>
<path d="M79.1698 63.7202L78.6598 62.5502H76.8598L76.3298 63.7202H75.5498L77.7498 59.0002L79.9498 63.7202H79.1698ZM77.1298 61.9402H78.3998L77.9298 60.9002C77.8998 60.8302 77.8798 60.7602 77.8498 60.6702C77.8198 60.5802 77.7898 60.4902 77.7598 60.3802C77.7298 60.4802 77.7098 60.5702 77.6798 60.6602C77.6498 60.7502 77.6298 60.8302 77.5998 60.9002L77.1298 61.9402Z" fill="#313132"/>
<path d="M65.98 71.34V66.8H66.72V68.68L68.35 66.8H69.25L67.45 68.82L69.46 71.34H68.51L66.72 69.0201V71.34H65.98Z" fill="#313132"/>
<path d="M69.9199 71.34V66.8H72.4599V67.43H70.6699V68.57H72.4599V69.22H70.6699V70.6901H72.4599V71.35H69.9199V71.34Z" fill="#313132"/>
<path d="M73.2798 66.8H74.0098V69.56C74.0098 69.97 74.1098 70.28 74.2898 70.48C74.4798 70.69 74.7598 70.7901 75.1398 70.7901C75.5198 70.7901 75.7998 70.69 75.9898 70.48C76.1798 70.27 76.2698 69.97 76.2698 69.56V66.8H77.0098V69.63C77.0098 70.24 76.8498 70.7 76.5498 71.01C76.2398 71.32 75.7698 71.4701 75.1498 71.4701C74.5298 71.4701 74.0598 71.32 73.7498 71.01C73.4398 70.71 73.2898 70.25 73.2898 69.63V66.8H73.2798Z" fill="#313132"/>
<path d="M80.91 71.3401L80.4 70.1701H78.6L78.07 71.3401H77.29L79.49 66.6201L81.69 71.3401H80.91ZM78.87 69.5601H80.14L79.67 68.5201C79.64 68.4501 79.62 68.3801 79.59 68.2901C79.56 68.2001 79.53 68.1101 79.5 68.0001C79.47 68.1001 79.45 68.1901 79.42 68.2801C79.39 68.3701 79.37 68.4501 79.34 68.5201L78.87 69.5601Z" fill="#313132"/>
<path d="M82.1201 71.3401V66.6201L85.0001 69.4001C85.0801 69.4801 85.1601 69.5601 85.2401 69.6501C85.3201 69.7401 85.4101 69.8401 85.5001 69.9501V66.8001H86.1801V71.5201L83.2401 68.6901C83.1601 68.6101 83.0901 68.5301 83.0101 68.4501C82.9401 68.3601 82.8701 68.2801 82.8001 68.1801V71.3401H82.1201Z" fill="#313132"/>
<path d="M89.7398 69.0202H91.5398C91.5398 69.0202 91.5398 69.1002 91.5398 69.1502C91.5398 69.3002 91.5398 69.4002 91.5398 69.4502C91.5398 70.0902 91.3598 70.5802 90.9898 70.9402C90.6198 71.2902 90.1098 71.4702 89.4398 71.4702C89.0698 71.4702 88.7298 71.4202 88.4398 71.3102C88.1498 71.2002 87.8898 71.0402 87.6698 70.8102C87.4598 70.5902 87.2898 70.3302 87.1798 70.0402C87.0598 69.7402 87.0098 69.4302 87.0098 69.0902C87.0098 68.7502 87.0698 68.4302 87.1798 68.1402C87.2998 67.8502 87.4698 67.5902 87.6998 67.3702C87.9198 67.1502 88.1798 66.9902 88.4798 66.8702C88.7798 66.7602 89.0998 66.7002 89.4398 66.7002C89.7998 66.7002 90.1198 66.7702 90.3998 66.9002C90.6798 67.0302 90.9298 67.2302 91.1498 67.5002L90.6098 67.9102C90.4598 67.7302 90.2798 67.6002 90.0898 67.5102C89.8998 67.4202 89.6798 67.3802 89.4398 67.3802C88.9498 67.3802 88.5498 67.5402 88.2298 67.8502C87.9198 68.1702 87.7698 68.5802 87.7698 69.0802C87.7698 69.5802 87.9198 70.0102 88.2298 70.3302C88.5398 70.6502 88.9498 70.8102 89.4398 70.8102C89.8598 70.8102 90.1898 70.7102 90.4398 70.5202C90.6798 70.3202 90.7998 70.0602 90.7998 69.7202V69.6502H89.7098V69.0302L89.7398 69.0202Z" fill="#313132"/>
<path d="M95.3302 71.3401L94.8102 70.1701H93.0102L92.4802 71.3401H91.7002L93.9002 66.6201L96.1002 71.3401H95.3202H95.3302ZM93.2902 69.5601H94.5602L94.1002 68.5201C94.0702 68.4501 94.0402 68.3801 94.0202 68.2901C93.9902 68.2001 93.9602 68.1101 93.9302 68.0001C93.9102 68.1001 93.8802 68.1901 93.8502 68.2801C93.8202 68.3701 93.7902 68.4501 93.7602 68.5201L93.3002 69.5601H93.2902Z" fill="#313132"/>
<path d="M96.5298 71.3401V66.6201L99.4198 69.4001C99.4998 69.4801 99.5798 69.5601 99.6598 69.6501C99.7398 69.7401 99.8198 69.8401 99.9098 69.9501V66.8001H100.59V71.5201L97.6498 68.6901C97.5698 68.6101 97.4998 68.5301 97.4198 68.4501C97.3498 68.3601 97.2798 68.2801 97.2098 68.1801V71.3401H96.5298Z" fill="#313132"/>
</g>
</g>
<rect x="1.5" y="1" width="110" height="110" rx="9" stroke="#CCCCCC" stroke-width="2"/>
<defs>
<radialGradient id="paint0_radial_324_34" cx="0" cy="0" r="1" gradientUnits="userSpaceOnUse" gradientTransform="translate(37.5499 60.5302) scale(17.32)">
<stop stop-color="#C40015"/>
<stop offset="0.14" stop-color="#AC0114"/>
<stop offset="0.37" stop-color="#8E0413"/>
<stop offset="0.59" stop-color="#770612"/>
<stop offset="0.81" stop-color="#6A0712"/>
<stop offset="1" stop-color="#660812"/>
</radialGradient>
<radialGradient id="paint1_radial_324_34" cx="0" cy="0" r="1" gradientUnits="userSpaceOnUse" gradientTransform="translate(37.5501 60.5302) scale(17.32)">
<stop stop-color="#C40015"/>
<stop offset="0.14" stop-color="#AC0114"/>
<stop offset="0.37" stop-color="#8E0413"/>
<stop offset="0.59" stop-color="#770612"/>
<stop offset="0.81" stop-color="#6A0712"/>
<stop offset="1" stop-color="#660812"/>
</radialGradient>
<linearGradient id="paint2_linear_324_34" x1="47.7598" y1="48.9201" x2="9.45977" y2="41.7701" gradientUnits="userSpaceOnUse">
<stop stop-color="#E77D62"/>
<stop offset="0.02" stop-color="#D76854"/>
<stop offset="0.04" stop-color="#C24B41"/>
<stop offset="0.07" stop-color="#B13532"/>
<stop offset="0.1" stop-color="#A62628"/>
<stop offset="0.14" stop-color="#9F1C21"/>
<stop offset="0.19" stop-color="#9D1A20"/>
<stop offset="0.22" stop-color="#A01E23"/>
<stop offset="0.26" stop-color="#AA2B2B"/>
<stop offset="0.3" stop-color="#BA423A"/>
<stop offset="0.34" stop-color="#D1604F"/>
<stop offset="0.38" stop-color="#E77D62"/>
<stop offset="0.43" stop-color="#D76753"/>
<stop offset="0.52" stop-color="#C24B41"/>
<stop offset="0.61" stop-color="#B13532"/>
<stop offset="0.71" stop-color="#A52628"/>
<stop offset="0.83" stop-color="#9F1C21"/>
<stop offset="1" stop-color="#9D1A20"/>
</linearGradient>
<linearGradient id="paint3_linear_324_34" x1="-0.620428" y1="50.5801" x2="52.3896" y2="48.5501" gradientUnits="userSpaceOnUse">
<stop stop-color="#7F8083"/>
<stop offset="0.15" stop-color="#818285"/>
<stop offset="0.26" stop-color="#8B8B8E"/>
<stop offset="0.35" stop-color="#9A9B9D"/>
<stop offset="0.44" stop-color="#B0B1B3"/>
<stop offset="0.52" stop-color="#CCCDCE"/>
<stop offset="0.59" stop-color="#EFEFEF"/>
<stop offset="0.62" stop-color="white"/>
<stop offset="0.64" stop-color="#F1F2F2"/>
<stop offset="0.69" stop-color="#D3D4D5"/>
<stop offset="0.73" stop-color="#BCBEC0"/>
<stop offset="0.77" stop-color="#AFB1B4"/>
<stop offset="0.81" stop-color="#ABADB0"/>
<stop offset="0.87" stop-color="#ADAFB2"/>
<stop offset="0.9" stop-color="#B7B8BB"/>
<stop offset="0.94" stop-color="#C6C8CA"/>
<stop offset="0.97" stop-color="#DCDDDE"/>
<stop offset="1" stop-color="white"/>
</linearGradient>
<clipPath id="clip0_324_34">
<rect x="2.5" y="2" width="108" height="108" rx="8" fill="white"/>
</clipPath>
<clipPath id="clip1_324_34">
<rect width="89.09" height="33.4" fill="white" transform="translate(11.5 39)"/>
</clipPath>
</defs>
</svg>
