<svg width="113" height="112" viewBox="0 0 113 112" fill="none" xmlns="http://www.w3.org/2000/svg">
<g clip-path="url(#clip0_528_619)">
<rect x="2.5" y="2" width="108" height="108" rx="8" fill="white"/>
<path fill-rule="evenodd" clip-rule="evenodd" d="M21.5001 22.0768H67.3349C76.8736 22.0768 84.6779 29.8813 84.6779 39.4197V67.7741C84.6779 77.3128 76.8736 85.1171 67.3349 85.1171L21.5 85.2547L21.5001 22.0768Z" fill="#005FA1"/>
<path fill-rule="evenodd" clip-rule="evenodd" d="M70.7104 16L76.7818 21.5689L84.7759 21.7761L85.1408 30.0177L90.6474 35.8309L85.0922 41.9173L84.8856 49.9313L76.6644 50.2973L70.8656 55.8174L64.7942 50.2485L56.8 50.0413L56.4351 41.7997L50.9285 35.9865L56.4838 29.9001L56.6903 21.8861L64.9116 21.5201L70.7104 16Z" fill="#E30016"/>
<path fill-rule="evenodd" clip-rule="evenodd" d="M70.813 23.9969L76.7818 21.5689L79.2077 27.5035L85.1408 30.0177L82.6702 35.9338L85.0922 41.9173L79.1723 44.3493L76.6644 50.2973L70.7629 47.8205L64.7942 50.2485L62.3682 44.3139L56.4351 41.7997L58.9057 35.8836L56.4838 29.9001L62.4036 27.4682L64.9116 21.5201L70.813 23.9969Z" fill="#F07C00"/>
<path fill-rule="evenodd" clip-rule="evenodd" d="M70.813 23.9969L74.2278 27.6594L79.2077 27.5035L79.0389 32.5138L82.6702 35.9338L79.0169 39.357L79.1723 44.3493L74.1744 44.1803L70.7629 47.8205L67.3481 44.158L62.3682 44.3139L62.537 39.3036L58.9057 35.8836L62.5591 32.4604L62.4036 27.4682L67.4016 27.6372L70.813 23.9969Z" fill="#B1C900"/>
<path fill-rule="evenodd" clip-rule="evenodd" d="M70.7878 27.0296C75.6909 27.0296 79.667 31.0056 79.667 35.9086C79.667 40.8117 75.6909 44.7878 70.7878 44.7878C65.8848 44.7878 61.9088 40.8117 61.9088 35.9086C61.9088 31.0056 65.8848 27.0296 70.7878 27.0296Z" fill="white"/>
<path fill-rule="evenodd" clip-rule="evenodd" d="M33.9891 61.465L34.1668 77.7506C34.1908 79.9579 34.8695 80.1773 36.7884 80.3541V80.3516C37.8654 80.3516 38.5906 80.2366 38.9777 80.0036C39.3573 79.775 39.6249 79.4806 39.7795 79.1137C39.9349 78.7445 40.0135 78.6187 40.0135 77.1799V59.9281C40.0135 58.4894 39.9349 58.3737 39.7795 57.998C39.6249 57.6243 39.3506 57.3312 38.9658 57.1079C38.578 56.883 37.8537 56.7733 36.7884 56.7733V55.2572H47.9331C50.5962 55.2572 52.4865 55.5328 53.5933 56.0736C54.7048 56.6168 55.5775 57.4254 56.2156 58.5028C56.8594 59.5801 57.1754 60.7312 57.1754 61.9424C57.1754 63.2273 56.7714 64.3649 55.958 65.3687C55.15 66.3656 54.3135 67.1374 52.2649 67.7263C56.4291 68.3016 58.2408 70.8533 58.2408 74.5098C58.2408 76.5108 57.5383 78.1636 56.1335 79.4685C54.4068 81.0546 51.8958 81.8442 48.6062 81.8442H36.7884V81.8358H27.1483V80.3621C29.1329 80.2696 29.9838 79.7374 29.9838 77.7506V66.2433C29.9838 64.0818 29.4447 63.7622 27.3003 63.5746V62.302C29.6631 62.2632 31.9014 61.9998 33.9891 61.465ZM44.6613 68.7448V76.5922C44.6613 77.3705 44.5152 78.3691 45.2686 78.9698C45.6849 79.3019 46.3202 79.4158 47.1532 79.4625C52.8742 79.7833 53.8589 76.9614 53.7857 74.2515C53.6271 68.3644 50.1618 68.7159 44.6613 68.7448ZM44.6601 66.5799C50.6709 67.5951 52.2183 65.4052 52.3368 62.0899C52.4661 58.4724 50.8134 57.5485 47.7574 57.4706C45.7999 57.4207 44.6602 57.7105 44.6602 59.3974L44.6601 66.5799ZM32.214 53.3359C33.726 53.3359 34.9525 54.5621 34.9525 56.0743C34.9525 57.5862 33.726 58.8127 32.214 58.8127C30.7019 58.8127 29.4757 57.5862 29.4757 56.0743C29.4757 54.5621 30.7019 53.3359 32.214 53.3359Z" fill="white"/>
<path fill-rule="evenodd" clip-rule="evenodd" d="M21.7049 94.3454H22.6026V92.3532C22.751 92.3798 22.9227 92.3864 23.11 92.3864C24.1873 92.3864 25.3428 91.9614 25.3428 90.7263C25.3428 90.2615 25.1398 89.8763 24.8042 89.6306C24.445 89.3584 23.8907 89.2255 23.157 89.2255C22.5403 89.2255 22.0639 89.272 21.7049 89.3251V94.3454ZM22.6026 89.8763C22.7196 89.8564 22.9306 89.8298 23.2116 89.8298C23.9377 89.8298 24.4372 90.1419 24.4372 90.7595C24.4372 91.4102 23.9377 91.7754 23.11 91.7754C22.8992 91.7754 22.7354 91.7688 22.6026 91.7357V89.8763ZM29.2229 93.6547C28.9418 93.7544 28.6141 93.8274 28.1377 93.8274C27.4585 93.8274 26.8574 93.5152 26.834 92.6918H29.5665C29.5821 92.5988 29.5898 92.4927 29.5898 92.3665C29.5898 91.4634 29.1058 90.6067 27.8957 90.6067C26.6778 90.6067 25.9596 91.4766 25.9596 92.5657C25.9596 93.6813 26.7091 94.4196 28.0051 94.4196C28.5905 94.4196 29.0668 94.3188 29.3712 94.1993L29.2229 93.6547ZM26.8418 92.1406C26.8887 91.7158 27.1697 91.1579 27.8334 91.1579C28.5281 91.1579 28.7388 91.7025 28.7311 92.1406H26.8418ZM32.6267 90.6267C32.5486 90.6134 32.4863 90.6067 32.4004 90.6067C31.9319 90.6067 31.4792 90.8923 31.284 91.3571H31.2528L31.2215 90.6865H30.433C30.4564 91.0251 30.4642 91.377 30.4642 91.802V94.3454H31.3699V92.4063C31.3699 91.7688 31.7523 91.3438 32.3613 91.3438C32.4628 91.3438 32.5486 91.3505 32.6267 91.3637V90.6267ZM34.235 91.1978V89.0197H33.3293V93.3692C33.3293 93.7012 33.3137 94.0996 33.2981 94.3454H34.071L34.118 93.7942H34.1413C34.4301 94.2258 34.8595 94.4196 35.4137 94.4196C36.3038 94.4196 37.2171 93.7942 37.2171 92.4595C37.2171 91.3438 36.5381 90.6067 35.5543 90.6067C34.9531 90.6067 34.5083 90.8258 34.2506 91.1978H34.235ZM34.235 92.1805C34.235 91.6957 34.6564 91.2244 35.2264 91.2244C35.9446 91.2244 36.2961 91.802 36.2961 92.4927C36.2961 93.2762 35.9134 93.8008 35.2186 93.8008C34.6253 93.8008 34.235 93.3626 34.235 92.8977V92.1805ZM41.1206 92.0943C41.1206 91.3172 40.7693 90.6067 39.5046 90.6067C38.9269 90.6067 38.4195 90.7462 38.1151 90.9122L38.3024 91.4235C38.5756 91.2707 38.966 91.1712 39.3485 91.1712C40.215 91.1712 40.215 91.7158 40.215 91.988C38.7396 91.988 37.8105 92.4395 37.8105 93.3493C37.8105 93.9138 38.2712 94.4196 39.0753 94.4196C39.6139 94.4196 40.0355 94.2059 40.2776 93.9204H40.3009L40.3634 94.3454H41.1832C41.1286 94.1063 41.1206 93.7876 41.1206 93.4755V92.0943ZM40.2385 93.1103C40.2385 93.5353 39.8326 93.854 39.3406 93.854C39.0049 93.854 38.7082 93.6747 38.7082 93.2696C38.7082 92.6189 39.5281 92.506 40.2385 92.506V93.1103ZM45.8126 92.1075C45.8126 90.9786 45.0631 90.6067 44.3917 90.6067C43.7438 90.6067 43.2909 90.9188 43.088 91.231H43.0645L43.0177 90.6865H42.2291C42.2447 90.9985 42.2605 91.3106 42.2605 91.7158V94.3454H43.166V92.1406C43.166 91.5564 43.6421 91.2443 44.0871 91.2443C44.7041 91.2443 44.9069 91.6826 44.9069 92.2004V94.3454H45.8126V92.1075ZM48.8261 92.1938L50.3405 90.6865H49.2711L48.2014 91.9083C48.0921 92.0345 47.9751 92.1938 47.8735 92.3333H47.8579V89.0197H46.9523V94.3454H47.8579V93.0306L48.2093 92.6654L49.4428 94.3454H50.5357L48.8261 92.1938ZM54.0566 92.0943C54.0566 91.3172 53.7053 90.6067 52.4405 90.6067C51.8629 90.6067 51.3555 90.7462 51.051 90.9122L51.2383 91.4235C51.5115 91.2707 51.9019 91.1712 52.2844 91.1712C53.1509 91.1712 53.1509 91.7158 53.1509 91.988C51.6755 91.988 50.7465 92.4395 50.7465 93.3493C50.7465 93.9138 51.2071 94.4196 52.0112 94.4196C52.5498 94.4196 52.9714 94.2059 53.2135 93.9204H53.2368L53.2993 94.3454H54.1192C54.0645 94.1063 54.0566 93.7876 54.0566 93.4755V92.0943ZM53.1745 93.1103C53.1745 93.5353 52.7685 93.854 52.2766 93.854C51.9409 93.854 51.6442 93.6747 51.6442 93.2696C51.6442 92.6189 52.4641 92.506 53.1745 92.506V93.1103ZM58.7485 92.1075C58.7485 90.9786 57.999 90.6067 57.3277 90.6067C56.6797 90.6067 56.227 90.9188 56.024 91.231H56.0004L55.9537 90.6865H55.1651C55.1808 90.9985 55.1964 91.3106 55.1964 91.7158V94.3454H56.1021V92.1406C56.1021 91.5564 56.5782 91.2443 57.0231 91.2443C57.6401 91.2443 57.8428 91.6826 57.8428 92.2004V94.3454H58.7485V92.1075ZM64.6974 89.4181C64.4398 89.3052 64.0104 89.1857 63.4404 89.1857C62.2537 89.1857 61.4966 89.79 61.4966 90.5935C61.4966 91.284 62.0977 91.7422 62.9877 92.0478C63.698 92.3001 64.0025 92.5657 64.0025 92.9974C64.0025 93.4556 63.6044 93.7676 62.894 93.7676C62.4021 93.7676 61.9181 93.6348 61.598 93.4688L61.395 94.1129C61.6839 94.279 62.2773 94.4196 62.8394 94.4196C64.1821 94.4196 64.9238 93.7809 64.9238 92.9309C64.9238 92.2336 64.4631 91.7887 63.5028 91.4302C62.7456 91.1513 62.4099 90.9387 62.4099 90.5071C62.4099 90.1818 62.7066 89.8298 63.417 89.8298C63.9088 89.8298 64.2835 89.9626 64.4787 90.0556L64.6974 89.4181ZM68.2964 90.6865L67.6016 92.745C67.5233 92.9907 67.4376 93.2629 67.3751 93.4755H67.3517C67.2893 93.2629 67.2033 92.9841 67.1175 92.745L66.3368 90.6865H65.3452L66.8208 94.0598C66.8599 94.1328 66.8676 94.1793 66.8676 94.2192C66.8676 94.3188 66.5319 95.0636 65.5951 95.3491L65.8293 96C66.0401 95.9601 66.4383 95.8339 66.8285 95.5285C67.3438 95.1035 67.703 94.4261 68.2103 93.2231L69.2487 90.6865H68.2964ZM72.9024 92.0943C72.9024 91.3172 72.5511 90.6067 71.2864 90.6067C70.7086 90.6067 70.2013 90.7462 69.8968 90.9122L70.0842 91.4235C70.3573 91.2707 70.7477 91.1712 71.1303 91.1712C71.9968 91.1712 71.9968 91.7158 71.9968 91.988C70.5213 91.988 69.5922 92.4395 69.5922 93.3493C69.5922 93.9138 70.0529 94.4196 70.857 94.4196C71.3958 94.4196 71.8173 94.2059 72.0593 93.9204H72.0827L72.1451 94.3454H72.965C72.9103 94.1063 72.9024 93.7876 72.9024 93.4755V92.0943ZM72.0203 93.1103C72.0203 93.5353 71.6143 93.854 71.1224 93.854C70.7867 93.854 70.4901 93.6747 70.4901 93.2696C70.4901 92.6189 71.31 92.506 72.0203 92.506V93.1103ZM76.2047 90.6267C76.1266 90.6134 76.0642 90.6067 75.9783 90.6067C75.5099 90.6067 75.0572 90.8923 74.8619 91.3571H74.8308L74.7995 90.6865H74.011C74.0345 91.0251 74.0422 91.377 74.0422 91.802V94.3454H74.9479V92.4063C74.9479 91.7688 75.3303 91.3438 75.9393 91.3438C76.0408 91.3438 76.1266 91.3505 76.2047 91.3637V90.6267ZM77.8911 89.6771C77.8911 89.4181 77.6803 89.2255 77.368 89.2255C77.0557 89.2255 76.837 89.4181 76.837 89.6771C76.837 89.9227 77.0479 90.122 77.3601 90.122C77.688 90.122 77.8911 89.9227 77.8911 89.6771ZM77.813 90.6865H76.9073V94.3454H77.813V90.6865ZM81.9896 92.0943C81.9896 91.3172 81.6383 90.6067 80.3735 90.6067C79.7959 90.6067 79.2885 90.7462 78.984 90.9122L79.1713 91.4235C79.4445 91.2707 79.8349 91.1712 80.2174 91.1712C81.0839 91.1712 81.0839 91.7158 81.0839 91.988C79.6085 91.988 78.6795 92.4395 78.6795 93.3493C78.6795 93.9138 79.1401 94.4196 79.9442 94.4196C80.4828 94.4196 80.9044 94.2059 81.1465 93.9204H81.1698L81.2323 94.3454H82.0522C81.9975 94.1063 81.9896 93.7876 81.9896 93.4755V92.0943ZM81.1075 93.1103C81.1075 93.5353 80.7015 93.854 80.2096 93.854C79.8738 93.854 79.5772 93.6747 79.5772 93.2696C79.5772 92.6189 80.3971 92.506 81.1075 92.506V93.1103ZM86.6815 92.1341C86.6815 90.9786 85.932 90.6067 85.2841 90.6067C84.8157 90.6067 84.3317 90.806 84.0507 91.1845H84.0349V89.0197H83.1294V94.3454H84.0349V92.1075C84.0349 91.5564 84.5111 91.2443 84.9561 91.2443C85.5651 91.2443 85.7759 91.6826 85.7759 92.2071V94.3454H86.6815V92.1341Z" fill="#005FA1"/>
</g>
<rect x="1.5" y="1" width="110" height="110" rx="9" stroke="#CCCCCC" stroke-width="2"/>
<defs>
<clipPath id="clip0_528_619">
<rect x="2.5" y="2" width="108" height="108" rx="8" fill="white"/>
</clipPath>
</defs>
</svg>
