<svg width="113" height="112" viewBox="0 0 113 112" fill="none" xmlns="http://www.w3.org/2000/svg">
<g clip-path="url(#clip0_528_617)">
<rect x="2.5" y="2" width="108" height="108" rx="8" fill="white"/>
<g clip-path="url(#clip1_528_617)">
<path fill-rule="evenodd" clip-rule="evenodd" d="M16.6128 58.2901C16.4178 57.6064 16.3101 56.8854 16.3101 56.1401C16.3101 51.8157 19.8289 48.2969 24.1533 48.2969C26.6702 48.2969 28.7035 49.2038 29.8799 50.8471C30.0094 51.0024 29.9876 51.2333 29.8337 51.3616C29.7131 51.4616 29.5425 51.4642 29.4142 51.3911C28.5957 50.9344 27.5797 50.6675 26.4816 50.5957C27.3142 51.2435 28.0749 52.0556 28.715 52.9946C28.8305 53.1627 28.9383 53.3333 29.0435 53.5065C29.3796 53.1832 29.5925 52.8047 29.6695 52.3917C29.7067 52.1928 29.8965 52.062 30.0941 52.0992C30.2916 52.1351 30.4238 52.3263 30.3866 52.5238C30.2711 53.1473 29.935 53.7066 29.4091 54.1581C30.1262 55.5474 30.5149 57.0266 30.511 58.4248C30.511 58.5531 30.5072 58.6776 30.5008 58.802C30.7624 58.5121 30.951 58.1926 31.0588 57.8476C31.1948 57.3011 31.2679 56.7289 31.2679 56.1401C31.2679 55.1793 31.0806 54.2479 30.7099 53.3718C30.6303 53.1858 30.7176 52.9715 30.9036 52.8933C31.0883 52.8137 31.3025 52.901 31.3808 53.087C31.7714 54.0091 31.9785 54.9874 31.9965 55.995V56.28C31.9875 56.7772 31.9309 57.2633 31.8336 57.7334C31.8336 57.7539 31.8323 57.7732 31.8272 57.7924C31.8092 57.8771 31.7861 57.9617 31.7618 58.0438C31.3141 59.8347 30.248 61.3831 28.8048 62.4504C28.7343 62.5055 28.6625 62.5594 28.588 62.6094C28.5845 62.6116 28.5811 62.6137 28.5777 62.6158C28.5688 62.6213 28.5601 62.6266 28.5508 62.6312C27.2962 63.4843 25.7825 63.9834 24.1533 63.9834C20.6345 63.9834 17.6481 61.6524 16.659 58.4531C16.657 58.4462 16.6543 58.4401 16.6514 58.4336C16.6505 58.4316 16.6496 58.4295 16.6487 58.4274C16.6359 58.3825 16.6244 58.3363 16.6128 58.2901ZM28.7946 60.6698C27.9287 60.961 26.9524 61.1111 25.921 61.1239V61.1226C25.7414 61.959 25.5054 62.6697 25.2142 63.1739C26.379 62.9981 27.4527 62.5389 28.361 61.8692C28.8228 61.5049 29.1769 61.0149 29.4168 60.4273C29.2205 60.5159 29.0127 60.5967 28.7946 60.6698ZM21.0027 62.5055C21.0296 62.5171 21.0527 62.5338 21.0732 62.5517L21.0745 62.5543C21.9943 62.9981 23.0231 63.247 24.1084 63.2547C24.1124 63.2541 24.1164 63.2534 24.1204 63.2527C24.1331 63.2505 24.1461 63.2483 24.1597 63.2483C24.433 63.2483 24.846 62.5119 25.1693 61.1098C24.5112 61.0752 23.839 60.9854 23.1642 60.8417C22.2727 60.6518 21.4234 60.3735 20.646 60.0232C20.4344 61.4049 20.5986 62.308 21.0027 62.5055ZM17.1965 57.3627C17.2119 57.6077 17.2504 57.8488 17.3132 58.0862H17.3145C17.743 59.5909 18.6551 60.893 19.8712 61.8141C19.7788 61.224 19.8199 60.494 19.9636 59.6871C19.258 59.3087 18.6256 58.8687 18.0906 58.3748C17.7366 58.0477 17.439 57.709 17.1965 57.3627ZM26.37 55.2716C26.379 55.5577 26.3829 55.8425 26.3829 56.1273V56.1247C26.3829 57.5897 26.2789 59.0945 26.0622 60.3914C26.9614 60.3683 27.8107 60.2298 28.5637 59.9771C28.9883 59.8347 29.3654 59.6602 29.6926 59.4588C29.7503 59.133 29.7811 58.7866 29.7824 58.4236C29.7849 57.1689 29.4437 55.8399 28.8061 54.5789C28.1185 54.9753 27.2783 55.2113 26.37 55.2716ZM20.7884 59.2818C21.5607 59.6448 22.4151 59.9322 23.3182 60.1259H23.3195C23.9942 60.2696 24.6664 60.3542 25.3194 60.3824C25.5169 59.2689 25.6542 57.8437 25.6542 56.1247C25.6542 55.8335 25.6516 55.5526 25.6427 55.278C25.1962 55.2627 24.7434 55.2088 24.2893 55.1126C23.6915 54.9843 23.1206 54.7983 22.5972 54.5635C22.483 54.7777 22.3727 54.9958 22.2637 55.219C21.5145 56.7559 21.0411 58.14 20.7884 59.2818ZM17.3248 56.0554C17.5416 56.6584 17.9688 57.2652 18.5884 57.8373H18.5871C19.0284 58.2452 19.5466 58.616 20.1226 58.9405C20.4318 57.6487 20.9603 56.2261 21.6082 54.8996C21.7185 54.6751 21.8314 54.4519 21.9468 54.2325C21.5273 53.9927 21.1502 53.7168 20.8256 53.4128C20.4844 53.0934 20.2163 52.756 20.0251 52.4096C19.3632 52.8856 18.7846 53.4398 18.3203 54.0555C17.8302 54.7033 17.498 55.3807 17.3248 56.0554ZM28.1108 53.4051C27.4758 52.4738 26.7151 51.6771 25.8851 51.0601C26.1212 52.0671 26.2713 53.2781 26.338 54.5379C27.1333 54.4814 27.8697 54.28 28.4534 53.9426C28.3456 53.7617 28.2314 53.5821 28.1108 53.4051ZM22.9487 53.9234C23.4105 54.1273 23.9121 54.289 24.4394 54.4019C24.8306 54.4853 25.2232 54.534 25.6106 54.5494C25.5298 53.0446 25.3374 51.8311 25.1077 50.928C24.3739 51.6977 23.6286 52.7342 22.9487 53.9234ZM20.6371 52.0094C20.7923 52.3044 21.0206 52.5995 21.3234 52.8817V52.883C21.603 53.146 21.9314 53.3846 22.2958 53.5963C22.9359 52.4738 23.6325 51.4783 24.3316 50.6958C23.848 50.7702 23.3618 50.8767 22.8833 51.0203C22.0777 51.2628 21.3208 51.5989 20.6371 52.0094ZM19.725 50.6714C19.7327 50.6329 19.7429 50.5957 19.7532 50.5585C18.5717 51.4937 17.6917 52.7919 17.2876 54.2864C17.421 54.0619 17.5685 53.8387 17.7353 53.6193C18.2792 52.8997 18.9617 52.2595 19.7468 51.7182C19.6595 51.368 19.6518 51.0152 19.725 50.6714ZM21.0989 49.826C20.7461 50.107 20.519 50.4443 20.4382 50.8228V50.8215C20.4061 50.9767 20.3984 51.1345 20.4138 51.2949C21.1104 50.8946 21.8699 50.5636 22.6742 50.3225C23.1065 50.1916 23.544 50.0903 23.9827 50.0146C22.941 49.6336 21.9507 49.572 21.0989 49.826ZM27.0307 49.5412C26.837 49.5861 26.6074 49.6977 26.3572 49.8606C26.964 49.8902 27.5515 49.9735 28.1031 50.1121C27.7593 49.8748 27.3976 49.6875 27.0307 49.5412ZM26.0647 49.2398C25.7389 49.1628 25.4233 49.1128 25.1282 49.0794V49.0807C25.2386 49.2436 25.3412 49.4335 25.4361 49.649C25.6504 49.4848 25.8607 49.3488 26.0647 49.2398ZM23.3592 49.073C23.6812 49.1435 24.0071 49.241 24.3367 49.3668V49.368C24.4188 49.3988 24.4997 49.4335 24.5805 49.4681C24.4214 49.1795 24.2688 49.0307 24.1443 49.0281C23.8775 49.0281 23.6171 49.0448 23.3592 49.073Z" fill="url(#paint0_radial_528_617)"/>
<path d="M94.5115 53.8476C95.6712 53.8476 96.31 54.4082 96.31 55.4281C96.31 56.3889 95.6802 56.9636 94.627 56.9636H93.8893V58.4338H92.9118V53.8476H94.5115ZM93.8893 56.1657H94.473C95.0388 56.1657 95.3261 55.9181 95.3261 55.4281C95.3261 54.938 95.0118 54.6584 94.441 54.6584H93.8893V56.167V56.1657ZM91.1146 56.5967C91.1146 57.2702 90.8567 57.5973 90.3244 57.5973C89.792 57.5973 89.5162 57.26 89.5162 56.5967V53.8476H88.5399V56.5313C88.5361 57.1881 88.7003 57.6859 89.0261 58.013C89.3289 58.317 89.7663 58.471 90.3244 58.471C91.13 58.471 92.0908 58.1336 92.0908 56.5313V53.8463H91.1146V56.5955V56.5967ZM85.8755 53.8091C86.8671 53.8091 87.9242 54.4223 87.9242 56.1465C87.9242 57.8706 86.8658 58.4722 85.8755 58.4722C84.8851 58.4722 83.8204 57.8616 83.8204 56.1465C83.8204 54.4313 84.8826 53.8091 85.8755 53.8091ZM85.8755 57.6166C86.2642 57.6166 86.9159 57.4254 86.9159 56.1465C86.9159 54.8675 86.2642 54.6763 85.8755 54.6763C85.202 54.6763 84.83 55.1985 84.83 56.1465C84.83 57.0945 85.202 57.6166 85.8755 57.6166ZM82.8134 57.0419C82.975 57.3703 83.1136 57.6538 83.4368 57.6538H83.669V58.4081L83.6357 58.4171C83.6292 58.4196 83.4586 58.4633 83.161 58.4633C82.39 58.4633 82.1527 57.9322 81.9436 57.4639C81.773 57.0804 81.6242 56.7494 81.2214 56.7494H80.7916V58.4312H79.8154V53.8476H81.4407C82.6286 53.8476 83.1815 54.3107 83.1815 55.3062C83.1815 55.922 82.8121 56.3017 82.4426 56.4633C82.6055 56.6211 82.7107 56.8353 82.8134 57.0432M80.7916 55.9925H81.3368C81.8795 55.9925 82.2156 55.7398 82.2156 55.3319C82.2156 54.9034 81.9218 54.6584 81.4074 54.6584H80.7916V55.9938V55.9925ZM77.2151 56.7571H78.2234V56.8071C78.2234 57.1047 78.1182 57.6038 77.4139 57.6038C76.7507 57.6038 76.3556 57.0586 76.3556 56.1465C76.3556 55.2344 76.734 54.6763 77.396 54.6763C78.1823 54.6763 78.2093 55.4717 78.2106 55.505L78.2131 55.5564L79.1239 55.414V55.3755C79.1239 55.0445 78.8289 53.8079 77.3831 53.8079C76.0888 53.8079 75.3473 54.6597 75.3473 56.1452C75.3473 57.6307 76.1131 58.471 77.396 58.471C78.6788 58.471 79.1432 57.5704 79.1432 56.8007V56.0041H77.2151V56.7558V56.7571ZM74.2902 53.8476H73.1293L71.6117 55.9117V53.8476H70.6213V58.4338H71.6117V56.3248L73.1678 58.4338H74.3428L72.5674 56.1221L74.2902 53.8489V53.8476ZM68.7664 56.6801L67.1628 53.8476H66.1725V58.4338H67.15V55.6988L68.7471 58.4338H69.7439V53.8476H68.7676V56.6801H68.7664ZM64.238 53.8771L65.9108 58.4325H64.8948L64.5035 57.3087H62.9756L62.5972 58.4325H61.5748L63.2592 53.8463H64.2277L64.2392 53.8759L64.238 53.8771ZM63.7389 55.0971L63.2438 56.5441H64.2457L63.7389 55.0971ZM60.6665 56.0156C61.018 56.117 61.4799 56.4402 61.4799 57.1291C61.4799 57.9578 60.8923 58.4338 59.8673 58.4338H57.9328V53.8476H59.68C60.673 53.8476 61.1771 54.2633 61.1771 55.0804C61.1771 55.7142 60.8885 55.9374 60.6653 56.0156M59.5774 55.7218C59.9841 55.7218 60.1739 55.5512 60.1739 55.1831C60.1739 54.8341 59.9328 54.6571 59.4556 54.6571H58.9104V55.7218H59.5774ZM58.9104 57.6217H59.6736C60.1727 57.6217 60.4049 57.4344 60.4049 57.0316C60.4049 56.539 59.9969 56.4351 59.6544 56.4351H58.9104V57.6217ZM53.9086 53.8463C55.3364 53.8463 56.1882 54.7328 56.1882 56.2157C56.1882 57.6987 55.4275 58.4312 54.101 58.4312H52.5475V53.8476H53.9099L53.9086 53.8463ZM53.5237 57.6217H54.0946C54.7976 57.6217 55.2184 57.0919 55.2184 56.2029C55.2184 55.1766 54.7732 54.6558 53.8958 54.6558H53.5237V57.6217ZM50.1088 53.8463H49.1313V58.4325H52.0934V57.6217H50.1088V53.8463ZM47.8151 57.0419C47.9768 57.3703 48.1166 57.6538 48.4399 57.6538H48.6708V58.4081L48.6374 58.4171C48.6297 58.4196 48.4604 58.4633 48.1628 58.4633C47.3918 58.4633 47.1545 57.9322 46.9454 57.4639C46.7735 57.0804 46.6259 56.7494 46.2231 56.7494H45.7934V58.4312H44.8159V53.8476H46.4412C47.6278 53.8476 48.182 54.3107 48.182 55.3062C48.182 55.922 47.8126 56.3017 47.4444 56.4633C47.6073 56.6211 47.7125 56.8353 47.8151 57.0432M45.7947 55.9925H46.3399C46.8825 55.9925 47.2186 55.7398 47.2186 55.3319C47.2186 54.9034 46.9236 54.6584 46.4104 54.6584H45.7947V55.9938V55.9925ZM42.2117 53.8091C43.2021 53.8091 44.2604 54.4223 44.2604 56.1465C44.2604 57.8706 43.2021 58.4722 42.2117 58.4722C41.2214 58.4722 40.1566 57.8616 40.1566 56.1465C40.1566 54.4313 41.2188 53.8091 42.2117 53.8091ZM42.2117 57.6166C42.6004 57.6166 43.2521 57.4254 43.2521 56.1465C43.2521 54.8675 42.6004 54.6763 42.2117 54.6763C41.5382 54.6763 41.1649 55.1985 41.1649 56.1465C41.1649 57.0945 41.537 57.6166 42.2117 57.6166ZM38.9148 53.8476H40.0194L38.7019 58.4338H37.5987L36.7982 55.5576L35.9849 58.4338H34.8816L33.5654 53.8476H34.702L35.473 57.1945L36.3966 53.8476H37.2177L38.1118 57.1945L38.9136 53.8476H38.9148Z" fill="#223353"/>
</g>
</g>
<rect x="1.5" y="1" width="110" height="110" rx="9" stroke="#CCCCCC" stroke-width="2"/>
<defs>
<radialGradient id="paint0_radial_528_617" cx="0" cy="0" r="1" gradientUnits="userSpaceOnUse" gradientTransform="translate(31.31 51.2553) scale(12.9746)">
<stop stop-color="white"/>
<stop offset="0.17" stop-color="#B3E0F3"/>
<stop offset="0.43" stop-color="#4AB6E2"/>
<stop offset="0.54" stop-color="#21A6DC"/>
<stop offset="0.71" stop-color="#2177A4"/>
<stop offset="0.91" stop-color="#214669"/>
<stop offset="1" stop-color="#223353"/>
</radialGradient>
<clipPath id="clip0_528_617">
<rect x="2.5" y="2" width="108" height="108" rx="8" fill="white"/>
</clipPath>
<clipPath id="clip1_528_617">
<rect width="80" height="15.6865" fill="white" transform="translate(16.3101 48.2969)"/>
</clipPath>
</defs>
</svg>
