<svg width="113" height="112" viewBox="0 0 113 112" fill="none" xmlns="http://www.w3.org/2000/svg">
<g clip-path="url(#clip0_528_615)">
<rect x="2.5" y="2" width="108" height="108" rx="8" fill="white"/>
<path d="M67.8664 55.9243C67.8664 55.9265 67.8664 55.9287 67.8664 55.9308V55.9178C67.8664 55.9199 67.8664 55.9221 67.8664 55.9243Z" fill="url(#paint0_radial_528_615)"/>
<path fill-rule="evenodd" clip-rule="evenodd" d="M18.0439 66.9602C17.0495 63.4735 16.5 59.797 16.5 55.9963C16.5 33.944 34.4442 16 56.4967 16C69.3318 16 79.7006 20.625 85.6994 29.005C86.3602 29.7966 86.249 30.9741 85.4639 31.6282C84.849 32.1385 83.9789 32.1516 83.3248 31.7787C79.1511 29.4498 73.9699 28.0892 68.3701 27.7228C72.6158 31.0264 76.4951 35.1673 79.7595 39.9559C80.3482 40.8129 80.8977 41.6829 81.4342 42.5661C83.1481 40.9175 84.2341 38.9877 84.6266 36.8813C84.8163 35.8673 85.7845 35.2 86.7919 35.3897C87.7994 35.5729 88.4732 36.5476 88.2835 37.5551C87.6947 40.7344 85.9807 43.5866 83.2986 45.8893C86.9555 52.974 88.9376 60.5166 88.918 67.6471C88.918 68.3013 88.8984 68.9358 88.8657 69.5704C90.2002 68.092 91.1619 66.4631 91.7114 64.7033C92.4048 61.9165 92.7777 58.9989 92.7777 55.9963C92.7777 51.0965 91.8226 46.3472 89.932 41.8792C89.5264 40.9306 89.9713 39.8381 90.9198 39.4391C91.8618 39.0335 92.9543 39.4783 93.3534 40.4269C95.3456 45.1294 96.4017 50.1181 96.4935 55.2563V56.7092C96.4474 59.2451 96.1588 61.7241 95.6626 64.1211C95.6626 64.2258 95.6561 64.3239 95.6299 64.422C95.5384 64.8538 95.4206 65.2856 95.2963 65.7042C93.0132 74.8365 87.577 82.7324 80.2174 88.1751C79.8576 88.4564 79.4912 88.7312 79.1118 88.9863C79.0938 88.9971 79.0762 89.008 79.0589 89.0187C79.0134 89.0467 78.9695 89.0738 78.9221 89.0975C72.5242 93.4478 64.8048 95.9925 56.4967 95.9925C38.5525 95.9925 23.3231 84.1062 18.2794 67.791C18.2694 67.756 18.2555 67.7248 18.2408 67.6916C18.2363 67.6814 18.2317 67.671 18.227 67.6602C18.1616 67.4313 18.1027 67.1957 18.0439 66.9602ZM80.1651 79.0952C75.7493 80.5802 70.771 81.3456 65.5114 81.411V81.4044C64.5955 85.6696 63.3918 89.2938 61.9068 91.8647C67.8468 90.9685 73.3223 88.6265 77.9539 85.2117C80.309 83.3539 82.1145 80.8549 83.3378 77.8588C82.3369 78.3102 81.2772 78.7223 80.1651 79.0952ZM40.43 88.4564C40.5674 88.5153 40.6851 88.6004 40.7898 88.6919L40.7963 88.705C45.4868 90.9685 50.7334 92.2376 56.2678 92.2768C56.2881 92.2737 56.3085 92.2702 56.329 92.2666C56.3939 92.2555 56.4598 92.2441 56.5294 92.2441C57.9228 92.2441 60.0293 88.4891 61.6779 81.339C58.3219 81.1624 54.894 80.7045 51.453 79.9718C46.9064 79.0036 42.5757 77.584 38.6114 75.7981C37.532 82.8436 38.3693 87.449 40.43 88.4564ZM21.0204 62.2306C21.0989 63.48 21.2952 64.7099 21.6157 65.9201H21.6223C23.8072 73.5936 28.4585 80.2335 34.6601 84.9304C34.1891 81.9212 34.3984 78.199 35.1311 74.0842C31.5331 72.1544 28.308 69.9106 25.5801 67.392C23.7745 65.7238 22.2568 63.9968 21.0204 62.2306ZM67.801 51.5675C67.8467 53.0241 67.8664 54.4742 67.8664 55.9243C67.8661 63.3929 67.3362 71.0638 66.231 77.6756C70.8168 77.5579 75.1475 76.8514 78.9875 75.5626C81.1529 74.8365 83.0762 73.9468 84.7443 72.9198C85.0387 71.2582 85.1957 69.4919 85.2023 67.6406C85.2153 61.2428 83.4752 54.4655 80.2239 48.035C76.7175 50.0564 72.4326 51.26 67.801 51.5675ZM39.3375 72.017C43.2757 73.8683 47.6326 75.3337 52.238 76.3215H52.2445C55.6855 77.0542 59.1135 77.4859 62.4433 77.6298C63.4507 71.9516 64.1507 64.6837 64.1507 55.9178C64.1507 54.4328 64.1376 53.0001 64.0918 51.6002C61.8152 51.5217 59.506 51.247 57.1902 50.7563C54.1417 50.1021 51.2306 49.1536 48.5615 47.9565C47.9793 49.0489 47.4167 50.161 46.8606 51.2993C43.0402 59.1363 40.6263 66.1949 39.3375 72.017ZM21.6746 55.5645C22.7802 58.6391 24.9586 61.7334 28.1183 64.651H28.1117C30.3621 66.7313 33.005 68.6218 35.9423 70.2769C37.5189 63.6894 40.2141 56.4346 43.5177 49.6704C44.0803 48.5256 44.656 47.3873 45.2448 46.2687C43.1056 45.0454 41.1823 43.6389 39.5272 42.0885C37.7871 40.4596 36.4199 38.7391 35.4451 36.9729C32.0695 39.3998 29.1192 42.2259 26.751 45.3659C24.2521 48.6695 22.5577 52.1236 21.6746 55.5645ZM76.6783 42.0493C73.4401 37.2999 69.5608 33.2375 65.3282 30.0909C66.5319 35.2262 67.2973 41.4016 67.6375 47.8256C71.6934 47.5378 75.4484 46.5107 78.4249 44.7902C77.8754 43.8679 77.2932 42.952 76.6783 42.0493ZM50.354 44.6921C52.709 45.7323 55.2669 46.5565 57.9556 47.1322C59.9508 47.5574 61.9526 47.806 63.9282 47.8845C63.5161 40.211 62.5348 34.0225 61.3638 29.4171C57.6219 33.3422 53.8211 38.6279 50.354 44.6921ZM38.5656 34.9318C39.3571 36.4364 40.5216 37.941 42.0655 39.3802V39.3868C43.4916 40.7278 45.1663 41.9446 47.0242 43.024C50.2885 37.2999 53.8407 32.2235 57.406 28.2331C54.9398 28.6125 52.4604 29.1555 50.0203 29.8881C45.9121 31.1245 42.0524 32.8385 38.5656 34.9318ZM33.9143 28.1088C33.9536 27.9125 34.0059 27.7228 34.0583 27.5331C28.0332 32.302 23.5455 38.9223 21.4849 46.5434C22.1652 45.3986 22.9175 44.2604 23.768 43.1417C26.5417 39.4718 30.022 36.2075 34.0256 33.4468C33.5807 31.661 33.5415 29.862 33.9143 28.1088ZM40.9206 23.7978C39.1216 25.2304 37.9637 26.9509 37.5516 28.8807V28.8742C37.3881 29.6657 37.3488 30.4704 37.4273 31.2881C40.9795 29.247 44.8523 27.5593 48.954 26.3294C51.1586 25.6622 53.3894 25.1454 55.6267 24.7594C50.3147 22.8165 45.2644 22.5025 40.9206 23.7978ZM71.17 22.3455C70.1822 22.5745 69.0112 23.1436 67.7356 23.9744C70.8299 24.1249 73.826 24.5501 76.639 25.2566C74.8858 24.0464 73.041 23.0913 71.17 22.3455ZM66.2441 20.8082C64.5824 20.4157 62.9731 20.1606 61.4685 19.9905V19.997C62.0311 20.8278 62.5545 21.796 63.0386 22.895C64.131 22.0577 65.2039 21.3642 66.2441 20.8082ZM52.4473 19.9578C54.0893 20.3176 55.751 20.8147 57.4322 21.4558V21.4624C57.8509 21.6194 58.263 21.796 58.6752 21.9726C57.864 20.5007 57.0855 19.7419 56.4509 19.7288C55.0902 19.7288 53.7622 19.8138 52.4473 19.9578Z" fill="url(#paint1_radial_528_615)"/>
</g>
<rect x="1.5" y="1" width="110" height="110" rx="9" stroke="#CCCCCC" stroke-width="2"/>
<defs>
<radialGradient id="paint0_radial_528_615" cx="0" cy="0" r="1" gradientUnits="userSpaceOnUse" gradientTransform="translate(92.9924 31.0866) scale(66.164 66.1633)">
<stop stop-color="white"/>
<stop offset="0.17" stop-color="#B3E0F3"/>
<stop offset="0.43" stop-color="#4AB6E2"/>
<stop offset="0.54" stop-color="#21A6DC"/>
<stop offset="0.71" stop-color="#2177A4"/>
<stop offset="0.91" stop-color="#214669"/>
<stop offset="1" stop-color="#223353"/>
</radialGradient>
<radialGradient id="paint1_radial_528_615" cx="0" cy="0" r="1" gradientUnits="userSpaceOnUse" gradientTransform="translate(92.9924 31.0866) scale(66.164 66.1633)">
<stop stop-color="white"/>
<stop offset="0.17" stop-color="#B3E0F3"/>
<stop offset="0.43" stop-color="#4AB6E2"/>
<stop offset="0.54" stop-color="#21A6DC"/>
<stop offset="0.71" stop-color="#2177A4"/>
<stop offset="0.91" stop-color="#214669"/>
<stop offset="1" stop-color="#223353"/>
</radialGradient>
<clipPath id="clip0_528_615">
<rect x="2.5" y="2" width="108" height="108" rx="8" fill="white"/>
</clipPath>
</defs>
</svg>
