<svg width="112" height="112" viewBox="0 0 112 112" fill="none" xmlns="http://www.w3.org/2000/svg">
<g clip-path="url(#clip0_742_116)">
<rect x="2" y="2" width="108" height="108" rx="8" fill="white"/>
<path fill-rule="evenodd" clip-rule="evenodd" d="M56 96C78.0911 96 96 78.0914 96 56C96 33.9086 78.0911 16 56 16C33.9089 16 16 33.9086 16 56C16 78.0914 33.9089 96 56 96Z" fill="#FD6542"/>
<path d="M44.0504 50.3937L44.4398 47.3277H39.7498L39.9449 45.7555C40.0356 44.9464 40.1978 44.263 40.4314 43.7053C40.631 43.1979 40.9286 42.737 41.3065 42.35C41.6467 42.0115 42.0552 41.7533 42.5033 41.5933C42.9833 41.4303 43.4866 41.3509 43.9923 41.3584H44.5568C44.723 41.3594 44.889 41.3462 45.0529 41.3185C45.1832 41.2995 45.3069 41.2478 45.4128 41.1678C45.5092 41.0843 45.5716 40.967 45.588 40.8388L45.9774 38.6094C45.2541 38.3401 44.4896 38.2052 43.7199 38.211C42.7535 38.204 41.7939 38.3775 40.8885 38.723C40.0278 39.0518 39.2378 39.5486 38.5626 40.186C37.869 40.8498 37.3017 41.6394 36.8896 42.5149C36.448 43.4305 36.156 44.4658 36.0138 45.6208L35.7995 47.3322H33.0762L32.8621 49.064C32.8233 49.3953 32.8849 49.644 33.0468 49.8102C33.2278 49.9867 33.4538 50.1076 33.699 50.1587L35.4308 50.4374L32.8422 72.2938H34.5152C35.1123 72.2938 35.5729 72.1379 35.8967 71.8262C36.2206 71.5145 36.4738 71.0733 36.6563 70.5026L37.6094 66.6008L39.5165 50.3937H44.0504ZM49.129 67.3545L52.6318 37.8948H48.51L45.0234 67.3574L49.129 67.3545ZM56.5629 47.0491L54.1885 67.3574H58.2948L60.6883 47.0521L56.5629 47.0491ZM61.7099 39.8035C61.5656 39.4665 61.3609 39.1601 61.1064 38.9C60.8537 38.6413 60.5569 38.432 60.2306 38.2826C59.9097 38.1335 59.5614 38.0565 59.209 38.0567C58.8661 38.0572 58.5274 38.1343 58.2168 38.2826C57.8964 38.4322 57.6061 38.6416 57.3608 38.9C57.111 39.166 56.9109 39.4766 56.7705 39.8163C56.6229 40.1649 56.5477 40.541 56.5497 40.9209C56.547 41.2977 56.6222 41.6708 56.7705 42.0157C56.9128 42.349 57.1102 42.6546 57.3542 42.9192C57.5926 43.177 57.8766 43.3865 58.191 43.5366C58.5046 43.6873 58.847 43.7644 59.1934 43.7625C59.5429 43.7637 59.8883 43.6866 60.2055 43.5366C60.5298 43.3838 60.8258 43.175 61.0806 42.9192C61.341 42.6601 61.5522 42.3537 61.7034 42.0157C61.859 41.6728 61.939 41.299 61.9374 40.9209C61.941 40.5377 61.8658 40.158 61.7166 39.8066L61.7099 39.8035ZM68.4734 57.6822C68.7926 56.6511 69.2027 55.6518 69.6988 54.6967C70.1336 53.8508 70.6486 53.0506 71.2364 52.3077C71.781 51.6305 72.3454 51.1034 72.9292 50.7265C73.5131 50.3495 74.0905 50.1605 74.6611 50.1595C75.5817 50.1595 76.2931 50.5342 76.7956 51.2837C77.2981 52.0331 77.5478 53.158 77.5449 54.6583C77.5437 55.4288 77.4786 56.1978 77.3506 56.957C77.224 57.7186 77.0352 58.4679 76.786 59.1971C76.5458 59.8992 76.2394 60.5758 75.8711 61.2172C75.5323 61.8155 75.1206 62.3674 74.6457 62.8594C74.2111 63.3097 73.7042 63.6802 73.1471 63.955C72.5998 64.2205 72.001 64.3564 71.3954 64.3525C70.7536 64.349 70.1177 64.2278 69.5178 63.9948C68.8655 63.7409 68.2946 63.3072 67.8683 62.7419L68.4734 57.6822ZM69.1733 48.4458C69.1733 47.9549 69.0533 47.5932 68.8134 47.3608C68.5734 47.1284 68.2265 47.0122 67.7726 47.0122H65.669L62.4379 74.1054H66.5045L67.5165 65.625C68.0572 66.2592 68.7239 66.7682 69.4721 67.1181C70.27 67.4849 71.1367 67.6684 72.0114 67.6557C72.8998 67.6569 73.7798 67.4777 74.6 67.1286C75.4411 66.7708 76.2227 66.2816 76.917 65.6784C77.6565 65.0318 78.3134 64.2926 78.8726 63.4783C79.4698 62.6167 79.9754 61.6924 80.3808 60.721C80.8024 59.711 81.1251 58.6609 81.3442 57.5858C81.5707 56.4862 81.6847 55.3656 81.6843 54.242C81.6843 52.9941 81.5579 51.9023 81.3053 50.9666C81.0526 50.031 80.6924 49.2482 80.2247 48.6182C79.7823 48.0082 79.1969 47.5218 78.5223 47.2042C77.8151 46.8837 77.0486 46.7232 76.2752 46.7336C75.5753 46.7337 74.8806 46.8582 74.2224 47.1018C73.5347 47.3578 72.8861 47.7127 72.2962 48.1559C71.6522 48.6394 71.0586 49.1897 70.5254 49.7981C69.9397 50.4638 69.4154 51.1834 68.9591 51.9478L69.1726 48.4443L69.1733 48.4458Z" fill="white"/>
</g>
<rect x="1" y="1" width="110" height="110" rx="9" stroke="#CCCCCC" stroke-width="2"/>
<defs>
<clipPath id="clip0_742_116">
<rect x="2" y="2" width="108" height="108" rx="8" fill="white"/>
</clipPath>
</defs>
</svg>
