<svg width="112" height="112" viewBox="0 0 112 112" fill="none" xmlns="http://www.w3.org/2000/svg">
<g clip-path="url(#clip0_428_525)">
<rect x="2" y="2" width="108" height="108" rx="8" fill="white"/>
<path d="M42.7877 52.1574H42.3649C41.9522 52.1574 41.771 52.2782 41.4992 52.7312L39.2442 56.3854L38.308 52.7715C38.1973 52.3386 38.0765 52.1675 37.6034 52.1675H37.251C36.7879 52.1675 36.496 52.4393 36.4054 52.9225L35.3585 58.8014C35.2779 59.2444 35.4793 59.4759 35.8618 59.4759H36.0229C36.4255 59.4759 36.6067 59.2746 36.6772 58.8417L37.5228 54.0902L38.3382 57.2713C38.4087 57.5934 38.4691 57.8048 39.0832 57.8048C39.5966 57.8048 39.7174 57.6236 39.8986 57.3317L41.8918 54.06L41.0462 58.8115C40.9656 59.2645 41.167 59.486 41.5394 59.486H41.7106C42.1132 59.486 42.2944 59.2746 42.3649 58.8518L43.4018 52.9326C43.4924 52.4594 43.2608 52.1574 42.7877 52.1574Z" fill="black"/>
<path d="M49.0794 56.3653C49.029 54.9358 48.0626 53.8889 46.4318 53.8889C44.5695 53.8889 43.4319 55.409 43.4823 57.07C43.5427 58.59 44.5896 59.5665 46.1298 59.5665C48.0425 59.5564 49.1297 58.0263 49.0794 56.3653ZM46.1399 58.5196C45.2641 58.5196 44.7104 57.8854 44.6802 57.0196C44.64 55.9022 45.3748 54.9157 46.4218 54.9157C47.2271 54.9157 47.8613 55.5499 47.8915 56.4257C47.9217 57.6035 47.1868 58.5196 46.1399 58.5196Z" fill="black"/>
<path d="M53.2369 53.8889C52.4618 53.8889 51.8477 54.2714 51.435 54.9157C51.4753 54.1808 51.0726 53.9694 50.6599 53.9694C50.4686 53.9694 50.3176 54.0197 50.3075 54.0399L49.4619 58.8216C49.3814 59.3148 49.6532 59.4558 50.0156 59.4558H50.1666C50.5592 59.4558 50.7203 59.2947 50.8008 58.8216L51.3041 55.9526C51.6665 55.3184 52.0692 55.0164 52.6933 55.0164C53.3175 55.0164 53.6899 55.3888 53.7 56.0029C53.7101 56.164 53.6698 56.3653 53.6396 56.6069L53.247 58.8216C53.1665 59.3148 53.4483 59.4558 53.8007 59.4558H53.9517C54.3443 59.4558 54.5053 59.2947 54.5859 58.8216L55.0187 56.3754C55.0691 56.1036 55.0993 55.862 55.0892 55.6405C55.059 54.6137 54.3745 53.8889 53.2369 53.8889Z" fill="black"/>
<path d="M77.0547 53.8889C76.4205 53.8889 75.9474 54.2513 75.6252 54.9157C75.6756 54.1808 75.2729 53.9694 74.8602 53.9694C74.6588 53.9694 74.5179 54.0197 74.5078 54.0399L73.6522 58.8216C73.5716 59.3148 73.8938 59.4558 74.2562 59.4558H74.4072C74.7494 59.4558 74.9105 59.2947 75.0011 58.8216L75.283 57.221C75.4944 55.9727 75.9574 55.107 76.7024 55.107C77.0648 55.107 77.2963 55.258 77.4473 55.4291C77.4675 55.4492 78.0312 55.2278 78.0111 54.5633C77.9809 54.1506 77.5681 53.8889 77.0547 53.8889Z" fill="black"/>
<path d="M83.5578 53.9694C83.0343 53.9694 82.7424 54.2211 82.5713 54.8855C82.2391 54.2614 81.5545 53.8788 80.7593 53.8788C79.0681 53.8788 77.8902 55.3888 77.8902 57.1002C77.8902 58.5095 78.756 59.5564 80.1251 59.5564C80.9606 59.5564 81.6049 59.2142 82.0176 58.5196C81.9572 59.2444 82.0981 59.4658 82.6216 59.4658C83.0847 59.4658 83.2357 59.2947 83.286 58.7813C83.3464 57.835 83.6685 56.2948 84.041 54.1305C84.041 54.0902 83.8296 53.9694 83.5578 53.9694ZM80.417 58.5196C79.5915 58.5196 79.1184 57.9961 79.1184 57.07C79.1184 55.9828 79.7526 54.8956 80.9304 54.8956C81.8867 54.8956 82.2894 55.6002 82.2894 56.3754C82.2894 57.3518 81.625 58.5196 80.417 58.5196Z" fill="black"/>
<path d="M91.591 53.8889C90.6649 53.8889 90.0508 54.362 89.6179 55.0566C89.4065 54.3217 88.7723 53.8889 87.967 53.8889C87.2623 53.8889 86.6482 54.2211 86.2254 54.8553C86.2456 54.1808 85.853 53.9795 85.4503 53.9795C85.249 53.9795 85.108 54.0298 85.098 54.0499L84.2524 58.8316C84.1718 59.3249 84.4436 59.4658 84.806 59.4658H84.957C85.2993 59.4658 85.5107 59.3249 85.5912 58.8316L86.1147 55.862C86.4972 55.268 86.8596 55.0164 87.4234 55.0164C87.977 55.0164 88.3193 55.4291 88.3193 56.0532C88.3193 56.1539 88.3092 56.2646 88.2891 56.3854L87.8663 58.8316C87.7858 59.3249 88.0676 59.4658 88.42 59.4658H88.5609C88.9032 59.4658 89.1246 59.3148 89.2052 58.8316L89.7287 55.862C90.1112 55.268 90.4736 55.0164 91.0373 55.0164C91.5709 55.0164 91.9635 55.3385 91.9635 56.0029C91.9635 56.164 91.9333 56.3653 91.893 56.6069L91.5004 58.8216C91.4199 59.3148 91.6917 59.4558 92.0541 59.4558H92.2051C92.5977 59.4558 92.7587 59.2947 92.8393 58.8216L93.2721 56.3754C93.3225 56.1036 93.3426 55.862 93.3426 55.6405C93.3527 54.5634 92.6279 53.8889 91.591 53.8889Z" fill="black"/>
<path d="M61.1997 56.2848C61.1997 55.5398 61.0487 55.0466 60.7165 54.6137C60.3541 54.1506 59.6796 53.8688 58.8944 53.8688C56.5187 53.8688 55.663 55.6204 55.663 57.1404C55.663 58.59 56.7099 59.5564 58.3206 59.5564C59.9313 59.5564 60.8373 58.8417 60.8373 58.2679C60.8373 57.8854 60.5655 57.7545 60.2534 57.7243C59.8306 58.2679 59.2467 58.5296 58.4515 58.5296C57.7468 58.5296 56.9113 58.2578 56.8509 56.9995H60.5051C60.8977 57.0096 61.1997 56.7881 61.1997 56.2848ZM60.0219 56.1136H56.9717C57.2636 55.3385 57.9381 54.8553 58.7937 54.8553C59.2266 54.8553 59.5588 54.9761 59.7803 55.2177C59.9715 55.4392 60.042 55.7412 60.0219 56.1136Z" fill="black"/>
<path d="M72.5448 55.5499H70.3704C70.1087 55.5499 69.9879 55.6103 69.9073 55.6908C69.7765 55.8318 69.706 56.1539 69.706 56.2948C69.7161 56.5163 69.9073 56.6472 70.2597 56.6472H71.7999C71.5885 57.7243 70.9039 58.4692 69.7261 58.4692C68.4879 58.4692 67.6625 57.684 67.6121 56.3452C67.5517 54.664 68.6691 53.2748 70.2496 53.2748C71.1757 53.2748 71.9005 53.7681 72.1925 54.4224C72.2327 54.4728 73.0884 54.4728 73.0582 53.7379C73.0481 53.4762 72.8971 53.1641 72.6153 52.9024C72.1623 52.4494 71.3066 52.0568 70.1691 52.0568C68.5785 52.0568 67.3202 52.9326 66.6659 54.201C66.6659 54.1909 66.6558 54.1909 66.6558 54.1909C66.5249 54.0198 66.3135 53.9392 66.1021 53.9392C65.7498 53.9392 65.5183 54.05 65.176 54.654L63.4848 57.6236L62.8506 54.664C62.7298 54.1104 62.5285 53.9392 62.1761 53.9392C61.7634 53.9392 61.4312 54.2412 61.4412 54.3117L62.6493 59.0934L61.401 61.147C61.2701 61.3684 61.2601 61.6604 61.7332 61.6604H61.9949C62.4882 61.6604 62.6493 61.3584 62.8909 60.9456L66.2934 55.1875C66.1927 55.5902 66.1424 56.023 66.1625 56.466C66.2229 58.3988 67.5316 59.5665 69.4443 59.5665C70.3503 59.5665 71.0751 59.2242 71.4777 58.7008C71.4475 59.2645 71.7495 59.486 72.1522 59.486C72.3737 59.486 72.5347 59.4155 72.5347 59.3752L73.0884 56.2747C73.179 55.7915 72.9978 55.5499 72.5448 55.5499Z" fill="black"/>
<path d="M94.7821 58.8719C94.8224 58.9424 94.8526 58.9726 94.9029 58.9726C94.9029 58.9726 94.913 59.0531 94.8123 59.0531C94.7519 59.0531 94.7117 59.0229 94.6513 58.9122L94.5405 58.7108H94.4399L94.3895 58.9927C94.3795 59.033 94.3593 59.0531 94.3191 59.0531H94.2989C94.2587 59.0531 94.2385 59.033 94.2486 58.9826L94.3895 58.2578C94.3996 58.2075 94.4298 58.1874 94.4801 58.1874H94.6915C94.8828 58.1874 94.9935 58.2679 94.9935 58.4088C94.9935 58.58 94.8828 58.6907 94.6915 58.7008L94.7821 58.8719ZM94.6513 58.6001C94.7821 58.6001 94.8526 58.5296 94.8425 58.4189C94.8425 58.3384 94.7821 58.288 94.6714 58.288H94.5204L94.46 58.59H94.6513V58.6001Z" fill="black"/>
<path d="M94.6211 57.9558C95.0137 57.9558 95.3257 58.278 95.3257 58.6605C95.3257 59.0531 95.0036 59.3652 94.6211 59.3652C94.2285 59.3652 93.9164 59.043 93.9164 58.6605C93.9063 58.278 94.2285 57.9558 94.6211 57.9558ZM94.6211 57.835C94.1681 57.835 93.7956 58.2075 93.7956 58.6605C93.7956 59.1135 94.1681 59.486 94.6211 59.486C95.0741 59.486 95.4465 59.1135 95.4465 58.6605C95.4465 58.2075 95.0741 57.835 94.6211 57.835Z" fill="black"/>
<path d="M24.5469 64.4589C28.9557 64.4589 32.5297 60.8849 32.5297 56.476C32.5297 52.0672 28.9557 48.4932 24.5469 48.4932C20.138 48.4932 16.564 52.0672 16.564 56.476C16.564 60.8849 20.138 64.4589 24.5469 64.4589Z" fill="white"/>
<path d="M32.5297 56.476C32.5297 60.8849 28.9557 64.4589 24.5469 64.4589C20.138 64.4589 16.564 60.8849 16.564 56.476C16.564 55.258 16.8358 54.1104 17.319 53.0836C16.9968 53.899 16.8458 54.7144 16.8458 55.4694C16.8458 59.0833 19.7652 59.6068 21.0034 59.5967C22.8959 59.5766 25.1005 58.6504 26.9629 56.9391C26.9629 56.9391 26.7213 58.288 26.6508 58.7008C26.5803 59.1034 26.8421 59.4558 27.2447 59.4558H27.4058C27.8185 59.4558 28.1205 59.1135 28.191 58.7008L28.8655 54.9358C28.946 54.513 28.6742 54.1808 28.2514 54.1808H24.4865C24.0637 54.1808 23.6811 54.4023 23.6106 54.8251C23.6106 54.8452 23.5804 54.966 23.5804 54.9962C23.52 55.3989 23.8019 55.7009 24.2046 55.7009H26.1676C26.1374 55.7311 26.1072 55.7613 26.077 55.7915C24.718 57.07 23.0368 57.7746 21.6476 57.7746C20.2685 57.7746 18.7182 56.8988 18.7182 54.9358C18.7182 50.8588 22.5436 48.4932 24.5469 48.4932C28.946 48.4932 32.5297 52.0668 32.5297 56.476Z" fill="#DF2127"/>
</g>
<rect x="1" y="1" width="110" height="110" rx="9" stroke="#CCCCCC" stroke-width="2"/>
<defs>
<clipPath id="clip0_428_525">
<rect x="2" y="2" width="108" height="108" rx="8" fill="white"/>
</clipPath>
</defs>
</svg>
