<svg width="112" height="112" viewBox="0 0 112 112" fill="none" xmlns="http://www.w3.org/2000/svg">
<g clip-path="url(#clip0_428_528)">
<rect x="2" y="2" width="108" height="108" rx="8" fill="white"/>
<path d="M41.5815 49.2414C41.4168 49.2414 41.277 49.3609 41.2513 49.5236L39.3454 61.6098C39.3385 61.654 39.3412 61.6991 39.3534 61.7421C39.3656 61.7851 39.3869 61.825 39.416 61.8589C39.445 61.8929 39.4811 61.9202 39.5217 61.9389C39.5622 61.9576 39.6064 61.9672 39.6511 61.9672H41.9113C42.0757 61.9672 42.2157 61.8475 42.2415 61.685L42.8013 58.1358C42.8268 57.9732 42.9669 57.8535 43.1316 57.8535H45.1864C47.5874 57.8535 49.6255 56.1017 49.9978 53.7279C50.3731 51.334 48.503 49.2466 45.8524 49.2414H41.5815ZM43.7786 51.9395H45.4227C46.7762 51.9395 47.217 52.7381 47.0776 53.6214C46.9383 54.5065 46.2537 55.1584 44.9443 55.1584H43.2709L43.7786 51.9395ZM54.5946 52.761C54.0239 52.7632 53.3672 52.8801 52.63 53.1872C50.9389 53.8921 50.1268 55.3488 49.7819 56.4109C49.7819 56.4109 48.6842 59.6511 51.1642 61.4313C51.1642 61.4313 53.4643 63.145 56.0535 61.3257L56.0089 61.6098C56.002 61.654 56.0047 61.699 56.0168 61.742C56.029 61.785 56.0503 61.8248 56.0793 61.8587C56.1083 61.8927 56.1442 61.92 56.1848 61.9387C56.2253 61.9574 56.2694 61.9672 56.3141 61.9672H58.4597C58.6243 61.9672 58.7641 61.8475 58.7899 61.685L60.095 53.4083C60.102 53.3641 60.0994 53.319 60.0872 53.276C60.0751 53.233 60.0538 53.1931 60.0248 53.1591C59.9958 53.125 59.9598 53.0977 59.9192 53.079C59.8787 53.0602 59.8345 53.0505 59.7898 53.0504H57.6442C57.4796 53.0504 57.3395 53.1702 57.314 53.3327L57.2438 53.7782C57.2438 53.7782 56.307 52.7547 54.5946 52.761ZM54.6648 55.3753C54.9112 55.3753 55.1365 55.4093 55.3387 55.4743C56.2645 55.7714 56.7893 56.6608 56.6375 57.6248C56.4501 58.8118 55.4767 59.6858 54.2283 59.6858C53.9821 59.6858 53.7568 59.6521 53.5543 59.5871C52.6288 59.2899 52.1006 58.4006 52.2525 57.4365C52.4398 56.2495 53.4164 55.3753 54.6648 55.3753Z" fill="#003087"/>
<path d="M72.4791 49.2414C72.3144 49.2414 72.1746 49.3609 72.1488 49.5236L70.243 61.6098C70.2361 61.654 70.2388 61.6991 70.251 61.7421C70.2632 61.7851 70.2845 61.825 70.3136 61.8589C70.3426 61.8929 70.3787 61.9202 70.4193 61.9389C70.4599 61.9576 70.504 61.9672 70.5487 61.9672H72.8088C72.9733 61.9672 73.1133 61.8475 73.1391 61.685L73.6989 58.1358C73.7244 57.9732 73.8645 57.8535 74.0292 57.8535H76.084C78.485 57.8535 80.5229 56.1017 80.8949 53.7279C81.2705 51.334 79.4006 49.2466 76.75 49.2414H72.4791ZM74.6762 51.9395H76.3203C77.6738 51.9395 78.1146 52.7381 77.9752 53.6214C77.8359 54.5065 77.1515 55.1584 75.8419 55.1584H74.1685L74.6762 51.9395ZM85.492 52.761C84.9213 52.7632 84.2646 52.8801 83.5273 53.1872C81.8362 53.8921 81.0241 55.3488 80.6792 56.4109C80.6792 56.4109 79.582 59.6511 82.0621 61.4313C82.0621 61.4313 84.3617 63.145 86.9511 61.3257L86.9065 61.6098C86.8995 61.654 86.9023 61.6991 86.9144 61.7421C86.9266 61.7851 86.948 61.825 86.977 61.8589C87.0061 61.8929 87.0421 61.9202 87.0827 61.9389C87.1233 61.9576 87.1674 61.9672 87.2121 61.9672H89.3575C89.5221 61.9672 89.662 61.8475 89.6877 61.685L90.9933 53.4083C91.0003 53.3641 90.9977 53.3189 90.9855 53.2759C90.9734 53.2328 90.952 53.1929 90.923 53.1589C90.8939 53.1249 90.8578 53.0975 90.8172 53.0788C90.7766 53.0601 90.7324 53.0504 90.6877 53.0504H88.5421C88.3774 53.0504 88.2373 53.1702 88.2118 53.3327L88.1417 53.7782C88.1417 53.7782 87.2043 52.7547 85.492 52.761ZM85.5621 55.3753C85.8085 55.3753 86.0339 55.4093 86.2361 55.4743C87.1618 55.7714 87.6867 56.6608 87.5348 57.6248C87.3475 58.8118 86.374 59.6858 85.1256 59.6858C84.8795 59.6858 84.6541 59.6521 84.4517 59.5871C83.5262 59.2899 82.998 58.4006 83.1499 57.4365C83.3372 56.2495 84.3137 55.3753 85.5621 55.3753Z" fill="#0070E0"/>
<path d="M61.1131 53.0504C60.943 53.0504 60.8221 53.2165 60.8741 53.3783L63.2263 60.6777L61.0994 64.1176C60.9962 64.2846 61.1162 64.5002 61.3125 64.5002H63.8263C63.8982 64.5002 63.9689 64.4816 64.0315 64.4462C64.0941 64.4109 64.1465 64.36 64.1837 64.2985L70.7533 53.4307C70.8541 53.2637 70.7337 53.0502 70.5385 53.0502H68.0249C67.9523 53.0502 67.881 53.0692 67.818 53.1052C67.7549 53.1412 67.7024 53.193 67.6654 53.2554L65.0795 57.6213L63.7668 53.2878C63.7241 53.1468 63.5939 53.0502 63.4467 53.0502L61.1131 53.0504Z" fill="#003087"/>
<path d="M93.4311 49.2414C93.2667 49.2414 93.1266 49.3611 93.1009 49.5236L91.1946 61.6094C91.1876 61.6536 91.1902 61.6987 91.2024 61.7418C91.2145 61.7848 91.2359 61.8248 91.2649 61.8588C91.294 61.8928 91.33 61.9201 91.3707 61.9388C91.4113 61.9576 91.4555 61.9673 91.5002 61.9672H93.7604C93.9248 61.9672 94.0649 61.8475 94.0906 61.685L95.9965 49.5988C96.0034 49.5546 96.0007 49.5096 95.9885 49.4666C95.9764 49.4236 95.9551 49.3838 95.9261 49.3499C95.8971 49.3159 95.8611 49.2886 95.8205 49.2699C95.78 49.2512 95.7359 49.2414 95.6913 49.2414H93.4311Z" fill="#0070E0"/>
<path d="M22.7391 49.2414C22.5935 49.2415 22.4528 49.2935 22.3421 49.3881C22.2314 49.4827 22.1581 49.6137 22.1354 49.7575L21.1321 56.1203C21.1789 55.8232 21.435 55.6042 21.7359 55.6042H24.6757C27.6343 55.6042 30.1449 53.4458 30.6036 50.521C30.6378 50.3026 30.6571 50.0822 30.6615 49.8612C29.9096 49.4669 29.0264 49.2414 28.0586 49.2414H22.7391Z" fill="#001C64"/>
<path d="M30.6615 49.8612C30.6571 50.0822 30.6378 50.3026 30.6036 50.521C30.1449 53.4458 27.6343 55.6042 24.6757 55.6042H21.7359C21.435 55.6042 21.1789 55.8232 21.1321 56.1203L20.2097 61.9675L19.6319 65.6355C19.6206 65.7064 19.6248 65.7789 19.6443 65.8479C19.6637 65.917 19.698 65.981 19.7446 66.0356C19.7912 66.0902 19.849 66.134 19.9142 66.164C19.9794 66.194 20.0503 66.2096 20.1221 66.2095H23.3129C23.4585 66.2094 23.5993 66.1574 23.71 66.0628C23.8206 65.9682 23.8939 65.8372 23.9167 65.6934L24.7572 60.3626C24.7799 60.2187 24.8533 60.0877 24.9641 59.9931C25.0748 59.8985 25.2157 59.8465 25.3614 59.8465H27.2401C30.1987 59.8465 32.7093 57.6881 33.168 54.7632C33.4938 52.6873 32.4483 50.798 30.6615 49.8612Z" fill="#0070E0"/>
<path d="M19.1139 45.0002C18.8132 45.0002 18.5569 45.219 18.5101 45.5159L16.0062 61.3937C15.9587 61.6951 16.1916 61.9677 16.4968 61.9677L20.2097 61.9675L21.1321 56.1203L22.1354 49.7575C22.1581 49.6137 22.2314 49.4827 22.3421 49.3881C22.4528 49.2935 22.5935 49.2415 22.7391 49.2414H28.0586C29.0264 49.2414 29.9096 49.4669 30.6615 49.8612C30.713 47.1983 28.5154 45.0002 25.4944 45.0002H19.1139Z" fill="#003087"/>
</g>
<rect x="1" y="1" width="110" height="110" rx="9" stroke="#CCCCCC" stroke-width="2"/>
<defs>
<clipPath id="clip0_428_528">
<rect x="2" y="2" width="108" height="108" rx="8" fill="white"/>
</clipPath>
</defs>
</svg>
