<svg width="112" height="112" viewBox="0 0 112 112" fill="none" xmlns="http://www.w3.org/2000/svg">
<g clip-path="url(#clip0_742_95)">
<rect x="2" y="2" width="108" height="108" rx="8" fill="white"/>
<path d="M16 66.8333V81.6167H26.8667V68.65C26.8667 62.8833 30.0667 59.1667 37.85 58.9V48.05C23.55 48.3 16 55.6667 16 66.8333Z" fill="#FF6100"/>
<path d="M78.8 47.5667C76.5082 47.4881 74.2247 47.8805 72.0906 48.7195C69.9565 49.5586 68.0172 50.8265 66.3926 52.4448C64.768 54.0632 63.4927 55.9976 62.6454 58.1284C61.7981 60.2593 61.3969 62.5413 61.4667 64.8333C61.4667 74.6833 67.5 81.1333 77.7 82.1L84.8333 76.7333L85.0667 76.85V81.6167H96V64.8333C96 54.3833 89.1333 47.5167 78.8 47.5667ZM78.8 71.4833C77.9283 71.5029 77.062 71.3423 76.2553 71.0116C75.4486 70.6808 74.7188 70.1871 74.1118 69.5612C73.5047 68.9354 73.0334 68.191 72.7274 67.3745C72.4214 66.5581 72.2872 65.6873 72.3333 64.8167C72.2872 63.946 72.4214 63.0752 72.7274 62.2588C73.0334 61.4424 73.5047 60.6979 74.1118 60.0721C74.7188 59.4463 75.4486 58.9525 76.2553 58.6218C77.062 58.291 77.9283 58.1304 78.8 58.15C79.6647 58.134 80.5233 58.2982 81.3212 58.632C82.119 58.9658 82.8386 59.462 83.4343 60.0891C84.03 60.7161 84.4887 61.4602 84.7812 62.2741C85.0737 63.088 85.1936 63.9539 85.1333 64.8167C85.1885 65.6783 85.0651 66.542 84.7707 67.3537C84.4764 68.1653 84.0175 68.9074 83.4228 69.5333C82.8282 70.1593 82.1106 70.6556 81.3151 70.9912C80.5196 71.3267 79.6633 71.4943 78.8 71.4833Z" fill="#FF6100"/>
<path d="M55.9 48.05H45.0333V81.6333H55.9V48.05Z" fill="#FF6100"/>
<path d="M50.4667 29C49.3978 28.9995 48.3421 29.2359 47.3755 29.6922C46.4089 30.1484 45.5554 30.8133 44.8765 31.6388C44.1975 32.4644 43.71 33.4302 43.4489 34.4667C43.1879 35.5032 43.1598 36.5847 43.3667 37.6333C43.7707 39.3401 44.7798 40.8426 46.2069 41.8623C47.6341 42.882 49.3825 43.3497 51.1281 43.1788C52.8737 43.0079 54.4982 42.21 55.7005 40.9329C56.9028 39.6558 57.6013 37.9861 57.6667 36.2333C57.6693 35.2837 57.4823 34.3431 57.1167 33.4667C56.5705 32.1472 55.6459 31.019 54.4595 30.2241C53.2732 29.4292 51.878 29.0033 50.45 29H50.4667Z" fill="#FF6100"/>
</g>
<rect x="1" y="1" width="110" height="110" rx="9" stroke="#CCCCCC" stroke-width="2"/>
<defs>
<clipPath id="clip0_742_95">
<rect x="2" y="2" width="108" height="108" rx="8" fill="white"/>
</clipPath>
</defs>
</svg>
