<svg width="112" height="112" viewBox="0 0 112 112" fill="none" xmlns="http://www.w3.org/2000/svg">
<g clip-path="url(#clip0_428_529)">
<rect x="2" y="2" width="108" height="108" rx="8" fill="white"/>
<path d="M79.6212 44.6862L86.2777 43.4956V69.0481H79.6212V44.6862ZM89.3435 44.6862V69.0481H96.0047V43.4956L89.3435 44.6862ZM70.1427 69.0528H76.8039V50.3583H70.1427V69.0528ZM26.1254 53.0022C25.2816 52.9459 23.3362 52.8194 23.3362 51.0662C23.3362 48.9473 26.1441 48.9473 27.1942 48.9473C29.0458 48.9473 31.4412 49.4958 33.1522 50.0068C33.1522 50.0068 34.1085 50.3443 34.9195 50.6865L34.9945 50.7052V44.9112L34.8914 44.8784C32.871 44.1706 30.5224 43.4909 26.1676 43.4909C18.6579 43.4956 16 47.8692 16 51.6146C16 53.7757 16.9235 58.8571 25.5254 59.4431C26.252 59.4852 28.188 59.5978 28.188 61.4119C28.188 62.9073 26.6035 63.7932 23.9409 63.7932C21.0205 63.7932 18.1891 63.0479 16.4688 62.3447V68.3168C19.0423 68.9919 21.944 69.3294 25.3472 69.3294C32.6882 69.3294 35.9742 65.1902 35.9742 61.0884C35.9742 56.4383 32.2944 53.4147 26.1254 53.0022ZM66.3832 50.0864C60.2283 50.2833 57.1016 53.0444 57.1016 58.5336V69.0528H63.8191V60.4743C63.8191 57.1883 64.2503 55.7773 68.1505 55.646V50.1849C67.4942 50.0443 66.3832 50.0864 66.3832 50.0864ZM48.3169 50.3396C48.1669 50.7099 47.1028 53.7241 44.5245 56.8461V43.4956L37.6524 44.855V69.0481H44.5245V61.5666C46.5168 64.5526 47.4965 69.0481 47.4965 69.0481H55.7281C54.9125 65.6636 51.3498 59.4196 51.3498 59.4196C54.5468 55.3648 55.9484 51.0474 56.1734 50.3349H48.3169V50.3396ZM73.4663 48.5676C75.2804 48.5676 76.7477 47.1004 76.7477 45.2863C76.7477 43.4721 75.2804 42.0049 73.4663 42.0049C71.6522 42.0049 70.1849 43.4768 70.1849 45.2863C70.1849 47.0957 71.6522 48.5676 73.4663 48.5676Z" fill="#862165"/>
</g>
<rect x="1" y="1" width="110" height="110" rx="9" stroke="#CCCCCC" stroke-width="2"/>
<defs>
<clipPath id="clip0_428_529">
<rect x="2" y="2" width="108" height="108" rx="8" fill="white"/>
</clipPath>
</defs>
</svg>
