<svg width="112" height="112" viewBox="0 0 112 112" fill="none" xmlns="http://www.w3.org/2000/svg">
<g clip-path="url(#clip0_428_530)">
<rect x="2" y="2" width="108" height="108" rx="8" fill="white"/>
<path d="M96.0002 49.3717C96.0002 49.4454 95.9788 49.5178 95.9389 49.5796C95.3899 50.4287 94.8414 51.2782 94.2913 52.1265C93.5468 53.2748 92.8016 54.4228 92.0553 55.5697C91.8825 55.835 91.6857 56.083 91.4792 56.3225C91.4191 56.3924 91.3419 56.4493 91.2665 56.5047C91.2242 56.5357 91.1675 56.563 91.1151 56.5346C91.0628 56.5063 91.059 56.4477 91.0628 56.3926C91.0781 56.1797 91.1297 55.9737 91.1934 55.771C91.5108 54.7594 91.8309 53.7482 92.1462 52.736C92.2596 52.3719 92.0086 52.017 91.6253 51.99C91.5627 51.9856 91.4995 51.9875 91.4366 51.9875C89.4357 51.9875 87.4348 51.9875 85.4338 51.9875C85.4023 51.9875 85.3707 51.9859 85.3394 51.9878C85.2605 51.9927 85.1931 51.9705 85.1623 51.8941C85.1296 51.8126 85.145 51.7379 85.2128 51.6739C85.7809 51.1378 86.3262 50.5745 86.9349 50.0843C87.5748 49.5688 88.3263 49.2754 89.1285 49.1059C89.3317 49.0629 89.5431 49.0697 89.741 48.9995H95.6004C95.6417 48.9995 95.6825 49.0065 95.7224 49.016C95.7302 49.0179 95.7381 49.0195 95.7462 49.0206C95.8922 49.043 96.0004 49.1677 96.0004 49.3153L96.0002 49.3717Z" fill="#EA5CA1"/>
<path d="M38.0486 61.4796C38.0036 61.5387 37.9542 61.5954 37.914 61.6577C37.4729 62.3404 36.8351 62.7415 36.0653 62.9612C35.0026 63.2643 33.9332 63.3356 32.8635 63.0235C32.1163 62.8057 31.4942 62.3978 31.1079 61.6955C30.6679 60.8952 30.6933 59.3529 31.9285 58.6233C32.5787 58.2392 33.2813 58.0076 34.0149 57.8607C34.9578 57.6718 35.9117 57.5506 36.8623 57.4105C37.5061 57.3155 37.4732 56.835 37.2286 56.4788C37.0127 56.1643 36.6777 56.0096 36.3106 55.9403C35.7551 55.8353 35.2099 55.8566 34.7 56.136C34.4714 56.2612 34.2841 56.4342 34.1523 56.6609C34.0595 56.821 33.924 56.8888 33.7407 56.888C33.0527 56.885 32.3647 56.8874 31.6766 56.8866C31.3441 56.8863 31.1719 56.6585 31.2639 56.3419C31.4688 55.6361 31.9295 55.1237 32.5136 54.7073C33.1704 54.2392 33.9097 53.9779 34.7016 53.8624C35.7943 53.7032 36.8799 53.7361 37.9474 54.037C38.5947 54.2195 39.1829 54.514 39.669 54.9934C40.1826 55.4997 40.4358 56.1162 40.4385 56.828C40.4458 58.7491 40.4412 60.6701 40.4407 62.5914C40.4407 62.8381 40.3052 62.9728 40.0558 62.973C39.4037 62.9741 38.7518 62.9744 38.0997 62.973C37.8519 62.9725 37.722 62.8268 37.7372 62.5782C37.7563 62.2588 37.8694 61.9676 38.0009 61.6815C38.0281 61.6218 38.0546 61.5619 38.0816 61.5022C38.0705 61.4947 38.0597 61.4871 38.0486 61.4796ZM37.3776 59.528C37.3776 59.3591 37.3703 59.2195 37.3798 59.0811C37.3882 58.958 37.3614 58.9226 37.227 58.948C36.6847 59.0511 36.1395 59.1386 35.5964 59.2363C35.1864 59.31 34.7702 59.3599 34.385 59.534C34.023 59.6976 33.8071 59.9591 33.7987 60.3729C33.7906 60.7716 34.0236 60.9961 34.3456 61.1621C34.3972 61.1886 34.4517 61.2115 34.5076 61.2269C35.2968 61.4466 36.0445 61.3551 36.742 60.9184C37.0537 60.7233 37.2823 60.4598 37.3577 60.0892C37.3973 59.8943 37.3714 59.6954 37.3776 59.528ZM38.0943 61.4596C38.091 61.4539 38.0878 61.448 38.0845 61.4423C38.0816 61.4453 38.0756 61.4491 38.0762 61.4512C38.0775 61.4574 38.0816 61.4634 38.0845 61.4693C38.0875 61.4664 38.0905 61.4634 38.0943 61.4596Z" fill="#132F59"/>
<path d="M76.0273 59.0411C74.8942 59.0411 73.7614 59.0433 72.6285 59.0379C72.5057 59.0373 72.4833 59.0727 72.4838 59.1869C72.4881 59.9597 72.7645 60.5967 73.4183 61.0366C73.8548 61.3303 74.3509 61.3946 74.8637 61.3495C75.68 61.2777 76.236 60.8469 76.5513 60.1003C76.6142 59.9513 76.7081 59.8903 76.8698 59.8911C77.6431 59.896 78.4164 59.8981 79.1897 59.8903C79.43 59.8879 79.5579 60.0147 79.4732 60.2752C79.1296 61.3317 78.4407 62.0858 77.4671 62.5917C76.446 63.1223 75.3455 63.2589 74.2127 63.2073C73.4717 63.1736 72.7489 63.0443 72.07 62.7353C70.8214 62.1671 69.9736 61.2531 69.6526 59.896C69.5938 59.6468 69.5536 59.3936 69.5463 59.138C69.5239 58.3714 69.4839 57.6027 69.7242 56.8566C70.0473 55.8536 70.7013 55.117 71.588 54.5737C72.561 53.9774 73.635 53.7739 74.7598 53.7941C75.7949 53.8127 76.7823 54.0279 77.6749 54.5766C78.7098 55.2128 79.403 56.0976 79.637 57.3093C79.7347 57.8159 79.7126 58.3277 79.7072 58.8387C79.7058 58.9607 79.6205 59.0201 79.5074 59.0387C79.468 59.0452 79.4267 59.0408 79.3862 59.0408C78.2666 59.0408 77.147 59.0411 76.0273 59.0411ZM74.6113 57.4645C75.2589 57.4645 75.9062 57.465 76.5537 57.4642C76.6973 57.4642 76.7246 57.4343 76.6973 57.3109C76.4859 56.3551 75.8322 55.7289 74.9056 55.639C73.7554 55.5276 72.7964 56.1638 72.5435 57.2758C72.506 57.4413 72.5224 57.464 72.696 57.4642C73.3343 57.4645 73.973 57.4645 74.6113 57.4645Z" fill="#132F59"/>
<path d="M41.9695 59.1318C41.9695 58.0321 41.9695 56.9325 41.9695 55.8328C41.9695 54.7996 42.7402 54.0284 43.7721 54.0281C44.1003 54.0281 44.4285 54.0316 44.7567 54.026C44.8534 54.0244 44.8866 54.0443 44.8879 54.1496C44.8922 54.514 44.7613 54.832 44.577 55.1351C44.5608 55.1618 44.5394 55.1861 44.5257 55.2142C44.5122 55.242 44.4639 55.2673 44.5071 55.3046C44.5513 55.3427 44.5708 55.2943 44.5921 55.2714C44.7087 55.147 44.8231 55.0206 44.9384 54.8949C45.5638 54.2125 46.3498 53.8678 47.2638 53.792C47.8821 53.7407 48.4951 53.7741 49.0941 53.9423C50.3363 54.2905 51.0618 55.1305 51.3717 56.357C51.4864 56.8116 51.5339 57.275 51.5345 57.7428C51.5361 59.3361 51.535 60.9295 51.535 62.5228C51.535 62.8162 51.4014 62.9507 51.1091 62.9507C50.4299 62.9507 49.7511 62.9507 49.072 62.9507C48.7483 62.9507 48.6209 62.8254 48.6209 62.5058C48.6209 60.8944 48.6209 59.2832 48.6209 57.6718C48.6209 57.3152 48.5815 56.9646 48.4579 56.6277C48.2552 56.0744 47.8614 55.7462 47.2789 55.6512C46.8462 55.5805 46.4159 55.5921 46.0097 55.7726C45.3711 56.0563 45.0504 56.5813 44.9268 57.2461C44.8922 57.4321 44.8844 57.6202 44.8844 57.8089C44.8844 59.3575 44.8844 60.906 44.8844 62.4543C44.8844 62.5126 44.8836 62.5711 44.8771 62.6289C44.8553 62.8205 44.7198 62.9506 44.5265 62.9512C43.7937 62.9539 43.0605 62.9539 42.3277 62.9512C42.115 62.9504 41.9738 62.8011 41.9706 62.5787C41.9666 62.3139 41.9695 62.0491 41.9695 61.7843C41.9695 60.9001 41.9695 60.0158 41.9695 59.1318Z" fill="#132F59"/>
<path d="M54.3783 60.4857C54.8053 60.4857 55.2326 60.4887 55.6597 60.4838C55.7798 60.4825 55.8475 60.5184 55.8899 60.6377C55.9865 60.9103 56.1822 61.1074 56.4478 61.2064C57.2454 61.5033 58.0447 61.5198 58.8277 61.1519C59.0485 61.0482 59.2267 60.8863 59.2785 60.632C59.3435 60.3135 59.2051 60.0509 58.9001 59.9081C58.6342 59.7837 58.3491 59.7167 58.0619 59.6668C57.3148 59.5367 56.5655 59.4206 55.8192 59.2859C55.2648 59.1858 54.7371 59.0055 54.2415 58.7299C52.68 57.8616 52.6757 55.6606 54.0604 54.6894C54.6618 54.2676 55.3309 54.026 56.0467 53.9121C57.2379 53.7223 58.4282 53.7315 59.607 54.0103C60.275 54.1685 60.8918 54.4379 61.3879 54.9305C61.7769 55.3165 61.9763 55.791 62.0241 56.3325C62.0357 56.4647 61.9906 56.5174 61.8584 56.5176C61.0133 56.519 60.1679 56.5176 59.3228 56.5192C59.2461 56.5192 59.1905 56.4966 59.1692 56.4196C59.045 55.9716 58.7135 55.7594 58.2889 55.6682C57.7677 55.5562 57.2457 55.5537 56.7299 55.7065C56.5655 55.7551 56.4127 55.8296 56.2783 55.9384C55.8613 56.2752 55.9182 56.8653 56.3955 57.1039C56.741 57.2766 57.1197 57.3341 57.4946 57.403C58.3813 57.5657 59.2817 57.6561 60.1546 57.8904C60.6513 58.0238 61.1218 58.2214 61.5294 58.5453C62.185 59.0659 62.409 59.758 62.3129 60.5651C62.1988 61.5244 61.606 62.1328 60.7927 62.5655C60.0505 62.9606 59.2442 63.1239 58.415 63.1884C57.5742 63.2538 56.7353 63.2303 55.9031 63.0843C55.126 62.9477 54.3886 62.7077 53.7591 62.21C53.2663 61.8202 52.965 61.3174 52.8757 60.6928C52.8541 60.5424 52.8994 60.4873 53.0571 60.4868C53.4976 60.4852 53.9378 60.4857 54.3783 60.4857Z" fill="#132F59"/>
<path d="M84.7809 62.9698C83.3916 62.9698 82.0023 62.9698 80.6133 62.9698C80.3528 62.9698 80.2899 62.9096 80.3015 62.6532C80.3523 61.5376 80.8106 60.6226 81.6452 59.88C82.9703 58.701 84.2845 57.5104 85.6033 56.3244C85.6268 56.3033 85.6579 56.286 85.6711 56.2598C85.6951 56.2121 85.7051 56.1611 85.6211 56.164C85.5898 56.1651 85.5583 56.164 85.5267 56.164C84.2993 56.164 83.072 56.164 81.8447 56.164C80.9952 56.164 80.3536 55.523 80.3531 54.6743C80.3531 54.5353 80.3504 54.396 80.3539 54.257C80.3574 54.1175 80.4322 54.0454 80.5728 54.0387C80.6041 54.037 80.6357 54.0387 80.6673 54.0387C83.4143 54.0387 86.1613 54.0387 88.9082 54.0387C89.1776 54.0387 89.2357 54.094 89.2262 54.3607C89.1879 55.4355 88.7738 56.3414 87.9805 57.0685C86.9249 58.0362 85.863 58.9974 84.8041 59.9613C84.5385 60.2031 84.2734 60.4452 84.0084 60.6876C83.9698 60.723 83.9115 60.7562 83.9417 60.8188C83.969 60.875 84.0305 60.8442 84.075 60.8445C85.307 60.8463 86.5389 60.8458 87.7705 60.8461C88.6246 60.8461 89.2591 61.4799 89.2597 62.332C89.2597 62.471 89.2616 62.6103 89.2591 62.7493C89.2567 62.8864 89.1917 62.956 89.057 62.9687C89.0168 62.9725 88.976 62.9701 88.9358 62.9701C87.5511 62.9701 86.1656 62.9698 84.7809 62.9698Z" fill="#132F59"/>
<path d="M64.4588 59.4881C64.4588 58.4694 64.4588 57.4507 64.4588 56.4321C64.4588 56.2302 64.4342 56.2051 64.2359 56.2048C64.0334 56.2045 63.8312 56.2061 63.6288 56.2042C63.344 56.2018 63.1958 56.0536 63.1953 55.7721C63.1945 55.3594 63.1948 54.9464 63.1953 54.5334C63.1956 54.2414 63.343 54.0927 63.632 54.0916C63.8434 54.091 64.0547 54.0924 64.2658 54.091C64.4191 54.0902 64.4558 54.0524 64.4588 53.9005C64.4674 53.4656 64.4361 53.03 64.4855 52.5959C64.5708 51.8456 64.8424 51.1991 65.5172 50.7853C65.9671 50.5094 66.4692 50.3928 66.9877 50.3464C67.7875 50.2746 68.5862 50.3192 69.3832 50.3982C69.5306 50.4128 69.5557 50.4606 69.4826 50.5893C69.2221 51.049 68.9603 51.5079 68.6987 51.9668C68.6191 52.1066 68.5047 52.1857 68.337 52.1776C68.279 52.1749 68.2199 52.1784 68.1621 52.1865C67.5977 52.2653 67.3548 52.5457 67.354 53.1172C67.3537 53.3774 67.3529 53.6378 67.3543 53.898C67.3551 54.0478 67.3974 54.0908 67.5467 54.091C68.1041 54.0918 68.6617 54.091 69.2191 54.0916C69.4529 54.0916 69.4963 54.141 69.4461 54.3596C69.3139 54.9324 69.0734 55.4441 68.5945 55.8142C68.2949 56.0455 67.9489 56.1592 67.5742 56.1897C67.3869 56.2048 67.3543 56.2366 67.354 56.431C67.354 58.4594 67.354 60.4876 67.354 62.5161C67.354 62.6246 67.3532 62.7315 67.2838 62.8241C67.2093 62.9239 67.1116 62.9803 66.9858 62.9806C66.2665 62.9814 65.5471 62.9838 64.8278 62.9798C64.6029 62.9785 64.4588 62.8119 64.4585 62.5709C64.4577 61.5433 64.4588 60.5157 64.4588 59.4881Z" fill="#132F59"/>
<path d="M19.9564 53.8791C20.4539 53.8791 20.951 53.8767 21.4485 53.8797C22.1171 53.884 22.6394 54.3064 22.7579 54.9518C22.8073 55.2215 22.7819 55.4981 22.7709 55.771C22.7655 55.9019 22.6543 55.9802 22.5031 55.9824C22.2648 55.9856 22.0264 55.9834 21.7881 55.9834C21.4329 55.9834 21.0776 55.9826 20.7224 55.984C20.567 55.9845 20.5073 56.0409 20.507 56.1926C20.5065 57.3954 20.5011 58.5982 20.5111 59.8009C20.5159 60.395 20.798 60.7246 21.3629 60.8418C21.5389 60.8782 21.7179 60.9006 21.8979 60.9025C22.1001 60.9046 22.3025 60.9025 22.5047 60.8982C22.7085 60.8939 22.8203 60.9908 22.8216 61.1924C22.8246 61.6413 22.8243 62.0899 22.8216 62.5387C22.8208 62.6899 22.7468 62.7971 22.6165 62.8165C21.567 62.9736 20.5157 63.0605 19.4732 62.779C18.8095 62.5998 18.2586 62.2491 17.909 61.6348C17.6912 61.2518 17.5951 60.8331 17.593 60.3977C17.5862 59.0244 17.5889 57.651 17.5881 56.2779C17.5881 56.0161 17.5541 55.9816 17.2969 55.9805C16.5681 55.9764 16.0018 55.4082 16.0004 54.6792C16.0002 54.5175 15.9996 54.3561 16.0004 54.1944C16.0018 53.9877 16.0957 53.891 16.3052 53.8881C16.5208 53.8851 16.7368 53.8875 16.9527 53.8872C16.9975 53.8872 17.0426 53.887 17.0874 53.8835C17.4496 53.8562 17.641 53.6797 17.6337 53.3182C17.6205 52.664 18.0745 51.9417 18.9194 51.7827C19.3383 51.7038 19.7531 51.6048 20.1702 51.5168C20.3686 51.475 20.5046 51.5859 20.5057 51.7918C20.5076 52.1778 20.4973 52.5641 20.5086 52.9495C20.5211 53.3771 20.364 53.6897 19.9564 53.8791Z" fill="#132F59"/>
<path d="M24.2792 59.1785C24.2792 58.1104 24.2789 57.0423 24.2792 55.9743C24.2797 54.8816 25.1184 54.0416 26.2142 54.0365C26.5066 54.0352 26.7989 54.0395 27.0909 54.0343C27.1754 54.0327 27.1935 54.0584 27.1954 54.1402C27.2059 54.5836 27.1115 55.0028 26.9222 55.4023C26.8993 55.4509 26.8772 55.4997 26.8542 55.5483C26.844 55.5702 26.8386 55.5915 26.8604 55.6083C26.8942 55.6342 26.9082 55.6023 26.9228 55.5829C27.0218 55.4498 27.1209 55.3167 27.2186 55.1826C27.9234 54.2165 28.8975 53.8055 30.0698 53.8084C30.3081 53.809 30.4631 53.9739 30.4639 54.2106C30.4652 54.6862 30.4652 55.1621 30.4639 55.6377C30.4633 55.8884 30.306 56.0447 30.0498 56.048C29.713 56.0523 29.3764 56.015 29.0395 56.049C28.1768 56.136 27.5547 56.6485 27.3101 57.4796C27.2337 57.739 27.1949 58.0041 27.1951 58.2753C27.1965 59.6754 27.1957 61.0758 27.1957 62.4759C27.1957 62.8284 27.0588 62.9647 26.7066 62.9647C26.0501 62.9647 25.3937 62.9652 24.7372 62.9647C24.419 62.9647 24.2792 62.8235 24.2792 62.5039C24.2792 61.3954 24.2792 60.2871 24.2792 59.1785Z" fill="#132F59"/>
<path d="M38.0943 61.4596C38.0905 61.4634 38.0875 61.4664 38.0845 61.4693C38.0816 61.4634 38.0775 61.4574 38.0762 61.4512C38.0756 61.4491 38.0816 61.4453 38.0845 61.4423C38.0878 61.448 38.091 61.4539 38.0943 61.4596Z" fill="#FEFEFE"/>
</g>
<rect x="1" y="1" width="110" height="110" rx="9" stroke="#CCCCCC" stroke-width="2"/>
<defs>
<clipPath id="clip0_428_530">
<rect x="2" y="2" width="108" height="108" rx="8" fill="white"/>
</clipPath>
</defs>
</svg>
