<svg width="112" height="112" viewBox="0 0 112 112" fill="none" xmlns="http://www.w3.org/2000/svg">
<g clip-path="url(#clip0_428_526)">
<rect x="2" y="2" width="108" height="108" rx="8" fill="white"/>
<path d="M16 47.0187C18.709 47.0187 21.418 47.0187 24.127 47.0187C26.9855 51.951 29.8253 56.9019 32.6838 61.8342C32.3475 62.4134 32.0112 62.9925 31.6749 63.5717C31.3199 64.1509 30.8902 64.6927 30.3484 65.085C29.9 65.4026 29.3769 65.6455 28.8164 65.6829C28.2373 65.7389 27.6768 65.5708 27.1723 65.2718C26.5558 64.8982 26.0701 64.3564 25.6777 63.7585C25.3788 63.2914 25.1172 62.8057 24.837 62.3199C21.9038 57.2382 18.9519 52.1378 16 47.0187Z" fill="#FFDD00"/>
<path d="M26.8174 47.0187C29.5264 47.0187 32.2354 47.0187 34.9444 47.0187C36.8874 50.4003 38.8491 53.7819 40.8108 57.1448C41.0724 57.6305 41.6142 57.9482 42.156 57.9482C42.7165 57.9482 43.2396 57.6305 43.5198 57.1448C41.5768 53.7632 39.6151 50.3816 37.6721 47C40.3811 47 43.0901 47 45.7992 47C46.8454 48.8122 47.8916 50.6245 48.9379 52.4367C47.0509 55.7062 45.1639 58.957 43.277 62.2265C42.9967 62.6936 42.7352 63.1607 42.4549 63.6277C42.1 64.2069 41.6516 64.73 41.1098 65.1224C40.6427 65.44 40.1009 65.6642 39.5217 65.6642C38.9425 65.6828 38.3821 65.496 37.915 65.1784C37.3171 64.7861 36.8501 64.2443 36.4764 63.6464C36.1962 63.198 35.9346 62.731 35.673 62.2639C32.7025 57.2008 29.7693 52.1191 26.8174 47.0187Z" fill="#FFDD00"/>
<path d="M52.0579 47.0187C52.5997 47.0187 53.1228 47.0187 53.6646 47.0187C53.9636 48.2144 54.2812 49.3914 54.5801 50.5871C54.8417 51.6333 55.1032 52.6796 55.3087 53.7445C55.4956 52.6609 55.7758 51.5773 56.0374 50.4937C56.3176 49.3354 56.6165 48.177 56.9155 47.0187C57.4573 47.0187 57.9991 47.0187 58.5409 47.0187C58.9893 48.7001 59.419 50.3816 59.83 52.0817C59.9608 52.6049 60.0729 53.1093 60.1663 53.6324C60.2971 52.9038 60.4652 52.1751 60.652 51.4465C61.007 49.9706 61.3993 48.4759 61.7917 47C62.3148 47 62.8192 47 63.3424 47C62.5577 49.8958 61.7543 52.8104 60.9696 55.7062C60.4092 55.7062 59.83 55.7062 59.2695 55.7062C58.8585 54.1368 58.4475 52.5488 58.0738 50.9608C57.943 50.3816 57.8122 49.8024 57.7001 49.2046C57.5507 50.0827 57.3265 50.9421 57.1023 51.8202C56.766 53.1093 56.411 54.3984 56.0747 55.7062C55.5142 55.7062 54.9724 55.7062 54.412 55.7062C53.6273 52.8291 52.8426 49.9145 52.0579 47.0187Z" fill="black"/>
<path d="M75.9907 47.8594C76.4577 47.7473 76.9435 47.6165 77.4106 47.5044C77.4106 48.121 77.4106 48.7188 77.4106 49.3354C77.7282 49.3354 78.0645 49.3354 78.3821 49.3354C78.3821 49.7464 78.4007 50.1574 78.4007 50.5684C78.0645 50.5684 77.7468 50.5684 77.4106 50.5684C77.4106 51.8015 77.4106 53.0159 77.4106 54.2489C77.4106 54.4171 77.56 54.5666 77.7282 54.5666C77.9524 54.5852 78.1766 54.5479 78.4007 54.5292C78.4007 54.9402 78.4007 55.3326 78.4007 55.7436C78.0084 55.8557 77.6161 55.8557 77.2237 55.8557C76.9248 55.8557 76.6072 55.7623 76.383 55.5381C76.1028 55.2765 75.9907 54.9028 75.9907 54.5292C75.9907 53.2027 75.9907 51.8762 75.9907 50.5497C75.7478 50.5497 75.4862 50.5497 75.2433 50.5497C75.2433 50.1387 75.2433 49.7277 75.2433 49.3167C75.4862 49.3167 75.7478 49.3167 75.9907 49.3167C75.9907 48.8309 75.9907 48.3452 75.9907 47.8594Z" fill="black"/>
<path d="M64.2391 49.6156C64.7809 49.298 65.4348 49.1672 66.0514 49.2046C66.6679 49.2233 67.2844 49.4101 67.7702 49.7837C68.2186 50.1014 68.5549 50.5684 68.7604 51.0915C69.0219 51.7081 69.0967 52.3993 69.078 53.0719C67.4339 53.0719 65.7711 53.0719 64.127 53.0719C64.2018 53.6698 64.5941 54.1929 65.1359 54.4171C65.8459 54.716 66.7613 54.6039 67.3218 54.0621C67.4713 53.9313 67.5834 53.7445 67.6768 53.5764C68.0691 53.7819 68.4615 53.9687 68.8351 54.1742C68.5362 54.8094 67.9757 55.2952 67.3218 55.5754C66.6866 55.8557 65.958 55.9304 65.2667 55.8183C64.6128 55.7249 63.9776 55.426 63.5105 54.9589C63.0434 54.4918 62.7258 53.8753 62.6137 53.2214C62.483 52.4554 62.5764 51.6333 62.9313 50.9421C63.2676 50.3816 63.716 49.9145 64.2391 49.6156ZM64.6875 50.8674C64.3886 51.1102 64.2018 51.4839 64.1457 51.8575C65.2854 51.8575 66.4063 51.8575 67.546 51.8575C67.5086 51.4092 67.2658 50.9981 66.8734 50.7553C66.2382 50.3255 65.2854 50.3629 64.6875 50.8674Z" fill="black"/>
<path d="M71.5441 49.2419C72.2728 49.1298 73.0761 49.2233 73.6927 49.653C74.2158 50.0079 74.5521 50.6058 74.5521 51.241C74.1037 51.3157 73.674 51.4092 73.2256 51.4839C73.1882 51.2597 73.1695 51.0355 73.0574 50.8487C72.8893 50.5684 72.553 50.419 72.2354 50.3816C71.9365 50.3629 71.6375 50.4003 71.376 50.5497C71.2078 50.6618 71.0957 50.8487 71.1144 51.0542C71.1331 51.241 71.2826 51.3905 71.4507 51.4839C71.731 51.6333 72.0299 51.7081 72.3475 51.7828C72.908 51.9323 73.4872 52.0631 73.9916 52.362C74.3279 52.5675 74.6081 52.8664 74.7389 53.2401C74.9444 53.8753 74.8323 54.6226 74.3652 55.1084C73.8982 55.5941 73.2069 55.7809 72.553 55.8183C71.731 55.8744 70.8716 55.6875 70.199 55.1644C69.7693 54.8468 69.489 54.3237 69.489 53.7819C69.9374 53.6885 70.4045 53.6137 70.8529 53.5203C70.8716 53.7632 70.9463 54.0061 71.1144 54.1742C71.3947 54.4731 71.8244 54.5666 72.2167 54.5666C72.5156 54.5666 72.8519 54.5292 73.0948 54.3237C73.3003 54.1555 73.3751 53.8379 73.2256 53.6137C73.0948 53.4269 72.8519 53.3335 72.6464 53.2401C72.0486 53.0346 71.432 52.9411 70.8529 52.6796C70.4792 52.5301 70.1429 52.3059 69.9187 51.9696C69.5264 51.3718 69.5824 50.5124 70.0495 49.9519C70.4419 49.5782 70.9837 49.3354 71.5441 49.2419Z" fill="black"/>
<path d="M80.3624 49.6343C80.9042 49.3167 81.5582 49.1672 82.1934 49.2046C82.7912 49.2233 83.4077 49.4101 83.9122 49.7651C84.3793 50.1014 84.7342 50.5684 84.9584 51.1102C85.22 51.7268 85.2947 52.3993 85.2574 53.0719C83.6133 53.0719 81.9505 53.0719 80.3064 53.0719C80.3811 53.6511 80.7548 54.1742 81.2779 54.3984C81.9505 54.6973 82.7725 54.6226 83.3704 54.1929C83.5946 54.0248 83.7627 53.8192 83.8748 53.5764C84.2672 53.7632 84.6595 53.9687 85.0518 54.1742C84.7716 54.7907 84.2298 55.2578 83.6319 55.5381C82.4736 56.0799 81.0163 55.9678 79.9888 55.1831C79.4283 54.7534 79.0546 54.1182 78.8865 53.4269C78.6997 52.6235 78.7744 51.7454 79.1294 50.9981C79.4096 50.419 79.8393 49.9519 80.3624 49.6343ZM81.39 50.5684C80.8295 50.7553 80.3998 51.2784 80.3251 51.8575C81.4647 51.8575 82.5857 51.8575 83.7254 51.8575C83.688 51.5586 83.5759 51.2784 83.3891 51.0542C82.9033 50.475 82.0626 50.3255 81.39 50.5684Z" fill="black"/>
<path d="M92.7305 49.2606C93.4591 49.0925 94.2438 49.1672 94.879 49.5782C95.3274 49.8585 95.6637 50.3255 95.8319 50.83C95.9626 51.2036 96 51.6147 96 52.007C96 53.2401 96 54.4918 96 55.7249C95.4956 55.7249 94.9911 55.7249 94.4867 55.7249C94.4867 54.5666 94.4867 53.3895 94.4867 52.2312C94.4867 51.8575 94.4493 51.4652 94.2438 51.1476C94.0944 50.886 93.8515 50.6992 93.5525 50.6058C92.9547 50.4376 92.2074 50.5497 91.8337 51.0729C91.5722 51.4092 91.4787 51.8575 91.4787 52.2686C91.4787 53.4269 91.4787 54.5666 91.4787 55.7249C90.9743 55.7249 90.4699 55.7249 89.9654 55.7249C89.9654 53.595 89.9654 51.4465 89.9654 49.3167C90.3951 49.3167 90.8435 49.3167 91.2732 49.3167C91.2732 49.6156 91.2732 49.9145 91.2732 50.2321C91.5908 49.7277 92.1513 49.3914 92.7305 49.2606Z" fill="black"/>
<path d="M85.9113 49.3167C86.3223 49.3167 86.752 49.3167 87.163 49.3167C87.163 49.5782 87.163 49.8585 87.163 50.12C87.3311 49.8585 87.574 49.6343 87.8543 49.5035C88.3213 49.2793 88.8445 49.2419 89.3489 49.3167C89.3489 49.7651 89.3489 50.2135 89.3302 50.6618C88.9192 50.6058 88.4708 50.5871 88.0598 50.7553C87.7982 50.8674 87.574 51.0915 87.4806 51.3531C87.3498 51.6707 87.4059 52.0257 87.3872 52.3433C87.3872 53.4643 87.3872 54.6039 87.4059 55.7249C86.9014 55.7249 86.397 55.7249 85.8926 55.7249C85.9113 53.595 85.9113 51.4652 85.9113 49.3167Z" fill="black"/>
<path d="M68.0691 56.8645C68.312 56.7898 68.6109 56.8085 68.8164 56.958C69.078 57.1261 69.2461 57.425 69.2275 57.724C69.2088 58.1163 68.9099 58.4526 68.5175 58.5273C68.1999 58.5834 67.8449 58.4526 67.6581 58.2097C67.49 57.9855 67.4339 57.6866 67.5273 57.425C67.6021 57.1635 67.8076 56.9393 68.0691 56.8645Z" fill="black"/>
<path d="M52.7305 62.1144C52.7305 60.3582 52.7305 58.6207 52.7305 56.8645C53.2349 56.8645 53.7581 56.8645 54.2625 56.8645C54.2625 58.602 54.2625 60.3396 54.2625 62.0584C54.2812 62.6749 54.4306 63.3475 54.8977 63.7959C55.3087 64.1882 55.9253 64.3003 56.4858 64.2443C56.9528 64.2069 57.4199 64.0014 57.7188 63.6277C58.0925 63.1793 58.2046 62.5815 58.2046 62.021C58.2046 60.3022 58.2046 58.5834 58.2046 56.8645C58.709 56.8645 59.2135 56.8645 59.7179 56.8645C59.7179 58.3405 59.7179 59.8164 59.7179 61.2924C59.7179 61.7781 59.7366 62.2639 59.6618 62.7496C59.5497 63.4783 59.2695 64.2069 58.7464 64.73C58.2793 65.2158 57.6628 65.496 57.0089 65.6081C56.2242 65.7389 55.3835 65.6829 54.6548 65.3652C54.113 65.1224 53.6273 64.73 53.3284 64.2069C52.9173 63.6091 52.7679 62.8617 52.7305 62.1144Z" fill="black"/>
<path d="M63.3984 59.1252C64.1084 58.9757 64.9117 59.0504 65.5283 59.4428C65.9766 59.723 66.2943 60.1714 66.4624 60.6572C66.5932 61.0495 66.6492 61.4792 66.6492 61.8902C66.6492 63.1233 66.6492 64.3564 66.6492 65.5894C66.1448 65.5894 65.6404 65.5894 65.1359 65.5894C65.1359 64.4685 65.1359 63.3475 65.1359 62.2265C65.1359 61.8529 65.1172 61.4418 64.9491 61.0869C64.837 60.8253 64.6128 60.6198 64.3512 60.5077C64.0523 60.3769 63.6973 60.3582 63.3797 60.4143C63.0434 60.4703 62.7258 60.6385 62.5016 60.9187C62.2401 61.255 62.1467 61.7034 62.1467 62.1144C62.1467 63.2728 62.1467 64.4311 62.1467 65.5894C61.6422 65.5894 61.1378 65.5894 60.6333 65.5894C60.6333 63.4596 60.6333 61.3111 60.6333 59.1812C61.0631 59.1812 61.5114 59.1812 61.9411 59.1812C61.9411 59.4801 61.9411 59.7791 61.9411 60.0967C62.2588 59.5736 62.8192 59.2373 63.3984 59.1252Z" fill="black"/>
<path d="M72.7959 59.0691C73.5806 58.9944 74.3839 59.1439 75.0565 59.5736C75.617 59.9099 76.0467 60.433 76.2896 61.0308C76.7753 62.1892 76.6072 63.6277 75.7851 64.5806C75.2994 65.141 74.6268 65.5147 73.8982 65.6455C73.0948 65.795 72.2167 65.7015 71.4881 65.3092C70.9089 65.0103 70.4418 64.5245 70.1616 63.964C69.5824 62.787 69.6945 61.2737 70.5353 60.2648C71.0957 59.5549 71.9365 59.1439 72.7959 59.0691ZM72.9267 60.4517C72.4409 60.5077 71.9925 60.7693 71.6936 61.1429C71.1331 61.8529 71.1518 62.9365 71.7123 63.6464C72.0673 64.0948 72.6651 64.3564 73.2443 64.319C73.8234 64.319 74.4026 64.0201 74.7576 63.5343C75.2807 62.8057 75.2434 61.7034 74.6268 61.0495C74.1971 60.5824 73.5432 60.3582 72.9267 60.4517Z" fill="black"/>
<path d="M80.0448 59.1252C80.7548 58.9757 81.5395 59.0318 82.156 59.4241C82.6044 59.6857 82.922 60.1154 83.1088 60.6011C83.2583 60.9935 83.3143 61.4232 83.3143 61.8529C83.3143 63.1046 83.3143 64.3564 83.3143 65.5894C82.8099 65.5894 82.3055 65.5894 81.801 65.5894C81.801 64.4124 81.801 63.2167 81.801 62.0397C81.801 61.6474 81.745 61.255 81.5208 60.9187C81.3526 60.6572 81.0724 60.489 80.7735 60.433C80.4559 60.3582 80.1196 60.3769 79.8206 60.4703C79.5217 60.5637 79.2602 60.7506 79.092 61.0121C78.8678 61.3297 78.7931 61.7408 78.7931 62.1144C78.7931 63.2728 78.7931 64.4311 78.7931 65.5894C78.2887 65.5894 77.7842 65.5894 77.2798 65.5894C77.2798 63.4596 77.2798 61.3111 77.2798 59.1812C77.7095 59.1812 78.1579 59.1812 78.5876 59.1812C78.5876 59.4801 78.5876 59.7791 78.5876 60.0967C78.9052 59.5736 79.4657 59.2559 80.0448 59.1252Z" fill="black"/>
<path d="M67.6021 59.1812C68.1065 59.1812 68.6109 59.1812 69.1154 59.1812C69.1154 61.3111 69.1154 63.4596 69.1154 65.5894C68.6109 65.5894 68.1065 65.5894 67.6021 65.5894C67.6021 63.4409 67.6021 61.3111 67.6021 59.1812Z" fill="black"/>
</g>
<rect x="1" y="1" width="110" height="110" rx="9" stroke="#CCCCCC" stroke-width="2"/>
<defs>
<clipPath id="clip0_428_526">
<rect x="2" y="2" width="108" height="108" rx="8" fill="white"/>
</clipPath>
</defs>
</svg>
