<svg width="112" height="112" viewBox="0 0 112 112" fill="none" xmlns="http://www.w3.org/2000/svg">
<g clip-path="url(#clip0_428_527)">
<rect x="2" y="2" width="108" height="108" rx="8" fill="white"/>
<path d="M60.5566 47.2722H65.4862L63.0062 64.9636H58.0769L60.5566 47.2722ZM54.3421 47.2722L51.0155 57.4636L49.5638 47.2722H46.1162L41.7614 57.4334L41.2171 47.2722H36.4388L38.1022 64.9636H42.0639L46.963 53.7742L48.6869 64.9636H52.588L59.0295 47.2722H54.3421ZM95.7279 57.5543H84.0242C84.0847 59.8529 85.4608 61.3649 87.4869 61.3649C89.0142 61.3649 90.2239 60.5483 91.1614 58.9909L95.1124 60.7873C93.7546 63.4622 90.8936 65.2055 87.3659 65.2055C82.5576 65.2055 79.367 61.9696 79.367 56.7682C79.367 51.0524 83.1169 47 88.4093 47C93.0665 47 96 50.1452 96 55.0443C96 55.8609 95.9093 56.6775 95.7279 57.5543ZM91.3428 54.1673C91.3428 52.1109 90.1936 50.8105 88.3488 50.8105C86.5042 50.8105 84.871 52.1714 84.4477 54.1673H91.3428ZM21.0322 52.6038L16 58.4844H24.9848L25.9949 55.7111H22.1451L24.4979 52.9909L24.5055 52.9183L22.9753 50.2858H29.8568L24.5221 64.9636H28.1723L34.6138 47.2722H17.9718L21.0307 52.6038H21.0322ZM73.5002 50.8105C75.239 50.8105 76.7632 51.745 78.0938 53.3478L78.7925 48.3609C77.5525 47.5217 75.8741 47 73.6514 47C69.2361 47 66.7563 49.5857 66.7563 52.8669C66.7563 55.1427 68.0264 56.5337 70.1131 57.4334L71.1111 57.8871C72.9709 58.6809 73.4699 59.074 73.4699 59.9134C73.4699 60.7525 72.6308 61.3347 71.353 61.3347C69.2435 61.3421 67.535 60.2611 66.2497 58.4163L65.5375 63.4984C67.0013 64.6145 68.8778 65.2055 71.353 65.2055C75.549 65.2055 78.1271 62.7862 78.1271 59.4294C78.1271 57.1461 77.114 55.6795 74.5586 54.5302L73.4699 54.0161C71.9577 53.3432 71.4437 52.9728 71.4437 52.2318C71.4437 51.4304 72.1468 50.8105 73.5002 50.8105Z" fill="#163300"/>
</g>
<rect x="1" y="1" width="110" height="110" rx="9" stroke="#CCCCCC" stroke-width="2"/>
<defs>
<clipPath id="clip0_428_527">
<rect x="2" y="2" width="108" height="108" rx="8" fill="white"/>
</clipPath>
</defs>
</svg>
