<svg width="70" height="50" viewBox="0 0 70 50" fill="none" xmlns="http://www.w3.org/2000/svg">
<rect width="70" height="50" rx="4" fill="#E0272A"/>
<path d="M18.531 8.05185C20.9691 8.00199 23.4111 8.04587 25.8512 8.02991C27.5405 7.99302 29.2438 8.45071 30.6706 9.3641C32.0209 10.2197 33.1127 11.4801 33.7629 12.9439C34.5027 14.5892 34.6688 16.4638 34.3466 18.2318C34.0125 20.0346 33.0649 21.7198 31.6759 22.9164C30.1605 24.2416 28.153 24.9506 26.1495 24.9675C23.6627 24.9685 21.1759 24.9615 18.6891 24.9715C18.354 25.0004 18.0736 24.6913 18.0985 24.3632C18.0885 23.5246 18.0895 22.685 18.0975 21.8464C18.0865 21.5642 18.2933 21.2791 18.5857 21.2601C19.3513 21.2292 20.1179 21.2621 20.8845 21.2721C22.6067 21.2761 24.3289 21.2781 26.051 21.285C27.5783 21.292 29.1264 20.6409 30.1108 19.4543C31.5695 17.7481 31.5188 14.9661 29.9766 13.3298C29.2806 12.5679 28.334 12.0584 27.3327 11.835C26.4587 11.6266 25.5539 11.7313 24.6659 11.6875C22.6743 11.6735 20.6827 11.6645 18.6911 11.6466C18.4216 11.6685 18.1323 11.4701 18.1173 11.1869C18.0806 10.3553 18.1034 9.52165 18.0935 8.68903C18.0726 8.40883 18.2317 8.09573 18.531 8.05185Z" fill="white"/>
<path fill-rule="evenodd" clip-rule="evenodd" d="M48.791 9.22151C47.228 8.30712 45.3825 7.93319 43.5848 8.05085C41.0652 8.19046 38.6013 9.44687 37.1138 11.509C35.2325 14.0377 34.981 17.6405 36.4247 20.4325C37.2957 22.1486 38.7991 23.5197 40.568 24.2595C43.6106 25.5389 47.3721 25.1021 49.9186 22.9523C51.5006 21.636 52.5585 19.7095 52.823 17.6644C53.004 16.2185 52.8658 14.7208 52.3308 13.3597C51.6686 11.6286 50.3939 10.1449 48.791 9.22151ZM40.3145 13.2321C40.9886 12.3286 42.0018 11.6944 43.1016 11.4651C44.4081 11.1909 45.8329 11.4242 46.9406 12.187C48.1616 13.0117 48.9442 14.4097 49.0983 15.8685C49.2673 17.3154 48.8785 18.849 47.928 19.9668C47.2021 20.8333 46.1561 21.4167 45.0405 21.5832C43.4933 21.8444 41.8239 21.3429 40.7301 20.2011C38.9403 18.3863 38.7753 15.2533 40.3145 13.2321Z" fill="white"/>
<path d="M18.0925 26.7444C18.0497 26.4064 18.2257 26.0056 18.6026 25.9776C19.5283 25.9517 20.457 25.9707 21.3837 25.9687C21.7038 25.9447 22.021 26.21 22.0051 26.543C22.017 28.6071 22.0051 30.6712 22.0101 32.7353C22.0111 32.852 22.031 32.9657 22.0678 33.0774C22.2318 33.1212 22.3551 33.0195 22.4595 32.9078C24.5516 30.753 26.6506 28.6051 28.7406 26.4493C29.0449 26.1282 29.4874 25.9517 29.9288 25.9657C31.0594 25.9697 32.1899 25.9627 33.3204 25.9687C33.4716 25.9497 33.5909 26.0454 33.7062 26.1272C33.4467 26.4981 33.0997 26.7903 32.7855 27.1114C30.9858 28.8973 29.191 30.6872 27.3913 32.4721C27.2094 32.6615 26.9707 32.838 26.932 33.1172C26.8872 33.3456 27.0095 33.554 27.1457 33.7255C29.381 36.5993 31.6072 39.4811 33.8425 42.3558C33.9429 42.4855 34.0861 42.6829 33.9429 42.8375C33.7818 42.9232 33.5909 42.9063 33.4149 42.9142C32.3848 42.9093 31.3537 42.9132 30.3236 42.9132C29.8801 42.9282 29.4227 42.7417 29.1612 42.3738C27.5942 40.3197 26.0261 38.2665 24.4571 36.2124C24.3159 35.987 24.0037 35.8604 23.769 36.0219C23.3822 36.3281 23.0631 36.711 22.6991 37.043C22.3302 37.3641 22.0141 37.7979 22.0111 38.3084C22.0031 39.6376 22.017 40.9678 22.0071 42.298C22.0359 42.642 21.7227 42.9262 21.3886 42.9073C20.5922 42.9222 19.7947 42.9043 18.9983 42.9142C18.7477 42.9083 18.4494 42.9312 18.2615 42.7298C18.1153 42.5972 18.0954 42.3897 18.0925 42.2053C18.0954 37.051 18.0935 31.8987 18.0925 26.7444Z" fill="white"/>
<path d="M35.9246 25.9896C36.8404 25.9368 37.7631 25.9786 38.6808 25.9677C39.003 25.9377 39.3202 26.209 39.3033 26.541C39.2963 29.0698 39.2913 31.5986 39.2864 34.1274C39.2476 35.7547 39.9556 37.414 41.2342 38.435C43.1026 39.9786 46.1442 39.7722 47.749 37.9395C48.6409 36.9652 49.1092 35.642 49.1301 34.3278C49.152 31.7332 49.1619 29.1376 49.1888 26.543C49.1669 26.2439 49.4254 25.9667 49.7237 25.9717C50.5848 25.9597 51.4469 25.9667 52.309 25.9687C52.5834 25.9517 52.8727 26.1621 52.8827 26.4503C52.9105 28.3768 52.9225 30.3053 52.8936 32.2318C52.9125 33.0295 52.9195 33.8282 52.8906 34.6249C52.7982 36.6691 51.9818 38.6823 50.5848 40.1791C49.4354 41.4275 47.8982 42.303 46.2466 42.6769C44.4936 43.0718 42.6223 42.9631 40.9389 42.3239C39.5041 41.7795 38.2225 40.8302 37.2898 39.6067C36.1135 38.0801 35.4921 36.1476 35.499 34.2221C35.504 31.6614 35.494 29.1007 35.506 26.54C35.495 26.2868 35.682 26.0504 35.9246 25.9896Z" fill="white"/>
</svg>
