<svg width="70" height="50" viewBox="0 0 70 50" fill="none" xmlns="http://www.w3.org/2000/svg">
<rect width="70" height="50" rx="4" fill="white"/>
<path fill-rule="evenodd" clip-rule="evenodd" d="M6.62951 27.6291C6.28191 27.6291 6 27.3492 6 27.0039V22.4554C6 22.1102 6.28191 21.8302 6.62951 21.8302C6.97712 21.8302 7.25902 22.1102 7.25902 22.4554V27.0039C7.25902 27.3492 6.97712 27.6291 6.62951 27.6291Z" fill="#89C7E8"/>
<path fill-rule="evenodd" clip-rule="evenodd" d="M14.1833 27.6292C13.8357 27.6292 13.5538 27.3492 13.5538 27.004V22.459C13.5538 22.1138 13.8357 21.8338 14.1833 21.8338C14.5309 21.8338 14.8129 22.1138 14.8129 22.459V27.004C14.8129 27.3492 14.5309 27.6292 14.1833 27.6292Z" fill="#0BADDC"/>
<path fill-rule="evenodd" clip-rule="evenodd" d="M10.4063 29.4532C10.0587 29.4532 9.77679 29.1733 9.77679 28.828V20.635C9.77679 20.2898 10.0587 20.0098 10.4063 20.0098C10.7539 20.0098 11.0358 20.2898 11.0358 20.635V28.828C11.0358 29.1733 10.7539 29.4532 10.4063 29.4532Z" fill="#307FC2"/>
<path fill-rule="evenodd" clip-rule="evenodd" d="M59.6171 26.9098C59.5414 26.856 59.4658 26.7484 59.4658 26.6084C59.4658 26.4151 59.6282 26.2537 59.8337 26.2537C59.9093 26.2537 59.9854 26.2751 60.0395 26.3186C60.6129 26.7053 61.2086 26.9098 61.8146 26.9098C62.4859 26.9098 62.9733 26.5657 62.9733 26.0279V26.0066C62.9733 25.4474 62.3131 25.2323 61.5769 25.0282C60.6997 24.7807 59.7254 24.4797 59.7254 23.4587V23.4369C59.7254 22.4799 60.5265 21.8452 61.6306 21.8452C62.2263 21.8452 62.8761 22.0283 63.4168 22.3186C63.5255 22.3834 63.6227 22.5013 63.6227 22.6626C63.6227 22.8564 63.4602 23.0177 63.2548 23.0177C63.1787 23.0177 63.1138 22.996 63.0708 22.9746C62.5942 22.7057 62.0857 22.5444 61.6091 22.5444C60.9486 22.5444 60.5265 22.8884 60.5265 23.3511V23.3724C60.5265 23.8992 61.2193 24.1036 61.9663 24.329C62.8323 24.5873 63.7632 24.9206 63.7632 25.9208V25.9417C63.7632 26.996 62.8869 27.6086 61.7716 27.6086C61.0354 27.6086 60.2235 27.3396 59.6171 26.9098Z" fill="#123049"/>
<path fill-rule="evenodd" clip-rule="evenodd" d="M58.2638 24.1638C58.2638 22.913 57.1592 21.8239 55.8278 21.8239C54.4807 21.8239 53.3885 22.9086 53.3885 24.2465V27.1115C53.3885 27.3587 53.5809 27.5493 53.8293 27.5493C54.0786 27.5493 54.2594 27.3587 54.2594 27.1115L54.259 25.8247V24.1634C54.259 23.3041 54.9605 22.6073 55.8258 22.6073C56.6914 22.6073 57.393 23.3041 57.393 24.1634V25.8275V27.1115C57.393 27.3587 57.5849 27.5493 57.8226 27.5493C58.0715 27.5493 58.2638 27.3587 58.2638 27.1115C58.2638 27.1115 58.2717 24.4331 58.2638 24.1638Z" fill="#123049"/>
<path fill-rule="evenodd" clip-rule="evenodd" d="M49.1866 26.876C48.4285 26.876 47.8309 26.5549 47.8309 25.8561V25.8344C47.8309 25.1356 48.4154 24.684 49.4654 24.684C50.1474 24.684 51.1102 24.9011 51.1106 24.9205V24.9216C51.1106 25.9407 50.1522 26.876 49.1866 26.876ZM51.901 24.1035H51.8994C51.8233 22.9104 50.7538 21.898 49.4705 21.898H49.097C48.8792 21.898 48.7028 22.0732 48.7028 22.2895C48.7028 22.5058 48.8792 22.6814 49.097 22.6814H49.4685C50.3342 22.6814 51.1002 23.3782 51.1002 24.2375V24.3075C50.6021 24.1679 50.0933 24.071 49.3789 24.071C47.9607 24.071 46.9863 24.6947 46.9863 25.8668V25.8881C46.9863 27.0282 47.9981 27.6194 49.0373 27.6194C49.981 27.6194 50.7256 27.139 51.1106 26.5201V27.1572C51.1106 27.3739 51.2878 27.5494 51.506 27.5494C51.7242 27.5494 51.9014 27.3739 51.9014 27.1572L51.901 24.1035Z" fill="#123049"/>
<path fill-rule="evenodd" clip-rule="evenodd" d="M46.8286 22.2886C46.8286 22.0723 46.6519 21.8967 46.4341 21.8967H46.1649H46.1645C44.8175 21.8967 43.7253 22.9814 43.7253 24.3188V27.1115C43.7253 27.3587 43.9176 27.5493 44.1661 27.5493C44.4153 27.5493 44.5961 27.3587 44.5961 27.1115L44.5957 25.8247V24.2362C44.5957 23.3769 45.2973 22.6801 46.1625 22.6801H46.1649V22.6805H46.4341C46.6519 22.6805 46.8286 22.5049 46.8286 22.2886Z" fill="#123049"/>
<path fill-rule="evenodd" clip-rule="evenodd" d="M42.3417 22.2687C42.3417 22.0666 42.1769 21.9029 41.9734 21.9029H40.5121V20.4437C40.5121 20.2143 40.3238 20.0035 40.0932 20.0019C39.8531 20 39.6783 20.1941 39.6783 20.4211V26.0283C39.6783 27.1569 40.36 27.5978 41.2587 27.5978C41.5836 27.5978 41.8436 27.544 42.0817 27.4476C42.2223 27.3938 42.3198 27.2755 42.3198 27.1249C42.3198 26.9311 42.1574 26.7701 41.9627 26.7701C41.8978 26.7701 41.7461 26.8453 41.4538 26.8453C40.8908 26.8453 40.5121 26.5977 40.5121 25.9207V22.6345H41.9734C42.1769 22.6345 42.3417 22.4708 42.3417 22.2687Z" fill="#123049"/>
<path fill-rule="evenodd" clip-rule="evenodd" d="M37.9559 27.1356C37.9559 27.3721 37.7719 27.5548 37.5446 27.5548C37.3065 27.5548 37.1221 27.3721 37.1221 27.1356V26.5392C36.6674 27.206 36.0072 27.6192 34.9788 27.6192C33.6365 27.6192 32.3046 26.5657 32.3046 24.7379V24.7162C32.3046 22.8995 33.6365 21.8242 34.9788 21.8242C36.018 21.8242 36.6893 22.2268 37.1221 22.8504V20.4196C37.1221 20.1831 37.2953 20 37.5338 20C37.7719 20 37.9559 20.1831 37.9559 20.4196V27.1356ZM33.1603 24.7055V24.7273C33.1603 26.039 34.0801 26.8777 35.1305 26.8777C36.1697 26.8777 37.1548 26.0066 37.1548 24.7273V24.7055C37.1548 23.4262 36.1697 22.5661 35.1305 22.5661C34.0474 22.5661 33.1603 23.3618 33.1603 24.7055Z" fill="#123049"/>
<path fill-rule="evenodd" clip-rule="evenodd" d="M30.0764 22.2394C30.0764 22.0136 30.2603 21.8202 30.4877 21.8202C30.7258 21.8202 30.9101 22.0029 30.9101 22.2394V27.1355C30.9101 27.3724 30.7365 27.5547 30.4984 27.5547C30.2603 27.5547 30.0764 27.3724 30.0764 27.1355V22.2394Z" fill="#123049"/>
<path fill-rule="evenodd" clip-rule="evenodd" d="M26.0149 21.8202C25.2169 21.8202 24.513 22.2189 24.0921 22.8255C23.6736 22.2216 22.978 21.8242 22.1828 21.8242C20.894 21.8242 19.8488 22.8623 19.8488 24.1424V27.1355C19.8488 27.372 20.0323 27.5547 20.2708 27.5547C20.5089 27.5547 20.6825 27.372 20.6825 27.1355L20.6817 24.0633C20.6817 23.2403 21.3531 22.574 22.1817 22.574C23.0095 22.574 23.6812 23.2403 23.6812 24.0633L23.6808 26.7927V26.7939C23.6808 27.0224 23.8671 27.2079 24.0977 27.2079C24.3278 27.2079 24.5145 27.0224 24.5145 26.7939L24.5134 24.0593C24.5134 23.2368 25.1851 22.57 26.0133 22.57C26.8415 22.57 27.5128 23.2368 27.5128 24.0593V27.1316C27.5128 27.3685 27.6967 27.5508 27.9241 27.5508C28.1622 27.5508 28.3466 27.3685 28.3466 27.1316L28.349 24.1424C28.349 22.8219 27.2504 21.8202 26.0149 21.8202Z" fill="#123049"/>
</svg>
