<svg width="70" height="50" viewBox="0 0 70 50" fill="none" xmlns="http://www.w3.org/2000/svg">
<rect width="70" height="50" rx="4" fill="white"/>
<path fill-rule="evenodd" clip-rule="evenodd" d="M31.6747 22.3841L29.9046 24.9549L28.1239 22.3841H26.7121L29.1776 25.84L26.5856 29.4645H27.9975L29.9046 26.7356L31.7906 29.4645H33.2024L30.6105 25.84L33.076 22.3841H31.6747Z" fill="#446CB3"/>
<path fill-rule="evenodd" clip-rule="evenodd" d="M37.0271 23.3113C37.5434 23.3113 37.9437 23.4798 38.2177 23.8065C38.4811 24.1226 38.6286 24.5861 38.6391 25.1762H35.2148C35.2781 24.6072 35.4677 24.1542 35.7627 23.8275C36.0788 23.4798 36.5003 23.3113 37.0271 23.3113ZM37.0376 22.2576C36.0894 22.2576 35.3202 22.5948 34.7618 23.2691C34.2034 23.9329 33.9189 24.8496 33.9189 25.9769C33.9189 27.1043 34.2244 27.9894 34.825 28.6215C35.4256 29.2537 36.2685 29.5804 37.3116 29.5804C37.7857 29.5804 38.1861 29.5487 38.5232 29.475C38.8604 29.4012 39.2186 29.2853 39.5874 29.1273L39.6401 29.1062V27.9788L39.5137 28.0315C38.7972 28.3371 38.0702 28.4951 37.3432 28.4951C36.6689 28.4951 36.1315 28.2949 35.7627 27.8945C35.4045 27.5047 35.2043 26.9357 35.1727 26.1982H39.9351V25.4501C39.9351 24.5019 39.6717 23.7222 39.1554 23.1427C38.6391 22.5526 37.9227 22.2576 37.0376 22.2576Z" fill="#446CB3"/>
<path fill-rule="evenodd" clip-rule="evenodd" d="M44.8978 22.2576C44.4131 22.2576 43.9601 22.3525 43.5702 22.5421C43.2225 22.7107 42.9275 22.9425 42.7168 23.2375L42.5587 22.3735H41.5472V29.4539H42.7694V25.7451C42.7694 24.8706 42.9275 24.2385 43.2541 23.8697C43.5702 23.5009 44.0865 23.3113 44.7713 23.3113C45.2876 23.3113 45.6669 23.4377 45.9093 23.7011C46.1516 23.9645 46.2675 24.3649 46.2675 24.9022V29.4539H47.4897V24.8601C47.4897 23.954 47.2684 23.2902 46.8365 22.8687C46.4045 22.4684 45.7512 22.2576 44.8978 22.2576Z" fill="#446CB3"/>
<path fill-rule="evenodd" clip-rule="evenodd" d="M52.1678 28.5267C51.5673 28.5267 51.1247 28.316 50.8192 27.8946C50.5136 27.4626 50.3556 26.8093 50.3556 25.9559C50.3556 25.113 50.5136 24.4492 50.8297 23.9856C51.1353 23.5325 51.5778 23.3113 52.1678 23.3113C52.8527 23.3113 53.3479 23.5115 53.6534 23.9013C53.9695 24.3017 54.1276 24.9865 54.1276 25.9348V26.1561C54.1276 26.999 53.9695 27.6101 53.664 27.9788C53.3479 28.3476 52.8527 28.5267 52.1678 28.5267ZM54.1065 22.3841L54.1276 22.8688L54.1592 23.1848C53.6534 22.5632 52.937 22.2471 52.0308 22.2471C51.1037 22.2471 50.3767 22.5737 49.8604 23.227C49.3441 23.8697 49.0807 24.7758 49.0807 25.9348C49.0807 27.0833 49.3441 27.9894 49.8498 28.6216C50.3661 29.2537 51.1037 29.5804 52.0308 29.5804C52.9686 29.5804 53.6956 29.2537 54.1908 28.6005L54.3172 29.4539H55.3392V19.4866H54.117L54.1065 22.3841Z" fill="#446CB3"/>
<path fill-rule="evenodd" clip-rule="evenodd" d="M57.9943 19.8132C57.7941 19.8132 57.6255 19.8765 57.4885 20.0029C57.3515 20.1293 57.2883 20.3295 57.2883 20.5929C57.2883 20.8563 57.3515 21.046 57.4885 21.183C57.6255 21.3199 57.7941 21.3832 57.9943 21.3832C58.1839 21.3832 58.3525 21.3199 58.4895 21.183C58.6264 21.046 58.7002 20.8563 58.7002 20.5929C58.7002 20.3295 58.6264 20.1399 58.4895 20.0029C58.3525 19.8765 58.1839 19.8132 57.9943 19.8132Z" fill="#446CB3"/>
<path fill-rule="evenodd" clip-rule="evenodd" d="M57.3726 29.4645H58.6054V22.3841H57.3726V29.4645Z" fill="#446CB3"/>
<path fill-rule="evenodd" clip-rule="evenodd" d="M63.8841 28.4214C63.7893 28.453 63.6523 28.474 63.4837 28.5056C63.3152 28.5267 63.1466 28.5478 62.9569 28.5478C62.6408 28.5478 62.388 28.453 62.2089 28.2422C62.0297 28.042 61.9349 27.7365 61.9349 27.3467V23.3745H63.9368V22.3841H61.9349V20.7825H61.1763L60.7232 22.2787L59.7223 22.7212V23.3745H60.7127V27.3888C60.7127 28.8428 61.4186 29.5909 62.8094 29.5909C62.9885 29.5909 63.1887 29.5698 63.4205 29.5382C63.6523 29.4961 63.8209 29.4539 63.9473 29.3907L64 29.3696V28.3897L63.8841 28.4214Z" fill="#446CB3"/>
<path d="M15.5459 17H10.8467L6 25.3974L10.8467 33.7948L11.8055 32.1406L7.9176 25.3974L11.8055 18.6647H14.5871L15.5459 17Z" fill="#446CB3"/>
<path d="M12.2375 22.7001L13.1858 21.0565L11.8055 18.6647L10.8467 20.3084L12.2375 22.7001Z" fill="#D24D57"/>
<path d="M17.6743 18.6647L18.6331 20.3189L11.8055 32.1406L10.8467 30.4864L17.6743 18.6647Z" fill="#D24D57"/>
<path d="M13.9443 33.7948L14.8926 32.1406H17.6742L21.5621 25.3974L17.6742 18.6647L18.633 17L23.4797 25.3974L18.633 33.7948H13.9443Z" fill="#446CB3"/>
<path d="M17.2211 28.0631L16.2623 29.7173L17.6741 32.1406L18.6329 30.497L17.2211 28.0631Z" fill="#D24D57"/>
</svg>
