<svg xmlns="http://www.w3.org/2000/svg" width="100" height="100" id="bank">
  <g transform="translate(83.183 -383.038)">
    <rect width="63.214" height="40.714" x="-61.758" y="413.183" fill-rule="evenodd" stroke="#000" stroke-linecap="round" stroke-linejoin="round" stroke-width=".8" rx="3.599" ry="3.599"></rect>
    <rect width="62.522" height="17.054" x="-61.412" y="420.452" fill-rule="evenodd" rx="0" ry="0"></rect>
    <g style="line-height:125%">
      <path d="M-53.84 423.716h4.816c.953 0 1.664.04 2.133.119.468.08.887.245 1.257.497.37.252.678.588.925 1.007.246.419.37.889.37 1.41 0 .564-.153 1.081-.457 1.552a2.827 2.827 0 0 1-1.237 1.06c.735.214 1.299.579 1.693 
1.094.395.515.592 1.12.592 1.816 0 .548-.127 1.08-.382 1.598a3.22 3.22 0 0 1-1.044 1.241c-.44.31-.985.5-1.631.572-.406.043-1.384.07-2.934.082h-4.101zm2.433 2.005v2.786h1.594c.948 0 1.537-.014 
1.767-.041.416-.05.744-.193.982-.432.238-.238.358-.552.358-.94 0-.373-.103-.676-.309-.909-.205-.233-.51-.374-.916-.423-.241-.027-.934-.041-2.08-.041zm0 4.791v3.222h2.251c.877 0 1.433-.025 
1.669-.074.361-.066.656-.226.883-.48.228-.256.341-.597.341-1.024 0-.362-.087-.669-.263-.92a1.486 1.486 0 0 0-.76-.551c-.331-.115-1.05-.173-2.157-.173zm20.587 5.252h-2.647l-1.052-2.737h-4.816l-.994 
2.737h-2.58l4.692-12.048h2.573zm-4.48-4.767-1.66-4.47-1.627 4.47zm5.803 4.767v-12.048h2.367l4.93 8.045v-8.045h2.26v12.048h-2.44l-4.857-7.857v7.857zm12.171 0v-12.048h2.433v5.35l4.915-5.35h3.27l-4.536 4.692 4.783 
7.356h-3.148l-3.312-5.654-1.972 2.013v3.64z" font-family="Arial" font-size="16.831" font-weight="700" letter-spacing="0" style="-inkscape-font-specification:Arial Bold" word-spacing="0"></path>
    </g>
    <g style="line-height:125%">
      <path fill="#fff" d="M-53.84 422.553h4.816c.953 0 1.664.04 2.133.12.468.079.887.244 1.257.496.37.252.678.588.925 1.007.246.42.37.89.37 1.41 0 .564-.153 1.082-.457 1.553a2.827 2.827 0 0 1-1.237 1.06c.735.214 1.299.578 1.693 
1.093.395.515.592 1.12.592 1.816 0 .548-.127 1.081-.382 1.599a3.22 3.22 0 0 1-1.044 1.24c-.44.31-.985.5-1.631.572-.406.044-1.384.071-2.934.082h-4.101zm2.433 2.005v2.786h1.594c.948 0 1.537-.013 
1.767-.04.416-.05.744-.194.982-.432.238-.239.358-.552.358-.941 0-.373-.103-.675-.309-.908-.205-.233-.51-.374-.916-.424-.241-.027-.934-.04-2.08-.04zm0 4.792v3.221h2.251c.877 0 1.433-.024 
1.669-.074.361-.066.656-.226.883-.48.228-.255.341-.596.341-1.024 0-.361-.087-.668-.263-.92a1.486 1.486 0 0 0-.76-.55c-.331-.116-1.05-.173-2.157-.173zm20.587 5.251h-2.647l-1.052-2.737h-4.816l-.994 
2.737h-2.58l4.692-12.048h2.573zm-4.48-4.766-1.66-4.471-1.627 4.47zm5.803 4.766v-12.048h2.367l4.93 8.046v-8.046h2.26v12.048h-2.44l-4.857-7.857v7.857zm12.171 0v-12.048h2.433v5.35l4.915-5.35h3.27l-4.536 4.693 4.783 
7.355h-3.148l-3.312-5.654-1.972 2.013v3.641z" font-family="Arial" font-size="16.831" font-weight="700" letter-spacing="0" style="-inkscape-font-specification:Arial Bold" word-spacing="0"></path>
    </g>
    <path fill="#fff" fill-rule="evenodd" d="m-13.972 450.269-.045-4.618-.044-4.618 4.021 2.27 4.022 2.27-3.977 2.348z"></path>
    <g style="line-height:125%">
      <path fill="#fff" d="M-52.417 447.201h-.543v-2.045a1.87 1.87 0 0 
1-.701.412v-.493c.141-.046.295-.134.461-.264.166-.129.28-.28.342-.452h.44zm2.645-.504v.504h-1.902c.02-.19.082-.37.185-.541.104-.17.307-.397.61-.68.245-.227.395-.382.45-.463a.597.597 0 0 0 .113-.332c0-.12-.033-.214-.098-.279a.364.364 
0 0 0-.27-.097.361.361 0 0 0-.27.102c-.066.068-.105.181-.115.34l-.541-.054c.032-.299.133-.513.303-.643.17-.13.382-.195.637-.195.28 0 .5.075.659.225.16.151.24.338.24.563a.979.979 0 0 1-.07.364 1.48 1.48 0 0 1-.216.362 3.476 3.476 0 0 
1-.356.36c-.171.158-.28.262-.325.314a.936.936 0 0 0-.111.15zm.35-.247.525-.064a.497.497 0 0 0 .136.308.37.37 0 0 0 .266.106.366.366 0 0 0 .283-.128.494.494 0 0 0 .115-.343.46.46 0 0 0-.11-.325.351.351 0 0 0-.269-.12.948.948 0 0 
0-.249.04l.06-.441c.147.004.259-.028.336-.096a.34.34 0 0 0 .116-.27.308.308 0 0 0-.085-.227.306.306 0 0 0-.226-.085.327.327 0 0 0-.237.096.454.454 0 0 0-.12.282l-.5-.085c.034-.171.087-.308.157-.41a.71.71 0 0 1 .294-.242.986.986 0 0 
1 .422-.088c.266 0 .48.085.64.255a.665.665 0 0 1 .2.472c0 .248-.136.446-.408.595a.66.66 0 0 1 .535.672.85.85 0 0 1-.272.635.938.938 0 0 1-.678.263.933.933 0 0 1-.637-.221.869.869 0 0 
1-.294-.579zm4.382.751v-.57h-1.159v-.474l1.229-1.798h.456v1.796h.351v.477h-.351v.57zm0-1.046v-.968l-.65.968zm1.146.318.54-.056c.016.123.061.22.137.291a.372.372 0 0 0 .55-.03c.08-.093.119-.232.119-.417 
0-.174-.04-.304-.117-.391a.39.39 0 0 0-.304-.13.553.553 0 0 0-.42.206l-.44-.064.278-1.473h1.435v.508h-1.023l-.085.48a.82.82 0 0 1 .37-.09c.241 0 .445.087.613.262.167.176.25.403.25.682 0 .233-.067.441-.202.624a.899.899 0 0 
1-.767.375c-.261 0-.474-.07-.639-.21a.867.867 0 0 1-.295-.567zm4.032-1.41-.525.058a.383.383 0 0 0-.1-.24.293.293 0 0 0-.211-.076.355.355 0 0 0-.29.154c-.08.103-.13.318-.15.643a.634.634 0 0 1 .504-.24.77.77 0 0 1 
.582.26c.161.172.242.395.242.668 0 .29-.085.522-.255.697a.872.872 0 0 1-.654.263.875.875 0 0 1-.705-.333c-.184-.223-.276-.587-.276-1.093 0-.518.095-.893.287-1.122a.929.929 0 0 1 .748-.343c.215 0 
.393.06.534.18.14.12.23.295.27.524zm-1.23 1.184c0 .177.04.313.122.409.08.096.173.144.278.144.1 0 .184-.04.25-.118.068-.079.101-.207.101-.386 0-.184-.036-.32-.108-.405a.34.34 0 0 0-.27-.128.34.34 0 0 
0-.265.122c-.072.082-.108.203-.108.362zm2.69-1.334v-.504h1.856v.394a2.92 2.92 0 0 0-.467.649c-.159.282-.28.581-.362.899a3.334 3.334 0 0 0-.123.85h-.523c.009-.391.09-.79.242-1.197a3.99 3.99 0 0 1 .611-1.091zm2.667.76a.633.633 0 0 
1-.306-.244.638.638 0 0 1-.095-.34c0-.212.073-.386.22-.524.148-.138.358-.206.63-.206.269 0 .477.068.626.206a.683.683 0 0 1 .223.524.617.617 0 0 1-.39.585.759.759 0 0 1 .358.276.73.73 0 0 1 .123.419.853.853 0 0 
1-.25.637c-.167.164-.389.246-.665.246-.258 0-.472-.068-.644-.203a.791.791 0 0 1-.303-.657c0-.153.038-.294.114-.422a.734.734 0 0 1 .36-.296zm.112-.546c0 .108.031.193.092.253s.143.091.244.091c.103 0 .186-.03.248-.092a.341.341 0 0 0 
.092-.254.33.33 0 0 0-.091-.244.327.327 0 0 0-.243-.092.337.337 0 0 0-.249.093.332.332 0 0 0-.093.245zm-.05 1.213c0 .15.039.266.115.35a.373.373 0 0 0 .287.125.36.36 0 0 0 .278-.12c.073-.081.11-.197.11-.35a.451.451 0 0 
0-.112-.319.37.37 0 0 0-.284-.12c-.132 0-.231.045-.296.137a.503.503 0 0 0-.098.297zm1.686.207.526-.058a.38.38 0 0 0 .1.237.298.298 0 0 0 .214.078.35.35 0 0 0 .286-.155c.079-.103.129-.317.15-.641a.648.648 0 0 1-.51.237.765.765 0 0 
1-.577-.257c-.162-.172-.243-.396-.243-.672 0-.287.085-.518.256-.694a.87.87 0 0 1 .652-.263c.287 0 .523.11.707.333.184.222.276.587.276 1.096 0 .517-.096.89-.288 1.12a.93.93 0 0 1-.75.344c-.22 
0-.4-.06-.536-.177-.137-.118-.224-.294-.263-.528zm1.229-1.186c0-.175-.04-.311-.121-.408a.356.356 0 0 0-.28-.144c-.1 0-.183.04-.25.118-.066.08-.099.21-.099.39 0 .182.036.317.108.402a.34.34 0 0 0 .27.129.336.336 0 0 0 
.264-.124c.072-.082.108-.203.108-.363zm1.879-1.002c.274 0 .488.097.643.293.184.232.276.616.276 1.153 0 .536-.093.92-.278 1.155-.153.193-.367.29-.641.29a.81.81 0 0 1-.667-.318c-.168-.212-.253-.59-.253-1.133 
0-.533.093-.916.279-1.15.153-.194.367-.29.64-.29zm0 .45a.27.27 0 0 0-.176.062c-.051.042-.091.117-.12.225-.037.14-.056.377-.056.71 0 .331.017.56.05.684.034.124.076.207.127.248a.27.27 0 0 0 .175.062.27.27 0 0 0 
.176-.063c.051-.042.091-.117.12-.225.037-.14.055-.375.055-.707 0-.332-.016-.56-.05-.685-.033-.124-.076-.207-.126-.249a.268.268 0 0 0-.175-.063z" font-family="Arial" font-size="3.955" font-weight="700" letter-spacing="0" 
style="-inkscape-font-specification:Arial Bold" word-spacing="0"></path>
    </g>
  </g>
</svg>
